<svg xmlns="http://www.w3.org/2000/svg" viewBox="0 0 27.9 21.9" enable-background="new 0 0 27.9 21.9"><style type="text/css">.st0{fill:#616161;} .st1{opacity:0.3;fill:#FFFFFF;} .st2{fill:none;stroke:#616161;stroke-width:1.9272;stroke-miterlimit:10;} .st3{fill:none;stroke:#616161;stroke-width:1.9272;stroke-miterlimit:10;stroke-dasharray:5.8086,2.9043;} .st4{fill:none;stroke:#616161;stroke-width:1.9272;stroke-miterlimit:10;stroke-dasharray:8.8086,4.4043;} .st5{fill:#FFFFFF;}</style><path class="st0" d="M1 1h26v20H1z"/><path class="st1" d="M1 1h26v20H1z"/><path class="st2" d="M5.2 1H1v4.2"/><path class="st3" d="M1 8.1v7.3"/><path class="st2" d="M1 16.8V21h4.2"/><path class="st4" d="M9.6 21h11"/><path class="st2" d="M22.8 21H27v-4.2"/><path class="st3" d="M27 13.9V6.6"/><path class="st2" d="M27 5.2V1h-4.2"/><path class="st4" d="M18.4 1h-11"/><path class="st5" d="M12.6 11.2H10c-.4 0-.7.3-.7.7v1c.8 0 1.4.6 1.4 1.4h2c.4 0 .7-.3.7-.7v-1.7c-.1-.4-.4-.7-.8-.7zM18.7 6.2h-6.8c-.9 0-1.6.7-1.6 1.6v1.4h2.3c1.5 0 2.7 1.2 2.7 2.7v1.3h3.4c.9 0 1.6-.7 1.6-1.6V7.8c0-.9-.7-1.6-1.6-1.6zM9.3 13.8H8.1c-.2 0-.4.2-.4.4v1.2c0 .2.2.4.4.4h1.2c.2 0 .4-.2.4-.4v-1.2c0-.2-.2-.4-.4-.4z"/></svg>