<?xml version="1.0" encoding="utf-8"?>
<!-- Generator: Adobe Illustrator 19.1.0, SVG Export Plug-In . SVG Version: 6.00 Build 0)  -->
<svg version="1.1" id="Layer_1" xmlns="http://www.w3.org/2000/svg" xmlns:xlink="http://www.w3.org/1999/xlink" x="0px" y="0px"
	 viewBox="0 0 389 425.2" enable-background="new 0 0 389 425.2" xml:space="preserve">
<g>
	<g>
		<g>
			<path d="M323.4,248.2h-232v-134c0-2.8,2.3-5.2,5.2-5.2h221.6c2.8,0,5.2,2.3,5.2,5.2V248.2z"/>
			<rect x="100.7" y="118.3" fill="#5593D7" width="213.4" height="120.6"/>
			<path fill="#C9C9CC" d="M318.3,268.8H96.6c-2.8,0-5.2-2.3-5.2-5.2v-15.5h232v15.5C323.4,266.4,321.1,268.8,318.3,268.8z"/>
			<polygon fill="#C9C9CC" points="228.6,292.5 186.3,292.5 188.4,268.8 226.5,268.8 			"/>
			<rect x="171.9" y="292.5" fill="#C9C9CC" width="71.1" height="6.2"/>
			<circle cx="207.4" cy="258.5" r="5.2"/>
			<polygon fill="#B2B2B2" points="227.5,282.2 226.5,268.8 188.4,268.8 187.3,278 			"/>
		</g>
	</g>
	<g>
		<rect x="32.7" y="300.6" width="100.1" height="7.1"/>
		<path fill="#F7944B" d="M113.9,300.6H51.7l25.1-107c0.2-0.9,1-1.5,1.8-1.5H87c0.9,0,1.6,0.6,1.8,1.5L113.9,300.6z"/>
		<polygon fill="#FFFFFF" points="71.7,215 57.2,276.8 108.3,276.8 93.8,215 		"/>
		<rect x="32.7" y="300.6" fill="#333333" width="50.1" height="7.1"/>
	</g>
	<g>
		<rect x="249.6" y="307.9" width="110.2" height="7.8"/>
		<path fill="#F7944B" d="M339,307.9h-68.6l27.6-117.8c0.2-0.9,1.1-1.6,2-1.6h9.3c1,0,1.8,0.7,2,1.6L339,307.9z"/>
		<polygon fill="#FFFFFF" points="292.6,213.6 276.6,281.7 332.9,281.7 316.9,213.6 		"/>
		<rect x="249.6" y="307.9" fill="#333333" width="55.1" height="7.8"/>
	</g>
</g>
</svg>
