<?xml version="1.0" encoding="utf-8"?>
<!-- Generator: Adobe Illustrator 19.1.0, SVG Export Plug-In . SVG Version: 6.00 Build 0)  -->
<svg version="1.1" id="Layer_1" xmlns="http://www.w3.org/2000/svg" xmlns:xlink="http://www.w3.org/1999/xlink" x="0px" y="0px"
	 viewBox="0 0 389 425.2" enable-background="new 0 0 389 425.2" xml:space="preserve">
<g>
	<g opacity="0.1">
		<g>
			<g>
				<path fill="#FFFFFF" d="M254.5,186.9h-3.2l20.5,63.5c0.2-0.2,0.4-0.5,0.6-0.7c-0.3-0.6-0.5-1.2-0.7-2c-0.2-0.5,0-0.6,0.4-0.2
					c0.4,0.4,1,0.8,1.8,0.9c0,0,0-0.8,0-1.5L254.5,186.9z"/>
				<path fill="#FFFFFF" d="M250.6,176.7c0.2,0.1,0.4,0.1,0.6,0.2c0,0,0,0,0,0l-0.7-2.1L250.6,176.7
					C250.6,176.7,250.6,176.7,250.6,176.7C250.6,176.7,250.6,176.7,250.6,176.7z"/>
				<path fill="#FFFFFF" d="M240,155.1c0.6-1,1.4-1.8,2.3-2.5l-26.4-70.1h-3.2L240,155.1z"/>
				<path fill="#FFFFFF" d="M190.5,259.3h-3l4.2,42.9c0.9-0.3,1.9-0.6,2.9-0.7L190.5,259.3z"/>
				<path fill="#FFFFFF" d="M42.6,158.3l2-2c-0.6,0.3-1.3,0.5-2,0.7V158.3z"/>
				<path fill="#FFFFFF" d="M109.8,86.2c0.1-0.1,0.2-0.1,0.3-0.1c0.3-0.1,0.6-0.3,0.9-0.4c0.1,0,0.2-0.1,0.3-0.1
					c0.3-0.1,0.6-0.2,1-0.3c0,0,0,0,0,0v-2.4l-4.5,4.6C108.5,87,109.2,86.6,109.8,86.2L109.8,86.2z"/>
				<path fill="#FFFFFF" d="M40.6,228.9l0.6-53.6h-1.3h-1.7l-0.6,53.5c0.3,0,0.6,0,0.9,0C39.2,228.8,39.9,228.8,40.6,228.9z"/>
				<path fill="#FFFFFF" d="M104.9,90.5l-49.5,50.4c-0.4,1.3-1.1,2.2-1.9,2.2c0,0,0,0-0.1,0c-0.1,2-0.7,3.9-1.5,5.6l49.8-50.8
					C102.3,95.1,103.4,92.6,104.9,90.5z"/>
				<path fill="#FFFFFF" d="M132,78.7l55-16.7c-1-0.7-1.9-1.5-2.8-2.3L132,75.5v2.8C132,78.5,132,78.6,132,78.7z"/>
				<path fill="#FFFFFF" d="M359.1,290.8c-3-0.6-5.7-2-8-4l-67.6-16.5c-0.5,0.2-1.1,0.4-1.6,0.5v2.1c0,0,0,0,0,0c0,0,0,0,0,0
					c0.2,0,0.3,0.1,0.5,0.1l76.8,18.7V290.8z"/>
				<path fill="#FFFFFF" d="M170.6,222.5l-48.4-45.2c-0.2,0.3-0.4,0.6-0.6,0.9c1.8,1.4,3.1,3.5,3.7,6.1l45.3,42.3V222.5z"/>
				<path fill="#FFFFFF" d="M189,202.8l0.4-41.3h-1.3h-1.7l-0.4,41.2c0.4,0,0.7-0.1,1.1-0.1C187.7,202.7,188.4,202.8,189,202.8z"/>
				<path fill="#FFFFFF" d="M199.5,338.9L199.5,338.9L199.5,338.9C199.5,338.9,199.5,338.9,199.5,338.9z"/>
				<path fill="#FFFFFF" d="M276.7,273.5C276.7,273.5,276.7,273.5,276.7,273.5c0.1,0,0.1,0,0.2-0.1c0.2-0.1,0.4-0.2,0.6-0.3
					c0.1,0,0.1,0,0.2-0.1c0.2-0.1,0.4-0.1,0.6-0.2c0,0,0,0,0,0v-2.1c-2.3-0.5-4.2-1.9-5.4-3.8l-66.7-22.2c-0.4,0.7-1.1,1.6-1.9,2.5
					l72.7,24.2L211.7,325c-0.4,0.8-1,1.4-1.6,1.4c0,0,0,0-0.1,0c-0.1,1.7-0.6,3.4-1.3,4.9l63.2-51.7
					C272.8,276.8,274.5,274.6,276.7,273.5z"/>
				<path fill="#FFFFFF" d="M185.4,142.2c-0.3-0.1-0.7-0.2-1-0.3L125.1,169c-0.2,1.2-0.6,2.5-1,3.8l61.3-28V142.2z"/>
				<path fill="#FFFFFF" d="M127.1,158C127.1,158,127.1,158,127.1,158c0.3,1,0.3,2.3,0.1,3.4c-0.1,0.6-0.2,1.1-0.4,1.6
					c0,0.1,0,0.3,0,0.4l59-80.8h-0.8c0-1.5,0.1-3,0.4-4.5L127.1,158z"/>
				<path fill="#FFFFFF" d="M114,101.3l0.9,49.2c0.4-0.1,0.7-0.1,1.1-0.2c0.3,0,0.6,0,0.9,0c0,0,0,0,0,0c0,0,0,0,0,0
					c0.4,0,0.7,0,1,0.1l-0.9-49.1h-1.9H114z"/>
				<path fill="#FFFFFF" d="M117.8,81.9v1l12.2-3.7c-1.5-0.5-3.3-0.9-5.3-1.2C122.9,80,120.5,81.4,117.8,81.9z"/>
			</g>
			<g>
				<path fill="#FFFFFF" d="M110.6,334.5l0.9,0.6v-0.4C111.2,334.7,110.9,334.6,110.6,334.5z"/>
				<path fill="#FFFFFF" d="M98.6,237.6v-1.8c0-0.3,0-0.5,0-0.8c0,0,0,0,0,0c0-0.2,0-0.3,0-0.4c0-0.3,0-0.6,0.1-0.9
					c0-0.2,0.1-0.4,0.1-0.7l-45.4-58.9c0,0.4,0.1,0.8,0.1,1.2h-2.9L98.6,237.6z"/>
				<path fill="#FFFFFF" d="M194.1,338.9c-1.4-0.3-2.8-0.9-4-1.6l-71.9-4c-0.9,0.7-2,1.2-3.2,1.4v2.1c0,0,0,0,0,0c0,0,0,0,0,0
					c0.2,0.1,0.4,0.1,0.6,0.2c0,0,0,0,0.1,0c0.1,0,0.1,0,0.2,0c0,0,0,0,0,0c0.2,0.1,0.4,0.2,0.6,0.3c0.1,0,0.1,0.1,0.2,0.1
					c0,0,0,0,0,0c0.3,0.1,0.5,0.3,0.7,0.5l-1.2-1.7l78,4.3V338.9z"/>
				<path fill="#FFFFFF" d="M116.8,218.8c0.2,0,0.4,0.1,0.5,0.1c0,0,0,0,0.1,0l0.7-31.9h-1.2h-1.8l-0.6,31.8c0.2,0,0.5,0,0.7,0
					C115.7,218.7,116.3,218.7,116.8,218.8z"/>
				<path fill="#FFFFFF" d="M37.2,157.8v-0.9c-0.3-0.1-0.6-0.2-0.9-0.3L37.2,157.8z"/>
				<path fill="#FFFFFF" d="M126.9,267.7c0.6,1.3,1,2.7,1.3,4.2l55.5,56.2c-0.1-0.6-0.2-1.2-0.2-1.7c0,0,0,0-0.1,0
					c-1.2,0-2.1-1.8-2.1-4c0-0.3,0-0.6,0.1-0.9l-53.2-53.8H126.9z"/>
				<path fill="#FFFFFF" d="M193.7,342.3c0.1,0,0.3-0.1,0.4-0.1c0,0,0,0,0,0v-0.8L193.7,342.3z"/>
				<path fill="#FFFFFF" d="M121.5,344.2c0.2,0.9,0.4,1.9,0.4,2.9h-2l33.6,49.7c0-1.5,0.3-2.9,0.8-4.1L121.5,344.2z"/>
				<path fill="#FFFFFF" d="M269,356l-68.4-17.3c-0.4,0.1-0.8,0.2-1.1,0.3v2.5l75.1,19l-99.7,43.3v3.3l101.6-44.1v-2.5
					C273.5,359.8,270.9,358.2,269,356z"/>
				<path fill="#FFFFFF" d="M42.6,159.2C42.6,159.2,42.6,159.2,42.6,159.2c0.4,0.1,0.7,0.2,1.1,0.3c0,0,0,0,0,0c0.1,0,0.2,0,0.2,0.1
					c0,0,0,0,0,0c0.4,0.1,0.7,0.3,1,0.5c0.1,0,0.1,0.1,0.2,0.1c0,0,0,0,0,0c1,0.5,1.9,1.1,2.7,1.9l62.4,12.6
					c-0.5-1.1-0.8-2.2-1.2-3.3l-66.6-13.4L42.6,159.2C42.6,159.2,42.6,159.2,42.6,159.2z"/>
				<path fill="#FFFFFF" d="M293.1,93.6c-0.1-0.8-0.2-1.5-0.4-2.2c-0.2-0.5-0.3-1-0.5-1.5L222,61.1c-0.9,0.7-1.8,1.4-2.8,2.1
					L293.1,93.6z"/>
				<path fill="#FFFFFF" d="M186.5,357.9L172,389.4c0.8,0.9,1.4,1.9,1.9,3l15.9-34.5H186.5z"/>
				<path fill="#FFFFFF" d="M316.8,211.1l24.1,43.5c0.1-1.4,0.4-3,0.9-4.7l-21.5-38.9H316.8z"/>
				<path fill="#FFFFFF" d="M281.1,322l0.4-38.9h-1.4h-1.6l-0.4,39c0.4,0.1,0.7,0.2,1.1,0.3C279.8,322.1,280.4,322,281.1,322z"/>
				<path fill="#FFFFFF" d="M304.5,211.1l-16.8,38.6c0.8,0.8,1.5,1.8,2,2.9l18.1-41.5H304.5z"/>
				<path fill="#FFFFFF" d="M168.4,242.8l-33,7.6c0.8,0.8,1.5,1.6,2,2.6l31.2-7.2c-0.3-0.4-0.6-0.8-0.8-1.1
					C167.4,244,167.7,243.2,168.4,242.8z"/>
				<path fill="#FFFFFF" d="M307.1,117.2l2,54.4c0.8-0.3,1.6-0.4,2.5-0.4c0.2,0,0.3,0,0.5,0l-2-54h-2.2H307.1z"/>
				<path fill="#FFFFFF" d="M195.6,109.4l4.9-26.9h-3l-4.6,25.4C193.8,108.3,194.7,108.8,195.6,109.4z"/>
				<path fill="#FFFFFF" d="M104.6,326.7C104.6,326.7,104.6,326.7,104.6,326.7c-0.5,0-0.8-0.4-1.1-0.9l-61.3-44.2v3.3c0,0,0,0,0.1,0
					c0.1,0,0.1,0,0.2,0.1c0.2,0.1,0.5,0.1,0.7,0.2c0.1,0,0.1,0,0.2,0.1c0,0,0.1,0,0.1,0c0.1,0,0.1,0,0.2,0.1c0.1,0,0.3,0.1,0.4,0.1
					c0,0,0.1,0,0.1,0.1c0.2,0.1,0.5,0.2,0.7,0.3c0,0,0.1,0,0.1,0c0.3,0.1,0.5,0.2,0.8,0.4c0,0,0,0,0.1,0c0.1,0,0.2,0.1,0.3,0.1
					c0,0,0.1,0,0.1,0.1c0.1,0.1,0.3,0.1,0.4,0.2c0,0,0,0,0,0c0.3,0.2,0.5,0.3,0.8,0.5c0,0,0,0,0,0c0.4,0.2,0.7,0.5,1.1,0.8
					c0,0,0.1,0,0.1,0.1c0.7,0.6,1.4,1.2,2.1,1.9c0,0,0,0,0,0.1c0.9,1,1.7,2,2.5,3.2l53.4,38.4C105.4,330.2,104.7,328.5,104.6,326.7z
					"/>
				<path fill="#FFFFFF" d="M355.7,296.5C355.7,296.5,355.7,296.5,355.7,296.5c0,0,0.1,0,0.1-0.1c0.2-0.1,0.5-0.2,0.7-0.3
					c0.1,0,0.1,0,0.2-0.1c0.2-0.1,0.4-0.2,0.7-0.3c0.1,0,0.2-0.1,0.3-0.1c0.2-0.1,0.4-0.1,0.6-0.2c0.1,0,0.2-0.1,0.3-0.1
					c0.2-0.1,0.4-0.1,0.6-0.2c0,0,0,0,0,0v-3l-64.4,53.1c-0.4,1.4-1.1,2.3-2,2.3c0,0,0,0-0.1,0c-0.1,1.4-0.4,2.7-0.8,3.9l54.8-45.2
					C348.7,301.9,351.8,298.4,355.7,296.5z"/>
				<path fill="#FFFFFF" d="M46.5,278.8c-1.4,0.7-2.8,1.2-4.3,1.5v0.8l5.2-1.6C47.1,279.3,46.8,279.1,46.5,278.8z"/>
				<path fill="#FFFFFF" d="M115.3,310.6l0.9-35.4h-1h-1.1h-0.9l-0.9,35.2c0.3,0,0.6,0,0.9,0C113.9,310.4,114.6,310.5,115.3,310.6z"
					/>
				<path fill="#FFFFFF" d="M240.3,185.4c0-0.2,0-0.4,0.1-0.6c0-0.2,0.1-0.3,0.1-0.5c0-0.2,0.1-0.3,0.1-0.5c0-0.2,0.1-0.4,0.2-0.5
					c0-0.1,0.1-0.3,0.1-0.4c0.1-0.2,0.1-0.4,0.2-0.6c0-0.1,0.1-0.2,0.1-0.3c0.1-0.2,0.2-0.4,0.3-0.6c0-0.1,0.1-0.2,0.1-0.3
					c0.1-0.2,0.2-0.4,0.3-0.5c0.1-0.1,0.1-0.2,0.2-0.3c0.1-0.2,0.2-0.3,0.4-0.5c0-0.1,0.1-0.1,0.1-0.2v0c0.8-1,1.8-1.8,2.9-2.4
					c0,0,0,0,0,0c0.1,0,0.1,0,0.2-0.1c0.2-0.1,0.4-0.2,0.6-0.3c0.1,0,0.1,0,0.2-0.1c0.2-0.1,0.4-0.1,0.6-0.2c0,0,0,0,0,0v-2.1
					c-3.2-0.7-5.7-3.2-6.6-6.4l-49-26.2c-0.2,0.1-0.5,0.1-0.7,0.2v2.8l55.6,29.8l-42.8,45.5v4.4l36.7-38.9
					C240.3,185.6,240.3,185.5,240.3,185.4z"/>
				<path fill="#FFFFFF" d="M92.9,262.1L64,271.2c0.2,1.1,0.5,2,0.8,2.9l29.8-9.4C93.9,263.9,93.3,263,92.9,262.1z"/>
				<path fill="#FFFFFF" d="M308.8,201.3c0.1,0,0.2-0.1,0.2-0.1c0,0,0,0,0,0c0.1,0,0.2-0.1,0.4-0.1c0.1,0,0.3-0.1,0.4-0.1
					c0,0,0,0,0,0c0,0,0,0,0,0v-2.1c-2.1-0.4-4-1.7-5.2-3.5c-0.7-0.5-1.4-1.1-1.9-1.8l-50.5-19.5c-0.5,0.2-1.1,0.4-1.6,0.5v2.1
					l0.6,0.2c0,0,0,0,0.1,0c0,0,0.1,0,0.1,0c0,0,0,0,0,0c0.1,0,0.2,0.1,0.3,0.1l57.9,22.4L308.8,201.3z"/>
				<path fill="#FFFFFF" d="M259.2,161.3c-0.1,0.6-0.2,1.1-0.4,1.6c0.1,0.3,0.1,0.6,0.1,1l36.1-46.7h-0.8c0-1.6,0.2-3.2,0.6-4.7
					l-35.6,46C259.4,159.4,259.3,160.4,259.2,161.3z"/>
				<path fill="#FFFFFF" d="M313.4,201c0.2,0,0.3,0.1,0.5,0.1c0.1,0,0.2,0.1,0.4,0.1c0,0,0,0,0,0c0,0,0,0,0,0
					c0.2,0.1,0.3,0.1,0.5,0.2c0.1,0,0.2,0.1,0.3,0.1l-1.5-2.7c0,0-0.1,0-0.1,0L313.4,201C313.4,201,313.4,201,313.4,201
					C313.4,201,313.4,201,313.4,201z"/>
			</g>
		</g>
	</g>
	<g opacity="0.75">
		<g>
			<g>
				<path fill="#ED5E51" d="M303,211.1c0-5.7,3.9-10.4,8.6-10.4s8.6,4.6,8.6,10.4H303z"/>
				<path fill="#D94A3D" d="M311.6,200.8v10.4h8.6C320.3,205.4,316.4,200.8,311.6,200.8z"/>
				<path fill="#F7944B" d="M317.7,203.8c-1.6-1.8-3.7-3-6.1-3s-4.5,1.1-6.1,3c1.1,2.2,3.4,3.8,6.1,3.8S316.6,206,317.7,203.8z"/>
				<path fill="#E6820E" d="M311.6,200.8v6.8c2.7,0,5-1.5,6.1-3.8C316.1,201.9,314,200.8,311.6,200.8z"/>
			</g>
			<ellipse fill="#808285" cx="311.6" cy="175.4" rx="5.9" ry="4.2"/>
			<path fill="#939598" d="M300.9,188c0,6.1,4.8,9.3,10.7,9.3c5.9,0,10.7-3.2,10.7-9.3v-2.4h-21.4V188z"/>
			<g>
				<path fill="#F7C1A1" d="M315,201.6c-1-0.5-2.2-0.8-3.4-0.8s-2.3,0.3-3.4,0.8c0.4,1.5,1.7,2.6,3.4,2.6S314.6,203.1,315,201.6z"/>
				<rect x="309.9" y="195.3" fill="#F7C1A1" width="3.5" height="6.7"/>
				<path fill="#F5B090" d="M313.4,201v-5.7h-1.7v8.9c1.6,0,3-1.1,3.4-2.6C314.5,201.3,313.9,201.1,313.4,201z"/>
			</g>
			<ellipse fill="#F7C1A1" cx="320.3" cy="188.1" rx="1.4" ry="2.6"/>
			<ellipse fill="#F7C1A1" cx="303" cy="188.1" rx="1.4" ry="2.6"/>
			<path fill="#F7C1A1" d="M311.6,176.6c-4.8,0-8.6,4-8.6,9v4.5c0,5,3.9,9,8.6,9c4.8,0,8.6-4,8.6-9v-4.5
				C320.3,180.6,316.4,176.6,311.6,176.6z"/>
			<path fill="#F5B090" d="M311.6,176.6c3.8,0,6.9,4,6.9,9v4.5c0,5-3.1,9-6.9,9c4.8,0,8.6-4,8.6-9v-4.5
				C320.3,180.6,316.4,176.6,311.6,176.6z"/>
			<polygon fill="#513432" points="311.6,180.9 311.6,180.9 311.6,180.9 			"/>
			<path fill="#939598" d="M311.6,174.5c-5.9,0-10.7,5-10.7,11.1h2.1c0.5-1.6,2.9-1.4,4.8-1.7c1.9-0.3,3.8-2.9,3.8-2.9l0,0h0l0,0
				c0,0,1.9,2.6,3.8,2.9c1.9,0.3,4.4,0.1,4.8,1.7h2.1C322.3,179.5,317.5,174.5,311.6,174.5z"/>
		</g>
		<g>
			<path fill="#513432" d="M153.4,410.1c0,0.6,0.5,1,1,1h19.4c0.6,0,1-0.5,1-1v-8.7v-4.5h-21.4v4.5V410.1z"/>
			<path fill="#FFE999" d="M155.5,422.5c0-5.7,3.9-10.4,8.6-10.4s8.6,4.6,8.6,10.4H155.5z"/>
			<path fill="#F9CB64" d="M164.1,412.1v10.4h8.6C172.8,416.8,168.9,412.1,164.1,412.1z"/>
			<path fill="#F7C1A1" d="M167.5,412.9c-1-0.5-2.2-0.8-3.4-0.8s-2.3,0.3-3.4,0.8c0.4,1.5,1.7,2.6,3.4,2.6
				C165.8,415.6,167.1,414.5,167.5,412.9z"/>
			<rect x="162.4" y="406.7" fill="#F7C1A1" width="3.5" height="6.7"/>
			<path fill="#F5B090" d="M165.9,412.3v-5.7h-1.7v8.9c1.6,0,3-1.1,3.4-2.6C167,412.7,166.4,412.5,165.9,412.3z"/>
			<ellipse fill="#F7C1A1" cx="172.8" cy="399.5" rx="1.4" ry="2.6"/>
			<ellipse fill="#F7C1A1" cx="155.5" cy="399.5" rx="1.4" ry="2.6"/>
			<path fill="#F7C1A1" d="M164.1,387.9c-4.8,0-8.6,4-8.6,9v4.5c0,5,3.9,9,8.6,9c4.8,0,8.6-4,8.6-9v-4.5
				C172.8,392,168.9,387.9,164.1,387.9z"/>
			<path fill="#F5B090" d="M164.1,387.9c3.8,0,6.9,4,6.9,9v4.5c0,5-3.1,9-6.9,9c4.8,0,8.6-4,8.6-9v-4.5
				C172.8,392,168.9,387.9,164.1,387.9z"/>
			<path fill="#513432" d="M164.1,385.9c-5.9,0-10.7,5-10.7,11.1h2.1c0,0,1.9-4.8,6.3-5.2c0,0,4.5,11.6,11,5.2h2.1
				C174.9,390.8,170.1,385.9,164.1,385.9z"/>
		</g>
		<g opacity="0.5">
			<path fill="#F69626" d="M341,262.7c0.3,1.9,0.8,3.6,1.3,4.7c1.2,2.6,2.2,4.7,2.2,4.7h36.4l2.2-4.7c0.5-1.2,1-2.9,1.3-4.7H341z"/>
			<g>
				<path fill="#FFE999" d="M344.5,316.6c0-12.1,8.1-21.8,18.2-21.8c10.1,0,18.2,9.8,18.2,21.8H344.5z"/>
				<path fill="#F9CB64" d="M362.7,294.8v21.8h18.2C380.9,304.6,372.8,294.8,362.7,294.8z"/>
			</g>
			<g>
				<path fill="#F7C1A1" d="M369.8,296.5c-2.2-1.1-4.6-1.7-7.1-1.7c-2.5,0-4.9,0.6-7.1,1.7c0.8,3.2,3.6,5.6,7.1,5.6
					C366.2,302.1,369,299.7,369.8,296.5z"/>
				<rect x="359.1" y="283.3" fill="#F7C1A1" width="7.3" height="14.1"/>
				<path fill="#F5B090" d="M366.4,295.2v-12h-3.6v18.8c3.4,0,6.3-2.4,7.1-5.6C368.7,295.9,367.6,295.5,366.4,295.2z"/>
			</g>
			<ellipse fill="#F7C1A1" cx="380.9" cy="268.2" rx="2.9" ry="5.5"/>
			<ellipse fill="#F7C1A1" cx="344.5" cy="268.2" rx="2.9" ry="5.5"/>
			<path fill="#F7C1A1" d="M362.8,243.8c-10.1,0-18.2,8.4-18.3,18.9l0,9.5c0,10.5,8.1,19,18.1,19c10.1,0,18.2-8.4,18.3-18.9l0-9.5
				C381,252.4,372.9,243.9,362.8,243.8z"/>
			<path fill="#F5B090" d="M362.7,243.8c8,0,14.6,8.5,14.6,18.9v9.5c0,10.5-6.5,18.9-14.6,18.9c10.1,0,18.2-8.5,18.2-18.9v-9.5
				C380.9,252.3,372.8,243.8,362.7,243.8z"/>
			<path fill="#F69626" d="M379.9,244.4c-6.4-5.9-15.6-4.9-15.6-4.9c1-0.8,2.8-1.3,4.1-1.6c0.8-0.2,0.8-0.4,0-0.6
				c-14-3.3-19.9,7.4-19.9,7.4c-0.2-1.1,1-3.5,1.8-5c0.4-0.7,0.1-1-0.6-0.6c-10.1,5.4-9,20.1-9,20.1c0,1.2,0.1,2.5,0.3,3.6h3.5
				c0,0,4.2-10.1,11.1-12.7c1.8,1.8,4.3,2.9,7.1,2.9c2.7,0,5.2-1.1,7.1-2.9c6.9,2.6,11.1,12.7,11.1,12.7h3.5c0.4-2.4,0.4-5-0.2-7.2
				c-1.5-4.6-4.3-8.6-8-11.5c1.1,0,2.4,0.4,3.3,0.7C380.4,245.1,380.5,244.9,379.9,244.4z"/>
		</g>
		<g>
			<g>
				<path fill="#FFE999" d="M20.2,306.4c0-12.1,8.2-22,18.3-22c10.1,0,18.3,9.8,18.3,22H20.2z"/>
				<path fill="#F9CB64" d="M38.5,284.4v22h18.3C56.8,294.3,48.6,284.4,38.5,284.4z"/>
			</g>
			<g>
				<path fill="#F7C1A1" d="M38.5,299.1c5.6,0,10.6-3.2,13.1-8.1c-3.3-4.1-7.9-6.6-13.1-6.6c-5.1,0-9.7,2.5-13.1,6.6
					C27.9,295.9,32.9,299.1,38.5,299.1z"/>
				<rect x="34.9" y="272.8" fill="#F7C1A1" width="7.3" height="14.2"/>
				<path fill="#F5B090" d="M42.2,284.9v-12h-3.7v26.2c5.6,0,10.6-3.2,13.1-8.1C49.1,287.9,45.8,285.8,42.2,284.9z"/>
			</g>
			<g>
				<path fill="#513432" d="M48.1,231L48.1,231c2.5-2.8,6-4.6,10.1-4.6c7.4,0,13.4,6,13.4,13.4c0,1.5-0.3,2.9-0.7,4.3
					c-1.5-3.3-4.2-5.9-7.6-7.1c0.1,0.1,7.3,10.2,2.3,23.3c-5,13.2,2.7,18.4,2.7,18.4s-11.7,9.8-23-0.8h-6.7v-44.6L48.1,231z"/>
				<path fill="#513432" d="M29,231L29,231c-2.5-2.8-6-4.6-10.1-4.6c-7.4,0-13.4,6-13.4,13.4c0,1.5,0.3,2.9,0.7,4.3
					c1.5-3.3,4.2-5.9,7.6-7.1c-0.1,0.1-7.3,10.2-2.3,23.3c5,13.2-2.7,18.4-2.7,18.4s11.7,9.8,23-0.8h6.7v-44.6L29,231z"/>
			</g>
			<ellipse fill="#F7C1A1" cx="56.8" cy="257.7" rx="2.9" ry="5.5"/>
			<ellipse fill="#F7C1A1" cx="20.2" cy="257.7" rx="2.9" ry="5.5"/>
			<path fill="#F7C1A1" d="M38.5,233.2c-10.1,0-18.3,8.5-18.3,19v9.5c0,10.5,8.2,19,18.3,19c10.1,0,18.3-8.5,18.3-19v-9.5
				C56.8,241.7,48.6,233.2,38.5,233.2z"/>
			<path fill="#F5B090" d="M38.5,233.2c8.1,0,14.6,8.5,14.6,19v9.5c0,10.5-6.6,19-14.6,19c10.1,0,18.3-8.5,18.3-19v-9.5
				C56.8,241.7,48.6,233.2,38.5,233.2z"/>
			<g>
				<path fill="#ED5E51" d="M29,231L29,231L29,231c-0.7-0.8-1.5-1.4-2.3-2c-1.5,0.4-3.5,1.7-5.4,3.6c-3,3-4.5,6.3-3.4,7.4
					c1.1,1.1,4.4-0.4,7.4-3.4C27.3,234.6,28.6,232.5,29,231z"/>
				<path fill="#ED5E51" d="M48.1,231L48.1,231L48.1,231c0.7-0.8,1.5-1.4,2.3-2c1.5,0.4,3.5,1.7,5.4,3.6c3,3,4.5,6.3,3.4,7.4
					c-1.1,1.1-4.4-0.4-7.4-3.4C49.7,234.6,48.4,232.5,48.1,231z"/>
				<path fill="#513432" d="M60.1,245c-3-9.4-11.5-16.2-21.6-16.2c-10.1,0-18.6,6.8-21.6,16.2c-0.7,2.2-0.6,4.8-0.3,7.2h3.5
					c0,0,15.2-1.7,18.3-9.7h0c3.1,8,18.3,9.7,18.3,9.7h3.5C60.8,249.8,60.8,247.1,60.1,245z"/>
			</g>
		</g>
		<g>
			<path fill="#513432" d="M177.5,31.6c1.7-2.7,2.9-8.4,4.2-12.3c3-9.7,11.9-16.7,22.3-16.7c10.4,0,19.2,7,22.3,16.7
				c1.2,4,2.5,9.6,4.2,12.3c0,0,2.6,5.8,3,7.2c3.6,12.8-16.5,30.2-29.4,30.2c-12.9,0-33.1-17.4-29.4-30.2
				C174.9,37.4,175.8,34.3,177.5,31.6z"/>
			<g>
				<path fill="#FFE999" d="M185.1,82.5c0-12.5,8.4-22.6,18.9-22.6c10.4,0,18.9,10.1,18.9,22.6H185.1z"/>
				<path fill="#F9CB64" d="M203.9,59.9v22.6h18.9C222.8,70,214.3,59.9,203.9,59.9z"/>
			</g>
			<g>
				<path fill="#87583C" d="M211.3,61.7c-2.3-1.1-4.7-1.8-7.3-1.8s-5.1,0.6-7.3,1.8c0.8,3.3,3.8,5.8,7.3,5.8S210.5,65,211.3,61.7z"
					/>
				<rect x="200.2" y="47.9" fill="#87583C" width="7.5" height="14.6"/>
				<path fill="#804C2D" d="M207.7,60.3V47.9h-3.8v19.5c3.6,0,6.5-2.5,7.3-5.8C210.1,61.1,208.9,60.6,207.7,60.3z"/>
			</g>
			<ellipse fill="#87583C" cx="222.8" cy="32.3" rx="3" ry="5.7"/>
			<ellipse fill="#87583C" cx="185.1" cy="32.3" rx="3" ry="5.7"/>
			<path fill="#87583C" d="M203.9,7c-10.4,0-18.9,8.8-18.9,19.6v9.8c0,10.8,8.4,19.6,18.9,19.6c10.4,0,18.9-8.8,18.9-19.6v-9.8
				C222.8,15.8,214.3,7,203.9,7z"/>
			<path fill="#804C2D" d="M203.9,7c8.3,0,15.1,8.8,15.1,19.6v9.8c0,10.8-6.8,19.6-15.1,19.6c10.4,0,18.9-8.8,18.9-19.6v-9.8
				C222.8,15.8,214.3,7,203.9,7z"/>
			<path fill="#513432" d="M209.8,15.1c0,0,5.5,10.6,13,11.6h4.5c0-13.3-10.5-24.2-23.4-24.2c-12.9,0-23.4,10.8-23.4,24.2h4.5h1
				C189.8,26.6,204.2,25.6,209.8,15.1z"/>
		</g>
		<g>
			<g>
				<path fill="#FFE999" d="M101.5,101.3c0-9,6.1-16.3,13.6-16.3c7.5,0,13.6,7.3,13.6,16.3H101.5z"/>
				<path fill="#F9CB64" d="M115.1,85v16.3h13.6C128.7,92.3,122.6,85,115.1,85z"/>
			</g>
			<g>
				<rect x="112.4" y="76.3" fill="#F7C1A1" width="5.4" height="10.6"/>
				<path fill="#F7C1A1" d="M120.4,86.2c-1.6-0.8-3.4-1.3-5.3-1.3c-1.9,0-3.7,0.5-5.3,1.3l0,0l5.3,7.8L120.4,86.2L120.4,86.2z"/>
				<path fill="#F5B090" d="M117.8,85.3v-8.9h-2.7V94l0,0l5.3-7.8v0C119.6,85.8,118.7,85.5,117.8,85.3z"/>
			</g>
			<g>
				<path fill="#513432" d="M115.1,43.6c-9.3,0-16.9,7.8-16.9,17.4v7.1v10.3c0,0.9,0.7,1.3,1.5,1c3.7-1.3,9.2-2.1,15.4-2.1
					c6.1,0,11.6,0.8,15.4,2.1c0.9,0.3,1.5-0.1,1.5-1V68.1V61C132,51.4,124.4,43.6,115.1,43.6z"/>
				<path fill="#513432" d="M98.2,61v7.1v10.3c0,0.9,0.7,1.3,1.5,1c3.7-1.3,9.2-2.1,15.4-2.1c6.1,0,11.6,0.8,15.4,2.1
					c0.9,0.3,1.5-0.1,1.5-1V68.1V61H98.2z"/>
				<path fill="#F7C1A1" d="M115.1,46.8c-7.5,0-13.6,6.3-13.6,14.2v7.1c0,7.8,6.1,14.2,13.6,14.2c7.5,0,13.6-6.3,13.6-14.2V61
					C128.7,53.2,122.6,46.8,115.1,46.8z"/>
				<path fill="#F5B090" d="M115.1,46.8c6,0,10.9,6.3,10.9,14.2v7.1c0,7.8-4.9,14.2-10.9,14.2c7.5,0,13.6-6.3,13.6-14.2V61
					C128.7,53.2,122.6,46.8,115.1,46.8z"/>
				<path fill="#513432" d="M115.1,43.6c-9.3,0-16.9,7.8-16.9,17.4h3.3c0,0,1.7-1.3,5.6-2.2c0.4-1.5,1.4-4.6,3.1-5.8
					c0,0-1.2,3-1.1,5.5c1.7-0.3,3.6-0.4,6-0.4c2.3,0,4.3,0.2,6,0.4c0.2-2.5-1.1-5.5-1.1-5.5c1.7,1.2,2.7,4.3,3.1,5.8
					c4,0.9,5.6,2.2,5.6,2.2h3.3C132,51.4,124.4,43.6,115.1,43.6z"/>
			</g>
		</g>
		<g>
			<g>
				<path fill="#FFE999" d="M240.2,186.9c0-5.7,3.9-10.4,8.6-10.4c4.8,0,8.6,4.6,8.6,10.4H240.2z"/>
				<path fill="#F9CB64" d="M248.9,176.5v10.4h8.6C257.5,181.2,253.7,176.5,248.9,176.5z"/>
				<path fill="#E6820E" d="M255.1,179.7v7.2h2.4C257.5,184.1,256.6,181.6,255.1,179.7z"/>
				<path fill="#F7944B" d="M240.2,186.9h2.4v-7.2C241.2,181.6,240.2,184.1,240.2,186.9z"/>
			</g>
			<path fill="#513432" d="M259.2,161.3c-0.1,0.9-0.4,1.7-0.6,2.2l-1,2.2h-17.3c0,0-0.5-1-1-2.2c-0.3-0.5-0.5-1.4-0.6-2.2H259.2z"/>
			<path fill="#F7C1A1" d="M252.2,177.3c-1-0.5-2.2-0.8-3.4-0.8c-1.2,0-2.3,0.3-3.4,0.8c0.4,1.5,1.7,2.6,3.4,2.6
				C250.5,180,251.9,178.8,252.2,177.3z"/>
			<rect x="247.1" y="171" fill="#F7C1A1" width="3.5" height="6.7"/>
			<path fill="#F5B090" d="M250.6,176.7V171h-1.7v8.9c1.6,0,3-1.1,3.4-2.6C251.7,177.1,251.2,176.9,250.6,176.7z"/>
			<ellipse fill="#F7C1A1" cx="257.5" cy="163.9" rx="1.4" ry="2.6"/>
			<ellipse fill="#F7C1A1" cx="240.2" cy="163.9" rx="1.4" ry="2.6"/>
			<path fill="#F7C1A1" d="M248.9,152.3c-4.8,0-8.6,4-8.6,9v4.5c0,5,3.9,9,8.6,9c4.8,0,8.6-4,8.6-9v-4.5
				C257.5,156.3,253.7,152.3,248.9,152.3z"/>
			<path fill="#F5B090" d="M248.9,152.3c3.8,0,6.9,4,6.9,9v4.5c0,5-3.1,9-6.9,9c4.8,0,8.6-4,8.6-9v-4.5
				C257.5,156.3,253.7,152.3,248.9,152.3z"/>
			<path fill="#513432" d="M259.2,161.3h-1.7c0,0-1.8-4.6-4.6-4.6c-1.8,0-2.1,2-4,2c-1.9,0-2.3-2-4-2c-2.8,0-4.6,4.6-4.6,4.6h-1.7
				c-0.2-1.1-0.2-2.4,0.1-3.4c1.4-4.4,5.4-7.7,10.2-7.7c4.8,0,8.8,3.2,10.2,7.7C259.4,158.9,259.4,160.2,259.2,161.3z"/>
		</g>
		<g opacity="0.5">
			<g>
				<path fill="#FFE999" d="M174.5,161.5c0-9,6.1-16.3,13.6-16.3c7.5,0,13.6,7.3,13.6,16.3H174.5z"/>
				<path fill="#F9CB64" d="M188.1,145.2v16.3h13.6C201.7,152.5,195.6,145.2,188.1,145.2z"/>
				<path fill="#E6820E" d="M197.9,150.2v11.3h3.8C201.7,157.1,200.3,153.1,197.9,150.2z"/>
				<path fill="#F7944B" d="M174.5,161.5h3.8v-11.3C175.9,153.1,174.5,157.1,174.5,161.5z"/>
			</g>
			<g>
				<rect x="185.4" y="136.6" fill="#87583C" width="5.4" height="10.6"/>
				<path fill="#87583C" d="M193.4,146.5c-1.6-0.8-3.4-1.3-5.3-1.3c-1.9,0-3.7,0.5-5.3,1.3l0,0l5.3,7.8L193.4,146.5L193.4,146.5z"/>
				<path fill="#804C2D" d="M190.8,145.5v-8.9h-2.7v17.7l0,0l5.3-7.8v0C192.6,146.1,191.7,145.7,190.8,145.5z"/>
			</g>
			<g>
				<circle fill="#939598" cx="178.3" cy="118.1" r="7.2"/>
				<circle fill="#939598" cx="197.9" cy="118.1" r="7.2"/>
				<ellipse fill="#87583C" cx="201.7" cy="125.3" rx="2.2" ry="4.1"/>
				<ellipse fill="#87583C" cx="174.5" cy="125.3" rx="2.2" ry="4.1"/>
				<path fill="#87583C" d="M188.1,107.1c-7.5,0-13.6,6.3-13.6,14.2v7.1c0,7.8,6.1,14.2,13.6,14.2c7.5,0,13.6-6.3,13.6-14.2v-7.1
					C201.7,113.4,195.6,107.1,188.1,107.1z"/>
				<path fill="#804C2D" d="M188.1,107.1c6,0,10.9,6.3,10.9,14.2v7.1c0,7.8-4.9,14.2-10.9,14.2c7.5,0,13.6-6.3,13.6-14.2v-7.1
					C201.7,113.4,195.6,107.1,188.1,107.1z"/>
				<g>
					<path fill="#939598" d="M188.1,133.6c3.8,3.8,7.4,1.8,9,0.6c0.5-0.4,0.3-0.5-0.3-0.6c-1.1-0.1-2.7-0.8-3.8-2.7
						c-1.6-2.7-4.9-0.3-4.9-0.3s-3.3-2.4-4.9,0.3c-1.1,1.9-2.7,2.6-3.8,2.7c-0.6,0.1-0.7,0.2-0.3,0.6
						C180.7,135.4,184.3,137.4,188.1,133.6z"/>
					<path fill="#808285" d="M196.8,133.6c-1.1-0.1-2.7-0.8-3.8-2.7c-1.6-2.7-4.9-0.3-4.9-0.3v2.9c3.8,3.8,7.4,1.8,9,0.6
						C197.6,133.8,197.4,133.7,196.8,133.6z"/>
				</g>
				<path fill="#804C2D" d="M193.3,114.6h-10.3c-0.3,0-0.5-0.2-0.5-0.5s0.2-0.5,0.5-0.5h10.3c0.3,0,0.5,0.2,0.5,0.5
					S193.6,114.6,193.3,114.6z"/>
				<path fill="#804C2D" d="M194.9,117.1h-13.6c-0.3,0-0.5-0.2-0.5-0.5c0-0.3,0.2-0.5,0.5-0.5h13.6c0.3,0,0.5,0.2,0.5,0.5
					C195.5,116.9,195.2,117.1,194.9,117.1z"/>
			</g>
		</g>
		<g opacity="0.5">
			<path fill="#F69626" d="M326.8,100.2c-4.9-2.6-4.4-6.5-3.7-8.7c0.8-2.4,1.7-4.8,1.7-7.5v-7.1H291V84c0,2.7,0.9,5.1,1.7,7.5
				c0.7,2.3,1.2,6.2-3.7,8.7c-0.8,0.4-1.2,1.3-0.7,2.1c1.9,3.1,7.4,9.9,19.7,9.9c12.3,0,17.8-6.8,19.7-9.9
				C328,101.5,327.6,100.6,326.8,100.2z"/>
			<path fill="#FFE999" d="M294.2,117.2c0-9,6.1-16.3,13.6-16.3s13.6,7.3,13.6,16.3H294.2z"/>
			<path fill="#F9CB64" d="M307.8,100.8v16.3h13.6C321.5,108.2,315.4,100.8,307.8,100.8z"/>
			<path fill="#F7C1A1" d="M313.1,102.1c-1.6-0.8-3.4-1.3-5.3-1.3c-1.9,0-3.7,0.5-5.3,1.3c0.6,2.4,2.7,4.2,5.3,4.2
				S312.6,104.5,313.1,102.1z"/>
			<rect x="305.1" y="92.2" fill="#F7C1A1" width="5.4" height="10.6"/>
			<path fill="#F5B090" d="M310.6,101.2v-8.9h-2.7v14.1c2.6,0,4.7-1.8,5.3-4.2C312.3,101.7,311.5,101.4,310.6,101.2z"/>
			<ellipse fill="#F7C1A1" cx="321.5" cy="81" rx="2.2" ry="4.1"/>
			<ellipse fill="#F7C1A1" cx="294.2" cy="81" rx="2.2" ry="4.1"/>
			<path fill="#F7C1A1" d="M307.8,62.7c-7.5,0-13.6,6.3-13.6,14.2V84c0,7.8,6.1,14.2,13.6,14.2s13.6-6.3,13.6-14.2v-7.1
				C321.5,69.1,315.4,62.7,307.8,62.7z"/>
			<path fill="#F5B090" d="M307.8,62.7c6,0,10.9,6.3,10.9,14.2V84c0,7.8-4.9,14.2-10.9,14.2c7.5,0,13.6-6.3,13.6-14.2v-7.1
				C321.5,69.1,315.4,62.7,307.8,62.7z"/>
			<path fill="#F69626" d="M307.8,59.4c-9.3,0-16.9,7.8-16.9,17.4h3.3c0,0,2.1-1.2,5-2.2c2.9-1,5.4-5.3,5.4-5.3
				c1.3,2.6,6.4,5.2,10,5.4c3.6,0.3,6.8,2.1,6.8,2.1h3.3C324.7,67.3,317.2,59.4,307.8,59.4z"/>
		</g>
		<g>
			<path fill="#513432" d="M205.6,242.7c-4.8-2.5-4.3-6.4-3.6-8.6c0.8-2.3,1.6-4.7,1.6-7.4v-6.9c0-9.4-7.4-17.1-16.5-17.1
				c-9.1,0-16.5,7.7-16.5,17.1v6.9c0,2.6,0.9,5,1.6,7.4c0.7,2.2,1.2,6-3.6,8.6c-0.8,0.4-1.2,1.3-0.7,2c1.8,3,7.2,9.7,19.3,9.7
				c12,0,17.4-6.7,19.3-9.7C206.8,243.9,206.4,243.1,205.6,242.7z"/>
			<g>
				<path fill="#FFB583" d="M173.8,259.3c0-8.8,6-16,13.3-16c7.4,0,13.3,7.2,13.3,16H173.8z"/>
				<path fill="#F7944B" d="M187.1,243.3v16h13.3C200.4,250.4,194.5,243.3,187.1,243.3z"/>
				<path fill="#FFE999" d="M181.9,244.5c-0.8,2.2,0,9.4,5.2,9.4v-10.7C185.3,243.3,183.5,243.7,181.9,244.5z"/>
				<path fill="#F9CB64" d="M192.3,244.5c0.8,2.2,0,9.4-5.2,9.4v-10.7C188.9,243.3,190.7,243.7,192.3,244.5z"/>
			</g>
			<g>
				<path fill="#F7C1A1" d="M192.3,244.5c-1.6-0.8-3.3-1.3-5.2-1.3s-3.6,0.4-5.2,1.3c0.6,2.3,2.7,4.1,5.2,4.1
					S191.7,246.9,192.3,244.5z"/>
				<rect x="184.4" y="234.8" fill="#F7C1A1" width="5.3" height="10.3"/>
				<path fill="#F5B090" d="M189.8,243.6v-8.8h-2.7v13.8c2.5,0,4.6-1.7,5.2-4.1C191.5,244.1,190.6,243.8,189.8,243.6z"/>
			</g>
			<ellipse fill="#F7C1A1" cx="200.4" cy="223.8" rx="2.1" ry="4"/>
			<path fill="#F7C1A1" d="M187.1,205.9c-7.4,0-13.3,6.2-13.3,13.9v6.9c0,7.7,6,13.9,13.3,13.9s13.3-6.2,13.3-13.9v-6.9
				C200.4,212.1,194.5,205.9,187.1,205.9z"/>
			<path fill="#F5B090" d="M187.1,205.9c5.9,0,10.7,6.2,10.7,13.9v6.9c0,7.7-4.8,13.9-10.7,13.9c7.4,0,13.3-6.2,13.3-13.9v-6.9
				C200.4,212.1,194.5,205.9,187.1,205.9z"/>
			<path fill="#513432" d="M187.1,202.7c-9.1,0-16.5,7.7-16.5,17.1v6.9c0,2.6,0.9,5,1.6,7.4c0.3,1,0.6,2.3,0.4,3.7h3.9
				c-1.1-2.9-0.6-12.7,5.5-15.6s10.4-9.7,10.4-9.7c3.8,1.7,8.2,7.3,8.2,7.3h3.2C203.6,210.4,196.2,202.7,187.1,202.7z"/>
		</g>
		<g opacity="0.5">
			<path fill="#513432" d="M269.8,257.5c0.1,0.9,0.4,1.7,0.6,2.2c0.6,1.2,1,2.2,1,2.2h17.3l1-2.2c0.3-0.5,0.5-1.4,0.6-2.2H269.8z"/>
			<g>
				<path fill="#FFE999" d="M271.4,283.1c0-5.7,3.9-10.4,8.6-10.4c4.8,0,8.6,4.6,8.6,10.4H271.4z"/>
				<path fill="#F9CB64" d="M280.1,272.7v10.4h8.6C288.7,277.4,284.9,272.7,280.1,272.7z"/>
			</g>
			<g>
				<path fill="#F7C1A1" d="M283.4,273.5c-1-0.5-2.2-0.8-3.4-0.8c-1.2,0-2.3,0.3-3.4,0.8c0.4,1.5,1.7,2.6,3.4,2.6
					C281.7,276.2,283.1,275,283.4,273.5z"/>
				<rect x="278.4" y="267.2" fill="#F7C1A1" width="3.5" height="6.7"/>
				<path fill="#F5B090" d="M281.8,272.9v-5.7h-1.7v8.9c1.6,0,3-1.1,3.4-2.6C282.9,273.3,282.4,273.1,281.8,272.9z"/>
			</g>
			<ellipse fill="#F7C1A1" cx="288.7" cy="260.1" rx="1.4" ry="2.6"/>
			<ellipse fill="#F7C1A1" cx="271.4" cy="260.1" rx="1.4" ry="2.6"/>
			<path fill="#F7C1A1" d="M280.1,248.5c-4.8,0-8.6,4-8.6,9v4.5c0,5,3.9,9,8.6,9s8.6-4,8.6-9v-4.5
				C288.7,252.5,284.9,248.5,280.1,248.5z"/>
			<path fill="#F5B090" d="M280.1,248.5c3.8,0,6.9,4,6.9,9v4.5c0,5-3.1,9-6.9,9c4.8,0,8.6-4,8.6-9v-4.5
				C288.7,252.5,284.9,248.5,280.1,248.5z"/>
			<path fill="#513432" d="M275.4,246.9c-0.4-0.1-0.7-0.3-0.9-0.5c-0.4-0.4-0.6-0.5-0.6,0.1c-0.1,0.8,0,1.9,0,1.9
				c-0.7-0.1-1.3-0.5-1.8-0.9c-0.4-0.4-0.6-0.3-0.4,0.2c0.2,0.7,0.5,1.4,0.7,2c-1.2,1.2-2,2.7-2.6,4.3c-0.3,1-0.3,2.3-0.1,3.4h1.7
				c0,0,1.6-3.3,3.8-3.8c4,3.1,9-0.7,9-0.7s1,4.6,4.5,4.6h1.7c0.2-1.1,0.2-2.4-0.1-3.4c-1.4-4.4-5.4-7.7-10.2-7.7
				c-0.7,0-1.4,0.1-2,0.2C277.1,246.8,276,247.1,275.4,246.9z"/>
		</g>
		<g opacity="0.75">
			<path fill="#513432" d="M102.9,321.5c0.1,0.9,0.4,1.7,0.6,2.2c0.6,1.2,1,2.2,1,2.2h17.3l1-2.2c0.3-0.5,0.5-1.4,0.6-2.2H102.9z"/>
			<g>
				<path fill="#FFE999" d="M104.6,347.1c0-5.7,3.9-10.4,8.6-10.4s8.6,4.6,8.6,10.4H104.6z"/>
				<path fill="#F9CB64" d="M113.2,336.7v10.4h8.6C121.9,341.3,118,336.7,113.2,336.7z"/>
			</g>
			<g>
				<path fill="#87583C" d="M116.6,337.5c-1-0.5-2.2-0.8-3.4-0.8s-2.3,0.3-3.4,0.8c0.4,1.5,1.7,2.6,3.4,2.6S116.2,339,116.6,337.5z"
					/>
				<rect x="111.5" y="331.2" fill="#87583C" width="3.5" height="6.7"/>
				<path fill="#804C2D" d="M115,336.9v-5.7h-1.7v8.9c1.6,0,3-1.1,3.4-2.6C116.1,337.2,115.5,337,115,336.9z"/>
			</g>
			<ellipse fill="#87583C" cx="121.9" cy="324.1" rx="1.4" ry="2.6"/>
			<ellipse fill="#87583C" cx="104.6" cy="324.1" rx="1.4" ry="2.6"/>
			<path fill="#87583C" d="M113.2,312.5c-4.8,0-8.6,4-8.6,9v4.5c0,5,3.9,9,8.6,9c4.8,0,8.6-4,8.6-9v-4.5
				C121.9,316.5,118,312.5,113.2,312.5z"/>
			<path fill="#804C2D" d="M113.2,312.5c3.8,0,6.9,4,6.9,9v4.5c0,5-3.1,9-6.9,9c4.8,0,8.6-4,8.6-9v-4.5
				C121.9,316.5,118,312.5,113.2,312.5z"/>
			<path fill="#513432" d="M108.6,310.9c-0.4-0.1-0.7-0.3-0.9-0.5c-0.4-0.4-0.6-0.5-0.6,0.1c-0.1,0.8,0,1.9,0,1.9
				c-0.7-0.1-1.3-0.5-1.8-0.9c-0.4-0.4-0.6-0.3-0.4,0.2c0.2,0.7,0.5,1.4,0.7,2c-1.2,1.2-2,2.7-2.6,4.3c-0.3,1-0.3,2.3-0.1,3.4h1.7
				c0,0,1.6-3.3,3.8-3.8c4,3.1,9-0.7,9-0.7s1,4.6,4.5,4.6h1.7c0.2-1.1,0.2-2.4-0.1-3.4c-1.4-4.4-5.4-7.7-10.2-7.7
				c-0.7,0-1.4,0.1-2,0.2C110.3,310.8,109.1,311.1,108.6,310.9z"/>
		</g>
		<g opacity="0.5">
			<path fill="#F69626" d="M131.7,248.2v-12.4c0-9.4-7.4-17.1-16.5-17.1c-9.1,0-16.5,7.7-16.5,17.1v12.4c-4,1.3-6.8,5.1-6.8,9.5
				c0,5.5,4.5,10,10,10h26.7c5.5,0,10-4.5,10-10C138.5,253.3,135.7,249.5,131.7,248.2z"/>
			<g>
				<path fill="#FFE999" d="M101.8,275.3c0-8.8,6-16,13.3-16c7.4,0,13.3,7.2,13.3,16H101.8z"/>
				<path fill="#F9CB64" d="M115.2,259.3v16h13.3C128.5,266.4,122.5,259.3,115.2,259.3z"/>
				<path fill="#513432" d="M114.1,259.3v16h2.2v-16c-0.4,0-0.7-0.1-1.1-0.1C114.8,259.3,114.4,259.3,114.1,259.3z"/>
				<path fill="#513432" d="M115.2,264.8c0.9,1.3,2.4,2.2,4.2,2.2c2.3,0,4.2-1.5,4.8-3.5c-2.4-2.6-5.5-4.2-9-4.2
					c-3.5,0-6.6,1.6-9,4.2c0.6,2,2.6,3.5,4.8,3.5C112.7,267,114.3,266.1,115.2,264.8z"/>
			</g>
			<g>
				<path fill="#F7C1A1" d="M120.4,260.5c-1.6-0.8-3.3-1.3-5.2-1.3c-1.8,0-3.6,0.4-5.2,1.3c0.6,2.3,2.7,4.1,5.2,4.1
					C117.7,264.6,119.8,262.9,120.4,260.5z"/>
				<rect x="112.5" y="250.8" fill="#F7C1A1" width="5.3" height="10.3"/>
				<path fill="#F5B090" d="M117.8,259.6v-8.8h-2.7v13.8c2.5,0,4.6-1.7,5.2-4.1C119.6,260.1,118.7,259.8,117.8,259.6z"/>
			</g>
			<ellipse fill="#F7C1A1" cx="128.5" cy="239.8" rx="2.1" ry="4"/>
			<ellipse fill="#F7C1A1" cx="101.8" cy="239.8" rx="2.1" ry="4"/>
			<path fill="#F7C1A1" d="M115.2,221.9c-7.4,0-13.3,6.2-13.3,13.9v6.9c0,7.7,6,13.9,13.3,13.9c7.4,0,13.3-6.2,13.3-13.9v-6.9
				C128.5,228.1,122.5,221.9,115.2,221.9z"/>
			<path fill="#F5B090" d="M115.2,221.9c5.9,0,10.7,6.2,10.7,13.9v6.9c0,7.7-4.8,13.9-10.7,13.9c7.4,0,13.3-6.2,13.3-13.9v-6.9
				C128.5,228.1,122.5,221.9,115.2,221.9z"/>
			<path fill="#F69626" d="M108.4,229.4c1.3,2.4,3.8,4.1,6.7,4.1c2.9,0,5.5-1.7,6.7-4.1c0.1,3.6,3,6.4,6.6,6.4
				c1.2,0,2.2-0.3,3.2-0.8c-0.4-9-7.7-16.3-16.5-16.3c-8.9,0-16.1,7.2-16.5,16.3c0.9,0.5,2,0.8,3.2,0.8
				C105.4,235.8,108.4,232.9,108.4,229.4z"/>
		</g>
		<g>
			<g>
				<path fill="#FFE999" d="M183.4,357.9c0-8.8,6-16,13.3-16c7.4,0,13.3,7.2,13.3,16H183.4z"/>
				<path fill="#F9CB64" d="M196.8,341.9v16h13.3C210.1,349.1,204.2,341.9,196.8,341.9z"/>
				<path fill="#FFE999" d="M187.8,346.1l9,6.9v-11.1C193.3,341.9,190.2,343.5,187.8,346.1z"/>
				<path fill="#F9CB64" d="M196.8,341.9V353l9-6.9C203.4,343.5,200.2,341.9,196.8,341.9z"/>
			</g>
			<path fill="#513432" d="M180.9,318.4c0.2,1.4,0.6,2.6,1,3.5c0.9,1.9,1.6,3.5,1.6,3.5h26.7l1.6-3.5c0.4-0.8,0.8-2.1,1-3.5H180.9z"
				/>
			<g>
				<path fill="#F7C1A1" d="M202,343.1c-1.6-0.8-3.3-1.3-5.2-1.3s-3.6,0.4-5.2,1.3c0.6,2.3,2.7,4.1,5.2,4.1S201.4,345.5,202,343.1z"
					/>
				<rect x="194.1" y="333.5" fill="#F7C1A1" width="5.3" height="10.3"/>
				<path fill="#F5B090" d="M199.5,342.2v-8.8h-2.7v13.8c2.5,0,4.6-1.7,5.2-4.1C201.2,342.7,200.3,342.4,199.5,342.2z"/>
			</g>
			<ellipse fill="#F7C1A1" cx="210.1" cy="322.4" rx="2.1" ry="4"/>
			<ellipse fill="#F7C1A1" cx="183.4" cy="322.4" rx="2.1" ry="4"/>
			<path fill="#F7C1A1" d="M196.8,304.5c-7.4,0-13.3,6.2-13.3,13.9v6.9c0,7.7,6,13.9,13.3,13.9c7.4,0,13.3-6.2,13.3-13.9v-6.9
				C210.1,310.8,204.2,304.5,196.8,304.5z"/>
			<path fill="#F5B090" d="M196.8,304.5c5.9,0,10.7,6.2,10.7,13.9v6.9c0,7.7-4.8,13.9-10.7,13.9c7.4,0,13.3-6.2,13.3-13.9v-6.9
				C210.1,310.8,204.2,304.5,196.8,304.5z"/>
			<path fill="#513432" d="M212.5,313.2c-0.7-2.2-1.8-4.2-3.3-6c0.3-0.8,0.4-1.6,0.5-2.5c0-0.2,0-0.5,0-0.8c0-2.2-0.7-4.3-1.9-6
				c-1.1,2.3-3.3,4-5.9,4.3c-1.6-0.6-3.4-0.9-5.2-0.9c-2.9,0-5.6,0.8-8,2.1c-3.6,2.1-6.4,5.5-7.7,9.7c-0.5,1.6-0.5,3.5-0.2,5.3h2.6
				c0,0,2.6-6,7.3-8.4c1.9,2.7,5,4.4,8.5,4.4c2.2,0,4.2-0.6,5.8-1.8c1.6,1,3.8,2.9,5,5.8h2.6C213,316.7,213,314.7,212.5,313.2z"/>
			<g>
				<path fill="#ED5E51" d="M210.5,317.5l-8,0c-1,0-2.5,0.2-3.3,0.8c-0.2,0.2-0.5,0.4-0.6,0.6h-1.8H195c-0.2-0.2-0.4-0.4-0.6-0.6
					c-0.8-0.6-2.4-0.8-3.3-0.8l-8,0c-0.3,0-0.6,0.3-0.6,0.6c0,0.3,0.3,0.6,0.6,0.6h1.5c-0.2,0.6-0.4,1.2-0.4,1.9
					c0,2.8,2.5,5.1,5.5,5.1c2.8,0,5.2-2,5.5-4.6c0.3,0,0.5-0.3,0.5-0.6c0-0.1,0-0.2,0-0.4h1.3h1.3c0,0.1,0,0.2,0,0.4
					c0,0.3,0.2,0.5,0.5,0.6c0.3,2.6,2.6,4.6,5.5,4.6c3,0,5.5-2.3,5.5-5.1c0-0.7-0.1-1.3-0.4-1.9h1.5c0.3,0,0.6-0.3,0.6-0.6
					C211.1,317.8,210.9,317.5,210.5,317.5z M189.6,325c-2.7,0-4.9-2-4.9-4.5c0-0.7,0.2-1.3,0.4-1.9h5.6c1,0,2.4,0.2,3,0.6
					c0.4,0.3,0.7,0.7,0.7,1.1c0,0.1,0,0.2,0.1,0.3C194.4,323.1,192.2,325,189.6,325z M204,325c-2.6,0-4.8-1.9-4.9-4.3
					c0.1-0.1,0.1-0.2,0.1-0.3c0-0.5,0.3-0.8,0.7-1.1c0.6-0.5,2-0.6,3-0.6h5.6c0.3,0.6,0.4,1.2,0.4,1.9C208.9,323,206.7,325,204,325z
					"/>
				<path fill="#D94A3D" d="M210.5,317.5l-8,0c-1,0-2.5,0.2-3.3,0.8c-0.2,0.2-0.5,0.4-0.6,0.6h-1.8v1.2h1.3c0,0.1,0,0.2,0,0.4
					c0,0.3,0.2,0.5,0.5,0.6c0.3,2.6,2.6,4.6,5.5,4.6c3,0,5.5-2.3,5.5-5.1c0-0.7-0.1-1.3-0.4-1.9h1.5c0.3,0,0.6-0.3,0.6-0.6
					C211.1,317.8,210.9,317.5,210.5,317.5z M204,325c-2.6,0-4.8-1.9-4.9-4.3c0.1-0.1,0.1-0.2,0.1-0.3c0-0.5,0.3-0.8,0.7-1.1
					c0.6-0.5,2-0.6,3-0.6h5.6c0.3,0.6,0.4,1.2,0.4,1.9C208.9,323,206.7,325,204,325z"/>
			</g>
		</g>
		<g>
			<path fill="#513432" d="M127.1,158c-1.4-4.4-5.4-7.7-10.2-7.7c-4.8,0-8.8,3.2-10.2,7.7c-0.3,1-0.3,2.3-0.1,3.4
				c0.1,0.9,0.4,1.7,0.6,2.2c0.6,1.2,1,2.2,1,2.2h17.3l1-2.2c0.3-0.5,0.5-1.4,0.6-2.2C127.4,160.2,127.4,159,127.1,158z"/>
			<path fill="#FFE999" d="M108.2,187c0-5.7,3.9-10.4,8.6-10.4c4.8,0,8.6,4.6,8.6,10.4H108.2z"/>
			<path fill="#F9CB64" d="M116.9,176.6V187h8.6C125.5,181.2,121.6,176.6,116.9,176.6z"/>
			<path fill="#F7C1A1" d="M120.2,177.4c-1-0.5-2.2-0.8-3.4-0.8c-1.2,0-2.3,0.3-3.4,0.8c0.4,1.5,1.7,2.6,3.4,2.6
				C118.5,180,119.8,178.9,120.2,177.4z"/>
			<rect x="115.1" y="171.1" fill="#F7C1A1" width="3.5" height="6.7"/>
			<path fill="#F5B090" d="M118.6,176.8v-5.7h-1.7v8.9c1.6,0,3-1.1,3.4-2.6C119.7,177.1,119.1,176.9,118.6,176.8z"/>
			<ellipse fill="#F7C1A1" cx="125.5" cy="164" rx="1.4" ry="2.6"/>
			<ellipse fill="#F7C1A1" cx="108.2" cy="164" rx="1.4" ry="2.6"/>
			<path fill="#F7C1A1" d="M116.9,152.4c-4.8,0-8.6,4-8.6,9v4.5c0,5,3.9,9,8.6,9c4.8,0,8.6-4,8.6-9v-4.5
				C125.5,156.4,121.6,152.4,116.9,152.4z"/>
			<path fill="#F5B090" d="M116.9,152.4c3.8,0,6.9,4,6.9,9v4.5c0,5-3.1,9-6.9,9c4.8,0,8.6-4,8.6-9v-4.5
				C125.5,156.4,121.6,152.4,116.9,152.4z"/>
			<path fill="#513432" d="M125.4,152.9c-0.9,0.1-2.3-0.6-3.1-1.1c-1.6-1-3.5-1.5-5.4-1.5c-4.8,0-8.8,3.2-10.2,7.7
				c-0.3,1-0.3,2.3-0.1,3.4h1.7c0,0,2.5-5,5.9-5c3.5,0,3,3.2,7.7,3.2c6.7,0,6.1-6.8,6-7.5C127.8,152.1,126.9,152.7,125.4,152.9z"/>
			<path fill="#513432" d="M125,158.4c-0.2,2.8-0.8,7.9-2,8.7c0,0-2.4-1.1-6.2-1.1c-3.7,0-6.2,1.1-6.2,1.1c-1.2-0.8-1.8-5.8-2-8.7
				c-0.3,0.9-0.5,1.9-0.5,3v4.5c0,5,3.9,15.9,8.6,15.9c4.8,0,8.6-10.9,8.6-15.9v-4.5C125.5,160.3,125.3,159.3,125,158.4z"/>
			<path fill="#F7C1A1" d="M113.4,168.8c0.7,1.6,2,2.6,3.5,2.6c1.5,0,2.7-1.1,3.5-2.6H113.4z"/>
		</g>
		<g opacity="0.5">
			<g>
				<path fill="#FFE999" d="M26.3,175.2c0-9,6.1-16.3,13.6-16.3c7.5,0,13.6,7.3,13.6,16.3H26.3z"/>
				<path fill="#F9CB64" d="M39.9,158.9v16.3h13.6C53.5,166.2,47.4,158.9,39.9,158.9z"/>
				<path fill="#E6820E" d="M49.7,163.9v11.3h3.8C53.5,170.8,52,166.9,49.7,163.9z"/>
				<path fill="#F7944B" d="M26.3,175.2h3.8v-11.3C27.7,166.9,26.3,170.8,26.3,175.2z"/>
			</g>
			<path fill="#513432" d="M55.9,129.6c-2.2-7-8.6-12.1-16.1-12.1c-7.5,0-13.9,5.1-16.1,12.1c-0.5,1.6-0.5,3.6-0.2,5.4
				c0.2,1.4,0.6,2.7,1,3.5c0.9,2,1.6,3.5,1.6,3.5h27.2l1.6-3.5c0.4-0.9,0.8-2.1,1-3.5C56.4,133.2,56.4,131.2,55.9,129.6z"/>
			<g>
				<path fill="#87583C" d="M45.2,160.2c-1.6-0.8-3.4-1.3-5.3-1.3c-1.9,0-3.7,0.5-5.3,1.3c0.6,2.4,2.7,4.2,5.3,4.2
					C42.4,164.4,44.6,162.6,45.2,160.2z"/>
				<rect x="37.2" y="150.3" fill="#87583C" width="5.4" height="10.6"/>
				<path fill="#804C2D" d="M42.6,159.2v-8.9h-2.7v14.1c2.6,0,4.7-1.8,5.3-4.2C44.3,159.8,43.5,159.5,42.6,159.2z"/>
			</g>
			<ellipse fill="#87583C" cx="53.5" cy="139" rx="2.2" ry="4.1"/>
			<ellipse fill="#87583C" cx="26.3" cy="139" rx="2.2" ry="4.1"/>
			<path fill="#87583C" d="M39.9,120.8c-7.5,0-13.6,6.3-13.6,14.2v7.1c0,7.8,6.1,14.2,13.6,14.2c7.5,0,13.6-6.3,13.6-14.2v-7.1
				C53.5,127.1,47.4,120.8,39.9,120.8z"/>
			<path fill="#804C2D" d="M39.9,120.8c6,0,10.9,6.3,10.9,14.2v7.1c0,7.8-4.9,14.2-10.9,14.2c7.5,0,13.6-6.3,13.6-14.2v-7.1
				C53.5,127.1,47.4,120.8,39.9,120.8z"/>
			<g>
				<path fill="#513432" d="M52.7,130.3c-0.4,4.5-1.3,12.4-3.1,13.6c0,0-3.8-1.8-9.7-1.8c-5.9,0-9.7,1.8-9.7,1.8
					c-1.9-1.3-2.8-9.2-3.1-13.6c-0.5,1.5-0.8,3-0.8,4.7v7.1c0,7.8,6.1,15.3,13.6,15.3c7.5,0,13.6-7.4,13.6-15.3v-7.1
					C53.5,133.3,53.2,131.7,52.7,130.3z"/>
				<path fill="#87583C" d="M34.4,146.6c1.1,2.5,3.1,4.2,5.4,4.2c2.3,0,4.3-1.7,5.4-4.2H34.4z"/>
			</g>
			<g>
				<path fill="#F7944B" d="M24.6,128.2c0-7.2,6.8-13,15.3-13c8.4,0,15.3,5.8,15.3,13H24.6z"/>
				<path fill="#E6820E" d="M39.9,115.2v13h15.3C55.1,121.1,48.3,115.2,39.9,115.2z"/>
				<path fill="#ED5E51" d="M56.3,126.5c-4-2.8-9.9-4.5-16.4-4.5c-6.5,0-12.4,1.7-16.4,4.5c-0.7,0.5-1.3,1.7-1.3,2.6v3.4
					c0,0.9,0.6,1.2,1.3,0.7c4-2.8,9.9-4.5,16.4-4.5c6.5,0,12.4,1.7,16.4,4.5c0.7,0.5,1.3,0.3,1.3-0.7v-3.4
					C57.6,128.3,57,127.1,56.3,126.5z"/>
				<g>
					<g>
						<path fill="#D94A3D" d="M25.5,125.3v6.7c-0.6,0.3-1.1,0.6-1.6,1v-6.7C24.4,125.9,25,125.6,25.5,125.3z"/>
					</g>
					<g>
						<path fill="#D94A3D" d="M28.9,123.8v6.7c-0.6,0.2-1.1,0.4-1.6,0.6v-6.7C27.8,124.3,28.3,124,28.9,123.8z"/>
					</g>
					<g>
						<path fill="#D94A3D" d="M32.3,122.9v6.7c-0.6,0.1-1.1,0.3-1.6,0.4v-6.7C31.2,123.1,31.7,123,32.3,122.9z"/>
					</g>
					<g>
						<path fill="#D94A3D" d="M35.6,122.3v6.7c-0.6,0.1-1.1,0.1-1.6,0.2v-6.7C34.6,122.4,35.1,122.4,35.6,122.3z"/>
					</g>
					<g>
						<path fill="#D94A3D" d="M39,122.1v6.7c-0.6,0-1.1,0-1.6,0.1v-6.7C37.9,122.1,38.5,122.1,39,122.1z"/>
					</g>
					<g>
						<path fill="#D94A3D" d="M42.4,122.1v6.7c-0.5,0-1.1-0.1-1.6-0.1v-6.7C41.3,122.1,41.8,122.1,42.4,122.1z"/>
					</g>
					<g>
						<path fill="#D94A3D" d="M45.7,122.5v6.7c-0.5-0.1-1.1-0.2-1.6-0.2v-6.7C44.7,122.4,45.2,122.4,45.7,122.5z"/>
					</g>
					<g>
						<path fill="#D94A3D" d="M49.1,123.3v6.7c-0.5-0.1-1.1-0.3-1.6-0.4v-6.7C48,123,48.6,123.1,49.1,123.3z"/>
					</g>
					<g>
						<path fill="#D94A3D" d="M52.5,124.5v6.7c-0.5-0.2-1.1-0.4-1.6-0.6v-6.7C51.4,124,52,124.3,52.5,124.5z"/>
					</g>
					<g>
						<path fill="#D94A3D" d="M55.8,126.3v6.7c-0.5-0.3-1.1-0.7-1.6-1v-6.7C54.8,125.6,55.3,125.9,55.8,126.3z"/>
					</g>
				</g>
			</g>
		</g>
		<g>
			<g>
				<path fill="#FFE999" d="M265.5,379.8c0-9,6.1-16.3,13.6-16.3s13.6,7.3,13.6,16.3H265.5z"/>
				<path fill="#F9CB64" d="M279.2,363.4v16.3h13.6C292.8,370.7,286.7,363.4,279.2,363.4z"/>
			</g>
			<g>
				<rect x="276.4" y="354.8" fill="#87583C" width="5.4" height="10.6"/>
				<path fill="#87583C" d="M284.4,364.7c-1.6-0.8-3.4-1.3-5.3-1.3s-3.7,0.5-5.3,1.3l0,0l5.3,7.8L284.4,364.7L284.4,364.7z"/>
				<path fill="#804C2D" d="M281.9,363.7v-8.9h-2.7v17.7l0,0l5.3-7.8v0C283.6,364.3,282.8,364,281.9,363.7z"/>
			</g>
			<path fill="#513432" d="M263.6,334.1c-0.4-1.8,0.4-3.5,2.3-4.7c0.2-1.8,1.5-3.1,3.6-3.7c0.8-1.6,2.5-2.5,4.5-2.4
				c1.4-1.3,3.3-1.6,5.2-0.9c1.9-0.7,3.8-0.4,5.2,0.9c2.1-0.1,3.7,0.8,4.5,2.4c2,0.6,3.3,1.9,3.6,3.7c1.9,1.2,2.7,2.9,2.3,4.7
				c1.2,0.7,1.3,1.5,0.4,2.3c1,1,1,1.8-0.1,2.4c0.9,1.1,0.7,1.9-0.4,2.2c0.8,1.1,0.5,1.8-0.6,1.8c0.9,0.5,0.5,1.4-0.4,0.9
				c0.9,0.6,0.5,1.5-0.4,0.9c0.9,0.6,0.4,1.5-0.4,0.9c0.8,0.7,0.4,1.6-0.4,0.9c0.8,0.7-6.2,0.7-6.6,0c0.4,0.7-6.6,0.7-6.6,0
				c0,0.7-7,0.7-6.6,0c-0.4,0.7-7.4,0.7-6.6,0c-0.8,0.7-0.9,0.6-0.1-0.3c-0.9,0.5-1,0.3-0.3-0.7c-1,0.3-1.2-0.1-0.5-1.1
				c-1.1,0.2-1.3-0.3-0.6-1.3c-1.1,0-1.4-0.6-0.6-1.8c-1.1-0.3-1.3-1.1-0.4-2.2c-1.1-0.6-1.1-1.4-0.1-2.4
				C262.3,335.6,262.4,334.8,263.6,334.1z"/>
			<ellipse fill="#87583C" cx="292.8" cy="343.5" rx="2.2" ry="4.1"/>
			<ellipse fill="#87583C" cx="265.5" cy="343.5" rx="2.2" ry="4.1"/>
			<path fill="#87583C" d="M279.2,325.3c-7.5,0-13.6,6.3-13.6,14.2v7.1c0,7.8,6.1,14.2,13.6,14.2s13.6-6.3,13.6-14.2v-7.1
				C292.8,331.6,286.7,325.3,279.2,325.3z"/>
			<path fill="#804C2D" d="M279.2,325.3c6,0,10.9,6.3,10.9,14.2v7.1c0,7.8-4.9,14.2-10.9,14.2c7.5,0,13.6-6.3,13.6-14.2v-7.1
				C292.8,331.6,286.7,325.3,279.2,325.3z"/>
			<path fill="#513432" d="M295.1,336.4c0.9-0.7,0.8-1.5-0.4-2.3c0.4-1.8-0.4-3.5-2.3-4.7c-0.2-1.8-1.5-3.1-3.6-3.7
				c-0.8-1.6-2.5-2.5-4.5-2.4c-1.4-1.3-3.3-1.6-5.2-0.9c-1.9-0.7-3.8-0.4-5.2,0.9c-2.1-0.1-3.7,0.8-4.5,2.4c-2,0.6-3.3,1.9-3.6,3.7
				c-1.9,1.2-2.7,2.9-2.3,4.7c-1.2,0.7-1.3,1.5-0.4,2.3c-1,1-1,1.8,0.1,2.4c-0.2,0.3-0.3,0.5-0.4,0.7h2.7c1.6,3.5,4.9,2.9,4.4,0
				c-0.5-2.8,1.3-5.5,1.4-5.6c1.8,1.3,4.7,2.2,7.8,2.2c3.2,0,6-0.8,7.8-2.2c0.1,0.1,1.9,2.8,1.4,5.6c-0.5,2.9,2.7,3.5,4.4,0h2.7
				c-0.1-0.2-0.2-0.5-0.4-0.7C296.1,338.2,296.1,337.3,295.1,336.4z"/>
		</g>
	</g>
</g>
</svg>
