<?xml version="1.0" encoding="utf-8"?>
<!-- Generator: Adobe Illustrator 18.1.1, SVG Export Plug-In . SVG Version: 6.00 Build 0)  -->
<svg version="1.1" id="Layer_1" xmlns="http://www.w3.org/2000/svg" xmlns:xlink="http://www.w3.org/1999/xlink" x="0px" y="0px"
	 width="414px" height="414px" viewBox="0 0 414 414" enable-background="new 0 0 414 414" xml:space="preserve">
<g>
	
		<radialGradient id="XMLID_2_" cx="-3160.3176" cy="3325.2515" r="210.9014" gradientTransform="matrix(0.7071 0.7071 -0.7071 0.7071 4789.3301 70.4295)" gradientUnits="userSpaceOnUse">
		<stop  offset="0" style="stop-color:#FFFFFF;stop-opacity:0.3"/>
		<stop  offset="0.9188" style="stop-color:#FFFFFF;stop-opacity:0.9431"/>
		<stop  offset="1" style="stop-color:#FFFFFF"/>
	</radialGradient>
	<path id="XMLID_2693_" opacity="0.2" fill="url(#XMLID_2_)" d="M350.8,30.1c-2.9,2.9-4.1,6.7-3.7,10.5l-50.7,10.5
		c-0.6-1.9-1.6-3.7-3.1-5.3c-5.1-5.1-13.2-5.1-18.3,0c-0.5,0.5-1,1.1-1.4,1.7L225,19.9c2.1-4.7,1.2-10.5-2.7-14.4
		c-5.1-5.1-13.2-5.1-18.3,0c-2.3,2.3-3.5,5.3-3.7,8.3l-68.4,2.4c-0.4-2.7-1.5-5.3-3.6-7.4c-5.1-5.1-13.2-5.1-18.3,0
		c-5.1,5.1-5.1,13.2,0,18.3c1.7,1.7,3.7,2.7,5.8,3.3L102.4,112c-3.1,0.2-6.1,1.4-8.4,3.7c-2.7,2.7-3.9,6.2-3.7,9.7l-63.3,17.7
		c-0.6-1.6-1.6-3.1-2.9-4.4c-5.1-5.1-13.2-5.1-18.3,0c-5.1,5.1-5.1,13.2,0,18.3c2.4,2.4,5.5,3.6,8.6,3.7l2.9,47.6
		c-2.6,0.4-5.1,1.6-7.1,3.6c-5.1,5.1-5.1,13.2,0,18.3c5.1,5.1,13.2,5.1,18.3,0c0.1-0.1,0.2-0.3,0.3-0.4l32.2,24.1
		c-3,5-2.4,11.5,1.9,15.8c1.1,1.1,2.4,1.9,3.7,2.6L49.3,322c-4.2-1-8.8,0.1-12.1,3.4c-5.1,5.1-5.1,13.2,0,18.3s13.2,5.1,18.3,0
		c2.1-2.1,3.2-4.7,3.6-7.3l72.8,3c0.2,3,1.4,6.1,3.7,8.4c4.8,4.8,12.4,5,17.5,0.7l44.5,43c-4,5.1-3.7,12.4,1,17.1
		c5.1,5.1,13.2,5.1,18.3,0c3.9-3.9,4.8-9.8,2.6-14.6l67.6-40c0.4,0.5,0.8,1,1.2,1.5c5.1,5.1,13.2,5.1,18.3,0
		c4.9-4.9,5-12.8,0.3-17.9l84.7-95.7c5.1,3.6,12.1,3.2,16.7-1.3c5.1-5.1,5.1-13.2,0-18.3c-2.9-2.9-6.9-4.1-10.8-3.6l-15-64.7
		c1.8-0.6,3.5-1.6,4.9-3c5.1-5.1,5.1-13.2,0-18.3c-2.8-2.8-6.4-4-10-3.7l-13.9-77.2c2-0.6,4-1.6,5.6-3.2c5.1-5.1,5.1-13.2,0-18.3
		C364.1,25,355.9,25,350.8,30.1z M312.4,218.2c-2.6-1.8-5.7-2.5-8.7-2.2l-13.9-67.1c1.9-0.6,3.8-1.6,5.3-3.1c2-2,3.2-4.5,3.6-7.1
		l66.6,3.7c0.1,3.1,1.3,6.1,3.7,8.5L312.4,218.2z M389.7,240.1l-84.7,95.7c-1.6-1.2-3.5-2-5.4-2.3l6-91.8c3.2-0.1,6.3-1.3,8.7-3.7
		c2.1-2.1,3.3-4.8,3.6-7.5l68.4,1.9C386.5,235.1,387.6,237.9,389.7,240.1z M199.4,389.5l-44.5-43c2.7-3.4,3.4-7.7,2.2-11.7
		l62.3-25.7c0.6,1.1,1.3,2.1,2.2,3.1c1.4,1.4,3.1,2.4,4.9,3l-17.1,71.3C205.9,386.1,202.3,387.1,199.4,389.5z M28.7,212.3l66.9-76.9
		c0.9,0.6,1.8,1.1,2.7,1.5l-12.1,43.3c-4-0.7-8.3,0.5-11.4,3.6c-3.5,3.5-4.5,8.6-3.1,13.1l-41.3,18C30,213.9,29.4,213,28.7,212.3z
		 M205,24.6c1.7,1.4,3.6,2.4,5.6,2.8L204.1,90c-3.3,0-6.7,1.2-9.2,3.8c-2.9,2.9-4.1,6.8-3.6,10.6l-76,16.5c-0.6-1.9-1.6-3.7-3.1-5.2
		c-0.1-0.1-0.2-0.2-0.3-0.3L205,24.6z M283.2,67.8l1.3,56c-2.8,0.3-5.4,1.5-7.6,3.6c-0.9,0.9-1.6,2-2.2,3.1l-58.3-23.9
		c0.9-3,0.7-6.3-0.7-9.1l58.1-34.8c0.4,0.5,0.7,1,1.2,1.5C277.3,66.4,280.2,67.6,283.2,67.8z M238.9,293.1c-2-1.6-4.4-2.6-6.8-2.8
		l0.3-58.2c2.9-0.3,5.7-1.5,7.9-3.7c1.8-1.8,2.9-3.9,3.4-6.2l48.5,6.2c-0.1,3,0.9,6.1,3,8.6L238.9,293.1z M147.4,325.9l6.1-58.6
		c3.3,0,6.7-1.2,9.2-3.8c0.4-0.4,0.7-0.8,1-1.2l55.5,35c-1.5,3-1.7,6.3-0.8,9.4l-62.3,25.7c-0.6-1.1-1.3-2.1-2.2-3.1
		C152.1,327.6,149.8,326.4,147.4,325.9z M82.8,253.5l74.8-60.3c0,0,0,0,0.1,0.1c1.6,1.6,3.5,2.6,5.5,3.2l-8.5,45.1
		c-3.7-0.3-7.4,0.9-10.2,3.7c-2.4,2.4-3.7,5.6-3.8,8.8l-56,4.3C84.4,256.7,83.8,255,82.8,253.5z M88.7,180.9l12.1-43.3
		c3.7,0.6,7.7-0.4,10.7-3l44.9,41.8c-1.8,2.3-2.7,5.1-2.7,7.9l-57.1,6.1c-0.5-2.4-1.7-4.7-3.5-6.5C91.9,182.5,90.4,181.5,88.7,180.9
		z M229.6,290.2c-2.9,0.3-5.7,1.5-7.9,3.7c-0.4,0.4-0.7,0.8-1,1.2l-55.5-35c1.5-3.1,1.8-6.6,0.7-9.9l54.2-24.6c0.6,1,1.2,1.9,2,2.7
		c2.2,2.2,5,3.4,7.8,3.7L229.6,290.2z M175.9,193.3c0.6-0.6,1.1-1.2,1.5-1.9l41.8,22.8c-1.2,2.9-1.3,6.2-0.3,9.1l-54.2,24.6
		c-0.6-1-1.2-1.9-2-2.7c-1.6-1.6-3.5-2.6-5.5-3.2l8.5-45.1C169.3,197.3,173.1,196.1,175.9,193.3z M222,210.1
		c-0.6,0.6-1.1,1.2-1.5,1.9l-41.8-22.8c1.1-2.7,1.3-5.7,0.5-8.6l95.5-38.1c0.6,1.1,1.3,2.2,2.3,3.2c0.3,0.3,0.7,0.5,1,0.8
		l-40.7,61.4C232.3,205.3,226.1,206,222,210.1z M273.7,140.1l-95.5,38.1c-0.6-1.1-1.3-2.2-2.3-3.2c-0.8-0.8-1.7-1.4-2.6-2l26.6-57.9
		c4.5,1.5,9.7,0.6,13.3-3c0.9-0.9,1.6-2,2.2-3.1l58.3,23.9C273,135.2,273,137.7,273.7,140.1z M197.5,114l-26.6,57.9
		c-4.3-1.5-9.1-0.6-12.7,2.5l-44.9-41.8c2.1-2.7,2.9-6,2.5-9.2l76-16.5c0.6,1.9,1.6,3.7,3.1,5.2C195.7,112.8,196.6,113.5,197.5,114z
		 M295.9,219.6c-1.8,1.8-2.9,3.9-3.4,6.2l-48.5-6.2c0.1-3.4-1.1-6.9-3.8-9.5c-0.3-0.3-0.7-0.5-1-0.8l40.7-61.4
		c2.3,1.2,4.8,1.7,7.3,1.4l13.9,67.1C299.3,217.1,297.5,218.1,295.9,219.6z M93.2,202.1c2.5-2.5,3.8-5.9,3.8-9.2l57.1-6.1
		c0.3,1.6,0.9,3.1,1.8,4.4l-74.8,60.3c0,0,0,0-0.1-0.1c-1.6-1.6-3.6-2.7-5.6-3.2l7.6-42.5C86.7,206,90.4,204.8,93.2,202.1z
		 M81.7,269.1c2.1-2.3,3.1-5.2,3.2-8.2l56-4.3c0.4,2.5,1.6,4.9,3.6,6.9c1.9,1.9,4.1,3,6.5,3.5l-6.1,58.6c-2.8,0-5.5,0.9-7.9,2.7
		L81.7,269.1z M240.8,294.9l56.2-56.1c1.8,1.4,3.8,2.4,5.9,2.7l-6,91.8c-3.2,0.1-6.3,1.3-8.7,3.7c-0.3,0.3-0.6,0.7-0.9,1.1
		l-45.1-29.2C244.5,304.5,244.1,299,240.8,294.9z M365.5,139.7l-66.6-3.7c-0.1-3.1-1.4-6.2-3.7-8.6c-2.3-2.3-5.2-3.5-8.1-3.7
		l-1.3-56c2.5-0.3,4.9-1.4,7-3.1l75.2,69.3C366.7,135.6,365.8,137.6,365.5,139.7z M272.4,49.7c-1.5,3.4-1.4,7.3,0.1,10.7l-58.1,34.8
		c-0.4-0.5-0.7-1-1.2-1.5c-1.9-1.9-4.1-3-6.5-3.5l6.5-62.6c3.3,0,6.7-1.2,9.2-3.8c0.5-0.5,1-1.1,1.4-1.7L272.4,49.7z M128.3,27.1
		c2.3-2.3,3.5-5.3,3.7-8.3l68.4-2.4c0.3,2.3,1.2,4.4,2.7,6.3l-93.3,91.1c-1.5-0.9-3.2-1.5-4.9-1.8l13.4-81.2
		C121.9,31.1,125.6,29.9,128.3,27.1z M90.6,128c0.5,2.1,1.5,4,3.1,5.7l-66.9,76.9c-2.1-1.5-4.5-2.3-6.9-2.4l-2.9-47.6
		c2.6-0.4,5.1-1.6,7.1-3.6c3.1-3.1,4.3-7.4,3.6-11.4L90.6,128z M30.3,227.8c1.9-3.2,2.3-7.1,1.2-10.6l41.3-18c0.6,1,1.2,2,2.1,2.8
		c1.6,1.6,3.6,2.7,5.6,3.2l-7.6,42.5c-3.6-0.3-7.3,0.9-10.1,3.7c-0.1,0.1-0.2,0.3-0.3,0.4L30.3,227.8z M69,273.2
		c3.7,0.9,7.6,0.1,10.8-2.3l55.3,59.2c-1.7,1.9-2.7,4.3-3.1,6.7l-72.8-3c-0.2-3-1.4-6.1-3.7-8.4c-1.1-1.1-2.4-1.9-3.7-2.6L69,273.2z
		 M218.1,391.7c-0.4-0.5-0.8-1-1.2-1.5c-1.4-1.4-3.1-2.4-4.9-3l17.1-71.3c3.9,0.5,7.9-0.7,10.9-3.6c0.3-0.3,0.6-0.7,0.9-1.1
		l45.1,29.2c-1.8,3.5-1.9,7.7-0.2,11.3L218.1,391.7z M395,219.1c-1.8,0.6-3.5,1.6-5,3.1c-2.1,2.1-3.3,4.8-3.6,7.5l-68.4-1.9
		c-0.2-2.9-1.4-5.7-3.5-8l56.7-67.4c2.7,1.8,5.9,2.4,8.9,2L395,219.1z M374.8,129.3c-1.8,0.5-3.6,1.4-5.1,2.7l-75.2-69.3
		c2-2.7,2.8-5.9,2.5-9.1l50.7-10.5c0.6,1.9,1.6,3.7,3.1,5.3c2.8,2.8,6.5,4,10.1,3.7L374.8,129.3z"/>
	<g>
		<g>
			<path d="M323,256.7H91v-134c0-2.8,2.3-5.2,5.2-5.2h221.6c2.8,0,5.2,2.3,5.2,5.2V256.7z"/>
			<rect x="100.3" y="126.8" fill="#F7944B" width="213.4" height="120.6"/>
			<path fill="#C9C9CC" d="M317.8,277.3H96.2c-2.8,0-5.2-2.3-5.2-5.2v-15.5h232v15.5C323,275,320.7,277.3,317.8,277.3z"/>
			<polygon fill="#C9C9CC" points="228.1,301 185.9,301 187.9,277.3 226.1,277.3 			"/>
			<rect x="171.4" y="301" fill="#C9C9CC" width="71.1" height="6.2"/>
			<circle cx="207" cy="267" r="5.2"/>
			<polygon fill="#B2B2B2" points="227.1,290.7 226.1,277.3 187.9,277.3 186.9,286.6 			"/>
		</g>
		<g>
			<polygon fill="#5592D7" points="183.6,190.2 187.3,178.6 199.5,178.6 203.3,190.2 193.5,197.4 			"/>
			<polygon fill="#FFFFFF" points="225.7,136.4 244.4,143.3 219.4,159.8 229.3,176.8 201.8,169.8 194.9,189.8 179.7,164.8 
				157.5,170.8 167.1,147.1 148.4,137.7 170.8,127.7 163.5,106.7 188.5,117.7 203.1,97.6 209.1,120.6 237.2,116.4 			"/>
			<polygon fill="#FFE999" points="217.9,129.8 234.7,130 219.5,150.2 232.1,161 208.2,163.1 208.4,181 189.3,165.3 173.3,176.4 
				174.3,154.8 156.7,152.6 171.8,138.3 160.1,123.7 183,125.4 189,105.3 200.3,121.9 221.4,110.7 			"/>
			<g>
				<path fill="#99BEE7" d="M205.5,133.8l0.2,36.9L174.6,153l0,0c-9.3-5.3-8.6-8.6-8.7-16.1l32.1,18.2l-0.1-16.8L205.5,133.8z"/>
				<path fill="#5593D7" d="M197.9,155.2l-32.1-18.2l31-18.2l0,0c9.2-5.4,11.8-3.1,18.3,0.5l-31.8,18.7l14.6,8.3L197.9,155.2z"/>
				<path fill="#29578A" d="M183.2,137.9l31.8-18.7l0.2,35.9l0,0c0,10.7-3.2,11.8-9.6,15.6l-0.2-36.9l-14.5,8.5L183.2,137.9z"/>
			</g>
			<polygon fill="#FFFFFF" points="254.6,100.8 240.6,113.6 224.1,104.3 227.9,85.7 246.7,83.5 			"/>
			<polygon fill="#FFFFFF" points="142.6,140.8 127.6,142.2 121.5,128.3 132.9,118.3 146,126 			"/>
			<polygon fill="#FFFFFF" points="259.1,180.7 245.7,184.8 237.7,173.3 246.2,162.1 259.4,166.7 			"/>
			<polygon fill="#5592D7" points="118.6,131.3 122.4,119.7 134.6,119.7 138.4,131.3 128.5,138.5 			"/>
			<polygon fill="#5592D7" points="229.1,87.7 241.7,78.8 254.1,88 249.2,102.6 233.8,102.4 			"/>
		</g>
		<g>
			<defs>
				<rect id="SVGID_1_" x="100.3" y="126.8" width="213.4" height="120.6"/>
			</defs>
			<clipPath id="SVGID_2_">
				<use xlink:href="#SVGID_1_"  overflow="visible"/>
			</clipPath>
			<g clip-path="url(#SVGID_2_)">
				<g>
					<path fill="#5592D7" d="M285.6,225.1c3.8,0.7,6.9,3,8.6,6.4l16.9,33.5c1.4,2.8,1.7,6.1,0.7,9.1c-1,3-3.1,5.5-6,6.9l-2.9,1.5
						c-2.3,1.2-4.9,1.5-7.4,1.1c-3.8-0.7-6.9-3-8.6-6.4l-16.9-33.5c-3-5.9-0.6-13.1,5.3-16l2.9-1.5
						C280.6,225.1,283.1,224.7,285.6,225.1L285.6,225.1 M287.7,213.2c-4.9-0.9-10.1-0.2-15,2.2l-2.9,1.5
						c-11.9,6-16.6,20.4-10.7,32.3l16.9,33.5c3.6,7.1,10.1,11.6,17.4,12.9c4.9,0.9,10.1,0.2,15-2.2l2.9-1.5
						c11.9-6,16.6-20.4,10.7-32.3l-16.9-33.5C301.5,219,295,214.4,287.7,213.2L287.7,213.2z"/>
					<path fill="#5592D7" d="M232.7,193l-4.2-8.9l7.7-3.7l12.3,9.5c3.5,2.7,8.2,3.2,12.3,1.4c1.8-0.8,3.3-2,4.4-3.6l2-2.6
						c1.9-2.5,2.8-5.7,2.4-8.8c-0.4-3.2-2-6-4.6-7.9l-16.8-12.9l0.4-8.5l9.5,0.8l14.3,11c10.5,8.1,12.5,23.2,4.4,33.7l-2,2.6
						c-2.5,3.2-5.6,5.6-9,7.2c-7.9,3.6-17.4,2.9-24.8-2.8L232.7,193z"/>
					<g>
						<path opacity="0.5" d="M256.2,192.4l-2.9-8c-0.1-0.4-0.2-0.7-0.3-1.1c0.7-1.3,1.9-2.4,3.4-2.9c3.3-1.2,7,0.5,8.2,3.9
							l20.8,57.7c0.1,0.4,0.2,0.7,0.3,1.1c-0.7,1.3-1.9,2.3-3.4,2.9c-3.3,1.2-7-0.5-8.2-3.9l-3.6-9.9c-0.5,0.9-0.9,1.8-1.2,2.8
							l-5.1-14.1c0.5-0.5,1.1-1,1.7-1.5l-5.5-15.3c-0.7,0.1-1.4,0.2-2.1,0.3l-4.4-12.1C254.7,192.4,255.5,192.4,256.2,192.4z"/>
						<path opacity="0.5" d="M325.7,327.7l-21-32.9c-1,0.3-2,0.5-3,0.7l-7.9-12.4c0.6,0.2,1.1,0.3,1.7,0.4c0.7,0.1,1.4,0.2,2.1,0.2
							l-4.8-7.6c-1.9-3-1-7,2-8.9c0.8-0.5,1.7-0.8,2.6-0.9l3.2,4.9c0.9,0.5,1.8,1.2,2.4,2.2l32.9,51.5c0.5,0.7,0.8,1.6,0.9,2.4
							c-0.5,0.9-1.2,1.7-2.1,2.3C331.6,331.6,327.6,330.7,325.7,327.7z"/>
					</g>
					<path fill="#5592D7" d="M282.3,246L282.3,246c-3.3,1.2-7-0.5-8.2-3.9l-20.8-57.7c-1.2-3.3,0.5-7,3.9-8.2l0,0
						c3.3-1.2,7,0.5,8.2,3.9l20.8,57.7C287.4,241.1,285.7,244.8,282.3,246z"/>
					<path fill="#5592D7" d="M334.5,329.7L334.5,329.7c-3,1.9-7,1-8.9-2l-32.9-51.5c-1.9-3-1-7,2-8.9v0c3-1.9,7-1,8.9,2l32.9,51.5
						C338.4,323.8,337.5,327.7,334.5,329.7z"/>
				</g>
				<path fill="#5592D7" d="M379.6,317.1c-3.3,0.3-7.4,3.8-8.6,10.5l2.9,33.1c0.3,3.3,3.2,5.7,6.5,5.4l0.3,0
					c3.3-0.3,5.7-3.2,5.4-6.5l-2.9-33.1C382.9,323.2,379.6,317.1,379.6,317.1z"/>
			</g>
			<g clip-path="url(#SVGID_2_)">
				<path fill="#5592D7" d="M339.2,341.5c1.7,1.9,2.8,4.2,3.1,6.7l0.4,3.2c0.4,3.2-0.5,6.3-2.5,8.8c-2,2.5-4.8,4.1-8,4.5l-37.2,4.4
					c-3.8,0.5-7.5-0.9-10.2-3.7c-1.7-1.9-2.8-4.2-3.1-6.7l-0.4-3.2c-0.4-3.2,0.5-6.3,2.5-8.8c2-2.5,4.8-4.1,8-4.5l37.2-4.4
					C332.9,337.3,336.6,338.6,339.2,341.5 M348.1,333.2c-5.1-5.5-12.6-8.5-20.5-7.5l-37.2,4.4c-13.2,1.6-22.6,13.5-21,26.7l0.4,3.2
					c0.6,5.2,2.9,9.9,6.2,13.5c5.1,5.5,12.6,8.5,20.5,7.5l37.2-4.4c13.2-1.6,22.6-13.5,21-26.7l-0.4-3.2
					C353.7,341.5,351.4,336.8,348.1,333.2L348.1,333.2z"/>
				<path opacity="0.5" d="M385.4,326.3l-11-0.1l-0.2,11.8l2.1,23.9c0.3,3,2.9,5.2,5.9,4.9l1.4-0.1c3-0.3,5.2-2.9,4.9-5.9
					L385.4,326.3z"/>
				<path fill="#5592D7" d="M379.5,316.9L379.5,316.9c-3.4,0.3-5.9,3.3-5.6,6.6l3.5,39.4c0.3,3.4,3.3,5.9,6.6,5.6l0,0
					c3.4-0.3,5.9-3.3,5.6-6.6l-3.5-39.4C385.8,319,382.9,316.6,379.5,316.9z"/>
				<path fill="#5592D7" d="M243.2,347.7c1.4,2.1,2,4.6,1.8,7.1l-0.2,3.2c-0.2,3.2-1.6,6.1-4,8.2c-2.4,2.1-5.5,3.1-8.6,2.9
					l-37.4-2.4c-3.9-0.2-7.3-2.3-9.3-5.5c-1.4-2.1-2-4.6-1.8-7.1l0.2-3.2c0.2-3.2,1.6-6.1,4-8.2c2.4-2.1,5.5-3.1,8.6-2.9l37.4,2.4
					C237.8,342.4,241.2,344.5,243.2,347.7 M253.5,341.2c-4-6.3-10.8-10.6-18.8-11.2l-37.4-2.4c-13.3-0.9-24.7,9.2-25.6,22.5
					l-0.2,3.2c-0.3,5.3,1,10.3,3.7,14.4c4,6.3,10.8,10.6,18.8,11.2l37.4,2.4c13.3,0.9,24.7-9.2,25.6-22.5l0.2-3.2
					C257.5,350.4,256.1,345.4,253.5,341.2L253.5,341.2z"/>
				<g>
					<path fill="#5592D7" d="M149.2,166.3l3,7.9l8.7-3.3l-17.6,23.8c-1.9,2.6-2.7,5.7-2.2,8.9c0.5,3.2,2.1,5.9,4.7,7.8l2.6,1.9
						c1.6,1.2,3.3,1.9,5.3,2.2c4.4,0.7,8.8-1.1,11.4-4.7l13.6-18.4l-1.5,9.8l8.4,1.3L174.8,218c-5.5,7.4-14.5,10.8-23,9.5
						c-3.7-0.6-7.4-2-10.6-4.4l-2.6-1.9c-10.7-7.9-12.9-23-5-33.7L149.2,166.3z"/>
				</g>
				<path fill="#5592D7" d="M134.2,263.1c1.2-2.2,3-4,5.3-5.1l2.9-1.4c2.9-1.4,6.1-1.6,9.1-0.6c3,1,5.4,3.2,6.9,6l16.5,33.6
					c1.7,3.5,1.6,7.4-0.2,10.8c-1.2,2.2-3,4-5.3,5.1l-2.9,1.4c-2.9,1.4-6.1,1.6-9.1,0.6c-3-1-5.4-3.2-6.9-6L134,273.9
					C132.3,270.4,132.4,266.5,134.2,263.1 M123.5,257.4c-3.5,6.6-3.9,14.7-0.3,21.9l16.5,33.6c5.9,11.9,20.3,16.9,32.2,11l2.9-1.4
					c4.7-2.3,8.4-6,10.7-10.4c3.5-6.6,3.9-14.7,0.3-21.9l-16.5-33.6c-5.9-11.9-20.3-16.9-32.2-11l-2.9,1.4
					C129.4,249.4,125.8,253.1,123.5,257.4L123.5,257.4z"/>
				<path fill="#5592D7" d="M141.6,273.9L141.6,273.9c3.5,0.5,6.8-1.9,7.3-5.4l9.3-60.2c0.5-3.5-1.9-6.8-5.4-7.3h0
					c-3.5-0.5-6.8,1.9-7.3,5.4l-9.3,60.2C135.7,270.1,138.1,273.4,141.6,273.9z"/>
				<g>
					<path opacity="0.5" d="M340.2,360.2c1-1.3,1.7-2.7,2.1-4.2l-9.3,1.5c-3.5,0.5-6.7-1.8-7.3-5.2c0.9-1.7,2.6-2.9,4.6-3.2
						l60.2-9.4c3.5-0.5,6.7,1.8,7.3,5.3c-0.9,1.7-2.6,2.9-4.6,3.2l-4.7,0.7l0.4,4l-15.5,2.4l-0.4-4l-18.2,2.8
						c-0.1,1.4-0.3,2.8-0.6,4.2l-14.3,2.2C340,360.3,340.1,360.2,340.2,360.2z"/>
					<path opacity="0.5" d="M240.8,366.3c0.9-0.8,1.6-1.6,2.2-2.6l-6,0.1c-3.2,0-5.9-2.3-6.4-5.3c1.1-1.9,3.1-3.3,5.5-3.3l53.9-0.5
						c2.1,0,4,1,5.2,2.6l2-0.2c-0.1,3.4-2.9,6.1-6.3,6.2l-7.5,0.1c0.4,0.7,0.9,1.4,1.5,2c0.8,0.9,1.7,1.6,2.7,2.1l-15.6,0.2
						c-0.6-1.3-1.2-2.7-1.5-4.2l-14.2,0.1c-0.4,1.5-0.9,2.9-1.6,4.2l-16.2,0.2C239.2,367.5,240.1,367,240.8,366.3z"/>
					<path opacity="0.5" d="M155.2,227.7l-2.5,16c0.5,0.1,0.9,0.2,1.4,0.4l-1.9,12.2c-0.3-0.1-0.5-0.2-0.8-0.3
						c-0.2-0.1-0.4-0.1-0.6-0.2l-2,12.8c-0.5,3.5-3.8,5.9-7.3,5.4c-3.5-0.5-5.9-3.8-5.4-7.3l1.1-7.3c-0.6,0.5-1.2,1.1-1.7,1.7
						l2.5-15.8c0.5-0.2,1-0.4,1.6-0.6l3.2-20.4c-0.4-0.3-0.9-0.6-1.3-0.9l2.2-13.9c0.4,0.5,0.8,0.9,1.3,1.3l0.7-4.3
						c0.5-3.5,3.8-5.9,7.3-5.4c3.5,0.5,5.9,3.8,5.4,7.3l-1.1,7.2c0.5-0.1,1-0.2,1.5-0.3l-1.9,12.5
						C156.2,227.7,155.7,227.7,155.2,227.7z"/>
					<path opacity="0.5" d="M157.4,313.6c0.8,0.3,1.5,0.4,2.3,0.5l-2.5-3.5l0.1,0l-2.4-4.6c-0.2-2.2,0.7-4.5,2.7-5.9l0,0
						c0.6-0.4,1.3-0.7,1.9-0.9l3.3,7.6l2.9-2l32.6,46.5c-0.4,1.4-1.2,2.6-2.5,3.5c-2.9,2-6.9,1.3-8.9-1.6l-2.8-4
						c-0.1,0.6-0.2,1.3-0.3,1.9l-0.1,1.7l-8.9-12.8c0.4-0.8,0.9-1.5,1.4-2.2l-8.5-12.2c-0.8,0.2-1.7,0.4-2.6,0.5l-9.1-13
						C156.4,313.2,156.9,313.4,157.4,313.6z"/>
				</g>
				<path fill="#5592D7" d="M325.7,352.1L325.7,352.1c0.5,3.5,3.8,5.9,7.3,5.3l60.2-9.4c3.5-0.5,5.9-3.8,5.3-7.3v0
					c-0.5-3.5-3.8-5.9-7.3-5.3l-60.2,9.4C327.5,345.3,325.1,348.6,325.7,352.1z"/>
				<path fill="#5592D7" d="M230.5,357.4L230.5,357.4c0,3.5,2.9,6.4,6.5,6.4l53.9-0.5c3.5,0,6.4-2.9,6.4-6.5v0
					c0-3.5-2.9-6.4-6.5-6.4l-53.9,0.5C233.3,350.9,230.5,353.8,230.5,357.4z"/>
				<path fill="#5592D7" d="M141.6,273.9L141.6,273.9c3.5,0.5,6.8-1.9,7.3-5.4l9.3-60.2c0.5-3.5-1.9-6.8-5.4-7.3h0
					c-3.5-0.5-6.8,1.9-7.3,5.4l-9.3,60.2C135.7,270.1,138.1,273.4,141.6,273.9z"/>
				<path fill="#5592D7" d="M195.9,354.6L195.9,354.6c2.9-2,3.6-6,1.6-8.9l-30.9-44.1c-2-2.9-6-3.6-8.9-1.6h0c-2.9,2-3.6,6-1.6,8.9
					l30.9,44.1C189,356,193,356.7,195.9,354.6z"/>
			</g>
		</g>
		<polygon fill="#FFFFFF" points="166.1,183.8 163.2,197.5 149.3,199 143.6,186.2 154,176.9 		"/>
	</g>
</g>
</svg>
