<?xml version="1.0" encoding="utf-8"?>
<!-- Generator: Adobe Illustrator 19.1.0, SVG Export Plug-In . SVG Version: 6.00 Build 0)  -->
<svg version="1.1" id="Layer_1" xmlns="http://www.w3.org/2000/svg" xmlns:xlink="http://www.w3.org/1999/xlink" x="0px" y="0px"
	 viewBox="0 0 465 420" enable-background="new 0 0 465 420" xml:space="preserve">
<g>
	
		<radialGradient id="XMLID_2_" cx="230.4955" cy="398.0001" r="401.8839" gradientTransform="matrix(1.595097e-003 -1 0.9524 1.519136e-003 -148.9184 627.8906)" gradientUnits="userSpaceOnUse">
		<stop  offset="9.970679e-002" style="stop-color:#5592D7"/>
		<stop  offset="1" style="stop-color:#FFFFFF"/>
	</radialGradient>
	<path id="XMLID_69_" opacity="0.5" fill="url(#XMLID_2_)" d="M374.3,33.1c-2.9,2.9-4.1,6.7-3.7,10.5L320,54.1
		c-0.6-1.9-1.6-3.7-3.1-5.3c-5.1-5.1-13.2-5.1-18.3,0c-0.5,0.5-1,1.1-1.4,1.7l-48.7-27.6c2.1-4.7,1.2-10.5-2.7-14.4
		c-5.1-5.1-13.2-5.1-18.3,0c-2.3,2.3-3.5,5.3-3.7,8.3l-68.4,2.4c-0.4-2.7-1.5-5.3-3.6-7.4c-5.1-5.1-13.2-5.1-18.3,0
		c-5.1,5.1-5.1,13.2,0,18.3c1.7,1.7,3.7,2.7,5.8,3.3L125.8,115c-3.1,0.2-6.1,1.4-8.4,3.7c-2.7,2.7-3.9,6.2-3.7,9.7l-63.3,17.7
		c-0.6-1.6-1.6-3.1-2.9-4.4c-5.1-5.1-13.2-5.1-18.3,0c-5.1,5.1-5.1,13.2,0,18.3c2.4,2.4,5.5,3.6,8.6,3.7l2.9,47.6
		c-2.6,0.4-5.1,1.6-7.1,3.6c-5.1,5.1-5.1,13.2,0,18.3c5.1,5.1,13.2,5.1,18.3,0c0.1-0.1,0.2-0.3,0.3-0.4l32.2,24.1
		c-3,5-2.4,11.5,1.9,15.8c1.1,1.1,2.4,1.9,3.7,2.6L72.8,325c-4.2-1-8.8,0.1-12.1,3.4c-5.1,5.1-5.1,13.2,0,18.3
		c5.1,5.1,13.2,5.1,18.3,0c2.1-2.1,3.2-4.7,3.6-7.3l72.8,3c0.2,3,1.4,6.1,3.7,8.4c4.8,4.8,12.4,5,17.5,0.7l44.5,43
		c-4,5.1-3.7,12.4,1,17.1c5.1,5.1,13.2,5.1,18.3,0c3.9-3.9,4.8-9.8,2.6-14.6l67.6-40c0.4,0.5,0.8,1,1.2,1.5c5.1,5.1,13.2,5.1,18.3,0
		c4.9-4.9,5-12.8,0.3-17.9l84.7-95.7c5.1,3.6,12.1,3.2,16.7-1.3c5.1-5.1,5.1-13.2,0-18.3c-2.9-2.9-6.9-4.1-10.8-3.6l-15-64.7
		c1.8-0.6,3.5-1.6,4.9-3c5.1-5.1,5.1-13.2,0-18.3c-2.8-2.8-6.4-4-10-3.7L387,54.6c2-0.6,4-1.6,5.6-3.2c5.1-5.1,5.1-13.2,0-18.3
		C387.6,28,379.4,28,374.3,33.1z M335.9,221.2c-2.6-1.8-5.7-2.5-8.7-2.2l-13.9-67.1c1.9-0.6,3.8-1.6,5.3-3.1c2-2,3.2-4.5,3.6-7.1
		l66.6,3.7c0.1,3.1,1.3,6.1,3.7,8.5L335.9,221.2z M413.1,243.1l-84.7,95.7c-1.6-1.2-3.5-2-5.4-2.3l6-91.8c3.2-0.1,6.3-1.3,8.7-3.7
		c2.1-2.1,3.3-4.8,3.6-7.5l68.4,1.9C410,238.1,411.1,240.9,413.1,243.1z M222.9,392.5l-44.5-43c2.7-3.4,3.4-7.7,2.2-11.7l62.3-25.7
		c0.6,1.1,1.3,2.1,2.2,3.1c1.4,1.4,3.1,2.4,4.9,3L233,389.5C229.4,389.1,225.8,390.1,222.9,392.5z M52.2,215.3l66.9-76.9
		c0.9,0.6,1.8,1.1,2.7,1.5l-12.1,43.3c-4-0.7-8.3,0.5-11.4,3.6c-3.5,3.5-4.5,8.6-3.1,13.1l-41.3,18C53.5,216.9,52.9,216,52.2,215.3z
		 M228.5,27.6c1.7,1.4,3.6,2.4,5.6,2.8L227.6,93c-3.3,0-6.7,1.2-9.2,3.8c-2.9,2.9-4.1,6.8-3.6,10.6l-76,16.5
		c-0.6-1.9-1.6-3.7-3.1-5.2c-0.1-0.1-0.2-0.2-0.3-0.3L228.5,27.6z M306.7,70.8l1.3,56c-2.8,0.3-5.4,1.5-7.6,3.6
		c-0.9,0.9-1.6,2-2.2,3.1l-58.3-23.9c0.9-3,0.7-6.3-0.7-9.1l58.1-34.8c0.4,0.5,0.7,1,1.2,1.5C300.8,69.4,303.7,70.6,306.7,70.8z
		 M262.4,296.1c-2-1.6-4.4-2.6-6.8-2.8l0.3-58.2c2.9-0.3,5.7-1.5,7.9-3.7c1.8-1.8,2.9-3.9,3.4-6.2l48.5,6.2c-0.1,3,0.9,6.1,3,8.6
		L262.4,296.1z M170.9,328.9l6.1-58.6c3.3,0,6.7-1.2,9.2-3.8c0.4-0.4,0.7-0.8,1-1.2l55.5,35c-1.5,3-1.7,6.3-0.8,9.4l-62.3,25.7
		c-0.6-1.1-1.3-2.1-2.2-3.1C175.6,330.6,173.3,329.4,170.9,328.9z M106.3,256.5l74.8-60.3c0,0,0,0,0.1,0.1c1.6,1.6,3.5,2.6,5.5,3.2
		l-8.5,45.1c-3.7-0.3-7.4,0.9-10.2,3.7c-2.4,2.4-3.7,5.6-3.8,8.8l-56,4.3C107.9,259.7,107.3,258,106.3,256.5z M112.2,183.9
		l12.1-43.3c3.7,0.6,7.7-0.4,10.7-3l44.9,41.8c-1.8,2.3-2.7,5.1-2.7,7.9l-57.1,6.1c-0.5-2.4-1.7-4.7-3.5-6.5
		C115.4,185.5,113.9,184.5,112.2,183.9z M253,293.2c-2.9,0.3-5.7,1.5-7.9,3.7c-0.4,0.4-0.7,0.8-1,1.2l-55.5-35
		c1.5-3.1,1.8-6.6,0.7-9.9l54.2-24.6c0.6,1,1.2,1.9,2,2.7c2.2,2.2,5,3.4,7.8,3.7L253,293.2z M199.4,196.3c0.6-0.6,1.1-1.2,1.5-1.9
		l41.8,22.8c-1.2,2.9-1.3,6.2-0.3,9.1l-54.2,24.6c-0.6-1-1.2-1.9-2-2.7c-1.6-1.6-3.5-2.6-5.5-3.2l8.5-45.1
		C192.8,200.3,196.6,199.1,199.4,196.3z M245.5,213.1c-0.6,0.6-1.1,1.2-1.5,1.9l-41.8-22.8c1.1-2.7,1.3-5.7,0.5-8.6l95.5-38.1
		c0.6,1.1,1.3,2.2,2.3,3.2c0.3,0.3,0.7,0.5,1,0.8l-40.7,61.4C255.8,208.3,249.6,209,245.5,213.1z M297.2,143.1l-95.5,38.1
		c-0.6-1.1-1.3-2.2-2.3-3.2c-0.8-0.8-1.7-1.4-2.6-2l26.6-57.9c4.5,1.5,9.7,0.6,13.3-3c0.9-0.9,1.6-2,2.2-3.1l58.3,23.9
		C296.5,138.2,296.5,140.7,297.2,143.1z M221,117l-26.6,57.9c-4.3-1.5-9.1-0.6-12.7,2.5l-44.9-41.8c2.1-2.7,2.9-6,2.5-9.2l76-16.5
		c0.6,1.9,1.6,3.7,3.1,5.2C219.2,115.8,220.1,116.5,221,117z M319.4,222.6c-1.8,1.8-2.9,3.9-3.4,6.2l-48.5-6.2
		c0.1-3.4-1.1-6.9-3.8-9.5c-0.3-0.3-0.7-0.5-1-0.8l40.7-61.4c2.3,1.2,4.8,1.7,7.3,1.4l13.9,67.1C322.8,220.1,321,221.1,319.4,222.6z
		 M116.7,205.1c2.5-2.5,3.8-5.9,3.8-9.2l57.1-6.1c0.3,1.6,0.9,3.1,1.8,4.4l-74.8,60.3c0,0,0,0-0.1-0.1c-1.6-1.6-3.6-2.7-5.6-3.2
		l7.6-42.5C110.2,209,113.9,207.8,116.7,205.1z M105.2,272.1c2.1-2.3,3.1-5.2,3.2-8.2l56-4.3c0.4,2.5,1.6,4.9,3.6,6.9
		c1.9,1.9,4.1,3,6.5,3.5l-6.1,58.6c-2.8,0-5.5,0.9-7.9,2.7L105.2,272.1z M264.3,297.9l56.2-56.1c1.8,1.4,3.8,2.4,5.9,2.7l-6,91.8
		c-3.2,0.1-6.3,1.3-8.7,3.7c-0.3,0.3-0.6,0.7-0.9,1.1l-45.1-29.2C268,307.5,267.6,302,264.3,297.9z M389,142.7l-66.6-3.7
		c-0.1-3.1-1.4-6.2-3.7-8.6c-2.3-2.3-5.2-3.5-8.1-3.7l-1.3-56c2.5-0.3,4.9-1.4,7-3.1l75.2,69.3C390.2,138.6,389.3,140.6,389,142.7z
		 M295.9,52.7c-1.5,3.4-1.4,7.3,0.1,10.7l-58.1,34.8c-0.4-0.5-0.7-1-1.2-1.5c-1.9-1.9-4.1-3-6.5-3.5l6.5-62.6c3.3,0,6.7-1.2,9.2-3.8
		c0.5-0.5,1-1.1,1.4-1.7L295.9,52.7z M151.8,30.1c2.3-2.3,3.5-5.3,3.7-8.3l68.4-2.4c0.3,2.3,1.2,4.4,2.7,6.3l-93.3,91.1
		c-1.5-0.9-3.2-1.5-4.9-1.8l13.4-81.2C145.4,34.1,149.1,32.9,151.8,30.1z M114.1,131c0.5,2.1,1.5,4,3.1,5.7l-66.9,76.9
		c-2.1-1.5-4.5-2.3-6.9-2.4l-2.9-47.6c2.6-0.4,5.1-1.6,7.1-3.6c3.1-3.1,4.3-7.4,3.6-11.4L114.1,131z M53.8,230.8
		c1.9-3.2,2.3-7.1,1.2-10.6l41.3-18c0.6,1,1.2,2,2.1,2.8c1.6,1.6,3.6,2.7,5.6,3.2l-7.6,42.5c-3.6-0.3-7.3,0.9-10.1,3.7
		c-0.1,0.1-0.2,0.3-0.3,0.4L53.8,230.8z M92.5,276.2c3.7,0.9,7.6,0.1,10.8-2.3l55.3,59.2c-1.7,1.9-2.7,4.3-3.1,6.7l-72.8-3
		c-0.2-3-1.4-6.1-3.7-8.4c-1.1-1.1-2.4-1.9-3.7-2.6L92.5,276.2z M241.6,394.7c-0.4-0.5-0.8-1-1.2-1.5c-1.4-1.4-3.1-2.4-4.9-3
		l17.1-71.3c3.9,0.5,7.9-0.7,10.9-3.6c0.3-0.3,0.6-0.7,0.9-1.1l45.1,29.2c-1.8,3.5-1.9,7.7-0.2,11.3L241.6,394.7z M418.5,222.1
		c-1.8,0.6-3.5,1.6-5,3.1c-2.1,2.1-3.3,4.8-3.6,7.5l-68.4-1.9c-0.2-2.9-1.4-5.7-3.5-8l56.7-67.4c2.7,1.8,5.9,2.4,8.9,2L418.5,222.1z
		 M398.3,132.3c-1.8,0.5-3.6,1.4-5.1,2.7L318,65.7c2-2.7,2.8-5.9,2.5-9.1l50.7-10.5c0.6,1.9,1.6,3.7,3.1,5.3c2.8,2.8,6.5,4,10.1,3.7
		L398.3,132.3z"/>
	<g opacity="0.75">
		<polygon opacity="0.15" points="459.4,254.5 391.3,254.5 391.3,219 401.1,209.1 459.4,209.1 		"/>
		<polygon fill="#EDEDED" points="457.9,253 389.8,253 389.8,214 396.2,207.6 457.9,207.6 		"/>
		<rect x="394.3" y="212.1" fill="#8FB8E2" width="59" height="36.3"/>
		<rect x="394.3" y="232.6" fill="#96B548" width="59" height="15.9"/>
		<g>
			<defs>
				<rect id="SVGID_1_" x="394.3" y="212.1" width="59" height="36.3"/>
			</defs>
			<clipPath id="SVGID_2_">
				<use xlink:href="#SVGID_1_"  overflow="visible"/>
			</clipPath>
			<g clip-path="url(#SVGID_2_)">
				<g>
					<path fill="#5593D7" d="M429.7,248.6c0-3-2-5.5-4.6-5.5c-2.5,0-4.6,2.5-4.6,5.5l0,0c0,1.5,2,2.8,4.6,2.8
						S429.7,250.2,429.7,248.6L429.7,248.6z"/>
					<g>
						<path fill="#5593D7" d="M420.6,248.6c0-3,2-5.5,4.6-5.5s4.6,2.5,4.6,5.5H420.6z"/>
					</g>
					<g>
						<path fill="#F7C1A1" d="M425.2,246.8c1.4,0,2.7-0.8,3.3-2c-0.8-1-2-1.6-3.3-1.6c-1.3,0-2.4,0.6-3.3,1.6
							C422.5,246,423.8,246.8,425.2,246.8z"/>
						<rect x="424.3" y="240.2" fill="#F7C1A1" width="1.8" height="3.5"/>
					</g>
					<g>
						<path fill="#F69626" d="M427.6,229.8L427.6,229.8c0.6-0.7,1.5-1.1,2.5-1.1c1.8,0,3.3,1.5,3.3,3.3c0,0.4-0.1,0.7-0.2,1.1
							c-0.4-0.8-1.1-1.5-1.9-1.8c0,0,1.8,2.5,0.6,5.8c-1.3,3.3,0.7,4.6,0.7,4.6s-2.9,2.4-5.7-0.2h-1.7v-11.1L427.6,229.8z"/>
						<path fill="#F69626" d="M422.8,229.8L422.8,229.8c-0.6-0.7-1.5-1.1-2.5-1.1c-1.8,0-3.3,1.5-3.3,3.3c0,0.4,0.1,0.7,0.2,1.1
							c0.4-0.8,1.1-1.5,1.9-1.8c0,0-1.8,2.5-0.6,5.8c1.3,3.3-0.7,4.6-0.7,4.6s2.9,2.4,5.7-0.2h1.7v-11.1L422.8,229.8z"/>
					</g>
					<path fill="#F7C1A1" d="M425.2,230.3c-2.5,0-4.6,2.1-4.6,4.7v2.4c0,2.6,2,4.7,4.6,4.7s4.6-2.1,4.6-4.7v-2.4
						C429.7,232.5,427.7,230.3,425.2,230.3z"/>
					<g>
						<path fill="#ED5E51" d="M422.8,229.8L422.8,229.8L422.8,229.8c-0.2-0.2-0.4-0.4-0.6-0.5c-0.4,0.1-0.9,0.4-1.3,0.9
							c-0.7,0.7-1.1,1.6-0.8,1.8c0.3,0.3,1.1-0.1,1.8-0.8C422.4,230.7,422.7,230.2,422.8,229.8z"/>
						<path fill="#ED5E51" d="M427.6,229.8L427.6,229.8L427.6,229.8c0.2-0.2,0.4-0.4,0.6-0.5c0.4,0.1,0.9,0.4,1.3,0.9
							c0.7,0.7,1.1,1.6,0.8,1.8c-0.3,0.3-1.1-0.1-1.8-0.8C428,230.7,427.6,230.2,427.6,229.8z"/>
						<path fill="#F69626" d="M430.6,233.3c-0.7-2.3-2.9-4-5.4-4c-2.5,0-4.7,1.7-5.4,4c-0.2,0.5-0.2,1.2-0.1,1.8h0.9
							c0,0,3.8-0.4,4.6-2.4h0c0.8,2,4.6,2.4,4.6,2.4h0.9C430.7,234.5,430.7,233.8,430.6,233.3z"/>
					</g>
				</g>
				<g>
					<path fill="#513432" d="M411.3,240.9L411.3,240.9c-5,0-9-4-9-9v-5.8c0-5,4-9,9-9l0,0c5,0,9,4,9,9v5.8
						C420.3,236.9,416.2,240.9,411.3,240.9z"/>
					<g>
						<path fill="#5593D7" d="M418.2,247.1c0-4.7-3.2-8.5-7.1-8.5c-3.9,0-7.1,3.8-7.1,8.5l0,0c0,2.3,3.2,4.3,7.1,4.3
							S418.2,249.5,418.2,247.1L418.2,247.1z"/>
						<path fill="#F7944B" d="M413.9,239.3c-0.8-0.4-1.8-0.7-2.8-0.7c-1,0-1.9,0.2-2.8,0.7c-0.4,1.2,0,5,2.8,5l0,0
							C413.9,244.3,414.3,240.5,413.9,239.3z"/>
					</g>
					<g>
						<path fill="#F7C1A1" d="M413.9,239.3c-0.8-0.4-1.8-0.7-2.8-0.7c-1,0-1.9,0.2-2.8,0.7c0.3,1.2,1.4,2.2,2.8,2.2
							C412.5,241.5,413.6,240.5,413.9,239.3z"/>
						<rect x="409.7" y="234.2" fill="#F7C1A1" width="2.8" height="5.5"/>
					</g>
					<path fill="#F7C1A1" d="M411.1,218.8c-3.9,0-7.1,3.3-7.1,7.4v3.7c0,4.1,3.2,7.4,7.1,7.4s7.1-3.3,7.1-7.4v-3.7
						C418.2,222.1,415,218.8,411.1,218.8z"/>
					<path fill="#513432" d="M411.1,217.1c-4.8,0-8.8,4.1-8.8,9.1v3.7c0,1.4,0.5,2.7,0.9,3.9c0.2,0.5,0.3,1.2,0.2,2h2.1
						c-0.6-1.6-0.3-6.8,2.9-8.3s5.5-5.2,5.5-5.2c2,0.9,4.3,3.9,4.3,3.9h1.7C419.9,221.2,416,217.1,411.1,217.1z"/>
				</g>
			</g>
		</g>
		<g>
			<g>
				<polygon opacity="3.000000e-002" points="396.2,207.6 396.2,214 389.8,214 389.8,214.4 396.6,214.4 396.6,207.6 				"/>
			</g>
			<g>
				<polygon opacity="3.000000e-002" points="396.2,207.6 396.2,214 389.8,214 389.8,214.8 397,214.8 397,207.6 				"/>
			</g>
			<g>
				<polygon opacity="3.000000e-002" points="396.2,207.6 396.2,214 389.8,214 389.8,215.2 397.3,215.2 397.3,207.6 				"/>
			</g>
			<polygon opacity="3.000000e-002" points="396.5,207.6 396.2,207.6 396.2,214 389.8,214 389.8,214.3 389.8,215.6 397.7,215.6 
				397.7,207.6 			"/>
			<polygon opacity="3.000000e-002" points="396.2,207.6 396.2,207.6 396.2,214 389.8,214 389.8,214 389.8,215.9 398.1,215.9 
				398.1,207.6 			"/>
			<polygon fill="#EDEDED" points="396.2,207.6 389.8,214 396.2,214 			"/>
		</g>
	</g>
	<g>
		<polygon opacity="0.15" points="105.4,358.9 37.3,358.9 37.3,323.4 47.2,313.5 105.4,313.5 		"/>
		<polygon fill="#EDEDED" points="103.9,357.4 35.8,357.4 35.8,318.5 42.2,312 103.9,312 		"/>
		<rect x="40.3" y="316.6" fill="#8FB8E2" width="59" height="36.3"/>
		<rect x="40.3" y="337" fill="#96B548" width="59" height="15.9"/>
		<g>
			<defs>
				<rect id="SVGID_3_" x="40.3" y="316.6" width="59" height="36.3"/>
			</defs>
			<clipPath id="SVGID_4_">
				<use xlink:href="#SVGID_3_"  overflow="visible"/>
			</clipPath>
			<g clip-path="url(#SVGID_4_)">
				<g>
					<path fill="#5593D7" d="M75.8,353.1c0-3-2-5.5-4.6-5.5c-2.5,0-4.6,2.5-4.6,5.5l0,0c0,1.5,2,2.8,4.6,2.8S75.8,354.6,75.8,353.1
						L75.8,353.1z"/>
					<g>
						<path fill="#5593D7" d="M66.6,353c0-3,2-5.5,4.6-5.5s4.6,2.5,4.6,5.5H66.6z"/>
					</g>
					<g>
						<path fill="#F7C1A1" d="M71.2,351.2c1.4,0,2.7-0.8,3.3-2c-0.8-1-2-1.6-3.3-1.6c-1.3,0-2.4,0.6-3.3,1.6
							C68.6,350.4,69.8,351.2,71.2,351.2z"/>
						<rect x="70.3" y="344.6" fill="#F7C1A1" width="1.8" height="3.5"/>
					</g>
					<g>
						<path fill="#F69626" d="M73.6,334.2L73.6,334.2c0.6-0.7,1.5-1.1,2.5-1.1c1.8,0,3.3,1.5,3.3,3.3c0,0.4-0.1,0.7-0.2,1.1
							c-0.4-0.8-1.1-1.5-1.9-1.8c0,0,1.8,2.5,0.6,5.8c-1.3,3.3,0.7,4.6,0.7,4.6s-2.9,2.4-5.7-0.2h-1.7v-11.1L73.6,334.2z"/>
						<path fill="#F69626" d="M68.8,334.2L68.8,334.2c-0.6-0.7-1.5-1.1-2.5-1.1c-1.8,0-3.3,1.5-3.3,3.3c0,0.4,0.1,0.7,0.2,1.1
							c0.4-0.8,1.1-1.5,1.9-1.8c0,0-1.8,2.5-0.6,5.8c1.3,3.3-0.7,4.6-0.7,4.6s2.9,2.4,5.7-0.2h1.7v-11.1L68.8,334.2z"/>
					</g>
					<path fill="#F7C1A1" d="M71.2,334.7c-2.5,0-4.6,2.1-4.6,4.7v2.4c0,2.6,2,4.7,4.6,4.7s4.6-2.1,4.6-4.7v-2.4
						C75.8,336.9,73.7,334.7,71.2,334.7z"/>
					<g>
						<path fill="#ED5E51" d="M68.8,334.2L68.8,334.2L68.8,334.2c-0.2-0.2-0.4-0.4-0.6-0.5c-0.4,0.1-0.9,0.4-1.3,0.9
							c-0.7,0.7-1.1,1.6-0.8,1.8c0.3,0.3,1.1-0.1,1.8-0.8C68.4,335.1,68.7,334.6,68.8,334.2z"/>
						<path fill="#ED5E51" d="M73.6,334.2L73.6,334.2L73.6,334.2c0.2-0.2,0.4-0.4,0.6-0.5c0.4,0.1,0.9,0.4,1.3,0.9
							c0.7,0.7,1.1,1.6,0.8,1.8c-0.3,0.3-1.1-0.1-1.8-0.8C74,335.1,73.7,334.6,73.6,334.2z"/>
						<path fill="#F69626" d="M76.6,337.7c-0.7-2.3-2.9-4-5.4-4c-2.5,0-4.7,1.7-5.4,4c-0.2,0.5-0.2,1.2-0.1,1.8h0.9
							c0,0,3.8-0.4,4.6-2.4h0c0.8,2,4.6,2.4,4.6,2.4h0.9C76.8,338.9,76.8,338.2,76.6,337.7z"/>
					</g>
				</g>
				<g>
					<path fill="#513432" d="M57.3,345.4L57.3,345.4c-5,0-9-4-9-9v-5.8c0-5,4-9,9-9h0c5,0,9,4,9,9v5.8
						C66.3,341.3,62.3,345.4,57.3,345.4z"/>
					<g>
						<path fill="#5593D7" d="M64.2,351.6c0-4.7-3.2-8.5-7.1-8.5c-3.9,0-7.1,3.8-7.1,8.5l0,0c0,2.3,3.2,4.3,7.1,4.3
							S64.2,353.9,64.2,351.6L64.2,351.6z"/>
						<path fill="#F7944B" d="M59.9,343.7c-0.8-0.4-1.8-0.7-2.8-0.7c-1,0-1.9,0.2-2.8,0.7c-0.4,1.2,0,5,2.8,5l0,0
							C59.9,348.7,60.3,344.9,59.9,343.7z"/>
					</g>
					<g>
						<path fill="#F7C1A1" d="M59.9,343.7c-0.8-0.4-1.8-0.7-2.8-0.7c-1,0-1.9,0.2-2.8,0.7c0.3,1.2,1.4,2.2,2.8,2.2
							C58.5,345.9,59.6,345,59.9,343.7z"/>
						<rect x="55.7" y="338.6" fill="#F7C1A1" width="2.8" height="5.5"/>
					</g>
					<path fill="#F7C1A1" d="M57.2,323.2c-3.9,0-7.1,3.3-7.1,7.4v3.7c0,4.1,3.2,7.4,7.1,7.4c3.9,0,7.1-3.3,7.1-7.4v-3.7
						C64.2,326.5,61.1,323.2,57.2,323.2z"/>
					<path fill="#513432" d="M57.2,321.5c-4.8,0-8.8,4.1-8.8,9.1v3.7c0,1.4,0.5,2.7,0.9,3.9c0.2,0.5,0.3,1.2,0.2,2h2.1
						c-0.6-1.6-0.3-6.8,2.9-8.3s5.5-5.2,5.5-5.2c2,0.9,4.3,3.9,4.3,3.9h1.7C65.9,325.6,62,321.5,57.2,321.5z"/>
				</g>
			</g>
		</g>
		<g>
			<g>
				<polygon opacity="3.000000e-002" points="42.2,312 42.2,318.5 35.8,318.5 35.8,318.8 42.6,318.8 42.6,312 				"/>
			</g>
			<g>
				<polygon opacity="3.000000e-002" points="42.2,312 42.2,318.5 35.8,318.5 35.8,319.2 43,319.2 43,312 				"/>
			</g>
			<g>
				<polygon opacity="3.000000e-002" points="42.2,312 42.2,318.5 35.8,318.5 35.8,319.6 43.4,319.6 43.4,312 				"/>
			</g>
			<polygon opacity="3.000000e-002" points="42.5,312 42.2,312 42.2,318.5 35.8,318.5 35.8,318.7 35.8,320 43.8,320 43.8,312 			"/>
			<polygon opacity="3.000000e-002" points="42.3,312 42.2,312 42.2,318.5 35.8,318.5 35.8,318.5 35.8,320.3 44.1,320.3 44.1,312 
							"/>
			<polygon fill="#EDEDED" points="42.2,312 35.8,318.5 42.2,318.5 			"/>
		</g>
	</g>
	<g opacity="0.5">
		<polygon opacity="0.15" points="75.2,174.4 7.1,174.4 7.1,138.8 17,129 75.2,129 		"/>
		<polygon fill="#EDEDED" points="73.7,172.9 5.6,172.9 5.6,133.9 12.1,127.5 73.7,127.5 		"/>
		<rect x="10.2" y="132" fill="#8FB8E2" width="59" height="36.3"/>
		<rect x="10.2" y="152.5" fill="#96B548" width="59" height="15.9"/>
		<g>
			<defs>
				<rect id="SVGID_5_" x="10.2" y="132" width="59" height="36.3"/>
			</defs>
			<clipPath id="SVGID_6_">
				<use xlink:href="#SVGID_5_"  overflow="visible"/>
			</clipPath>
			<g clip-path="url(#SVGID_6_)">
				<g>
					<path fill="#5593D7" d="M45.6,168.5c0-3-2-5.5-4.6-5.5c-2.5,0-4.6,2.5-4.6,5.5l0,0c0,1.5,2,2.8,4.6,2.8S45.6,170,45.6,168.5
						L45.6,168.5z"/>
					<g>
						<path fill="#5593D7" d="M36.5,168.5c0-3,2-5.5,4.6-5.5c2.5,0,4.6,2.5,4.6,5.5H36.5z"/>
					</g>
					<g>
						<path fill="#F7C1A1" d="M41,166.7c1.4,0,2.7-0.8,3.3-2c-0.8-1-2-1.6-3.3-1.6c-1.3,0-2.4,0.6-3.3,1.6
							C38.4,165.9,39.6,166.7,41,166.7z"/>
						<rect x="40.1" y="160.1" fill="#F7C1A1" width="1.8" height="3.5"/>
					</g>
					<g>
						<path fill="#F69626" d="M43.4,149.7L43.4,149.7c0.6-0.7,1.5-1.1,2.5-1.1c1.8,0,3.3,1.5,3.3,3.3c0,0.4-0.1,0.7-0.2,1.1
							c-0.4-0.8-1.1-1.5-1.9-1.8c0,0,1.8,2.5,0.6,5.8c-1.3,3.3,0.7,4.6,0.7,4.6s-2.9,2.4-5.7-0.2H41v-11.1L43.4,149.7z"/>
						<path fill="#F69626" d="M38.6,149.7L38.6,149.7c-0.6-0.7-1.5-1.1-2.5-1.1c-1.8,0-3.3,1.5-3.3,3.3c0,0.4,0.1,0.7,0.2,1.1
							c0.4-0.8,1.1-1.5,1.9-1.8c0,0-1.8,2.5-0.6,5.8c1.3,3.3-0.7,4.6-0.7,4.6s2.9,2.4,5.7-0.2H41v-11.1L38.6,149.7z"/>
					</g>
					<path fill="#F7C1A1" d="M41,150.2c-2.5,0-4.6,2.1-4.6,4.7v2.4c0,2.6,2,4.7,4.6,4.7c2.5,0,4.6-2.1,4.6-4.7V155
						C45.6,152.3,43.5,150.2,41,150.2z"/>
					<g>
						<path fill="#ED5E51" d="M38.6,149.7L38.6,149.7L38.6,149.7c-0.2-0.2-0.4-0.4-0.6-0.5c-0.4,0.1-0.9,0.4-1.3,0.9
							c-0.7,0.7-1.1,1.6-0.8,1.8c0.3,0.3,1.1-0.1,1.8-0.8C38.2,150.6,38.6,150,38.6,149.7z"/>
						<path fill="#ED5E51" d="M43.4,149.7L43.4,149.7L43.4,149.7c0.2-0.2,0.4-0.4,0.6-0.5c0.4,0.1,0.9,0.4,1.3,0.9
							c0.7,0.7,1.1,1.6,0.8,1.8c-0.3,0.3-1.1-0.1-1.8-0.8C43.8,150.6,43.5,150,43.4,149.7z"/>
						<path fill="#F69626" d="M46.4,153.2c-0.7-2.3-2.9-4-5.4-4c-2.5,0-4.7,1.7-5.4,4c-0.2,0.5-0.2,1.2-0.1,1.8h0.9
							c0,0,3.8-0.4,4.6-2.4h0c0.8,2,4.6,2.4,4.6,2.4h0.9C46.6,154.4,46.6,153.7,46.4,153.2z"/>
					</g>
				</g>
				<g>
					<path fill="#513432" d="M27.1,160.8L27.1,160.8c-5,0-9-4-9-9V146c0-5,4-9,9-9h0c5,0,9,4,9,9v5.8
						C36.1,156.8,32.1,160.8,27.1,160.8z"/>
					<g>
						<path fill="#5593D7" d="M34.1,167c0-4.7-3.2-8.5-7.1-8.5c-3.9,0-7.1,3.8-7.1,8.5l0,0c0,2.3,3.2,4.3,7.1,4.3
							S34.1,169.4,34.1,167L34.1,167z"/>
						<path fill="#F7944B" d="M29.7,159.2c-0.8-0.4-1.8-0.7-2.8-0.7s-1.9,0.2-2.8,0.7c-0.4,1.2,0,5,2.8,5l0,0
							C29.7,164.2,30.1,160.4,29.7,159.2z"/>
					</g>
					<g>
						<path fill="#F7C1A1" d="M29.7,159.2c-0.8-0.4-1.8-0.7-2.8-0.7c-1,0-1.9,0.2-2.8,0.7c0.3,1.2,1.4,2.2,2.8,2.2
							C28.3,161.4,29.4,160.4,29.7,159.2z"/>
						<rect x="25.6" y="154" fill="#F7C1A1" width="2.8" height="5.5"/>
					</g>
					<path fill="#F7C1A1" d="M27,138.7c-3.9,0-7.1,3.3-7.1,7.4v3.7c0,4.1,3.2,7.4,7.1,7.4c3.9,0,7.1-3.3,7.1-7.4v-3.7
						C34.1,142,30.9,138.7,27,138.7z"/>
					<path fill="#513432" d="M27,137c-4.8,0-8.8,4.1-8.8,9.1v3.7c0,1.4,0.5,2.7,0.9,3.9c0.2,0.5,0.3,1.2,0.2,2h2.1
						c-0.6-1.6-0.3-6.8,2.9-8.3c3.3-1.5,5.5-5.2,5.5-5.2c2,0.9,4.3,3.9,4.3,3.9h1.7C35.8,141,31.8,137,27,137z"/>
				</g>
			</g>
		</g>
		<g>
			<g>
				<polygon opacity="3.000000e-002" points="12.1,127.5 12.1,133.9 5.6,133.9 5.6,134.3 12.4,134.3 12.4,127.5 				"/>
			</g>
			<g>
				<polygon opacity="3.000000e-002" points="12.1,127.5 12.1,133.9 5.6,133.9 5.6,134.7 12.8,134.7 12.8,127.5 				"/>
			</g>
			<g>
				<polygon opacity="3.000000e-002" points="12.1,127.5 12.1,133.9 5.6,133.9 5.6,135.1 13.2,135.1 13.2,127.5 				"/>
			</g>
			<polygon opacity="3.000000e-002" points="12.3,127.5 12.1,127.5 12.1,133.9 5.6,133.9 5.6,134.2 5.6,135.4 13.6,135.4 
				13.6,127.5 			"/>
			<polygon opacity="3.000000e-002" points="12.1,127.5 12.1,127.5 12.1,133.9 5.7,133.9 5.6,133.9 5.6,135.8 13.9,135.8 
				13.9,127.5 			"/>
			<polygon fill="#EDEDED" points="12.1,127.5 5.6,133.9 12.1,133.9 			"/>
		</g>
	</g>
	<g opacity="0.75">
		<polygon opacity="0.15" points="261.5,124.9 193.4,124.9 193.4,89.4 203.2,79.5 261.5,79.5 		"/>
		<polygon fill="#EDEDED" points="259.9,123.4 191.8,123.4 191.8,84.5 198.3,78 259.9,78 		"/>
		<rect x="196.4" y="82.6" fill="#8FB8E2" width="59" height="36.3"/>
		<rect x="196.4" y="103" fill="#96B548" width="59" height="15.9"/>
		<g>
			<defs>
				<rect id="SVGID_7_" x="196.4" y="82.6" width="59" height="36.3"/>
			</defs>
			<clipPath id="SVGID_8_">
				<use xlink:href="#SVGID_7_"  overflow="visible"/>
			</clipPath>
			<g clip-path="url(#SVGID_8_)">
				<g>
					<path fill="#5593D7" d="M231.8,119.1c0-3-2-5.5-4.6-5.5c-2.5,0-4.6,2.5-4.6,5.5l0,0c0,1.5,2,2.8,4.6,2.8
						C229.8,121.8,231.8,120.6,231.8,119.1L231.8,119.1z"/>
					<g>
						<path fill="#5593D7" d="M222.7,119c0-3,2-5.5,4.6-5.5c2.5,0,4.6,2.5,4.6,5.5H222.7z"/>
					</g>
					<g>
						<path fill="#F7C1A1" d="M227.2,117.2c1.4,0,2.7-0.8,3.3-2c-0.8-1-2-1.6-3.3-1.6c-1.3,0-2.4,0.6-3.3,1.6
							C224.6,116.4,225.8,117.2,227.2,117.2z"/>
						<rect x="226.3" y="110.6" fill="#F7C1A1" width="1.8" height="3.5"/>
					</g>
					<g>
						<path fill="#F69626" d="M229.6,100.2L229.6,100.2c0.6-0.7,1.5-1.1,2.5-1.1c1.8,0,3.3,1.5,3.3,3.3c0,0.4-0.1,0.7-0.2,1.1
							c-0.4-0.8-1.1-1.5-1.9-1.8c0,0,1.8,2.5,0.6,5.8c-1.3,3.3,0.7,4.6,0.7,4.6s-2.9,2.4-5.7-0.2h-1.7v-11.1L229.6,100.2z"/>
						<path fill="#F69626" d="M224.9,100.2L224.9,100.2c-0.6-0.7-1.5-1.1-2.5-1.1c-1.8,0-3.3,1.5-3.3,3.3c0,0.4,0.1,0.7,0.2,1.1
							c0.4-0.8,1.1-1.5,1.9-1.8c0,0-1.8,2.5-0.6,5.8c1.3,3.3-0.7,4.6-0.7,4.6s2.9,2.4,5.7-0.2h1.7v-11.1L224.9,100.2z"/>
					</g>
					<path fill="#F7C1A1" d="M227.2,100.7c-2.5,0-4.6,2.1-4.6,4.7v2.4c0,2.6,2,4.7,4.6,4.7c2.5,0,4.6-2.1,4.6-4.7v-2.4
						C231.8,102.9,229.8,100.7,227.2,100.7z"/>
					<g>
						<path fill="#ED5E51" d="M224.9,100.2L224.9,100.2L224.9,100.2c-0.2-0.2-0.4-0.4-0.6-0.5c-0.4,0.1-0.9,0.4-1.3,0.9
							c-0.7,0.7-1.1,1.6-0.8,1.8c0.3,0.3,1.1-0.1,1.8-0.8C224.5,101.1,224.8,100.6,224.9,100.2z"/>
						<path fill="#ED5E51" d="M229.6,100.2L229.6,100.2L229.6,100.2c0.2-0.2,0.4-0.4,0.6-0.5c0.4,0.1,0.9,0.4,1.3,0.9
							c0.7,0.7,1.1,1.6,0.8,1.8c-0.3,0.3-1.1-0.1-1.8-0.8C230,101.1,229.7,100.6,229.6,100.2z"/>
						<path fill="#F69626" d="M232.6,103.7c-0.7-2.3-2.9-4-5.4-4c-2.5,0-4.7,1.7-5.4,4c-0.2,0.5-0.2,1.2-0.1,1.8h0.9
							c0,0,3.8-0.4,4.6-2.4h0c0.8,2,4.6,2.4,4.6,2.4h0.9C232.8,104.9,232.8,104.2,232.6,103.7z"/>
					</g>
				</g>
				<g>
					<path fill="#513432" d="M213.3,111.4L213.3,111.4c-5,0-9-4-9-9v-5.8c0-5,4-9,9-9h0c5,0,9,4,9,9v5.8
						C222.3,107.3,218.3,111.4,213.3,111.4z"/>
					<g>
						<path fill="#5593D7" d="M220.3,117.6c0-4.7-3.2-8.5-7.1-8.5c-3.9,0-7.1,3.8-7.1,8.5l0,0c0,2.3,3.2,4.3,7.1,4.3
							C217.1,121.8,220.3,119.9,220.3,117.6L220.3,117.6z"/>
						<path fill="#F7944B" d="M216,109.7c-0.8-0.4-1.8-0.7-2.8-0.7c-1,0-1.9,0.2-2.8,0.7c-0.4,1.2,0,5,2.8,5l0,0
							C216,114.7,216.4,110.9,216,109.7z"/>
					</g>
					<g>
						<path fill="#F7C1A1" d="M216,109.7c-0.8-0.4-1.8-0.7-2.8-0.7c-1,0-1.9,0.2-2.8,0.7c0.3,1.2,1.4,2.2,2.8,2.2
							C214.5,111.9,215.7,111,216,109.7z"/>
						<rect x="211.8" y="104.6" fill="#F7C1A1" width="2.8" height="5.5"/>
					</g>
					<path fill="#F7C1A1" d="M213.2,89.2c-3.9,0-7.1,3.3-7.1,7.4v3.7c0,4.1,3.2,7.4,7.1,7.4s7.1-3.3,7.1-7.4v-3.7
						C220.3,92.5,217.1,89.2,213.2,89.2z"/>
					<path fill="#513432" d="M213.2,87.5c-4.8,0-8.8,4.1-8.8,9.1v3.7c0,1.4,0.5,2.7,0.9,3.9c0.2,0.5,0.3,1.2,0.2,2h2.1
						c-0.6-1.6-0.3-6.8,2.9-8.3c3.3-1.5,5.5-5.2,5.5-5.2c2,0.9,4.3,3.9,4.3,3.9h1.7C222,91.6,218,87.5,213.2,87.5z"/>
				</g>
			</g>
		</g>
		<g>
			<g>
				<polygon opacity="3.000000e-002" points="198.3,78 198.3,84.5 191.8,84.5 191.8,84.8 198.7,84.8 198.7,78 				"/>
			</g>
			<g>
				<polygon opacity="3.000000e-002" points="198.3,78 198.3,84.5 191.8,84.5 191.8,85.2 199,85.2 199,78 				"/>
			</g>
			<g>
				<polygon opacity="3.000000e-002" points="198.3,78 198.3,84.5 191.8,84.5 191.8,85.6 199.4,85.6 199.4,78 				"/>
			</g>
			<polygon opacity="3.000000e-002" points="198.6,78 198.3,78 198.3,84.5 191.8,84.5 191.8,84.7 191.8,86 199.8,86 199.8,78 			"/>
			<polygon opacity="3.000000e-002" points="198.3,78 198.3,78 198.3,84.5 191.9,84.5 191.8,84.5 191.8,86.3 200.2,86.3 200.2,78 
							"/>
			<polygon fill="#EDEDED" points="198.3,78 191.8,84.5 198.3,84.5 			"/>
		</g>
	</g>
	<g opacity="0.25">
		<polygon opacity="0.15" points="420,65.1 351.9,65.1 351.9,29.6 361.7,19.8 420,19.8 		"/>
		<polygon fill="#EDEDED" points="418.5,63.6 350.4,63.6 350.4,24.7 356.8,18.2 418.5,18.2 		"/>
		<rect x="354.9" y="22.8" fill="#8FB8E2" width="59" height="36.3"/>
		<rect x="354.9" y="43.2" fill="#96B548" width="59" height="15.9"/>
		<g>
			<defs>
				<rect id="SVGID_9_" x="354.9" y="22.8" width="59" height="36.3"/>
			</defs>
			<clipPath id="SVGID_10_">
				<use xlink:href="#SVGID_9_"  overflow="visible"/>
			</clipPath>
			<g clip-path="url(#SVGID_10_)">
				<g>
					<path fill="#5593D7" d="M390.4,59.3c0-3-2-5.5-4.6-5.5c-2.5,0-4.6,2.5-4.6,5.5l0,0c0,1.5,2,2.8,4.6,2.8S390.4,60.8,390.4,59.3
						L390.4,59.3z"/>
					<g>
						<path fill="#5593D7" d="M381.2,59.2c0-3,2-5.5,4.6-5.5s4.6,2.5,4.6,5.5H381.2z"/>
					</g>
					<g>
						<path fill="#F7C1A1" d="M385.8,57.4c1.4,0,2.7-0.8,3.3-2c-0.8-1-2-1.6-3.3-1.6c-1.3,0-2.4,0.6-3.3,1.6
							C383.1,56.6,384.4,57.4,385.8,57.4z"/>
						<rect x="384.9" y="50.9" fill="#F7C1A1" width="1.8" height="3.5"/>
					</g>
					<g>
						<path fill="#F69626" d="M388.2,40.4L388.2,40.4c0.6-0.7,1.5-1.1,2.5-1.1c1.8,0,3.3,1.5,3.3,3.3c0,0.4-0.1,0.7-0.2,1.1
							c-0.4-0.8-1.1-1.5-1.9-1.8c0,0,1.8,2.5,0.6,5.8c-1.3,3.3,0.7,4.6,0.7,4.6s-2.9,2.4-5.7-0.2h-1.7V41L388.2,40.4z"/>
						<path fill="#F69626" d="M383.4,40.4L383.4,40.4c-0.6-0.7-1.5-1.1-2.5-1.1c-1.8,0-3.3,1.5-3.3,3.3c0,0.4,0.1,0.7,0.2,1.1
							c0.4-0.8,1.1-1.5,1.9-1.8c0,0-1.8,2.5-0.6,5.8c1.3,3.3-0.7,4.6-0.7,4.6s2.9,2.4,5.7-0.2h1.7V41L383.4,40.4z"/>
					</g>
					<path fill="#F7C1A1" d="M385.8,41c-2.5,0-4.6,2.1-4.6,4.7v2.4c0,2.6,2,4.7,4.6,4.7s4.6-2.1,4.6-4.7v-2.4
						C390.4,43.1,388.3,41,385.8,41z"/>
					<g>
						<path fill="#ED5E51" d="M383.4,40.4L383.4,40.4L383.4,40.4c-0.2-0.2-0.4-0.4-0.6-0.5c-0.4,0.1-0.9,0.4-1.3,0.9
							c-0.7,0.7-1.1,1.6-0.8,1.8c0.3,0.3,1.1-0.1,1.8-0.8C383,41.3,383.3,40.8,383.4,40.4z"/>
						<path fill="#ED5E51" d="M388.2,40.4L388.2,40.4L388.2,40.4c0.2-0.2,0.4-0.4,0.6-0.5c0.4,0.1,0.9,0.4,1.3,0.9
							c0.7,0.7,1.1,1.6,0.8,1.8c-0.3,0.3-1.1-0.1-1.8-0.8C388.6,41.3,388.3,40.8,388.2,40.4z"/>
						<path fill="#F69626" d="M391.2,43.9c-0.7-2.3-2.9-4-5.4-4c-2.5,0-4.7,1.7-5.4,4c-0.2,0.5-0.2,1.2-0.1,1.8h0.9
							c0,0,3.8-0.4,4.6-2.4h0c0.8,2,4.6,2.4,4.6,2.4h0.9C391.3,45.1,391.3,44.5,391.2,43.9z"/>
					</g>
				</g>
				<g>
					<path fill="#513432" d="M371.9,51.6L371.9,51.6c-5,0-9-4-9-9v-5.8c0-5,4-9,9-9l0,0c5,0,9,4,9,9v5.8
						C380.9,47.5,376.8,51.6,371.9,51.6z"/>
					<g>
						<path fill="#5593D7" d="M378.8,57.8c0-4.7-3.2-8.5-7.1-8.5c-3.9,0-7.1,3.8-7.1,8.5l0,0c0,2.3,3.2,4.3,7.1,4.3
							S378.8,60.1,378.8,57.8L378.8,57.8z"/>
						<path fill="#F7944B" d="M374.5,49.9c-0.8-0.4-1.8-0.7-2.8-0.7c-1,0-1.9,0.2-2.8,0.7c-0.4,1.2,0,5,2.8,5l0,0
							C374.5,54.9,374.9,51.1,374.5,49.9z"/>
					</g>
					<g>
						<path fill="#F7C1A1" d="M374.5,49.9c-0.8-0.4-1.8-0.7-2.8-0.7c-1,0-1.9,0.2-2.8,0.7c0.3,1.2,1.4,2.2,2.8,2.2
							C373.1,52.1,374.2,51.2,374.5,49.9z"/>
						<rect x="370.3" y="44.8" fill="#F7C1A1" width="2.8" height="5.5"/>
					</g>
					<path fill="#F7C1A1" d="M371.7,29.4c-3.9,0-7.1,3.3-7.1,7.4v3.7c0,4.1,3.2,7.4,7.1,7.4s7.1-3.3,7.1-7.4v-3.7
						C378.8,32.7,375.7,29.4,371.7,29.4z"/>
					<path fill="#513432" d="M371.7,27.7c-4.8,0-8.8,4.1-8.8,9.1v3.7c0,1.4,0.5,2.7,0.9,3.9c0.2,0.5,0.3,1.2,0.2,2h2.1
						c-0.6-1.6-0.3-6.8,2.9-8.3c3.3-1.5,5.5-5.2,5.5-5.2c2,0.9,4.3,3.9,4.3,3.9h1.7C380.5,31.8,376.6,27.7,371.7,27.7z"/>
				</g>
			</g>
		</g>
		<g>
			<g>
				<polygon opacity="3.000000e-002" points="356.8,18.2 356.8,24.7 350.4,24.7 350.4,25 357.2,25 357.2,18.2 				"/>
			</g>
			<g>
				<polygon opacity="3.000000e-002" points="356.8,18.2 356.8,24.7 350.4,24.7 350.4,25.4 357.6,25.4 357.6,18.2 				"/>
			</g>
			<g>
				<polygon opacity="3.000000e-002" points="356.8,18.2 356.8,24.7 350.4,24.7 350.4,25.8 358,25.8 358,18.2 				"/>
			</g>
			<polygon opacity="3.000000e-002" points="357.1,18.2 356.8,18.2 356.8,24.7 350.4,24.7 350.4,25 350.4,26.2 358.3,26.2 
				358.3,18.2 			"/>
			<polygon opacity="3.000000e-002" points="356.9,18.2 356.8,18.2 356.8,24.7 350.4,24.7 350.4,24.7 350.4,26.6 358.7,26.6 
				358.7,18.2 			"/>
			<polygon fill="#EDEDED" points="356.8,18.2 350.4,24.7 356.8,24.7 			"/>
		</g>
	</g>
	<g>
		<polygon opacity="0.15" points="223.4,204.8 155.3,204.8 155.3,169.3 165.1,159.4 223.4,159.4 		"/>
		<polygon fill="#EDEDED" points="221.9,203.3 153.8,203.3 153.8,164.3 160.2,157.9 221.9,157.9 		"/>
		<rect x="158.3" y="162.4" fill="#8FB8E2" width="59" height="36.3"/>
		<rect x="158.3" y="182.9" fill="#96B548" width="59" height="15.9"/>
		<g>
			<defs>
				<rect id="SVGID_11_" x="158.3" y="162.4" width="59" height="36.3"/>
			</defs>
			<clipPath id="SVGID_12_">
				<use xlink:href="#SVGID_11_"  overflow="visible"/>
			</clipPath>
			<g clip-path="url(#SVGID_12_)">
				<g>
					<path fill="#5593D7" d="M193.8,198.9c0-3-2-5.5-4.6-5.5c-2.5,0-4.6,2.5-4.6,5.5l0,0c0,1.5,2,2.8,4.6,2.8
						C191.7,201.7,193.8,200.5,193.8,198.9L193.8,198.9z"/>
					<g>
						<path fill="#5593D7" d="M184.6,198.9c0-3,2-5.5,4.6-5.5c2.5,0,4.6,2.5,4.6,5.5H184.6z"/>
					</g>
					<g>
						<path fill="#F7C1A1" d="M189.2,197.1c1.4,0,2.7-0.8,3.3-2c-0.8-1-2-1.6-3.3-1.6c-1.3,0-2.4,0.6-3.3,1.6
							C186.5,196.3,187.8,197.1,189.2,197.1z"/>
						<rect x="188.3" y="190.5" fill="#F7C1A1" width="1.8" height="3.5"/>
					</g>
					<g>
						<path fill="#F69626" d="M191.6,180.1L191.6,180.1c0.6-0.7,1.5-1.1,2.5-1.1c1.8,0,3.3,1.5,3.3,3.3c0,0.4-0.1,0.7-0.2,1.1
							c-0.4-0.8-1.1-1.5-1.9-1.8c0,0,1.8,2.5,0.6,5.8c-1.3,3.3,0.7,4.6,0.7,4.6s-2.9,2.4-5.7-0.2h-1.7v-11.1L191.6,180.1z"/>
						<path fill="#F69626" d="M186.8,180.1L186.8,180.1c-0.6-0.7-1.5-1.1-2.5-1.1c-1.8,0-3.3,1.5-3.3,3.3c0,0.4,0.1,0.7,0.2,1.1
							c0.4-0.8,1.1-1.5,1.9-1.8c0,0-1.8,2.5-0.6,5.8c1.3,3.3-0.7,4.6-0.7,4.6s2.9,2.4,5.7-0.2h1.7v-11.1L186.8,180.1z"/>
					</g>
					<path fill="#F7C1A1" d="M189.2,180.6c-2.5,0-4.6,2.1-4.6,4.7v2.4c0,2.6,2,4.7,4.6,4.7c2.5,0,4.6-2.1,4.6-4.7v-2.4
						C193.8,182.8,191.7,180.6,189.2,180.6z"/>
					<g>
						<path fill="#ED5E51" d="M186.8,180.1L186.8,180.1L186.8,180.1c-0.2-0.2-0.4-0.4-0.6-0.5c-0.4,0.1-0.9,0.4-1.3,0.9
							c-0.7,0.7-1.1,1.6-0.8,1.8c0.3,0.3,1.1-0.1,1.8-0.8C186.4,181,186.7,180.5,186.8,180.1z"/>
						<path fill="#ED5E51" d="M191.6,180.1L191.6,180.1L191.6,180.1c0.2-0.2,0.4-0.4,0.6-0.5c0.4,0.1,0.9,0.4,1.3,0.9
							c0.7,0.7,1.1,1.6,0.8,1.8c-0.3,0.3-1.1-0.1-1.8-0.8C192,181,191.7,180.5,191.6,180.1z"/>
						<path fill="#F69626" d="M194.6,183.6c-0.7-2.3-2.9-4-5.4-4c-2.5,0-4.7,1.7-5.4,4c-0.2,0.5-0.2,1.2-0.1,1.8h0.9
							c0,0,3.8-0.4,4.6-2.4h0c0.8,2,4.6,2.4,4.6,2.4h0.9C194.7,184.8,194.8,184.1,194.6,183.6z"/>
					</g>
				</g>
				<g>
					<path fill="#513432" d="M175.3,191.2L175.3,191.2c-5,0-9-4-9-9v-5.8c0-5,4-9,9-9h0c5,0,9,4,9,9v5.8
						C184.3,187.2,180.3,191.2,175.3,191.2z"/>
					<g>
						<path fill="#5593D7" d="M182.2,197.4c0-4.7-3.2-8.5-7.1-8.5c-3.9,0-7.1,3.8-7.1,8.5l0,0c0,2.3,3.2,4.3,7.1,4.3
							C179.1,201.7,182.2,199.8,182.2,197.4L182.2,197.4z"/>
						<path fill="#F7944B" d="M177.9,189.6c-0.8-0.4-1.8-0.7-2.8-0.7c-1,0-1.9,0.2-2.8,0.7c-0.4,1.2,0,5,2.8,5l0,0
							C177.9,194.6,178.3,190.8,177.9,189.6z"/>
					</g>
					<g>
						<path fill="#F7C1A1" d="M177.9,189.6c-0.8-0.4-1.8-0.7-2.8-0.7s-1.9,0.2-2.8,0.7c0.3,1.2,1.4,2.2,2.8,2.2
							C176.5,191.8,177.6,190.8,177.9,189.6z"/>
						<rect x="173.7" y="184.5" fill="#F7C1A1" width="2.8" height="5.5"/>
					</g>
					<path fill="#F7C1A1" d="M175.1,169.1c-3.9,0-7.1,3.3-7.1,7.4v3.7c0,4.1,3.2,7.4,7.1,7.4s7.1-3.3,7.1-7.4v-3.7
						C182.2,172.4,179.1,169.1,175.1,169.1z"/>
					<path fill="#513432" d="M175.1,167.4c-4.8,0-8.8,4.1-8.8,9.1v3.7c0,1.4,0.5,2.7,0.9,3.9c0.2,0.5,0.3,1.2,0.2,2h2.1
						c-0.6-1.6-0.3-6.8,2.9-8.3s5.5-5.2,5.5-5.2c2,0.9,4.3,3.9,4.3,3.9h1.7C183.9,171.5,180,167.4,175.1,167.4z"/>
				</g>
			</g>
		</g>
		<g>
			<g>
				<polygon opacity="3.000000e-002" points="160.2,157.9 160.2,164.3 153.8,164.3 153.8,164.7 160.6,164.7 160.6,157.9 				"/>
			</g>
			<g>
				<polygon opacity="3.000000e-002" points="160.2,157.9 160.2,164.3 153.8,164.3 153.8,165.1 161,165.1 161,157.9 				"/>
			</g>
			<g>
				<polygon opacity="3.000000e-002" points="160.2,157.9 160.2,164.3 153.8,164.3 153.8,165.5 161.4,165.5 161.4,157.9 				"/>
			</g>
			<polygon opacity="3.000000e-002" points="160.5,157.9 160.2,157.9 160.2,164.3 153.8,164.3 153.8,164.6 153.8,165.9 161.7,165.9 
				161.7,157.9 			"/>
			<polygon opacity="3.000000e-002" points="160.3,157.9 160.2,157.9 160.2,164.3 153.8,164.3 153.8,164.3 153.8,166.2 162.1,166.2 
				162.1,157.9 			"/>
			<polygon fill="#EDEDED" points="160.2,157.9 153.8,164.3 160.2,164.3 			"/>
		</g>
	</g>
	<g>
		<g>
			<g>
				<path d="M347.8,363.8h-232v-134c0-2.8,2.3-5.2,5.2-5.2h221.6c2.8,0,5.2,2.3,5.2,5.2V363.8z"/>
				<rect x="125.1" y="233.9" fill="#5592D7" width="213.4" height="120.6"/>
				<g>
					<rect x="166.9" y="250.9" fill="#EDEDED" width="129.8" height="86.5"/>
					<rect x="175.6" y="259.6" fill="#8FB8E2" width="112.5" height="69.2"/>
					<rect x="175.6" y="298.5" fill="#96B548" width="112.5" height="30.3"/>
					<g>
						<defs>
							<rect id="SVGID_13_" x="175.6" y="259.6" width="112.5" height="69.2"/>
						</defs>
						<clipPath id="SVGID_14_">
							<use xlink:href="#SVGID_13_"  overflow="visible"/>
						</clipPath>
						<g clip-path="url(#SVGID_14_)">
							<g>
								<path fill="#5593D7" d="M243.1,329.2c0-5.8-3.9-10.5-8.7-10.5c-4.8,0-8.7,4.7-8.7,10.5l0,0c0,2.9,3.9,5.3,8.7,5.3
									S243.1,332.1,243.1,329.2L243.1,329.2z"/>
								<g>
									<path fill="#5593D7" d="M225.7,329.1c0-5.8,3.9-10.4,8.7-10.4s8.7,4.7,8.7,10.4H225.7z"/>
								</g>
								<g>
									<path fill="#F7C1A1" d="M234.4,325.6c2.7,0,5.1-1.5,6.2-3.8c-1.6-1.9-3.8-3.1-6.2-3.1c-2.4,0-4.6,1.2-6.2,3.1
										C229.3,324.1,231.7,325.6,234.4,325.6z"/>
									<rect x="232.7" y="313.1" fill="#F7C1A1" width="3.5" height="6.7"/>
								</g>
								<g>
									<path fill="#F69626" d="M238.9,293.2L238.9,293.2c1.2-1.3,2.9-2.2,4.8-2.2c3.5,0,6.4,2.8,6.4,6.4c0,0.7-0.1,1.4-0.3,2
										c-0.7-1.6-2-2.8-3.6-3.4c0,0,3.5,4.8,1.1,11.1c-2.4,6.3,1.3,8.7,1.3,8.7s-5.6,4.7-10.9-0.4h-3.2v-21.2L238.9,293.2z"/>
									<path fill="#F69626" d="M229.8,293.2L229.8,293.2c-1.2-1.3-2.9-2.2-4.8-2.2c-3.5,0-6.4,2.8-6.4,6.4c0,0.7,0.1,1.4,0.3,2
										c0.7-1.6,2-2.8,3.6-3.4c0,0-3.5,4.8-1.1,11.1c2.4,6.3-1.3,8.7-1.3,8.7s5.6,4.7,10.9-0.4h3.2v-21.2L229.8,293.2z"/>
								</g>
								<path fill="#F7C1A1" d="M234.4,294.3c-4.8,0-8.7,4.1-8.7,9.1v4.5c0,5,3.9,9.1,8.7,9.1s8.7-4.1,8.7-9.1v-4.5
									C243.1,298.3,239.2,294.3,234.4,294.3z"/>
								<g>
									<path fill="#ED5E51" d="M229.9,293.2L229.9,293.2L229.9,293.2c-0.3-0.4-0.7-0.7-1.1-1c-0.7,0.2-1.7,0.8-2.6,1.7
										c-1.4,1.4-2.1,3-1.6,3.5c0.5,0.5,2.1-0.2,3.5-1.6C229.1,294.9,229.7,293.9,229.9,293.2z"/>
									<path fill="#ED5E51" d="M238.9,293.2L238.9,293.2L238.9,293.2c0.3-0.4,0.7-0.7,1.1-1c0.7,0.2,1.7,0.8,2.6,1.7
										c1.4,1.4,2.1,3,1.6,3.5c-0.5,0.5-2.1-0.2-3.5-1.6C239.7,294.9,239.1,293.9,238.9,293.2z"/>
									<path fill="#F69626" d="M244.7,299.9c-1.4-4.5-5.5-7.7-10.3-7.7c-4.8,0-8.9,3.2-10.3,7.7c-0.3,1-0.3,2.3-0.1,3.4h1.7
										c0,0,7.2-0.8,8.7-4.6h0c1.5,3.8,8.7,4.6,8.7,4.6h1.7C245,302.2,245,300.9,244.7,299.9z"/>
								</g>
							</g>
							<g>
								<path fill="#513432" d="M207.9,314.5L207.9,314.5c-9.5,0-17.2-7.7-17.2-17.2v-11.1c0-9.5,7.7-17.2,17.2-17.2h0
									c9.5,0,17.2,7.7,17.2,17.2v11.1C225,306.8,217.3,314.5,207.9,314.5z"/>
								<g>
									<path fill="#5593D7" d="M221.1,326.3c0-9-6-16.2-13.5-16.2c-7.5,0-13.5,7.3-13.5,16.2l0,0c0,4.5,6,8.1,13.5,8.1
										S221.1,330.8,221.1,326.3L221.1,326.3z"/>
									<path fill="#F7944B" d="M212.9,311.4c-1.6-0.8-3.4-1.3-5.2-1.3c-1.9,0-3.6,0.5-5.2,1.3c-0.8,2.2,0,9.5,5.2,9.5l0,0
										C212.9,320.9,213.6,313.6,212.9,311.4z"/>
								</g>
								<g>
									<path fill="#F7C1A1" d="M212.9,311.4c-1.6-0.8-3.4-1.3-5.2-1.3c-1.9,0-3.6,0.5-5.2,1.3c0.6,2.4,2.7,4.1,5.2,4.1
										C210.2,315.5,212.3,313.7,212.9,311.4z"/>
									<rect x="204.9" y="301.6" fill="#F7C1A1" width="5.4" height="10.5"/>
								</g>
								<path fill="#F7C1A1" d="M207.6,272.3c-7.5,0-13.5,6.3-13.5,14.1v7c0,7.8,6,14.1,13.5,14.1s13.5-6.3,13.5-14.1v-7
									C221.1,278.6,215.1,272.3,207.6,272.3z"/>
								<path fill="#513432" d="M207.6,269c-9.2,0-16.8,7.8-16.8,17.3v7c0,2.7,0.9,5.1,1.6,7.5c0.3,1,0.6,2.3,0.4,3.7h3.9
									c-1.1-3-0.7-12.9,5.6-15.8c6.2-2.9,10.5-9.9,10.5-9.9c3.9,1.8,8.3,7.4,8.3,7.4h3.2C224.4,276.8,216.9,269,207.6,269z"/>
							</g>
						</g>
					</g>
				</g>
				<path fill="#C9C9CC" d="M342.6,384.4H121c-2.8,0-5.2-2.3-5.2-5.2v-15.5h232v15.5C347.8,382.1,345.5,384.4,342.6,384.4z"/>
				<polygon fill="#C9C9CC" points="252.9,408.1 210.7,408.1 212.7,384.4 250.9,384.4 				"/>
				<rect x="196.2" y="408.1" fill="#C9C9CC" width="71.1" height="6.2"/>
				<circle cx="231.8" cy="374.1" r="5.2"/>
				<polygon fill="#B2B2B2" points="251.9,397.8 250.9,384.4 212.7,384.4 211.7,393.7 				"/>
			</g>
		</g>
	</g>
</g>
</svg>
