<?xml version="1.0" encoding="utf-8"?>
<!-- Generator: Adobe Illustrator 19.1.0, SVG Export Plug-In . SVG Version: 6.00 Build 0)  -->
<svg version="1.1" id="Layer_1" xmlns="http://www.w3.org/2000/svg" xmlns:xlink="http://www.w3.org/1999/xlink" x="0px" y="0px"
	 viewBox="0 0 490 440" enable-background="new 0 0 490 440" xml:space="preserve">
<g>
	<g>
		<polygon opacity="0.15" points="169.5,117.2 7.3,117.2 7.3,32.5 30.7,9 169.5,9 		"/>
		<polygon fill="#EDEDED" points="165.9,113.6 3.7,113.6 3.7,20.8 19,5.4 165.9,5.4 		"/>
		<rect x="14.5" y="16.2" fill="#8FB8E2" width="140.6" height="86.5"/>
		<rect x="14.5" y="64.9" fill="#96B548" width="140.6" height="37.9"/>
		<g>
			<defs>
				<rect id="SVGID_1_" x="14.5" y="16.2" width="140.6" height="86.5"/>
			</defs>
			<clipPath id="SVGID_2_">
				<use xlink:href="#SVGID_1_"  overflow="visible"/>
			</clipPath>
			<g clip-path="url(#SVGID_2_)">
				<g>
					<path fill="#5593D7" d="M98.9,103.2C98.9,95.9,94.1,90,88,90c-6,0-10.9,5.9-10.9,13.2l0,0c0,3.6,4.9,6.6,10.9,6.6
						S98.9,106.8,98.9,103.2L98.9,103.2z"/>
					<g>
						<path fill="#5593D7" d="M77.2,103.1C77.2,95.9,82,90,88,90c6,0,10.9,5.8,10.9,13.1H77.2z"/>
					</g>
					<g>
						<path fill="#F7C1A1" d="M88,98.7c3.4,0,6.3-1.9,7.8-4.8c-2-2.4-4.7-3.9-7.8-3.9c-3,0-5.8,1.5-7.8,3.9
							C81.7,96.9,84.7,98.7,88,98.7z"/>
						<rect x="85.9" y="83.2" fill="#F7C1A1" width="4.4" height="8.4"/>
					</g>
					<g>
						<path fill="#F69626" d="M93.7,58.3L93.7,58.3c1.5-1.7,3.6-2.7,6-2.7c4.4,0,7.9,3.6,7.9,7.9c0,0.9-0.2,1.7-0.4,2.5
							c-0.9-2-2.5-3.5-4.5-4.2c0,0.1,4.3,6,1.4,13.8c-3,7.8,1.6,10.9,1.6,10.9s-7,5.8-13.7-0.5h-4V59.6L93.7,58.3z"/>
						<path fill="#F69626" d="M82.4,58.3L82.4,58.3c-1.5-1.7-3.6-2.7-6-2.7c-4.4,0-7.9,3.6-7.9,7.9c0,0.9,0.2,1.7,0.4,2.5
							c0.9-2,2.5-3.5,4.5-4.2c0,0.1-4.3,6-1.4,13.8c3,7.8-1.6,10.9-1.6,10.9s7,5.8,13.7-0.5h4V59.6L82.4,58.3z"/>
					</g>
					<path fill="#F7C1A1" d="M88,59.6c-6,0-10.9,5.1-10.9,11.3v5.7c0,6.3,4.9,11.3,10.9,11.3c6,0,10.9-5.1,10.9-11.3v-5.7
						C98.9,64.6,94.1,59.6,88,59.6z"/>
					<g>
						<path fill="#ED5E51" d="M82.4,58.3L82.4,58.3L82.4,58.3C82,57.8,81.5,57.4,81,57c-0.9,0.2-2.1,1-3.2,2.1
							c-1.8,1.8-2.7,3.7-2,4.4c0.7,0.7,2.6-0.2,4.4-2C81.4,60.4,82.2,59.2,82.4,58.3z"/>
						<path fill="#ED5E51" d="M93.7,58.3L93.7,58.3L93.7,58.3c0.4-0.5,0.9-0.9,1.4-1.2c0.9,0.2,2.1,1,3.2,2.1c1.8,1.8,2.7,3.7,2,4.4
							c-0.7,0.7-2.6-0.2-4.4-2C94.7,60.4,93.9,59.2,93.7,58.3z"/>
						<path fill="#F69626" d="M100.9,66.6C99.1,61,94,57,88,57C82,57,77,61,75.2,66.6c-0.4,1.3-0.4,2.9-0.1,4.3h2.1
							c0,0,9-1,10.9-5.8h0c1.9,4.8,10.9,5.8,10.9,5.8h2.1C101.3,69.5,101.3,67.9,100.9,66.6z"/>
					</g>
				</g>
				<g>
					<path fill="#513432" d="M54.9,84.9L54.9,84.9c-11.9,0-21.5-9.6-21.5-21.5V49.5C33.4,37.6,43,28,54.9,28h0
						c11.9,0,21.5,9.6,21.5,21.5v13.9C76.3,75.3,66.7,84.9,54.9,84.9z"/>
					<g>
						<path fill="#5593D7" d="M71.5,99.6c0-11.2-7.6-20.3-16.9-20.3c-9.3,0-16.9,9.1-16.9,20.3l0,0c0,5.6,7.6,10.1,16.9,10.1
							S71.5,105.2,71.5,99.6L71.5,99.6z"/>
						<path fill="#F7944B" d="M61.1,81c-2-1-4.2-1.6-6.6-1.6S50,79.9,48,81c-1,2.8,0,11.9,6.6,11.9l0,0C61.1,92.9,62.1,83.8,61.1,81
							z"/>
					</g>
					<g>
						<path fill="#F7C1A1" d="M61.1,81c-2-1-4.2-1.6-6.6-1.6c-2.3,0-4.5,0.6-6.6,1.6c0.7,3,3.4,5.2,6.6,5.2
							C57.7,86.1,60.4,83.9,61.1,81z"/>
						<rect x="51.2" y="68.7" fill="#F7C1A1" width="6.8" height="13.1"/>
					</g>
					<path fill="#F7C1A1" d="M54.6,32.1c-9.3,0-16.9,7.9-16.9,17.6v8.8c0,9.7,7.6,17.6,16.9,17.6c9.3,0,16.9-7.9,16.9-17.6v-8.8
						C71.5,40,63.9,32.1,54.6,32.1z"/>
					<path fill="#513432" d="M54.6,28C43,28,33.6,37.7,33.6,49.7v8.8c0,3.3,1.1,6.4,2.1,9.3c0.4,1.3,0.7,2.9,0.4,4.7h4.9
						c-1.4-3.7-0.8-16.1,7-19.8c7.8-3.6,13.1-12.3,13.1-12.3c4.9,2.2,10.3,9.3,10.3,9.3h4.1C75.5,37.7,66.1,28,54.6,28z"/>
				</g>
			</g>
		</g>
		<g>
			<g>
				<polygon opacity="3.000000e-002" points="19,5.4 19,20.8 3.7,20.8 3.7,21.7 19.9,21.7 19.9,5.4 				"/>
			</g>
			<g>
				<polygon opacity="3.000000e-002" points="19,5.4 19,20.8 3.7,20.8 3.7,22.6 20.8,22.6 20.8,5.4 				"/>
			</g>
			<g>
				<polygon opacity="3.000000e-002" points="19,5.4 19,20.8 3.7,20.8 3.7,23.5 21.7,23.5 21.7,5.4 				"/>
			</g>
			<polygon opacity="3.000000e-002" points="19.7,5.4 19,5.4 19,20.8 3.7,20.8 3.7,21.4 3.7,24.4 22.6,24.4 22.6,5.4 			"/>
			<polygon opacity="3.000000e-002" points="19.1,5.4 19,5.4 19,20.8 3.8,20.8 3.7,20.8 3.7,25.3 23.5,25.3 23.5,5.4 			"/>
			<polygon fill="#EDEDED" points="19,5.4 3.7,20.8 19,20.8 			"/>
		</g>
	</g>
	<rect x="256.5" y="217.2" opacity="0.15" width="81.1" height="54.1"/>
	<rect x="148.3" y="217.2" opacity="0.15" width="81.1" height="54.1"/>
	<g>
		<defs>
			<rect id="SVGID_3_" x="144.7" y="214" width="81.1" height="54.1"/>
		</defs>
		<clipPath id="SVGID_4_">
			<use xlink:href="#SVGID_3_"  overflow="visible"/>
		</clipPath>
		<g clip-path="url(#SVGID_4_)">
			<rect x="144.7" y="159.9" fill="#EDEDED" width="162.3" height="108.2"/>
			<rect x="155.5" y="170.7" fill="#8FB8E2" width="140.6" height="86.5"/>
			<rect x="155.5" y="219.4" fill="#96B548" width="140.6" height="37.9"/>
			<g>
				<defs>
					<rect id="SVGID_5_" x="155.5" y="170.7" width="140.6" height="86.5"/>
				</defs>
				<clipPath id="SVGID_6_">
					<use xlink:href="#SVGID_5_"  overflow="visible"/>
				</clipPath>
				<g clip-path="url(#SVGID_6_)">
					<g>
						<path fill="#5593D7" d="M239.9,257.7c0-7.3-4.9-13.2-10.9-13.2c-6,0-10.9,5.9-10.9,13.2l0,0c0,3.6,4.9,6.6,10.9,6.6
							S239.9,261.3,239.9,257.7L239.9,257.7z"/>
						<g>
							<path fill="#5593D7" d="M218.1,257.6c0-7.2,4.9-13.1,10.9-13.1s10.9,5.8,10.9,13.1H218.1z"/>
						</g>
						<g>
							<path fill="#F7C1A1" d="M229,253.3c3.4,0,6.3-1.9,7.8-4.8c-2-2.4-4.7-3.9-7.8-3.9c-3,0-5.8,1.5-7.8,3.9
								C222.7,251.4,225.7,253.3,229,253.3z"/>
							<rect x="226.8" y="237.7" fill="#F7C1A1" width="4.4" height="8.4"/>
						</g>
						<g>
							<path fill="#F69626" d="M234.7,212.8L234.7,212.8c1.5-1.7,3.6-2.7,6-2.7c4.4,0,7.9,3.6,7.9,7.9c0,0.9-0.2,1.7-0.4,2.5
								c-0.9-2-2.5-3.5-4.5-4.2c0,0.1,4.3,6,1.4,13.8c-3,7.8,1.6,10.9,1.6,10.9s-7,5.8-13.7-0.5h-4v-26.5L234.7,212.8z"/>
							<path fill="#F69626" d="M223.3,212.8L223.3,212.8c-1.5-1.7-3.6-2.7-6-2.7c-4.4,0-7.9,3.6-7.9,7.9c0,0.9,0.2,1.7,0.4,2.5
								c0.9-2,2.5-3.5,4.5-4.2c0,0.1-4.3,6-1.4,13.8c3,7.8-1.6,10.9-1.6,10.9s7,5.8,13.7-0.5h4v-26.5L223.3,212.8z"/>
						</g>
						<path fill="#F7C1A1" d="M229,214.1c-6,0-10.9,5.1-10.9,11.3v5.7c0,6.3,4.9,11.3,10.9,11.3c6,0,10.9-5.1,10.9-11.3v-5.7
							C239.9,219.1,235,214.1,229,214.1z"/>
						<g>
							<path fill="#ED5E51" d="M223.4,212.8L223.4,212.8L223.4,212.8c-0.4-0.5-0.9-0.9-1.4-1.2c-0.9,0.2-2.1,1-3.2,2.1
								c-1.8,1.8-2.7,3.7-2,4.4c0.7,0.7,2.6-0.2,4.4-2C222.4,214.9,223.1,213.7,223.4,212.8z"/>
							<path fill="#ED5E51" d="M234.7,212.8L234.7,212.8L234.7,212.8c0.4-0.5,0.9-0.9,1.4-1.2c0.9,0.2,2.1,1,3.2,2.1
								c1.8,1.8,2.7,3.7,2,4.4c-0.7,0.7-2.6-0.2-4.4-2C235.7,214.9,234.9,213.7,234.7,212.8z"/>
							<path fill="#F69626" d="M241.9,221.1c-1.8-5.6-6.8-9.6-12.8-9.6c-6,0-11.1,4.1-12.8,9.6c-0.4,1.3-0.4,2.9-0.1,4.3h2.1
								c0,0,9-1,10.9-5.8h0c1.9,4.8,10.9,5.8,10.9,5.8h2.1C242.2,224,242.3,222.4,241.9,221.1z"/>
						</g>
					</g>
					<g>
						<path fill="#513432" d="M195.9,239.4L195.9,239.4c-11.9,0-21.5-9.6-21.5-21.5V204c0-11.9,9.6-21.5,21.5-21.5h0
							c11.9,0,21.5,9.6,21.5,21.5v13.9C217.3,229.8,207.7,239.4,195.9,239.4z"/>
						<g>
							<path fill="#5593D7" d="M212.4,254.1c0-11.2-7.6-20.3-16.9-20.3c-9.3,0-16.9,9.1-16.9,20.3l0,0c0,5.6,7.6,10.1,16.9,10.1
								S212.4,259.7,212.4,254.1L212.4,254.1z"/>
							<path fill="#F7944B" d="M202.1,235.5c-2-1-4.2-1.6-6.6-1.6s-4.5,0.6-6.6,1.6c-1,2.8,0,11.9,6.6,11.9l0,0
								C202.1,247.4,203.1,238.3,202.1,235.5z"/>
						</g>
						<g>
							<path fill="#F7C1A1" d="M202.1,235.5c-2-1-4.2-1.6-6.6-1.6c-2.3,0-4.5,0.6-6.6,1.6c0.7,3,3.4,5.2,6.6,5.2
								C198.7,240.6,201.4,238.4,202.1,235.5z"/>
							<rect x="192.2" y="223.2" fill="#F7C1A1" width="6.8" height="13.1"/>
						</g>
						<path fill="#F7C1A1" d="M195.5,186.6c-9.3,0-16.9,7.9-16.9,17.6v8.8c0,9.7,7.6,17.6,16.9,17.6c9.3,0,16.9-7.9,16.9-17.6v-8.8
							C212.4,194.5,204.9,186.6,195.5,186.6z"/>
						<path fill="#513432" d="M195.5,182.5c-11.5,0-20.9,9.7-20.9,21.6v8.8c0,3.3,1.1,6.4,2.1,9.3c0.4,1.3,0.7,2.9,0.4,4.7h4.9
							c-1.4-3.7-0.8-16.1,7-19.8c7.8-3.6,13.1-12.3,13.1-12.3c4.9,2.2,10.3,9.3,10.3,9.3h4.1C216.5,192.2,207.1,182.5,195.5,182.5z"
							/>
					</g>
				</g>
			</g>
		</g>
	</g>
	<rect x="256.5" y="136.5" opacity="0.15" width="81.1" height="54.1"/>
	<g>
		<defs>
			<rect id="SVGID_7_" x="252.8" y="132.9" width="81.1" height="54.1"/>
		</defs>
		<clipPath id="SVGID_8_">
			<use xlink:href="#SVGID_7_"  overflow="visible"/>
		</clipPath>
		<g clip-path="url(#SVGID_8_)">
			<rect x="171.7" y="132.9" fill="#EDEDED" width="162.3" height="108.2"/>
			<rect x="182.5" y="143.7" fill="#8FB8E2" width="140.6" height="86.5"/>
			<rect x="182.5" y="192.4" fill="#96B548" width="140.6" height="37.9"/>
			<g>
				<defs>
					<rect id="SVGID_9_" x="182.5" y="143.7" width="140.6" height="86.5"/>
				</defs>
				<clipPath id="SVGID_10_">
					<use xlink:href="#SVGID_9_"  overflow="visible"/>
				</clipPath>
				<g clip-path="url(#SVGID_10_)">
					<g>
						<path fill="#5593D7" d="M267,230.7c0-7.3-4.9-13.2-10.9-13.2c-6,0-10.9,5.9-10.9,13.2l0,0c0,3.6,4.9,6.6,10.9,6.6
							C262.1,237.2,267,234.3,267,230.7L267,230.7z"/>
						<g>
							<path fill="#5593D7" d="M245.2,230.6c0-7.2,4.9-13.1,10.9-13.1s10.9,5.8,10.9,13.1H245.2z"/>
						</g>
						<g>
							<path fill="#F7C1A1" d="M256.1,226.2c3.4,0,6.3-1.9,7.8-4.8c-2-2.4-4.7-3.9-7.8-3.9c-3,0-5.8,1.5-7.8,3.9
								C249.8,224.3,252.7,226.2,256.1,226.2z"/>
							<rect x="253.9" y="210.6" fill="#F7C1A1" width="4.4" height="8.4"/>
						</g>
						<g>
							<path fill="#F69626" d="M261.8,185.7L261.8,185.7c1.5-1.7,3.6-2.7,6-2.7c4.4,0,7.9,3.6,7.9,7.9c0,0.9-0.2,1.7-0.4,2.5
								c-0.9-2-2.5-3.5-4.5-4.2c0,0.1,4.3,6,1.4,13.8c-3,7.8,1.6,10.9,1.6,10.9s-7,5.8-13.7-0.5h-4V187L261.8,185.7z"/>
							<path fill="#F69626" d="M250.4,185.7L250.4,185.7c-1.5-1.7-3.6-2.7-6-2.7c-4.4,0-7.9,3.6-7.9,7.9c0,0.9,0.2,1.7,0.4,2.5
								c0.9-2,2.5-3.5,4.5-4.2c0,0.1-4.3,6-1.4,13.8c3,7.8-1.6,10.9-1.6,10.9s7,5.8,13.7-0.5h4V187L250.4,185.7z"/>
						</g>
						<path fill="#F7C1A1" d="M256.1,187c-6,0-10.9,5.1-10.9,11.3v5.7c0,6.3,4.9,11.3,10.9,11.3S267,210.3,267,204v-5.7
							C267,192.1,262.1,187,256.1,187z"/>
						<g>
							<path fill="#ED5E51" d="M250.4,185.7L250.4,185.7L250.4,185.7c-0.4-0.5-0.9-0.9-1.4-1.2c-0.9,0.2-2.1,1-3.2,2.1
								c-1.8,1.8-2.7,3.7-2,4.4c0.7,0.7,2.6-0.2,4.4-2C249.4,187.9,250.2,186.6,250.4,185.7z"/>
							<path fill="#ED5E51" d="M261.7,185.7L261.7,185.7L261.7,185.7c0.4-0.5,0.9-0.9,1.4-1.2c0.9,0.2,2.1,1,3.2,2.1
								c1.8,1.8,2.7,3.7,2,4.4c-0.7,0.7-2.6-0.2-4.4-2C262.7,187.9,262,186.6,261.7,185.7z"/>
							<path fill="#F69626" d="M268.9,194.1c-1.8-5.6-6.8-9.6-12.8-9.6c-6,0-11.1,4.1-12.8,9.6c-0.4,1.3-0.4,2.9-0.1,4.3h2.1
								c0,0,9-1,10.9-5.8h0c1.9,4.8,10.9,5.8,10.9,5.8h2.1C269.3,196.9,269.3,195.3,268.9,194.1z"/>
						</g>
					</g>
					<g>
						<path fill="#513432" d="M222.9,212.3L222.9,212.3c-11.9,0-21.5-9.6-21.5-21.5V177c0-11.9,9.6-21.5,21.5-21.5h0
							c11.9,0,21.5,9.6,21.5,21.5v13.9C244.4,202.7,234.8,212.3,222.9,212.3z"/>
						<g>
							<path fill="#5593D7" d="M239.5,227.1c0-11.2-7.6-20.3-16.9-20.3c-9.3,0-16.9,9.1-16.9,20.3l0,0c0,5.6,7.6,10.1,16.9,10.1
								C231.9,237.2,239.5,232.7,239.5,227.1L239.5,227.1z"/>
							<path fill="#F7944B" d="M229.2,208.4c-2-1-4.2-1.6-6.6-1.6s-4.5,0.6-6.6,1.6c-1,2.8,0,11.9,6.6,11.9l0,0
								C229.2,220.3,230.1,211.2,229.2,208.4z"/>
						</g>
						<g>
							<path fill="#F7C1A1" d="M229.2,208.4c-2-1-4.2-1.6-6.6-1.6c-2.3,0-4.5,0.6-6.6,1.6c0.7,3,3.4,5.2,6.6,5.2
								C225.8,213.6,228.4,211.4,229.2,208.4z"/>
							<rect x="219.2" y="196.2" fill="#F7C1A1" width="6.8" height="13.1"/>
						</g>
						<path fill="#F7C1A1" d="M222.6,159.6c-9.3,0-16.9,7.9-16.9,17.6v8.8c0,9.7,7.6,17.6,16.9,17.6c9.3,0,16.9-7.9,16.9-17.6v-8.8
							C239.5,167.4,231.9,159.6,222.6,159.6z"/>
						<path fill="#513432" d="M222.6,155.5c-11.5,0-20.9,9.7-20.9,21.6v8.8c0,3.3,1.1,6.4,2.1,9.3c0.4,1.3,0.7,2.9,0.4,4.7h4.9
							c-1.4-3.7-0.8-16.1,7-19.8c7.8-3.6,13.1-12.3,13.1-12.3c4.9,2.2,10.3,9.3,10.3,9.3h4.1C243.5,165.2,234.1,155.5,222.6,155.5z"
							/>
					</g>
				</g>
			</g>
		</g>
	</g>
	<g>
		<defs>
			<rect id="SVGID_11_" x="252.8" y="214" width="81.1" height="54.1"/>
		</defs>
		<clipPath id="SVGID_12_">
			<use xlink:href="#SVGID_11_"  overflow="visible"/>
		</clipPath>
		<g clip-path="url(#SVGID_12_)">
			<rect x="171.7" y="159.9" fill="#EDEDED" width="162.3" height="108.2"/>
			<rect x="182.5" y="170.7" fill="#8FB8E2" width="140.6" height="86.5"/>
			<rect x="182.5" y="219.4" fill="#96B548" width="140.6" height="37.9"/>
			<g>
				<defs>
					<rect id="SVGID_13_" x="182.5" y="170.7" width="140.6" height="86.5"/>
				</defs>
				<clipPath id="SVGID_14_">
					<use xlink:href="#SVGID_13_"  overflow="visible"/>
				</clipPath>
				<g clip-path="url(#SVGID_14_)">
					<g>
						<path fill="#5593D7" d="M267,257.7c0-7.3-4.9-13.2-10.9-13.2c-6,0-10.9,5.9-10.9,13.2l0,0c0,3.6,4.9,6.6,10.9,6.6
							C262.1,264.3,267,261.3,267,257.7L267,257.7z"/>
						<g>
							<path fill="#5593D7" d="M245.2,257.6c0-7.2,4.9-13.1,10.9-13.1s10.9,5.8,10.9,13.1H245.2z"/>
						</g>
						<g>
							<path fill="#F7C1A1" d="M256.1,253.3c3.4,0,6.3-1.9,7.8-4.8c-2-2.4-4.7-3.9-7.8-3.9c-3,0-5.8,1.5-7.8,3.9
								C249.8,251.4,252.7,253.3,256.1,253.3z"/>
							<rect x="253.9" y="237.7" fill="#F7C1A1" width="4.4" height="8.4"/>
						</g>
						<g>
							<path fill="#F69626" d="M261.8,212.8L261.8,212.8c1.5-1.7,3.6-2.7,6-2.7c4.4,0,7.9,3.6,7.9,7.9c0,0.9-0.2,1.7-0.4,2.5
								c-0.9-2-2.5-3.5-4.5-4.2c0,0.1,4.3,6,1.4,13.8c-3,7.8,1.6,10.9,1.6,10.9s-7,5.8-13.7-0.5h-4v-26.5L261.8,212.8z"/>
							<path fill="#F69626" d="M250.4,212.8L250.4,212.8c-1.5-1.7-3.6-2.7-6-2.7c-4.4,0-7.9,3.6-7.9,7.9c0,0.9,0.2,1.7,0.4,2.5
								c0.9-2,2.5-3.5,4.5-4.2c0,0.1-4.3,6-1.4,13.8c3,7.8-1.6,10.9-1.6,10.9s7,5.8,13.7-0.5h4v-26.5L250.4,212.8z"/>
						</g>
						<path fill="#F7C1A1" d="M256.1,214.1c-6,0-10.9,5.1-10.9,11.3v5.7c0,6.3,4.9,11.3,10.9,11.3s10.9-5.1,10.9-11.3v-5.7
							C267,219.1,262.1,214.1,256.1,214.1z"/>
						<g>
							<path fill="#ED5E51" d="M250.4,212.8L250.4,212.8L250.4,212.8c-0.4-0.5-0.9-0.9-1.4-1.2c-0.9,0.2-2.1,1-3.2,2.1
								c-1.8,1.8-2.7,3.7-2,4.4c0.7,0.7,2.6-0.2,4.4-2C249.4,214.9,250.2,213.7,250.4,212.8z"/>
							<path fill="#ED5E51" d="M261.7,212.8L261.7,212.8L261.7,212.8c0.4-0.5,0.9-0.9,1.4-1.2c0.9,0.2,2.1,1,3.2,2.1
								c1.8,1.8,2.7,3.7,2,4.4c-0.7,0.7-2.6-0.2-4.4-2C262.7,214.9,262,213.7,261.7,212.8z"/>
							<path fill="#F69626" d="M268.9,221.1c-1.8-5.6-6.8-9.6-12.8-9.6c-6,0-11.1,4.1-12.8,9.6c-0.4,1.3-0.4,2.9-0.1,4.3h2.1
								c0,0,9-1,10.9-5.8h0c1.9,4.8,10.9,5.8,10.9,5.8h2.1C269.3,224,269.3,222.4,268.9,221.1z"/>
						</g>
					</g>
					<g>
						<path fill="#513432" d="M222.9,239.4L222.9,239.4c-11.9,0-21.5-9.6-21.5-21.5V204c0-11.9,9.6-21.5,21.5-21.5h0
							c11.9,0,21.5,9.6,21.5,21.5v13.9C244.4,229.8,234.8,239.4,222.9,239.4z"/>
						<g>
							<path fill="#5593D7" d="M239.5,254.1c0-11.2-7.6-20.3-16.9-20.3c-9.3,0-16.9,9.1-16.9,20.3l0,0c0,5.6,7.6,10.1,16.9,10.1
								C231.9,264.3,239.5,259.7,239.5,254.1L239.5,254.1z"/>
							<path fill="#F7944B" d="M229.2,235.5c-2-1-4.2-1.6-6.6-1.6s-4.5,0.6-6.6,1.6c-1,2.8,0,11.9,6.6,11.9l0,0
								C229.2,247.4,230.1,238.3,229.2,235.5z"/>
						</g>
						<g>
							<path fill="#F7C1A1" d="M229.2,235.5c-2-1-4.2-1.6-6.6-1.6c-2.3,0-4.5,0.6-6.6,1.6c0.7,3,3.4,5.2,6.6,5.2
								C225.8,240.6,228.4,238.4,229.2,235.5z"/>
							<rect x="219.2" y="223.2" fill="#F7C1A1" width="6.8" height="13.1"/>
						</g>
						<path fill="#F7C1A1" d="M222.6,186.6c-9.3,0-16.9,7.9-16.9,17.6v8.8c0,9.7,7.6,17.6,16.9,17.6c9.3,0,16.9-7.9,16.9-17.6v-8.8
							C239.5,194.5,231.9,186.6,222.6,186.6z"/>
						<path fill="#513432" d="M222.6,182.5c-11.5,0-20.9,9.7-20.9,21.6v8.8c0,3.3,1.1,6.4,2.1,9.3c0.4,1.3,0.7,2.9,0.4,4.7h4.9
							c-1.4-3.7-0.8-16.1,7-19.8c7.8-3.6,13.1-12.3,13.1-12.3c4.9,2.2,10.3,9.3,10.3,9.3h4.1C243.5,192.2,234.1,182.5,222.6,182.5z"
							/>
					</g>
				</g>
			</g>
		</g>
	</g>
	<rect x="148.3" y="136.5" opacity="0.15" width="81.1" height="54.1"/>
	<g>
		<defs>
			<rect id="SVGID_15_" x="144.7" y="132.9" width="81.1" height="54.1"/>
		</defs>
		<clipPath id="SVGID_16_">
			<use xlink:href="#SVGID_15_"  overflow="visible"/>
		</clipPath>
		<g clip-path="url(#SVGID_16_)">
			<rect x="144.7" y="132.9" fill="#EDEDED" width="162.3" height="108.2"/>
			<rect x="155.5" y="143.7" fill="#8FB8E2" width="140.6" height="86.5"/>
			<rect x="155.5" y="192.4" fill="#96B548" width="140.6" height="37.9"/>
			<g>
				<defs>
					<rect id="SVGID_17_" x="155.5" y="143.7" width="140.6" height="86.5"/>
				</defs>
				<clipPath id="SVGID_18_">
					<use xlink:href="#SVGID_17_"  overflow="visible"/>
				</clipPath>
				<g clip-path="url(#SVGID_18_)">
					<g>
						<path fill="#5593D7" d="M239.9,230.7c0-7.3-4.9-13.2-10.9-13.2c-6,0-10.9,5.9-10.9,13.2l0,0c0,3.6,4.9,6.6,10.9,6.6
							S239.9,234.3,239.9,230.7L239.9,230.7z"/>
						<g>
							<path fill="#5593D7" d="M218.1,230.6c0-7.2,4.9-13.1,10.9-13.1s10.9,5.8,10.9,13.1H218.1z"/>
						</g>
						<g>
							<path fill="#F7C1A1" d="M229,226.2c3.4,0,6.3-1.9,7.8-4.8c-2-2.4-4.7-3.9-7.8-3.9c-3,0-5.8,1.5-7.8,3.9
								C222.7,224.3,225.7,226.2,229,226.2z"/>
							<rect x="226.8" y="210.6" fill="#F7C1A1" width="4.4" height="8.4"/>
						</g>
						<g>
							<path fill="#F69626" d="M234.7,185.7L234.7,185.7c1.5-1.7,3.6-2.7,6-2.7c4.4,0,7.9,3.6,7.9,7.9c0,0.9-0.2,1.7-0.4,2.5
								c-0.9-2-2.5-3.5-4.5-4.2c0,0.1,4.3,6,1.4,13.8c-3,7.8,1.6,10.9,1.6,10.9s-7,5.8-13.7-0.5h-4V187L234.7,185.7z"/>
							<path fill="#F69626" d="M223.3,185.7L223.3,185.7c-1.5-1.7-3.6-2.7-6-2.7c-4.4,0-7.9,3.6-7.9,7.9c0,0.9,0.2,1.7,0.4,2.5
								c0.9-2,2.5-3.5,4.5-4.2c0,0.1-4.3,6-1.4,13.8c3,7.8-1.6,10.9-1.6,10.9s7,5.8,13.7-0.5h4V187L223.3,185.7z"/>
						</g>
						<path fill="#F7C1A1" d="M229,187c-6,0-10.9,5.1-10.9,11.3v5.7c0,6.3,4.9,11.3,10.9,11.3c6,0,10.9-5.1,10.9-11.3v-5.7
							C239.9,192.1,235,187,229,187z"/>
						<g>
							<path fill="#ED5E51" d="M223.4,185.7L223.4,185.7L223.4,185.7c-0.4-0.5-0.9-0.9-1.4-1.2c-0.9,0.2-2.1,1-3.2,2.1
								c-1.8,1.8-2.7,3.7-2,4.4c0.7,0.7,2.6-0.2,4.4-2C222.4,187.9,223.1,186.6,223.4,185.7z"/>
							<path fill="#ED5E51" d="M234.7,185.7L234.7,185.7L234.7,185.7c0.4-0.5,0.9-0.9,1.4-1.2c0.9,0.2,2.1,1,3.2,2.1
								c1.8,1.8,2.7,3.7,2,4.4c-0.7,0.7-2.6-0.2-4.4-2C235.7,187.9,234.9,186.6,234.7,185.7z"/>
							<path fill="#F69626" d="M241.9,194.1c-1.8-5.6-6.8-9.6-12.8-9.6c-6,0-11.1,4.1-12.8,9.6c-0.4,1.3-0.4,2.9-0.1,4.3h2.1
								c0,0,9-1,10.9-5.8h0c1.9,4.8,10.9,5.8,10.9,5.8h2.1C242.2,196.9,242.3,195.3,241.9,194.1z"/>
						</g>
					</g>
					<g>
						<path fill="#513432" d="M195.9,212.3L195.9,212.3c-11.9,0-21.5-9.6-21.5-21.5V177c0-11.9,9.6-21.5,21.5-21.5h0
							c11.9,0,21.5,9.6,21.5,21.5v13.9C217.3,202.7,207.7,212.3,195.9,212.3z"/>
						<g>
							<path fill="#5593D7" d="M212.4,227.1c0-11.2-7.6-20.3-16.9-20.3c-9.3,0-16.9,9.1-16.9,20.3l0,0c0,5.6,7.6,10.1,16.9,10.1
								S212.4,232.7,212.4,227.1L212.4,227.1z"/>
							<path fill="#F7944B" d="M202.1,208.4c-2-1-4.2-1.6-6.6-1.6s-4.5,0.6-6.6,1.6c-1,2.8,0,11.9,6.6,11.9l0,0
								C202.1,220.3,203.1,211.2,202.1,208.4z"/>
						</g>
						<g>
							<path fill="#F7C1A1" d="M202.1,208.4c-2-1-4.2-1.6-6.6-1.6c-2.3,0-4.5,0.6-6.6,1.6c0.7,3,3.4,5.2,6.6,5.2
								C198.7,213.6,201.4,211.4,202.1,208.4z"/>
							<rect x="192.2" y="196.2" fill="#F7C1A1" width="6.8" height="13.1"/>
						</g>
						<path fill="#F7C1A1" d="M195.5,159.6c-9.3,0-16.9,7.9-16.9,17.6v8.8c0,9.7,7.6,17.6,16.9,17.6c9.3,0,16.9-7.9,16.9-17.6v-8.8
							C212.4,167.4,204.9,159.6,195.5,159.6z"/>
						<path fill="#513432" d="M195.5,155.5c-11.5,0-20.9,9.7-20.9,21.6v8.8c0,3.3,1.1,6.4,2.1,9.3c0.4,1.3,0.7,2.9,0.4,4.7h4.9
							c-1.4-3.7-0.8-16.1,7-19.8c7.8-3.6,13.1-12.3,13.1-12.3c4.9,2.2,10.3,9.3,10.3,9.3h4.1C216.5,165.2,207.1,155.5,195.5,155.5z"
							/>
					</g>
				</g>
			</g>
		</g>
	</g>
	<g>
		<g opacity="0.15">
			<defs>
				<rect id="SVGID_19_" x="297" y="380.5" opacity="0.15" width="81.1" height="54.1"/>
			</defs>
			<clipPath id="SVGID_20_">
				<use xlink:href="#SVGID_19_"  overflow="visible"/>
			</clipPath>
			<rect x="361.9" y="394" clip-path="url(#SVGID_20_)" width="16.2" height="13.5"/>
			<rect x="361.9" y="380.5" opacity="0.25" clip-path="url(#SVGID_20_)" width="16.2" height="13.5"/>
			<rect x="361.9" y="407.5" opacity="0.75" clip-path="url(#SVGID_20_)" width="16.2" height="13.5"/>
			<rect x="361.9" y="421.1" opacity="0.5" clip-path="url(#SVGID_20_)" width="16.2" height="13.5"/>
			<rect x="345.7" y="380.5" opacity="0.75" clip-path="url(#SVGID_20_)" width="16.2" height="13.5"/>
			<rect x="345.7" y="394" opacity="0.25" clip-path="url(#SVGID_20_)" width="16.2" height="13.5"/>
			<rect x="345.7" y="407.5" clip-path="url(#SVGID_20_)" width="16.2" height="13.5"/>
			<rect x="345.7" y="421.1" opacity="0.25" clip-path="url(#SVGID_20_)" width="16.2" height="13.5"/>
			<rect x="329.5" y="421.1" clip-path="url(#SVGID_20_)" width="16.2" height="13.5"/>
			<rect x="329.5" y="380.5" opacity="0.75" clip-path="url(#SVGID_20_)" width="16.2" height="13.5"/>
			<rect x="329.5" y="394" opacity="0.25" clip-path="url(#SVGID_20_)" width="16.2" height="13.5"/>
			<rect x="329.5" y="407.5" clip-path="url(#SVGID_20_)" width="16.2" height="13.5"/>
			<rect x="313.2" y="380.5" opacity="0" clip-path="url(#SVGID_20_)" width="16.2" height="13.5"/>
			<rect x="313.2" y="394" opacity="0.75" clip-path="url(#SVGID_20_)" width="16.2" height="13.5"/>
			<rect x="313.2" y="380.5" clip-path="url(#SVGID_20_)" width="16.2" height="13.5"/>
			<rect x="313.2" y="407.5" opacity="0.75" clip-path="url(#SVGID_20_)" width="16.2" height="13.5"/>
			<rect x="313.2" y="421.1" clip-path="url(#SVGID_20_)" width="16.2" height="13.5"/>
			<rect x="297" y="380.5" opacity="0.5" clip-path="url(#SVGID_20_)" width="16.2" height="13.5"/>
			<rect x="297" y="394" opacity="0.25" clip-path="url(#SVGID_20_)" width="16.2" height="13.5"/>
			<rect x="297" y="421.1" opacity="0" clip-path="url(#SVGID_20_)" width="16.2" height="13.5"/>
			<rect x="297" y="407.5" clip-path="url(#SVGID_20_)" width="16.2" height="13.5"/>
		</g>
		<g opacity="0.15">
			<defs>
				<rect id="SVGID_21_" x="405.2" y="299.4" opacity="0.15" width="81.1" height="54.1"/>
			</defs>
			<clipPath id="SVGID_22_">
				<use xlink:href="#SVGID_21_"  overflow="visible"/>
			</clipPath>
			<rect x="405.2" y="326.4" opacity="0.5" clip-path="url(#SVGID_22_)" width="16.2" height="13.5"/>
			<rect x="405.2" y="312.9" clip-path="url(#SVGID_22_)" width="16.2" height="13.5"/>
			<rect x="405.2" y="299.4" opacity="0.5" clip-path="url(#SVGID_22_)" width="16.2" height="13.5"/>
			<rect x="421.4" y="339.9" clip-path="url(#SVGID_22_)" width="16.2" height="13.5"/>
			<rect x="421.4" y="326.4" opacity="0.25" clip-path="url(#SVGID_22_)" width="16.2" height="13.5"/>
			<rect x="421.4" y="312.9" opacity="0.75" clip-path="url(#SVGID_22_)" width="16.2" height="13.5"/>
			<rect x="421.4" y="299.4" clip-path="url(#SVGID_22_)" width="16.2" height="13.5"/>
			<rect x="437.6" y="339.9" opacity="0.75" clip-path="url(#SVGID_22_)" width="16.2" height="13.5"/>
			<rect x="437.6" y="326.4" clip-path="url(#SVGID_22_)" width="16.2" height="13.5"/>
			<rect x="437.6" y="312.9" clip-path="url(#SVGID_22_)" width="16.2" height="13.5"/>
			<rect x="453.9" y="339.9" clip-path="url(#SVGID_22_)" width="16.2" height="13.5"/>
			<rect x="453.9" y="326.4" opacity="0.75" clip-path="url(#SVGID_22_)" width="16.2" height="13.5"/>
			<rect x="453.9" y="312.9" opacity="0.25" clip-path="url(#SVGID_22_)" width="16.2" height="13.5"/>
			<rect x="453.9" y="299.4" clip-path="url(#SVGID_22_)" width="16.2" height="13.5"/>
			<rect x="470.1" y="339.9" opacity="0.25" clip-path="url(#SVGID_22_)" width="16.2" height="13.5"/>
			<rect x="470.1" y="326.4" clip-path="url(#SVGID_22_)" width="16.2" height="13.5"/>
			<rect x="470.1" y="299.4" opacity="0.75" clip-path="url(#SVGID_22_)" width="16.2" height="13.5"/>
		</g>
		<g opacity="0.15">
			<defs>
				<rect id="SVGID_23_" x="405.2" y="380.5" opacity="0.15" width="81.1" height="54.1"/>
			</defs>
			<clipPath id="SVGID_24_">
				<use xlink:href="#SVGID_23_"  overflow="visible"/>
			</clipPath>
			<rect x="470.1" y="394" clip-path="url(#SVGID_24_)" width="16.2" height="13.5"/>
			<rect x="470.1" y="380.5" opacity="0.25" clip-path="url(#SVGID_24_)" width="16.2" height="13.5"/>
			<rect x="470.1" y="407.5" opacity="0.75" clip-path="url(#SVGID_24_)" width="16.2" height="13.5"/>
			<rect x="470.1" y="421.1" opacity="0.5" clip-path="url(#SVGID_24_)" width="16.2" height="13.5"/>
			<rect x="453.9" y="380.5" clip-path="url(#SVGID_24_)" width="16.2" height="13.5"/>
			<rect x="453.9" y="394" opacity="0.25" clip-path="url(#SVGID_24_)" width="16.2" height="13.5"/>
			<rect x="453.9" y="407.5" clip-path="url(#SVGID_24_)" width="16.2" height="13.5"/>
			<rect x="453.9" y="421.1" opacity="0.25" clip-path="url(#SVGID_24_)" width="16.2" height="13.5"/>
			<rect x="437.6" y="421.1" opacity="0" clip-path="url(#SVGID_24_)" width="16.2" height="13.5"/>
			<rect x="437.6" y="380.5" opacity="0.75" clip-path="url(#SVGID_24_)" width="16.2" height="13.5"/>
			<rect x="437.6" y="394" clip-path="url(#SVGID_24_)" width="16.2" height="13.5"/>
			<rect x="437.6" y="407.5" opacity="0.25" clip-path="url(#SVGID_24_)" width="16.2" height="13.5"/>
			<rect x="421.4" y="380.5" opacity="0" clip-path="url(#SVGID_24_)" width="16.2" height="13.5"/>
			<rect x="421.4" y="394" opacity="0.75" clip-path="url(#SVGID_24_)" width="16.2" height="13.5"/>
			<rect x="421.4" y="380.5" clip-path="url(#SVGID_24_)" width="16.2" height="13.5"/>
			<rect x="421.4" y="407.5" opacity="0.75" clip-path="url(#SVGID_24_)" width="16.2" height="13.5"/>
			<rect x="421.4" y="421.1" clip-path="url(#SVGID_24_)" width="16.2" height="13.5"/>
			<rect x="405.2" y="380.5" opacity="0.5" clip-path="url(#SVGID_24_)" width="16.2" height="13.5"/>
			<rect x="405.2" y="394" clip-path="url(#SVGID_24_)" width="16.2" height="13.5"/>
			<rect x="405.2" y="421.1" opacity="0" clip-path="url(#SVGID_24_)" width="16.2" height="13.5"/>
			<rect x="405.2" y="407.5" opacity="0.25" clip-path="url(#SVGID_24_)" width="16.2" height="13.5"/>
		</g>
		<g opacity="0.15">
			<defs>
				<rect id="SVGID_25_" x="297" y="299.4" opacity="0.15" width="81.1" height="54.1"/>
			</defs>
			<clipPath id="SVGID_26_">
				<use xlink:href="#SVGID_25_"  overflow="visible"/>
			</clipPath>
			<rect x="297" y="326.4" clip-path="url(#SVGID_26_)" width="16.2" height="13.5"/>
			<rect x="297" y="339.9" opacity="0.25" clip-path="url(#SVGID_26_)" width="16.2" height="13.5"/>
			<rect x="297" y="312.9" opacity="0.75" clip-path="url(#SVGID_26_)" width="16.2" height="13.5"/>
			<rect x="297" y="299.4" opacity="0.5" clip-path="url(#SVGID_26_)" width="16.2" height="13.5"/>
			<rect x="313.2" y="339.9" clip-path="url(#SVGID_26_)" width="16.2" height="13.5"/>
			<rect x="313.2" y="326.4" opacity="0.25" clip-path="url(#SVGID_26_)" width="16.2" height="13.5"/>
			<rect x="313.2" y="312.9" clip-path="url(#SVGID_26_)" width="16.2" height="13.5"/>
			<rect x="313.2" y="299.4" opacity="0.25" clip-path="url(#SVGID_26_)" width="16.2" height="13.5"/>
			<rect x="329.5" y="299.4" opacity="0" clip-path="url(#SVGID_26_)" width="16.2" height="13.5"/>
			<rect x="329.5" y="339.9" opacity="0.75" clip-path="url(#SVGID_26_)" width="16.2" height="13.5"/>
			<rect x="329.5" y="326.4" clip-path="url(#SVGID_26_)" width="16.2" height="13.5"/>
			<rect x="329.5" y="312.9" opacity="0.25" clip-path="url(#SVGID_26_)" width="16.2" height="13.5"/>
			<rect x="345.7" y="339.9" opacity="0" clip-path="url(#SVGID_26_)" width="16.2" height="13.5"/>
			<rect x="345.7" y="326.4" opacity="0.75" clip-path="url(#SVGID_26_)" width="16.2" height="13.5"/>
			<rect x="345.7" y="339.9" clip-path="url(#SVGID_26_)" width="16.2" height="13.5"/>
			<rect x="345.7" y="312.9" opacity="0.75" clip-path="url(#SVGID_26_)" width="16.2" height="13.5"/>
			<rect x="345.7" y="299.4" clip-path="url(#SVGID_26_)" width="16.2" height="13.5"/>
			<rect x="361.9" y="339.9" opacity="0.5" clip-path="url(#SVGID_26_)" width="16.2" height="13.5"/>
			<rect x="361.9" y="326.4" clip-path="url(#SVGID_26_)" width="16.2" height="13.5"/>
			<rect x="361.9" y="299.4" opacity="0" clip-path="url(#SVGID_26_)" width="16.2" height="13.5"/>
			<rect x="361.9" y="312.9" opacity="0.25" clip-path="url(#SVGID_26_)" width="16.2" height="13.5"/>
		</g>
		<g>
			<defs>
				<rect id="SVGID_27_" x="293.4" y="376.9" width="81.1" height="54.1"/>
			</defs>
			<clipPath id="SVGID_28_">
				<use xlink:href="#SVGID_27_"  overflow="visible"/>
			</clipPath>
			<rect x="358.3" y="390.4" clip-path="url(#SVGID_28_)" fill="#5592D7" width="16.2" height="13.5"/>
			<rect x="358.3" y="376.9" opacity="0.25" clip-path="url(#SVGID_28_)" fill="#5592D7" width="16.2" height="13.5"/>
			<rect x="358.3" y="403.9" opacity="0.75" clip-path="url(#SVGID_28_)" fill="#5592D7" width="16.2" height="13.5"/>
			<rect x="358.3" y="417.4" opacity="0.5" clip-path="url(#SVGID_28_)" fill="#5592D7" width="16.2" height="13.5"/>
			<rect x="342.1" y="376.9" opacity="0.75" clip-path="url(#SVGID_28_)" fill="#5592D7" width="16.2" height="13.5"/>
			<rect x="342.1" y="390.4" opacity="0.25" clip-path="url(#SVGID_28_)" fill="#5592D7" width="16.2" height="13.5"/>
			<rect x="342.1" y="403.9" clip-path="url(#SVGID_28_)" fill="#5592D7" width="16.2" height="13.5"/>
			<rect x="342.1" y="417.4" opacity="0.25" clip-path="url(#SVGID_28_)" fill="#5592D7" width="16.2" height="13.5"/>
			<rect x="325.9" y="417.4" clip-path="url(#SVGID_28_)" fill="#5592D7" width="16.2" height="13.5"/>
			<rect x="325.9" y="376.9" opacity="0.75" clip-path="url(#SVGID_28_)" fill="#5592D7" width="16.2" height="13.5"/>
			<rect x="325.9" y="390.4" opacity="0.25" clip-path="url(#SVGID_28_)" fill="#5592D7" width="16.2" height="13.5"/>
			<rect x="325.9" y="403.9" clip-path="url(#SVGID_28_)" fill="#5592D7" width="16.2" height="13.5"/>
			<rect x="309.6" y="376.9" opacity="0" clip-path="url(#SVGID_28_)" fill="#5592D7" width="16.2" height="13.5"/>
			<rect x="309.6" y="390.4" opacity="0.75" clip-path="url(#SVGID_28_)" fill="#5592D7" width="16.2" height="13.5"/>
			<rect x="309.6" y="376.9" clip-path="url(#SVGID_28_)" fill="#5592D7" width="16.2" height="13.5"/>
			<rect x="309.6" y="403.9" opacity="0.75" clip-path="url(#SVGID_28_)" fill="#5592D7" width="16.2" height="13.5"/>
			<rect x="309.6" y="417.4" clip-path="url(#SVGID_28_)" fill="#5592D7" width="16.2" height="13.5"/>
			<rect x="293.4" y="376.9" opacity="0.5" clip-path="url(#SVGID_28_)" fill="#5592D7" width="16.2" height="13.5"/>
			<rect x="293.4" y="390.4" opacity="0.25" clip-path="url(#SVGID_28_)" fill="#5592D7" width="16.2" height="13.5"/>
			<rect x="293.4" y="417.4" opacity="0" clip-path="url(#SVGID_28_)" fill="#5592D7" width="16.2" height="13.5"/>
			<rect x="293.4" y="403.9" clip-path="url(#SVGID_28_)" fill="#5592D7" width="16.2" height="13.5"/>
		</g>
		<g>
			<defs>
				<rect id="SVGID_29_" x="401.6" y="295.7" width="81.1" height="54.1"/>
			</defs>
			<clipPath id="SVGID_30_">
				<use xlink:href="#SVGID_29_"  overflow="visible"/>
			</clipPath>
			<rect x="401.6" y="322.8" opacity="0.5" clip-path="url(#SVGID_30_)" fill="#5592D7" width="16.2" height="13.5"/>
			<rect x="401.6" y="309.3" clip-path="url(#SVGID_30_)" fill="#5592D7" width="16.2" height="13.5"/>
			<rect x="401.6" y="295.7" opacity="0.5" clip-path="url(#SVGID_30_)" fill="#5592D7" width="16.2" height="13.5"/>
			<rect x="417.8" y="336.3" clip-path="url(#SVGID_30_)" fill="#5592D7" width="16.2" height="13.5"/>
			<rect x="417.8" y="322.8" opacity="0.25" clip-path="url(#SVGID_30_)" fill="#5592D7" width="16.2" height="13.5"/>
			<rect x="417.8" y="309.3" opacity="0.75" clip-path="url(#SVGID_30_)" fill="#5592D7" width="16.2" height="13.5"/>
			<rect x="417.8" y="295.7" clip-path="url(#SVGID_30_)" fill="#5592D7" width="16.2" height="13.5"/>
			<rect x="434" y="336.3" opacity="0.75" clip-path="url(#SVGID_30_)" fill="#5592D7" width="16.2" height="13.5"/>
			<rect x="434" y="322.8" clip-path="url(#SVGID_30_)" fill="#5592D7" width="16.2" height="13.5"/>
			<rect x="434" y="309.3" clip-path="url(#SVGID_30_)" fill="#5592D7" width="16.2" height="13.5"/>
			<rect x="450.3" y="336.3" clip-path="url(#SVGID_30_)" fill="#5592D7" width="16.2" height="13.5"/>
			<rect x="450.3" y="322.8" opacity="0.75" clip-path="url(#SVGID_30_)" fill="#5592D7" width="16.2" height="13.5"/>
			<rect x="450.3" y="309.3" opacity="0.25" clip-path="url(#SVGID_30_)" fill="#5592D7" width="16.2" height="13.5"/>
			<rect x="450.3" y="295.7" clip-path="url(#SVGID_30_)" fill="#5592D7" width="16.2" height="13.5"/>
			<rect x="466.5" y="336.3" opacity="0.25" clip-path="url(#SVGID_30_)" fill="#5592D7" width="16.2" height="13.5"/>
			<rect x="466.5" y="322.8" clip-path="url(#SVGID_30_)" fill="#5592D7" width="16.2" height="13.5"/>
			<rect x="466.5" y="295.7" opacity="0.75" clip-path="url(#SVGID_30_)" fill="#5592D7" width="16.2" height="13.5"/>
		</g>
		<g>
			<defs>
				<rect id="SVGID_31_" x="401.6" y="376.9" width="81.1" height="54.1"/>
			</defs>
			<clipPath id="SVGID_32_">
				<use xlink:href="#SVGID_31_"  overflow="visible"/>
			</clipPath>
			<rect x="466.5" y="390.4" clip-path="url(#SVGID_32_)" fill="#5592D7" width="16.2" height="13.5"/>
			<rect x="466.5" y="376.9" opacity="0.25" clip-path="url(#SVGID_32_)" fill="#5592D7" width="16.2" height="13.5"/>
			<rect x="466.5" y="403.9" opacity="0.75" clip-path="url(#SVGID_32_)" fill="#5592D7" width="16.2" height="13.5"/>
			<rect x="466.5" y="417.4" opacity="0.5" clip-path="url(#SVGID_32_)" fill="#5592D7" width="16.2" height="13.5"/>
			<rect x="450.3" y="376.9" clip-path="url(#SVGID_32_)" fill="#5592D7" width="16.2" height="13.5"/>
			<rect x="450.3" y="390.4" opacity="0.25" clip-path="url(#SVGID_32_)" fill="#5592D7" width="16.2" height="13.5"/>
			<rect x="450.3" y="403.9" clip-path="url(#SVGID_32_)" fill="#5592D7" width="16.2" height="13.5"/>
			<rect x="450.3" y="417.4" opacity="0.25" clip-path="url(#SVGID_32_)" fill="#5592D7" width="16.2" height="13.5"/>
			<rect x="434" y="417.4" opacity="0" clip-path="url(#SVGID_32_)" fill="#5592D7" width="16.2" height="13.5"/>
			<rect x="434" y="376.9" opacity="0.75" clip-path="url(#SVGID_32_)" fill="#5592D7" width="16.2" height="13.5"/>
			<rect x="434" y="390.4" clip-path="url(#SVGID_32_)" fill="#5592D7" width="16.2" height="13.5"/>
			<rect x="434" y="403.9" opacity="0.25" clip-path="url(#SVGID_32_)" fill="#5592D7" width="16.2" height="13.5"/>
			<rect x="417.8" y="376.9" opacity="0" clip-path="url(#SVGID_32_)" fill="#5592D7" width="16.2" height="13.5"/>
			<rect x="417.8" y="390.4" opacity="0.75" clip-path="url(#SVGID_32_)" fill="#5592D7" width="16.2" height="13.5"/>
			<rect x="417.8" y="376.9" clip-path="url(#SVGID_32_)" fill="#5592D7" width="16.2" height="13.5"/>
			<rect x="417.8" y="403.9" opacity="0.75" clip-path="url(#SVGID_32_)" fill="#5592D7" width="16.2" height="13.5"/>
			<rect x="417.8" y="417.4" clip-path="url(#SVGID_32_)" fill="#5592D7" width="16.2" height="13.5"/>
			<rect x="401.6" y="376.9" opacity="0.5" clip-path="url(#SVGID_32_)" fill="#5592D7" width="16.2" height="13.5"/>
			<rect x="401.6" y="390.4" clip-path="url(#SVGID_32_)" fill="#5592D7" width="16.2" height="13.5"/>
			<rect x="401.6" y="417.4" opacity="0" clip-path="url(#SVGID_32_)" fill="#5592D7" width="16.2" height="13.5"/>
			<rect x="401.6" y="403.9" opacity="0.25" clip-path="url(#SVGID_32_)" fill="#5592D7" width="16.2" height="13.5"/>
		</g>
		<g>
			<defs>
				<rect id="SVGID_33_" x="293.4" y="295.7" width="81.1" height="54.1"/>
			</defs>
			<clipPath id="SVGID_34_">
				<use xlink:href="#SVGID_33_"  overflow="visible"/>
			</clipPath>
			<rect x="293.4" y="322.8" clip-path="url(#SVGID_34_)" fill="#5592D7" width="16.2" height="13.5"/>
			<rect x="293.4" y="336.3" opacity="0.25" clip-path="url(#SVGID_34_)" fill="#5592D7" width="16.2" height="13.5"/>
			<rect x="293.4" y="309.3" opacity="0.75" clip-path="url(#SVGID_34_)" fill="#5592D7" width="16.2" height="13.5"/>
			<rect x="293.4" y="295.7" opacity="0.5" clip-path="url(#SVGID_34_)" fill="#5592D7" width="16.2" height="13.5"/>
			<rect x="309.6" y="336.3" clip-path="url(#SVGID_34_)" fill="#5592D7" width="16.2" height="13.5"/>
			<rect x="309.6" y="322.8" opacity="0.25" clip-path="url(#SVGID_34_)" fill="#5592D7" width="16.2" height="13.5"/>
			<rect x="309.6" y="309.3" clip-path="url(#SVGID_34_)" fill="#5592D7" width="16.2" height="13.5"/>
			<rect x="309.6" y="295.7" opacity="0.25" clip-path="url(#SVGID_34_)" fill="#5592D7" width="16.2" height="13.5"/>
			<rect x="325.9" y="295.7" opacity="0" clip-path="url(#SVGID_34_)" fill="#5592D7" width="16.2" height="13.5"/>
			<rect x="325.9" y="336.3" opacity="0.75" clip-path="url(#SVGID_34_)" fill="#5592D7" width="16.2" height="13.5"/>
			<rect x="325.9" y="322.8" clip-path="url(#SVGID_34_)" fill="#5592D7" width="16.2" height="13.5"/>
			<rect x="325.9" y="309.3" opacity="0.25" clip-path="url(#SVGID_34_)" fill="#5592D7" width="16.2" height="13.5"/>
			<rect x="342.1" y="336.3" opacity="0" clip-path="url(#SVGID_34_)" fill="#5592D7" width="16.2" height="13.5"/>
			<rect x="342.1" y="322.8" opacity="0.75" clip-path="url(#SVGID_34_)" fill="#5592D7" width="16.2" height="13.5"/>
			<rect x="342.1" y="336.3" clip-path="url(#SVGID_34_)" fill="#5592D7" width="16.2" height="13.5"/>
			<rect x="342.1" y="309.3" opacity="0.75" clip-path="url(#SVGID_34_)" fill="#5592D7" width="16.2" height="13.5"/>
			<rect x="342.1" y="295.7" clip-path="url(#SVGID_34_)" fill="#5592D7" width="16.2" height="13.5"/>
			<rect x="358.3" y="336.3" opacity="0.5" clip-path="url(#SVGID_34_)" fill="#5592D7" width="16.2" height="13.5"/>
			<rect x="358.3" y="322.8" clip-path="url(#SVGID_34_)" fill="#5592D7" width="16.2" height="13.5"/>
			<rect x="358.3" y="295.7" opacity="0" clip-path="url(#SVGID_34_)" fill="#5592D7" width="16.2" height="13.5"/>
			<rect x="358.3" y="309.3" opacity="0.25" clip-path="url(#SVGID_34_)" fill="#5592D7" width="16.2" height="13.5"/>
		</g>
	</g>
	<g>
		<g>
			<line fill="none" stroke="#5592D7" stroke-width="4.5072" stroke-miterlimit="10" x1="199.9" y1="295.7" x2="264.7" y2="360.6"/>
			<g>
				<polygon fill="#5592D7" points="241.1,363.1 241.3,358.6 263.5,359.4 262.7,337.2 267.2,337 268.2,364.1 				"/>
			</g>
		</g>
	</g>
	<g>
		<g>
			<line fill="none" stroke="#5592D7" stroke-width="4.5072" stroke-miterlimit="10" x1="48.4" y1="144.3" x2="113.3" y2="209.2"/>
			<g>
				<polygon fill="#5592D7" points="89.7,211.6 89.9,207.1 112.1,208 111.3,185.7 115.8,185.6 116.7,212.6 				"/>
			</g>
		</g>
	</g>
</g>
</svg>
