<?xml version="1.0" encoding="utf-8"?>
<!-- Generator: Adobe Illustrator 19.1.0, SVG Export Plug-In . SVG Version: 6.00 Build 0)  -->
<svg version="1.1" id="Layer_1" xmlns="http://www.w3.org/2000/svg" xmlns:xlink="http://www.w3.org/1999/xlink" x="0px" y="0px"
	 viewBox="0 0 465 330" enable-background="new 0 0 465 330" xml:space="preserve">
<g>
	<g>
		<g>
			<rect x="10.6" y="8.2" opacity="0.15" width="76.3" height="51.2"/>
			<g>
				<defs>
					<rect id="SVGID_1_" x="6.9" y="4.5" width="76.3" height="51.2"/>
				</defs>
				<clipPath id="SVGID_2_">
					<use xlink:href="#SVGID_1_"  overflow="visible"/>
				</clipPath>
				<rect x="6.9" y="4.5" clip-path="url(#SVGID_2_)" fill="#5592D7" width="76.3" height="51.2"/>
			</g>
			<path fill="#FFFFFF" d="M48.8,41.8l-0.6-2.9H48c-1,1.3-2,2.1-3,2.6c-1,0.5-2.3,0.7-3.8,0.7c-2,0-3.6-0.5-4.8-1.6
				c-1.1-1-1.7-2.5-1.7-4.5c0-4.1,3.3-6.3,9.9-6.5l3.5-0.1v-1.3c0-1.6-0.3-2.8-1-3.5c-0.7-0.8-1.8-1.1-3.3-1.1
				c-1.7,0-3.6,0.5-5.8,1.6L37,22.8c1-0.5,2.1-1,3.3-1.3c1.2-0.3,2.4-0.5,3.6-0.5c2.4,0,4.2,0.5,5.4,1.6s1.8,2.8,1.8,5.2v13.9H48.8z
				 M41.8,39.7c1.9,0,3.4-0.5,4.5-1.6c1.1-1.1,1.6-2.5,1.6-4.4v-1.8l-3.1,0.1c-2.5,0.1-4.2,0.5-5.3,1.1c-1.1,0.7-1.6,1.7-1.6,3.2
				c0,1.1,0.3,2,1,2.6C39.6,39.4,40.6,39.7,41.8,39.7z"/>
		</g>
		<g>
			<rect x="193" y="8.2" opacity="0.15" width="76.3" height="51.2"/>
			<g>
				<defs>
					<rect id="SVGID_3_" x="189.2" y="4.5" width="76.3" height="51.2"/>
				</defs>
				<clipPath id="SVGID_4_">
					<use xlink:href="#SVGID_3_"  overflow="visible"/>
				</clipPath>
				<rect x="189.2" y="4.5" clip-path="url(#SVGID_4_)" fill="#F69626" width="76.3" height="51.2"/>
			</g>
			<path fill="#FFFFFF" d="M226.7,42.2c-3,0-5.2-0.9-6.9-2.7c-1.6-1.8-2.4-4.4-2.4-7.7c0-3.4,0.8-6.1,2.5-7.9c1.6-1.9,4-2.8,7-2.8
				c1,0,2,0.1,2.9,0.3c1,0.2,1.8,0.5,2.3,0.7l-0.9,2.6c-0.7-0.3-1.4-0.5-2.2-0.7c-0.8-0.2-1.5-0.3-2.1-0.3c-4.1,0-6.2,2.6-6.2,7.9
				c0,2.5,0.5,4.4,1.5,5.8c1,1.3,2.5,2,4.5,2c1.7,0,3.4-0.4,5.2-1.1v2.7C230.5,41.9,228.8,42.2,226.7,42.2z"/>
		</g>
		<g>
			<rect x="101.8" y="8.2" opacity="0.15" width="76.3" height="51.2"/>
			<g>
				<defs>
					<rect id="SVGID_5_" x="98.1" y="4.5" width="76.3" height="51.2"/>
				</defs>
				<clipPath id="SVGID_6_">
					<use xlink:href="#SVGID_5_"  overflow="visible"/>
				</clipPath>
				<rect x="98.1" y="4.5" clip-path="url(#SVGID_6_)" fill="#96B548" width="76.3" height="51.2"/>
			</g>
			<path fill="#FFFFFF" d="M136.9,21.1c2.7,0,4.8,0.9,6.2,2.7c1.5,1.8,2.2,4.4,2.2,7.8s-0.7,6-2.2,7.8c-1.5,1.9-3.6,2.8-6.2,2.8
				c-1.3,0-2.5-0.2-3.6-0.7c-1.1-0.5-2-1.2-2.8-2.3h-0.2l-0.7,2.6h-2.2v-29h3.1v7c0,1.6,0,3-0.1,4.2h0.1
				C131.9,22.1,134.1,21.1,136.9,21.1z M136.4,23.7c-2.1,0-3.6,0.6-4.6,1.8c-0.9,1.2-1.4,3.3-1.4,6.1s0.5,4.9,1.4,6.2
				c1,1.2,2.5,1.9,4.6,1.9c1.9,0,3.3-0.7,4.2-2.1c0.9-1.4,1.4-3.4,1.4-6c0-2.7-0.5-4.6-1.4-5.9C139.8,24.3,138.4,23.7,136.4,23.7z"
				/>
		</g>
		<g>
			<rect x="10.6" y="274.3" opacity="0.15" width="76.3" height="51.2"/>
			<g>
				<defs>
					<rect id="SVGID_7_" x="6.9" y="270.6" width="76.3" height="51.2"/>
				</defs>
				<clipPath id="SVGID_8_">
					<use xlink:href="#SVGID_7_"  overflow="visible"/>
				</clipPath>
				<rect x="6.9" y="270.6" clip-path="url(#SVGID_8_)" fill="#96B548" width="76.3" height="51.2"/>
			</g>
			<path fill="#FFFFFF" d="M45.7,285.3c2.7,0,4.8,0.9,6.2,2.7c1.5,1.8,2.2,4.4,2.2,7.8s-0.7,6-2.2,7.8c-1.5,1.9-3.6,2.8-6.2,2.8
				c-1.3,0-2.5-0.2-3.6-0.7c-1.1-0.5-2-1.2-2.8-2.3h-0.2l-0.7,2.6h-2.2v-29h3.1v7c0,1.6,0,3-0.1,4.2h0.1
				C40.7,286.4,42.9,285.3,45.7,285.3z M45.3,287.9c-2.1,0-3.6,0.6-4.6,1.8c-0.9,1.2-1.4,3.3-1.4,6.1s0.5,4.9,1.4,6.2
				c1,1.2,2.5,1.9,4.6,1.9c1.9,0,3.3-0.7,4.2-2.1c0.9-1.4,1.4-3.4,1.4-6c0-2.7-0.5-4.6-1.4-5.9C48.6,288.6,47.2,287.9,45.3,287.9z"
				/>
		</g>
		<g>
			<rect x="193" y="274.3" opacity="0.15" width="76.3" height="51.2"/>
			<g>
				<defs>
					<rect id="SVGID_9_" x="189.2" y="270.6" width="76.3" height="51.2"/>
				</defs>
				<clipPath id="SVGID_10_">
					<use xlink:href="#SVGID_9_"  overflow="visible"/>
				</clipPath>
				<rect x="189.2" y="270.6" clip-path="url(#SVGID_10_)" fill="#F69626" width="76.3" height="51.2"/>
			</g>
			<g>
				<path fill="#FFFFFF" d="M226.7,306.5c-3,0-5.2-0.9-6.9-2.7c-1.6-1.8-2.4-4.4-2.4-7.7c0-3.4,0.8-6.1,2.5-7.9c1.6-1.9,4-2.8,7-2.8
					c1,0,2,0.1,2.9,0.3c1,0.2,1.8,0.5,2.3,0.7l-0.9,2.6c-0.7-0.3-1.4-0.5-2.2-0.7c-0.8-0.2-1.5-0.3-2.1-0.3c-4.1,0-6.2,2.6-6.2,7.9
					c0,2.5,0.5,4.4,1.5,5.8c1,1.3,2.5,2,4.5,2c1.7,0,3.4-0.4,5.2-1.1v2.7C230.5,306.1,228.8,306.5,226.7,306.5z"/>
			</g>
		</g>
		<g>
			<rect x="101.8" y="274.3" opacity="0.15" width="76.3" height="51.2"/>
			<g>
				<defs>
					<rect id="SVGID_11_" x="98.1" y="270.6" width="76.3" height="51.2"/>
				</defs>
				<clipPath id="SVGID_12_">
					<use xlink:href="#SVGID_11_"  overflow="visible"/>
				</clipPath>
				<rect x="98.1" y="270.6" clip-path="url(#SVGID_12_)" fill="#5592D7" width="76.3" height="51.2"/>
			</g>
			<path fill="#FFFFFF" d="M139.9,306.1l-0.6-2.9h-0.1c-1,1.3-2,2.1-3,2.6c-1,0.5-2.3,0.7-3.8,0.7c-2,0-3.6-0.5-4.8-1.6
				c-1.1-1-1.7-2.5-1.7-4.5c0-4.1,3.3-6.3,9.9-6.5l3.5-0.1v-1.3c0-1.6-0.3-2.8-1-3.5c-0.7-0.8-1.8-1.1-3.3-1.1
				c-1.7,0-3.6,0.5-5.8,1.6l-0.9-2.4c1-0.5,2.1-1,3.3-1.3c1.2-0.3,2.4-0.5,3.6-0.5c2.4,0,4.2,0.5,5.4,1.6c1.2,1.1,1.8,2.8,1.8,5.2
				v13.9H139.9z M133,303.9c1.9,0,3.4-0.5,4.5-1.6c1.1-1.1,1.6-2.5,1.6-4.4V296l-3.1,0.1c-2.5,0.1-4.2,0.5-5.3,1.1
				c-1.1,0.7-1.6,1.7-1.6,3.2c0,1.1,0.3,2,1,2.6C130.8,303.6,131.7,303.9,133,303.9z"/>
		</g>
		<g>
			<rect x="10.6" y="207.3" opacity="0.15" width="76.3" height="51.2"/>
			<g>
				<defs>
					<rect id="SVGID_13_" x="6.9" y="203.6" width="76.3" height="51.2"/>
				</defs>
				<clipPath id="SVGID_14_">
					<use xlink:href="#SVGID_13_"  overflow="visible"/>
				</clipPath>
				<rect x="6.9" y="203.6" clip-path="url(#SVGID_14_)" fill="#5592D7" width="76.3" height="51.2"/>
			</g>
			<path fill="#FFFFFF" d="M48.8,240l-0.6-2.9H48c-1,1.3-2,2.1-3,2.6c-1,0.5-2.3,0.7-3.8,0.7c-2,0-3.6-0.5-4.8-1.6
				c-1.1-1-1.7-2.5-1.7-4.5c0-4.1,3.3-6.3,9.9-6.5l3.5-0.1v-1.3c0-1.6-0.3-2.8-1-3.5c-0.7-0.8-1.8-1.1-3.3-1.1
				c-1.7,0-3.6,0.5-5.8,1.6L37,221c1-0.5,2.1-1,3.3-1.3c1.2-0.3,2.4-0.5,3.6-0.5c2.4,0,4.2,0.5,5.4,1.6s1.8,2.8,1.8,5.2V240H48.8z
				 M41.8,237.8c1.9,0,3.4-0.5,4.5-1.6c1.1-1.1,1.6-2.5,1.6-4.4V230l-3.1,0.1c-2.5,0.1-4.2,0.5-5.3,1.1c-1.1,0.7-1.6,1.7-1.6,3.2
				c0,1.1,0.3,2,1,2.6C39.6,237.6,40.6,237.8,41.8,237.8z"/>
		</g>
		<g>
			<rect x="193" y="207.3" opacity="0.15" width="76.3" height="51.2"/>
			<g>
				<defs>
					<rect id="SVGID_15_" x="189.2" y="203.6" width="76.3" height="51.2"/>
				</defs>
				<clipPath id="SVGID_16_">
					<use xlink:href="#SVGID_15_"  overflow="visible"/>
				</clipPath>
				<rect x="189.2" y="203.6" clip-path="url(#SVGID_16_)" fill="#5592D7" width="76.3" height="51.2"/>
			</g>
			<path fill="#FFFFFF" d="M231.1,240l-0.6-2.9h-0.1c-1,1.3-2,2.1-3,2.6c-1,0.5-2.3,0.7-3.8,0.7c-2,0-3.6-0.5-4.8-1.6
				c-1.1-1-1.7-2.5-1.7-4.5c0-4.1,3.3-6.3,9.9-6.5l3.5-0.1v-1.3c0-1.6-0.3-2.8-1-3.5c-0.7-0.8-1.8-1.1-3.3-1.1
				c-1.7,0-3.6,0.5-5.8,1.6l-0.9-2.4c1-0.5,2.1-1,3.3-1.3c1.2-0.3,2.4-0.5,3.6-0.5c2.4,0,4.2,0.5,5.4,1.6c1.2,1.1,1.8,2.8,1.8,5.2
				V240H231.1z M224.1,237.8c1.9,0,3.4-0.5,4.5-1.6c1.1-1.1,1.6-2.5,1.6-4.4V230l-3.1,0.1c-2.5,0.1-4.2,0.5-5.3,1.1
				c-1.1,0.7-1.6,1.7-1.6,3.2c0,1.1,0.3,2,1,2.6C222,237.6,222.9,237.8,224.1,237.8z"/>
		</g>
		<g>
			<rect x="101.8" y="207.3" opacity="0.15" width="76.3" height="51.2"/>
			<g>
				<defs>
					<rect id="SVGID_17_" x="98.1" y="203.6" width="76.3" height="51.2"/>
				</defs>
				<clipPath id="SVGID_18_">
					<use xlink:href="#SVGID_17_"  overflow="visible"/>
				</clipPath>
				<rect x="98.1" y="203.6" clip-path="url(#SVGID_18_)" fill="#F69626" width="76.3" height="51.2"/>
			</g>
			<path fill="#FFFFFF" d="M135.5,240.4c-3,0-5.2-0.9-6.9-2.7c-1.6-1.8-2.4-4.4-2.4-7.7c0-3.4,0.8-6.1,2.5-7.9c1.6-1.9,4-2.8,7-2.8
				c1,0,2,0.1,2.9,0.3c1,0.2,1.8,0.5,2.3,0.7l-0.9,2.6c-0.7-0.3-1.4-0.5-2.2-0.7c-0.8-0.2-1.5-0.3-2.1-0.3c-4.1,0-6.2,2.6-6.2,7.9
				c0,2.5,0.5,4.4,1.5,5.8c1,1.3,2.5,2,4.5,2c1.7,0,3.4-0.4,5.2-1.1v2.7C139.3,240,137.6,240.4,135.5,240.4z"/>
		</g>
		<g>
			<rect x="10.6" y="141.3" opacity="0.15" width="76.3" height="51.2"/>
			<g>
				<defs>
					<rect id="SVGID_19_" x="6.9" y="137.6" width="76.3" height="51.2"/>
				</defs>
				<clipPath id="SVGID_20_">
					<use xlink:href="#SVGID_19_"  overflow="visible"/>
				</clipPath>
				<rect x="6.9" y="137.6" clip-path="url(#SVGID_20_)" fill="#5592D7" width="76.3" height="51.2"/>
			</g>
			<path fill="#FFFFFF" d="M48.8,174l-0.6-2.9H48c-1,1.3-2,2.1-3,2.6c-1,0.5-2.3,0.7-3.8,0.7c-2,0-3.6-0.5-4.8-1.6
				c-1.1-1-1.7-2.5-1.7-4.5c0-4.1,3.3-6.3,9.9-6.5l3.5-0.1v-1.3c0-1.6-0.3-2.8-1-3.5c-0.7-0.8-1.8-1.1-3.3-1.1
				c-1.7,0-3.6,0.5-5.8,1.6L37,155c1-0.5,2.1-1,3.3-1.3c1.2-0.3,2.4-0.5,3.6-0.5c2.4,0,4.2,0.5,5.4,1.6s1.8,2.8,1.8,5.2V174H48.8z
				 M41.8,171.8c1.9,0,3.4-0.5,4.5-1.6c1.1-1.1,1.6-2.5,1.6-4.4v-1.8l-3.1,0.1c-2.5,0.1-4.2,0.5-5.3,1.1c-1.1,0.7-1.6,1.7-1.6,3.2
				c0,1.1,0.3,2,1,2.6C39.6,171.5,40.6,171.8,41.8,171.8z"/>
		</g>
		<g>
			<rect x="193" y="141.3" opacity="0.15" width="76.3" height="51.2"/>
			<g>
				<defs>
					<rect id="SVGID_21_" x="189.2" y="137.6" width="76.3" height="51.2"/>
				</defs>
				<clipPath id="SVGID_22_">
					<use xlink:href="#SVGID_21_"  overflow="visible"/>
				</clipPath>
				<rect x="189.2" y="137.6" clip-path="url(#SVGID_22_)" fill="#F69626" width="76.3" height="51.2"/>
			</g>
			<g>
				<path fill="#FFFFFF" d="M226.7,174.3c-3,0-5.2-0.9-6.9-2.7c-1.6-1.8-2.4-4.4-2.4-7.7c0-3.4,0.8-6.1,2.5-7.9c1.6-1.9,4-2.8,7-2.8
					c1,0,2,0.1,2.9,0.3c1,0.2,1.8,0.5,2.3,0.7l-0.9,2.6c-0.7-0.3-1.4-0.5-2.2-0.7c-0.8-0.2-1.5-0.3-2.1-0.3c-4.1,0-6.2,2.6-6.2,7.9
					c0,2.5,0.5,4.4,1.5,5.8c1,1.3,2.5,2,4.5,2c1.7,0,3.4-0.4,5.2-1.1v2.7C230.5,174,228.8,174.3,226.7,174.3z"/>
			</g>
		</g>
		<g>
			<rect x="101.8" y="141.3" opacity="0.15" width="76.3" height="51.2"/>
			<g>
				<defs>
					<rect id="SVGID_23_" x="98.1" y="137.6" width="76.3" height="51.2"/>
				</defs>
				<clipPath id="SVGID_24_">
					<use xlink:href="#SVGID_23_"  overflow="visible"/>
				</clipPath>
				<rect x="98.1" y="137.6" clip-path="url(#SVGID_24_)" fill="#96B548" width="76.3" height="51.2"/>
			</g>
			<path fill="#FFFFFF" d="M136.9,153.2c2.7,0,4.8,0.9,6.2,2.7c1.5,1.8,2.2,4.4,2.2,7.8c0,3.4-0.7,6-2.2,7.8
				c-1.5,1.9-3.6,2.8-6.2,2.8c-1.3,0-2.5-0.2-3.6-0.7c-1.1-0.5-2-1.2-2.8-2.3h-0.2l-0.7,2.6h-2.2v-29h3.1v7c0,1.6,0,3-0.1,4.2h0.1
				C131.9,154.2,134.1,153.2,136.9,153.2z M136.4,155.8c-2.1,0-3.6,0.6-4.6,1.8c-0.9,1.2-1.4,3.3-1.4,6.1c0,2.9,0.5,4.9,1.4,6.2
				c1,1.2,2.5,1.9,4.6,1.9c1.9,0,3.3-0.7,4.2-2.1c0.9-1.4,1.4-3.4,1.4-6c0-2.7-0.5-4.6-1.4-5.9C139.8,156.5,138.4,155.8,136.4,155.8
				z"/>
		</g>
		<g>
			<rect x="10.6" y="74.3" opacity="0.15" width="76.3" height="51.2"/>
			<g>
				<defs>
					<rect id="SVGID_25_" x="6.9" y="70.6" width="76.3" height="51.2"/>
				</defs>
				<clipPath id="SVGID_26_">
					<use xlink:href="#SVGID_25_"  overflow="visible"/>
				</clipPath>
				<rect x="6.9" y="70.6" clip-path="url(#SVGID_26_)" fill="#96B548" width="76.3" height="51.2"/>
			</g>
			<path fill="#FFFFFF" d="M45.7,87.2c2.7,0,4.8,0.9,6.2,2.7c1.5,1.8,2.2,4.4,2.2,7.8s-0.7,6-2.2,7.8c-1.5,1.9-3.6,2.8-6.2,2.8
				c-1.3,0-2.5-0.2-3.6-0.7c-1.1-0.5-2-1.2-2.8-2.3h-0.2l-0.7,2.6h-2.2v-29h3.1v7c0,1.6,0,3-0.1,4.2h0.1
				C40.7,88.2,42.9,87.2,45.7,87.2z M45.3,89.7c-2.1,0-3.6,0.6-4.6,1.8c-0.9,1.2-1.4,3.3-1.4,6.1s0.5,4.9,1.4,6.2
				c1,1.2,2.5,1.9,4.6,1.9c1.9,0,3.3-0.7,4.2-2.1c0.9-1.4,1.4-3.4,1.4-6c0-2.7-0.5-4.6-1.4-5.9C48.6,90.4,47.2,89.7,45.3,89.7z"/>
		</g>
		<g>
			<rect x="193" y="74.3" opacity="0.15" width="76.3" height="51.2"/>
			<g>
				<defs>
					<rect id="SVGID_27_" x="189.2" y="70.6" width="76.3" height="51.2"/>
				</defs>
				<clipPath id="SVGID_28_">
					<use xlink:href="#SVGID_27_"  overflow="visible"/>
				</clipPath>
				<rect x="189.2" y="70.6" clip-path="url(#SVGID_28_)" fill="#5592D7" width="76.3" height="51.2"/>
			</g>
			<path fill="#FFFFFF" d="M231.1,107.9l-0.6-2.9h-0.1c-1,1.3-2,2.1-3,2.6c-1,0.5-2.3,0.7-3.8,0.7c-2,0-3.6-0.5-4.8-1.6
				c-1.1-1-1.7-2.5-1.7-4.5c0-4.1,3.3-6.3,9.9-6.5l3.5-0.1v-1.3c0-1.6-0.3-2.8-1-3.5c-0.7-0.8-1.8-1.1-3.3-1.1
				c-1.7,0-3.6,0.5-5.8,1.6l-0.9-2.4c1-0.5,2.1-1,3.3-1.3c1.2-0.3,2.4-0.5,3.6-0.5c2.4,0,4.2,0.5,5.4,1.6c1.2,1.1,1.8,2.8,1.8,5.2
				v13.9H231.1z M224.1,105.7c1.9,0,3.4-0.5,4.5-1.6c1.1-1.1,1.6-2.5,1.6-4.4v-1.8l-3.1,0.1c-2.5,0.1-4.2,0.5-5.3,1.1
				c-1.1,0.7-1.6,1.7-1.6,3.2c0,1.1,0.3,2,1,2.6C222,105.4,222.9,105.7,224.1,105.7z"/>
		</g>
		<g>
			<rect x="101.8" y="74.3" opacity="0.15" width="76.3" height="51.2"/>
			<g>
				<defs>
					<rect id="SVGID_29_" x="98.1" y="70.6" width="76.3" height="51.2"/>
				</defs>
				<clipPath id="SVGID_30_">
					<use xlink:href="#SVGID_29_"  overflow="visible"/>
				</clipPath>
				<rect x="98.1" y="70.6" clip-path="url(#SVGID_30_)" fill="#F69626" width="76.3" height="51.2"/>
			</g>
			<path fill="#FFFFFF" d="M135.5,108.3c-3,0-5.2-0.9-6.9-2.7c-1.6-1.8-2.4-4.4-2.4-7.7c0-3.4,0.8-6.1,2.5-7.9c1.6-1.9,4-2.8,7-2.8
				c1,0,2,0.1,2.9,0.3c1,0.2,1.8,0.5,2.3,0.7l-0.9,2.6c-0.7-0.3-1.4-0.5-2.2-0.7c-0.8-0.2-1.5-0.3-2.1-0.3c-4.1,0-6.2,2.6-6.2,7.9
				c0,2.5,0.5,4.4,1.5,5.8c1,1.3,2.5,2,4.5,2c1.7,0,3.4-0.4,5.2-1.1v2.7C139.3,107.9,137.6,108.3,135.5,108.3z"/>
		</g>
	</g>
	<polygon fill="#5592D7" points="289.1,30.7 361.4,165 289.1,299.3 	"/>
	<g>
		<g>
			<rect x="381.8" y="76.2" opacity="0.15" width="76.3" height="51.2"/>
			<g>
				<defs>
					<rect id="SVGID_31_" x="378.1" y="72.5" width="76.3" height="51.2"/>
				</defs>
				<clipPath id="SVGID_32_">
					<use xlink:href="#SVGID_31_"  overflow="visible"/>
				</clipPath>
				<rect x="378.1" y="72.5" clip-path="url(#SVGID_32_)" fill="#5592D7" width="76.3" height="51.2"/>
			</g>
			<path fill="#FFFFFF" d="M420,109.8l-0.6-2.9h-0.1c-1,1.3-2,2.1-3,2.6c-1,0.5-2.3,0.7-3.8,0.7c-2,0-3.6-0.5-4.8-1.6
				c-1.1-1-1.7-2.5-1.7-4.5c0-4.1,3.3-6.3,9.9-6.5l3.5-0.1v-1.3c0-1.6-0.3-2.8-1-3.5c-0.7-0.8-1.8-1.1-3.3-1.1
				c-1.7,0-3.6,0.5-5.8,1.6l-0.9-2.4c1-0.5,2.1-1,3.3-1.3c1.2-0.3,2.4-0.5,3.6-0.5c2.4,0,4.2,0.5,5.4,1.6c1.2,1.1,1.8,2.8,1.8,5.2
				v13.9H420z M413,107.7c1.9,0,3.4-0.5,4.5-1.6c1.1-1.1,1.6-2.5,1.6-4.4v-1.8l-3.1,0.1c-2.5,0.1-4.2,0.5-5.3,1.1
				c-1.1,0.7-1.6,1.7-1.6,3.2c0,1.1,0.3,2,1,2.6C410.8,107.4,411.8,107.7,413,107.7z"/>
		</g>
		<g>
			<rect x="381.8" y="208.3" opacity="0.15" width="76.3" height="51.2"/>
			<g>
				<defs>
					<rect id="SVGID_33_" x="378.1" y="204.6" width="76.3" height="51.2"/>
				</defs>
				<clipPath id="SVGID_34_">
					<use xlink:href="#SVGID_33_"  overflow="visible"/>
				</clipPath>
				<rect x="378.1" y="204.6" clip-path="url(#SVGID_34_)" fill="#F69626" width="76.3" height="51.2"/>
			</g>
			<path fill="#FFFFFF" d="M415.6,242.3c-3,0-5.2-0.9-6.9-2.7c-1.6-1.8-2.4-4.4-2.4-7.7c0-3.4,0.8-6.1,2.5-7.9c1.6-1.9,4-2.8,7-2.8
				c1,0,2,0.1,2.9,0.3c1,0.2,1.8,0.5,2.3,0.7l-0.9,2.6c-0.7-0.3-1.4-0.5-2.2-0.7c-0.8-0.2-1.5-0.3-2.1-0.3c-4.1,0-6.2,2.6-6.2,7.9
				c0,2.5,0.5,4.4,1.5,5.8c1,1.3,2.5,2,4.5,2c1.7,0,3.4-0.4,5.2-1.1v2.7C419.4,242,417.7,242.3,415.6,242.3z"/>
		</g>
		<g>
			<rect x="381.8" y="142.3" opacity="0.15" width="76.3" height="51.2"/>
			<g>
				<defs>
					<rect id="SVGID_35_" x="378.1" y="138.6" width="76.3" height="51.2"/>
				</defs>
				<clipPath id="SVGID_36_">
					<use xlink:href="#SVGID_35_"  overflow="visible"/>
				</clipPath>
				<rect x="378.1" y="138.6" clip-path="url(#SVGID_36_)" fill="#96B548" width="76.3" height="51.2"/>
			</g>
			<path fill="#FFFFFF" d="M416.9,155.1c2.7,0,4.8,0.9,6.2,2.7c1.5,1.8,2.2,4.4,2.2,7.8c0,3.4-0.7,6-2.2,7.8
				c-1.5,1.9-3.6,2.8-6.2,2.8c-1.3,0-2.5-0.2-3.6-0.7c-1.1-0.5-2-1.2-2.8-2.3h-0.2l-0.7,2.6h-2.2v-29h3.1v7c0,1.6,0,3-0.1,4.2h0.1
				C412,156.2,414.1,155.1,416.9,155.1z M416.5,157.7c-2.1,0-3.6,0.6-4.6,1.8c-0.9,1.2-1.4,3.3-1.4,6.1c0,2.9,0.5,4.9,1.4,6.2
				c1,1.2,2.5,1.9,4.6,1.9c1.9,0,3.3-0.7,4.2-2.1s1.4-3.4,1.4-6c0-2.7-0.5-4.6-1.4-5.9S418.4,157.7,416.5,157.7z"/>
		</g>
	</g>
</g>
</svg>
