<?xml version="1.0" encoding="utf-8"?>
<!-- Generator: Adobe Illustrator 19.1.0, SVG Export Plug-In . SVG Version: 6.00 Build 0)  -->
<svg version="1.1" id="Layer_1" xmlns="http://www.w3.org/2000/svg" xmlns:xlink="http://www.w3.org/1999/xlink" x="0px" y="0px"
	 viewBox="0 0 390 430" enable-background="new 0 0 390 430" xml:space="preserve">
<g>
	<g opacity="0.2">
		<g>
			<path fill="#5592D7" d="M254.3,189.4h-3.2l20.5,63.5c0.2-0.2,0.4-0.5,0.6-0.7c-0.3-0.6-0.5-1.2-0.7-2c-0.2-0.5,0-0.6,0.4-0.2
				c0.4,0.4,1,0.8,1.8,0.9c0,0,0-0.8,0-1.5L254.3,189.4z"/>
			<path fill="#5592D7" d="M250.5,179.2c0.2,0.1,0.4,0.1,0.6,0.2c0,0,0,0,0,0l-0.7-2.1L250.5,179.2
				C250.5,179.2,250.5,179.2,250.5,179.2C250.5,179.2,250.5,179.2,250.5,179.2z"/>
			<path fill="#5592D7" d="M239.9,157.6c0.6-1,1.4-1.8,2.3-2.5L215.7,85h-3.2L239.9,157.6z"/>
			<path fill="#5592D7" d="M190.3,261.8h-3l4.2,42.9c0.9-0.3,1.9-0.6,2.9-0.7L190.3,261.8z"/>
			<path fill="#5592D7" d="M42.5,160.8l2-2c-0.6,0.3-1.3,0.5-2,0.7V160.8z"/>
			<path fill="#5592D7" d="M109.7,88.7c0.1-0.1,0.2-0.1,0.3-0.1c0.3-0.1,0.6-0.3,0.9-0.4c0.1,0,0.2-0.1,0.3-0.1
				c0.3-0.1,0.6-0.2,1-0.3c0,0,0,0,0,0v-2.4l-4.5,4.6C108.4,89.5,109,89.1,109.7,88.7L109.7,88.7z"/>
			<path fill="#5592D7" d="M40.5,231.4l0.6-53.6h-1.3h-1.7l-0.6,53.5c0.3,0,0.6,0,0.9,0C39.1,231.3,39.8,231.3,40.5,231.4z"/>
			<path fill="#5592D7" d="M104.8,93l-49.5,50.4c-0.4,1.3-1.1,2.2-1.9,2.2c0,0,0,0-0.1,0c-0.1,2-0.7,3.9-1.5,5.6l49.8-50.8
				C102.1,97.6,103.2,95.1,104.8,93z"/>
			<path fill="#5592D7" d="M131.8,81.2l55-16.7c-1-0.7-1.9-1.5-2.8-2.3L131.9,78v2.8C131.9,81,131.9,81.1,131.8,81.2z"/>
			<path fill="#5592D7" d="M359,293.2c-3-0.6-5.7-2-8-4l-67.6-16.5c-0.5,0.2-1.1,0.4-1.6,0.5v2.1c0,0,0,0,0,0c0,0,0,0,0,0
				c0.2,0,0.3,0.1,0.5,0.1l76.8,18.7V293.2z"/>
			<path fill="#5592D7" d="M170.4,225L122,179.8c-0.2,0.3-0.4,0.6-0.6,0.9c1.8,1.4,3.1,3.5,3.7,6.1l45.3,42.3V225z"/>
			<path fill="#5592D7" d="M188.8,205.3l0.4-41.3H188h-1.7l-0.4,41.2c0.4,0,0.7-0.1,1.1-0.1C187.6,205.2,188.2,205.2,188.8,205.3z"
				/>
			<path fill="#5592D7" d="M199.3,341.4L199.3,341.4L199.3,341.4C199.4,341.4,199.3,341.4,199.3,341.4z"/>
			<path fill="#5592D7" d="M276.6,276L276.6,276c0.1,0,0.1,0,0.2-0.1c0.2-0.1,0.4-0.2,0.6-0.3c0.1,0,0.1,0,0.2-0.1
				c0.2-0.1,0.4-0.1,0.6-0.2c0,0,0,0,0,0v-2.1c-2.3-0.5-4.2-1.9-5.4-3.8l-66.7-22.2c-0.4,0.7-1.1,1.6-1.9,2.5l72.7,24.2l-65.3,53.5
				c-0.4,0.8-1,1.4-1.6,1.4c0,0,0,0-0.1,0c-0.1,1.7-0.6,3.4-1.3,4.9l63.2-51.7C272.7,279.3,274.4,277.1,276.6,276z"/>
			<path fill="#5592D7" d="M185.2,144.7c-0.3-0.1-0.7-0.2-1-0.3L125,171.5c-0.2,1.2-0.6,2.5-1,3.8l61.3-28V144.7z"/>
			<path fill="#5592D7" d="M126.9,160.4C126.9,160.4,126.9,160.4,126.9,160.4c0.3,1,0.3,2.3,0.1,3.4c-0.1,0.6-0.2,1.1-0.4,1.6
				c0,0.1,0,0.3,0,0.4l59-80.8h-0.8c0-1.5,0.1-3,0.4-4.5L126.9,160.4z"/>
			<path fill="#5592D7" d="M113.8,103.8l0.9,49.2c0.4-0.1,0.7-0.1,1.1-0.2c0.3,0,0.6,0,0.9,0h0l0,0c0.4,0,0.7,0,1,0.1l-0.9-49.1H115
				H113.8z"/>
			<path fill="#5592D7" d="M117.7,84.4v1l12.2-3.7c-1.5-0.5-3.3-0.9-5.3-1.2C122.8,82.5,120.4,83.9,117.7,84.4z"/>
		</g>
		<g>
			<path fill="#5592D7" d="M110.5,337l0.9,0.6v-0.4C111,337.2,110.8,337.1,110.5,337z"/>
			<path fill="#5592D7" d="M98.5,240.1v-1.8c0-0.3,0-0.5,0-0.8c0,0,0,0,0,0c0-0.2,0-0.3,0-0.4c0-0.3,0-0.6,0.1-0.9
				c0-0.2,0.1-0.4,0.1-0.7l-45.4-58.9c0,0.4,0.1,0.8,0.1,1.2h-2.9L98.5,240.1z"/>
			<path fill="#5592D7" d="M194,341.4c-1.4-0.3-2.8-0.9-4-1.6l-71.9-4c-0.9,0.7-2,1.2-3.2,1.4v2.1c0,0,0,0,0,0c0,0,0,0,0,0
				c0.2,0.1,0.4,0.1,0.6,0.2c0,0,0,0,0.1,0c0.1,0,0.1,0,0.2,0c0,0,0,0,0,0c0.2,0.1,0.4,0.2,0.6,0.3c0.1,0,0.1,0.1,0.2,0.1v0
				c0.3,0.1,0.5,0.3,0.7,0.5l-1.2-1.7l78,4.3V341.4z"/>
			<path fill="#5592D7" d="M116.7,221.3c0.2,0,0.4,0.1,0.5,0.1c0,0,0,0,0.1,0l0.7-31.9h-1.2H115l-0.6,31.8c0.2,0,0.5,0,0.7,0
				C115.6,221.2,116.2,221.2,116.7,221.3z"/>
			<path fill="#5592D7" d="M37,160.3v-0.9c-0.3-0.1-0.6-0.2-0.9-0.3L37,160.3z"/>
			<path fill="#5592D7" d="M126.8,270.2c0.6,1.3,1,2.7,1.3,4.2l55.5,56.2c-0.1-0.6-0.2-1.2-0.2-1.7c0,0,0,0-0.1,0
				c-1.2,0-2.1-1.8-2.1-4c0-0.3,0-0.6,0.1-0.9l-53.2-53.8H126.8z"/>
			<path fill="#5592D7" d="M193.6,344.8c0.1,0,0.3-0.1,0.4-0.1c0,0,0,0,0,0v-0.8L193.6,344.8z"/>
			<path fill="#5592D7" d="M121.4,346.7c0.2,0.9,0.4,1.9,0.4,2.9h-2l33.6,49.7c0-1.5,0.3-2.9,0.8-4.1L121.4,346.7z"/>
			<path fill="#5592D7" d="M268.9,358.4l-68.4-17.3c-0.4,0.1-0.8,0.2-1.1,0.3v2.5l75.1,19l-99.7,43.3v3.3l101.6-44.1v-2.5
				C273.4,362.3,270.8,360.7,268.9,358.4z"/>
			<path fill="#5592D7" d="M42.5,161.7C42.5,161.7,42.5,161.7,42.5,161.7c0.4,0.1,0.7,0.2,1.1,0.3c0,0,0,0,0,0c0.1,0,0.2,0,0.2,0.1
				c0,0,0,0,0,0c0.4,0.1,0.7,0.3,1,0.5c0.1,0,0.1,0.1,0.2,0.1v0c1,0.5,1.9,1.1,2.7,1.9l62.4,12.6c-0.5-1.1-0.8-2.2-1.2-3.3
				l-66.6-13.4L42.5,161.7C42.5,161.7,42.5,161.7,42.5,161.7z"/>
			<path fill="#5592D7" d="M292.9,96.1c-0.1-0.8-0.2-1.5-0.4-2.2c-0.2-0.5-0.3-1-0.5-1.5l-70.1-28.9c-0.9,0.7-1.8,1.4-2.8,2.1
				L292.9,96.1z"/>
			<path fill="#5592D7" d="M186.4,360.4l-14.5,31.5c0.8,0.9,1.4,1.9,1.9,3l15.9-34.5H186.4z"/>
			<path fill="#5592D7" d="M316.7,213.6l24.1,43.5c0.1-1.4,0.4-3,0.9-4.7l-21.5-38.9H316.7z"/>
			<path fill="#5592D7" d="M280.9,324.5l0.4-38.9h-1.4h-1.6l-0.4,39c0.4,0.1,0.7,0.2,1.1,0.3C279.7,324.6,280.3,324.5,280.9,324.5z"
				/>
			<path fill="#5592D7" d="M304.4,213.6l-16.8,38.6c0.8,0.8,1.5,1.8,2,2.9l18.1-41.5H304.4z"/>
			<path fill="#5592D7" d="M168.2,245.3l-33,7.6c0.8,0.8,1.5,1.6,2,2.6l31.2-7.2c-0.3-0.4-0.6-0.8-0.8-1.1
				C167.3,246.5,167.6,245.7,168.2,245.3z"/>
			<path fill="#5592D7" d="M306.9,119.7l2,54.4c0.8-0.3,1.6-0.4,2.5-0.4c0.2,0,0.3,0,0.5,0l-2-54h-2.2H306.9z"/>
			<path fill="#5592D7" d="M195.4,111.9l4.9-26.9h-3l-4.6,25.4C193.6,110.8,194.5,111.3,195.4,111.9z"/>
			<path fill="#5592D7" d="M104.5,329.1C104.5,329.1,104.4,329.2,104.5,329.1c-0.5,0-0.8-0.4-1.1-0.9L42,284v3.3c0,0,0,0,0.1,0
				c0.1,0,0.1,0,0.2,0.1c0.2,0.1,0.5,0.1,0.7,0.2c0.1,0,0.1,0,0.2,0.1c0,0,0.1,0,0.1,0c0.1,0,0.1,0,0.2,0.1c0.1,0,0.3,0.1,0.4,0.1
				c0,0,0.1,0,0.1,0.1c0.2,0.1,0.5,0.2,0.7,0.3c0,0,0.1,0,0.1,0c0.3,0.1,0.5,0.2,0.8,0.4c0,0,0,0,0.1,0c0.1,0,0.2,0.1,0.3,0.1
				c0,0,0.1,0,0.1,0.1c0.1,0.1,0.3,0.1,0.4,0.2c0,0,0,0,0,0c0.3,0.2,0.5,0.3,0.8,0.5c0,0,0,0,0,0c0.4,0.2,0.7,0.5,1.1,0.8
				c0,0,0.1,0,0.1,0.1c0.7,0.6,1.4,1.2,2.1,1.9c0,0,0,0,0,0.1c0.9,1,1.7,2,2.5,3.2l53.4,38.4C105.3,332.7,104.6,331,104.5,329.1z"/>
			<path fill="#5592D7" d="M355.5,299L355.5,299c0,0,0.1,0,0.1-0.1c0.2-0.1,0.5-0.2,0.7-0.3c0.1,0,0.1,0,0.2-0.1
				c0.2-0.1,0.4-0.2,0.7-0.3c0.1,0,0.2-0.1,0.3-0.1c0.2-0.1,0.4-0.1,0.6-0.2c0.1,0,0.2-0.1,0.3-0.1c0.2-0.1,0.4-0.1,0.6-0.2
				c0,0,0,0,0,0v-3l-64.4,53.1c-0.4,1.4-1.1,2.3-2,2.3c0,0,0,0-0.1,0c-0.1,1.4-0.4,2.7-0.8,3.9l54.8-45.2
				C348.5,304.4,351.7,300.9,355.5,299z"/>
			<path fill="#5592D7" d="M46.3,281.3c-1.4,0.7-2.8,1.2-4.3,1.5v0.8l5.2-1.6C46.9,281.8,46.6,281.6,46.3,281.3z"/>
			<path fill="#5592D7" d="M115.2,313.1l0.9-35.4h-1h-1.1h-0.9l-0.9,35.2c0.3,0,0.6,0,0.9,0C113.8,312.9,114.5,313,115.2,313.1z"/>
			<path fill="#5592D7" d="M240.2,187.9c0-0.2,0-0.4,0.1-0.6c0-0.2,0.1-0.3,0.1-0.5c0-0.2,0.1-0.3,0.1-0.5c0-0.2,0.1-0.4,0.2-0.5
				c0-0.1,0.1-0.3,0.1-0.4c0.1-0.2,0.1-0.4,0.2-0.6c0-0.1,0.1-0.2,0.1-0.3c0.1-0.2,0.2-0.4,0.3-0.6c0-0.1,0.1-0.2,0.1-0.3
				c0.1-0.2,0.2-0.4,0.3-0.5c0.1-0.1,0.1-0.2,0.2-0.3c0.1-0.2,0.2-0.3,0.4-0.5c0-0.1,0.1-0.1,0.1-0.2v0c0.8-1,1.8-1.8,2.9-2.4v0
				c0.1,0,0.1,0,0.2-0.1c0.2-0.1,0.4-0.2,0.6-0.3c0.1,0,0.1,0,0.2-0.1c0.2-0.1,0.4-0.1,0.6-0.2c0,0,0,0,0,0v-2.1
				c-3.2-0.7-5.7-3.2-6.6-6.4l-49-26.2c-0.2,0.1-0.5,0.1-0.7,0.2v2.8l55.6,29.8l-42.8,45.5v4.4l36.7-38.9
				C240.2,188.1,240.2,188,240.2,187.9z"/>
			<path fill="#5592D7" d="M92.7,264.6l-28.9,9.1c0.2,1.1,0.5,2,0.8,2.9l29.8-9.4C93.8,266.4,93.2,265.5,92.7,264.6z"/>
			<path fill="#5592D7" d="M308.7,203.8c0.1,0,0.2-0.1,0.2-0.1c0,0,0,0,0,0c0.1,0,0.2-0.1,0.4-0.1c0.1,0,0.3-0.1,0.4-0.1
				c0,0,0,0,0,0c0,0,0,0,0,0v-2.1c-2.1-0.4-4-1.7-5.2-3.5c-0.7-0.5-1.4-1.1-1.9-1.8l-50.5-19.5c-0.5,0.2-1.1,0.4-1.6,0.5v2.1
				l0.6,0.2c0,0,0,0,0.1,0c0,0,0.1,0,0.1,0c0,0,0,0,0,0c0.1,0,0.2,0.1,0.3,0.1l57.9,22.4L308.7,203.8z"/>
			<path fill="#5592D7" d="M259.1,163.8c-0.1,0.6-0.2,1.1-0.4,1.6c0.1,0.3,0.1,0.6,0.1,1l36.1-46.7h-0.8c0-1.6,0.2-3.2,0.6-4.7
				l-35.6,46C259.2,161.9,259.2,162.9,259.1,163.8z"/>
			<path fill="#5592D7" d="M313.2,203.5c0.2,0,0.3,0.1,0.5,0.1c0.1,0,0.2,0.1,0.4,0.1c0,0,0,0,0,0c0,0,0,0,0,0
				c0.2,0.1,0.3,0.1,0.5,0.2c0.1,0,0.2,0.1,0.3,0.1l-1.5-2.7c0,0-0.1,0-0.1,0L313.2,203.5C313.2,203.5,313.2,203.5,313.2,203.5
				C313.2,203.5,313.2,203.5,313.2,203.5z"/>
		</g>
	</g>
	<g>
		<g>
			<g>
				<path fill="#5592D7" d="M302.8,213.6c0-5.7,3.9-10.4,8.6-10.4c4.8,0,8.6,4.6,8.6,10.4H302.8z"/>
				<path opacity="0.1" d="M311.5,203.3v10.4h8.6C320.1,207.9,316.3,203.3,311.5,203.3z"/>
				<path fill="#F7944B" d="M317.6,206.2c-1.6-1.8-3.7-3-6.1-3c-2.4,0-4.5,1.1-6.1,3c1.1,2.2,3.4,3.8,6.1,3.8
					C314.1,210,316.4,208.5,317.6,206.2z"/>
				<path fill="#E6820E" d="M311.5,203.3v6.8c2.7,0,5-1.5,6.1-3.8C316,204.4,313.8,203.3,311.5,203.3z"/>
			</g>
			<ellipse fill="#808285" cx="311.5" cy="177.8" rx="5.9" ry="4.2"/>
			<path fill="#939598" d="M300.8,190.5c0,6.1,4.8,9.3,10.7,9.3c5.9,0,10.7-3.2,10.7-9.3V188h-21.4V190.5z"/>
			<g>
				<path fill="#F7C1A1" d="M314.8,204.1c-1-0.5-2.2-0.8-3.4-0.8c-1.2,0-2.3,0.3-3.4,0.8c0.4,1.5,1.7,2.6,3.4,2.6
					C313.1,206.7,314.5,205.6,314.8,204.1z"/>
				<rect x="309.8" y="197.8" fill="#F7C1A1" width="3.5" height="6.7"/>
				<path fill="#F5B090" d="M313.2,203.5v-5.7h-1.7v8.9c1.6,0,3-1.1,3.4-2.6C314.3,203.8,313.8,203.6,313.2,203.5z"/>
			</g>
			<ellipse fill="#F7C1A1" cx="320.1" cy="190.6" rx="1.4" ry="2.6"/>
			<ellipse fill="#F7C1A1" cx="302.8" cy="190.6" rx="1.4" ry="2.6"/>
			<path fill="#F7C1A1" d="M311.5,179c-4.8,0-8.6,4-8.6,9v4.5c0,5,3.9,9,8.6,9s8.6-4,8.6-9V188C320.1,183.1,316.3,179,311.5,179z"/>
			<path fill="#F5B090" d="M311.5,179c3.8,0,6.9,4,6.9,9v4.5c0,5-3.1,9-6.9,9c4.8,0,8.6-4,8.6-9V188
				C320.1,183.1,316.3,179,311.5,179z"/>
			<polygon fill="#513432" points="311.5,183.4 311.5,183.4 311.5,183.4 			"/>
			<path fill="#939598" d="M311.5,177c-5.9,0-10.7,5-10.7,11.1h2.1c0.5-1.6,2.9-1.4,4.8-1.7c1.9-0.3,3.8-2.9,3.8-2.9l0,0h0l0,0
				c0,0,1.9,2.6,3.8,2.9c1.9,0.3,4.4,0.1,4.8,1.7h2.1C322.2,181.9,317.4,177,311.5,177z"/>
		</g>
		<g>
			<path fill="#513432" d="M153.3,412.6c0,0.6,0.5,1,1,1h19.4c0.6,0,1-0.5,1-1v-8.7v-4.5h-21.4v4.5V412.6z"/>
			<path fill="#5592D7" d="M155.4,425c0-5.7,3.9-10.4,8.6-10.4s8.6,4.6,8.6,10.4H155.4z"/>
			<path opacity="0.1" d="M164,414.6V425h8.6C172.6,419.3,168.8,414.6,164,414.6z"/>
			<path fill="#F7C1A1" d="M167.4,415.4c-1-0.5-2.2-0.8-3.4-0.8s-2.3,0.3-3.4,0.8c0.4,1.5,1.7,2.6,3.4,2.6
				C165.6,418.1,167,416.9,167.4,415.4z"/>
			<rect x="162.3" y="409.2" fill="#F7C1A1" width="3.5" height="6.7"/>
			<path fill="#F5B090" d="M165.7,414.8v-5.7H164v8.9c1.6,0,3-1.1,3.4-2.6C166.8,415.2,166.3,415,165.7,414.8z"/>
			<ellipse fill="#F7C1A1" cx="172.6" cy="402" rx="1.4" ry="2.6"/>
			<ellipse fill="#F7C1A1" cx="155.4" cy="402" rx="1.4" ry="2.6"/>
			<path fill="#F7C1A1" d="M164,390.4c-4.8,0-8.6,4-8.6,9v4.5c0,5,3.9,9,8.6,9c4.8,0,8.6-4,8.6-9v-4.5
				C172.6,394.4,168.8,390.4,164,390.4z"/>
			<path fill="#F5B090" d="M164,390.4c3.8,0,6.9,4,6.9,9v4.5c0,5-3.1,9-6.9,9c4.8,0,8.6-4,8.6-9v-4.5
				C172.6,394.4,168.8,390.4,164,390.4z"/>
			<path fill="#513432" d="M164,388.3c-5.9,0-10.7,5-10.7,11.1h2.1c0,0,1.9-4.8,6.3-5.2c0,0,4.5,11.6,11,5.2h2.1
				C174.7,393.3,169.9,388.3,164,388.3z"/>
		</g>
		<g>
			<path fill="#F69626" d="M340.9,265.2c0.3,1.9,0.8,3.6,1.3,4.7c1.2,2.6,2.2,4.7,2.2,4.7h36.4l2.2-4.7c0.5-1.2,1-2.9,1.3-4.7H340.9
				z"/>
			<g>
				<path fill="#5592D7" d="M344.4,319.1c0-12.1,8.1-21.8,18.2-21.8c10.1,0,18.2,9.8,18.2,21.8H344.4z"/>
				<path opacity="0.1" d="M362.6,297.3v21.8h18.2C380.8,307,372.7,297.3,362.6,297.3z"/>
			</g>
			<g>
				<path fill="#F7C1A1" d="M369.7,299c-2.2-1.1-4.6-1.7-7.1-1.7c-2.5,0-4.9,0.6-7.1,1.7c0.8,3.2,3.6,5.6,7.1,5.6
					C366,304.5,368.9,302.2,369.7,299z"/>
				<rect x="359" y="285.7" fill="#F7C1A1" width="7.3" height="14.1"/>
				<path fill="#F5B090" d="M366.2,297.7v-12h-3.6v18.8c3.4,0,6.3-2.4,7.1-5.6C368.6,298.4,367.4,298,366.2,297.7z"/>
			</g>
			<ellipse fill="#F7C1A1" cx="380.8" cy="270.7" rx="2.9" ry="5.5"/>
			<ellipse fill="#F7C1A1" cx="344.4" cy="270.7" rx="2.9" ry="5.5"/>
			<path fill="#F7C1A1" d="M362.7,246.3c-10.1,0-18.2,8.4-18.3,18.9l0,9.5c0,10.5,8.1,19,18.1,19c10.1,0,18.2-8.4,18.3-18.9l0-9.5
				C380.9,254.8,372.7,246.3,362.7,246.3z"/>
			<path fill="#F5B090" d="M362.6,246.3c8,0,14.6,8.5,14.6,18.9v9.5c0,10.5-6.5,18.9-14.6,18.9c10.1,0,18.2-8.5,18.2-18.9v-9.5
				C380.8,254.8,372.7,246.3,362.6,246.3z"/>
			<path fill="#F69626" d="M379.8,246.8c-6.4-5.9-15.6-4.9-15.6-4.9c1-0.8,2.8-1.3,4.1-1.6c0.8-0.2,0.8-0.4,0-0.6
				c-14-3.3-19.9,7.4-19.9,7.4c-0.2-1.1,1-3.5,1.8-5c0.4-0.7,0.1-1-0.6-0.6c-10.1,5.4-9,20.1-9,20.1c0,1.2,0.1,2.5,0.3,3.6h3.5
				c0,0,4.2-10.1,11.1-12.7c1.8,1.8,4.3,2.9,7.1,2.9c2.7,0,5.2-1.1,7.1-2.9c6.9,2.6,11.1,12.7,11.1,12.7h3.5c0.4-2.4,0.4-5-0.2-7.2
				c-1.5-4.6-4.3-8.6-8-11.5c1.1,0,2.4,0.4,3.3,0.7C380.2,247.6,380.4,247.4,379.8,246.8z"/>
		</g>
		<g>
			<g>
				<path fill="#5592D7" d="M20.1,308.9c0-12.1,8.2-22,18.3-22c10.1,0,18.3,9.8,18.3,22H20.1z"/>
				<path opacity="0.1" d="M38.4,286.9v22h18.3C56.7,296.7,48.5,286.9,38.4,286.9z"/>
			</g>
			<g>
				<path fill="#F7C1A1" d="M38.4,301.6c5.6,0,10.6-3.2,13.1-8.1c-3.3-4.1-7.9-6.6-13.1-6.6c-5.1,0-9.7,2.5-13.1,6.6
					C27.8,298.4,32.7,301.6,38.4,301.6z"/>
				<rect x="34.7" y="275.3" fill="#F7C1A1" width="7.3" height="14.2"/>
				<path fill="#F5B090" d="M42,287.4v-12h-3.7v26.2c5.6,0,10.6-3.2,13.1-8.1C48.9,290.4,45.7,288.2,42,287.4z"/>
			</g>
			<g>
				<path fill="#513432" d="M48,233.4L48,233.4c2.5-2.8,6-4.6,10.1-4.6c7.4,0,13.4,6,13.4,13.4c0,1.5-0.3,2.9-0.7,4.3
					c-1.5-3.3-4.2-5.9-7.6-7.1c0.1,0.1,7.3,10.2,2.3,23.3c-5,13.2,2.7,18.4,2.7,18.4s-11.7,9.8-23-0.8h-6.7v-44.6L48,233.4z"/>
				<path fill="#513432" d="M28.8,233.4L28.8,233.4c-2.5-2.8-6-4.6-10.1-4.6c-7.4,0-13.4,6-13.4,13.4c0,1.5,0.3,2.9,0.7,4.3
					c1.5-3.3,4.2-5.9,7.6-7.1c-0.1,0.1-7.3,10.2-2.3,23.3c5,13.2-2.7,18.4-2.7,18.4s11.7,9.8,23-0.8h6.7v-44.6L28.8,233.4z"/>
			</g>
			<ellipse fill="#F7C1A1" cx="56.7" cy="260.2" rx="2.9" ry="5.5"/>
			<ellipse fill="#F7C1A1" cx="20.1" cy="260.2" rx="2.9" ry="5.5"/>
			<path fill="#F7C1A1" d="M38.4,235.7c-10.1,0-18.3,8.5-18.3,19v9.5c0,10.5,8.2,19,18.3,19c10.1,0,18.3-8.5,18.3-19v-9.5
				C56.7,244.2,48.5,235.7,38.4,235.7z"/>
			<path fill="#F5B090" d="M38.4,235.7c8.1,0,14.6,8.5,14.6,19v9.5c0,10.5-6.6,19-14.6,19c10.1,0,18.3-8.5,18.3-19v-9.5
				C56.7,244.2,48.5,235.7,38.4,235.7z"/>
			<g>
				<path fill="#ED5E51" d="M28.8,233.4L28.8,233.4L28.8,233.4c-0.7-0.8-1.5-1.4-2.3-2c-1.5,0.4-3.5,1.7-5.4,3.6
					c-3,3-4.5,6.3-3.4,7.4c1.1,1.1,4.4-0.4,7.4-3.4C27.2,237.1,28.5,235,28.8,233.4z"/>
				<path fill="#ED5E51" d="M47.9,233.4L47.9,233.4L47.9,233.4c0.7-0.8,1.5-1.4,2.3-2c1.5,0.4,3.5,1.7,5.4,3.6c3,3,4.5,6.3,3.4,7.4
					c-1.1,1.1-4.4-0.4-7.4-3.4C49.6,237.1,48.3,235,47.9,233.4z"/>
				<path fill="#513432" d="M60,247.5c-3-9.4-11.5-16.2-21.6-16.2c-10.1,0-18.6,6.8-21.6,16.2c-0.7,2.2-0.6,4.8-0.3,7.2h3.5
					c0,0,15.2-1.7,18.3-9.7h0c3.1,8,18.3,9.7,18.3,9.7h3.5C60.6,252.3,60.7,249.6,60,247.5z"/>
			</g>
		</g>
		<g>
			<path fill="#513432" d="M177.4,34.1c1.7-2.7,2.9-8.4,4.2-12.3C184.6,12,193.4,5,203.8,5c10.4,0,19.2,7,22.3,16.7
				c1.2,4,2.5,9.6,4.2,12.3c0,0,2.6,5.8,3,7.2c3.6,12.8-16.5,30.2-29.4,30.2c-12.9,0-33.1-17.4-29.4-30.2
				C174.7,39.8,175.7,36.8,177.4,34.1z"/>
			<g>
				<path fill="#5592D7" d="M184.9,85c0-12.5,8.4-22.6,18.9-22.6c10.4,0,18.9,10.1,18.9,22.6H184.9z"/>
				<path opacity="0.1" d="M203.8,62.4V85h18.9C222.6,72.5,214.2,62.4,203.8,62.4z"/>
			</g>
			<g>
				<path fill="#87583C" d="M211.1,64.1c-2.3-1.1-4.7-1.8-7.3-1.8c-2.6,0-5.1,0.6-7.3,1.8c0.8,3.3,3.8,5.8,7.3,5.8
					C207.3,69.9,210.3,67.4,211.1,64.1z"/>
				<rect x="200" y="50.4" fill="#87583C" width="7.5" height="14.6"/>
				<path fill="#804C2D" d="M207.6,62.8V50.4h-3.8v19.5c3.6,0,6.5-2.5,7.3-5.8C210,63.6,208.8,63.1,207.6,62.8z"/>
			</g>
			<ellipse fill="#87583C" cx="222.6" cy="34.8" rx="3" ry="5.7"/>
			<ellipse fill="#87583C" cx="184.9" cy="34.8" rx="3" ry="5.7"/>
			<path fill="#87583C" d="M203.8,9.5c-10.4,0-18.9,8.8-18.9,19.6V39c0,10.8,8.4,19.6,18.9,19.6c10.4,0,18.9-8.8,18.9-19.6v-9.8
				C222.6,18.3,214.2,9.5,203.8,9.5z"/>
			<path fill="#804C2D" d="M203.8,9.5c8.3,0,15.1,8.8,15.1,19.6V39c0,10.8-6.8,19.6-15.1,19.6c10.4,0,18.9-8.8,18.9-19.6v-9.8
				C222.6,18.3,214.2,9.5,203.8,9.5z"/>
			<path fill="#513432" d="M209.7,17.6c0,0,5.5,10.6,13,11.6h4.5c0-13.3-10.5-24.2-23.4-24.2c-12.9,0-23.4,10.8-23.4,24.2h4.5h1
				C189.7,29.1,204,28.1,209.7,17.6z"/>
		</g>
		<g>
			<g>
				<path fill="#5592D7" d="M101.4,103.8c0-9,6.1-16.3,13.6-16.3c7.5,0,13.6,7.3,13.6,16.3H101.4z"/>
				<path opacity="0.1" d="M115,87.4v16.3h13.6C128.6,94.8,122.5,87.4,115,87.4z"/>
			</g>
			<g>
				<rect x="112.3" y="78.8" fill="#F7C1A1" width="5.4" height="10.6"/>
				<path fill="#F7C1A1" d="M120.3,88.7c-1.6-0.8-3.4-1.3-5.3-1.3c-1.9,0-3.7,0.5-5.3,1.3l0,0l5.3,7.8L120.3,88.7L120.3,88.7z"/>
				<path fill="#F5B090" d="M117.7,87.8v-8.9H115v17.7l0,0l5.3-7.8v0C119.5,88.3,118.6,88,117.7,87.8z"/>
			</g>
			<g>
				<path fill="#513432" d="M115,46c-9.3,0-16.9,7.8-16.9,17.4v7.1v10.3c0,0.9,0.7,1.3,1.5,1c3.7-1.3,9.2-2.1,15.4-2.1
					c6.1,0,11.6,0.8,15.4,2.1c0.9,0.3,1.5-0.1,1.5-1V70.6v-7.1C131.9,53.9,124.3,46,115,46z"/>
				<path fill="#513432" d="M98.1,63.5v7.1v10.3c0,0.9,0.7,1.3,1.5,1c3.7-1.3,9.2-2.1,15.4-2.1c6.1,0,11.6,0.8,15.4,2.1
					c0.9,0.3,1.5-0.1,1.5-1V70.6v-7.1H98.1z"/>
				<path fill="#F7C1A1" d="M115,49.3c-7.5,0-13.6,6.3-13.6,14.2v7.1c0,7.8,6.1,14.2,13.6,14.2c7.5,0,13.6-6.3,13.6-14.2v-7.1
					C128.6,55.6,122.5,49.3,115,49.3z"/>
				<path fill="#F5B090" d="M115,49.3c6,0,10.9,6.3,10.9,14.2v7.1c0,7.8-4.9,14.2-10.9,14.2c7.5,0,13.6-6.3,13.6-14.2v-7.1
					C128.6,55.6,122.5,49.3,115,49.3z"/>
				<path fill="#513432" d="M115,46c-9.3,0-16.9,7.8-16.9,17.4h3.3c0,0,1.7-1.3,5.6-2.2c0.4-1.5,1.4-4.6,3.1-5.8c0,0-1.2,3-1.1,5.5
					c1.7-0.3,3.6-0.4,6-0.4c2.3,0,4.3,0.2,6,0.4c0.2-2.5-1.1-5.5-1.1-5.5c1.7,1.2,2.7,4.3,3.1,5.8c4,0.9,5.6,2.2,5.6,2.2h3.3
					C131.9,53.9,124.3,46,115,46z"/>
			</g>
		</g>
		<g>
			<g>
				<path fill="#5592D7" d="M240.1,189.4c0-5.7,3.9-10.4,8.6-10.4c4.8,0,8.6,4.6,8.6,10.4H240.1z"/>
				<path opacity="0.1" d="M248.7,179v10.4h8.6C257.4,183.6,253.5,179,248.7,179z"/>
				<path fill="#E6820E" d="M255,182.2v7.2h2.4C257.4,186.6,256.5,184,255,182.2z"/>
				<path fill="#F7944B" d="M240.1,189.4h2.4v-7.2C241,184,240.1,186.6,240.1,189.4z"/>
			</g>
			<path fill="#513432" d="M259.1,163.8c-0.1,0.9-0.4,1.7-0.6,2.2l-1,2.2h-17.3c0,0-0.5-1-1-2.2c-0.3-0.5-0.5-1.4-0.6-2.2H259.1z"/>
			<path fill="#F7C1A1" d="M252.1,179.8c-1-0.5-2.2-0.8-3.4-0.8s-2.3,0.3-3.4,0.8c0.4,1.5,1.7,2.6,3.4,2.6
				C250.4,182.5,251.7,181.3,252.1,179.8z"/>
			<rect x="247" y="173.5" fill="#F7C1A1" width="3.5" height="6.7"/>
			<path fill="#F5B090" d="M250.5,179.2v-5.7h-1.7v8.9c1.6,0,3-1.1,3.4-2.6C251.6,179.5,251,179.3,250.5,179.2z"/>
			<ellipse fill="#F7C1A1" cx="257.4" cy="166.4" rx="1.4" ry="2.6"/>
			<ellipse fill="#F7C1A1" cx="240.1" cy="166.4" rx="1.4" ry="2.6"/>
			<path fill="#F7C1A1" d="M248.7,154.8c-4.8,0-8.6,4-8.6,9v4.5c0,5,3.9,9,8.6,9s8.6-4,8.6-9v-4.5
				C257.4,158.8,253.5,154.8,248.7,154.8z"/>
			<path fill="#F5B090" d="M248.7,154.8c3.8,0,6.9,4,6.9,9v4.5c0,5-3.1,9-6.9,9c4.8,0,8.6-4,8.6-9v-4.5
				C257.4,158.8,253.5,154.8,248.7,154.8z"/>
			<path fill="#513432" d="M259.1,163.8h-1.7c0,0-1.8-4.6-4.6-4.6c-1.8,0-2.1,2-4,2c-1.9,0-2.3-2-4-2c-2.8,0-4.6,4.6-4.6,4.6h-1.7
				c-0.2-1.1-0.2-2.4,0.1-3.4c1.4-4.4,5.4-7.7,10.2-7.7s8.8,3.2,10.2,7.7C259.3,161.4,259.2,162.6,259.1,163.8z"/>
		</g>
		<g>
			<g>
				<path fill="#5592D7" d="M174.3,164c0-9,6.1-16.3,13.6-16.3c7.5,0,13.6,7.3,13.6,16.3H174.3z"/>
				<path opacity="0.1" d="M188,147.7V164h13.6C201.6,155,195.5,147.7,188,147.7z"/>
				<path fill="#E6820E" d="M197.8,152.7V164h3.8C201.6,159.6,200.1,155.6,197.8,152.7z"/>
				<path fill="#F7944B" d="M174.3,164h3.8v-11.3C175.8,155.6,174.3,159.6,174.3,164z"/>
			</g>
			<g>
				<rect x="185.2" y="139.1" fill="#87583C" width="5.4" height="10.6"/>
				<path fill="#87583C" d="M193.2,149c-1.6-0.8-3.4-1.3-5.3-1.3c-1.9,0-3.7,0.5-5.3,1.3l0,0l5.3,7.8L193.2,149L193.2,149z"/>
				<path fill="#804C2D" d="M190.7,148v-8.9H188v17.7l0,0l5.3-7.8v0C192.4,148.5,191.6,148.2,190.7,148z"/>
			</g>
			<g>
				<circle fill="#939598" cx="178.1" cy="120.6" r="7.2"/>
				<circle fill="#939598" cx="197.8" cy="120.6" r="7.2"/>
				<ellipse fill="#87583C" cx="201.6" cy="127.8" rx="2.2" ry="4.1"/>
				<ellipse fill="#87583C" cx="174.3" cy="127.8" rx="2.2" ry="4.1"/>
				<path fill="#87583C" d="M188,109.5c-7.5,0-13.6,6.3-13.6,14.2v7.1c0,7.8,6.1,14.2,13.6,14.2c7.5,0,13.6-6.3,13.6-14.2v-7.1
					C201.6,115.9,195.5,109.5,188,109.5z"/>
				<path fill="#804C2D" d="M188,109.5c6,0,10.9,6.3,10.9,14.2v7.1c0,7.8-4.9,14.2-10.9,14.2c7.5,0,13.6-6.3,13.6-14.2v-7.1
					C201.6,115.9,195.5,109.5,188,109.5z"/>
				<g>
					<path fill="#939598" d="M188,136.1c3.8,3.8,7.4,1.8,9,0.6c0.5-0.4,0.3-0.5-0.3-0.6c-1.1-0.1-2.7-0.8-3.8-2.7
						c-1.6-2.7-4.9-0.3-4.9-0.3s-3.3-2.4-4.9,0.3c-1.1,1.9-2.7,2.6-3.8,2.7c-0.6,0.1-0.7,0.2-0.3,0.6
						C180.5,137.9,184.1,139.9,188,136.1z"/>
					<path fill="#808285" d="M196.7,136.1c-1.1-0.1-2.7-0.8-3.8-2.7c-1.6-2.7-4.9-0.3-4.9-0.3v2.9c3.8,3.8,7.4,1.8,9,0.6
						C197.4,136.3,197.3,136.2,196.7,136.1z"/>
				</g>
				<path fill="#804C2D" d="M193.1,117.1h-10.3c-0.3,0-0.5-0.2-0.5-0.5s0.2-0.5,0.5-0.5h10.3c0.3,0,0.5,0.2,0.5,0.5
					S193.4,117.1,193.1,117.1z"/>
				<path fill="#804C2D" d="M194.8,119.6h-13.6c-0.3,0-0.5-0.2-0.5-0.5c0-0.3,0.2-0.5,0.5-0.5h13.6c0.3,0,0.5,0.2,0.5,0.5
					C195.3,119.4,195.1,119.6,194.8,119.6z"/>
			</g>
		</g>
		<g>
			<path fill="#F69626" d="M326.6,102.7c-4.9-2.6-4.4-6.5-3.7-8.7c0.8-2.4,1.7-4.8,1.7-7.5v-7.1h-33.8v7.1c0,2.7,0.9,5.1,1.7,7.5
				c0.7,2.3,1.2,6.2-3.7,8.7c-0.8,0.4-1.2,1.3-0.7,2.1c1.9,3.1,7.4,9.9,19.7,9.9s17.8-6.8,19.7-9.9
				C327.8,104,327.4,103.1,326.6,102.7z"/>
			<path fill="#5592D7" d="M294.1,119.7c0-9,6.1-16.3,13.6-16.3s13.6,7.3,13.6,16.3H294.1z"/>
			<path opacity="0.1" d="M307.7,103.3v16.3h13.6C321.3,110.6,315.2,103.3,307.7,103.3z"/>
			<path fill="#F7C1A1" d="M313,104.6c-1.6-0.8-3.4-1.3-5.3-1.3s-3.7,0.5-5.3,1.3c0.6,2.4,2.7,4.2,5.3,4.2S312.4,107,313,104.6z"/>
			<rect x="305" y="94.7" fill="#F7C1A1" width="5.4" height="10.6"/>
			<path fill="#F5B090" d="M310.4,103.7v-8.9h-2.7v14.1c2.6,0,4.7-1.8,5.3-4.2C312.2,104.2,311.3,103.9,310.4,103.7z"/>
			<ellipse fill="#F7C1A1" cx="321.3" cy="83.4" rx="2.2" ry="4.1"/>
			<ellipse fill="#F7C1A1" cx="294.1" cy="83.4" rx="2.2" ry="4.1"/>
			<path fill="#F7C1A1" d="M307.7,65.2c-7.5,0-13.6,6.3-13.6,14.2v7.1c0,7.8,6.1,14.2,13.6,14.2s13.6-6.3,13.6-14.2v-7.1
				C321.3,71.5,315.2,65.2,307.7,65.2z"/>
			<path fill="#F5B090" d="M307.7,65.2c6,0,10.9,6.3,10.9,14.2v7.1c0,7.8-4.9,14.2-10.9,14.2c7.5,0,13.6-6.3,13.6-14.2v-7.1
				C321.3,71.5,315.2,65.2,307.7,65.2z"/>
			<path fill="#F69626" d="M307.7,61.9c-9.3,0-16.9,7.8-16.9,17.4h3.3c0,0,2.1-1.2,5-2.2c2.9-1,5.4-5.3,5.4-5.3
				c1.3,2.6,6.4,5.2,10,5.4c3.6,0.3,6.8,2.1,6.8,2.1h3.3C324.6,69.7,317,61.9,307.7,61.9z"/>
		</g>
		<g>
			<path fill="#513432" d="M205.5,245.2c-4.8-2.5-4.3-6.4-3.6-8.6c0.8-2.3,1.6-4.7,1.6-7.4v-6.9c0-9.4-7.4-17.1-16.5-17.1
				c-9.1,0-16.5,7.7-16.5,17.1v6.9c0,2.6,0.9,5,1.6,7.4c0.7,2.2,1.2,6-3.6,8.6c-0.8,0.4-1.2,1.3-0.7,2c1.8,3,7.2,9.7,19.3,9.7
				c12,0,17.4-6.7,19.3-9.7C206.7,246.4,206.3,245.6,205.5,245.2z"/>
			<g>
				<path fill="#FFB583" d="M173.6,261.8c0-8.8,6-16,13.3-16c7.4,0,13.3,7.2,13.3,16H173.6z"/>
				<path fill="#F7944B" d="M187,245.8v16h13.3C200.3,252.9,194.3,245.8,187,245.8z"/>
				<path fill="#5592D7" d="M181.8,247c-0.8,2.2,0,9.4,5.2,9.4v-10.7C185.1,245.8,183.4,246.2,181.8,247z"/>
				<path fill="#5592D7" d="M192.1,247c0.8,2.2,0,9.4-5.2,9.4v-10.7C188.8,245.8,190.5,246.2,192.1,247z"/>
			</g>
			<g>
				<path fill="#F7C1A1" d="M192.1,247c-1.6-0.8-3.3-1.3-5.2-1.3c-1.8,0-3.6,0.4-5.2,1.3c0.6,2.3,2.7,4.1,5.2,4.1
					C189.5,251.1,191.6,249.3,192.1,247z"/>
				<rect x="184.3" y="237.3" fill="#F7C1A1" width="5.3" height="10.3"/>
				<path fill="#F5B090" d="M189.6,246.1v-8.8H187v13.8c2.5,0,4.6-1.7,5.2-4.1C191.3,246.6,190.5,246.3,189.6,246.1z"/>
			</g>
			<ellipse fill="#F7C1A1" cx="200.3" cy="226.3" rx="2.1" ry="4"/>
			<path fill="#F7C1A1" d="M187,208.4c-7.4,0-13.3,6.2-13.3,13.9v6.9c0,7.7,6,13.9,13.3,13.9c7.4,0,13.3-6.2,13.3-13.9v-6.9
				C200.3,214.6,194.3,208.4,187,208.4z"/>
			<path fill="#F5B090" d="M187,208.4c5.9,0,10.7,6.2,10.7,13.9v6.9c0,7.7-4.8,13.9-10.7,13.9c7.4,0,13.3-6.2,13.3-13.9v-6.9
				C200.3,214.6,194.3,208.4,187,208.4z"/>
			<path fill="#513432" d="M187,205.2c-9.1,0-16.5,7.7-16.5,17.1v6.9c0,2.6,0.9,5,1.6,7.4c0.3,1,0.6,2.3,0.4,3.7h3.9
				c-1.1-2.9-0.6-12.7,5.5-15.6c6.1-2.9,10.4-9.7,10.4-9.7c3.8,1.7,8.2,7.3,8.2,7.3h3.2C203.5,212.9,196.1,205.2,187,205.2z"/>
		</g>
		<g>
			<path fill="#513432" d="M269.6,260c0.1,0.9,0.4,1.7,0.6,2.2c0.6,1.2,1,2.2,1,2.2h17.3l1-2.2c0.3-0.5,0.5-1.4,0.6-2.2H269.6z"/>
			<g>
				<path fill="#5592D7" d="M271.3,285.6c0-5.7,3.9-10.4,8.6-10.4s8.6,4.6,8.6,10.4H271.3z"/>
				<path opacity="0.1" d="M279.9,275.2v10.4h8.6C288.6,279.8,284.7,275.2,279.9,275.2z"/>
			</g>
			<g>
				<path fill="#F7C1A1" d="M283.3,276c-1-0.5-2.2-0.8-3.4-0.8s-2.3,0.3-3.4,0.8c0.4,1.5,1.7,2.6,3.4,2.6S282.9,277.5,283.3,276z"/>
				<rect x="278.2" y="269.7" fill="#F7C1A1" width="3.5" height="6.7"/>
				<path fill="#F5B090" d="M281.7,275.4v-5.7h-1.7v8.9c1.6,0,3-1.1,3.4-2.6C282.8,275.7,282.2,275.5,281.7,275.4z"/>
			</g>
			<ellipse fill="#F7C1A1" cx="288.6" cy="262.6" rx="1.4" ry="2.6"/>
			<ellipse fill="#F7C1A1" cx="271.3" cy="262.6" rx="1.4" ry="2.6"/>
			<path fill="#F7C1A1" d="M279.9,251c-4.8,0-8.6,4-8.6,9v4.5c0,5,3.9,9,8.6,9c4.8,0,8.6-4,8.6-9V260C288.6,255,284.7,251,279.9,251
				z"/>
			<path fill="#F5B090" d="M279.9,251c3.8,0,6.9,4,6.9,9v4.5c0,5-3.1,9-6.9,9c4.8,0,8.6-4,8.6-9V260C288.6,255,284.7,251,279.9,251z
				"/>
			<path fill="#513432" d="M275.3,249.4c-0.4-0.1-0.7-0.3-0.9-0.5c-0.4-0.4-0.6-0.5-0.6,0.1c-0.1,0.8,0,1.9,0,1.9
				c-0.7-0.1-1.3-0.5-1.8-0.9c-0.4-0.4-0.6-0.3-0.4,0.2c0.2,0.7,0.5,1.4,0.7,2c-1.2,1.2-2,2.7-2.6,4.3c-0.3,1-0.3,2.3-0.1,3.4h1.7
				c0,0,1.6-3.3,3.8-3.8c4,3.1,9-0.7,9-0.7s1,4.6,4.5,4.6h1.7c0.2-1.1,0.2-2.4-0.1-3.4c-1.4-4.4-5.4-7.7-10.2-7.7
				c-0.7,0-1.4,0.1-2,0.2C277,249.3,275.8,249.5,275.3,249.4z"/>
		</g>
		<g>
			<path fill="#513432" d="M102.8,324c0.1,0.9,0.4,1.7,0.6,2.2c0.6,1.2,1,2.2,1,2.2h17.3l1-2.2c0.3-0.5,0.5-1.4,0.6-2.2H102.8z"/>
			<g>
				<path fill="#5592D7" d="M104.4,349.6c0-5.7,3.9-10.4,8.6-10.4c4.8,0,8.6,4.6,8.6,10.4H104.4z"/>
				<path opacity="0.1" d="M113.1,339.2v10.4h8.6C121.7,343.8,117.9,339.2,113.1,339.2z"/>
			</g>
			<g>
				<path fill="#87583C" d="M116.4,340c-1-0.5-2.2-0.8-3.4-0.8c-1.2,0-2.3,0.3-3.4,0.8c0.4,1.5,1.7,2.6,3.4,2.6
					C114.7,342.6,116.1,341.5,116.4,340z"/>
				<rect x="111.4" y="333.7" fill="#87583C" width="3.5" height="6.7"/>
				<path fill="#804C2D" d="M114.8,339.4v-5.7h-1.7v8.9c1.6,0,3-1.1,3.4-2.6C115.9,339.7,115.4,339.5,114.8,339.4z"/>
			</g>
			<ellipse fill="#87583C" cx="121.7" cy="326.6" rx="1.4" ry="2.6"/>
			<ellipse fill="#87583C" cx="104.4" cy="326.6" rx="1.4" ry="2.6"/>
			<path fill="#87583C" d="M113.1,315c-4.8,0-8.6,4-8.6,9v4.5c0,5,3.9,9,8.6,9c4.8,0,8.6-4,8.6-9V324C121.7,319,117.9,315,113.1,315
				z"/>
			<path fill="#804C2D" d="M113.1,315c3.8,0,6.9,4,6.9,9v4.5c0,5-3.1,9-6.9,9c4.8,0,8.6-4,8.6-9V324C121.7,319,117.9,315,113.1,315z
				"/>
			<path fill="#513432" d="M108.4,313.4c-0.4-0.1-0.7-0.3-0.9-0.5c-0.4-0.4-0.6-0.5-0.6,0.1c-0.1,0.8,0,1.9,0,1.9
				c-0.7-0.1-1.3-0.5-1.8-0.9c-0.4-0.4-0.6-0.3-0.4,0.2c0.2,0.7,0.5,1.4,0.7,2c-1.2,1.2-2,2.7-2.6,4.3c-0.3,1-0.3,2.3-0.1,3.4h1.7
				c0,0,1.6-3.3,3.8-3.8c4,3.1,9-0.7,9-0.7s1,4.6,4.5,4.6h1.7c0.2-1.1,0.2-2.4-0.1-3.4c-1.4-4.4-5.4-7.7-10.2-7.7
				c-0.7,0-1.4,0.1-2,0.2C110.1,313.3,108.9,313.5,108.4,313.4z"/>
		</g>
		<g>
			<path fill="#F69626" d="M131.6,250.7v-12.4c0-9.4-7.4-17.1-16.5-17.1c-9.1,0-16.5,7.7-16.5,17.1v12.4c-4,1.3-6.8,5.1-6.8,9.5
				c0,5.5,4.5,10,10,10h26.7c5.5,0,10-4.5,10-10C138.4,255.8,135.5,252,131.6,250.7z"/>
			<g>
				<path fill="#5592D7" d="M101.7,277.8c0-8.8,6-16,13.3-16s13.3,7.2,13.3,16H101.7z"/>
				<path opacity="0.1" d="M115,261.8v16h13.3C128.4,268.9,122.4,261.8,115,261.8z"/>
				<path fill="#513432" d="M113.9,261.8v16h2.2v-16c-0.4,0-0.7-0.1-1.1-0.1S114.3,261.8,113.9,261.8z"/>
				<path fill="#513432" d="M115,267.2c0.9,1.3,2.4,2.2,4.2,2.2c2.3,0,4.2-1.5,4.8-3.5c-2.4-2.6-5.5-4.2-9-4.2c-3.5,0-6.6,1.6-9,4.2
					c0.6,2,2.6,3.5,4.8,3.5C112.6,269.5,114.1,268.6,115,267.2z"/>
			</g>
			<g>
				<path fill="#F7C1A1" d="M120.2,263c-1.6-0.8-3.3-1.3-5.2-1.3c-1.8,0-3.6,0.4-5.2,1.3c0.6,2.3,2.7,4.1,5.2,4.1
					C117.5,267.1,119.7,265.4,120.2,263z"/>
				<rect x="112.4" y="253.3" fill="#F7C1A1" width="5.3" height="10.3"/>
				<path fill="#F5B090" d="M117.7,262.1v-8.8H115v13.8c2.5,0,4.6-1.7,5.2-4.1C119.4,262.6,118.6,262.3,117.7,262.1z"/>
			</g>
			<ellipse fill="#F7C1A1" cx="128.4" cy="242.3" rx="2.1" ry="4"/>
			<ellipse fill="#F7C1A1" cx="101.7" cy="242.3" rx="2.1" ry="4"/>
			<path fill="#F7C1A1" d="M115,224.4c-7.4,0-13.3,6.2-13.3,13.9v6.9c0,7.7,6,13.9,13.3,13.9s13.3-6.2,13.3-13.9v-6.9
				C128.4,230.6,122.4,224.4,115,224.4z"/>
			<path fill="#F5B090" d="M115,224.4c5.9,0,10.7,6.2,10.7,13.9v6.9c0,7.7-4.8,13.9-10.7,13.9c7.4,0,13.3-6.2,13.3-13.9v-6.9
				C128.4,230.6,122.4,224.4,115,224.4z"/>
			<path fill="#F69626" d="M108.3,231.8c1.3,2.4,3.8,4.1,6.7,4.1c2.9,0,5.5-1.7,6.7-4.1c0.1,3.6,3,6.4,6.6,6.4
				c1.2,0,2.2-0.3,3.2-0.8c-0.4-9-7.7-16.3-16.5-16.3c-8.9,0-16.1,7.2-16.5,16.3c0.9,0.5,2,0.8,3.2,0.8
				C105.3,238.3,108.2,235.4,108.3,231.8z"/>
		</g>
		<g>
			<g>
				<path fill="#5592D7" d="M183.3,360.4c0-8.8,6-16,13.3-16c7.4,0,13.3,7.2,13.3,16H183.3z"/>
				<path opacity="0.1" d="M196.6,344.4v16H210C210,351.5,204,344.4,196.6,344.4z"/>
				<path fill="#5592D7" d="M187.7,348.6l9,6.9v-11.1C193.2,344.4,190,346,187.7,348.6z"/>
			</g>
			<path fill="#513432" d="M180.7,320.9c0.2,1.4,0.6,2.6,1,3.5c0.9,1.9,1.6,3.5,1.6,3.5H210l1.6-3.5c0.4-0.8,0.8-2.1,1-3.5H180.7z"
				/>
			<g>
				<path fill="#F7C1A1" d="M201.8,345.6c-1.6-0.8-3.3-1.3-5.2-1.3c-1.8,0-3.6,0.4-5.2,1.3c0.6,2.3,2.7,4.1,5.2,4.1
					C199.2,349.7,201.3,348,201.8,345.6z"/>
				<rect x="194" y="335.9" fill="#F7C1A1" width="5.3" height="10.3"/>
				<path fill="#F5B090" d="M199.3,344.7v-8.8h-2.7v13.8c2.5,0,4.6-1.7,5.2-4.1C201,345.2,200.2,344.9,199.3,344.7z"/>
			</g>
			<ellipse fill="#F7C1A1" cx="210" cy="324.9" rx="2.1" ry="4"/>
			<ellipse fill="#F7C1A1" cx="183.3" cy="324.9" rx="2.1" ry="4"/>
			<path fill="#F7C1A1" d="M196.6,307c-7.4,0-13.3,6.2-13.3,13.9v6.9c0,7.7,6,13.9,13.3,13.9c7.4,0,13.3-6.2,13.3-13.9v-6.9
				C210,313.2,204,307,196.6,307z"/>
			<path fill="#F5B090" d="M196.6,307c5.9,0,10.7,6.2,10.7,13.9v6.9c0,7.7-4.8,13.9-10.7,13.9c7.4,0,13.3-6.2,13.3-13.9v-6.9
				C210,313.2,204,307,196.6,307z"/>
			<path fill="#513432" d="M212.4,315.6c-0.7-2.2-1.8-4.2-3.3-6c0.3-0.8,0.4-1.6,0.5-2.5c0-0.2,0-0.5,0-0.8c0-2.2-0.7-4.3-1.9-6
				c-1.1,2.3-3.3,4-5.9,4.3c-1.6-0.6-3.4-0.9-5.2-0.9c-2.9,0-5.6,0.8-8,2.1c-3.6,2.1-6.4,5.5-7.7,9.7c-0.5,1.6-0.5,3.5-0.2,5.3h2.6
				c0,0,2.6-6,7.3-8.4c1.9,2.7,5,4.4,8.5,4.4c2.2,0,4.2-0.6,5.8-1.8c1.6,1,3.8,2.9,5,5.8h2.6C212.8,319.2,212.9,317.2,212.4,315.6z"
				/>
			<g>
				<path fill="#ED5E51" d="M210.4,320l-8,0c-1,0-2.5,0.2-3.3,0.8c-0.2,0.2-0.5,0.4-0.6,0.6h-1.8h-1.8c-0.2-0.2-0.4-0.4-0.6-0.6
					c-0.8-0.6-2.4-0.8-3.3-0.8l-8,0c-0.3,0-0.6,0.3-0.6,0.6c0,0.3,0.3,0.6,0.6,0.6h1.5c-0.2,0.6-0.4,1.2-0.4,1.9
					c0,2.8,2.5,5.1,5.5,5.1c2.8,0,5.2-2,5.5-4.6c0.3,0,0.5-0.3,0.5-0.6c0-0.1,0-0.2,0-0.4h1.3h1.3c0,0.1,0,0.2,0,0.4
					c0,0.3,0.2,0.5,0.5,0.6c0.3,2.6,2.6,4.6,5.5,4.6c3,0,5.5-2.3,5.5-5.1c0-0.7-0.1-1.3-0.4-1.9h1.5c0.3,0,0.6-0.3,0.6-0.6
					C211,320.3,210.7,320,210.4,320z M189.4,327.5c-2.7,0-4.9-2-4.9-4.5c0-0.7,0.2-1.3,0.4-1.9h5.6c1,0,2.4,0.2,3,0.6
					c0.4,0.3,0.7,0.7,0.7,1.1c0,0.1,0,0.2,0.1,0.3C194.2,325.6,192.1,327.5,189.4,327.5z M203.8,327.5c-2.6,0-4.8-1.9-4.9-4.3
					c0.1-0.1,0.1-0.2,0.1-0.3c0-0.5,0.3-0.8,0.7-1.1c0.6-0.5,2-0.6,3-0.6h5.6c0.3,0.6,0.4,1.2,0.4,1.9
					C208.7,325.5,206.5,327.5,203.8,327.5z"/>
				<path fill="#D94A3D" d="M210.4,320l-8,0c-1,0-2.5,0.2-3.3,0.8c-0.2,0.2-0.5,0.4-0.6,0.6h-1.8v1.2h1.3c0,0.1,0,0.2,0,0.4
					c0,0.3,0.2,0.5,0.5,0.6c0.3,2.6,2.6,4.6,5.5,4.6c3,0,5.5-2.3,5.5-5.1c0-0.7-0.1-1.3-0.4-1.9h1.5c0.3,0,0.6-0.3,0.6-0.6
					C211,320.3,210.7,320,210.4,320z M203.8,327.5c-2.6,0-4.8-1.9-4.9-4.3c0.1-0.1,0.1-0.2,0.1-0.3c0-0.5,0.3-0.8,0.7-1.1
					c0.6-0.5,2-0.6,3-0.6h5.6c0.3,0.6,0.4,1.2,0.4,1.9C208.7,325.5,206.5,327.5,203.8,327.5z"/>
			</g>
		</g>
		<g>
			<path fill="#513432" d="M126.9,160.4c-1.4-4.4-5.4-7.7-10.2-7.7c-4.8,0-8.8,3.2-10.2,7.7c-0.3,1-0.3,2.3-0.1,3.4
				c0.1,0.9,0.4,1.7,0.6,2.2c0.6,1.2,1,2.2,1,2.2h17.3l1-2.2c0.3-0.5,0.5-1.4,0.6-2.2C127.2,162.7,127.2,161.5,126.9,160.4z"/>
			<path fill="#5592D7" d="M108.1,189.4c0-5.7,3.9-10.4,8.6-10.4s8.6,4.6,8.6,10.4H108.1z"/>
			<path opacity="0.1" d="M116.7,179.1v10.4h8.6C125.4,183.7,121.5,179.1,116.7,179.1z"/>
			<path fill="#F7C1A1" d="M120.1,179.9c-1-0.5-2.2-0.8-3.4-0.8s-2.3,0.3-3.4,0.8c0.4,1.5,1.7,2.6,3.4,2.6S119.7,181.4,120.1,179.9z
				"/>
			<rect x="115" y="173.6" fill="#F7C1A1" width="3.5" height="6.7"/>
			<path fill="#F5B090" d="M118.4,179.3v-5.7h-1.7v8.9c1.6,0,3-1.1,3.4-2.6C119.5,179.6,119,179.4,118.4,179.3z"/>
			<ellipse fill="#F7C1A1" cx="125.4" cy="166.4" rx="1.4" ry="2.6"/>
			<ellipse fill="#F7C1A1" cx="108.1" cy="166.4" rx="1.4" ry="2.6"/>
			<path fill="#F7C1A1" d="M116.7,154.9c-4.8,0-8.6,4-8.6,9v4.5c0,5,3.9,9,8.6,9c4.8,0,8.6-4,8.6-9v-4.5
				C125.4,158.9,121.5,154.9,116.7,154.9z"/>
			<path fill="#F5B090" d="M116.7,154.9c3.8,0,6.9,4,6.9,9v4.5c0,5-3.1,9-6.9,9c4.8,0,8.6-4,8.6-9v-4.5
				C125.4,158.9,121.5,154.9,116.7,154.9z"/>
			<path fill="#513432" d="M125.3,155.4c-0.9,0.1-2.3-0.6-3.1-1.1c-1.6-1-3.5-1.5-5.4-1.5c-4.8,0-8.8,3.2-10.2,7.7
				c-0.3,1-0.3,2.3-0.1,3.4h1.7c0,0,2.5-5,5.9-5c3.5,0,3,3.2,7.7,3.2c6.7,0,6.1-6.8,6-7.5C127.6,154.6,126.7,155.2,125.3,155.4z"/>
			<path fill="#513432" d="M124.9,160.9c-0.2,2.8-0.8,7.9-2,8.7c0,0-2.4-1.1-6.2-1.1c-3.7,0-6.2,1.1-6.2,1.1c-1.2-0.8-1.8-5.8-2-8.7
				c-0.3,0.9-0.5,1.9-0.5,3v4.5c0,5,3.9,15.9,8.6,15.9c4.8,0,8.6-10.9,8.6-15.9v-4.5C125.4,162.8,125.2,161.8,124.9,160.9z"/>
			<path fill="#F7C1A1" d="M113.2,171.2c0.7,1.6,2,2.6,3.5,2.6c1.5,0,2.7-1.1,3.5-2.6H113.2z"/>
		</g>
		<g>
			<g>
				<path fill="#5592D7" d="M26.1,177.7c0-9,6.1-16.3,13.6-16.3c7.5,0,13.6,7.3,13.6,16.3H26.1z"/>
				<path opacity="0.1" d="M39.7,161.4v16.3h13.6C53.3,168.7,47.3,161.4,39.7,161.4z"/>
				<path fill="#E6820E" d="M49.5,166.4v11.3h3.8C53.3,173.3,51.9,169.3,49.5,166.4z"/>
				<path fill="#F7944B" d="M26.1,177.7h3.8v-11.3C27.6,169.3,26.1,173.3,26.1,177.7z"/>
			</g>
			<path fill="#513432" d="M55.8,132.1c-2.2-7-8.6-12.1-16.1-12.1c-7.5,0-13.9,5.1-16.1,12.1c-0.5,1.6-0.5,3.6-0.2,5.4
				c0.2,1.4,0.6,2.7,1,3.5c0.9,2,1.6,3.5,1.6,3.5h27.2L55,141c0.4-0.9,0.8-2.1,1-3.5C56.3,135.7,56.3,133.7,55.8,132.1z"/>
			<g>
				<path fill="#87583C" d="M45,162.7c-1.6-0.8-3.4-1.3-5.3-1.3c-1.9,0-3.7,0.5-5.3,1.3c0.6,2.4,2.7,4.2,5.3,4.2
					C42.3,166.8,44.4,165.1,45,162.7z"/>
				<rect x="37" y="152.8" fill="#87583C" width="5.4" height="10.6"/>
				<path fill="#804C2D" d="M42.5,161.7v-8.9h-2.7v14.1c2.6,0,4.7-1.8,5.3-4.2C44.2,162.3,43.3,161.9,42.5,161.7z"/>
			</g>
			<ellipse fill="#87583C" cx="53.4" cy="141.5" rx="2.2" ry="4.1"/>
			<ellipse fill="#87583C" cx="26.1" cy="141.5" rx="2.2" ry="4.1"/>
			<path fill="#87583C" d="M39.7,123.3c-7.5,0-13.6,6.3-13.6,14.2v7.1c0,7.8,6.1,14.2,13.6,14.2c7.5,0,13.6-6.3,13.6-14.2v-7.1
				C53.3,129.6,47.3,123.3,39.7,123.3z"/>
			<path fill="#804C2D" d="M39.7,123.3c6,0,10.9,6.3,10.9,14.2v7.1c0,7.8-4.9,14.2-10.9,14.2c7.5,0,13.6-6.3,13.6-14.2v-7.1
				C53.3,129.6,47.3,123.3,39.7,123.3z"/>
			<g>
				<path fill="#513432" d="M52.6,132.8c-0.4,4.5-1.3,12.4-3.1,13.6c0,0-3.8-1.8-9.7-1.8c-5.9,0-9.7,1.8-9.7,1.8
					c-1.9-1.3-2.8-9.2-3.1-13.6c-0.5,1.5-0.8,3-0.8,4.7v7.1c0,7.8,6.1,15.3,13.6,15.3c7.5,0,13.6-7.4,13.6-15.3v-7.1
					C53.3,135.8,53.1,134.2,52.6,132.8z"/>
				<path fill="#87583C" d="M34.3,149.1c1.1,2.5,3.1,4.2,5.4,4.2c2.3,0,4.3-1.7,5.4-4.2H34.3z"/>
			</g>
			<g>
				<path fill="#F7944B" d="M24.5,130.7c0-7.2,6.8-13,15.3-13c8.4,0,15.3,5.8,15.3,13H24.5z"/>
				<path fill="#E6820E" d="M39.7,117.7v13H55C55,123.5,48.2,117.7,39.7,117.7z"/>
				<path fill="#ED5E51" d="M56.1,129c-4-2.8-9.9-4.5-16.4-4.5c-6.5,0-12.4,1.7-16.4,4.5c-0.7,0.5-1.3,1.7-1.3,2.6v3.4
					c0,0.9,0.6,1.2,1.3,0.7c4-2.8,9.9-4.5,16.4-4.5c6.5,0,12.4,1.7,16.4,4.5c0.7,0.5,1.3,0.3,1.3-0.7v-3.4
					C57.4,130.7,56.9,129.5,56.1,129z"/>
				<g>
					<g>
						<path fill="#D94A3D" d="M25.4,127.8v6.7c-0.6,0.3-1.1,0.6-1.6,1v-6.7C24.3,128.4,24.8,128.1,25.4,127.8z"/>
					</g>
					<g>
						<path fill="#D94A3D" d="M28.8,126.3v6.7c-0.6,0.2-1.1,0.4-1.6,0.6V127C27.7,126.7,28.2,126.5,28.8,126.3z"/>
					</g>
					<g>
						<path fill="#D94A3D" d="M32.1,125.4v6.7c-0.6,0.1-1.1,0.3-1.6,0.4v-6.7C31,125.6,31.6,125.5,32.1,125.4z"/>
					</g>
					<g>
						<path fill="#D94A3D" d="M35.5,124.8v6.7c-0.6,0.1-1.1,0.1-1.6,0.2V125C34.4,124.9,34.9,124.9,35.5,124.8z"/>
					</g>
					<g>
						<path fill="#D94A3D" d="M38.9,124.6v6.7c-0.6,0-1.1,0-1.6,0.1v-6.7C37.8,124.6,38.3,124.6,38.9,124.6z"/>
					</g>
					<g>
						<path fill="#D94A3D" d="M42.2,124.6v6.7c-0.5,0-1.1-0.1-1.6-0.1v-6.7C41.1,124.6,41.7,124.6,42.2,124.6z"/>
					</g>
					<g>
						<path fill="#D94A3D" d="M45.6,125v6.7c-0.5-0.1-1.1-0.2-1.6-0.2v-6.7C44.5,124.9,45.1,124.9,45.6,125z"/>
					</g>
					<g>
						<path fill="#D94A3D" d="M49,125.8v6.7c-0.5-0.1-1.1-0.3-1.6-0.4v-6.7C47.9,125.5,48.4,125.6,49,125.8z"/>
					</g>
					<g>
						<path fill="#D94A3D" d="M52.3,127v6.7c-0.5-0.2-1.1-0.4-1.6-0.6v-6.7C51.3,126.5,51.8,126.7,52.3,127z"/>
					</g>
					<g>
						<path fill="#D94A3D" d="M55.7,128.8v6.7c-0.5-0.3-1.1-0.7-1.6-1v-6.7C54.6,128.1,55.2,128.4,55.7,128.8z"/>
					</g>
				</g>
			</g>
		</g>
		<g>
			<g>
				<path fill="#5592D7" d="M265.4,382.2c0-9,6.1-16.3,13.6-16.3s13.6,7.3,13.6,16.3H265.4z"/>
				<path opacity="0.1" d="M279,365.9v16.3h13.6C292.6,373.2,286.5,365.9,279,365.9z"/>
			</g>
			<g>
				<rect x="276.3" y="357.3" fill="#87583C" width="5.4" height="10.6"/>
				<path fill="#87583C" d="M284.3,367.2c-1.6-0.8-3.4-1.3-5.3-1.3s-3.7,0.5-5.3,1.3l0,0l5.3,7.8L284.3,367.2L284.3,367.2z"/>
				<path fill="#804C2D" d="M281.7,366.2v-8.9H279V375l0,0l5.3-7.8v0C283.5,366.8,282.6,366.4,281.7,366.2z"/>
			</g>
			<path fill="#513432" d="M263.4,336.6c-0.4-1.8,0.4-3.5,2.3-4.7c0.2-1.8,1.5-3.1,3.6-3.7c0.8-1.6,2.5-2.5,4.5-2.4
				c1.4-1.3,3.3-1.6,5.2-0.9c1.9-0.7,3.8-0.4,5.2,0.9c2.1-0.1,3.7,0.8,4.5,2.4c2,0.6,3.3,1.9,3.6,3.7c1.9,1.2,2.7,2.9,2.3,4.7
				c1.2,0.7,1.3,1.5,0.4,2.3c1,1,1,1.8-0.1,2.4c0.9,1.1,0.7,1.9-0.4,2.2c0.8,1.1,0.5,1.8-0.6,1.8c0.9,0.5,0.5,1.4-0.4,0.9
				c0.9,0.6,0.5,1.5-0.4,0.9c0.9,0.6,0.4,1.5-0.4,0.9c0.8,0.7,0.4,1.6-0.4,0.9c0.8,0.7-6.2,0.7-6.6,0c0.4,0.7-6.6,0.7-6.6,0
				c0,0.7-7,0.7-6.6,0c-0.4,0.7-7.4,0.7-6.6,0c-0.8,0.7-0.9,0.6-0.1-0.3c-0.9,0.5-1,0.3-0.3-0.7c-1,0.3-1.2-0.1-0.5-1.1
				c-1.1,0.2-1.3-0.3-0.6-1.3c-1.1,0-1.4-0.6-0.6-1.8c-1.1-0.3-1.3-1.1-0.4-2.2c-1.1-0.6-1.1-1.4-0.1-2.4
				C262.1,338.1,262.2,337.3,263.4,336.6z"/>
			<ellipse fill="#87583C" cx="292.6" cy="346" rx="2.2" ry="4.1"/>
			<ellipse fill="#87583C" cx="265.4" cy="346" rx="2.2" ry="4.1"/>
			<path fill="#87583C" d="M279,327.8c-7.5,0-13.6,6.3-13.6,14.2v7.1c0,7.8,6.1,14.2,13.6,14.2s13.6-6.3,13.6-14.2v-7.1
				C292.6,334.1,286.5,327.8,279,327.8z"/>
			<path fill="#804C2D" d="M279,327.8c6,0,10.9,6.3,10.9,14.2v7.1c0,7.8-4.9,14.2-10.9,14.2c7.5,0,13.6-6.3,13.6-14.2v-7.1
				C292.6,334.1,286.5,327.8,279,327.8z"/>
			<path fill="#513432" d="M295,338.8c0.9-0.7,0.8-1.5-0.4-2.3c0.4-1.8-0.4-3.5-2.3-4.7c-0.2-1.8-1.5-3.1-3.6-3.7
				c-0.8-1.6-2.5-2.5-4.5-2.4c-1.4-1.3-3.3-1.6-5.2-0.9c-1.9-0.7-3.8-0.4-5.2,0.9c-2.1-0.1-3.7,0.8-4.5,2.4c-2,0.6-3.3,1.9-3.6,3.7
				c-1.9,1.2-2.7,2.9-2.3,4.7c-1.2,0.7-1.3,1.5-0.4,2.3c-1,1-1,1.8,0.1,2.4c-0.2,0.3-0.3,0.5-0.4,0.7h2.7c1.6,3.5,4.9,2.9,4.4,0
				c-0.5-2.8,1.3-5.5,1.4-5.6c1.8,1.3,4.7,2.2,7.8,2.2s6-0.8,7.8-2.2c0.1,0.1,1.9,2.8,1.4,5.6c-0.5,2.9,2.7,3.5,4.4,0h2.7
				c-0.1-0.2-0.2-0.5-0.4-0.7C295.9,340.7,296,339.8,295,338.8z"/>
		</g>
	</g>
</g>
</svg>
