<?xml version="1.0" encoding="utf-8"?>
<!-- Generator: Adobe Illustrator 19.1.0, SVG Export Plug-In . SVG Version: 6.00 Build 0)  -->
<svg version="1.1" id="Layer_1" xmlns="http://www.w3.org/2000/svg" xmlns:xlink="http://www.w3.org/1999/xlink" x="0px" y="0px"
	 viewBox="0 0 490 340" enable-background="new 0 0 490 340" xml:space="preserve">
<g>
	<g>
		<g opacity="0.5">
			<path fill="#424242" d="M262.5,189.9c-0.7,4.2-1.8,8.1-3,10.7l-4.9,10.7h-82.5c0,0-2.2-4.8-4.9-10.7c-1.2-2.6-2.4-6.5-3-10.7
				H262.5z"/>
			<rect x="205" y="236.4" fill="#9B9B9B" width="16.5" height="32"/>
			<ellipse fill="#9B9B9B" cx="254.5" cy="202.3" rx="6.6" ry="12.4"/>
			<ellipse fill="#9B9B9B" cx="172.1" cy="202.3" rx="6.6" ry="12.4"/>
			<path fill="#9B9B9B" d="M213.3,147c-22.8,0-41.2,19.2-41.2,42.9v21.4c0,23.7,18.5,42.9,41.2,42.9s41.2-19.2,41.2-42.9v-21.4
				C254.5,166.2,236.1,147,213.3,147z"/>
			<path fill="#424242" d="M262.5,189.9h-8c0,0-8.7-21.8-21.9-21.8c-8.4,0-10,9.4-19.3,9.4c-9.3,0-10.9-9.4-19.3-9.4
				c-13.3,0-21.9,21.8-21.9,21.8h-8c-0.9-5.4-1-11.4,0.6-16.2c6.6-21.2,25.9-36.5,48.7-36.5s42,15.4,48.7,36.5
				C263.5,178.5,263.4,184.5,262.5,189.9z"/>
			<g>
				<rect x="204.5" y="266.6" fill="#FFFFFF" width="17.5" height="38.1"/>
				<polygon fill="#424242" points="208.1,289.4 213.3,312.4 218.2,290.1 215.1,273.4 218.4,270.2 213.3,266.6 208.1,270.1 
					210.9,272.9 				"/>
				<polygon opacity="0.15" points="222.9,263.7 218.9,276.4 213.4,267.8 207.6,276.6 203.5,263.9 204.1,263.6 213.3,266.6 
					222.5,263.6 				"/>
				<g>
					<path fill="#9B9B9B" d="M244.6,279.9C244.6,279.8,244.6,279.8,244.6,279.9c-0.4-0.6-0.8-1-1.1-1.5c-0.3-0.4-0.7-0.9-1-1.3
						c-0.1-0.1-0.1-0.1-0.2-0.2c-3.7-4.5-8.2-8.1-13.1-10.6c0,0,0,0,0,0c-2.4-1.2-4-1.9-6.7-2.6l0,0l-9.2,28.8l-9.2-28.8l0,0
						c-2.6,0.7-4.5,1.4-6.9,2.6c0,0,0,0,0,0c-14.8,7.5-25.2,25.1-25.2,45.5c0,0,0,0,0,0.1c0,0,0,0.1,0,0.1h0
						c0.2,13.6,18.5,24.5,41.2,24.5c22.6,0,41-11,41.2-24.5h0.1C254.5,299.7,250.7,288.5,244.6,279.9z"/>
				</g>
				<polygon fill="#FFFFFF" points="222.4,264.2 218.7,275.4 213.2,266.6 207.7,275.4 204.1,264.2 205.1,261.5 213.2,266.3 
					221.4,261.5 				"/>
			</g>
		</g>
		<g>
			<polygon opacity="0.5" fill="#D65656" points="298.4,155.8 295,152.4 213.1,234.3 131.1,152.4 127.7,155.8 209.6,237.7 
				127.7,319.7 131.1,323.1 213.1,241.1 295,323.1 298.4,319.7 216.5,237.7 			"/>
		</g>
	</g>
	<g>
		<g>
			<g>
				<path fill="#513432" d="M119.7,126.9c-14.8-7.8-13.4-19.6-11.1-26.4c2.3-7.2,5-14.6,5-22.7V56.3c0-29.1-22.9-52.7-51.1-52.7
					c-28.1,0-51,23.6-51,52.7v21.4c0,8.1,2.7,15.5,5,22.7c2.2,6.8,3.6,18.7-11.1,26.4c-2.4,1.3-3.7,3.9-2.3,6.2
					c5.6,9.2,22.3,29.9,59.4,29.9c37.1,0,53.8-20.7,59.4-29.9C123.4,130.7,122.1,128.1,119.7,126.9z"/>
				<g>
					<path fill="#5593D7" d="M103.7,178.1c0-27.3-18.4-49.4-41.2-49.4c-22.7,0-41.2,22.1-41.2,49.4l0,0c0,13.6,18.4,24.7,41.2,24.7
						S103.7,191.8,103.7,178.1L103.7,178.1z"/>
					<path fill="#F7944B" d="M78.5,132.6c-4.9-2.5-10.3-3.9-16-3.9s-11.1,1.4-16,3.9c-2.4,6.8,0,29.1,16,29.1l0,0
						C78.5,161.6,80.9,139.4,78.5,132.6z"/>
					<path opacity="0.1" d="M103.7,178.1L103.7,178.1L103.7,178.1c0-27.3-18.4-49.4-41.2-49.4v49.4l0,0v24.7
						C85.3,202.8,103.7,191.8,103.7,178.1L103.7,178.1L103.7,178.1z"/>
				</g>
				<g>
					<path fill="#F7C1A1" d="M78.5,132.6c-4.9-2.5-10.3-3.9-16-3.9c-5.7,0-11.1,1.4-16,3.9c1.7,7.2,8.2,12.6,16,12.6
						C70.3,145.2,76.8,139.8,78.5,132.6z"/>
					<rect x="54.3" y="102.7" fill="#F7C1A1" width="16.5" height="31.9"/>
					<path fill="#F5B090" d="M70.8,129.7v-27h-8.2v42.5c7.8,0,14.2-5.4,16-12.6C76.1,131.3,73.5,130.4,70.8,129.7z"/>
				</g>
				<ellipse fill="#F7C1A1" cx="103.7" cy="68.6" rx="6.6" ry="12.4"/>
				<path fill="#F7C1A1" d="M62.5,13.4c-22.7,0-41.2,19.2-41.2,42.8v21.4c0,23.6,18.4,42.8,41.2,42.8c22.7,0,41.2-19.2,41.2-42.8
					V56.3C103.7,32.6,85.3,13.4,62.5,13.4z"/>
				<path fill="#F5B090" d="M62.5,13.4c18.2,0,32.9,19.2,32.9,42.8v21.4c0,23.6-14.7,42.8-32.9,42.8c22.7,0,41.2-19.2,41.2-42.8
					V56.3C103.7,32.6,85.3,13.4,62.5,13.4z"/>
				<path fill="#513432" d="M62.5,3.6c-28.1,0-51,23.6-51,52.7v21.4c0,8.1,2.7,15.5,5,22.7c1,3.1,1.8,7.1,1.1,11.4h12
					c-3.3-9.1-2-39.3,16.9-48.2c18.9-8.9,32-30.1,32-30.1c11.9,5.4,25.2,22.6,25.2,22.6h9.9C113.6,27.2,90.7,3.6,62.5,3.6z"/>
			</g>
		</g>
	</g>
	<g>
		<g>
			<polygon opacity="0.15" points="346.3,137.2 277.2,137.2 277.2,58.2 290.3,45.1 346.3,45.1 			"/>
			<polygon fill="#EDEDED" points="343.2,134.1 274.1,134.1 274.1,55.2 287.3,42 343.2,42 			"/>
			<g>
				<rect x="284.8" y="58.9" fill="#5592D7" width="47.6" height="2.3"/>
				<rect x="284.8" y="68.9" fill="#5592D7" width="47.6" height="2.3"/>
				<rect x="284.8" y="78.9" fill="#5592D7" width="47.6" height="2.3"/>
				<rect x="284.8" y="88.8" fill="#5592D7" width="47.6" height="2.3"/>
				<rect x="284.8" y="98.8" fill="#5592D7" width="47.6" height="2.3"/>
				<rect x="284.8" y="108.8" fill="#5592D7" width="47.6" height="2.3"/>
				<rect x="284.8" y="118.8" fill="#5592D7" width="47.6" height="2.3"/>
			</g>
			<g>
				<g>
					<polygon opacity="3.000000e-002" points="287.1,42 274.1,55 274.1,55 287.1,42 					"/>
					<polygon opacity="3.000000e-002" points="287.1,42 287.1,55 274.1,55 274.1,55.8 287.9,55.8 287.9,42 					"/>
				</g>
				<g>
					<polygon opacity="3.000000e-002" points="287.1,42 287.1,55 274.1,55 274.1,56.6 288.7,56.6 288.7,42 					"/>
					<polygon opacity="3.000000e-002" points="287.1,42 274.1,55 274.1,55 287.1,42 					"/>
				</g>
				<g>
					<polygon opacity="3.000000e-002" points="287.1,42 274.1,55 274.1,55 287.1,42 					"/>
					<polygon opacity="3.000000e-002" points="287.1,42 287.1,55 274.1,55 274.1,57.4 289.5,57.4 289.5,42 					"/>
				</g>
				<polygon opacity="3.000000e-002" points="287.7,42 287.1,42.6 287.1,55 274.7,55 274.1,55.6 274.1,58.1 290.2,58.1 290.2,42 
									"/>
				<polygon opacity="3.000000e-002" points="287.2,42 287.1,42.1 287.1,55 274.2,55 274.1,55.1 274.1,58.9 291,58.9 291,42 				"/>
				<polygon fill="#EDEDED" points="287.1,42 274.1,55 287.1,55 				"/>
			</g>
		</g>
		<g>
			<polygon opacity="0.15" points="487.5,134.8 418.5,139.2 413.4,60.4 425.7,46.4 481.6,42.8 			"/>
			<polygon fill="#EDEDED" points="484.2,131.9 415.3,136.4 410.2,57.6 422.5,43.6 478.3,40 			"/>
			<g>
				
					<rect x="421.2" y="59" transform="matrix(0.9979 -6.435905e-002 6.435905e-002 0.9979 -2.9519 28.7634)" fill="#5592D7" width="47.6" height="2.3"/>
				
					<rect x="421.8" y="69" transform="matrix(0.9979 -6.435905e-002 6.435905e-002 0.9979 -3.5917 28.8254)" fill="#5592D7" width="47.6" height="2.3"/>
				
					<rect x="422.5" y="79" transform="matrix(0.9979 -6.435905e-002 6.435905e-002 0.9979 -4.2316 28.8874)" fill="#5592D7" width="47.6" height="2.3"/>
				
					<rect x="423.1" y="88.9" transform="matrix(0.9979 -6.435905e-002 6.435905e-002 0.9979 -4.8715 28.9494)" fill="#5592D7" width="47.6" height="2.3"/>
				
					<rect x="423.7" y="98.9" transform="matrix(0.9979 -6.435905e-002 6.435905e-002 0.9979 -5.5113 29.0114)" fill="#5592D7" width="47.6" height="2.3"/>
				
					<rect x="424.4" y="108.9" transform="matrix(0.9979 -6.435905e-002 6.435905e-002 0.9979 -6.1512 29.0734)" fill="#5592D7" width="47.6" height="2.3"/>
				
					<rect x="425" y="118.8" transform="matrix(0.9979 -6.435905e-002 6.435905e-002 0.9979 -6.791 29.1354)" fill="#5592D7" width="47.6" height="2.3"/>
			</g>
			<g>
				<g>
					<polygon opacity="3.000000e-002" points="422.3,43.6 410.2,57.4 410.2,57.4 422.4,43.6 					"/>
					<polygon opacity="3.000000e-002" points="422.4,43.6 423.2,56.6 410.2,57.4 410.2,58.2 424,57.3 423.1,43.5 					"/>
				</g>
				<g>
					<polygon opacity="3.000000e-002" points="422.4,43.6 423.2,56.6 410.2,57.4 410.3,59 424.8,58 423.9,43.5 					"/>
					<polygon opacity="3.000000e-002" points="422.3,43.6 410.2,57.4 410.2,57.4 422.4,43.6 					"/>
				</g>
				<g>
					<polygon opacity="3.000000e-002" points="422.3,43.6 410.2,57.4 410.2,57.4 422.4,43.6 					"/>
					<polygon opacity="3.000000e-002" points="422.4,43.6 423.2,56.6 410.2,57.4 410.3,59.7 425.6,58.8 424.7,43.4 					"/>
				</g>
				<polygon opacity="3.000000e-002" points="422.9,43.5 422.4,44.1 423.2,56.6 410.7,57.4 410.2,58 410.4,60.5 426.5,59.5 
					425.4,43.4 				"/>
				<polygon opacity="3.000000e-002" points="422.4,43.6 422.4,43.7 423.2,56.6 410.3,57.4 410.2,57.5 410.4,61.3 427.3,60.2 
					426.2,43.3 				"/>
				<polygon fill="#EDEDED" points="422.4,43.6 410.2,57.4 423.2,56.6 				"/>
			</g>
		</g>
		<g>
			<polygon opacity="0.15" points="449,166.4 310.9,161.5 313.4,89.4 334.1,70.1 452.2,74.3 			"/>
			<polygon fill="#EDEDED" points="446,163.2 307.9,158.4 310.7,79.3 324.2,66.7 449.3,71.1 			"/>
			
				<rect x="318.7" y="77.9" transform="matrix(0.9994 3.515439e-002 -3.515439e-002 0.9994 4.2678 -13.2381)" fill="#8FB8E2" width="119.8" height="73.7"/>
			
				<rect x="318" y="119.3" transform="matrix(0.9994 3.515439e-002 -3.515439e-002 0.9994 4.9958 -13.1997)" fill="#96B548" width="119.8" height="32.3"/>
			<g>
				<defs>
					
						<rect id="SVGID_1_" x="318.7" y="77.9" transform="matrix(0.9994 3.515439e-002 -3.515439e-002 0.9994 4.2678 -13.2381)" width="119.8" height="73.7"/>
				</defs>
				<clipPath id="SVGID_2_">
					<use xlink:href="#SVGID_1_"  overflow="visible"/>
				</clipPath>
				<g clip-path="url(#SVGID_2_)">
					<g>
						<path fill="#5593D7" d="M389.3,152.4c0.2-6.2-3.8-11.3-8.9-11.5c-5.1-0.2-9.4,4.7-9.7,10.9l0,0c-0.1,3.1,4,5.7,9.1,5.9
							C384.9,157.8,389.2,155.5,389.3,152.4L389.3,152.4z"/>
						<g>
							<path fill="#5593D7" d="M370.8,151.6c0.2-6.1,4.5-11,9.7-10.8s9.1,5.3,8.9,11.4L370.8,151.6z"/>
						</g>
						<g>
							<path fill="#F7C1A1" d="M380.2,148.2c2.9,0.1,5.4-1.4,6.8-3.8c-1.6-2.1-3.9-3.5-6.5-3.6c-2.6-0.1-5,1.1-6.7,3.1
								C374.8,146.4,377.3,148.1,380.2,148.2z"/>
							
								<rect x="378.6" y="135" transform="matrix(0.9994 3.515439e-002 -3.515439e-002 0.9994 5.1062 -13.2907)" fill="#F7C1A1" width="3.7" height="7.2"/>
						</g>
						<g>
							<path fill="#F69626" d="M386.2,113.9L386.2,113.9c1.3-1.4,3.1-2.2,5.2-2.1c3.7,0.1,6.7,3.3,6.5,7c0,0.8-0.2,1.5-0.4,2.1
								c-0.7-1.7-2-3.1-3.7-3.7c0,0,3.5,5.3,0.7,11.8c-2.8,6.6,1.1,9.4,1.1,9.4s-6.1,4.7-11.6-0.8l-3.4-0.1l0.8-22.6L386.2,113.9z"
								/>
							<path fill="#F69626" d="M376.5,113.6L376.5,113.6c-1.2-1.5-3-2.4-5-2.5c-3.7-0.1-6.9,2.8-7,6.5c0,0.8,0.1,1.5,0.3,2.2
								c0.8-1.6,2.2-2.9,4-3.5c0,0-3.9,5-1.6,11.7c2.3,6.8-1.7,9.3-1.7,9.3s5.8,5.2,11.6,0l3.4,0.1l0.8-22.6L376.5,113.6z"/>
						</g>
						<path fill="#F7C1A1" d="M381.3,114.9c-5.1-0.2-9.4,4-9.6,9.3l-0.2,4.8c-0.2,5.3,3.8,9.8,8.9,10c5.1,0.2,9.4-4,9.6-9.3l0.2-4.8
							C390.4,119.5,386.5,115.1,381.3,114.9z"/>
						<g>
							<path fill="#ED5E51" d="M376.5,113.6L376.5,113.6L376.5,113.6c-0.3-0.4-0.7-0.8-1.1-1.1c-0.8,0.2-1.8,0.8-2.8,1.7
								c-1.6,1.5-2.4,3.1-1.8,3.7c0.5,0.6,2.3-0.1,3.8-1.6C375.6,115.4,376.3,114.4,376.5,113.6z"/>
							<path fill="#ED5E51" d="M386.2,113.9L386.2,113.9L386.2,113.9c0.4-0.4,0.8-0.7,1.2-1c0.8,0.2,1.7,0.9,2.7,1.9
								c1.5,1.6,2.2,3.3,1.6,3.8c-0.6,0.5-2.2-0.3-3.7-1.8C387,115.8,386.4,114.7,386.2,113.9z"/>
							<path fill="#F69626" d="M392.1,121.3c-1.3-4.8-5.5-8.4-10.6-8.6c-5.1-0.2-9.6,3.1-11.2,7.8c-0.4,1.1-0.4,2.4-0.3,3.6l1.8,0.1
								c0,0,7.7-0.6,9.4-4.6l0,0c1.4,4.1,9.1,5.2,9.1,5.2l1.8,0.1C392.3,123.7,392.4,122.4,392.1,121.3z"/>
						</g>
					</g>
					<g>
						<path fill="#513432" d="M352.3,135.4L352.3,135.4c-10.1-0.4-18-8.8-17.6-18.9l0.4-11.9c0.4-10.1,8.8-18,18.9-17.6h0
							c10.1,0.4,18,8.8,17.6,18.9l-0.4,11.9C370.9,127.9,362.4,135.8,352.3,135.4z"/>
						<g>
							<path fill="#5593D7" d="M366,148.5c0.3-9.5-5.8-17.5-13.8-17.8c-7.9-0.3-14.6,7.2-15,16.7l0,0c-0.2,4.8,6.1,8.9,14.1,9.1
								C359.3,156.9,365.8,153.3,366,148.5L366,148.5z"/>
							<path fill="#F7944B" d="M357.8,132.3c-1.7-0.9-3.6-1.5-5.5-1.5c-2-0.1-3.9,0.3-5.6,1.2c-0.9,2.4-0.4,10.2,5.2,10.3l0,0
								C357.4,142.4,358.5,134.7,357.8,132.3z"/>
						</g>
						<g>
							<path fill="#F7C1A1" d="M357.8,132.3c-1.7-0.9-3.6-1.5-5.5-1.5c-2-0.1-3.9,0.3-5.6,1.2c0.5,2.5,2.7,4.5,5.4,4.6
								S357.1,134.8,357.8,132.3z"/>
							
								<rect x="349.5" y="121.6" transform="matrix(0.9994 3.515439e-002 -3.515439e-002 0.9994 4.6903 -12.3085)" fill="#F7C1A1" width="5.8" height="11.2"/>
						</g>
						<path fill="#F7C1A1" d="M353.7,90.5c-7.9-0.3-14.6,6.2-14.9,14.4l-0.3,7.5c-0.3,8.3,5.9,15.2,13.9,15.5
							c7.9,0.3,14.6-6.2,14.9-14.4l0.3-7.5C367.8,97.7,361.6,90.8,353.7,90.5z"/>
						<path fill="#513432" d="M353.8,87c-9.8-0.3-18.1,7.6-18.5,17.8l-0.3,7.5c-0.1,2.8,0.7,5.5,1.5,8c0.3,1.1,0.5,2.5,0.2,4
							l4.2,0.1c-1-3.2-0.2-13.7,6.5-16.6c6.7-2.9,11.5-10.1,11.5-10.1c4.1,2,8.5,8.2,8.5,8.2l3.5,0.1
							C371.3,95.9,363.6,87.4,353.8,87z"/>
					</g>
				</g>
			</g>
			<g>
				<g>
					<polygon opacity="3.000000e-002" points="324.2,66.7 323.7,79.8 310.7,79.3 310.6,80.1 324.5,80.6 324.9,66.8 					"/>
				</g>
				<g>
					<polygon opacity="3.000000e-002" points="324.2,66.7 323.7,79.8 310.7,79.3 310.6,80.8 325.2,81.4 325.7,66.8 					"/>
				</g>
				<g>
					<polygon opacity="3.000000e-002" points="324.2,66.7 323.7,79.8 310.7,79.3 310.6,81.6 325.9,82.2 326.5,66.8 					"/>
				</g>
				<polygon opacity="3.000000e-002" points="324.8,66.7 324.2,66.7 323.7,79.8 310.7,79.3 310.7,79.9 310.6,82.4 326.7,83 
					327.3,66.8 				"/>
				<polygon opacity="3.000000e-002" points="324.3,66.7 324.2,66.7 323.7,79.8 310.8,79.3 310.7,79.3 310.5,83.2 327.4,83.7 
					328,66.9 				"/>
				<polygon fill="#EDEDED" points="324.2,66.7 310.7,79.3 323.7,79.8 				"/>
			</g>
		</g>
	</g>
</g>
</svg>
