<?xml version="1.0" encoding="utf-8"?>
<!-- Generator: Adobe Illustrator 19.1.0, SVG Export Plug-In . SVG Version: 6.00 Build 0)  -->
<svg version="1.1" id="Layer_1" xmlns="http://www.w3.org/2000/svg" xmlns:xlink="http://www.w3.org/1999/xlink" x="0px" y="0px"
	 viewBox="0 0 103 81" enable-background="new 0 0 103 81" xml:space="preserve">
<g>
	<g>
		<path fill="#FFFFFF" d="M61.9,38.3V26.4H50.1c-4.9,0-9,4-9,9v11.9h11.8C57.9,47.3,61.9,43.2,61.9,38.3z"/>
		<path fill="#FFFFFF" d="M37.7,35.4c0-6.8,5.6-12.4,12.4-12.4h11.8V11.1c0-4.9-4-9-9-9H11.3c-4.9,0-9,4-9,9v43.5l16.2-7.3h19.1
			V35.4z"/>
	</g>
	<path fill="#FFFFFF" d="M91.7,26.4H50.1c-4.9,0-9,4-9,9v27.2c0,4.9,4,9,9,9h34.4l16.2,7.3V35.4C100.6,30.4,96.6,26.4,91.7,26.4z
		 M62.9,50.8c-0.5,0.5-1.1,0.8-2,0.8s-1.5-0.2-2-0.7s-0.7-1.2-0.7-2.1c0-0.9,0.2-1.6,0.7-2c0.5-0.5,1.1-0.7,2-0.7
		c0.9,0,1.6,0.2,2,0.7c0.5,0.5,0.7,1.2,0.7,2C63.6,49.6,63.4,50.3,62.9,50.8z M73.2,50.8c-0.5,0.5-1.1,0.8-2,0.8s-1.5-0.2-2-0.7
		s-0.7-1.2-0.7-2.1c0-0.9,0.2-1.6,0.7-2c0.5-0.5,1.1-0.7,2-0.7c0.9,0,1.6,0.2,2,0.7c0.5,0.5,0.7,1.2,0.7,2
		C73.9,49.6,73.6,50.3,73.2,50.8z M83.4,50.8c-0.5,0.5-1.1,0.8-2,0.8s-1.5-0.2-2-0.7c-0.5-0.5-0.7-1.2-0.7-2.1c0-0.9,0.2-1.6,0.7-2
		c0.5-0.5,1.1-0.7,2-0.7c0.9,0,1.6,0.2,2,0.7s0.7,1.2,0.7,2C84.1,49.6,83.9,50.3,83.4,50.8z"/>
</g>
</svg>
