<?xml version="1.0" encoding="utf-8"?>
<!-- Generator: Adobe Illustrator 18.1.1, SVG Export Plug-In . SVG Version: 6.00 Build 0)  -->
<svg version="1.1" id="Layer_1" xmlns="http://www.w3.org/2000/svg" xmlns:xlink="http://www.w3.org/1999/xlink" x="0px" y="0px"
	 width="146px" height="42px" viewBox="0 0 146 42" enable-background="new 0 0 146 42" xml:space="preserve">
<g>
	<g>
		<g>
			<path fill="#99BEE7" d="M140.2,8.9V25l-13.6-7.8l0,0c-4-2.3-3.7-3.8-3.8-7l14,8.1v-7.4L140.2,8.9z"/>
			<g>
				<path fill="#5592D7" d="M136.8,18.2l-14-8.1l13.6-7.8l0,0c4-2.3,5.1-1.3,8,0.3l-14,8.1l6.4,3.7L136.8,18.2z"/>
			</g>
			<path fill="#29578A" d="M130.5,10.6l14-8.1v15.7l0,0c0,4.7-1.4,5.1-4.2,6.8V8.9l-6.4,3.7L130.5,10.6z"/>
		</g>
		<g>
			<path fill="#5592D7" d="M21.7,40.7c-0.1-0.9-1.2-14-1.2-14c-0.1-1.5-0.1-3-0.1-3h-0.1c0,0-0.3,1.4-0.7,3c0,0-3.7,12.8-4.1,14
				h-2.9c-0.4-1-4.1-14-4.1-14c-0.5-1.6-0.7-3-0.7-3H7.6c0,0,0.1,1.4-0.1,3c0,0-1.2,13-1.2,14H1.6l2.6-24.4h5.6L13.6,30
				c0.4,1.5,0.6,2.7,0.6,2.7h0.1c0,0,0.2-1.2,0.7-2.7l4-13.6h5.6l2.6,24.4H21.7z"/>
			<path fill="#5592D7" d="M36.3,41.1c-5.5,0-8.4-2.1-8.4-6c0-4.9,4.9-6.4,10.7-6.9v-0.9c0-2-1.3-2.5-3.4-2.5c-1.8,0-3.7,0.6-5,1.2
				l-1.2-3.2c1.3-0.6,3.8-1.5,7.2-1.5c4.3,0,7.5,1.8,7.5,7v11.4C42.2,40.5,39.6,41.1,36.3,41.1z M38.6,30.7
				c-3.3,0.3-5.5,1.1-5.5,4.1c0,2.2,1.3,3.2,3.5,3.2c0.8,0,1.5-0.1,2-0.4V30.7z"/>
			<path fill="#5592D7" d="M48.5,18.8c-1.6,0-2.9-1.1-2.9-2.6c0-1.4,1.3-2.6,2.9-2.6c1.6,0,2.9,1.2,2.9,2.6
				C51.4,17.6,50.1,18.8,48.5,18.8z M45.7,40.7V21.7h5.5v19.1H45.7z"/>
			<path fill="#5592D7" d="M62.4,41.1c-5.8,0-9.4-3.4-9.4-9.8c0-6.1,3.5-9.9,8.4-9.9c1.1,0,2.1,0.1,2.8,0.3V13h5.5v26.7
				C67.9,40.6,65.7,41.1,62.4,41.1z M64.2,24.7c-0.5-0.1-1-0.2-1.5-0.2c-3,0-4.2,2.6-4.2,6.5c0,4.1,1.2,6.5,4,6.5
				c0.7,0,1.3-0.1,1.7-0.3V24.7z"/>
			<path fill="#5592D7" d="M78.5,41.1c-3,0-5-0.5-6.4-1.5l1.3-4c0.8,0.5,2.2,1.1,3.9,1.1c2,0,3.3-1.2,3.3-2.9c0-1.6-0.9-2.5-3.4-3.6
				c-3.8-1.7-4.8-4.4-4.8-6.7c0-4.1,3-7.5,7.7-7.5c2.6,0,4.5,0.6,5.7,1.4L84.5,21c-0.8-0.5-2.2-1.1-3.6-1.1C79,19.9,78,21,78,22.7
				c0,1.8,1.2,2.7,3.3,3.6c4.7,2.1,5.4,4.7,5.4,7.2C86.6,37.8,83.3,41.1,78.5,41.1z"/>
			<path fill="#5592D7" d="M96,41.1c-5.5,0-8.4-2.1-8.4-6c0-4.9,4.9-6.4,10.7-6.9v-0.9c0-2-1.3-2.5-3.4-2.5c-1.8,0-3.7,0.6-5,1.2
				l-1.2-3.2c1.3-0.6,3.8-1.5,7.2-1.5c4.3,0,7.5,1.8,7.5,7v11.4C101.8,40.5,99.3,41.1,96,41.1z M98.3,30.7c-3.3,0.3-5.5,1.1-5.5,4.1
				c0,2.2,1.3,3.2,3.5,3.2c0.8,0,1.5-0.1,2-0.4V30.7z"/>
			<path fill="#5592D7" d="M112,25.2v15.5h-5.5V25.2h-2.1v-3.6h2.1v-1.9c0-4.8,3.3-7.3,8.5-6.7v3.5c-1.8-0.1-2.9,0.6-2.9,2.8v2.4
				h2.9v3.6H112z"/>
			<path fill="#5592D7" d="M120.2,33.1c0.4,2.8,1.8,4.2,4.6,4.2c2.2,0,3.9-0.5,5-1l1.2,3.4c-1.5,0.7-3.6,1.4-6.8,1.4
				c-5.8,0-9.2-3.9-9.2-9.9c0-6,3.1-9.8,8.6-9.8c5.5,0,8.3,3.8,8.1,10.2L120.2,33.1z M123.4,24.6c-2.3,0-3.7,1.9-3.5,5.9l6.7-1
				C126.5,26,125.4,24.6,123.4,24.6z"/>
		</g>
	</g>
</g>
</svg>
