<?xml version="1.0" encoding="utf-8"?>
<!-- Generator: Adobe Illustrator 19.0.1, SVG Export Plug-In . SVG Version: 6.00 Build 0)  -->
<svg version="1.1" id="Layer_1" xmlns="http://www.w3.org/2000/svg" xmlns:xlink="http://www.w3.org/1999/xlink" x="0px" y="0px"
	 viewBox="0 0 165 49" enable-background="new 0 0 165 49" xml:space="preserve">
<g id="XMLID_266_">
	<g id="XMLID_267_">
		<g id="XMLID_290_">
			<path id="XMLID_293_" fill="#FFFFFF" d="M158.2,10.9v18L143,20.2l0,0c-4.5-2.6-4.2-4.2-4.2-7.9l15.7,9v-8.2L158.2,10.9z"/>
			<path id="XMLID_292_" opacity="0.6" fill="#FFFFFF" d="M154.4,21.3l-15.7-9L154,3.5l0,0c4.6-2.6,5.8-1.5,9,0.3l-15.7,9l7.2,4.1
				L154.4,21.3z"/>
			<path id="XMLID_291_" opacity="0.25" fill="#FFFFFF" d="M147.3,12.9l15.7-9v17.5l0,0c0,5.2-1.6,5.7-4.8,7.6v-18l-7.2,4.1
				L147.3,12.9z"/>
		</g>
		<g id="XMLID_268_">
			<path id="XMLID_288_" fill="#FFFFFF" d="M24.6,46.6c-0.1-1-1.4-15.7-1.4-15.7c-0.2-1.7-0.1-3.3-0.1-3.3h-0.1c0,0-0.3,1.6-0.8,3.3
				c0,0-4.1,14.3-4.6,15.7h-3.2c-0.4-1.1-4.6-15.7-4.6-15.7c-0.5-1.7-0.8-3.3-0.8-3.3H8.8c0,0,0.1,1.6-0.1,3.3
				c0,0-1.3,14.5-1.4,15.7H2l2.9-27.3h6.3l4.3,15.3c0.5,1.7,0.7,3.1,0.7,3.1h0.1c0,0,0.3-1.4,0.8-3.1l4.5-15.3h6.3l3,27.3H24.6z"/>
			<path id="XMLID_285_" fill="#FFFFFF" d="M41.1,47c-6.2,0-9.4-2.3-9.4-6.7c0-5.5,5.5-7.1,12-7.7v-1c0-2.2-1.5-2.9-3.8-2.9
				c-2.1,0-4.2,0.7-5.6,1.3L33,26.5c1.5-0.6,4.3-1.6,8.1-1.6c4.9,0,8.5,2,8.5,7.8v12.8C47.7,46.4,44.8,47,41.1,47z M43.7,35.4
				c-3.8,0.4-6.2,1.2-6.2,4.6c0,2.5,1.4,3.6,3.9,3.6c0.9,0,1.7-0.2,2.3-0.4V35.4z"/>
			<path id="XMLID_282_" fill="#FFFFFF" d="M54.9,22c-1.8,0-3.3-1.3-3.3-2.9c0-1.6,1.5-2.9,3.3-2.9c1.8,0,3.3,1.3,3.3,2.9
				C58.2,20.7,56.7,22,54.9,22z M51.8,46.6V25.2H58v21.4H51.8z"/>
			<path id="XMLID_279_" fill="#FFFFFF" d="M70.5,47c-6.5,0-10.6-3.8-10.6-10.9c0-6.9,3.9-11.1,9.5-11.1c1.3,0,2.4,0.2,3.2,0.4v-9.9
				h6.2v29.9C76.8,46.4,74.2,47,70.5,47z M72.6,28.7c-0.5-0.2-1.1-0.2-1.7-0.2c-3.4,0-4.7,2.9-4.7,7.3c0,4.6,1.4,7.3,4.5,7.3
				c0.8,0,1.5-0.1,1.9-0.3V28.7z"/>
			<path id="XMLID_277_" fill="#FFFFFF" d="M88.6,47c-3.4,0-5.6-0.6-7.2-1.6l1.5-4.5c0.9,0.6,2.5,1.3,4.4,1.3c2.3,0,3.7-1.3,3.7-3.3
				c0-1.7-1-2.8-3.8-4c-4.3-1.9-5.5-4.9-5.5-7.5c0-4.6,3.4-8.4,8.7-8.4c3,0,5.1,0.7,6.4,1.6l-1.4,3.9c-1-0.6-2.4-1.2-4.1-1.2
				c-2.2,0-3.3,1.2-3.3,3.1c0,2,1.4,3,3.7,4c5.3,2.4,6.1,5.3,6.1,8C97.9,43.4,94.1,47,88.6,47z"/>
			<path id="XMLID_274_" fill="#FFFFFF" d="M108.4,47c-6.2,0-9.4-2.3-9.4-6.7c0-5.5,5.5-7.1,12-7.7v-1c0-2.2-1.5-2.9-3.8-2.9
				c-2.1,0-4.2,0.7-5.6,1.3l-1.4-3.5c1.5-0.6,4.3-1.6,8.1-1.6c4.9,0,8.5,2,8.5,7.8v12.8C115,46.4,112.1,47,108.4,47z M111,35.4
				c-3.8,0.4-6.2,1.2-6.2,4.6c0,2.5,1.4,3.6,3.9,3.6c0.9,0,1.7-0.2,2.3-0.4V35.4z"/>
			<path id="XMLID_272_" fill="#FFFFFF" d="M126.4,29.2v17.4h-6.2V29.2h-2.4v-4h2.4v-2.2c0-5.4,3.7-8.2,9.5-7.5v3.9
				c-2.1-0.1-3.3,0.6-3.3,3.1v2.7h3.3v4H126.4z"/>
			<path id="XMLID_269_" fill="#FFFFFF" d="M135.7,38.1c0.4,3.1,2,4.7,5.2,4.7c2.5,0,4.4-0.6,5.6-1.1l1.4,3.8
				c-1.7,0.8-4.1,1.5-7.7,1.5c-6.6,0-10.4-4.3-10.4-11.1c0-6.7,3.5-11,9.7-11c6.2,0,9.4,4.2,9.1,11.4L135.7,38.1z M139.3,28.5
				c-2.6,0-4.1,2.2-4,6.6l7.5-1.1C142.8,30.2,141.6,28.5,139.3,28.5z"/>
		</g>
	</g>
</g>
</svg>
