<?xml version="1.0" encoding="utf-8"?>
<!-- Generator: Adobe Illustrator 18.1.1, SVG Export Plug-In . SVG Version: 6.00 Build 0)  -->
<svg version="1.1" id="Layer_1" xmlns="http://www.w3.org/2000/svg" xmlns:xlink="http://www.w3.org/1999/xlink" x="0px" y="0px"
	 width="414px" height="414px" viewBox="0 0 414 414" enable-background="new 0 0 414 414" xml:space="preserve">
<radialGradient id="XMLID_2_" cx="-3160.6775" cy="3325.4004" r="210.9014" gradientTransform="matrix(0.7071 0.7071 -0.7071 0.7071 4789.6899 70.5786)" gradientUnits="userSpaceOnUse">
	<stop  offset="0" style="stop-color:#FFFFFF;stop-opacity:0.3"/>
	<stop  offset="0.9188" style="stop-color:#FFFFFF;stop-opacity:0.9431"/>
	<stop  offset="1" style="stop-color:#FFFFFF"/>
</radialGradient>
<path id="XMLID_2663_" opacity="0.2" fill="url(#XMLID_2_)" d="M350.8,30.1c-2.9,2.9-4.1,6.7-3.7,10.5l-50.7,10.5
	c-0.6-1.9-1.6-3.7-3.1-5.3c-5.1-5.1-13.2-5.1-18.3,0c-0.5,0.5-1,1.1-1.4,1.7L225,19.9c2.1-4.7,1.2-10.5-2.7-14.4
	c-5.1-5.1-13.2-5.1-18.3,0c-2.3,2.3-3.5,5.3-3.7,8.3l-68.4,2.4c-0.4-2.7-1.5-5.3-3.6-7.4c-5.1-5.1-13.2-5.1-18.3,0
	c-5.1,5.1-5.1,13.2,0,18.3c1.7,1.7,3.7,2.7,5.8,3.3L102.4,112c-3.1,0.2-6.1,1.4-8.4,3.7c-2.7,2.7-3.9,6.2-3.7,9.7l-63.3,17.7
	c-0.6-1.6-1.6-3.1-2.9-4.4c-5.1-5.1-13.2-5.1-18.3,0c-5.1,5.1-5.1,13.2,0,18.3c2.4,2.4,5.5,3.6,8.6,3.7l2.9,47.6
	c-2.6,0.4-5.1,1.6-7.1,3.6c-5.1,5.1-5.1,13.2,0,18.3c5.1,5.1,13.2,5.1,18.3,0c0.1-0.1,0.2-0.3,0.3-0.4l32.2,24.1
	c-3,5-2.4,11.5,1.9,15.8c1.1,1.1,2.4,1.9,3.7,2.6L49.3,322c-4.2-1-8.8,0.1-12.1,3.4c-5.1,5.1-5.1,13.2,0,18.3
	c5.1,5.1,13.2,5.1,18.3,0c2.1-2.1,3.2-4.7,3.6-7.3l72.8,3c0.2,3,1.4,6.1,3.7,8.4c4.8,4.8,12.4,5,17.5,0.7l44.5,43
	c-4,5.1-3.7,12.4,1,17.1c5.1,5.1,13.2,5.1,18.3,0c3.9-3.9,4.8-9.8,2.6-14.6l67.6-40c0.4,0.5,0.8,1,1.2,1.5c5.1,5.1,13.2,5.1,18.3,0
	c4.9-4.9,5-12.8,0.3-17.9l84.7-95.7c5.1,3.6,12.1,3.2,16.7-1.3c5.1-5.1,5.1-13.2,0-18.3c-2.9-2.9-6.9-4.1-10.8-3.6l-15-64.7
	c1.8-0.6,3.5-1.6,4.9-3c5.1-5.1,5.1-13.2,0-18.3c-2.8-2.8-6.4-4-10-3.7l-13.9-77.2c2-0.6,4-1.6,5.6-3.2c5.1-5.1,5.1-13.2,0-18.3
	C364.1,25,355.9,25,350.8,30.1z M312.4,218.2c-2.6-1.8-5.7-2.5-8.7-2.2l-13.9-67.1c1.9-0.6,3.8-1.6,5.3-3.1c2-2,3.2-4.5,3.6-7.1
	l66.6,3.7c0.1,3.1,1.3,6.1,3.7,8.5L312.4,218.2z M389.7,240.1l-84.7,95.7c-1.6-1.2-3.5-2-5.4-2.3l6-91.8c3.2-0.1,6.3-1.3,8.7-3.7
	c2.1-2.1,3.3-4.8,3.6-7.5l68.4,1.9C386.5,235.1,387.6,237.9,389.7,240.1z M199.4,389.5l-44.5-43c2.7-3.4,3.4-7.7,2.2-11.7l62.3-25.7
	c0.6,1.1,1.3,2.1,2.2,3.1c1.4,1.4,3.1,2.4,4.9,3l-17.1,71.3C205.9,386.1,202.3,387.1,199.4,389.5z M28.7,212.3l66.9-76.9
	c0.9,0.6,1.8,1.1,2.7,1.5l-12.1,43.3c-4-0.7-8.3,0.5-11.4,3.6c-3.5,3.5-4.5,8.6-3.1,13.1l-41.3,18C30,213.9,29.4,213,28.7,212.3z
	 M205,24.6c1.7,1.4,3.6,2.4,5.6,2.8L204.1,90c-3.3,0-6.7,1.2-9.2,3.8c-2.9,2.9-4.1,6.8-3.6,10.6l-76,16.5c-0.6-1.9-1.6-3.7-3.1-5.2
	c-0.1-0.1-0.2-0.2-0.3-0.3L205,24.6z M283.2,67.8l1.3,56c-2.8,0.3-5.4,1.5-7.6,3.6c-0.9,0.9-1.6,2-2.2,3.1l-58.3-23.9
	c0.9-3,0.7-6.3-0.7-9.1l58.1-34.8c0.4,0.5,0.7,1,1.2,1.5C277.3,66.4,280.2,67.6,283.2,67.8z M238.9,293.1c-2-1.6-4.4-2.6-6.8-2.8
	l0.3-58.2c2.9-0.3,5.7-1.5,7.9-3.7c1.8-1.8,2.9-3.9,3.4-6.2l48.5,6.2c-0.1,3,0.9,6.1,3,8.6L238.9,293.1z M147.4,325.9l6.1-58.6
	c3.3,0,6.7-1.2,9.2-3.8c0.4-0.4,0.7-0.8,1-1.2l55.5,35c-1.5,3-1.7,6.3-0.8,9.4l-62.3,25.7c-0.6-1.1-1.3-2.1-2.2-3.1
	C152.1,327.6,149.8,326.4,147.4,325.9z M82.8,253.5l74.8-60.3c0,0,0,0,0.1,0.1c1.6,1.6,3.5,2.6,5.5,3.2l-8.5,45.1
	c-3.7-0.3-7.4,0.9-10.2,3.7c-2.4,2.4-3.7,5.6-3.8,8.8l-56,4.3C84.4,256.7,83.8,255,82.8,253.5z M88.7,180.9l12.1-43.3
	c3.7,0.6,7.7-0.4,10.7-3l44.9,41.8c-1.8,2.3-2.7,5.1-2.7,7.9l-57.1,6.1c-0.5-2.4-1.7-4.7-3.5-6.5C91.9,182.5,90.4,181.5,88.7,180.9z
	 M229.6,290.2c-2.9,0.3-5.7,1.5-7.9,3.7c-0.4,0.4-0.7,0.8-1,1.2l-55.5-35c1.5-3.1,1.8-6.6,0.7-9.9l54.2-24.6c0.6,1,1.2,1.9,2,2.7
	c2.2,2.2,5,3.4,7.8,3.7L229.6,290.2z M175.9,193.3c0.6-0.6,1.1-1.2,1.5-1.9l41.8,22.8c-1.2,2.9-1.3,6.2-0.3,9.1l-54.2,24.6
	c-0.6-1-1.2-1.9-2-2.7c-1.6-1.6-3.5-2.6-5.5-3.2l8.5-45.1C169.3,197.3,173.1,196.1,175.9,193.3z M222,210.1
	c-0.6,0.6-1.1,1.2-1.5,1.9l-41.8-22.8c1.1-2.7,1.3-5.7,0.5-8.6l95.5-38.1c0.6,1.1,1.3,2.2,2.3,3.2c0.3,0.3,0.7,0.5,1,0.8l-40.7,61.4
	C232.3,205.3,226.1,206,222,210.1z M273.7,140.1l-95.5,38.1c-0.6-1.1-1.3-2.2-2.3-3.2c-0.8-0.8-1.7-1.4-2.6-2l26.6-57.9
	c4.5,1.5,9.7,0.6,13.3-3c0.9-0.9,1.6-2,2.2-3.1l58.3,23.9C273,135.2,273,137.7,273.7,140.1z M197.5,114l-26.6,57.9
	c-4.3-1.5-9.1-0.6-12.7,2.5l-44.9-41.8c2.1-2.7,2.9-6,2.5-9.2l76-16.5c0.6,1.9,1.6,3.7,3.1,5.2C195.7,112.8,196.6,113.5,197.5,114z
	 M295.9,219.6c-1.8,1.8-2.9,3.9-3.4,6.2l-48.5-6.2c0.1-3.4-1.1-6.9-3.8-9.5c-0.3-0.3-0.7-0.5-1-0.8l40.7-61.4
	c2.3,1.2,4.8,1.7,7.3,1.4l13.9,67.1C299.3,217.1,297.5,218.1,295.9,219.6z M93.2,202.1c2.5-2.5,3.8-5.9,3.8-9.2l57.1-6.1
	c0.3,1.6,0.9,3.1,1.8,4.4l-74.8,60.3c0,0,0,0-0.1-0.1c-1.6-1.6-3.6-2.7-5.6-3.2l7.6-42.5C86.7,206,90.4,204.8,93.2,202.1z
	 M81.7,269.1c2.1-2.3,3.1-5.2,3.2-8.2l56-4.3c0.4,2.5,1.6,4.9,3.6,6.9c1.9,1.9,4.1,3,6.5,3.5l-6.1,58.6c-2.8,0-5.5,0.9-7.9,2.7
	L81.7,269.1z M240.8,294.9l56.2-56.1c1.8,1.4,3.8,2.4,5.9,2.7l-6,91.8c-3.2,0.1-6.3,1.3-8.7,3.7c-0.3,0.3-0.6,0.7-0.9,1.1
	l-45.1-29.2C244.5,304.5,244.1,299,240.8,294.9z M365.5,139.7l-66.6-3.7c-0.1-3.1-1.4-6.2-3.7-8.6c-2.3-2.3-5.2-3.5-8.1-3.7l-1.3-56
	c2.5-0.3,4.9-1.4,7-3.1l75.2,69.3C366.7,135.6,365.8,137.6,365.5,139.7z M272.4,49.7c-1.5,3.4-1.4,7.3,0.1,10.7l-58.1,34.8
	c-0.4-0.5-0.7-1-1.2-1.5c-1.9-1.9-4.1-3-6.5-3.5l6.5-62.6c3.3,0,6.7-1.2,9.2-3.8c0.5-0.5,1-1.1,1.4-1.7L272.4,49.7z M128.3,27.1
	c2.3-2.3,3.5-5.3,3.7-8.3l68.4-2.4c0.3,2.3,1.2,4.4,2.7,6.3l-93.3,91.1c-1.5-0.9-3.2-1.5-4.9-1.8l13.4-81.2
	C121.9,31.1,125.6,29.9,128.3,27.1z M90.6,128c0.5,2.1,1.5,4,3.1,5.7l-66.9,76.9c-2.1-1.5-4.5-2.3-6.9-2.4l-2.9-47.6
	c2.6-0.4,5.1-1.6,7.1-3.6c3.1-3.1,4.3-7.4,3.6-11.4L90.6,128z M30.3,227.8c1.9-3.2,2.3-7.1,1.2-10.6l41.3-18c0.6,1,1.2,2,2.1,2.8
	c1.6,1.6,3.6,2.7,5.6,3.2l-7.6,42.5c-3.6-0.3-7.3,0.9-10.1,3.7c-0.1,0.1-0.2,0.3-0.3,0.4L30.3,227.8z M69,273.2
	c3.7,0.9,7.6,0.1,10.8-2.3l55.3,59.2c-1.7,1.9-2.7,4.3-3.1,6.7l-72.8-3c-0.2-3-1.4-6.1-3.7-8.4c-1.1-1.1-2.4-1.9-3.7-2.6L69,273.2z
	 M218.1,391.7c-0.4-0.5-0.8-1-1.2-1.5c-1.4-1.4-3.1-2.4-4.9-3l17.1-71.3c3.9,0.5,7.9-0.7,10.9-3.6c0.3-0.3,0.6-0.7,0.9-1.1
	l45.1,29.2c-1.8,3.5-1.9,7.7-0.2,11.3L218.1,391.7z M395,219.1c-1.8,0.6-3.5,1.6-5,3.1c-2.1,2.1-3.3,4.8-3.6,7.5l-68.4-1.9
	c-0.2-2.9-1.4-5.7-3.5-8l56.7-67.4c2.7,1.8,5.9,2.4,8.9,2L395,219.1z M374.8,129.3c-1.8,0.5-3.6,1.4-5.1,2.7l-75.2-69.3
	c2-2.7,2.8-5.9,2.5-9.1l50.7-10.5c0.6,1.9,1.6,3.7,3.1,5.3c2.8,2.8,6.5,4,10.1,3.7L374.8,129.3z"/>
<g>
	<g>
		<path fill="#513432" d="M207.5,219.8c-15.9-8.4-14.3-21.1-12-28.4c2.5-7.8,5.4-15.7,5.4-24.4v-23c0-31.2-24.6-56.6-54.8-56.6
			c-30.2,0-54.8,25.4-54.8,56.6v23c0,8.7,2.9,16.7,5.4,24.4c2.4,7.3,3.9,20-12,28.4c-2.6,1.4-3.9,4.2-2.4,6.7
			c6,9.9,24,32.2,63.8,32.2c39.8,0,57.8-22.2,63.8-32.2C211.5,224,210.1,221.1,207.5,219.8z"/>
		<g>
			<path fill="#5593D7" d="M190.3,274.8c0-29.3-19.8-53.1-44.2-53.1c-24.4,0-44.2,23.8-44.2,53.1l0,0c0,14.6,19.8,26.5,44.2,26.5
				S190.3,289.5,190.3,274.8L190.3,274.8z"/>
			<path fill="#F7944B" d="M163.3,225.9c-5.3-2.7-11.1-4.2-17.2-4.2s-11.9,1.5-17.2,4.2c-2.6,7.3,0,31.2,17.2,31.2l0,0
				C163.3,257.1,165.9,233.3,163.3,225.9z"/>
			<path opacity="0.1" d="M190.3,274.8L190.3,274.8L190.3,274.8c0-29.3-19.8-53.1-44.2-53.1v53.1l0,0v26.5
				C170.5,301.3,190.3,289.5,190.3,274.8L190.3,274.8L190.3,274.8z"/>
		</g>
		<g>
			<path fill="#F7C1A1" d="M163.3,225.9c-5.3-2.7-11.1-4.2-17.2-4.2c-6.1,0-11.9,1.5-17.2,4.2c1.9,7.8,8.8,13.5,17.2,13.5
				C154.4,239.5,161.4,233.7,163.3,225.9z"/>
			<rect x="137.3" y="193.8" fill="#F7C1A1" width="17.7" height="34.3"/>
			<path fill="#F5B090" d="M155,222.8v-29h-8.8v45.7c8.3,0,15.3-5.8,17.2-13.5C160.6,224.6,157.8,223.5,155,222.8z"/>
		</g>
		<ellipse fill="#F7C1A1" cx="190.3" cy="157.2" rx="7.1" ry="13.3"/>
		<path fill="#F7C1A1" d="M146.1,98c-24.4,0-44.2,20.6-44.2,46v23c0,25.4,19.8,46,44.2,46c24.4,0,44.2-20.6,44.2-46v-23
			C190.3,118.6,170.5,98,146.1,98z"/>
		<path fill="#F5B090" d="M146.1,98c19.5,0,35.4,20.6,35.4,46v23c0,25.4-15.8,46-35.4,46c24.4,0,44.2-20.6,44.2-46v-23
			C190.3,118.6,170.5,98,146.1,98z"/>
		<path fill="#513432" d="M146.1,87.4c-30.2,0-54.8,25.4-54.8,56.6v23c0,8.7,2.9,16.7,5.4,24.4c1.1,3.3,2,7.7,1.2,12.3h12.9
			c-3.5-9.7-2.1-42.2,18.2-51.7c20.3-9.6,34.3-32.3,34.3-32.3c12.8,5.7,27,24.3,27,24.3h10.6C200.9,112.8,176.3,87.4,146.1,87.4z"/>
	</g>
	<path fill="#F7944B" d="M287.4,205.2c0,29-35.8,45.8-75.3,45.8v-15.1l-40.2,25.9l40.2,25.9v-14.5
		C259.7,273.3,287.4,249.1,287.4,205.2z"/>
	<g>
		<g>
			<rect x="255.1" y="159.6" fill="#FFB583" width="72.8" height="35.9"/>
			<path fill="#F7944B" d="M299.4,155.6h-34.4h-14.3v13.8v16.5v13.8h14.3h53.1h14.3v-13.7v-16.5v-13.7H299.4z M317.7,159.6
				c0.5,5.4,4.8,9.7,10.2,10.2v15.5c-5.4,0.5-9.7,4.8-10.2,10.2h-52.4c-0.5-5.4-4.8-9.7-10.2-10.2v-15.5c5.4-0.5,9.7-4.8,10.2-10.2
				H317.7z"/>
			<circle fill="#F7944B" cx="291.5" cy="177.6" r="12.2"/>
			<circle fill="#FFB583" cx="291.5" cy="177.6" r="8"/>
		</g>
		<g>
			<rect x="244.1" y="149.6" fill="#FFB583" width="72.8" height="35.9"/>
			<path fill="#F7944B" d="M288.4,145.6h-34.4h-14.3v13.8v16.5v13.8h14.3h53.1h14.3v-13.7v-16.5v-13.7H288.4z M306.7,149.6
				c0.5,5.4,4.8,9.7,10.2,10.2v15.5c-5.4,0.5-9.7,4.8-10.2,10.2h-52.4c-0.5-5.4-4.8-9.7-10.2-10.2v-15.5c5.4-0.5,9.7-4.8,10.2-10.2
				H306.7z"/>
			<circle fill="#F7944B" cx="280.5" cy="167.6" r="12.2"/>
			<circle fill="#FFB583" cx="280.5" cy="167.6" r="8"/>
		</g>
		<rect x="233.6" y="200.6" fill="#FFE999" width="25" height="5"/>
		<rect x="236.1" y="194.6" fill="#FFE999" width="25" height="5"/>
		<rect x="236.1" y="188.6" fill="#FFE999" width="25" height="5"/>
		<rect x="233.6" y="182.6" fill="#FFE999" width="25" height="5"/>
		<rect x="232.4" y="176.6" fill="#FFE999" width="25" height="5"/>
		<rect x="233.6" y="170.6" fill="#FFE999" width="25" height="5"/>
		<rect x="233.6" y="164.6" fill="#FFE999" width="25" height="5"/>
		<path fill="#FFE999" d="M218.5,205.6L218.5,205.6c-6.9,0-12.5-5.6-12.5-12.5v0c0-6.9,5.6-12.5,12.5-12.5h0
			c6.9,0,12.5,5.6,12.5,12.5v0C231,200,225.4,205.6,218.5,205.6z"/>
		<path opacity="0.8" fill="#F9CB64" d="M218.5,201.8L218.5,201.8c-4.8,0-8.8-3.9-8.8-8.8v0c0-4.8,3.9-8.8,8.8-8.8h0
			c4.8,0,8.8,3.9,8.8,8.8v0C227.2,197.9,223.3,201.8,218.5,201.8z"/>
	</g>
</g>
</svg>
