<?xml version="1.0" encoding="utf-8"?>
<!-- Generator: Adobe Illustrator 19.1.0, SVG Export Plug-In . SVG Version: 6.00 Build 0)  -->
<svg version="1.1" id="Layer_1" xmlns="http://www.w3.org/2000/svg" xmlns:xlink="http://www.w3.org/1999/xlink" x="0px" y="0px" viewBox="0 0 39 24" enable-background="new 0 0 39 24" xml:space="preserve">
  <path fill="#2A98EA" d="M11,17h2v-6h-2V17z M12,2C6.5,2,2,6.5,2,12s4.5,10,10,10s10-4.5,10-10S17.5,2,12,2z M12,20c-4.4,0-8-3.6-8-8
	s3.6-8,8-8s8,3.6,8,8S16.4,20,12,20z M11,9h2V7h-2V9z"/>
  <polygon fill="#2A98EA" points="31.3,13.2 26.8,8.7 25.8,9.8 31.3,15.3 36.8,9.8 35.7,8.7 "/>
</svg>
