<?xml version="1.0" encoding="utf-8"?>
<!-- Generator: Adobe Illustrator 19.1.0, SVG Export Plug-In . SVG Version: 6.00 Build 0)  -->
<svg version="1.1" id="Layer_1" xmlns="http://www.w3.org/2000/svg" xmlns:xlink="http://www.w3.org/1999/xlink" x="0px" y="0px"
	 viewBox="0 0 398 326" enable-background="new 0 0 398 326" xml:space="preserve">
<g>
	<g>
		<path fill="#919191" d="M147.4,316H11.5v-76.4c0-4.1,3.3-7.4,7.4-7.4H140c4.1,0,7.4,3.3,7.4,7.4V316z"/>
		<path d="M146.1,316.3H12.9V241c0-4.1,3.3-7.4,7.4-7.4h118.5c4.1,0,7.4,3.3,7.4,7.4V316.3z"/>
		<rect x="18.3" y="239" fill="#F7944B" width="122.3" height="72"/>
		<g>
			<defs>
				<rect id="SVGID_1_" x="18.3" y="239" width="122.3" height="72"/>
			</defs>
			<clipPath id="SVGID_2_">
				<use xlink:href="#SVGID_1_"  overflow="visible"/>
			</clipPath>
			<g clip-path="url(#SVGID_2_)">
				<path fill="#513432" d="M103.8,296.3c-6.3-3.3-5.7-8.3-4.7-11.2c1-3.1,2.1-6.2,2.1-9.7v-9.1c0-12.4-9.7-22.4-21.7-22.4
					c-12,0-21.7,10.1-21.7,22.4v9.1c0,3.5,1.1,6.6,2.1,9.7c0.9,2.9,1.5,7.9-4.7,11.2c-1,0.5-1.6,1.7-1,2.6
					c2.4,3.9,9.5,12.7,25.3,12.7c15.8,0,22.9-8.8,25.3-12.7C105.3,298,104.8,296.9,103.8,296.3z"/>
				<g>
					<path fill="#5593D7" d="M97,318.1c0-11.6-7.8-21-17.5-21c-9.7,0-17.5,9.4-17.5,21l0,0c0,5.8,7.8,10.5,17.5,10.5
						S97,323.9,97,318.1L97,318.1z"/>
					<path fill="#F7944B" d="M86.3,298.8c-2.1-1.1-4.4-1.6-6.8-1.6s-4.7,0.6-6.8,1.6c-1,2.9,0,12.4,6.8,12.4l0,0
						C86.3,311.1,87.3,301.7,86.3,298.8z"/>
					<path opacity="0.1" d="M97,318.1L97,318.1L97,318.1c0-11.6-7.8-21-17.5-21v21l0,0v10.5C89.1,328.6,97,323.9,97,318.1L97,318.1
						L97,318.1z"/>
				</g>
				<g>
					<path fill="#F7C1A1" d="M86.3,298.8c-2.1-1.1-4.4-1.6-6.8-1.6c-2.4,0-4.7,0.6-6.8,1.6c0.7,3.1,3.5,5.4,6.8,5.4
						C82.8,304.1,85.5,301.8,86.3,298.8z"/>
					<rect x="76" y="286" fill="#F7C1A1" width="7" height="13.6"/>
					<path fill="#F5B090" d="M83,297.5V286h-3.5v18.1c3.3,0,6.1-2.3,6.8-5.4C85.2,298.2,84.1,297.8,83,297.5z"/>
				</g>
				<ellipse fill="#F7C1A1" cx="97" cy="271.6" rx="2.8" ry="5.3"/>
				<path fill="#F7C1A1" d="M79.5,248.1c-9.7,0-17.5,8.2-17.5,18.2v9.1c0,10.1,7.8,18.2,17.5,18.2c9.7,0,17.5-8.2,17.5-18.2v-9.1
					C97,256.2,89.1,248.1,79.5,248.1z"/>
				<path fill="#F5B090" d="M79.5,248.1c7.7,0,14,8.2,14,18.2v9.1c0,10.1-6.3,18.2-14,18.2c9.7,0,17.5-8.2,17.5-18.2v-9.1
					C97,256.2,89.1,248.1,79.5,248.1z"/>
				<path fill="#513432" d="M79.5,243.9c-12,0-21.7,10.1-21.7,22.4v9.1c0,3.5,1.1,6.6,2.1,9.7c0.4,1.3,0.8,3,0.5,4.9h5.1
					c-1.4-3.9-0.9-16.7,7.2-20.5c8.1-3.8,13.6-12.8,13.6-12.8c5,2.3,10.7,9.6,10.7,9.6h4.2C101.2,253.9,91.4,243.9,79.5,243.9z"/>
			</g>
		</g>
		<polygon fill="#919191" points="150.6,323.3 8.3,323.3 2,319.6 2,316.5 156.9,316.5 156.9,319.6 		"/>
		<polygon fill="#262626" points="150.6,323.3 8.3,323.3 2,320.7 2,319.2 156.9,319.2 156.9,320.7 		"/>
	</g>
	<g>
		<g>
			<path fill="none" stroke="#F7944B" stroke-width="17" stroke-miterlimit="10" d="M77.2,213.2c0-40.1,25.8-74.2,61.7-86.7"/>
			<g>
				<polygon fill="#F7944B" points="137,149.2 168.9,121.4 128.9,107.6 				"/>
			</g>
		</g>
	</g>
	<g>
		<path d="M52.7,198.8l-0.1,3l-12.2,6.9l0,0.1l0.7,0c1.3,0,2.4,0,3.5,0l7.8,0.3l-0.1,2.2l-15-0.6l0.1-3l12.2-6.9l0-0.1
			c-0.2,0-0.7,0-1.7,0c-1,0-1.8,0-2.3,0l-7.8-0.3l0.1-2.2L52.7,198.8z"/>
		<path d="M54.2,190.7c-0.3,1.7-1,3-2.2,3.8c-1.2,0.8-2.7,1.1-4.4,0.8c-1.8-0.3-3.2-1-4.1-2.1c-0.9-1.1-1.2-2.4-0.9-4
			c0.3-1.5,0.9-2.6,1.9-3.3c1-0.7,2.3-0.9,3.9-0.7l1.3,0.2l-1.3,7.4c1.1,0.2,2,0,2.7-0.5c0.7-0.5,1.1-1.2,1.3-2.2
			c0.1-0.7,0.2-1.3,0.1-1.9c0-0.6-0.1-1.2-0.3-1.9l1.9,0.3c0.2,0.6,0.3,1.2,0.3,1.9S54.3,189.9,54.2,190.7z M44.3,189.4
			c-0.1,0.8,0,1.4,0.4,1.9c0.4,0.5,1,0.9,2,1.2l0.9-5.1c-0.9-0.1-1.7,0-2.2,0.3C44.8,188.1,44.5,188.7,44.3,189.4z"/>
		<path d="M54.8,179.5c0.2-0.6,0.2-1.2,0.2-1.8l1.8,0.5c0,0.3,0,0.6,0,1.1c0,0.4-0.1,0.9-0.2,1.3c-0.6,2.2-2,3-4.4,2.4l-5.9-1.6
			l-0.4,1.5l-1-0.3l-0.4-1.8l-2.1-1.4l0.4-1.4l2.4,0.7l0.8-3.1l1.8,0.5l-0.8,3.1l5.9,1.6c0.6,0.2,1,0.1,1.4-0.1
			C54.4,180.2,54.7,179.9,54.8,179.5z"/>
		<path d="M60.8,167.7l-5.5-0.6c-0.6,0-1.9-0.2-4-0.5l0,0.1c1.6,1,2.7,1.8,3.3,2.3l4.3,3.3l-1,2.5l-11.7-1.2l0.9-2.3l5.7,0.7
			c1.4,0.2,2.6,0.4,3.6,0.7l0-0.1c-0.4-0.2-0.9-0.6-1.5-0.9c-0.5-0.4-1-0.7-1.2-0.9l-4.9-3.8l1-2.5l6.2,0.7c0.3,0,0.9,0.1,1.6,0.2
			c0.7,0.1,1.2,0.2,1.6,0.3l0-0.1c-0.7-0.4-1.7-1.1-3-2l-4.7-3.4l0.9-2.2l9.4,7.2L60.8,167.7z"/>
		<path d="M63.8,149.5c1.6,0.9,2.6,2,3.1,3.4c0.4,1.3,0.2,2.7-0.6,4.2c-0.5,0.9-1.2,1.6-2,2.1c-0.8,0.5-1.7,0.7-2.7,0.6
			c-1-0.1-2-0.4-3-1c-1.6-0.9-2.6-2-3.1-3.3s-0.2-2.7,0.6-4.2c0.8-1.4,1.9-2.3,3.3-2.6C60.8,148.3,62.2,148.6,63.8,149.5z
			 M59.7,156.6c2.3,1.3,3.9,1.1,4.8-0.6c0.9-1.7,0.3-3.1-2-4.4c-2.3-1.3-3.9-1.1-4.8,0.6c-0.5,0.9-0.6,1.7-0.2,2.4
			S58.6,156,59.7,156.6z"/>
		<path d="M64,138.9c0.3-0.4,0.5-0.7,0.8-0.9l1.7,1.5c-0.3,0.2-0.5,0.5-0.7,0.8c-0.6,0.8-0.7,1.6-0.6,2.5s0.7,1.6,1.5,2.1l4.8,3.4
			l-1.4,2l-9.3-6.5l1.1-1.5l1.8,0.9l0.1-0.1c-0.3-0.7-0.5-1.4-0.5-2.1C63.4,140.1,63.6,139.5,64,138.9z"/>
		<path d="M72.2,137.5l-0.4-2.1l-0.5-5l1.8-2.1l0.7,6.6l8.1,0.5l-1.8,2.2l-6.1-0.5l0,1.7l3,2.5l-1.6,1.8l-12.1-10.4l1.6-1.8l5.9,5.1
			L72.2,137.5L72.2,137.5z"/>
		<path d="M91.4,117c1.6,1.9,2.2,3.8,2,5.7c-0.2,1.9-1.3,3.6-3.3,5.3l-3.2,2.7L77.3,119l3.6-3c1.8-1.5,3.7-2.2,5.5-2.1
			C88.2,114.2,89.9,115.2,91.4,117z M89.4,118.7c-2.3-2.8-4.7-3.1-7.3-0.9l-1.6,1.4l6.9,8.4l1.3-1.1
			C91.5,124.1,91.7,121.5,89.4,118.7z"/>
		<path d="M104.3,117.7l-1.3-1.1l-0.1,0c-0.1,0.9-0.3,1.6-0.6,2.1c-0.3,0.5-0.9,1-1.6,1.5c-0.9,0.6-1.8,0.8-2.7,0.6
			s-1.6-0.7-2.2-1.7c-0.6-1-0.7-2-0.3-2.9c0.4-1,1.4-2,2.8-2.9l1.6-1.1l-0.3-0.5c-0.4-0.6-0.8-1-1.3-1.1c-0.5-0.1-1,0-1.6,0.4
			c-0.5,0.3-0.9,0.7-1.3,1.1c-0.4,0.4-0.7,0.9-1,1.3l-1.6-1c0.3-0.6,0.8-1.2,1.3-1.7c0.5-0.5,1.1-1,1.6-1.3c1.2-0.8,2.3-1.1,3.3-1
			c1,0.1,1.8,0.8,2.5,1.9l4.1,6.5L104.3,117.7z M100.4,118.2c0.7-0.5,1.2-1.1,1.4-1.7c0.2-0.7,0-1.4-0.4-2.2l-0.5-0.8l-1.2,0.8
			c-0.9,0.6-1.5,1.2-1.8,1.8c-0.3,0.6-0.2,1.1,0.2,1.7c0.3,0.4,0.6,0.7,1,0.8C99.4,118.7,99.9,118.5,100.4,118.2z"/>
		<path d="M111.4,111.9c0.5-0.3,1-0.6,1.4-1l0.8,1.6c-0.2,0.2-0.4,0.5-0.8,0.7s-0.7,0.5-1.1,0.7c-2,1-3.6,0.5-4.7-1.7l-2.8-5.4
			l-1.4,0.7l-0.5-0.9l1.1-1.5l-0.4-2.5l1.3-0.7l1.1,2.2l2.9-1.5l0.8,1.6l-2.9,1.5l2.8,5.4c0.3,0.5,0.6,0.8,1,0.9
			C110.6,112.1,111,112.1,111.4,111.9z"/>
		<path d="M122.1,109.1l-1-1.3l-0.1,0c-0.3,0.8-0.6,1.5-1,1.9c-0.4,0.4-1,0.8-1.8,1.1c-1,0.4-2,0.5-2.8,0.1c-0.8-0.3-1.4-1-1.8-2
			c-0.4-1.1-0.4-2.1,0.2-2.9c0.6-0.9,1.7-1.7,3.3-2.4l1.8-0.8l-0.2-0.6c-0.3-0.7-0.6-1.1-1.1-1.3c-0.4-0.2-1-0.2-1.7,0.1
			c-0.5,0.2-1,0.5-1.5,0.9c-0.4,0.4-0.8,0.7-1.2,1.1l-1.4-1.3c0.5-0.5,1-1,1.6-1.4c0.6-0.4,1.2-0.8,1.8-1c1.3-0.5,2.5-0.6,3.4-0.3
			c0.9,0.3,1.6,1.1,2.1,2.3l2.8,7.1L122.1,109.1z M118.2,108.9c0.8-0.3,1.4-0.8,1.7-1.5c0.3-0.7,0.3-1.4,0-2.2l-0.4-0.9l-1.3,0.6
			c-1,0.5-1.7,0.9-2.1,1.4c-0.4,0.5-0.4,1.1-0.1,1.7c0.2,0.5,0.5,0.8,0.9,0.9C117.2,109.2,117.6,109.2,118.2,108.9z"/>
	</g>
	<g>
		<path d="M237.1,318.4c0.5,1,0.5,1.9,0,2.8c-0.5,0.9-1.4,1.6-2.7,2.3c-1.4,0.7-2.6,1-3.6,1l-0.9-1.9c1.5,0,2.7-0.3,3.8-0.8
			c1.3-0.6,1.8-1.4,1.4-2.2c-0.1-0.3-0.3-0.4-0.5-0.5c-0.2-0.1-0.6-0.2-1-0.2c-0.4,0-1,0-1.7,0.1c-1.4,0.1-2.4,0-3-0.2
			s-1.1-0.7-1.5-1.5c-0.4-0.9-0.4-1.7,0.1-2.5c0.5-0.8,1.3-1.5,2.5-2.1c1.2-0.6,2.5-0.9,3.8-0.9l0.1,2c-1.3,0.1-2.4,0.3-3.1,0.7
			c-1.1,0.6-1.6,1.2-1.2,1.8c0.2,0.3,0.4,0.5,0.8,0.6c0.4,0.1,1.2,0.1,2.4,0c1-0.1,1.8-0.1,2.3,0c0.5,0.1,0.9,0.3,1.3,0.5
			C236.6,317.5,236.9,317.9,237.1,318.4z"/>
		<path d="M247.7,315.7l-1.3-1.1l-0.1,0c-0.1,0.9-0.3,1.6-0.6,2.1c-0.3,0.5-0.9,1-1.6,1.5c-0.9,0.6-1.8,0.8-2.7,0.6
			c-0.9-0.2-1.6-0.7-2.2-1.7c-0.6-1-0.7-2-0.3-2.9c0.4-1,1.4-1.9,2.8-2.9l1.6-1.1l-0.3-0.5c-0.4-0.6-0.8-1-1.3-1.1
			c-0.5-0.1-1,0-1.6,0.4c-0.5,0.3-0.9,0.7-1.3,1.1c-0.4,0.4-0.7,0.9-1,1.3l-1.6-1c0.3-0.6,0.8-1.2,1.3-1.7c0.5-0.5,1.1-1,1.6-1.3
			c1.2-0.8,2.3-1.1,3.3-0.9s1.8,0.8,2.5,1.9l4.1,6.5L247.7,315.7z M243.8,316.3c0.7-0.5,1.2-1,1.4-1.7c0.2-0.7,0-1.4-0.4-2.2
			l-0.5-0.8l-1.2,0.8c-0.9,0.6-1.5,1.2-1.8,1.8c-0.3,0.6-0.2,1.1,0.2,1.7c0.3,0.4,0.6,0.7,1,0.8
			C242.8,316.7,243.3,316.6,243.8,316.3z"/>
		<path d="M251.2,301.2l-2.2,1.7l5.9,7.5l-1.9,1.5l-5.9-7.5l-1.5,1.2l-0.7-0.9l1-1.7l-0.5-0.6c-0.8-1.1-1.2-2-1.1-2.9
			s0.7-1.7,1.7-2.5c0.7-0.5,1.4-0.9,2.2-1.2l0.6,1.8c-0.6,0.2-1.1,0.5-1.5,0.8c-0.4,0.3-0.6,0.7-0.6,1.1c0,0.4,0.2,0.9,0.6,1.4
			l0.5,0.6l2.2-1.7L251.2,301.2z"/>
		<path d="M263,303.6c-1.3,1.2-2.6,1.8-4.1,1.8s-2.8-0.7-4-2c-1.3-1.3-2-2.7-2-4.1c-0.1-1.4,0.5-2.7,1.6-3.8c1.1-1,2.2-1.5,3.5-1.5
			c1.3,0.1,2.4,0.7,3.5,1.8l0.9,0.9l-5.4,5.2c0.8,0.8,1.6,1.2,2.4,1.2c0.8,0,1.6-0.3,2.3-1c0.5-0.5,0.9-0.9,1.2-1.4
			c0.3-0.5,0.6-1.1,0.9-1.7l1.4,1.4c-0.2,0.6-0.5,1.2-0.9,1.7C264,302.5,263.5,303.1,263,303.6z M255.8,296.7
			c-0.6,0.5-0.8,1.1-0.8,1.8c0,0.7,0.3,1.4,0.9,2.1l3.7-3.6c-0.7-0.7-1.3-1-2-1.1C256.9,296,256.3,296.2,255.8,296.7z"/>
		<path d="M271.6,294.1c-1.1,1.3-2.3,2-3.6,2.1c-1.3,0.1-2.7-0.5-4.2-1.7c-1.5-1.2-2.3-2.5-2.5-3.9c-0.2-1.4,0.3-2.7,1.4-4.1
			c0.8-0.9,1.6-1.6,2.6-2.1l1,1.8c-1,0.5-1.6,1.1-2.1,1.6c-1.2,1.5-0.9,3.1,1.1,4.8c1,0.8,1.9,1.2,2.7,1.3s1.5-0.3,2.1-1
			c0.7-0.8,1.1-1.8,1.3-2.9l1.6,1.3c-0.1,0.5-0.2,1-0.5,1.4C272.4,293.1,272,293.6,271.6,294.1z"/>
		<path d="M276.3,277c1.6,1,2.5,2.2,2.9,3.5c0.4,1.4,0.1,2.8-0.8,4.2c-0.6,0.9-1.3,1.5-2.1,2c-0.8,0.4-1.8,0.6-2.7,0.5
			c-1-0.1-2-0.5-3-1.1c-1.5-1-2.5-2.2-2.9-3.5s-0.1-2.7,0.9-4.2c0.9-1.4,2-2.2,3.4-2.4C273.4,275.7,274.8,276.1,276.3,277z
			 M271.9,284c2.2,1.4,3.8,1.3,4.9-0.3c1-1.6,0.5-3.1-1.7-4.5c-2.2-1.4-3.8-1.3-4.8,0.3c-0.5,0.9-0.7,1.6-0.3,2.4
			C270.1,282.6,270.8,283.3,271.9,284z"/>
		<path d="M270,270.4c-0.4-0.2-0.6-0.5-0.7-0.8c-0.1-0.3,0-0.7,0.2-1.1c0.2-0.4,0.4-0.6,0.8-0.7c0.3-0.1,0.7-0.1,1,0.1
			c0.4,0.2,0.6,0.4,0.7,0.8c0.1,0.3,0.1,0.7-0.1,1c-0.2,0.4-0.5,0.6-0.8,0.7C270.7,270.6,270.3,270.6,270,270.4z M283.9,274.7
			l-1.1,2.1l-10.1-5.2l1.1-2.1L283.9,274.7z"/>
		<path d="M289.5,261.6l-0.9,2.2l-6.5-2.6c-0.8-0.3-1.5-0.4-2-0.2c-0.5,0.2-0.9,0.6-1.2,1.3c-0.4,0.9-0.4,1.8,0,2.4
			c0.4,0.7,1.2,1.3,2.6,1.8l5.3,2.1l-0.9,2.2l-10.5-4.2l0.7-1.8l1.5,0.2l0-0.1c-0.4-0.5-0.6-1.1-0.6-1.8c0-0.7,0.1-1.4,0.4-2.1
			c1-2.5,2.8-3.3,5.4-2.3L289.5,261.6z"/>
	</g>
	<g>
		<g>
			<path fill="none" stroke="#5592D7" stroke-width="17" stroke-miterlimit="10" d="M260.9,212.9c0,40.1-25.8,74.2-61.7,86.7"/>
			<g>
				<polygon fill="#5592D7" points="201.2,276.9 169.2,304.7 209.3,318.5 				"/>
			</g>
		</g>
	</g>
	<radialGradient id="XMLID_2_" cx="289.2518" cy="108.9073" r="106.8597" gradientUnits="userSpaceOnUse">
		<stop  offset="0" style="stop-color:#FFFFFF"/>
		<stop  offset="0" style="stop-color:#FFFFFF;stop-opacity:0.9999"/>
		<stop  offset="0" style="stop-color:#FFFFFF;stop-opacity:0.9999"/>
		<stop  offset="0.1947" style="stop-color:#FCFDFE;stop-opacity:0.9999"/>
		<stop  offset="0.349" style="stop-color:#F2F7FC;stop-opacity:1"/>
		<stop  offset="0.4896" style="stop-color:#E1ECF8;stop-opacity:1"/>
		<stop  offset="0.622" style="stop-color:#CADDF2;stop-opacity:1"/>
		<stop  offset="0.7486" style="stop-color:#ABC9EB;stop-opacity:1"/>
		<stop  offset="0.8709" style="stop-color:#86B1E2;stop-opacity:1"/>
		<stop  offset="0.9877" style="stop-color:#5A95D8;stop-opacity:1"/>
		<stop  offset="1" style="stop-color:#5592D7"/>
	</radialGradient>
	<path id="XMLID_1081_" opacity="0.5" fill="url(#XMLID_2_)" d="M364.2,16.7c-1.5,1.5-2.1,3.5-1.9,5.5l-26.4,5.5
		c-0.3-1-0.8-2-1.6-2.7c-2.6-2.6-6.9-2.6-9.5,0c-0.3,0.3-0.5,0.6-0.7,0.9l-25.3-14.4c1.1-2.5,0.6-5.5-1.4-7.5
		c-2.6-2.6-6.9-2.6-9.5,0c-1.2,1.2-1.8,2.8-1.9,4.3l-35.6,1.2c-0.2-1.4-0.8-2.8-1.9-3.9c-2.6-2.6-6.9-2.6-9.5,0
		c-2.6,2.6-2.6,6.9,0,9.5c0.9,0.9,1.9,1.4,3,1.7l-7,42.5c-1.6,0.1-3.2,0.7-4.4,1.9c-1.4,1.4-2,3.2-1.9,5.1l-33,9.2
		c-0.3-0.8-0.8-1.6-1.5-2.3c-2.6-2.6-6.9-2.6-9.5,0c-2.6,2.6-2.6,6.9,0,9.5c1.2,1.2,2.9,1.9,4.5,1.9l1.5,24.8
		c-1.4,0.2-2.7,0.8-3.7,1.9c-2.6,2.6-2.6,6.9,0,9.5s6.9,2.6,9.5,0c0.1-0.1,0.1-0.1,0.2-0.2l16.8,12.6c-1.6,2.6-1.2,6,1,8.2
		c0.6,0.6,1.2,1,1.9,1.3l-9,25.9c-2.2-0.5-4.6,0.1-6.3,1.8c-2.6,2.6-2.6,6.9,0,9.5s6.9,2.6,9.5,0c1.1-1.1,1.7-2.4,1.9-3.8l37.9,1.6
		c0.1,1.6,0.7,3.2,1.9,4.4c2.5,2.5,6.5,2.6,9.1,0.4l23.2,22.4c-2.1,2.6-1.9,6.5,0.5,8.9c2.6,2.6,6.9,2.6,9.5,0
		c2.1-2.1,2.5-5.1,1.3-7.6l35.2-20.8c0.2,0.3,0.4,0.5,0.6,0.8c2.6,2.6,6.9,2.6,9.5,0c2.6-2.6,2.6-6.7,0.2-9.3l44.1-49.8
		c2.6,1.9,6.3,1.7,8.7-0.7c2.6-2.6,2.6-6.9,0-9.5c-1.5-1.5-3.6-2.1-5.6-1.9l-7.8-33.7c0.9-0.3,1.8-0.8,2.6-1.6
		c2.6-2.6,2.6-6.9,0-9.5c-1.4-1.4-3.4-2.1-5.2-1.9L370.8,28c1.1-0.3,2.1-0.8,2.9-1.7c2.6-2.6,2.6-6.9,0-9.5
		C371.1,14.1,366.8,14.1,364.2,16.7z M344.2,114.7c-1.3-0.9-3-1.3-4.5-1.1l-7.2-35c1-0.3,2-0.8,2.8-1.6c1-1,1.7-2.4,1.9-3.7
		l34.7,1.9c0.1,1.6,0.7,3.2,1.9,4.4L344.2,114.7z M384.4,126.1L340.3,176c-0.9-0.6-1.8-1-2.8-1.2l3.1-47.8c1.6-0.1,3.3-0.7,4.5-2
		c1.1-1.1,1.7-2.5,1.9-3.9l35.6,1C382.7,123.5,383.3,125,384.4,126.1z M285.3,204l-23.2-22.4c1.4-1.8,1.8-4,1.2-6.1l32.5-13.4
		c0.3,0.6,0.7,1.1,1.1,1.6c0.7,0.7,1.6,1.3,2.6,1.6l-8.9,37.1C288.7,202.2,286.8,202.7,285.3,204z M196.4,111.6l34.9-40
		c0.5,0.3,0.9,0.6,1.4,0.8l-6.3,22.6c-2.1-0.4-4.3,0.3-5.9,1.9c-1.8,1.8-2.4,4.5-1.6,6.8l-21.5,9.4
		C197.1,112.5,196.7,112.1,196.4,111.6z M288.2,13.9c0.9,0.7,1.9,1.2,2.9,1.5l-3.4,32.6c-1.7,0-3.5,0.7-4.8,2
		c-1.5,1.5-2.1,3.6-1.9,5.5L241.5,64c-0.3-1-0.8-1.9-1.6-2.7c-0.1-0.1-0.1-0.1-0.2-0.1L288.2,13.9z M328.9,36.4l0.7,29.2
		c-1.4,0.2-2.8,0.8-3.9,1.9c-0.5,0.5-0.8,1-1.2,1.6l-30.3-12.5c0.5-1.6,0.4-3.3-0.4-4.8l30.3-18.1c0.2,0.3,0.4,0.5,0.6,0.8
		C325.9,35.7,327.4,36.3,328.9,36.4z M305.9,153.8c-1-0.9-2.3-1.3-3.5-1.5l0.1-30.3c1.5-0.1,3-0.8,4.1-1.9c0.9-0.9,1.5-2.1,1.8-3.2
		l25.2,3.2c0,1.6,0.5,3.2,1.6,4.5L305.9,153.8z M258.2,170.8l3.2-30.5c1.7,0,3.5-0.6,4.8-2c0.2-0.2,0.4-0.4,0.5-0.6l28.9,18.2
		c-0.8,1.5-0.9,3.3-0.4,4.9l-32.5,13.4c-0.3-0.6-0.7-1.1-1.1-1.6C260.6,171.7,259.5,171.1,258.2,170.8z M224.6,133.1l38.9-31.4
		c0,0,0,0,0,0c0.8,0.8,1.8,1.4,2.9,1.7l-4.4,23.5c-1.9-0.2-3.9,0.5-5.3,1.9c-1.3,1.3-1.9,2.9-2,4.6l-29.2,2.2
		C225.4,134.8,225.1,133.9,224.6,133.1z M227.7,95.3l6.3-22.6c1.9,0.3,4-0.2,5.6-1.6l23.4,21.8c-0.9,1.2-1.4,2.6-1.4,4.1l-29.8,3.2
		c-0.3-1.2-0.9-2.4-1.8-3.4C229.3,96.1,228.5,95.6,227.7,95.3z M301,152.3c-1.5,0.1-3,0.8-4.1,1.9c-0.2,0.2-0.4,0.4-0.5,0.6
		l-28.9-18.2c0.8-1.6,0.9-3.4,0.4-5.1l28.2-12.8c0.3,0.5,0.6,1,1,1.4c1.1,1.1,2.6,1.8,4.1,1.9L301,152.3z M273,101.8
		c0.3-0.3,0.6-0.6,0.8-1l21.8,11.9c-0.6,1.5-0.7,3.2-0.2,4.8l-28.2,12.8c-0.3-0.5-0.6-1-1-1.4c-0.8-0.8-1.8-1.4-2.9-1.7l4.4-23.5
		C269.6,103.8,271.6,103.2,273,101.8z M297.1,110.5c-0.3,0.3-0.6,0.6-0.8,1l-21.8-11.9c0.6-1.4,0.7-3,0.2-4.5l49.7-19.8
		c0.3,0.6,0.7,1.2,1.2,1.7c0.2,0.2,0.3,0.3,0.5,0.4l-21.2,32C302.4,108,299.2,108.4,297.1,110.5z M324,74.1l-49.7,19.8
		c-0.3-0.6-0.7-1.2-1.2-1.7c-0.4-0.4-0.9-0.7-1.4-1L285.5,61c2.4,0.8,5.1,0.3,6.9-1.6c0.5-0.5,0.8-1,1.2-1.6L324,70.3
		C323.6,71.5,323.6,72.8,324,74.1z M284.3,60.5l-13.9,30.2c-2.2-0.8-4.7-0.3-6.6,1.3l-23.4-21.8c1.1-1.4,1.5-3.1,1.3-4.8l39.6-8.6
		c0.3,1,0.8,1.9,1.6,2.7C283.4,59.9,283.8,60.2,284.3,60.5z M335.6,115.5c-0.9,0.9-1.5,2.1-1.8,3.2l-25.2-3.2c0-1.8-0.6-3.6-2-5
		c-0.2-0.2-0.3-0.3-0.5-0.4l21.2-32c1.2,0.6,2.5,0.9,3.8,0.7l7.2,35C337.3,114.2,336.4,114.7,335.6,115.5z M230,106.3
		c1.3-1.3,2-3.1,2-4.8l29.8-3.2c0.2,0.8,0.5,1.6,0.9,2.3l-38.9,31.4c0,0,0,0,0,0c-0.8-0.8-1.9-1.4-2.9-1.7l3.9-22.1
		C226.6,108.4,228.5,107.8,230,106.3z M224,141.3c1.1-1.2,1.6-2.7,1.7-4.3l29.2-2.2c0.2,1.3,0.8,2.6,1.9,3.6c1,1,2.2,1.6,3.4,1.8
		l-3.2,30.5c-1.4,0-2.9,0.5-4.1,1.4L224,141.3z M306.8,154.7l29.3-29.2c0.9,0.7,2,1.2,3.1,1.4l-3.1,47.8c-1.6,0.1-3.3,0.7-4.5,2
		c-0.2,0.2-0.3,0.4-0.5,0.6L307.6,162C308.8,159.7,308.6,156.8,306.8,154.7z M371.8,73.8l-34.7-1.9c-0.1-1.6-0.7-3.2-1.9-4.5
		c-1.2-1.2-2.7-1.8-4.2-1.9l-0.7-29.2c1.3-0.2,2.6-0.7,3.6-1.6l39.2,36.1C372.4,71.7,372,72.8,371.8,73.8z M323.3,27
		c-0.8,1.8-0.8,3.8,0.1,5.6l-30.3,18.1c-0.2-0.3-0.4-0.5-0.6-0.8c-1-1-2.2-1.6-3.4-1.8l3.4-32.6c1.7,0,3.5-0.7,4.8-2
		c0.3-0.3,0.5-0.6,0.7-0.9L323.3,27z M248.3,15.2c1.2-1.2,1.8-2.8,1.9-4.3l35.6-1.2c0.2,1.2,0.6,2.3,1.4,3.3l-48.6,47.5
		c-0.8-0.5-1.6-0.8-2.5-0.9l7-42.3C244.9,17.3,246.8,16.6,248.3,15.2z M228.6,67.8c0.3,1.1,0.8,2.1,1.6,3l-34.9,40
		c-1.1-0.8-2.3-1.2-3.6-1.2l-1.5-24.8c1.4-0.2,2.7-0.8,3.7-1.9c1.6-1.6,2.2-3.8,1.9-5.9L228.6,67.8z M197.2,119.7
		c1-1.7,1.2-3.7,0.6-5.5l21.5-9.4c0.3,0.5,0.6,1,1.1,1.5c0.8,0.8,1.9,1.4,2.9,1.7l-3.9,22.1c-1.9-0.1-3.8,0.5-5.3,1.9
		c-0.1,0.1-0.1,0.1-0.2,0.2L197.2,119.7z M217.4,143.4c1.9,0.5,4,0,5.6-1.2l28.8,30.8c-0.9,1-1.4,2.2-1.6,3.5l-37.9-1.6
		c-0.1-1.6-0.7-3.2-1.9-4.4c-0.6-0.6-1.2-1-1.9-1.3L217.4,143.4z M295,205.1c-0.2-0.3-0.4-0.5-0.6-0.8c-0.7-0.7-1.6-1.3-2.6-1.6
		l8.9-37.1c2,0.3,4.1-0.3,5.7-1.9c0.2-0.2,0.3-0.4,0.5-0.6l23.5,15.2c-0.9,1.8-1,4-0.1,5.9L295,205.1z M387.2,115.2
		c-0.9,0.3-1.8,0.8-2.6,1.6c-1.1,1.1-1.7,2.5-1.9,3.9l-35.6-1c-0.1-1.5-0.7-3-1.8-4.2l29.5-35.1c1.4,0.9,3,1.3,4.6,1.1L387.2,115.2z
		 M376.7,68.4c-1,0.3-1.9,0.7-2.6,1.4l-39.2-36.1c1-1.4,1.5-3.1,1.3-4.7l26.4-5.5c0.3,1,0.8,2,1.6,2.7c1.4,1.4,3.4,2.1,5.3,1.9
		L376.7,68.4z"/>
	<text transform="matrix(1 0 0 1 259.4282 95.9023)"><tspan x="0" y="0" font-family="'OpenSans-Semibold'" font-size="32px">SAFE</tspan><tspan x="-30.1" y="38.4" font-family="'OpenSans-Semibold'" font-size="32px">Network</tspan></text>
</g>
</svg>
