<?xml version="1.0" encoding="utf-8"?>
<!-- Generator: Adobe Illustrator 19.1.0, SVG Export Plug-In . SVG Version: 6.00 Build 0)  -->
<svg version="1.1" id="Layer_1" xmlns="http://www.w3.org/2000/svg" xmlns:xlink="http://www.w3.org/1999/xlink" x="0px" y="0px"
	 viewBox="0 0 318 230" enable-background="new 0 0 318 230" xml:space="preserve">
<g>
	<g>
		<g>
			<g>
				<path d="M288.6,149.9h-232v-134c0-2.8,2.3-5.2,5.2-5.2h221.6c2.8,0,5.2,2.3,5.2,5.2V149.9z"/>
				<rect x="66" y="20" fill="#5592D7" width="213.4" height="120.6"/>
				<path fill="#C9C9CC" d="M283.5,170.5H61.8c-2.8,0-5.2-2.3-5.2-5.2v-15.5h232v15.5C288.6,168.2,286.3,170.5,283.5,170.5z"/>
				<polygon fill="#C9C9CC" points="193.8,194.2 151.5,194.2 153.6,170.5 191.7,170.5 				"/>
				<rect x="137.1" y="194.2" fill="#C9C9CC" width="71.1" height="6.2"/>
				<circle cx="172.7" cy="160.2" r="5.2"/>
				<polygon fill="#B2B2B2" points="192.8,183.9 191.7,170.5 153.6,170.5 152.6,179.8 				"/>
				<circle fill="#EDEDED" cx="172.7" cy="80.3" r="44.3"/>
				<g>
					<path fill="#5592D7" d="M172.7,80.3l-0.3-41c-3.1,0-6.2,0.4-9.4,1.2c-22,5.3-35.5,27.5-30.2,49.4s27.5,35.5,49.4,30.2
						c22-5.3,35.5-27.5,30.2-49.4c-0.8-3.1-1.9-6.1-3.2-8.8L172.7,80.3z"/>
				</g>
			</g>
		</g>
		<g>
			<path fill="#513432" d="M124.1,130.5c-15.3-8.1-13.9-20.4-11.6-27.4c2.4-7.5,5.2-15.2,5.2-23.6V57.2c0-30.2-23.8-54.7-53-54.7
				c-29.2,0-53,24.5-53,54.7v22.2c0,8.4,2.8,16.1,5.2,23.6c2.3,7.1,3.8,19.4-11.6,27.4c-2.5,1.3-3.8,4-2.3,6.4
				c5.8,9.6,23.2,31.1,61.7,31.1s55.9-21.5,61.7-31.1C128,134.5,126.6,131.8,124.1,130.5z"/>
			<g>
				<path fill="#5593D7" d="M107.5,183.6c0-28.3-19.1-51.3-42.7-51.3c-23.6,0-42.7,23-42.7,51.3l0,0c0,14.2,19.1,25.6,42.7,25.6
					S107.5,197.8,107.5,183.6L107.5,183.6z"/>
				<path fill="#F7944B" d="M81.4,136.4c-5.1-2.6-10.7-4-16.6-4s-11.5,1.4-16.6,4c-2.5,7.1,0,30.2,16.6,30.2l0,0
					C81.4,166.6,83.9,143.5,81.4,136.4z"/>
				<path opacity="0.1" d="M107.5,183.6L107.5,183.6L107.5,183.6c0-28.3-19.1-51.3-42.7-51.3v51.3l0,0v25.6
					C88.4,209.3,107.5,197.8,107.5,183.6L107.5,183.6L107.5,183.6z"/>
			</g>
			<g>
				<path fill="#F7C1A1" d="M81.4,136.4c-5.1-2.6-10.7-4-16.6-4c-5.9,0-11.5,1.4-16.6,4c1.8,7.5,8.5,13.1,16.6,13.1
					C72.9,149.5,79.6,143.9,81.4,136.4z"/>
				<rect x="56.3" y="105.3" fill="#F7C1A1" width="17.1" height="33.1"/>
				<path fill="#F5B090" d="M73.3,133.4v-28.1h-8.5v44.1c8.1,0,14.8-5.6,16.6-13.1C78.8,135.1,76.1,134.1,73.3,133.4z"/>
			</g>
			<ellipse fill="#F7C1A1" cx="107.5" cy="70" rx="6.8" ry="12.8"/>
			<path fill="#F7C1A1" d="M64.8,12.8c-23.6,0-42.7,19.9-42.7,44.4v22.2c0,24.5,19.1,44.4,42.7,44.4c23.6,0,42.7-19.9,42.7-44.4
				V57.2C107.5,32.6,88.4,12.8,64.8,12.8z"/>
			<path fill="#F5B090" d="M64.8,12.8C83.7,12.8,99,32.6,99,57.2v22.2c0,24.5-15.3,44.4-34.2,44.4c23.6,0,42.7-19.9,42.7-44.4V57.2
				C107.5,32.6,88.4,12.8,64.8,12.8z"/>
			<path fill="#513432" d="M64.8,2.5c-29.2,0-53,24.5-53,54.7v22.2c0,8.4,2.8,16.1,5.2,23.6c1,3.2,1.9,7.4,1.1,11.9h12.5
				c-3.4-9.4-2.1-40.8,17.6-50c19.7-9.2,33.2-31.2,33.2-31.2c12.3,5.6,26.1,23.5,26.1,23.5h10.3C117.8,27,94,2.5,64.8,2.5z"/>
		</g>
		<g>
			<g>
				<path fill="#424242" d="M313.7,206.3h-52.8c-1,0-1.8-0.8-1.8-1.8v-74c0-1,0.8-1.8,1.8-1.8h52.8c1,0,1.8,0.8,1.8,1.8v74
					C315.6,205.5,314.7,206.3,313.7,206.3z"/>
			</g>
			<g>
				<path fill="#262626" d="M310.6,202.9H264c-0.9,0-1.7-0.7-1.7-1.7v-67.6c0-0.9,0.7-1.7,1.7-1.7h46.6c0.9,0,1.7,0.7,1.7,1.7v67.6
					C312.3,202.1,311.5,202.9,310.6,202.9z"/>
			</g>
			<g>
				<circle fill="#E2E2E2" cx="287.3" cy="157.7" r="22.1"/>
				<circle fill="#898989" cx="287.3" cy="157.7" r="6.3"/>
			</g>
			<g>
				<g>
					<path fill="#FFB600" d="M277,199.7l21.4-31.2c0.2-0.4,0.2-0.8-0.1-1.1v0c-0.3-0.3-0.8-0.3-1.1-0.1l-29.8,23.2
						c-0.3,0.2-0.4,0.6-0.3,0.9l0,0.1c1.2,4.3,4.6,7.5,9,8.4l0.1,0C276.5,200.1,276.8,200,277,199.7z M276,198.4
						c-3.5-0.8-6.2-3.4-7.3-6.8l6.3-5.2c2.9,0.4,5.2,2.6,5.8,5.4v0L276,198.4L276,198.4z"/>
					<circle fill="#898989" cx="281.2" cy="185.5" r="2.8"/>
				</g>
				<path fill="#898989" d="M282.6,191.9c-4.3,0-7.7-3.4-7.7-7.7v-1.9c0-1-0.8-1.8-1.8-1.8h-3.2h-3c-1,0-1.8,0.8-1.8,1.8v12.5
					c0,2.9,2.4,5.3,5.3,5.3h15.7c1,0,1.8-0.8,1.8-1.8v-4.7c0-1-0.8-1.8-1.8-1.8H282.6z"/>
			</g>
		</g>
	</g>
	<g>
		<g>
			<rect x="155.3" y="181.4" fill="#FFB583" width="72.8" height="35.9"/>
			<path fill="#F7944B" d="M199.6,177.4h-34.4h-14.3v13.8v16.5v13.8h14.3h53.1h14.3v-13.7v-16.5v-13.7H199.6z M218,181.4
				c0.5,5.4,4.8,9.7,10.2,10.2v15.5c-5.4,0.5-9.7,4.8-10.2,10.2h-52.4c-0.5-5.4-4.8-9.7-10.2-10.2v-15.5c5.4-0.5,9.7-4.8,10.2-10.2
				H218z"/>
			<circle fill="#F7944B" cx="191.8" cy="199.4" r="12.2"/>
			<circle fill="#FFB583" cx="191.8" cy="199.4" r="8"/>
		</g>
		<g>
			<rect x="144.3" y="171.4" fill="#FFB583" width="72.8" height="35.9"/>
			<path fill="#F7944B" d="M188.6,167.4h-34.4h-14.3v13.8v16.5v13.8h14.3h53.1h14.3v-13.7v-16.5v-13.7H188.6z M207,171.4
				c0.5,5.4,4.8,9.7,10.2,10.2v15.5c-5.4,0.5-9.7,4.8-10.2,10.2h-52.4c-0.5-5.4-4.8-9.7-10.2-10.2v-15.5c5.4-0.5,9.7-4.8,10.2-10.2
				H207z"/>
			<circle fill="#F7944B" cx="180.8" cy="189.4" r="12.2"/>
			<circle fill="#FFB583" cx="180.8" cy="189.4" r="8"/>
		</g>
		<rect x="133.9" y="222.4" fill="#FFE999" width="25" height="5"/>
		<rect x="136.4" y="216.4" fill="#FFE999" width="25" height="5"/>
		<rect x="136.4" y="210.4" fill="#FFE999" width="25" height="5"/>
		<rect x="133.9" y="204.4" fill="#FFE999" width="25" height="5"/>
		<rect x="132.6" y="198.4" fill="#FFE999" width="25" height="5"/>
		<rect x="133.9" y="192.4" fill="#FFE999" width="25" height="5"/>
		<rect x="133.9" y="186.4" fill="#FFE999" width="25" height="5"/>
		<path fill="#FFE999" d="M118.7,227.4L118.7,227.4c-6.9,0-12.5-5.6-12.5-12.5v0c0-6.9,5.6-12.5,12.5-12.5h0
			c6.9,0,12.5,5.6,12.5,12.5v0C131.2,221.8,125.6,227.4,118.7,227.4z"/>
		<path opacity="0.8" fill="#F9CB64" d="M118.7,223.6L118.7,223.6c-4.8,0-8.8-3.9-8.8-8.8v0c0-4.8,3.9-8.8,8.8-8.8h0
			c4.8,0,8.8,3.9,8.8,8.8v0C127.5,219.7,123.6,223.6,118.7,223.6z"/>
	</g>
</g>
</svg>
