<?xml version="1.0" encoding="utf-8"?>
<!-- Generator: Adobe Illustrator 19.1.0, SVG Export Plug-In . SVG Version: 6.00 Build 0)  -->
<svg version="1.1" id="Layer_1" xmlns="http://www.w3.org/2000/svg" xmlns:xlink="http://www.w3.org/1999/xlink" x="0px" y="0px"
	 viewBox="0 0 1902.9 889.9" enable-background="new 0 0 1902.9 889.9" xml:space="preserve">
<rect x="0" fill="#EAEAEA" width="1902.9" height="889.9"/>
<g>
	
		<radialGradient id="SVGID_1_" cx="790.1619" cy="4425.7539" r="20.0768" gradientTransform="matrix(6.4071 0 0 0.4454 -4415.8218 -1428.9082)" gradientUnits="userSpaceOnUse">
		<stop  offset="0" style="stop-color:#050505;stop-opacity:0.5"/>
		<stop  offset="0.2759" style="stop-color:#515151;stop-opacity:0.3621"/>
		<stop  offset="0.6314" style="stop-color:#AEAEAE;stop-opacity:0.1843"/>
		<stop  offset="0.8809" style="stop-color:#E8E8E8;stop-opacity:5.952728e-002"/>
		<stop  offset="1" style="stop-color:#FFFFFF;stop-opacity:0"/>
	</radialGradient>
	<path fill="url(#SVGID_1_)" d="M782.6,542.2c0,5.1-59.2,9.2-132.2,9.2s-132.2-4.1-132.2-9.2c0-5.1,59.2-9.2,132.2-9.2
		S782.6,537.2,782.6,542.2z"/>
	<g>
		<path fill="#5892CD" d="M828.4,475.6c0,7.7-2.7,13.6-8.1,17.7c-5.4,4-13.4,6.1-24.1,6.1c-5.5,0-10.3-0.4-14.2-1.1
			c-3.9-0.7-7.5-1.8-11-3.3v-17c4.2,1.8,8.3,3.3,13.1,4.5c4.8,1.2,9.1,1.8,12.7,1.8c7.5,0,11.2-2.2,11.2-6.5c0-1.6-0.5-2.9-1.5-3.9
			c-1-1-2.7-2.2-5.1-3.4c-2.4-1.3-5.7-2.8-9.7-4.5c-5.8-2.4-10.1-4.7-12.8-6.7c-2.7-2.1-4.7-4.4-5.9-7.1c-1.2-2.7-1.9-6-1.9-9.9
			c0-6.7,2.6-11.9,7.8-15.5c5.2-3.7,12.6-5.5,22.1-5.5c9.1,0,17.9,2,26.5,5.9l-6.2,14.8c-3.8-1.6-7.3-2.9-10.6-4
			c-3.3-1-6.6-1.6-10-1.6c-6.1,0-9.1,1.6-9.1,4.9c0,1.8,1,3.4,2.9,4.8c2,1.3,6.2,3.3,12.8,6c5.9,2.4,10.2,4.6,12.9,6.7
			c2.7,2.1,4.8,4.4,6.1,7.1C827.8,468.7,828.4,471.9,828.4,475.6z"/>
		<path fill="#5892CD" d="M892.3,498.3l-4-10.5h-0.5c-3.5,4.2-7,7.4-10.7,9.1c-3.7,1.7-8.4,2.5-14.3,2.5c-7.2,0-12.9-2.1-17.1-6.2
			c-4.2-4.1-6.2-10-6.2-17.7c0-8,2.8-13.9,8.4-17.7c5.6-3.8,14.1-5.9,25.4-6.3l13.2-0.4v-3.3c0-7.6-4-11.5-11.8-11.5
			c-6,0-13.1,1.8-21.3,5.5l-6.8-13.9c8.7-4.5,18.3-6.8,28.8-6.8c10.1,0,17.9,2.2,23.3,6.6c5.4,4.4,8.1,11.1,8.1,20.1v50.5H892.3z
			 M886.4,463.1l-8,0.3c-6,0.2-10.5,1.3-13.4,3.2c-2.9,2-4.4,5-4.4,9c0,5.8,3.3,8.7,10,8.7c4.8,0,8.6-1.4,11.5-4.1
			c2.9-2.7,4.4-6.4,4.4-10.9V463.1z"/>
		<path fill="#5892CD" d="M969.7,438.1h-18.2v60.1h-20.3v-60.1H920v-10l11.2-5.5v-5.5c0-8.6,2.1-14.9,6.3-18.8
			c4.2-4,11-5.9,20.3-5.9c7.1,0,13.4,1.1,18.9,3.2l-5.3,15.1c-4.1-1.3-8-2-11.5-2c-2.9,0-5.2,0.9-6.5,2.6c-1.3,1.7-2.1,3.9-2.1,6.6
			v4.8h18.2V438.1z"/>
		<path fill="#5892CD" d="M1015.5,499.4c-12.1,0-21.6-3.3-28.5-10c-6.8-6.7-10.3-16.2-10.3-28.5c0-12.6,3.2-22.4,9.5-29.3
			c6.3-6.9,15-10.3,26.2-10.3c10.7,0,18.8,3,24.7,9.1c5.9,6.1,8.7,14.5,8.7,25.1v9.9h-48.3c0.2,5.6,2,10.4,5.2,13.7
			c3.2,3.3,7.8,4.9,13.6,4.9c4.5,0,8.7-0.5,12.7-1.4c4-0.9,8.3-2.4,12.5-4.5V494c-3.5,1.8-7.3,3.1-11.4,4
			C1026.2,498.9,1021.4,499.4,1015.5,499.4z M1012.6,435.8c-4.4,0-7.8,1.2-10.2,4c-2.5,2.8-3.9,6.7-4.2,11.6h28.9
			c-0.1-4.9-1.4-8.8-4-11.6C1020.4,437.1,1016.9,435.8,1012.6,435.8z"/>
		<path fill="#6EAADC" d="M1093.5,499.4c-23.5,0-35.2-12.9-35.2-38.6c0-12.8,3.2-22.6,9.6-29.4c6.4-6.8,15.5-10.1,27.4-10.1
			c8.7,0,16.5,1.7,23.5,5.1l-6.1,15.9c-3.2-1.3-6.2-2.4-9-3.2c-2.8-0.8-5.6-1.2-8.4-1.2c-10.7,0-16,7.6-16,22.8
			c0,14.7,5.3,22.1,16,22.1c4,0,7.6-0.5,11-1.6c3.4-1.1,6.6-2.7,10.1-5v17.6c-3.5,2.1-6.7,3.6-10.1,4.4
			C1103,498.9,1098.7,499.4,1093.5,499.4z"/>
		<path fill="#6EAADC" d="M1202.4,460.2c0,12.3-3.2,21.9-9.7,28.8c-6.5,6.9-15.5,10.4-27,10.4c-7.2,0-13.6-1.6-19.1-4.8
			c-5.5-3.2-9.8-7.7-12.7-13.7c-3-5.9-4.4-12.9-4.4-20.8c0-12.3,3.2-21.9,9.6-28.7c6.4-6.8,15.5-10.2,27.1-10.2
			c7.2,0,13.6,1.6,19.1,4.7c5.5,3.1,9.8,7.7,12.7,13.6C1201,445.4,1202.4,452.3,1202.4,460.2z M1150.3,460.2
			c0,7.5,1.2,13.1,3.7,16.9c2.4,3.8,6.4,5.7,12,5.7c5.5,0,9.4-1.9,11.8-5.7c2.4-3.8,3.6-9.5,3.6-17c0-7.5-1.2-13.1-3.6-16.8
			c-2.4-3.7-6.4-5.6-11.9-5.6c-5.5,0-9.4,1.9-11.9,5.6C1151.5,447.1,1150.3,452.7,1150.3,460.2z"/>
		<path fill="#6EAADC" d="M1218.6,403.1c0-6.7,3.7-10,11.2-10c7.5,0,11.2,3.3,11.2,10c0,3.2-0.9,5.7-2.8,7.5
			c-1.9,1.8-4.7,2.7-8.4,2.7C1222.3,413.2,1218.6,409.9,1218.6,403.1z M1240.3,498.3h-21v-75.5h21V498.3z"/>
		<path fill="#6EAADC" d="M1331.2,498.3h-20.3V454c0-5.4-1.1-9.5-3-12.2c-1.9-2.7-5.1-4.1-9.3-4.1c-5.8,0-9.9,1.9-12.5,5.8
			c-2.6,3.8-3.8,10.2-3.8,19.1v35.7h-21v-75.5h16l2.8,9.8h1.1c2.3-4.2,5.5-6.5,9.5-8.4c4-1.9,8.6-2.9,13.7-2.9
			c8.8,0,15.4,2.3,20,7.1c4.5,4.7,6.8,11.6,6.8,20.5V498.3z"/>
	</g>
	<g>
		<polygon fill="#5892CD" points="692,443.4 692,427.8 650.7,404.1 619.8,421.9 712.3,475.3 712.3,486.9 650.8,522.3 589.3,486.9 
			589.3,463.5 571.8,453.3 571.8,497.1 650.4,542.7 729.1,497.1 729.1,464.7 		"/>
		<polygon fill="#5892CD" points="712.3,416.2 712.3,416.2 650.8,380.8 589.3,416.2 589.3,416.2 650.8,380.8 		"/>
	</g>
	<polygon fill="#6EAADC" points="650.8,360.4 571.8,406 571.8,440.4 608.8,462.1 608.8,462.1 608.8,462.1 608.8,462.1 608.8,475.3 
		650.5,499 679.6,482.3 589.3,430.1 589.3,416.2 650.8,380.8 712.3,416.2 712.3,439.2 729.8,449.3 729.8,406 	"/>
</g>
</svg>
