<?xml version="1.0" encoding="utf-8"?>
<!-- Generator: Adobe Illustrator 19.1.0, SVG Export Plug-In . SVG Version: 6.00 Build 0)  -->
<svg version="1.1" id="Layer_1" xmlns="http://www.w3.org/2000/svg" xmlns:xlink="http://www.w3.org/1999/xlink" x="0px" y="0px"
	 viewBox="0 0 484.7 399.7" enable-background="new 0 0 484.7 399.7" xml:space="preserve">
<g>
	
		<radialGradient id="XMLID_8_" cx="604.2491" cy="9114.7705" r="101.4511" gradientTransform="matrix(4.489700e-011 -1 1 4.489700e-011 -8727.1338 799.9423)" gradientUnits="userSpaceOnUse">
		<stop  offset="0" style="stop-color:#A6A8AB"/>
		<stop  offset="0.2454" style="stop-color:#A9ABAE"/>
		<stop  offset="0.4484" style="stop-color:#B4B5B8"/>
		<stop  offset="0.6362" style="stop-color:#C5C6C8"/>
		<stop  offset="0.8149" style="stop-color:#DDDEDF"/>
		<stop  offset="0.9857" style="stop-color:#FCFCFC"/>
		<stop  offset="1" style="stop-color:#FFFFFF"/>
	</radialGradient>
	<path id="XMLID_345_" fill="url(#XMLID_8_)" d="M384.4,92.1c0,2,0.9,3.7,2.3,4.8l-13.7,20.8c-0.9-0.4-1.8-0.7-2.9-0.7
		c-3.4,0-6.2,2.8-6.2,6.2c0,0.4,0,0.7,0.1,1l-25.9,7.2c-0.9-2.3-3.1-4-5.8-4c-3.4,0-6.2,2.8-6.2,6.2c0,1.6,0.6,3,1.6,4.1l-22.5,24.1
		c-1-0.8-2.3-1.3-3.8-1.3c-3.4,0-6.2,2.8-6.2,6.2c0,3.4,2.8,6.2,6.2,6.2c1.1,0,2.2-0.3,3.1-0.8l23.2,32.3c-1,1.1-1.6,2.5-1.6,4.1
		c0,1.8,0.8,3.4,2,4.6l-15.5,27.6c-0.8-0.3-1.6-0.5-2.5-0.5c-3.4,0-6.2,2.8-6.2,6.2c0,3.4,2.8,6.2,6.2,6.2c1.6,0,3.1-0.6,4.2-1.7
		l17.1,15.2c-0.7,1-1.2,2.3-1.2,3.6c0,3.4,2.8,6.2,6.2,6.2s6.2-2.8,6.2-6.2c0-0.1,0-0.2,0-0.3l19.1-2.7c0.7,2.7,3.1,4.7,6,4.7
		c0.8,0,1.5-0.2,2.1-0.4l11,22.8c-1.8,1.1-3,3-3,5.3c0,3.4,2.8,6.2,6.2,6.2s6.2-2.8,6.2-6.2c0-1.4-0.5-2.7-1.3-3.7l25.8-23.8
		c1.1,1,2.5,1.6,4.1,1.6c3.3,0,5.9-2.5,6.2-5.7l29.8-0.5c0.4,3.1,3,5.5,6.2,5.5c3.4,0,6.2-2.8,6.2-6.2c0-2.7-1.7-4.9-4.1-5.8
		l9.4-36.6c0.3,0,0.6,0.1,0.9,0.1c3.4,0,6.2-2.8,6.2-6.2c0-3.4-2.7-6.1-6-6.2l-3.7-61.4c3-0.5,5.2-3,5.2-6.1c0-3.4-2.8-6.2-6.2-6.2
		c-2,0-3.8,1-4.9,2.4l-27.1-16.9c0.4-0.8,0.6-1.7,0.6-2.7c0-3.4-2.8-6.2-6.2-6.2c-1.9,0-3.5,0.8-4.7,2.2l-31-21.6
		c0.5-0.9,0.8-1.9,0.8-3c0-3.4-2.8-6.2-6.2-6.2C387.2,85.9,384.4,88.7,384.4,92.1z M435.3,169.2c-1.5,0.3-2.8,1.1-3.7,2.2
		l-27.5-18.1c0.5-0.9,0.7-1.8,0.7-2.9c0-1.4-0.5-2.6-1.2-3.7l23.9-21.4c1.1,1,2.5,1.6,4.1,1.6L435.3,169.2z M469,150.4l3.7,61.4
		c-1,0.2-1.9,0.5-2.6,1.1L441,179.5c1-1.1,1.7-2.6,1.7-4.2c0-1.4-0.5-2.7-1.3-3.8l23.9-22.6C466.3,149.7,467.6,150.3,469,150.4z
		 M455.2,265.9l-29.8,0.5c-0.2-2.1-1.5-3.8-3.2-4.7l12.4-29.9c0.6,0.2,1.2,0.3,1.8,0.3c1,0,1.9-0.2,2.7-0.6l18.4,30.1
		C456.2,262.5,455.3,264.1,455.2,265.9z M336.8,263.7l-3.4-48.9c0.5-0.1,1-0.2,1.4-0.4l10.6,18.8c-1.6,1.1-2.6,3-2.6,5.1
		c0,2.4,1.4,4.5,3.4,5.5l-7.9,20.1C337.8,263.8,337.3,263.7,336.8,263.7z M332.9,139.9c1.1-0.1,2-0.4,2.9-1l19.1,23.5
		c-1.1,1.1-1.8,2.7-1.8,4.4c0,2,0.9,3.7,2.4,4.8l-20.2,31.5c-0.8-0.4-1.8-0.7-2.8-0.7c-0.1,0-0.1,0-0.2,0L332.9,139.9z M374.2,128
		l19.5,18.6c-0.8,1.1-1.3,2.4-1.3,3.8c0,0.6,0.1,1.2,0.3,1.8l-28,11.7c-0.7-1.3-1.9-2.4-3.3-2.9l7.9-31.6c0.3,0,0.6,0.1,0.9,0.1
		C371.8,129.5,373.1,128.9,374.2,128z M435.8,219.7c-1.2,0.1-2.4,0.6-3.3,1.3l-19.7-19.9c0.9-1.1,1.4-2.4,1.4-3.9
		c0-1.2-0.4-2.3-1-3.3l18.6-14.4c1,1.1,2.4,1.8,3.9,1.9L435.8,219.7z M415.8,261.9l-17.8-22c1.1-1.1,1.8-2.7,1.8-4.4
		c0-0.3,0-0.5-0.1-0.8l30.8-7c0.5,1.5,1.6,2.7,2.9,3.5L421,261.2c-0.6-0.2-1.2-0.3-1.8-0.3C418,260.9,416.8,261.3,415.8,261.9z
		 M369.2,259.3l4.9-45.9c0,0,0,0,0,0c1.1,0,2.1-0.3,3-0.8l12.5,18.2c-1.4,1.1-2.2,2.8-2.2,4.7c0,1.7,0.7,3.2,1.7,4.3l-17.6,20.5
		C370.8,259.8,370.1,259.5,369.2,259.3z M346.6,232.6l-10.6-18.8c1.5-1.1,2.5-2.7,2.6-4.7l29.5-1.1c0.2,1.4,0.8,2.6,1.8,3.6
		l-17.4,21.5c-1-0.6-2.1-1-3.4-1C348.2,232,347.3,232.2,346.6,232.6z M431.7,221.9c-0.9,1.1-1.4,2.4-1.4,3.9c0,0.3,0,0.5,0.1,0.8
		l-30.8,7c-0.5-1.6-1.7-2.9-3.1-3.6l10.1-26.8c0.5,0.1,1,0.2,1.6,0.2c1.5,0,2.8-0.5,3.9-1.4L431.7,221.9z M380.4,207.1
		c0-0.4,0-0.8-0.1-1.1l22-6.5c0.6,1.4,1.7,2.5,3,3.2l-10.1,26.8c-0.5-0.1-1-0.2-1.6-0.2c-1.1,0-2.1,0.3-3,0.8l-12.5-18.2
		C379.5,210.7,380.4,209.1,380.4,207.1z M401.8,197.2c0,0.4,0,0.8,0.1,1.1l-22,6.5c-0.5-1.3-1.5-2.4-2.8-3.1l19.5-45.4
		c0.6,0.2,1.2,0.3,1.9,0.3c0.2,0,0.4,0,0.6-0.1l7,34.7C403.7,192.1,401.8,194.4,401.8,197.2z M395.6,155.8l-19.5,45.4
		c-0.6-0.2-1.2-0.3-1.9-0.3c-0.5,0-1.1,0.1-1.6,0.2L362,172.4c2.1-1,3.5-3.1,3.5-5.6c0-0.6-0.1-1.2-0.3-1.8l28-11.7
		C393.7,154.4,394.6,155.2,395.6,155.8z M360.8,172.8l10.7,28.8c-1.9,1-3.3,2.9-3.5,5.2l-29.5,1.1c-0.2-1.6-1.1-3-2.3-4l20.2-31.5
		c0.8,0.4,1.8,0.7,2.8,0.7C359.8,173,360.3,172.9,360.8,172.8z M430.2,175.3c0,1.2,0.4,2.3,1,3.3l-18.6,14.4c-1.1-1.2-2.7-2-4.5-2
		c-0.2,0-0.4,0-0.6,0.1l-7-34.7c1.2-0.4,2.2-1.1,3-2l27.5,18.1C430.5,173.3,430.2,174.2,430.2,175.3z M355.3,238.3
		c0-1.7-0.7-3.3-1.8-4.4l17.4-21.5c0.6,0.4,1.4,0.7,2.1,0.9l-4.9,45.9c0,0,0,0,0,0c-1.1,0-2.1,0.3-3,0.8l-11.9-17
		C354.4,241.8,355.3,240.2,355.3,238.3z M374.2,265c-0.1-1.5-0.7-2.8-1.7-3.9l17.6-20.5c1,0.7,2.2,1.1,3.6,1.1c1.3,0,2.4-0.4,3.4-1
		l17.8,22c-0.9,0.9-1.6,2.2-1.8,3.6L374.2,265z M437.1,219.7l0-38.2c1.1-0.1,2.1-0.5,2.9-1.1l29.2,33.3c-1,1.1-1.7,2.6-1.7,4.2
		c0,0.2,0,0.5,0.1,0.7l-25.3,5.4C441.6,221.6,439.6,219.9,437.1,219.7z M426.7,124.4l-23.9,21.4c-1.1-1-2.6-1.6-4.2-1.6
		c-1.5,0-2.9,0.6-4,1.5l-19.5-18.6c0.8-1,1.2-2.1,1.3-3.4l49.2-2C425.7,122.7,426.1,123.6,426.7,124.4z M364.4,125.5
		c0.6,1.7,2,3,3.7,3.6l-7.9,31.6c-0.3,0-0.6-0.1-0.9-0.1c-1.3,0-2.4,0.4-3.4,1l-19.1-23.5c1.1-1.1,1.8-2.7,1.8-4.4
		c0-0.4,0-0.7-0.1-1L364.4,125.5z M307.7,166.8c0-1.6-0.6-3-1.6-4.1l22.5-24.1c0.9,0.7,1.9,1.1,3.1,1.2l-0.7,62.7
		c-0.8,0.2-1.6,0.6-2.3,1.1l-23.1-32.2C306.9,170.3,307.7,168.7,307.7,166.8z M329.2,214c0.9,0.5,1.9,0.8,3,0.9l3.4,48.9
		c-1.2,0.2-2.3,0.8-3.2,1.6l-17.1-15.2c0.7-1,1.2-2.3,1.2-3.6c0-2.1-1.1-4-2.7-5.1L329.2,214z M342.6,268.4c-0.4-1.8-1.6-3.2-3.2-4
		l7.9-20.1c0.5,0.2,1.1,0.3,1.7,0.3c1.1,0,2.1-0.3,3-0.8l11.9,17c-1.3,1.1-2.2,2.8-2.2,4.7c0,0.1,0,0.2,0,0.3L342.6,268.4z
		 M371.2,270.7c1.5-1,2.6-2.6,2.9-4.5l39,1.3c0.1,1.2,0.5,2.4,1.2,3.3l-25.8,23.8c-1.1-1-2.5-1.6-4.1-1.6c-0.8,0-1.5,0.2-2.1,0.4
		L371.2,270.7z M462.3,260.3c-0.3,0-0.6-0.1-0.9-0.1c-1,0-1.9,0.2-2.7,0.6l-18.4-30.1c1.5-1.1,2.5-2.9,2.5-4.9c0-0.2,0-0.5-0.1-0.7
		l25.3-5.4c0.6,1.8,2,3.3,3.8,3.9L462.3,260.3z M463.7,141.4c-0.4,0.8-0.7,1.8-0.7,2.7c0,1.4,0.5,2.7,1.3,3.8l-23.9,22.6
		c-1.1-0.9-2.4-1.5-3.9-1.5l-3.7-42.2c1.5-0.3,2.8-1.2,3.7-2.3L463.7,141.4z M426.3,117.7c-0.5,0.8-0.7,1.7-0.8,2.7l-49.2,2
		c-0.2-1.6-1-3-2.2-3.9l13.7-20.8c0.9,0.4,1.8,0.7,2.9,0.7c1.9,0,3.6-0.9,4.7-2.2L426.3,117.7z"/>
	<g id="XMLID_185_">
		<defs>
			<circle id="XMLID_186_" cx="55" cy="195.8" r="48.5"/>
		</defs>
		<clipPath id="XMLID_9_">
			<use xlink:href="#XMLID_186_"  overflow="visible"/>
		</clipPath>
		<g id="XMLID_187_" clip-path="url(#XMLID_9_)">
			<path id="XMLID_188_" fill="#F6921E" d="M79.1,219.4c-0.5-10.6-1.8-34.2-2.7-37.9c-1.2-4.7-4.2-11.8-8.3-15.3
				c-4.1-3.5-11.1-3.6-13.4-3.4c-3.6,0.3-6.8,2.9-6.8,2.9s-3.7-1.8-6.9,1.9c-3.1,3.7-7.8,13.3-8.3,34.7c-0.1,6.6-0.3,11.7-0.5,15.7
				c-3.4,1.7-6.5,4-7.6,7.6c-1.7,5.7-0.8,17.6-0.3,20.4h60.2c0.5-2.8,1.4-14.7-0.3-20.4C83.5,223,81.5,221,79.1,219.4z M68.9,188.3
				c0.7,0.6,1.3,1.6,0.7,3.1c-0.4,1.1-0.7,2.1-0.9,2.9c-0.2,0.6-0.3,1.2-0.4,1.4l0,0.1c-0.1,0.3-0.3,0.7-0.6,1.1
				C68.4,193.9,68.8,190.6,68.9,188.3z M42,185.9c0-0.7,0.1-1.3,0.3-1.8l0.3-1c0.9-1.9,2.2-6.3,2.7-8.1c1.2,1.5,4.5,4.8,11.1,7.7
				c6.6,2.9,9.8,4.4,11.5,5.4c-0.1,3.9-1.1,11.1-3.9,14.5c-4,4.9-6.3,7.2-8.8,7.9c-0.4,0.1-0.9,0.1-1.4,0c-2.3-0.6-3.8-2.5-7.1-6.5
				l-1-1.3C41.8,197.9,42,187.1,42,185.9z M41.1,188.3c0.1,2.1,0.3,5,0.9,7.9c-0.1-0.1-0.1-0.3-0.2-0.4l0-0.1
				c-0.1-0.3-0.3-0.8-0.4-1.4c-0.2-0.8-0.5-1.8-0.9-2.9C39.9,189.9,40.5,188.9,41.1,188.3z M54.7,223.4c-8.6,0-17.3-5.1-17.3-6.3
				c0.8-0.3,1.5-0.5,2.3-0.8c1.3-0.4,2.5-0.8,3.5-1.2c3.5-1.5,4.5-5.8,4.8-8.3c2.2,2.6,3.6,4,5.7,4.5c0.3,0.1,0.6,0.1,1,0.1
				c0.3,0,0.6,0,0.9-0.1c1.9-0.5,3.5-1.8,5.7-4.1c0.3,2.6,1.3,6.6,4.7,8c1,0.4,2.2,0.8,3.5,1.2c0.7,0.2,1.5,0.5,2.3,0.8
				C71.7,218.3,63.2,223.4,54.7,223.4z"/>
		</g>
		<use xlink:href="#XMLID_186_"  overflow="visible" fill="none" stroke="#F6921E" stroke-width="3.5048" stroke-miterlimit="10"/>
	</g>
	<polygon id="XMLID_132_" fill="#808184" points="102.1,240.9 7.9,240.9 12.1,232.5 7.9,224.1 102.1,224.1 97.9,232.5 	"/>
	
		<text id="XMLID_130_" transform="matrix(1 0 0 1 35.9139 236.8581)" fill="#FFFFFF" font-family="'OpenSans-Bold'" font-size="12.0607px">USERS</text>
	<g id="XMLID_115_">
		<text transform="matrix(1 0 0 1 169.4071 169.1697)" fill="#5892CD" font-family="'OpenSans'" font-size="16.0635px">safecoin</text>
	</g>
	<g id="XMLID_79_">
		<text transform="matrix(1 0 0 1 186.4081 18.5017)" fill="#5892CD" font-family="'OpenSans'" font-size="16.0635px">safecoin</text>
	</g>
	<g id="XMLID_113_">
		<text transform="matrix(1 0 0 1 186.7999 206.8708)" fill="#6D6E70" font-family="'OpenSans'" font-size="16.0635px">services</text>
	</g>
	<g id="XMLID_90_">
		<text transform="matrix(1 0 0 1 186.4081 390.595)" fill="#5892CD" font-family="'OpenSans'" font-size="16.0635px">safecoin</text>
	</g>
	<g id="XMLID_80_">
		<text transform="matrix(1 0 0 1 200.5184 336.2903)" fill="#6D6E70" font-family="'OpenSans'" font-size="16.0635px">cash</text>
	</g>
	<g id="XMLID_81_">
		<text transform="matrix(1 0 0 1 196.5653 68.8772)"><tspan x="0" y="0" fill="#6D6E70" font-family="'OpenSans'" font-size="16.0635px">spare</tspan><tspan x="-58.1" y="19.3" fill="#6D6E70" font-family="'OpenSans'" font-size="16.0635px">computing resources</tspan></text>
	</g>
	<g id="XMLID_146_">
		<g>
			<line fill="none" stroke="#5892CD" stroke-width="5.8413" stroke-miterlimit="10" x1="115" y1="177.6" x2="273.5" y2="177.6"/>
			<g>
				<polygon fill="#5892CD" points="294.1,177.6 265,189.4 271.9,177.6 265,165.7 				"/>
			</g>
		</g>
	</g>
	<g id="XMLID_153_">
		<g>
			<line fill="none" stroke="#B3B2B3" stroke-width="5.8413" stroke-miterlimit="10" x1="310.1" y1="214.8" x2="151.7" y2="214.8"/>
			<g>
				<polygon fill="#B3B2B3" points="131.1,214.8 160.2,202.9 153.3,214.8 160.2,226.6 				"/>
			</g>
		</g>
	</g>
	<g id="XMLID_54_">
		<circle id="XMLID_61_" fill="#A6A8AB" cx="395.8" cy="195.8" r="58"/>
		<path id="XMLID_x5F_10_x5F_" fill="none" d="M445.4,195.8c0,27.4-22.2,49.6-49.6,49.6c-27.4,0-49.6-22.2-49.6-49.6
			s22.2-49.6,49.6-49.6C423.2,146.2,445.4,168.4,445.4,195.8z"/>
		<text id="XMLID_60_">		<textPath  xlink:href="#XMLID_x5F_10_x5F_" startOffset="567.2527%">
<tspan  fill="#231F20" font-family="'OpenSans-Light'" font-size="12.4362px" letter-spacing="25">SAFECOINS ARE GENERATED BY NETWORK TRAFFIC</tspan>		</textPath>
</text>
		<circle id="XMLID_59_" fill="#D0D2D3" cx="395.8" cy="195.8" r="40.4"/>
		<g id="XMLID_55_">
			<g id="XMLID_56_">
				<path id="XMLID_91_" fill="#5892CD" d="M386.8,186.8c0,0.9-0.3,1.6-1,2.1c-0.6,0.5-1.5,0.8-2.7,0.8c-1.1,0-2-0.2-2.8-0.6v-2
					c0.7,0.3,1.2,0.5,1.7,0.6c0.5,0.1,0.9,0.2,1.3,0.2c0.5,0,0.8-0.1,1.1-0.3c0.2-0.2,0.4-0.4,0.4-0.8c0-0.2-0.1-0.4-0.2-0.5
					c-0.1-0.2-0.3-0.3-0.5-0.4c-0.2-0.1-0.6-0.4-1.3-0.7c-0.6-0.3-1.1-0.6-1.4-0.8c-0.3-0.3-0.5-0.6-0.7-0.9
					c-0.2-0.3-0.3-0.8-0.3-1.2c0-0.9,0.3-1.6,0.9-2.1c0.6-0.5,1.4-0.8,2.5-0.8c0.5,0,1,0.1,1.5,0.2c0.5,0.1,1,0.3,1.5,0.5l-0.7,1.6
					c-0.5-0.2-1-0.4-1.3-0.5c-0.3-0.1-0.7-0.1-1-0.1c-0.4,0-0.7,0.1-0.9,0.3c-0.2,0.2-0.3,0.4-0.3,0.7c0,0.2,0,0.3,0.1,0.5
					c0.1,0.1,0.2,0.3,0.4,0.4c0.2,0.1,0.6,0.4,1.3,0.7c0.9,0.4,1.6,0.9,1.9,1.3C386.6,185.6,386.8,186.2,386.8,186.8z"/>
				<path id="XMLID_95_" fill="#5892CD" d="M394.7,189.6l-0.7-2.4h-3.6l-0.7,2.4h-2.3l3.5-10h2.6l3.5,10H394.7z M393.5,185.5
					c-0.7-2.1-1-3.4-1.1-3.6c-0.1-0.3-0.1-0.5-0.2-0.7c-0.1,0.6-0.6,2-1.3,4.3H393.5z"/>
				<path id="XMLID_98_" fill="#5892CD" d="M400.3,189.6h-2.1v-9.9h5.7v1.7h-3.6v2.6h3.4v1.7h-3.4V189.6z"/>
				<path id="XMLID_100_" fill="#5892CD" d="M411.6,189.6h-5.7v-9.9h5.7v1.7H408v2.2h3.4v1.7H408v2.6h3.6V189.6z"/>
				<path id="XMLID_177_" fill="#5892CD" d="M371,203.3h-2.7l-4.3-7.5h-0.1c0.1,1.3,0.1,2.3,0.1,2.8v4.7h-1.9v-9.9h2.7l4.3,7.4h0
					c-0.1-1.3-0.1-2.2-0.1-2.7v-4.7h1.9V203.3z"/>
				<path id="XMLID_190_" fill="#5892CD" d="M379.2,203.3h-5.7v-9.9h5.7v1.7h-3.6v2.2h3.4v1.7h-3.4v2.6h3.6V203.3z"/>
				<path id="XMLID_57_" fill="#5892CD" d="M385.2,203.3h-2.1v-8.2h-2.7v-1.8h7.5v1.8h-2.7V203.3z"/>
				<path id="XMLID_234_" fill="#5892CD" d="M399.1,203.3h-2.4l-1.3-5.2c0-0.2-0.1-0.6-0.3-1.2s-0.2-1-0.2-1.2
					c0,0.2-0.1,0.6-0.2,1.2c-0.1,0.5-0.2,0.9-0.3,1.2l-1.3,5.2h-2.4l-2.5-9.9h2.1l1.3,5.4c0.2,1,0.4,1.9,0.5,2.6
					c0-0.3,0.1-0.7,0.2-1.2c0.1-0.5,0.2-1,0.3-1.3l1.4-5.6h2l1.4,5.6c0.1,0.2,0.1,0.6,0.2,1.1c0.1,0.5,0.2,1,0.2,1.3
					c0-0.4,0.1-0.8,0.2-1.3c0.1-0.5,0.2-1,0.3-1.3l1.3-5.4h2.1L399.1,203.3z"/>
				<path id="XMLID_237_" fill="#5892CD" d="M411.9,198.3c0,1.6-0.4,2.9-1.2,3.8c-0.8,0.9-2,1.3-3.5,1.3c-1.5,0-2.7-0.4-3.5-1.3
					c-0.8-0.9-1.2-2.2-1.2-3.8c0-1.7,0.4-2.9,1.2-3.8c0.8-0.9,2-1.3,3.5-1.3c1.5,0,2.7,0.4,3.5,1.3
					C411.5,195.4,411.9,196.7,411.9,198.3z M404.6,198.3c0,1.1,0.2,1.9,0.6,2.5c0.4,0.6,1.1,0.8,1.9,0.8c1.7,0,2.5-1.1,2.5-3.4
					c0-2.2-0.8-3.4-2.5-3.4c-0.8,0-1.5,0.3-1.9,0.8C404.8,196.4,404.6,197.2,404.6,198.3z"/>
				<path id="XMLID_240_" fill="#5892CD" d="M416.1,199.5v3.8H414v-9.9h2.9c1.4,0,2.4,0.2,3,0.7c0.6,0.5,1,1.2,1,2.2
					c0,0.6-0.2,1.1-0.5,1.6c-0.3,0.5-0.8,0.8-1.4,1.1c1.5,2.2,2.5,3.7,2.9,4.3h-2.3l-2.4-3.8H416.1z M416.1,197.8h0.7
					c0.7,0,1.2-0.1,1.5-0.3s0.5-0.6,0.5-1c0-0.5-0.2-0.8-0.5-1c-0.3-0.2-0.8-0.3-1.5-0.3h-0.6V197.8z"/>
				<path id="XMLID_243_" fill="#5892CD" d="M431.1,203.3h-2.4l-2.6-4.2l-0.9,0.6v3.6h-2.1v-9.9h2.1v4.6l0.8-1.2l2.7-3.4h2.3
					l-3.5,4.4L431.1,203.3z"/>
			</g>
		</g>
	</g>
	<g>
		<g>
			<path fill="none" stroke="#5892CD" stroke-width="5.0153" stroke-miterlimit="10" d="M366.4,300.6
				c-23.3,41.7-77.6,64.9-142.7,67.3c-81.8,3-152.4-33.2-168-89.6"/>
			<g>
				<polygon fill="#5892CD" points="52.8,260.8 67.3,283.5 56.2,279.6 47.3,287.2 				"/>
			</g>
		</g>
	</g>
	<g>
		<g>
			<path fill="none" stroke="#B3B2B3" stroke-width="5.0153" stroke-miterlimit="10" d="M334.2,304.8
				c-23.4,25.7-64.2,37.6-111.9,39.3c-77.1,2.8-142.7-30.9-146.5-87.8"/>
			<g>
				<polygon fill="#B3B2B3" points="344.6,290.5 321.5,304.4 333.2,305.8 337.9,316.6 				"/>
			</g>
		</g>
	</g>
	<g>
		<g>
			<path fill="none" stroke="#5892CD" stroke-width="5.0153" stroke-miterlimit="10" d="M366.4,92.1
				c-23.3-41.7-77.6-63.9-142.7-66.3c-81.8-3-152.4,32.3-168,88.6"/>
			<g>
				<polygon fill="#5892CD" points="52.8,131.8 47.3,105.5 56.3,113.1 67.3,109.2 				"/>
			</g>
		</g>
	</g>
	<g>
		<g>
			<path fill="none" stroke="#B3B2B3" stroke-width="5.0153" stroke-miterlimit="10" d="M334.2,87.8C310.9,62.1,270,50.3,222.3,48.5
				c-77.1-2.8-142.7,30.9-146.5,87.8"/>
			<g>
				<polygon fill="#B3B2B3" points="344.6,102.2 337.9,76.1 333.2,86.9 321.5,88.3 				"/>
			</g>
		</g>
	</g>
</g>
</svg>
