<?xml version="1.0" encoding="utf-8"?>
<!-- Generator: Adobe Illustrator 19.1.0, SVG Export Plug-In . SVG Version: 6.00 Build 0)  -->
<svg version="1.1" id="Layer_1" xmlns="http://www.w3.org/2000/svg" xmlns:xlink="http://www.w3.org/1999/xlink" x="0px" y="0px"
	 viewBox="0 0 412 356" enable-background="new 0 0 412 356" xml:space="preserve">
<g>
	<g>
		<g>
			<circle fill="#5592D7" cx="66.3" cy="218.7" r="42.9"/>
		</g>
		<g>
			<path fill="#3A70A0" d="M66.3,265.2c-25.6,0-46.5-20.9-46.5-46.5c0-25.6,20.9-46.5,46.5-46.5s46.5,20.9,46.5,46.5
				C112.8,244.4,92,265.2,66.3,265.2z M66.3,179.4c-21.7,0-39.3,17.6-39.3,39.3c0,21.7,17.6,39.3,39.3,39.3s39.3-17.6,39.3-39.3
				C105.6,197.1,88,179.4,66.3,179.4z"/>
		</g>
	</g>
	<g>
		<path fill="#FFFFFF" d="M40.2,238.3v-9.7h2l2.5,4.2c0.6,1.1,1.2,2.2,1.7,3.3h0c-0.1-1.3-0.2-2.6-0.2-4v-3.4h1.6v9.7h-1.8l-2.5-4.3
			c-0.6-1.1-1.3-2.3-1.7-3.4l0,0c0.1,1.3,0.1,2.5,0.1,4.1v3.5H40.2z"/>
		<path fill="#FFFFFF" d="M51.2,235.3c0,1.3,1,1.8,2.2,1.8c0.8,0,1.4-0.1,1.9-0.3l0.3,1.2c-0.6,0.2-1.4,0.4-2.5,0.4
			c-2.3,0-3.6-1.4-3.6-3.6c0-1.9,1.2-3.8,3.4-3.8c2.3,0,3,1.9,3,3.4c0,0.3,0,0.6-0.1,0.8H51.2z M54.3,234.1c0-0.7-0.3-1.7-1.5-1.7
			c-1.1,0-1.6,1-1.6,1.7H54.3z"/>
		<path fill="#FFFFFF" d="M59.4,229.3v2h1.7v1.3h-1.7v3.1c0,0.9,0.2,1.3,0.9,1.3c0.3,0,0.5,0,0.7-0.1l0,1.4
			c-0.3,0.1-0.7,0.2-1.3,0.2c-0.6,0-1.2-0.2-1.5-0.6c-0.4-0.4-0.5-1-0.5-2v-3.3h-1v-1.3h1v-1.6L59.4,229.3z"/>
		<path fill="#FFFFFF" d="M63.6,231.3l0.7,3.2c0.2,0.8,0.3,1.5,0.4,2.3h0c0.1-0.8,0.4-1.5,0.6-2.3l0.9-3.2h1.4l0.9,3.1
			c0.2,0.8,0.4,1.6,0.6,2.4h0c0.1-0.8,0.3-1.5,0.5-2.4l0.8-3.1h1.7l-2.2,7h-1.6l-0.8-2.9c-0.2-0.7-0.4-1.4-0.5-2.3h0
			c-0.1,0.9-0.3,1.6-0.5,2.3l-0.9,2.9h-1.7l-2.1-7H63.6z"/>
		<path fill="#FFFFFF" d="M79.8,234.8c0,2.6-1.8,3.7-3.6,3.7c-2,0-3.5-1.4-3.5-3.6c0-2.3,1.5-3.7,3.6-3.7
			C78.4,231.1,79.8,232.6,79.8,234.8z M74.5,234.8c0,1.4,0.7,2.4,1.7,2.4c1,0,1.7-1,1.7-2.4c0-1.1-0.5-2.4-1.7-2.4
			C75.1,232.4,74.5,233.7,74.5,234.8z"/>
		<path fill="#FFFFFF" d="M81.3,233.6c0-1,0-1.6-0.1-2.3h1.5l0.1,1.3h0.1c0.3-1,1.2-1.5,1.9-1.5c0.2,0,0.3,0,0.4,0v1.7
			c-0.1,0-0.3-0.1-0.5-0.1c-0.9,0-1.4,0.5-1.6,1.3c0,0.2-0.1,0.3-0.1,0.5v3.6h-1.8V233.6z"/>
		<path fill="#FFFFFF" d="M88.2,234.4L88.2,234.4c0.2-0.3,0.4-0.6,0.6-0.8l1.7-2.3h2.1l-2.6,2.9l3,4.2h-2.2l-2-3.1l-0.6,0.7v2.4
			h-1.8v-10.2h1.8V234.4z"/>
	</g>
	<g>
		<path fill="#FFFFFF" d="M66.2,223.6c-1.2,0-2.3-0.5-3.2-1.3L3.8,163.5c-1.3-1.3-1.7-3.2-1-4.9c0.7-1.7,2.3-2.8,4.2-2.8l35.5-0.1
			C45.4,115,63.3,77.1,92.9,48.8C123.7,19.3,164.1,3,206.6,3c28.7,0,57.1,7.5,81.9,21.8c19.7,11.3,37.2,27,50.7,45.4
			c0.9,1.2,1.1,2.9,0.6,4.3c-0.6,1.4-1.8,2.5-3.3,2.9c-12,2.6-22.6,9.5-30,19.5c-0.9,1.3-2.3,2-3.6,2c-1.3,0-2.7-0.7-3.6-1.9
			C289.7,84.3,278,74,264.7,66.4c-17.5-10.1-37.6-15.4-58-15.4c-29.2,0-57.3,11-78.9,30.8c-21.1,19.4-34.2,45.6-37.2,73.9l34.4,0.1
			c1.9,0,3.5,1,4.2,2.6c0.7,1.7,0.3,3.4-1,4.7l-58.8,59.2C68.5,223.1,67.4,223.6,66.2,223.6z"/>
		<path fill="#FFFFFF" d="M66.2,224.1c-1.3,0-2.6-0.5-3.5-1.5L3.5,163.8c-1.4-1.4-1.9-3.6-1.1-5.5c0.8-1.9,2.6-3.1,4.6-3.1l35.1-0.1
			c3-40.6,20.9-78.4,50.5-106.7c30.9-29.6,71.4-45.9,114.1-45.9c28.8,0,57.2,7.6,82.1,21.9c19.7,11.3,37.3,27.1,50.9,45.5
			c1,1.4,1.2,3.2,0.6,4.8c-0.6,1.6-2,2.8-3.6,3.2c-11.8,2.5-22.4,9.4-29.7,19.3c-1,1.4-2.5,2.2-4,2.2c-1.5,0-3-0.8-4-2.1
			c-9.6-12.6-21.2-22.8-34.5-30.5c-17.4-10-37.4-15.3-57.8-15.3c-29.1,0-57,10.9-78.5,30.7c-20.8,19.2-33.9,45.1-36.9,73l33.8,0.1
			c2.1,0,3.9,1.1,4.6,2.9c0.8,1.9,0.4,3.8-1.1,5.3l-58.8,59.2C68.8,223.5,67.5,224.1,66.2,224.1z M206.6,3.5
			c-42.4,0-82.7,16.2-113.4,45.6C63.8,77.4,45.9,115.2,43,155.7l0,0.5l-36,0.1c-1.6,0-3.1,1-3.7,2.5c-0.6,1.5-0.3,3.2,0.9,4.4
			l59.2,58.8c0.8,0.8,1.8,1.2,2.8,1.2c1.1,0,2.1-0.4,2.8-1.2l58.8-59.2c1.2-1.2,1.5-2.7,0.9-4.2c-0.6-1.4-2-2.3-3.7-2.3l-35-0.1
			l0.1-0.5c2.9-28.4,16.2-54.8,37.3-74.2c21.7-20,49.9-31,79.2-31c20.6,0,40.7,5.3,58.3,15.4c13.4,7.7,25.1,18.1,34.8,30.7
			c0.8,1.1,2,1.7,3.2,1.7c1.2,0,2.4-0.7,3.2-1.8c7.5-10.1,18.2-17.1,30.3-19.7c1.3-0.3,2.4-1.3,2.9-2.5c0.5-1.3,0.3-2.7-0.5-3.8
			c-13.5-18.3-31-34-50.6-45.2C263.5,11,235.3,3.5,206.6,3.5z"/>
	</g>
	<g>
		<g>
			<circle fill="#F7944B" cx="347.2" cy="126.6" r="42.9"/>
		</g>
		<g>
			<path fill="#AF6A45" d="M347.2,173.1c-25.6,0-46.5-20.9-46.5-46.5s20.9-46.5,46.5-46.5c25.6,0,46.5,20.9,46.5,46.5
				S372.9,173.1,347.2,173.1z M347.2,87.3c-21.7,0-39.3,17.6-39.3,39.3s17.6,39.3,39.3,39.3c21.7,0,39.3-17.6,39.3-39.3
				S368.9,87.3,347.2,87.3z"/>
		</g>
	</g>
	<g>
		<path fill="#FFFFFF" d="M326.2,106.3h5.6v1.5H328v2.7h3.6v1.5H328v4.1h-1.8V106.3z"/>
		<path fill="#FFFFFF" d="M336.9,116.1l-0.1-0.8h0c-0.4,0.5-1.2,0.9-2.1,0.9c-1.4,0-2.2-1-2.2-2.1c0-1.8,1.6-2.7,4.2-2.7v-0.1
			c0-0.5-0.2-1.2-1.4-1.2c-0.7,0-1.4,0.2-1.9,0.5l-0.3-1.2c0.5-0.3,1.4-0.6,2.5-0.6c2.3,0,2.9,1.4,2.9,3v2.5c0,0.6,0,1.3,0.1,1.7
			H336.9z M336.6,112.6c-1.3,0-2.5,0.2-2.5,1.3c0,0.7,0.4,1,1,1c0.7,0,1.2-0.5,1.4-1c0-0.1,0.1-0.3,0.1-0.4V112.6z"/>
		<path fill="#FFFFFF" d="M340.2,111.3c0-1,0-1.6-0.1-2.3h1.5l0.1,1.3h0.1c0.3-1,1.2-1.5,1.9-1.5c0.2,0,0.3,0,0.4,0v1.7
			c-0.1,0-0.3-0.1-0.5-0.1c-0.9,0-1.4,0.5-1.6,1.3c0,0.2-0.1,0.3-0.1,0.5v3.6h-1.8V111.3z"/>
		<path fill="#FFFFFF" d="M345.4,111.1c0-0.8,0-1.5-0.1-2.1h1.5l0.1,1h0c0.3-0.5,1-1.2,2.2-1.2c0.9,0,1.6,0.5,1.9,1.3h0
			c0.2-0.4,0.5-0.7,0.9-0.9c0.4-0.3,0.8-0.4,1.4-0.4c1.2,0,2.4,0.8,2.4,3v4.1H354v-3.9c0-1.2-0.4-1.9-1.3-1.9
			c-0.6,0-1.1,0.4-1.2,0.9c0,0.2-0.1,0.4-0.1,0.6v4.2h-1.7V112c0-1-0.4-1.7-1.2-1.7c-0.7,0-1.1,0.5-1.3,1c-0.1,0.2-0.1,0.4-0.1,0.6
			v4.2h-1.7V111.1z"/>
		<path fill="#FFFFFF" d="M358.9,113c0,1.3,1,1.8,2.2,1.8c0.8,0,1.4-0.1,1.9-0.3l0.3,1.2c-0.6,0.2-1.4,0.4-2.5,0.4
			c-2.3,0-3.6-1.4-3.6-3.6c0-1.9,1.2-3.8,3.4-3.8c2.3,0,3,1.9,3,3.4c0,0.3,0,0.6-0.1,0.8H358.9z M362,111.8c0-0.7-0.3-1.7-1.5-1.7
			c-1.1,0-1.6,1-1.6,1.7H362z"/>
		<path fill="#FFFFFF" d="M365.1,111.3c0-1,0-1.6-0.1-2.3h1.5l0.1,1.3h0.1c0.3-1,1.2-1.5,1.9-1.5c0.2,0,0.3,0,0.4,0v1.7
			c-0.1,0-0.3-0.1-0.5-0.1c-0.9,0-1.4,0.5-1.6,1.3c0,0.2-0.1,0.3-0.1,0.5v3.6h-1.8V111.3z"/>
	</g>
	<g>
		<path fill="#FFFFFF" d="M246.5,353c-12,0-23.6-4.9-32-13.4c-2.7,0.1-5.3,0.2-7.8,0.2c-14.1,0-28.1-1.8-41.8-5.5
			c-7.8,5.7-17,8.8-26.7,8.8c-24.8,0-44.9-20.2-44.9-44.9c0-1.3,0.1-2.7,0.2-4.1c-6.3-6.1-12.1-12.7-17.3-19.6c-0.6-0.9-0.8-2-0.4-3
			c0.4-1,1.2-1.8,2.3-2c12.3-2.8,23.1-10,30.5-20.3c0.6-0.8,1.5-1.3,2.5-1.3c1,0,2,0.4,2.6,1.2c2.1,2.7,4.3,5.3,6.7,7.9
			c5.7-2.5,11.7-3.7,18-3.7c22.3,0,41.6,17,44.5,39c6.9,1.4,13.9,2.2,21,2.4c5.8-18.6,23.3-31.4,42.9-31.4c10.2,0,20.1,3.5,28.1,9.9
			c6-4.2,11.6-9,16.7-14.3c-2.6-5.8-3.9-12-3.9-18.3c0-21.3,14.9-39.6,35.6-44c0.5-2.8,0.8-5.5,1.1-8.3l-35.9-0.1
			c-1.3,0-2.4-0.8-2.9-2c-0.5-1.2-0.2-2.5,0.7-3.4l59.2-58.8c0.6-0.6,1.4-0.9,2.2-0.9c0.8,0,1.6,0.3,2.2,0.9l58.8,59.1
			c0.9,0.9,1.2,2.3,0.7,3.5c-0.5,1.2-1.6,2-2.9,2l-36.8-0.1c-0.5,7.6-1.6,15.2-3.2,22.7c7.1,8.2,11,18.6,11,29.5
			c0,24.8-20.2,44.9-44.9,44.9c-1.3,0-2.5-0.1-3.8-0.2c-2.1,2.4-4.4,4.8-6.7,7c-9.4,9.4-19.9,17.6-31.2,24.4
			C286.6,337.7,268.2,353,246.5,353z"/>
	</g>
	<g>
		<path fill="#FFB685" d="M335.6,72.8c-13.2-17.9-30-33-49.3-44.1c-24.1-13.9-51.7-21.2-79.6-21.2c-85.8,0-156,67.8-159.8,152.6
			L7,160.3L66.2,219l58.8-59.2L85.7,160c3.9-63.3,56.6-113.7,120.9-113.7c21.2,0,42,5.5,60.3,16c14,8,26.2,18.8,36,31.6
			C310.8,83.4,322.3,75.7,335.6,72.8z"/>
	</g>
	<g>
		<g>
			<path fill="#F7944B" d="M206.6,7.5c28,0,55.5,7.3,79.6,21.2c19.3,11.1,36.2,26.2,49.3,44.1c-13.3,2.9-24.9,10.6-32.7,21.2
				c-9.8-12.8-22-23.6-36-31.6c-18.2-10.5-39.1-16-60.3-16c-64.3,0-117,50.3-120.9,113.7l39.3-0.1L66.2,219L7,160.3l39.8-0.1
				C50.7,75.3,120.9,7.5,206.6,7.5 M206.6,4.8c-42.1,0-82,16.1-112.5,45.3c-29.7,28.5-47.4,66.5-49.9,107.4L7,157.6
				c-1.1,0-2.1,0.7-2.5,1.7c-0.4,1-0.2,2.2,0.6,3L64.3,221c0.5,0.5,1.2,0.8,1.9,0.8c0.7,0,1.4-0.3,1.9-0.8l58.8-59.2
				c0.8-0.8,1-1.8,0.6-2.8c-0.4-1-1.4-1.5-2.5-1.5c0,0,0,0,0,0l-36.4,0c5.2-60.9,56.5-108.3,118-108.3c20.7,0,41.1,5.4,58.9,15.6
				c13.7,7.9,25.6,18.6,35.2,31.3c0.5,0.7,1.3,1.4,2.2,1.4c0,0,0,0,0,0c0.9,0,1.7-0.8,2.2-1.5c7.6-10.3,18.6-17.6,31.1-20.3
				c0.9-0.2,1.6-0.9,2-1.8c0.3-0.9,0.2-1.9-0.4-2.6c-13.4-18.2-30.7-33.7-50.2-44.9C263.1,12.3,235.1,4.8,206.6,4.8L206.6,4.8z"/>
		</g>
	</g>
	<g>
		<path d="M173.4,130c1.3-0.2,3.2-0.4,5.7-0.4c2.7,0,4.7,0.6,6,1.7c1.2,1,2,2.6,2,4.5c0,1.9-0.6,3.5-1.8,4.6
			c-1.5,1.5-3.8,2.2-6.4,2.2c-0.7,0-1.3,0-1.8-0.1v7.7h-3.7V130z M177.1,139.5c0.5,0.1,1.1,0.2,1.8,0.2c2.8,0,4.5-1.4,4.5-3.7
			c0-2.3-1.6-3.5-4.1-3.5c-1,0-1.8,0.1-2.1,0.2V139.5z"/>
		<path d="M189.8,140.2c0-2,0-3.4-0.1-4.7h3.2l0.1,2.8h0.1c0.7-2.1,2.4-3.1,4-3.1c0.4,0,0.6,0,0.9,0.1v3.5c-0.3-0.1-0.6-0.1-1.1-0.1
			c-1.8,0-3,1.1-3.3,2.8c-0.1,0.3-0.1,0.7-0.1,1.1v7.6h-3.7V140.2z"/>
		<path d="M214.3,142.6c0,5.4-3.8,7.8-7.6,7.8c-4.2,0-7.4-2.9-7.4-7.6c0-4.8,3.2-7.8,7.6-7.8C211.3,135.1,214.3,138.2,214.3,142.6z
			 M203.2,142.8c0,2.8,1.4,5,3.7,5c2.1,0,3.6-2.1,3.6-5c0-2.3-1-4.9-3.6-4.9C204.2,137.8,203.2,140.4,203.2,142.8z"/>
		<path d="M231.3,142.6c0,5.4-3.8,7.8-7.6,7.8c-4.2,0-7.4-2.9-7.4-7.6c0-4.8,3.2-7.8,7.6-7.8C228.4,135.1,231.3,138.2,231.3,142.6z
			 M220.2,142.8c0,2.8,1.4,5,3.7,5c2.1,0,3.6-2.1,3.6-5c0-2.3-1-4.9-3.6-4.9C221.3,137.8,220.2,140.4,220.2,142.8z"/>
		<path d="M234.8,150.1v-11.9h-2v-2.8h2v-0.6c0-1.9,0.5-3.8,1.8-5c1.1-1,2.6-1.4,3.8-1.4c1,0,1.8,0.2,2.4,0.4l-0.3,2.9
			c-0.4-0.2-0.9-0.3-1.6-0.3c-1.8,0-2.5,1.5-2.5,3.4v0.8h3.2v2.8h-3.2v11.9H234.8z"/>
		<path d="M209.3,173.4c0,5.4-3.8,7.8-7.6,7.8c-4.2,0-7.4-2.9-7.4-7.6c0-4.8,3.2-7.8,7.6-7.8C206.3,165.8,209.3,168.9,209.3,173.4z
			 M198.2,173.5c0,2.8,1.4,5,3.7,5c2.1,0,3.6-2.1,3.6-5c0-2.3-1-4.9-3.6-4.9C199.2,168.5,198.2,171.1,198.2,173.5z"/>
		<path d="M212.7,180.9v-11.9h-2v-2.8h2v-0.6c0-1.9,0.5-3.8,1.8-5c1.1-1,2.6-1.4,3.8-1.4c1,0,1.8,0.2,2.4,0.4l-0.3,2.9
			c-0.4-0.2-0.9-0.3-1.6-0.3c-1.8,0-2.5,1.5-2.5,3.4v0.8h3.2v2.8h-3.2v11.9H212.7z"/>
		<path d="M149.2,187.9c1.4-0.2,3.5-0.4,5.6-0.4c2.9,0,4.9,0.5,6.3,1.6c1.1,0.9,1.8,2.4,1.8,4.1c0,2.6-1.8,4.4-3.7,5.1v0.1
			c1.5,0.5,2.3,2,2.8,3.9c0.6,2.5,1.2,4.9,1.6,5.7h-3.8c-0.3-0.6-0.8-2.3-1.4-4.8c-0.6-2.7-1.5-3.5-3.7-3.6h-1.9v8.4h-3.7V187.9z
			 M152.9,196.9h2.2c2.5,0,4.1-1.3,4.1-3.4c0-2.2-1.6-3.3-4-3.3c-1.2,0-1.9,0.1-2.3,0.2V196.9z"/>
		<path d="M169,201.6c0.1,2.7,2.2,3.8,4.5,3.8c1.7,0,3-0.2,4.1-0.7l0.5,2.6c-1.3,0.5-3,0.9-5.1,0.9c-4.8,0-7.6-2.9-7.6-7.4
			c0-4.1,2.5-7.9,7.2-7.9c4.8,0,6.3,3.9,6.3,7.2c0,0.7-0.1,1.2-0.1,1.6H169z M175.4,199c0-1.4-0.6-3.6-3.1-3.6
			c-2.3,0-3.3,2.1-3.4,3.6H175.4z"/>
		<path d="M181.8,204.5c0.8,0.5,2.4,1.1,3.8,1.1c1.6,0,2.4-0.7,2.4-1.6c0-1-0.6-1.5-2.4-2.1c-2.9-1-4.1-2.6-4.1-4.3
			c0-2.6,2.1-4.6,5.6-4.6c1.6,0,3.1,0.4,3.9,0.9l-0.7,2.6c-0.6-0.4-1.8-0.8-3.1-0.8c-1.3,0-2.1,0.6-2.1,1.5c0,0.9,0.7,1.4,2.6,2.1
			c2.7,1,3.9,2.3,3.9,4.5c0,2.7-2.1,4.6-6,4.6c-1.8,0-3.4-0.4-4.5-1L181.8,204.5z"/>
		<path d="M208.5,200.5c0,5.4-3.8,7.8-7.6,7.8c-4.2,0-7.4-2.9-7.4-7.6c0-4.8,3.2-7.8,7.6-7.8C205.6,192.9,208.5,196,208.5,200.5z
			 M197.5,200.6c0,2.8,1.4,5,3.7,5c2.1,0,3.6-2.1,3.6-5c0-2.3-1-4.9-3.6-4.9C198.5,195.6,197.5,198.2,197.5,200.6z"/>
		<path d="M224.8,203.5c0,1.8,0.1,3.2,0.1,4.4h-3.3l-0.2-2.2h-0.1c-0.6,1.1-2.1,2.6-4.7,2.6c-2.7,0-5.1-1.6-5.1-6.4v-8.6h3.7v8
			c0,2.4,0.8,4,2.8,4c1.5,0,2.4-1.1,2.8-2c0.1-0.3,0.2-0.7,0.2-1.1v-8.9h3.7V203.5z"/>
		<path d="M228.8,198c0-2,0-3.4-0.1-4.7h3.2l0.1,2.8h0.1c0.7-2.1,2.4-3.1,4-3.1c0.4,0,0.6,0,0.9,0.1v3.5c-0.3-0.1-0.6-0.1-1.1-0.1
			c-1.8,0-3,1.1-3.3,2.8c-0.1,0.3-0.1,0.7-0.1,1.1v7.6h-3.7V198z"/>
		<path d="M250.1,207.5c-0.8,0.4-2.3,0.8-4.2,0.8c-4.6,0-7.6-2.9-7.6-7.5c0-4.4,3-7.9,8.2-7.9c1.4,0,2.8,0.3,3.6,0.7l-0.7,2.8
			c-0.6-0.3-1.5-0.6-2.8-0.6c-2.8,0-4.5,2.1-4.5,4.8c0,3,2,4.7,4.5,4.7c1.3,0,2.2-0.3,2.9-0.6L250.1,207.5z"/>
		<path d="M255.2,201.6c0.1,2.7,2.2,3.8,4.5,3.8c1.7,0,3-0.2,4.1-0.7l0.5,2.6c-1.3,0.5-3,0.9-5.1,0.9c-4.8,0-7.6-2.9-7.6-7.4
			c0-4.1,2.5-7.9,7.2-7.9c4.8,0,6.3,3.9,6.3,7.2c0,0.7-0.1,1.2-0.1,1.6H255.2z M261.7,199c0-1.4-0.6-3.6-3.1-3.6
			c-2.3,0-3.3,2.1-3.4,3.6H261.7z"/>
	</g>
	<g>
		<path d="M43.1,172.9c-0.4,0.2-1.1,0.4-2,0.4c-2.1,0-3.7-1.3-3.7-3.8c0-2.3,1.6-3.9,3.9-3.9c0.9,0,1.5,0.2,1.8,0.3l-0.2,0.8
			c-0.4-0.2-0.9-0.3-1.5-0.3c-1.8,0-2.9,1.1-2.9,3.1c0,1.8,1.1,3,2.9,3c0.6,0,1.2-0.1,1.6-0.3L43.1,172.9z"/>
		<path d="M50.5,169.3c0,2.6-1.6,3.9-3.5,3.9c-2,0-3.4-1.5-3.4-3.8c0-2.4,1.5-3.9,3.5-3.9C49.2,165.5,50.5,167.1,50.5,169.3z
			 M44.7,169.4c0,1.6,0.9,3,2.4,3c1.5,0,2.4-1.4,2.4-3.1c0-1.5-0.8-3-2.4-3C45.5,166.3,44.7,167.8,44.7,169.4z"/>
		<path d="M58.1,169.9c-0.1-1-0.1-2.3-0.1-3.2h0c-0.3,0.9-0.6,1.8-0.9,2.8l-1.3,3.6h-0.7l-1.2-3.6c-0.4-1.1-0.7-2-0.9-2.9h0
			c0,0.9-0.1,2.2-0.1,3.3l-0.2,3.2h-0.9l0.5-7.5h1.2l1.3,3.6c0.3,0.9,0.6,1.7,0.8,2.5h0c0.2-0.8,0.5-1.6,0.8-2.5l1.3-3.6h1.2
			l0.5,7.5h-0.9L58.1,169.9z"/>
		<path d="M60.7,165.8c0.5-0.1,1.1-0.1,1.9-0.1c1,0,1.7,0.2,2.1,0.6c0.4,0.4,0.7,0.9,0.7,1.6c0,0.7-0.2,1.2-0.6,1.6
			c-0.5,0.5-1.3,0.8-2.3,0.8c-0.3,0-0.6,0-0.8-0.1v3h-1V165.8z M61.7,169.4c0.2,0.1,0.5,0.1,0.8,0.1c1.2,0,1.9-0.6,1.9-1.6
			c0-1-0.7-1.5-1.8-1.5c-0.4,0-0.7,0-0.9,0.1V169.4z"/>
		<path d="M67.6,165.7v4.4c0,1.7,0.7,2.4,1.7,2.4c1.1,0,1.8-0.7,1.8-2.4v-4.4h1v4.4c0,2.3-1.2,3.2-2.8,3.2c-1.5,0-2.7-0.9-2.7-3.2
			v-4.4H67.6z"/>
		<path d="M75.2,166.5h-2.3v-0.8h5.5v0.8h-2.3v6.7h-1V166.5z"/>
		<path d="M80.2,165.7v7.5h-1v-7.5H80.2z"/>
		<path d="M81.9,173.1v-7.5H83l2.4,3.8c0.6,0.9,1,1.7,1.3,2.4l0,0c-0.1-1-0.1-1.9-0.1-3.1v-3.1h0.9v7.5h-1l-2.4-3.8
			c-0.5-0.8-1-1.7-1.4-2.5l0,0c0.1,0.9,0.1,1.8,0.1,3.1v3.2H81.9z"/>
		<path d="M94.9,172.8c-0.4,0.2-1.3,0.4-2.3,0.4c-1.1,0-2.1-0.3-2.8-1c-0.6-0.6-1-1.6-1-2.8c0-2.2,1.5-3.9,4-3.9
			c0.9,0,1.5,0.2,1.9,0.3l-0.2,0.8c-0.4-0.2-0.9-0.3-1.7-0.3c-1.8,0-3,1.1-3,3c0,1.9,1.1,3,2.9,3c0.6,0,1.1-0.1,1.3-0.2V170h-1.5
			v-0.8h2.5V172.8z"/>
		<path d="M39.6,176.6c0.5-0.1,1.2-0.2,1.9-0.2c1,0,1.7,0.2,2.2,0.6c0.4,0.3,0.6,0.8,0.6,1.4c0,1-0.6,1.6-1.4,1.9v0
			c0.6,0.2,0.9,0.7,1.1,1.5c0.2,1,0.4,1.8,0.6,2.1h-1c-0.1-0.2-0.3-0.9-0.5-1.8c-0.2-1-0.6-1.4-1.5-1.5h-0.9v3.2h-1V176.6z
			 M40.6,180h1c1,0,1.7-0.6,1.7-1.4c0-1-0.7-1.4-1.7-1.4c-0.5,0-0.8,0-1,0.1V180z"/>
		<path d="M49.5,180.5h-2.9v2.7h3.2v0.8h-4.2v-7.5h4v0.8h-3.1v2.4h2.9V180.5z"/>
		<path d="M50.9,182.8c0.4,0.3,1.1,0.5,1.7,0.5c1,0,1.6-0.5,1.6-1.3c0-0.7-0.4-1.1-1.4-1.5c-1.2-0.4-2-1.1-2-2.1c0-1.2,1-2,2.4-2
			c0.8,0,1.3,0.2,1.7,0.4l-0.3,0.8c-0.2-0.1-0.7-0.4-1.4-0.4c-1,0-1.4,0.6-1.4,1.1c0,0.7,0.5,1,1.5,1.4c1.3,0.5,1.9,1.1,1.9,2.2
			c0,1.2-0.9,2.2-2.6,2.2c-0.7,0-1.5-0.2-1.9-0.5L50.9,182.8z"/>
		<path d="M62.9,180.2c0,2.6-1.6,3.9-3.5,3.9c-2,0-3.4-1.5-3.4-3.8c0-2.4,1.5-3.9,3.5-3.9C61.6,176.4,62.9,177.9,62.9,180.2z
			 M57.1,180.3c0,1.6,0.9,3,2.4,3c1.5,0,2.4-1.4,2.4-3.1c0-1.5-0.8-3-2.4-3C57.9,177.2,57.1,178.6,57.1,180.3z"/>
		<path d="M65.1,176.5v4.4c0,1.7,0.7,2.4,1.7,2.4c1.1,0,1.8-0.7,1.8-2.4v-4.4h1v4.4c0,2.3-1.2,3.2-2.8,3.2c-1.5,0-2.7-0.9-2.7-3.2
			v-4.4H65.1z"/>
		<path d="M71.3,176.6c0.5-0.1,1.2-0.2,1.9-0.2c1,0,1.7,0.2,2.2,0.6c0.4,0.3,0.6,0.8,0.6,1.4c0,1-0.6,1.6-1.4,1.9v0
			c0.6,0.2,0.9,0.7,1.1,1.5c0.2,1,0.4,1.8,0.6,2.1h-1c-0.1-0.2-0.3-0.9-0.5-1.8c-0.2-1-0.6-1.4-1.5-1.5h-0.9v3.2h-1V176.6z
			 M72.3,180h1c1,0,1.7-0.6,1.7-1.4c0-1-0.7-1.4-1.7-1.4c-0.5,0-0.8,0-1,0.1V180z"/>
		<path d="M82.6,183.7c-0.4,0.2-1.1,0.4-2,0.4c-2.1,0-3.7-1.3-3.7-3.8c0-2.3,1.6-3.9,3.9-3.9c0.9,0,1.5,0.2,1.8,0.3l-0.2,0.8
			c-0.4-0.2-0.9-0.3-1.5-0.3c-1.8,0-2.9,1.1-2.9,3.1c0,1.8,1.1,3,2.9,3c0.6,0,1.2-0.1,1.6-0.3L82.6,183.7z"/>
		<path d="M87.6,180.5h-2.9v2.7H88v0.8h-4.2v-7.5h4v0.8h-3.1v2.4h2.9V180.5z"/>
		<path d="M89.1,182.8c0.4,0.3,1.1,0.5,1.7,0.5c1,0,1.6-0.5,1.6-1.3c0-0.7-0.4-1.1-1.4-1.5c-1.2-0.4-2-1.1-2-2.1c0-1.2,1-2,2.4-2
			c0.8,0,1.3,0.2,1.7,0.4l-0.3,0.8c-0.2-0.1-0.7-0.4-1.4-0.4c-1,0-1.4,0.6-1.4,1.1c0,0.7,0.5,1,1.5,1.4c1.3,0.5,1.9,1.1,1.9,2.2
			c0,1.2-0.9,2.2-2.6,2.2c-0.7,0-1.5-0.2-1.9-0.5L89.1,182.8z"/>
	</g>
	<g>
		<path d="M76.7,128.7c0.1,0.6,0.1,1.6-0.2,2.9c-0.8,3-3.3,4.7-6.7,3.8c-3.3-0.9-5-3.7-4.1-7c0.3-1.3,0.9-2.1,1.1-2.4l1,0.6
			c-0.4,0.5-0.8,1.1-1,2c-0.7,2.5,0.5,4.6,3.3,5.3c2.6,0.7,4.7-0.4,5.3-2.9c0.2-0.8,0.3-1.7,0.2-2.3L76.7,128.7z"/>
		<path d="M67.1,124.2c0.1-0.7,0.3-1.6,0.7-2.6c0.4-1.3,1.1-2.2,1.8-2.6c0.7-0.4,1.6-0.5,2.5-0.2c0.9,0.3,1.6,0.8,2,1.5
			c0.5,1,0.5,2.2,0.1,3.6c-0.1,0.4-0.3,0.8-0.5,1l4.2,1.4l-0.4,1.3L67.1,124.2z M72.6,124.5c0.2-0.3,0.3-0.6,0.5-1.1
			c0.5-1.6,0.1-2.9-1.4-3.3c-1.4-0.5-2.4,0.3-2.9,1.8c-0.2,0.6-0.3,1-0.3,1.3L72.6,124.5z"/>
		<path d="M70.4,114.5l6,2.5c2.3,0.9,3.6,0.3,4.2-1c0.6-1.5,0-2.9-2.2-3.8l-6-2.5l0.5-1.3l5.9,2.4c3.1,1.3,3.7,3.4,2.8,5.6
			c-0.9,2.1-2.7,3.2-5.8,1.9l-6-2.5L70.4,114.5z"/>
		<path d="M81.3,106.4c-0.9-0.4-1.2-1.5-0.8-2.3c0.4-0.8,1.4-1.2,2.3-0.8c0.9,0.4,1.2,1.4,0.8,2.3C83.1,106.5,82.1,106.8,81.3,106.4
			z"/>
		<path d="M87.3,100.4c0.7-0.3,1.4-1,1.9-1.8c0.7-1.2,0.5-2.4-0.4-2.9c-0.9-0.5-1.7-0.3-2.9,0.7c-1.5,1.2-2.8,1.7-4.1,0.9
			c-1.5-0.9-1.8-2.7-0.8-4.6c0.6-1,1.2-1.5,1.7-1.8l0.8,0.9c-0.4,0.2-1,0.7-1.5,1.5c-0.8,1.3-0.3,2.2,0.4,2.6
			c0.9,0.5,1.7,0.2,2.9-0.8c1.6-1.2,2.8-1.6,4.2-0.8c1.5,0.9,2.1,2.7,0.8,4.9c-0.5,0.9-1.4,1.7-2,2.1L87.3,100.4z"/>
		<path d="M85.8,87.5l-1.9,2.8l-1-0.7l4.5-6.7l1,0.7l-1.9,2.8l8.1,5.4l-0.8,1.2L85.8,87.5z"/>
		<path d="M98,77.9c3,2.3,3.2,5.3,1.5,7.6C97.7,87.7,94.7,88,92,86c-2.8-2.1-3.2-5.2-1.5-7.5C92.4,76,95.4,75.9,98,77.9z M92.9,84.7
			c1.9,1.4,4.3,1.7,5.6-0.1c1.4-1.8,0.5-4-1.5-5.6c-1.7-1.3-4.2-1.8-5.7,0.1C90,81,91,83.3,92.9,84.7z"/>
		<path d="M95.2,73.2c0.4-0.6,1-1.5,1.6-2.2c1-1.1,1.9-1.7,2.8-1.8c0.7-0.1,1.5,0.2,2.1,0.7c1.1,1,1.2,2.3,0.7,3.4l0,0
			c0.8-0.4,1.7-0.3,2.7,0.3c1.4,0.7,2.3,1.3,2.8,1.4l-1,1.1c-0.4-0.1-1.2-0.5-2.4-1.2c-1.3-0.8-2.2-0.7-3,0.2l-0.9,1l3.6,3.1
			l-0.9,1.1L95.2,73.2z M99.8,75.4l1-1.1c1-1.1,1-2.4,0.1-3.2c-1.1-0.9-2.2-0.6-3.2,0.5c-0.5,0.5-0.7,0.9-0.8,1.1L99.8,75.4z"/>
		<path d="M107.6,70.5l1.6,3.3l-1,1l-5.1-10.4l1.2-1.2l10.4,5.2l-1.1,1.1l-3.3-1.6L107.6,70.5z M109.4,67.2l-3-1.5
			c-0.7-0.3-1.3-0.7-1.8-1l0,0c0.3,0.6,0.7,1.2,1,1.8l1.5,3L109.4,67.2z"/>
		<path d="M121.3,62c-0.3,0.6-1,1.7-2.2,2.7c-1.3,1.1-2.6,1.7-4,1.6c-1.3-0.1-2.7-0.8-3.8-2.1c-2.1-2.5-2-5.8,0.8-8.2
			c1-0.8,1.9-1.3,2.4-1.4l0.5,1.1c-0.6,0.2-1.3,0.5-2.1,1.2c-2,1.7-2.3,4.1-0.5,6.2c1.8,2.1,4.2,2.3,6.1,0.6
			c0.7-0.6,1.1-1.1,1.2-1.5l-2.1-2.5l-1.7,1.5l-0.7-0.9l2.7-2.4L121.3,62z"/>
		<path d="M124.4,53.8l-3.4,2.6l2.4,3.2l3.8-2.9l0.7,0.9l-4.9,3.7l-6.6-8.7L121,49l0.7,0.9l-3.6,2.7l2.1,2.8l3.4-2.6L124.4,53.8z"/>
		<path d="M128.9,51.8c-0.5-0.8-0.3-1.8,0.5-2.4c0.8-0.5,1.8-0.3,2.4,0.5c0.5,0.8,0.3,1.8-0.5,2.4C130.4,52.8,129.4,52.6,128.9,51.8
			z"/>
		<path d="M132.8,41.5c0.5-0.4,1.3-1,2.1-1.5c1.2-0.7,2.1-0.9,3-0.8c0.7,0.1,1.3,0.5,1.7,1.2c0.5,0.9,0.4,2.1-0.4,3l0,0
			c1-0.3,2.5-0.1,3.3,1.3c0.5,0.8,0.5,1.6,0.3,2.4c-0.3,1-1.2,1.9-2.8,2.7c-0.9,0.5-1.5,0.8-2,1L132.8,41.5z M136.2,44.8l1.1-0.6
			c1.3-0.7,1.7-1.8,1.2-2.8c-0.6-1.1-1.7-1.1-3-0.4c-0.6,0.3-0.9,0.5-1,0.7L136.2,44.8z M138.8,49.3c0.3-0.1,0.6-0.3,1.1-0.5
			c1.3-0.7,2.2-1.8,1.4-3.2c-0.7-1.3-2.2-1.2-3.5-0.5l-1,0.6L138.8,49.3z"/>
		<path d="M145.4,43.1l0.5,3.6l-1.3,0.6l-1.3-11.5l1.5-0.7l8.1,8.3l-1.4,0.6l-2.5-2.6L145.4,43.1z M148.2,40.6l-2.3-2.4
			c-0.5-0.5-1-1.1-1.4-1.6l0,0c0.1,0.7,0.3,1.3,0.4,2l0.4,3.3L148.2,40.6z"/>
		<path d="M153.8,43l-4-10.2l1.4-0.6l5.3,3.9c1.2,0.9,2.2,1.7,3.1,2.6l0,0c-0.7-1.3-1.2-2.5-1.8-4.1l-1.7-4.3l1.2-0.5l4,10.2
			l-1.3,0.5l-5.3-3.9c-1.2-0.9-2.3-1.8-3.2-2.7l0,0c0.6,1.3,1.1,2.5,1.7,4.2l1.7,4.4L153.8,43z"/>
		<path d="M160,29.1c0.8-0.4,1.7-0.8,2.8-1.1c1.9-0.6,3.5-0.6,4.6,0c1.2,0.6,2.1,1.6,2.6,3.3c0.5,1.7,0.4,3.3-0.3,4.5
			c-0.7,1.3-2.1,2.3-4.2,2.9c-1,0.3-1.8,0.5-2.5,0.6L160,29.1z M164.2,37.9c0.4,0,0.9-0.2,1.4-0.3c2.9-0.9,4-3,3.1-5.8
			c-0.7-2.5-2.6-3.6-5.5-2.8c-0.7,0.2-1.2,0.4-1.5,0.6L164.2,37.9z"/>
		<path d="M174.6,36.1l-5-10.1l1.5-0.3l2.4,5.2c0.6,1.3,1.2,2.5,1.6,3.5l0,0c-0.1-1.1,0-2.4,0.1-3.9l0.3-5.7l1.4-0.3l2.5,5.2
			c0.6,1.2,1.1,2.4,1.5,3.5l0,0c0-1.2,0-2.5,0.1-3.9l0.3-5.7l1.4-0.3L182,34.6l-1.4,0.3l-2.5-5.3c-0.6-1.3-1.1-2.3-1.4-3.3l0,0
			c0,1.1,0,2.2-0.1,3.7l-0.3,5.9L174.6,36.1z"/>
		<path d="M185.7,22.9l1.6,10.8l-1.4,0.2l-1.6-10.8L185.7,22.9z"/>
		<path d="M188.3,22.6c0.8-0.2,1.9-0.4,3-0.5c2-0.2,3.5,0.1,4.6,0.9c1.1,0.8,1.7,2,1.9,3.8c0.2,1.8-0.2,3.3-1.2,4.4
			c-0.9,1.1-2.6,1.8-4.7,2c-1,0.1-1.9,0.1-2.6,0.1L188.3,22.6z M190.6,32.1c0.4,0,0.9,0,1.4-0.1c3-0.3,4.5-2.1,4.2-5.1
			c-0.2-2.6-1.8-4.1-4.8-3.8c-0.7,0.1-1.3,0.2-1.6,0.3L190.6,32.1z"/>
		<path d="M200.9,22.7l-3.3,0.1l0-1.2l8.1-0.3l0,1.2l-3.3,0.1l0.3,9.8l-1.4,0L200.9,22.7z"/>
		<path d="M208.5,21.4l-0.1,4.6l5.3,0.2l0.1-4.6l1.4,0l-0.3,11l-1.4,0l0.2-5.1l-5.3-0.2l-0.2,5.1l-1.4,0l0.3-11L208.5,21.4z"/>
		<path d="M219.9,28.7c0.1-1,0.9-1.6,1.9-1.5c0.9,0.1,1.6,0.9,1.5,1.9c-0.1,1-0.9,1.6-1.9,1.5C220.5,30.5,219.8,29.7,219.9,28.7z"/>
		<path d="M237.7,30.1c-0.7,3.7-3.3,5.2-6.1,4.7c-2.8-0.5-4.4-3.1-3.8-6.4c0.6-3.4,3.2-5.3,6.1-4.7
			C236.8,24.3,238.3,26.9,237.7,30.1z M229.3,28.7c-0.4,2.3,0.4,4.6,2.6,5c2.2,0.4,3.8-1.4,4.3-3.8c0.4-2.1-0.3-4.6-2.6-5
			C231.3,24.4,229.7,26.3,229.3,28.7z"/>
		<path d="M237.8,35.9l2.8-10.6l1.5,0.4l2,6.3c0.5,1.5,0.8,2.7,1,4l0,0c0.3-1.4,0.6-2.7,1-4.4l1.2-4.4l1.3,0.3l-2.8,10.6l-1.4-0.4
			l-1.9-6.3c-0.4-1.4-0.8-2.8-1-4.1l-0.1,0c-0.3,1.4-0.6,2.6-1.1,4.4l-1.2,4.5L237.8,35.9z"/>
		<path d="M251.1,28.3l1.3,0.5l-3.1,9.3l4.4,1.5l-0.4,1.1l-5.8-2L251.1,28.3z"/>
		<path d="M259.8,31.4l-3.9,10.2l-1.3-0.5l3.9-10.2L259.8,31.4z"/>
		<path d="M257.8,42.3l4.5-10l1.4,0.6l1,6.5c0.2,1.5,0.3,2.8,0.3,4.1l0,0c0.5-1.4,1-2.6,1.7-4.2l1.9-4.2l1.2,0.5l-4.5,10l-1.3-0.6
			l-0.9-6.5c-0.2-1.4-0.4-2.9-0.4-4.2l-0.1,0c-0.5,1.3-1,2.5-1.7,4.2l-1.9,4.3L257.8,42.3z"/>
		<path d="M274.4,44.6l-3.8-2l-1.8,3.5l4.2,2.2l-0.6,1.1l-5.5-2.9l5.1-9.7l5.2,2.8l-0.6,1.1l-4-2.1l-1.6,3.1l3.8,2L274.4,44.6z"/>
		<path d="M282.9,44.3l-2.8-1.8l0.6-1l6.9,4.3l-0.6,1l-2.8-1.8l-5.2,8.3l-1.2-0.8L282.9,44.3z"/>
		<path d="M289.8,47.4l-6.2,9l-1.2-0.8l6.2-9L289.8,47.4z"/>
		<path d="M295.5,59.3c0.9-1.3,1.9-2.8,2.8-3.8l0,0c-1.1,0.8-2.3,1.6-3.6,2.4l-4.8,3l-0.8-0.7l1.8-5.2c0.5-1.5,1.1-2.9,1.6-4.1l0,0
			c-0.9,1.1-2.1,2.5-3.1,3.7l-3.1,3.5l-1.1-0.8l7.3-8.2l1.4,1.1l-1.8,5.3c-0.5,1.3-0.9,2.5-1.4,3.6l0,0c0.9-0.7,1.9-1.4,3.2-2.2
			l4.8-3l1.4,1.1l-6.2,9.1l-1.1-0.8L295.5,59.3z"/>
		<path d="M302.7,65.2l-3.2-2.9l-2.6,2.9l3.5,3.2l-0.8,0.9l-4.6-4.1l7.3-8.1l4.4,4l-0.8,0.9l-3.3-3l-2.3,2.6l3.2,2.9L302.7,65.2z"/>
	</g>
	<g>
		<path fill="#CBE3F7" d="M366.4,185l39.8,0.1L347.4,126l-59.2,58.8l39.3,0.1c-0.3,4.8-0.9,9.5-1.8,14.2
			c-19.9,3.2-35.2,20.4-35.2,41.3c0,6.8,1.6,13.3,4.5,18.9c-6.2,6.6-13.1,12.6-20.7,17.7c-7.4-6.6-17.2-10.7-27.9-10.7
			c-19.5,0-35.9,13.4-40.5,31.5c-9,0-17.8-1.1-26.3-3c-1.7-21.5-19.7-38.4-41.6-38.4c-6.7,0-13.1,1.6-18.7,4.4
			c-3-3.1-5.8-6.3-8.4-9.8c-7.7,10.7-19.1,18.5-32.4,21.5c5.4,7.3,11.5,14,18.1,20.3c-0.2,1.7-0.3,3.5-0.3,5.3
			c0,23.1,18.7,41.8,41.8,41.8c9.8,0,18.8-3.4,26-9.1c13.8,3.8,28.1,5.8,42.5,5.8c3.1,0,6.1-0.1,9.1-0.3
			c7.6,8.3,18.6,13.5,30.8,13.5c20.9,0,38.2-15.3,41.3-35.3c11.5-6.8,22.2-15,31.8-24.7c2.6-2.6,5.2-5.3,7.6-8.1
			c1.7,0.2,3.4,0.3,5.1,0.3c23.1,0,41.8-18.7,41.8-41.8c0-11.1-4.3-21.1-11.3-28.6C364.7,203,366,194.1,366.4,185z"/>
	</g>
	<g>
		<path fill="#5592D7" d="M246.5,351.2c-11.8,0-23.2-4.9-31.3-13.5c-2.9,0.2-5.8,0.2-8.6,0.2c-14.2,0-28.4-1.9-42.2-5.6
			c-7.6,5.9-16.7,8.9-26.3,8.9c-23.8,0-43.1-19.4-43.1-43.1c0-1.6,0.1-3.2,0.3-4.8c-6.5-6.2-12.4-12.9-17.7-19.9
			c-0.3-0.4-0.3-0.8-0.2-1.3c0.2-0.4,0.5-0.8,1-0.9c12.7-2.9,23.9-10.4,31.6-21c0.2-0.3,0.6-0.6,1.1-0.6c0.4,0,0.8,0.2,1.1,0.5
			c2.4,3.1,4.9,6.1,7.7,8.9c5.8-2.7,12-4.1,18.4-4.1c22,0,40.7,16.9,42.9,38.7c7.8,1.7,15.9,2.6,24,2.7
			c5.2-18.6,22.1-31.5,41.5-31.5c10.3,0,20.2,3.7,28,10.3c6.8-4.7,13.2-10.2,19-16.2c-2.8-5.9-4.3-12.2-4.3-18.7
			c0-21,14.8-38.7,35.4-42.4c0.7-3.9,1.2-7.8,1.5-11.7l-37.8-0.1c-0.5,0-1-0.3-1.2-0.8c-0.2-0.5-0.1-1.1,0.3-1.5l59.2-58.8
			c0.5-0.5,1.4-0.5,1.9,0l58.8,59.1c0.4,0.4,0.5,1,0.3,1.5c-0.2,0.5-0.7,0.8-1.2,0.8c0,0,0,0,0,0l-38.5-0.1
			c-0.5,8.4-1.7,16.8-3.5,25c7.2,8,11.2,18.2,11.2,29c0,23.8-19.4,43.1-43.1,43.1c-1.5,0-3-0.1-4.5-0.3c-2.3,2.6-4.7,5.2-7.2,7.6
			c-9.5,9.5-20.1,17.7-31.5,24.5C285.5,336.2,267.7,351.2,246.5,351.2z M215.7,335c0.4,0,0.7,0.2,1,0.4c7.6,8.3,18.5,13.1,29.8,13.1
			c20.1,0,36.9-14.4,39.9-34.1c0.1-0.4,0.3-0.8,0.7-1c11.4-6.8,22.1-15,31.6-24.5c2.6-2.6,5.1-5.3,7.5-8c0.3-0.3,0.7-0.5,1.2-0.5
			c1.7,0.2,3.3,0.3,4.9,0.3c22.3,0,40.4-18.1,40.4-40.4c0-10.3-3.9-20.1-10.9-27.6c-0.3-0.3-0.4-0.8-0.3-1.2
			c1.9-8.7,3.2-17.6,3.6-26.5c0-0.7,0.7-1.3,1.4-1.3l36.5,0.1l-55.5-55.9l-55.9,55.5l36,0.1c0.4,0,0.7,0.2,1,0.4
			c0.3,0.3,0.4,0.6,0.4,1c-0.3,4.8-0.9,9.6-1.8,14.3c-0.1,0.6-0.6,1-1.1,1.1c-19.7,3.1-34,19.9-34,39.9c0,6.4,1.5,12.6,4.4,18.3
			c0.3,0.5,0.2,1.1-0.2,1.5c-6.3,6.7-13.3,12.7-20.9,17.9c-0.5,0.4-1.2,0.3-1.7-0.1c-7.4-6.7-17-10.3-27-10.3
			c-18.5,0-34.6,12.5-39.2,30.4c-0.2,0.6-0.7,1-1.3,1c-9,0-17.9-1.1-26.5-3c-0.6-0.1-1-0.6-1.1-1.2c-1.7-20.9-19.4-37.2-40.3-37.2
			c-6.3,0-12.4,1.4-18.1,4.3c-0.5,0.3-1.2,0.2-1.6-0.3c-2.6-2.7-5.1-5.6-7.4-8.5c-7.6,9.9-18.1,16.9-30.1,20.1
			c5,6.5,10.6,12.7,16.7,18.4c0.3,0.3,0.5,0.7,0.4,1.2c-0.2,1.8-0.3,3.5-0.3,5.2c0,22.3,18.1,40.4,40.4,40.4c9.2,0,17.9-3,25.1-8.8
			c0.3-0.3,0.8-0.4,1.2-0.2c13.8,3.8,28,5.7,42.2,5.7C209.5,335.2,212.6,335.1,215.7,335C215.7,335,215.7,335,215.7,335z"/>
	</g>
	<g>
		<path d="M118.9,283.8c-0.3,0.2-1,0.3-1.9,0.3c-2.1,0-3.6-1.3-3.6-3.7c0-2.3,1.5-3.8,3.8-3.8c0.9,0,1.5,0.2,1.7,0.3l-0.2,0.8
			c-0.4-0.2-0.9-0.3-1.5-0.3c-1.7,0-2.8,1.1-2.8,3c0,1.8,1,2.9,2.8,2.9c0.6,0,1.2-0.1,1.5-0.3L118.9,283.8z"/>
		<path d="M124.7,281.4c0,1.9-1.3,2.8-2.6,2.8c-1.4,0-2.5-1-2.5-2.7c0-1.8,1.1-2.8,2.6-2.8C123.7,278.7,124.7,279.8,124.7,281.4z
			 M120.5,281.4c0,1.1,0.7,2,1.6,2c0.9,0,1.6-0.9,1.6-2c0-0.9-0.4-2-1.6-2C121,279.4,120.5,280.4,120.5,281.4z"/>
		<path d="M125.9,280.2c0-0.5,0-1,0-1.4h0.8l0.1,0.9h0c0.3-0.5,0.9-1,1.7-1c0.7,0,1.9,0.4,1.9,2.2v3.1h-1v-3c0-0.8-0.3-1.5-1.2-1.5
			c-0.6,0-1.1,0.4-1.3,1c0,0.1-0.1,0.3-0.1,0.4v3.2h-1V280.2z"/>
		<path d="M131.8,283.1c0.3,0.2,0.8,0.4,1.3,0.4c0.7,0,1-0.3,1-0.8c0-0.5-0.3-0.7-1-1c-0.9-0.3-1.4-0.9-1.4-1.5
			c0-0.8,0.7-1.5,1.8-1.5c0.5,0,1,0.2,1.3,0.3l-0.2,0.7c-0.2-0.1-0.6-0.3-1.1-0.3c-0.6,0-0.9,0.3-0.9,0.7c0,0.4,0.3,0.6,1,0.9
			c0.9,0.3,1.4,0.8,1.4,1.6c0,0.9-0.7,1.6-2,1.6c-0.6,0-1.1-0.1-1.5-0.4L131.8,283.1z"/>
		<path d="M137.3,277.3v1.5h1.4v0.7h-1.4v2.8c0,0.7,0.2,1,0.7,1c0.2,0,0.4,0,0.6-0.1l0,0.7c-0.2,0.1-0.5,0.1-0.8,0.1
			c-0.4,0-0.8-0.1-1-0.4c-0.3-0.3-0.4-0.7-0.4-1.4v-2.9h-0.8v-0.7h0.8v-1.3L137.3,277.3z"/>
		<path d="M142.7,284.1l-0.1-0.7h0c-0.3,0.4-0.9,0.8-1.6,0.8c-1.1,0-1.6-0.7-1.6-1.5c0-1.3,1.1-2,3.2-2v-0.1c0-0.4-0.1-1.2-1.2-1.2
			c-0.5,0-1,0.2-1.4,0.4l-0.2-0.6c0.4-0.3,1.1-0.5,1.7-0.5c1.6,0,2,1.1,2,2.1v2c0,0.5,0,0.9,0.1,1.3H142.7z M142.5,281.4
			c-1,0-2.2,0.2-2.2,1.2c0,0.6,0.4,0.9,0.9,0.9c0.7,0,1.1-0.4,1.3-0.9c0-0.1,0.1-0.2,0.1-0.3V281.4z"/>
		<path d="M145,280.2c0-0.5,0-1,0-1.4h0.8l0.1,0.9h0c0.3-0.5,0.9-1,1.7-1c0.7,0,1.9,0.4,1.9,2.2v3.1h-1v-3c0-0.8-0.3-1.5-1.2-1.5
			c-0.6,0-1.1,0.4-1.3,1c0,0.1-0.1,0.3-0.1,0.4v3.2h-1V280.2z"/>
		<path d="M152.1,277.3v1.5h1.4v0.7h-1.4v2.8c0,0.7,0.2,1,0.7,1c0.2,0,0.4,0,0.6-0.1l0,0.7c-0.2,0.1-0.5,0.1-0.8,0.1
			c-0.4,0-0.8-0.1-1-0.4c-0.3-0.3-0.4-0.7-0.4-1.4v-2.9h-0.8v-0.7h0.8v-1.3L152.1,277.3z"/>
		<path d="M154.6,276.4h1v7.7h-1V276.4z"/>
		<path d="M157.5,278.8l1.1,3.1c0.1,0.3,0.2,0.8,0.3,1.1h0c0.1-0.3,0.2-0.7,0.3-1.1l1-3.1h1l-1.4,3.7c-0.7,1.8-1.1,2.7-1.8,3.3
			c-0.5,0.4-0.9,0.6-1.2,0.6l-0.2-0.8c0.2-0.1,0.6-0.2,0.8-0.5c0.3-0.2,0.6-0.6,0.8-1.1c0-0.1,0.1-0.2,0.1-0.2c0-0.1,0-0.1-0.1-0.3
			l-1.9-4.8H157.5z"/>
		<path d="M116.4,293.2c0-0.5,0-1,0-1.4h0.8l0,0.8h0c0.3-0.5,0.8-1,1.6-1c0.7,0,1.3,0.4,1.5,1.1h0c0.2-0.3,0.4-0.5,0.6-0.7
			c0.3-0.2,0.7-0.4,1.2-0.4c0.7,0,1.7,0.5,1.7,2.3v3.1H123v-3c0-1-0.4-1.6-1.1-1.6c-0.5,0-1,0.4-1.1,0.9c0,0.1-0.1,0.3-0.1,0.5v3.2
			h-0.9v-3.1c0-0.8-0.4-1.4-1.1-1.4c-0.6,0-1,0.5-1.2,1c-0.1,0.1-0.1,0.3-0.1,0.5v3.2h-0.9V293.2z"/>
		<path d="M126,294.6c0,1.3,0.8,1.8,1.8,1.8c0.7,0,1.1-0.1,1.5-0.3l0.2,0.7c-0.3,0.2-0.9,0.3-1.7,0.3c-1.6,0-2.6-1.1-2.6-2.6
			s0.9-2.8,2.5-2.8c1.7,0,2.2,1.5,2.2,2.5c0,0.2,0,0.3,0,0.4H126z M128.8,293.9c0-0.6-0.2-1.5-1.3-1.5c-1,0-1.4,0.9-1.5,1.5H128.8z"
			/>
		<path d="M133.8,297.1l-0.1-0.7h0c-0.3,0.4-0.9,0.8-1.6,0.8c-1.1,0-1.6-0.7-1.6-1.5c0-1.3,1.1-2,3.2-2v-0.1c0-0.4-0.1-1.2-1.2-1.2
			c-0.5,0-1,0.2-1.4,0.4l-0.2-0.6c0.4-0.3,1.1-0.5,1.7-0.5c1.6,0,2,1.1,2,2.1v2c0,0.5,0,0.9,0.1,1.3H133.8z M133.7,294.4
			c-1,0-2.2,0.2-2.2,1.2c0,0.6,0.4,0.9,0.9,0.9c0.7,0,1.1-0.4,1.3-0.9c0-0.1,0.1-0.2,0.1-0.3V294.4z"/>
		<path d="M136,296.1c0.3,0.2,0.8,0.4,1.3,0.4c0.7,0,1-0.3,1-0.8c0-0.5-0.3-0.7-1-1c-0.9-0.3-1.4-0.9-1.4-1.5c0-0.8,0.7-1.5,1.8-1.5
			c0.5,0,1,0.2,1.3,0.3l-0.2,0.7c-0.2-0.1-0.6-0.3-1.1-0.3c-0.6,0-0.9,0.3-0.9,0.7c0,0.4,0.3,0.6,1,0.9c0.9,0.3,1.4,0.8,1.4,1.6
			c0,0.9-0.7,1.6-2,1.6c-0.6,0-1.1-0.1-1.5-0.4L136,296.1z"/>
		<path d="M144.8,295.6c0,0.5,0,1,0,1.4H144l-0.1-0.9h0c-0.2,0.4-0.8,1-1.7,1c-0.8,0-1.8-0.5-1.8-2.3v-3.1h1v2.9
			c0,1,0.3,1.7,1.2,1.7c0.6,0,1.1-0.4,1.3-0.9c0.1-0.1,0.1-0.3,0.1-0.5v-3.2h1V295.6z"/>
		<path d="M146.4,293.5c0-0.6,0-1.1,0-1.6h0.8l0,1h0c0.2-0.7,0.8-1.1,1.5-1.1c0.1,0,0.2,0,0.3,0v0.9c-0.1,0-0.2,0-0.3,0
			c-0.7,0-1.1,0.5-1.3,1.2c0,0.1,0,0.3,0,0.4v2.8h-0.9V293.5z"/>
		<path d="M150.4,294.6c0,1.3,0.8,1.8,1.8,1.8c0.7,0,1.1-0.1,1.5-0.3l0.2,0.7c-0.3,0.2-0.9,0.3-1.7,0.3c-1.6,0-2.6-1.1-2.6-2.6
			s0.9-2.8,2.5-2.8c1.7,0,2.2,1.5,2.2,2.5c0,0.2,0,0.3,0,0.4H150.4z M153.2,293.9c0-0.6-0.2-1.5-1.3-1.5c-1,0-1.4,0.9-1.5,1.5H153.2
			z"/>
		<path d="M155.1,296.1c0.3,0.2,0.8,0.4,1.3,0.4c0.7,0,1-0.3,1-0.8c0-0.5-0.3-0.7-1-1c-0.9-0.3-1.4-0.9-1.4-1.5
			c0-0.8,0.7-1.5,1.8-1.5c0.5,0,1,0.2,1.3,0.3l-0.2,0.7c-0.2-0.1-0.6-0.3-1.1-0.3c-0.6,0-0.9,0.3-0.9,0.7c0,0.4,0.3,0.6,1,0.9
			c0.9,0.3,1.4,0.8,1.4,1.6c0,0.9-0.7,1.6-2,1.6c-0.6,0-1.1-0.1-1.5-0.4L155.1,296.1z"/>
		<path d="M122.2,310.1c-0.2-0.2-0.4-0.4-0.7-0.7c-0.6,0.6-1.3,0.8-2.1,0.8c-1.4,0-2.2-1-2.2-2c0-1,0.6-1.7,1.4-2.1v0
			c-0.4-0.5-0.6-1-0.6-1.5c0-0.9,0.6-1.8,1.9-1.8c0.9,0,1.6,0.6,1.6,1.5c0,0.8-0.4,1.4-1.6,2v0c0.6,0.7,1.3,1.5,1.8,2
			c0.3-0.5,0.6-1.2,0.7-2.1h0.9c-0.2,1.1-0.5,2.1-1.1,2.7c0.4,0.4,0.8,0.8,1.2,1.3H122.2z M121,308.8c-0.4-0.5-1.2-1.4-2.1-2.3
			c-0.4,0.2-0.9,0.7-0.9,1.5c0,0.8,0.6,1.5,1.5,1.5C120.1,309.5,120.7,309.2,121,308.8z M118.8,304.4c0,0.5,0.2,0.9,0.6,1.3
			c0.7-0.4,1.2-0.8,1.2-1.4c0-0.4-0.2-0.9-0.8-0.9C119.1,303.3,118.8,303.8,118.8,304.4z"/>
		<path d="M126.8,304.8l1,2.9c0.2,0.5,0.3,0.9,0.4,1.3h0c0.1-0.4,0.3-0.9,0.4-1.3l1-2.9h1l-2.1,5.2h-0.9l-2-5.2H126.8z"/>
		<path d="M132,307.6c0,1.3,0.8,1.8,1.8,1.8c0.7,0,1.1-0.1,1.5-0.3l0.2,0.7c-0.3,0.2-0.9,0.3-1.7,0.3c-1.6,0-2.6-1.1-2.6-2.6
			s0.9-2.8,2.5-2.8c1.7,0,2.2,1.5,2.2,2.5c0,0.2,0,0.3,0,0.4H132z M134.8,306.9c0-0.6-0.2-1.5-1.3-1.5c-1,0-1.4,0.9-1.5,1.5H134.8z"
			/>
		<path d="M136.9,306.5c0-0.6,0-1.1,0-1.6h0.8l0,1h0c0.2-0.7,0.8-1.1,1.5-1.1c0.1,0,0.2,0,0.3,0v0.9c-0.1,0-0.2,0-0.3,0
			c-0.7,0-1.1,0.5-1.3,1.2c0,0.1,0,0.3,0,0.4v2.8h-0.9V306.5z"/>
		<path d="M141.6,303.4c0,0.3-0.2,0.6-0.6,0.6c-0.3,0-0.6-0.3-0.6-0.6c0-0.3,0.2-0.6,0.6-0.6C141.4,302.8,141.6,303,141.6,303.4z
			 M140.5,310.1v-5.2h1v5.2H140.5z"/>
		<path d="M143.2,310.1v-4.5h-0.7v-0.7h0.7v-0.3c0-1.4,0.8-2.3,2.3-2.3c0.5,0,1.1,0.2,1.3,0.3l-0.3,0.7c-0.2-0.2-0.6-0.3-1.1-0.3
			c-1,0-1.3,0.7-1.3,1.5v0.3h3v5.2h-0.9v-4.5h-2.1v4.5H143.2z"/>
		<path d="M149.3,307.6c0,1.3,0.8,1.8,1.8,1.8c0.7,0,1.1-0.1,1.5-0.3l0.2,0.7c-0.3,0.2-0.9,0.3-1.7,0.3c-1.6,0-2.6-1.1-2.6-2.6
			s0.9-2.8,2.5-2.8c1.7,0,2.2,1.5,2.2,2.5c0,0.2,0,0.3,0,0.4H149.3z M152.1,306.9c0-0.6-0.2-1.5-1.3-1.5c-1,0-1.4,0.9-1.5,1.5H152.1
			z"/>
		<path d="M154,309.1c0.3,0.2,0.8,0.4,1.3,0.4c0.7,0,1-0.3,1-0.8c0-0.5-0.3-0.7-1-1c-0.9-0.3-1.4-0.9-1.4-1.5c0-0.8,0.7-1.5,1.8-1.5
			c0.5,0,1,0.2,1.3,0.3l-0.2,0.7c-0.2-0.1-0.6-0.3-1.1-0.3c-0.6,0-0.9,0.3-0.9,0.7c0,0.4,0.3,0.6,1,0.9c0.9,0.3,1.4,0.8,1.4,1.6
			c0,0.9-0.7,1.6-2,1.6c-0.6,0-1.1-0.1-1.5-0.4L154,309.1z"/>
		<path d="M118.6,319.5c0-0.6,0-1.1,0-1.6h0.8l0,1h0c0.2-0.7,0.8-1.1,1.5-1.1c0.1,0,0.2,0,0.3,0v0.9c-0.1,0-0.2,0-0.3,0
			c-0.7,0-1.1,0.5-1.3,1.2c0,0.1,0,0.3,0,0.4v2.8h-0.9V319.5z"/>
		<path d="M122.6,320.6c0,1.3,0.8,1.8,1.8,1.8c0.7,0,1.1-0.1,1.5-0.3l0.2,0.7c-0.3,0.2-0.9,0.3-1.7,0.3c-1.6,0-2.6-1.1-2.6-2.6
			s0.9-2.8,2.5-2.8c1.7,0,2.2,1.5,2.2,2.5c0,0.2,0,0.3,0,0.4H122.6z M125.4,319.9c0-0.6-0.2-1.5-1.3-1.5c-1,0-1.4,0.9-1.5,1.5H125.4
			z"/>
		<path d="M127.4,322.1c0.3,0.2,0.8,0.4,1.3,0.4c0.7,0,1-0.3,1-0.8c0-0.5-0.3-0.7-1-1c-0.9-0.3-1.4-0.9-1.4-1.5
			c0-0.8,0.7-1.5,1.8-1.5c0.5,0,1,0.2,1.3,0.3l-0.2,0.7c-0.2-0.1-0.6-0.3-1.1-0.3c-0.6,0-0.9,0.3-0.9,0.7c0,0.4,0.3,0.6,1,0.9
			c0.9,0.3,1.4,0.8,1.4,1.6c0,0.9-0.7,1.6-2,1.6c-0.6,0-1.1-0.1-1.5-0.4L127.4,322.1z"/>
		<path d="M136.5,320.4c0,1.9-1.3,2.8-2.6,2.8c-1.4,0-2.5-1-2.5-2.7c0-1.8,1.1-2.8,2.6-2.8C135.5,317.7,136.5,318.8,136.5,320.4z
			 M132.4,320.5c0,1.1,0.7,2,1.6,2c0.9,0,1.6-0.9,1.6-2c0-0.9-0.4-2-1.6-2C132.9,318.4,132.4,319.5,132.4,320.5z"/>
		<path d="M142.1,321.6c0,0.5,0,1,0,1.4h-0.8l-0.1-0.9h0c-0.2,0.4-0.8,1-1.7,1c-0.8,0-1.8-0.5-1.8-2.3v-3.1h1v2.9
			c0,1,0.3,1.7,1.2,1.7c0.6,0,1.1-0.4,1.3-0.9c0.1-0.1,0.1-0.3,0.1-0.5v-3.2h1V321.6z"/>
		<path d="M143.7,319.5c0-0.6,0-1.1,0-1.6h0.8l0,1h0c0.2-0.7,0.8-1.1,1.5-1.1c0.1,0,0.2,0,0.3,0v0.9c-0.1,0-0.2,0-0.3,0
			c-0.7,0-1.1,0.5-1.3,1.2c0,0.1,0,0.3,0,0.4v2.8h-0.9V319.5z"/>
		<path d="M150.9,322.9c-0.2,0.1-0.8,0.3-1.5,0.3c-1.6,0-2.6-1.1-2.6-2.7c0-1.6,1.1-2.8,2.8-2.8c0.6,0,1.1,0.1,1.3,0.3l-0.2,0.7
			c-0.2-0.1-0.6-0.2-1.1-0.2c-1.2,0-1.9,0.9-1.9,2c0,1.2,0.8,2,1.8,2c0.5,0,0.9-0.1,1.2-0.3L150.9,322.9z"/>
		<path d="M152.5,320.6c0,1.3,0.8,1.8,1.8,1.8c0.7,0,1.1-0.1,1.5-0.3l0.2,0.7c-0.3,0.2-0.9,0.3-1.7,0.3c-1.6,0-2.6-1.1-2.6-2.6
			s0.9-2.8,2.5-2.8c1.7,0,2.2,1.5,2.2,2.5c0,0.2,0,0.3,0,0.4H152.5z M155.3,319.9c0-0.6-0.2-1.5-1.3-1.5c-1,0-1.4,0.9-1.5,1.5H155.3
			z"/>
	</g>
	<g>
		<path d="M226.7,285.9c0.5-0.1,1.2-0.2,1.8-0.2c1,0,1.7,0.2,2.1,0.6c0.4,0.3,0.6,0.8,0.6,1.4c0,1-0.6,1.6-1.4,1.9v0
			c0.6,0.2,0.9,0.7,1.1,1.5c0.2,1,0.4,1.7,0.6,2h-1c-0.1-0.2-0.3-0.8-0.5-1.7c-0.2-1-0.6-1.4-1.5-1.4h-0.9v3.2h-0.9V285.9z
			 M227.7,289.2h1c1,0,1.6-0.6,1.6-1.4c0-0.9-0.7-1.4-1.7-1.4c-0.5,0-0.8,0-0.9,0.1V289.2z"/>
		<path d="M233.1,290.6c0,1.3,0.8,1.8,1.8,1.8c0.7,0,1.1-0.1,1.5-0.3l0.2,0.7c-0.3,0.2-0.9,0.3-1.7,0.3c-1.6,0-2.6-1.1-2.6-2.6
			s0.9-2.8,2.5-2.8c1.7,0,2.2,1.5,2.2,2.5c0,0.2,0,0.3,0,0.4H233.1z M235.9,290c0-0.6-0.2-1.5-1.3-1.5c-1,0-1.4,0.9-1.5,1.5H235.9z"
			/>
		<path d="M237.9,292.1c0.3,0.2,0.8,0.4,1.3,0.4c0.7,0,1-0.3,1-0.8c0-0.5-0.3-0.7-1-1c-0.9-0.3-1.4-0.9-1.4-1.5
			c0-0.8,0.7-1.5,1.8-1.5c0.5,0,1,0.2,1.3,0.3l-0.2,0.7c-0.2-0.1-0.6-0.3-1.1-0.3c-0.6,0-0.9,0.3-0.9,0.7c0,0.4,0.3,0.6,1,0.9
			c0.9,0.3,1.4,0.8,1.4,1.6c0,0.9-0.7,1.6-2,1.6c-0.6,0-1.1-0.1-1.5-0.4L237.9,292.1z"/>
		<path d="M247,290.4c0,1.9-1.3,2.8-2.6,2.8c-1.4,0-2.5-1-2.5-2.7c0-1.8,1.1-2.8,2.6-2.8C246,287.7,247,288.8,247,290.4z
			 M242.9,290.5c0,1.1,0.7,2,1.6,2c0.9,0,1.6-0.9,1.6-2c0-0.9-0.4-2-1.6-2S242.9,289.5,242.9,290.5z"/>
		<path d="M252.6,291.7c0,0.5,0,1,0,1.4h-0.8l-0.1-0.9h0c-0.2,0.4-0.8,1-1.7,1c-0.8,0-1.8-0.5-1.8-2.3v-3.1h1v2.9
			c0,1,0.3,1.7,1.2,1.7c0.6,0,1.1-0.4,1.3-0.9c0.1-0.1,0.1-0.3,0.1-0.5v-3.2h1V291.7z"/>
		<path d="M254.2,289.5c0-0.6,0-1.1,0-1.6h0.8l0,1h0c0.2-0.7,0.8-1.1,1.5-1.1c0.1,0,0.2,0,0.3,0v0.9c-0.1,0-0.2,0-0.3,0
			c-0.7,0-1.1,0.5-1.3,1.2c0,0.1,0,0.3,0,0.4v2.8h-0.9V289.5z"/>
		<path d="M261.4,292.9c-0.2,0.1-0.8,0.3-1.5,0.3c-1.6,0-2.6-1.1-2.6-2.7c0-1.6,1.1-2.8,2.8-2.8c0.6,0,1.1,0.1,1.3,0.3l-0.2,0.7
			c-0.2-0.1-0.6-0.2-1.1-0.2c-1.2,0-1.9,0.9-1.9,2c0,1.2,0.8,2,1.8,2c0.5,0,0.9-0.1,1.2-0.3L261.4,292.9z"/>
		<path d="M263,290.6c0,1.3,0.8,1.8,1.8,1.8c0.7,0,1.1-0.1,1.5-0.3l0.2,0.7c-0.3,0.2-0.9,0.3-1.7,0.3c-1.6,0-2.6-1.1-2.6-2.6
			s0.9-2.8,2.5-2.8c1.7,0,2.2,1.5,2.2,2.5c0,0.2,0,0.3,0,0.4H263z M265.8,290c0-0.6-0.2-1.5-1.3-1.5c-1,0-1.4,0.9-1.5,1.5H265.8z"/>
		<path d="M226.9,302.6c0-0.7,0-1.2,0-1.7h0.9l0,0.9h0c0.4-0.6,1-1,1.9-1c1.3,0,2.2,1.1,2.2,2.7c0,1.9-1.1,2.8-2.4,2.8
			c-0.7,0-1.3-0.3-1.6-0.8h0v2.8h-0.9V302.6z M227.8,304c0,0.1,0,0.3,0,0.4c0.2,0.7,0.7,1.1,1.4,1.1c1,0,1.6-0.8,1.6-2
			c0-1.1-0.6-2-1.6-2c-0.6,0-1.3,0.5-1.4,1.2c0,0.1-0.1,0.3-0.1,0.4V304z"/>
		<path d="M233,302.5c0-0.6,0-1.1,0-1.6h0.8l0,1h0c0.2-0.7,0.8-1.1,1.5-1.1c0.1,0,0.2,0,0.3,0v0.9c-0.1,0-0.2,0-0.3,0
			c-0.7,0-1.1,0.5-1.3,1.2c0,0.1,0,0.3,0,0.4v2.8H233V302.5z"/>
		<path d="M241.2,303.4c0,1.9-1.3,2.8-2.6,2.8c-1.4,0-2.5-1-2.5-2.7c0-1.8,1.1-2.8,2.6-2.8C240.2,300.7,241.2,301.8,241.2,303.4z
			 M237,303.5c0,1.1,0.7,2,1.6,2c0.9,0,1.6-0.9,1.6-2c0-0.9-0.4-2-1.6-2C237.5,301.4,237,302.5,237,303.5z"/>
		<path d="M242.7,300.9l1,2.9c0.2,0.5,0.3,0.9,0.4,1.3h0c0.1-0.4,0.3-0.9,0.4-1.3l1-2.9h1l-2.1,5.2h-0.9l-2-5.2H242.7z"/>
		<path d="M248.6,299.4c0,0.3-0.2,0.6-0.6,0.6c-0.3,0-0.6-0.3-0.6-0.6c0-0.3,0.2-0.6,0.6-0.6C248.4,298.8,248.6,299,248.6,299.4z
			 M247.5,306.1v-5.2h1v5.2H247.5z"/>
		<path d="M254.6,298.4v6.3c0,0.5,0,1,0,1.4h-0.9l0-0.9h0c-0.3,0.6-0.9,1-1.8,1c-1.3,0-2.2-1.1-2.2-2.7c0-1.7,1.1-2.8,2.4-2.8
			c0.8,0,1.3,0.4,1.6,0.8h0v-3.1H254.6z M253.7,303c0-0.1,0-0.3,0-0.4c-0.1-0.6-0.7-1.1-1.4-1.1c-1,0-1.6,0.9-1.6,2
			c0,1.1,0.5,1.9,1.5,1.9c0.6,0,1.2-0.4,1.4-1.1c0-0.1,0-0.3,0-0.4V303z"/>
		<path d="M256.7,303.6c0,1.3,0.8,1.8,1.8,1.8c0.7,0,1.1-0.1,1.5-0.3l0.2,0.7c-0.3,0.2-0.9,0.3-1.7,0.3c-1.6,0-2.6-1.1-2.6-2.6
			s0.9-2.8,2.5-2.8c1.7,0,2.2,1.5,2.2,2.5c0,0.2,0,0.3,0,0.4H256.7z M259.5,303c0-0.6-0.2-1.5-1.3-1.5c-1,0-1.4,0.9-1.5,1.5H259.5z"
			/>
		<path d="M266.2,298.4v6.3c0,0.5,0,1,0,1.4h-0.9l0-0.9h0c-0.3,0.6-0.9,1-1.8,1c-1.3,0-2.2-1.1-2.2-2.7c0-1.7,1.1-2.8,2.4-2.8
			c0.8,0,1.3,0.4,1.6,0.8h0v-3.1H266.2z M265.2,303c0-0.1,0-0.3,0-0.4c-0.1-0.6-0.7-1.1-1.4-1.1c-1,0-1.6,0.9-1.6,2
			c0,1.1,0.5,1.9,1.5,1.9c0.6,0,1.2-0.4,1.4-1.1c0-0.1,0-0.3,0-0.4V303z"/>
		<path d="M218.7,315.3c0-0.5,0-1,0-1.4h0.8l0,0.8h0c0.3-0.5,0.8-1,1.6-1c0.7,0,1.3,0.4,1.5,1.1h0c0.2-0.3,0.4-0.5,0.6-0.7
			c0.3-0.2,0.7-0.4,1.2-0.4c0.7,0,1.7,0.5,1.7,2.3v3.1h-0.9v-3c0-1-0.4-1.6-1.1-1.6c-0.5,0-1,0.4-1.1,0.9c0,0.1-0.1,0.3-0.1,0.5v3.2
			H222V316c0-0.8-0.4-1.4-1.1-1.4c-0.6,0-1,0.5-1.2,1c-0.1,0.1-0.1,0.3-0.1,0.5v3.2h-0.9V315.3z"/>
		<path d="M232.1,317.7c0,0.5,0,1,0,1.4h-0.8l-0.1-0.9h0c-0.2,0.4-0.8,1-1.7,1c-0.8,0-1.8-0.5-1.8-2.3v-3.1h1v2.9
			c0,1,0.3,1.7,1.2,1.7c0.6,0,1.1-0.4,1.3-0.9c0.1-0.1,0.1-0.3,0.1-0.5v-3.2h1V317.7z"/>
		<path d="M233.6,318.1c0.3,0.2,0.8,0.4,1.3,0.4c0.7,0,1-0.3,1-0.8c0-0.5-0.3-0.7-1-1c-0.9-0.3-1.4-0.9-1.4-1.5
			c0-0.8,0.7-1.5,1.8-1.5c0.5,0,1,0.2,1.3,0.3l-0.2,0.7c-0.2-0.1-0.6-0.3-1.1-0.3c-0.6,0-0.9,0.3-0.9,0.7c0,0.4,0.3,0.6,1,0.9
			c0.9,0.3,1.4,0.8,1.4,1.6c0,0.9-0.7,1.6-2,1.6c-0.6,0-1.1-0.1-1.5-0.4L233.6,318.1z"/>
		<path d="M239.1,312.4v1.5h1.4v0.7h-1.4v2.8c0,0.7,0.2,1,0.7,1c0.2,0,0.4,0,0.6-0.1l0,0.7c-0.2,0.1-0.5,0.1-0.8,0.1
			c-0.4,0-0.8-0.1-1-0.4c-0.3-0.3-0.4-0.7-0.4-1.4v-2.9h-0.8v-0.7h0.8v-1.3L239.1,312.4z"/>
		<path d="M244.4,316.7c0,1.3,0.8,1.8,1.8,1.8c0.7,0,1.1-0.1,1.5-0.3l0.2,0.7c-0.3,0.2-0.9,0.3-1.7,0.3c-1.6,0-2.6-1.1-2.6-2.6
			s0.9-2.8,2.5-2.8c1.7,0,2.2,1.5,2.2,2.5c0,0.2,0,0.3,0,0.4H244.4z M247.2,316c0-0.6-0.2-1.5-1.3-1.5c-1,0-1.4,0.9-1.5,1.5H247.2z"
			/>
		<path d="M249.7,313.9l0.7,1.1c0.2,0.3,0.4,0.6,0.5,0.9h0c0.2-0.3,0.3-0.6,0.5-0.9l0.7-1.1h1l-1.8,2.5l1.8,2.7h-1.1l-0.8-1.2
			c-0.2-0.3-0.4-0.6-0.6-0.9h0c-0.2,0.3-0.4,0.6-0.6,0.9l-0.8,1.2h-1.1l1.9-2.7l-1.8-2.6H249.7z"/>
		<path d="M257.9,318.9c-0.2,0.1-0.8,0.3-1.5,0.3c-1.6,0-2.6-1.1-2.6-2.7c0-1.6,1.1-2.8,2.8-2.8c0.6,0,1.1,0.1,1.3,0.3l-0.2,0.7
			c-0.2-0.1-0.6-0.2-1.1-0.2c-1.2,0-1.9,0.9-1.9,2c0,1.2,0.8,2,1.8,2c0.5,0,0.9-0.1,1.2-0.3L257.9,318.9z"/>
		<path d="M259.5,316.7c0,1.3,0.8,1.8,1.8,1.8c0.7,0,1.1-0.1,1.5-0.3l0.2,0.7c-0.3,0.2-0.9,0.3-1.7,0.3c-1.6,0-2.6-1.1-2.6-2.6
			s0.9-2.8,2.5-2.8c1.7,0,2.2,1.5,2.2,2.5c0,0.2,0,0.3,0,0.4H259.5z M262.2,316c0-0.6-0.2-1.5-1.3-1.5c-1,0-1.4,0.9-1.5,1.5H262.2z"
			/>
		<path d="M264.9,316.7c0,1.3,0.8,1.8,1.8,1.8c0.7,0,1.1-0.1,1.5-0.3l0.2,0.7c-0.3,0.2-0.9,0.3-1.7,0.3c-1.6,0-2.6-1.1-2.6-2.6
			s0.9-2.8,2.5-2.8c1.7,0,2.2,1.5,2.2,2.5c0,0.2,0,0.3,0,0.4H264.9z M267.7,316c0-0.6-0.2-1.5-1.3-1.5c-1,0-1.4,0.9-1.5,1.5H267.7z"
			/>
		<path d="M274.3,311.4v6.3c0,0.5,0,1,0,1.4h-0.9l0-0.9h0c-0.3,0.6-0.9,1-1.8,1c-1.3,0-2.2-1.1-2.2-2.7c0-1.7,1.1-2.8,2.4-2.8
			c0.8,0,1.3,0.4,1.6,0.8h0v-3.1H274.3z M273.4,316c0-0.1,0-0.3,0-0.4c-0.1-0.6-0.7-1.1-1.4-1.1c-1,0-1.6,0.9-1.6,2
			c0,1.1,0.5,1.9,1.5,1.9c0.6,0,1.2-0.4,1.4-1.1c0-0.1,0-0.3,0-0.4V316z"/>
		<path d="M238.2,330.7c0,0.5,0,1,0,1.4h-0.8l-0.1-0.9h0c-0.2,0.4-0.8,1-1.7,1c-0.8,0-1.8-0.5-1.8-2.3v-3.1h1v2.9
			c0,1,0.3,1.7,1.2,1.7c0.6,0,1.1-0.4,1.3-0.9c0.1-0.1,0.1-0.3,0.1-0.5v-3.2h1V330.7z"/>
		<path d="M239.6,331.1c0.3,0.2,0.8,0.4,1.3,0.4c0.7,0,1-0.3,1-0.8c0-0.5-0.3-0.7-1-1c-0.9-0.3-1.4-0.9-1.4-1.5
			c0-0.8,0.7-1.5,1.8-1.5c0.5,0,1,0.2,1.3,0.3l-0.2,0.7c-0.2-0.1-0.6-0.3-1.1-0.3c-0.6,0-0.9,0.3-0.9,0.7c0,0.4,0.3,0.6,1,0.9
			c0.9,0.3,1.4,0.8,1.4,1.6c0,0.9-0.7,1.6-2,1.6c-0.6,0-1.1-0.1-1.5-0.4L239.6,331.1z"/>
		<path d="M247,332.1l-0.1-0.7h0c-0.3,0.4-0.9,0.8-1.6,0.8c-1.1,0-1.6-0.7-1.6-1.5c0-1.3,1.1-2,3.2-2v-0.1c0-0.4-0.1-1.2-1.2-1.2
			c-0.5,0-1,0.2-1.4,0.4l-0.2-0.6c0.4-0.3,1.1-0.5,1.7-0.5c1.6,0,2,1.1,2,2.1v2c0,0.5,0,0.9,0.1,1.3H247z M246.8,329.4
			c-1,0-2.2,0.2-2.2,1.2c0,0.6,0.4,0.9,0.9,0.9c0.7,0,1.1-0.4,1.3-0.9c0-0.1,0.1-0.2,0.1-0.3V329.4z"/>
		<path d="M253.8,326.9c0,0.4,0,0.8,0,1.4v3c0,1.2-0.2,1.9-0.7,2.4c-0.5,0.5-1.2,0.6-1.9,0.6c-0.6,0-1.3-0.2-1.7-0.4l0.2-0.7
			c0.3,0.2,0.9,0.4,1.5,0.4c1,0,1.7-0.5,1.7-1.8v-0.6h0c-0.3,0.5-0.9,0.9-1.7,0.9c-1.3,0-2.2-1.1-2.2-2.6c0-1.8,1.2-2.8,2.4-2.8
			c0.9,0,1.4,0.5,1.6,0.9h0l0-0.8H253.8z M252.8,328.9c0-0.2,0-0.3-0.1-0.4c-0.2-0.6-0.6-1-1.3-1c-0.9,0-1.6,0.8-1.6,2
			c0,1,0.5,1.9,1.5,1.9c0.6,0,1.1-0.4,1.3-1c0.1-0.2,0.1-0.3,0.1-0.5V328.9z"/>
		<path d="M255.9,329.7c0,1.3,0.8,1.8,1.8,1.8c0.7,0,1.1-0.1,1.5-0.3l0.2,0.7c-0.3,0.2-0.9,0.3-1.7,0.3c-1.6,0-2.6-1.1-2.6-2.6
			s0.9-2.8,2.5-2.8c1.7,0,2.2,1.5,2.2,2.5c0,0.2,0,0.3,0,0.4H255.9z M258.7,329c0-0.6-0.2-1.5-1.3-1.5c-1,0-1.4,0.9-1.5,1.5H258.7z"
			/>
	</g>
	<g>
		<path d="M307.8,223.3c0.4,0.3,1,0.5,1.7,0.5c1,0,1.5-0.5,1.5-1.2c0-0.7-0.4-1.1-1.4-1.5c-1.2-0.4-1.9-1-1.9-2.1c0-1.1,0.9-2,2.4-2
			c0.7,0,1.3,0.2,1.6,0.4l-0.3,0.8c-0.2-0.1-0.7-0.3-1.4-0.3c-1,0-1.4,0.6-1.4,1.1c0,0.7,0.4,1,1.5,1.4c1.2,0.5,1.9,1.1,1.9,2.1
			c0,1.1-0.8,2.1-2.6,2.1c-0.7,0-1.5-0.2-1.9-0.5L307.8,223.3z"/>
		<path d="M314.4,217.7v1.5h1.4v0.7h-1.4v2.8c0,0.7,0.2,1,0.7,1c0.2,0,0.4,0,0.6-0.1l0,0.7c-0.2,0.1-0.5,0.1-0.8,0.1
			c-0.4,0-0.8-0.1-1-0.4c-0.3-0.3-0.4-0.7-0.4-1.4v-2.9h-0.8v-0.7h0.8v-1.3L314.4,217.7z"/>
		<path d="M321.5,221.8c0,1.9-1.3,2.8-2.6,2.8c-1.4,0-2.5-1-2.5-2.7c0-1.8,1.1-2.8,2.6-2.8C320.5,219.1,321.5,220.2,321.5,221.8z
			 M317.3,221.8c0,1.1,0.7,2,1.6,2c0.9,0,1.6-0.9,1.6-2c0-0.9-0.4-2-1.6-2S317.3,220.8,317.3,221.8z"/>
		<path d="M322.7,220.8c0-0.6,0-1.1,0-1.6h0.8l0,1h0c0.2-0.7,0.8-1.1,1.5-1.1c0.1,0,0.2,0,0.3,0v0.9c-0.1,0-0.2,0-0.3,0
			c-0.7,0-1.1,0.5-1.3,1.2c0,0.1,0,0.3,0,0.4v2.8h-0.9V220.8z"/>
		<path d="M326.7,222c0,1.3,0.8,1.8,1.8,1.8c0.7,0,1.1-0.1,1.5-0.3l0.2,0.7c-0.3,0.2-0.9,0.3-1.7,0.3c-1.6,0-2.6-1.1-2.6-2.6
			s0.9-2.8,2.5-2.8c1.7,0,2.2,1.5,2.2,2.5c0,0.2,0,0.3,0,0.4H326.7z M329.5,221.3c0-0.6-0.2-1.5-1.3-1.5c-1,0-1.4,0.9-1.5,1.5H329.5
			z"/>
		<path d="M331.4,223.5c0.3,0.2,0.8,0.4,1.3,0.4c0.7,0,1-0.3,1-0.8c0-0.5-0.3-0.7-1-1c-0.9-0.3-1.4-0.9-1.4-1.5
			c0-0.8,0.7-1.5,1.8-1.5c0.5,0,1,0.2,1.3,0.3l-0.2,0.7c-0.2-0.1-0.6-0.3-1.1-0.3c-0.6,0-0.9,0.3-0.9,0.7c0,0.4,0.3,0.6,1,0.9
			c0.9,0.3,1.4,0.8,1.4,1.6c0,0.9-0.7,1.6-2,1.6c-0.6,0-1.1-0.1-1.5-0.4L331.4,223.5z"/>
		<path d="M342.7,216.8v6.3c0,0.5,0,1,0,1.4h-0.9l0-0.9h0c-0.3,0.6-0.9,1-1.8,1c-1.3,0-2.2-1.1-2.2-2.7c0-1.7,1.1-2.8,2.4-2.8
			c0.8,0,1.3,0.4,1.6,0.8h0v-3.1H342.7z M341.7,221.3c0-0.1,0-0.3,0-0.4c-0.1-0.6-0.7-1.1-1.4-1.1c-1,0-1.6,0.9-1.6,2
			c0,1.1,0.5,1.9,1.5,1.9c0.6,0,1.2-0.4,1.4-1.1c0-0.1,0-0.3,0-0.4V221.3z"/>
		<path d="M347.2,224.4l-0.1-0.7h0c-0.3,0.4-0.9,0.8-1.6,0.8c-1.1,0-1.6-0.7-1.6-1.5c0-1.3,1.1-2,3.2-2V221c0-0.4-0.1-1.2-1.2-1.2
			c-0.5,0-1,0.2-1.4,0.4l-0.2-0.6c0.4-0.3,1.1-0.5,1.7-0.5c1.6,0,2,1.1,2,2.1v2c0,0.5,0,0.9,0.1,1.3H347.2z M347,221.8
			c-1,0-2.2,0.2-2.2,1.2c0,0.6,0.4,0.9,0.9,0.9c0.7,0,1.1-0.4,1.3-0.9c0-0.1,0.1-0.2,0.1-0.3V221.8z"/>
		<path d="M350.6,217.7v1.5h1.4v0.7h-1.4v2.8c0,0.7,0.2,1,0.7,1c0.2,0,0.4,0,0.6-0.1l0,0.7c-0.2,0.1-0.5,0.1-0.8,0.1
			c-0.4,0-0.8-0.1-1-0.4c-0.3-0.3-0.4-0.7-0.4-1.4v-2.9h-0.8v-0.7h0.8v-1.3L350.6,217.7z"/>
		<path d="M356,224.4l-0.1-0.7h0c-0.3,0.4-0.9,0.8-1.6,0.8c-1.1,0-1.6-0.7-1.6-1.5c0-1.3,1.1-2,3.2-2V221c0-0.4-0.1-1.2-1.2-1.2
			c-0.5,0-1,0.2-1.4,0.4l-0.2-0.6c0.4-0.3,1.1-0.5,1.7-0.5c1.6,0,2,1.1,2,2.1v2c0,0.5,0,0.9,0.1,1.3H356z M355.8,221.8
			c-1,0-2.2,0.2-2.2,1.2c0,0.6,0.4,0.9,0.9,0.9c0.7,0,1.1-0.4,1.3-0.9c0-0.1,0.1-0.2,0.1-0.3V221.8z"/>
		<path d="M313.7,237.5c-0.2-0.2-0.4-0.4-0.7-0.7c-0.6,0.6-1.3,0.8-2.1,0.8c-1.4,0-2.2-1-2.2-2c0-1,0.6-1.7,1.4-2.1v0
			c-0.4-0.5-0.6-1-0.6-1.5c0-0.9,0.6-1.8,1.9-1.8c0.9,0,1.6,0.6,1.6,1.5c0,0.8-0.4,1.4-1.6,2v0c0.6,0.7,1.3,1.5,1.8,2
			c0.3-0.5,0.6-1.2,0.7-2.1h0.9c-0.2,1.1-0.5,2.1-1.1,2.7c0.4,0.4,0.8,0.8,1.2,1.3H313.7z M312.6,236.2c-0.4-0.5-1.2-1.4-2.1-2.3
			c-0.4,0.2-0.9,0.7-0.9,1.5c0,0.8,0.6,1.5,1.5,1.5C311.7,236.9,312.3,236.6,312.6,236.2z M310.4,231.7c0,0.5,0.2,0.9,0.6,1.3
			c0.7-0.4,1.2-0.8,1.2-1.4c0-0.4-0.2-0.9-0.8-0.9C310.7,230.7,310.4,231.2,310.4,231.7z"/>
		<path d="M318,233.9c0-0.7,0-1.2,0-1.7h0.9l0,0.9h0c0.4-0.6,1-1,1.9-1c1.3,0,2.2,1.1,2.2,2.7c0,1.9-1.1,2.8-2.4,2.8
			c-0.7,0-1.3-0.3-1.6-0.8h0v2.8H318V233.9z M318.9,235.3c0,0.1,0,0.3,0,0.4c0.2,0.7,0.7,1.1,1.4,1.1c1,0,1.6-0.8,1.6-2
			c0-1.1-0.6-2-1.6-2c-0.7,0-1.3,0.5-1.4,1.2c0,0.1-0.1,0.3-0.1,0.4V235.3z"/>
		<path d="M324.2,233.8c0-0.6,0-1.1,0-1.6h0.8l0,1h0c0.2-0.7,0.8-1.1,1.5-1.1c0.1,0,0.2,0,0.3,0v0.9c-0.1,0-0.2,0-0.3,0
			c-0.7,0-1.1,0.5-1.3,1.2c0,0.1,0,0.3,0,0.4v2.8h-0.9V233.8z"/>
		<path d="M332.3,234.8c0,1.9-1.3,2.8-2.6,2.8c-1.4,0-2.5-1-2.5-2.7c0-1.8,1.1-2.8,2.6-2.8C331.3,232.1,332.3,233.2,332.3,234.8z
			 M328.2,234.8c0,1.1,0.7,2,1.6,2c0.9,0,1.6-0.9,1.6-2c0-0.9-0.4-2-1.6-2S328.2,233.8,328.2,234.8z"/>
		<path d="M333.8,232.2l1,2.9c0.2,0.5,0.3,0.9,0.4,1.3h0c0.1-0.4,0.3-0.9,0.4-1.3l1-2.9h1l-2.1,5.2h-0.9l-2-5.2H333.8z"/>
		<path d="M339.7,230.7c0,0.3-0.2,0.6-0.6,0.6c-0.3,0-0.6-0.3-0.6-0.6c0-0.3,0.2-0.6,0.6-0.6C339.5,230.1,339.7,230.4,339.7,230.7z
			 M338.7,237.5v-5.2h1v5.2H338.7z"/>
		<path d="M345.8,229.8v6.3c0,0.5,0,1,0,1.4h-0.9l0-0.9h0c-0.3,0.6-0.9,1-1.8,1c-1.3,0-2.2-1.1-2.2-2.7c0-1.7,1.1-2.8,2.4-2.8
			c0.8,0,1.3,0.4,1.6,0.8h0v-3.1H345.8z M344.8,234.3c0-0.1,0-0.3,0-0.4c-0.1-0.6-0.7-1.1-1.4-1.1c-1,0-1.6,0.9-1.6,2
			c0,1.1,0.5,1.9,1.5,1.9c0.6,0,1.2-0.4,1.4-1.1c0-0.1,0-0.3,0-0.4V234.3z"/>
		<path d="M347.9,235c0,1.3,0.8,1.8,1.8,1.8c0.7,0,1.1-0.1,1.5-0.3l0.2,0.7c-0.3,0.2-0.9,0.3-1.7,0.3c-1.6,0-2.6-1.1-2.6-2.6
			s0.9-2.8,2.5-2.8c1.7,0,2.2,1.5,2.2,2.5c0,0.2,0,0.3,0,0.4H347.9z M350.7,234.3c0-0.6-0.2-1.5-1.3-1.5c-1,0-1.4,0.9-1.5,1.5H350.7
			z"/>
		<path d="M352.6,236.5c0.3,0.2,0.8,0.4,1.3,0.4c0.7,0,1-0.3,1-0.8c0-0.5-0.3-0.7-1-1c-0.9-0.3-1.4-0.9-1.4-1.5
			c0-0.8,0.7-1.5,1.8-1.5c0.5,0,1,0.2,1.3,0.3l-0.2,0.7c-0.2-0.1-0.6-0.3-1.1-0.3c-0.6,0-0.9,0.3-0.9,0.7c0,0.4,0.3,0.6,1,0.9
			c0.9,0.3,1.4,0.8,1.4,1.6c0,0.9-0.7,1.6-2,1.6c-0.6,0-1.1-0.1-1.5-0.4L352.6,236.5z"/>
		<path d="M312.2,249.5c0.3,0.2,0.8,0.4,1.3,0.4c0.7,0,1-0.3,1-0.8c0-0.5-0.3-0.7-1-1c-0.9-0.3-1.4-0.9-1.4-1.5
			c0-0.8,0.7-1.5,1.8-1.5c0.5,0,1,0.2,1.3,0.3l-0.2,0.7c-0.2-0.1-0.6-0.3-1.1-0.3c-0.6,0-0.9,0.3-0.9,0.7c0,0.4,0.3,0.6,1,0.9
			c0.9,0.3,1.4,0.8,1.4,1.6c0,0.9-0.7,1.6-2,1.6c-0.6,0-1.1-0.1-1.5-0.4L312.2,249.5z"/>
		<path d="M319.5,250.5l-0.1-0.7h0c-0.3,0.4-0.9,0.8-1.6,0.8c-1.1,0-1.6-0.7-1.6-1.5c0-1.3,1.1-2,3.2-2V247c0-0.4-0.1-1.2-1.2-1.2
			c-0.5,0-1,0.2-1.4,0.4l-0.2-0.6c0.4-0.3,1.1-0.5,1.7-0.5c1.6,0,2,1.1,2,2.1v2c0,0.5,0,0.9,0.1,1.3H319.5z M319.4,247.8
			c-1,0-2.2,0.2-2.2,1.2c0,0.6,0.4,0.9,0.9,0.9c0.7,0,1.1-0.4,1.3-0.9c0-0.1,0.1-0.2,0.1-0.3V247.8z"/>
		<path d="M321.9,250.5v-4.5h-0.7v-0.7h0.7V245c0-0.7,0.2-1.4,0.6-1.8c0.4-0.3,0.8-0.5,1.3-0.5c0.3,0,0.6,0.1,0.8,0.2l-0.1,0.7
			c-0.1-0.1-0.3-0.1-0.6-0.1c-0.8,0-1,0.7-1,1.5v0.3h1.3v0.7h-1.3v4.5H321.9z"/>
		<path d="M325.4,248c0,1.3,0.8,1.8,1.8,1.8c0.7,0,1.1-0.1,1.5-0.3l0.2,0.7c-0.3,0.2-0.9,0.3-1.7,0.3c-1.6,0-2.6-1.1-2.6-2.6
			s0.9-2.8,2.5-2.8c1.7,0,2.2,1.5,2.2,2.5c0,0.2,0,0.3,0,0.4H325.4z M328.2,247.3c0-0.6-0.2-1.5-1.3-1.5c-1,0-1.4,0.9-1.5,1.5H328.2
			z"/>
		<path d="M334,250.3c-0.2,0.1-0.8,0.3-1.5,0.3c-1.6,0-2.6-1.1-2.6-2.7c0-1.6,1.1-2.8,2.8-2.8c0.6,0,1.1,0.1,1.3,0.3l-0.2,0.7
			c-0.2-0.1-0.6-0.2-1.1-0.2c-1.2,0-1.9,0.9-1.9,2c0,1.2,0.8,2,1.8,2c0.5,0,0.9-0.1,1.2-0.3L334,250.3z"/>
		<path d="M339.8,247.8c0,1.9-1.3,2.8-2.6,2.8c-1.4,0-2.5-1-2.5-2.7c0-1.8,1.1-2.8,2.6-2.8C338.8,245.1,339.8,246.2,339.8,247.8z
			 M335.7,247.8c0,1.1,0.7,2,1.6,2c0.9,0,1.6-0.9,1.6-2c0-0.9-0.4-2-1.6-2C336.2,245.8,335.7,246.8,335.7,247.8z"/>
		<path d="M342.1,243.7c0,0.3-0.2,0.6-0.6,0.6c-0.3,0-0.6-0.3-0.6-0.6c0-0.3,0.2-0.6,0.6-0.6C341.9,243.1,342.1,243.4,342.1,243.7z
			 M341,250.5v-5.2h1v5.2H341z"/>
		<path d="M343.6,246.6c0-0.5,0-1,0-1.4h0.8l0.1,0.9h0c0.3-0.5,0.9-1,1.7-1c0.7,0,1.9,0.4,1.9,2.2v3.1h-1v-3c0-0.8-0.3-1.5-1.2-1.5
			c-0.6,0-1.1,0.4-1.3,1c0,0.1-0.1,0.3-0.1,0.4v3.2h-1V246.6z"/>
		<path d="M349.5,249.5c0.3,0.2,0.8,0.4,1.3,0.4c0.7,0,1-0.3,1-0.8c0-0.5-0.3-0.7-1-1c-0.9-0.3-1.4-0.9-1.4-1.5
			c0-0.8,0.7-1.5,1.8-1.5c0.5,0,1,0.2,1.3,0.3l-0.2,0.7c-0.2-0.1-0.6-0.3-1.1-0.3c-0.6,0-0.9,0.3-0.9,0.7c0,0.4,0.3,0.6,1,0.9
			c0.9,0.3,1.4,0.8,1.4,1.6c0,0.9-0.7,1.6-2,1.6c-0.6,0-1.1-0.1-1.5-0.4L349.5,249.5z"/>
		<path d="M312.6,263.5l-0.1-0.7h0c-0.3,0.4-0.9,0.8-1.6,0.8c-1.1,0-1.6-0.7-1.6-1.5c0-1.3,1.1-2,3.2-2V260c0-0.4-0.1-1.2-1.2-1.2
			c-0.5,0-1,0.2-1.4,0.4l-0.2-0.6c0.4-0.3,1.1-0.5,1.7-0.5c1.6,0,2,1.1,2,2.1v2c0,0.5,0,0.9,0.1,1.3H312.6z M312.4,260.8
			c-1,0-2.2,0.2-2.2,1.2c0,0.6,0.4,0.9,0.9,0.9c0.7,0,1.1-0.4,1.3-0.9c0-0.1,0.1-0.2,0.1-0.3V260.8z"/>
		<path d="M316,256.7v1.5h1.4v0.7H316v2.8c0,0.7,0.2,1,0.7,1c0.2,0,0.4,0,0.6-0.1l0,0.7c-0.2,0.1-0.5,0.1-0.8,0.1
			c-0.4,0-0.8-0.1-1-0.4c-0.3-0.3-0.4-0.7-0.4-1.4v-2.9h-0.8v-0.7h0.8V257L316,256.7z"/>
		<path d="M320.7,259.9c0-0.6,0-1.1,0-1.6h0.8l0,1h0c0.2-0.7,0.8-1.1,1.5-1.1c0.1,0,0.2,0,0.3,0v0.9c-0.1,0-0.2,0-0.3,0
			c-0.7,0-1.1,0.5-1.3,1.2c0,0.1,0,0.3,0,0.4v2.8h-0.9V259.9z"/>
		<path d="M327.1,263.5l-0.1-0.7h0c-0.3,0.4-0.9,0.8-1.6,0.8c-1.1,0-1.6-0.7-1.6-1.5c0-1.3,1.1-2,3.2-2V260c0-0.4-0.1-1.2-1.2-1.2
			c-0.5,0-1,0.2-1.4,0.4l-0.2-0.6c0.4-0.3,1.1-0.5,1.7-0.5c1.6,0,2,1.1,2,2.1v2c0,0.5,0,0.9,0.1,1.3H327.1z M327,260.8
			c-1,0-2.2,0.2-2.2,1.2c0,0.6,0.4,0.9,0.9,0.9c0.7,0,1.1-0.4,1.3-0.9c0-0.1,0.1-0.2,0.1-0.3V260.8z"/>
		<path d="M329.4,259.6c0-0.5,0-1,0-1.4h0.8l0.1,0.9h0c0.3-0.5,0.9-1,1.7-1c0.7,0,1.9,0.4,1.9,2.2v3.1h-1v-3c0-0.8-0.3-1.5-1.2-1.5
			c-0.6,0-1.1,0.4-1.3,1c0,0.1-0.1,0.3-0.1,0.4v3.2h-1V259.6z"/>
		<path d="M340,255.8v6.3c0,0.5,0,1,0,1.4h-0.9l0-0.9h0c-0.3,0.6-0.9,1-1.8,1c-1.3,0-2.2-1.1-2.2-2.7c0-1.7,1.1-2.8,2.4-2.8
			c0.8,0,1.3,0.4,1.6,0.8h0v-3.1H340z M339,260.4c0-0.1,0-0.3,0-0.4c-0.1-0.6-0.7-1.1-1.4-1.1c-1,0-1.6,0.9-1.6,2
			c0,1.1,0.5,1.9,1.5,1.9c0.6,0,1.2-0.4,1.4-1.1c0-0.1,0-0.3,0-0.4V260.4z"/>
		<path d="M346.3,260.8c0,1.9-1.3,2.8-2.6,2.8c-1.4,0-2.5-1-2.5-2.7c0-1.8,1.1-2.8,2.6-2.8C345.3,258.1,346.3,259.2,346.3,260.8z
			 M342.1,260.9c0,1.1,0.7,2,1.6,2c0.9,0,1.6-0.9,1.6-2c0-0.9-0.4-2-1.6-2S342.1,259.9,342.1,260.9z"/>
		<path d="M347.5,259.6c0-0.5,0-1,0-1.4h0.8l0,0.8h0c0.3-0.5,0.8-1,1.6-1c0.7,0,1.3,0.4,1.5,1.1h0c0.2-0.3,0.4-0.5,0.6-0.7
			c0.3-0.2,0.7-0.4,1.2-0.4c0.7,0,1.7,0.5,1.7,2.3v3.1h-0.9v-3c0-1-0.4-1.6-1.1-1.6c-0.5,0-1,0.4-1.1,0.9c0,0.1-0.1,0.3-0.1,0.5v3.2
			h-0.9v-3.1c0-0.8-0.4-1.4-1.1-1.4c-0.6,0-1,0.5-1.2,1c-0.1,0.1-0.1,0.3-0.1,0.5v3.2h-0.9V259.6z"/>
	</g>
	<g>
		<path d="M321.7,172c0.4,0.3,1.1,0.5,1.7,0.5c1,0,1.6-0.5,1.6-1.3c0-0.7-0.4-1.1-1.4-1.5c-1.2-0.4-2-1.1-2-2.1c0-1.2,1-2,2.4-2
			c0.8,0,1.3,0.2,1.7,0.4l-0.3,0.8c-0.2-0.1-0.7-0.4-1.4-0.4c-1,0-1.4,0.6-1.4,1.1c0,0.7,0.5,1,1.5,1.4c1.3,0.5,1.9,1.1,1.9,2.2
			c0,1.2-0.9,2.2-2.6,2.2c-0.7,0-1.5-0.2-1.9-0.5L321.7,172z"/>
		<path d="M328.6,170.8l-0.8,2.4h-1l2.5-7.5h1.2l2.6,7.5h-1l-0.8-2.4H328.6z M331,170l-0.7-2.2c-0.2-0.5-0.3-0.9-0.4-1.4h0
			c-0.1,0.4-0.2,0.9-0.4,1.4l-0.7,2.2H331z"/>
		<path d="M334.1,165.7h4v0.8h-3.1v2.5h2.8v0.8h-2.8v3.4h-1V165.7z"/>
		<path d="M343.4,169.6h-2.9v2.7h3.2v0.8h-4.2v-7.5h4v0.8h-3.1v2.4h2.9V169.6z"/>
		<path d="M350.2,172.9c-0.4,0.2-1.1,0.4-2,0.4c-2.1,0-3.7-1.3-3.7-3.8c0-2.3,1.6-3.9,3.9-3.9c0.9,0,1.5,0.2,1.8,0.3l-0.2,0.8
			c-0.4-0.2-0.9-0.3-1.5-0.3c-1.8,0-2.9,1.1-2.9,3.1c0,1.8,1.1,3,2.9,3c0.6,0,1.2-0.1,1.6-0.3L350.2,172.9z"/>
		<path d="M357.6,169.3c0,2.6-1.6,3.9-3.5,3.9c-2,0-3.4-1.5-3.4-3.8c0-2.4,1.5-3.9,3.5-3.9C356.3,165.5,357.6,167.1,357.6,169.3z
			 M351.8,169.4c0,1.6,0.9,3,2.4,3c1.5,0,2.4-1.4,2.4-3.1c0-1.5-0.8-3-2.4-3C352.6,166.3,351.8,167.8,351.8,169.4z"/>
		<path d="M359.8,165.7v7.5h-1v-7.5H359.8z"/>
		<path d="M361.5,173.1v-7.5h1.1l2.4,3.8c0.6,0.9,1,1.7,1.3,2.4l0,0c-0.1-1-0.1-1.9-0.1-3.1v-3.1h0.9v7.5h-1l-2.4-3.8
			c-0.5-0.8-1-1.7-1.4-2.5l0,0c0.1,0.9,0.1,1.8,0.1,3.1v3.2H361.5z"/>
		<path d="M368.7,172c0.4,0.3,1.1,0.5,1.7,0.5c1,0,1.6-0.5,1.6-1.3c0-0.7-0.4-1.1-1.4-1.5c-1.2-0.4-2-1.1-2-2.1c0-1.2,1-2,2.4-2
			c0.8,0,1.3,0.2,1.7,0.4l-0.3,0.8c-0.2-0.1-0.7-0.4-1.4-0.4c-1,0-1.4,0.6-1.4,1.1c0,0.7,0.5,1,1.5,1.4c1.3,0.5,1.9,1.1,1.9,2.2
			c0,1.2-0.9,2.2-2.6,2.2c-0.7,0-1.5-0.2-1.9-0.5L368.7,172z"/>
	</g>
</g>
</svg>
