<?xml version="1.0" encoding="utf-8"?>
<!-- Generator: Adobe Illustrator 19.1.0, SVG Export Plug-In . SVG Version: 6.00 Build 0)  -->
<svg version="1.1" id="Layer_1" xmlns="http://www.w3.org/2000/svg" xmlns:xlink="http://www.w3.org/1999/xlink" x="0px" y="0px"
	 viewBox="0 0 398 333" enable-background="new 0 0 398 333" xml:space="preserve">
<g>
	<g>
		<path fill="#919191" d="M147.4,315.9H11.4v-76.4c0-4.1,3.3-7.4,7.4-7.4H140c4.1,0,7.4,3.3,7.4,7.4V315.9z"/>
		<path d="M146,316.2H12.8v-75.3c0-4.1,3.3-7.4,7.4-7.4h118.5c4.1,0,7.4,3.3,7.4,7.4V316.2z"/>
		<rect x="18.2" y="239" fill="#F7944B" width="122.3" height="72"/>
		<g>
			<defs>
				<rect id="SVGID_1_" x="18.2" y="239" width="122.3" height="72"/>
			</defs>
			<clipPath id="SVGID_2_">
				<use xlink:href="#SVGID_1_"  overflow="visible"/>
			</clipPath>
			<g clip-path="url(#SVGID_2_)">
				<path fill="#513432" d="M103.7,296.2c-6.3-3.3-5.7-8.3-4.7-11.2c1-3.1,2.1-6.2,2.1-9.7v-9.1c0-12.4-9.7-22.4-21.7-22.4
					c-12,0-21.7,10.1-21.7,22.4v9.1c0,3.5,1.1,6.6,2.1,9.7c0.9,2.9,1.5,7.9-4.7,11.2c-1,0.5-1.6,1.7-1,2.6
					c2.4,3.9,9.5,12.7,25.3,12.7c15.8,0,22.9-8.8,25.3-12.7C105.3,297.9,104.7,296.8,103.7,296.2z"/>
				<g>
					<path fill="#5593D7" d="M96.9,318c0-11.6-7.8-21-17.5-21c-9.7,0-17.5,9.4-17.5,21l0,0c0,5.8,7.8,10.5,17.5,10.5
						S96.9,323.8,96.9,318L96.9,318z"/>
					<path fill="#F7944B" d="M86.2,298.7c-2.1-1.1-4.4-1.6-6.8-1.6s-4.7,0.6-6.8,1.6c-1,2.9,0,12.4,6.8,12.4l0,0
						C86.2,311,87.2,301.6,86.2,298.7z"/>
					<path opacity="0.1" d="M96.9,318L96.9,318L96.9,318c0-11.6-7.8-21-17.5-21v21l0,0v10.5C89.1,328.5,96.9,323.8,96.9,318
						L96.9,318L96.9,318z"/>
				</g>
				<g>
					<path fill="#F7C1A1" d="M86.2,298.7c-2.1-1.1-4.4-1.6-6.8-1.6c-2.4,0-4.7,0.6-6.8,1.6c0.7,3.1,3.5,5.4,6.8,5.4
						C82.7,304,85.5,301.7,86.2,298.7z"/>
					<rect x="75.9" y="285.9" fill="#F7C1A1" width="7" height="13.6"/>
					<path fill="#F5B090" d="M82.9,297.4v-11.5h-3.5V304c3.3,0,6.1-2.3,6.8-5.4C85.1,298.1,84,297.7,82.9,297.4z"/>
				</g>
				<ellipse fill="#F7C1A1" cx="96.9" cy="271.5" rx="2.8" ry="5.3"/>
				<path fill="#F7C1A1" d="M79.4,248c-9.7,0-17.5,8.2-17.5,18.2v9.1c0,10.1,7.8,18.2,17.5,18.2c9.7,0,17.5-8.2,17.5-18.2v-9.1
					C96.9,256.2,89.1,248,79.4,248z"/>
				<path fill="#F5B090" d="M79.4,248c7.7,0,14,8.2,14,18.2v9.1c0,10.1-6.3,18.2-14,18.2c9.7,0,17.5-8.2,17.5-18.2v-9.1
					C96.9,256.2,89.1,248,79.4,248z"/>
				<path fill="#513432" d="M79.4,243.8c-12,0-21.7,10.1-21.7,22.4v9.1c0,3.5,1.1,6.6,2.1,9.7c0.4,1.3,0.8,3,0.5,4.9h5.1
					c-1.4-3.9-0.9-16.7,7.2-20.5c8.1-3.8,13.6-12.8,13.6-12.8c5,2.3,10.7,9.6,10.7,9.6h4.2C101.1,253.9,91.4,243.8,79.4,243.8z"/>
			</g>
		</g>
		<polygon fill="#919191" points="150.6,323.2 8.2,323.2 1.9,319.6 1.9,316.4 156.9,316.4 156.9,319.6 		"/>
		<polygon fill="#262626" points="150.6,323.2 8.2,323.2 1.9,320.6 1.9,319.1 156.9,319.1 156.9,320.6 		"/>
	</g>
	<g>
		<g>
			<path fill="none" stroke="#F7944B" stroke-width="17" stroke-miterlimit="10" d="M77.1,213.1c0-40.1,25.8-74.2,61.7-86.7"/>
			<g>
				<polygon fill="#F7944B" points="136.9,149.1 168.9,121.3 128.8,107.5 				"/>
			</g>
		</g>
	</g>
	<g>
		<path d="M52.6,198.7l-0.1,3l-12.2,6.9l0,0.1l0.7,0c1.3,0,2.4,0,3.5,0l7.8,0.3l-0.1,2.2l-15-0.6l0.1-3l12.2-6.9l0-0.1
			c-0.2,0-0.7,0-1.7,0c-1,0-1.8,0-2.3,0l-7.8-0.3l0.1-2.2L52.6,198.7z"/>
		<path d="M54.1,190.6c-0.3,1.7-1,3-2.2,3.8c-1.2,0.8-2.7,1.1-4.4,0.8c-1.8-0.3-3.2-1-4.1-2.1c-0.9-1.1-1.2-2.4-0.9-4
			c0.3-1.5,0.9-2.6,1.9-3.3c1-0.7,2.3-0.9,3.9-0.7l1.3,0.2l-1.3,7.4c1.1,0.2,2,0,2.7-0.5c0.7-0.5,1.1-1.2,1.3-2.2
			c0.1-0.7,0.2-1.3,0.1-1.9c0-0.6-0.1-1.2-0.3-1.9l1.9,0.3c0.2,0.6,0.3,1.2,0.3,1.9S54.3,189.8,54.1,190.6z M44.3,189.3
			c-0.1,0.8,0,1.4,0.4,1.9c0.4,0.5,1,0.9,2,1.2l0.9-5.1c-0.9-0.1-1.7,0-2.2,0.3C44.7,188,44.4,188.6,44.3,189.3z"/>
		<path d="M54.7,179.4c0.2-0.6,0.2-1.2,0.2-1.8l1.8,0.5c0,0.3,0,0.6,0,1.1c0,0.4-0.1,0.9-0.2,1.3c-0.6,2.2-2,3-4.4,2.4l-5.9-1.6
			l-0.4,1.5l-1-0.3l-0.4-1.8l-2.1-1.4l0.4-1.4l2.4,0.7l0.8-3.1l1.8,0.5l-0.8,3.1l5.9,1.6c0.6,0.2,1,0.1,1.4-0.1
			C54.4,180.1,54.6,179.8,54.7,179.4z"/>
		<path d="M60.7,167.6l-5.5-0.6c-0.6,0-1.9-0.2-4-0.5l0,0.1c1.6,1,2.7,1.8,3.3,2.3l4.3,3.3l-1,2.5l-11.7-1.2l0.9-2.3l5.7,0.7
			c1.4,0.2,2.6,0.4,3.6,0.7l0-0.1c-0.4-0.2-0.9-0.6-1.5-0.9c-0.5-0.4-1-0.7-1.2-0.9l-4.9-3.8l1-2.5l6.2,0.7c0.3,0,0.9,0.1,1.6,0.2
			c0.7,0.1,1.2,0.2,1.6,0.3l0-0.1c-0.7-0.4-1.7-1.1-3-2l-4.7-3.4l0.9-2.2l9.4,7.2L60.7,167.6z"/>
		<path d="M63.7,149.4c1.6,0.9,2.6,2,3.1,3.4c0.4,1.3,0.2,2.7-0.6,4.2c-0.5,0.9-1.2,1.6-2,2.1c-0.8,0.5-1.7,0.7-2.7,0.6
			c-1-0.1-2-0.4-3-1c-1.6-0.9-2.6-2-3.1-3.3s-0.2-2.7,0.6-4.2c0.8-1.4,1.9-2.3,3.3-2.6C60.7,148.2,62.2,148.5,63.7,149.4z
			 M59.7,156.6c2.3,1.3,3.9,1.1,4.8-0.6c0.9-1.7,0.3-3.1-2-4.4c-2.3-1.3-3.9-1.1-4.8,0.6c-0.5,0.9-0.6,1.7-0.2,2.4
			S58.6,155.9,59.7,156.6z"/>
		<path d="M64,138.8c0.3-0.4,0.5-0.7,0.8-0.9l1.7,1.5c-0.3,0.2-0.5,0.5-0.7,0.8c-0.6,0.8-0.7,1.6-0.6,2.5s0.7,1.6,1.5,2.1l4.8,3.4
			l-1.4,2l-9.3-6.5l1.1-1.5l1.8,0.9l0.1-0.1c-0.3-0.7-0.5-1.4-0.5-2.1C63.3,140.1,63.6,139.4,64,138.8z"/>
		<path d="M72.1,137.4l-0.4-2.1l-0.5-5l1.8-2.1l0.7,6.6l8.1,0.5l-1.8,2.2l-6.1-0.5l0,1.7l3,2.5l-1.6,1.8L63,132.7l1.6-1.8l5.9,5.1
			L72.1,137.4L72.1,137.4z"/>
		<path d="M91.3,116.9c1.6,1.9,2.2,3.8,2,5.7c-0.2,1.9-1.3,3.6-3.3,5.3l-3.2,2.7L77.2,119l3.6-3c1.8-1.5,3.7-2.2,5.5-2.1
			C88.1,114.1,89.8,115.1,91.3,116.9z M89.3,118.6c-2.3-2.8-4.7-3.1-7.3-0.9l-1.6,1.4l6.9,8.4l1.3-1.1
			C91.5,124,91.7,121.4,89.3,118.6z"/>
		<path d="M104.3,117.6l-1.3-1.1l-0.1,0c-0.1,0.9-0.3,1.6-0.6,2.1c-0.3,0.5-0.9,1-1.6,1.5c-0.9,0.6-1.8,0.8-2.7,0.6
			s-1.6-0.7-2.2-1.7c-0.6-1-0.7-2-0.3-2.9c0.4-1,1.4-2,2.8-2.9l1.6-1.1l-0.3-0.5c-0.4-0.6-0.8-1-1.3-1.1c-0.5-0.1-1,0-1.6,0.4
			c-0.5,0.3-0.9,0.7-1.3,1.1c-0.4,0.4-0.7,0.9-1,1.3l-1.6-1c0.3-0.6,0.8-1.2,1.3-1.7c0.5-0.5,1.1-1,1.6-1.3c1.2-0.8,2.3-1.1,3.3-1
			c1,0.1,1.8,0.8,2.5,1.9l4.1,6.5L104.3,117.6z M100.3,118.1c0.7-0.5,1.2-1.1,1.4-1.7c0.2-0.7,0-1.4-0.4-2.2l-0.5-0.8l-1.2,0.8
			c-0.9,0.6-1.5,1.2-1.8,1.8c-0.3,0.6-0.2,1.1,0.2,1.7c0.3,0.4,0.6,0.7,1,0.8C99.4,118.6,99.8,118.4,100.3,118.1z"/>
		<path d="M111.4,111.8c0.5-0.3,1-0.6,1.4-1l0.8,1.6c-0.2,0.2-0.4,0.5-0.8,0.7s-0.7,0.5-1.1,0.7c-2,1-3.6,0.5-4.7-1.7l-2.8-5.4
			l-1.4,0.7l-0.5-0.9l1.1-1.5l-0.4-2.5l1.3-0.7l1.1,2.2l2.9-1.5l0.8,1.6l-2.9,1.5l2.8,5.4c0.3,0.5,0.6,0.8,1,0.9
			C110.5,112,110.9,112,111.4,111.8z"/>
		<path d="M122.1,109l-1-1.3l-0.1,0c-0.3,0.8-0.6,1.5-1,1.9c-0.4,0.4-1,0.8-1.8,1.1c-1,0.4-2,0.5-2.8,0.1c-0.8-0.3-1.4-1-1.8-2
			c-0.4-1.1-0.4-2.1,0.2-2.9c0.6-0.9,1.7-1.7,3.3-2.4l1.8-0.8l-0.2-0.6c-0.3-0.7-0.6-1.1-1.1-1.3c-0.4-0.2-1-0.2-1.7,0.1
			c-0.5,0.2-1,0.5-1.5,0.9c-0.4,0.4-0.8,0.7-1.2,1.1l-1.4-1.3c0.5-0.5,1-1,1.6-1.4c0.6-0.4,1.2-0.8,1.8-1c1.3-0.5,2.5-0.6,3.4-0.3
			c0.9,0.3,1.6,1.1,2.1,2.3l2.8,7.1L122.1,109z M118.1,108.9c0.8-0.3,1.4-0.8,1.7-1.5c0.3-0.7,0.3-1.4,0-2.2l-0.4-0.9l-1.3,0.6
			c-1,0.5-1.7,0.9-2.1,1.4c-0.4,0.5-0.4,1.1-0.1,1.7c0.2,0.5,0.5,0.8,0.9,0.9C117.1,109.1,117.6,109.1,118.1,108.9z"/>
	</g>
	<g>
		<path d="M237,318.3c0.5,1,0.5,1.9,0,2.8c-0.5,0.9-1.4,1.6-2.7,2.3c-1.4,0.7-2.6,1-3.6,1l-0.9-1.9c1.5,0,2.7-0.3,3.8-0.8
			c1.3-0.6,1.8-1.4,1.4-2.2c-0.1-0.3-0.3-0.4-0.5-0.5c-0.2-0.1-0.6-0.2-1-0.2c-0.4,0-1,0-1.7,0.1c-1.4,0.1-2.4,0-3-0.2
			s-1.1-0.7-1.5-1.5c-0.4-0.9-0.4-1.7,0.1-2.5c0.5-0.8,1.3-1.5,2.5-2.1c1.2-0.6,2.5-0.9,3.8-0.9l0.1,2c-1.3,0.1-2.4,0.3-3.1,0.7
			c-1.1,0.6-1.6,1.2-1.2,1.8c0.2,0.3,0.4,0.5,0.8,0.6c0.4,0.1,1.2,0.1,2.4,0c1-0.1,1.8-0.1,2.3,0c0.5,0.1,0.9,0.3,1.3,0.5
			C236.5,317.4,236.8,317.8,237,318.3z"/>
		<path d="M247.7,315.6l-1.3-1.1l-0.1,0c-0.1,0.9-0.3,1.6-0.6,2.1c-0.3,0.5-0.9,1-1.6,1.5c-0.9,0.6-1.8,0.8-2.7,0.6
			c-0.9-0.2-1.6-0.7-2.2-1.7c-0.6-1-0.7-2-0.3-2.9c0.4-1,1.4-1.9,2.8-2.9l1.6-1.1l-0.3-0.5c-0.4-0.6-0.8-1-1.3-1.1
			c-0.5-0.1-1,0-1.6,0.4c-0.5,0.3-0.9,0.7-1.3,1.1c-0.4,0.4-0.7,0.9-1,1.3l-1.6-1c0.3-0.6,0.8-1.2,1.3-1.7c0.5-0.5,1.1-1,1.6-1.3
			c1.2-0.8,2.3-1.1,3.3-0.9s1.8,0.8,2.5,1.9l4.1,6.5L247.7,315.6z M243.7,316.2c0.7-0.5,1.2-1,1.4-1.7c0.2-0.7,0-1.4-0.4-2.2
			l-0.5-0.8l-1.2,0.8c-0.9,0.6-1.5,1.2-1.8,1.8c-0.3,0.6-0.2,1.1,0.2,1.7c0.3,0.4,0.6,0.7,1,0.8
			C242.8,316.6,243.2,316.5,243.7,316.2z"/>
		<path d="M251.1,301.1l-2.2,1.7l5.9,7.5l-1.9,1.5l-5.9-7.5l-1.5,1.2l-0.7-0.9l1-1.7l-0.5-0.6c-0.8-1.1-1.2-2-1.1-2.9
			s0.7-1.7,1.7-2.5c0.7-0.5,1.4-0.9,2.2-1.2l0.6,1.8c-0.6,0.2-1.1,0.5-1.5,0.8c-0.4,0.3-0.6,0.7-0.6,1.1c0,0.4,0.2,0.9,0.6,1.4
			l0.5,0.6l2.2-1.7L251.1,301.1z"/>
		<path d="M262.9,303.5c-1.3,1.2-2.6,1.8-4.1,1.8s-2.8-0.7-4-2c-1.3-1.3-2-2.7-2-4.1c-0.1-1.4,0.5-2.7,1.6-3.8
			c1.1-1,2.2-1.5,3.5-1.5c1.3,0.1,2.4,0.7,3.5,1.8l0.9,0.9l-5.4,5.2c0.8,0.8,1.6,1.2,2.4,1.2c0.8,0,1.6-0.3,2.3-1
			c0.5-0.5,0.9-0.9,1.2-1.4c0.3-0.5,0.6-1.1,0.9-1.7l1.4,1.4c-0.2,0.6-0.5,1.2-0.9,1.7C263.9,302.4,263.5,303,262.9,303.5z
			 M255.7,296.7c-0.6,0.5-0.8,1.1-0.8,1.8c0,0.7,0.3,1.4,0.9,2.1l3.7-3.6c-0.7-0.7-1.3-1-2-1.1C256.9,295.9,256.3,296.1,255.7,296.7
			z"/>
		<path d="M271.5,294.1c-1.1,1.3-2.3,2-3.6,2.1c-1.3,0.1-2.7-0.5-4.2-1.7c-1.5-1.2-2.3-2.5-2.5-3.9c-0.2-1.4,0.3-2.7,1.4-4.1
			c0.8-0.9,1.6-1.6,2.6-2.1l1,1.8c-1,0.5-1.6,1.1-2.1,1.6c-1.2,1.5-0.9,3.1,1.1,4.8c1,0.8,1.9,1.2,2.7,1.3s1.5-0.3,2.1-1
			c0.7-0.8,1.1-1.8,1.3-2.9l1.6,1.3c-0.1,0.5-0.2,1-0.5,1.4C272.3,293,272,293.5,271.5,294.1z"/>
		<path d="M276.3,276.9c1.6,1,2.5,2.2,2.9,3.5c0.4,1.4,0.1,2.8-0.8,4.2c-0.6,0.9-1.3,1.5-2.1,2c-0.8,0.4-1.8,0.6-2.7,0.5
			c-1-0.1-2-0.5-3-1.1c-1.5-1-2.5-2.2-2.9-3.5s-0.1-2.7,0.9-4.2c0.9-1.4,2-2.2,3.4-2.4C273.3,275.6,274.8,276,276.3,276.9z
			 M271.8,283.9c2.2,1.4,3.8,1.3,4.9-0.3c1-1.6,0.5-3.1-1.7-4.5c-2.2-1.4-3.8-1.3-4.8,0.3c-0.5,0.9-0.7,1.6-0.3,2.4
			C270.1,282.5,270.7,283.2,271.8,283.9z"/>
		<path d="M269.9,270.3c-0.4-0.2-0.6-0.5-0.7-0.8c-0.1-0.3,0-0.7,0.2-1.1c0.2-0.4,0.4-0.6,0.8-0.7c0.3-0.1,0.7-0.1,1,0.1
			c0.4,0.2,0.6,0.4,0.7,0.8c0.1,0.3,0.1,0.7-0.1,1c-0.2,0.4-0.5,0.6-0.8,0.7C270.6,270.5,270.3,270.5,269.9,270.3z M283.8,274.6
			l-1.1,2.1l-10.1-5.2l1.1-2.1L283.8,274.6z"/>
		<path d="M289.5,261.5l-0.9,2.2l-6.5-2.6c-0.8-0.3-1.5-0.4-2-0.2c-0.5,0.2-0.9,0.6-1.2,1.3c-0.4,0.9-0.4,1.8,0,2.4
			c0.4,0.7,1.2,1.3,2.6,1.8l5.3,2.1l-0.9,2.2l-10.5-4.2l0.7-1.8l1.5,0.2l0-0.1c-0.4-0.5-0.6-1.1-0.6-1.8c0-0.7,0.1-1.4,0.4-2.1
			c1-2.5,2.8-3.3,5.4-2.3L289.5,261.5z"/>
	</g>
	<g>
		<g>
			<path fill="none" stroke="#5592D7" stroke-width="17" stroke-miterlimit="10" d="M260.9,212.8c0,40.1-25.8,74.2-61.7,86.7"/>
			<g>
				<polygon fill="#5592D7" points="201.1,276.8 169.1,304.6 209.2,318.4 				"/>
			</g>
		</g>
	</g>
	<radialGradient id="XMLID_2_" cx="289.188" cy="108.8131" r="106.8597" gradientUnits="userSpaceOnUse">
		<stop  offset="0" style="stop-color:#FFFFFF"/>
		<stop  offset="0" style="stop-color:#FFFFFF;stop-opacity:0.9999"/>
		<stop  offset="0" style="stop-color:#FFFFFF;stop-opacity:0.9999"/>
		<stop  offset="0.1947" style="stop-color:#FCFDFE;stop-opacity:0.9999"/>
		<stop  offset="0.349" style="stop-color:#F2F7FC;stop-opacity:1"/>
		<stop  offset="0.4896" style="stop-color:#E1ECF8;stop-opacity:1"/>
		<stop  offset="0.622" style="stop-color:#CADDF2;stop-opacity:1"/>
		<stop  offset="0.7486" style="stop-color:#ABC9EB;stop-opacity:1"/>
		<stop  offset="0.8709" style="stop-color:#86B1E2;stop-opacity:1"/>
		<stop  offset="0.9877" style="stop-color:#5A95D8;stop-opacity:1"/>
		<stop  offset="1" style="stop-color:#5592D7"/>
	</radialGradient>
	<path id="XMLID_1081_" opacity="0.5" fill="url(#XMLID_2_)" d="M364.1,16.7c-1.5,1.5-2.1,3.5-1.9,5.5l-26.4,5.5
		c-0.3-1-0.8-2-1.6-2.7c-2.6-2.6-6.9-2.6-9.5,0c-0.3,0.3-0.5,0.6-0.7,0.9l-25.3-14.4c1.1-2.5,0.6-5.5-1.4-7.5
		c-2.6-2.6-6.9-2.6-9.5,0c-1.2,1.2-1.8,2.8-1.9,4.3l-35.6,1.2c-0.2-1.4-0.8-2.8-1.9-3.9c-2.6-2.6-6.9-2.6-9.5,0
		c-2.6,2.6-2.6,6.9,0,9.5c0.9,0.9,1.9,1.4,3,1.7l-7,42.5c-1.6,0.1-3.2,0.7-4.4,1.9c-1.4,1.4-2,3.2-1.9,5.1l-33,9.2
		c-0.3-0.8-0.8-1.6-1.5-2.3c-2.6-2.6-6.9-2.6-9.5,0c-2.6,2.6-2.6,6.9,0,9.5c1.2,1.2,2.9,1.9,4.5,1.9l1.5,24.8
		c-1.4,0.2-2.7,0.8-3.7,1.9c-2.6,2.6-2.6,6.9,0,9.5c2.6,2.6,6.9,2.6,9.5,0c0.1-0.1,0.1-0.1,0.2-0.2l16.8,12.6c-1.6,2.6-1.2,6,1,8.2
		c0.6,0.6,1.2,1,1.9,1.3l-9,25.9c-2.2-0.5-4.6,0.1-6.3,1.8c-2.6,2.6-2.6,6.9,0,9.5c2.6,2.6,6.9,2.6,9.5,0c1.1-1.1,1.7-2.4,1.9-3.8
		l37.9,1.6c0.1,1.6,0.7,3.2,1.9,4.4c2.5,2.5,6.5,2.6,9.1,0.4l23.2,22.4c-2.1,2.6-1.9,6.5,0.5,8.9c2.6,2.6,6.9,2.6,9.5,0
		c2.1-2.1,2.5-5.1,1.3-7.6l35.2-20.8c0.2,0.3,0.4,0.5,0.6,0.8c2.6,2.6,6.9,2.6,9.5,0c2.6-2.6,2.6-6.7,0.2-9.3l44.1-49.8
		c2.6,1.9,6.3,1.7,8.7-0.7c2.6-2.6,2.6-6.9,0-9.5c-1.5-1.5-3.6-2.1-5.6-1.9l-7.8-33.7c0.9-0.3,1.8-0.8,2.6-1.6
		c2.6-2.6,2.6-6.9,0-9.5c-1.4-1.4-3.4-2.1-5.2-1.9l-7.2-40.2c1.1-0.3,2.1-0.8,2.9-1.7c2.6-2.6,2.6-6.9,0-9.5
		C371,14,366.7,14,364.1,16.7z M344.1,114.6c-1.3-0.9-3-1.3-4.5-1.1l-7.2-35c1-0.3,2-0.8,2.8-1.6c1-1,1.7-2.4,1.9-3.7l34.7,1.9
		c0.1,1.6,0.7,3.2,1.9,4.4L344.1,114.6z M384.3,126l-44.1,49.8c-0.9-0.6-1.8-1-2.8-1.2l3.1-47.8c1.6-0.1,3.3-0.7,4.5-2
		c1.1-1.1,1.7-2.5,1.9-3.9l35.6,1C382.7,123.5,383.3,124.9,384.3,126z M285.2,203.9l-23.2-22.4c1.4-1.8,1.8-4,1.2-6.1l32.5-13.4
		c0.3,0.6,0.7,1.1,1.1,1.6c0.7,0.7,1.6,1.3,2.6,1.6l-8.9,37.1C288.6,202.1,286.7,202.6,285.2,203.9z M196.3,111.6l34.9-40
		c0.5,0.3,0.9,0.6,1.4,0.8l-6.3,22.6c-2.1-0.4-4.3,0.3-5.9,1.9c-1.8,1.8-2.4,4.5-1.6,6.8l-21.5,9.4C197,112.4,196.7,112,196.3,111.6
		z M288.1,13.8c0.9,0.7,1.9,1.2,2.9,1.5l-3.4,32.6c-1.7,0-3.5,0.7-4.8,2c-1.5,1.5-2.1,3.6-1.9,5.5l-39.6,8.6c-0.3-1-0.8-1.9-1.6-2.7
		c-0.1-0.1-0.1-0.1-0.2-0.1L288.1,13.8z M328.9,36.3l0.7,29.2c-1.4,0.2-2.8,0.8-3.9,1.9c-0.5,0.5-0.8,1-1.2,1.6l-30.3-12.5
		c0.5-1.6,0.4-3.3-0.4-4.8L324,33.6c0.2,0.3,0.4,0.5,0.6,0.8C325.8,35.6,327.3,36.2,328.9,36.3z M305.8,153.7
		c-1-0.9-2.3-1.3-3.5-1.5l0.1-30.3c1.5-0.1,3-0.8,4.1-1.9c0.9-0.9,1.5-2.1,1.8-3.2l25.2,3.2c0,1.6,0.5,3.2,1.6,4.5L305.8,153.7z
		 M258.1,170.7l3.2-30.5c1.7,0,3.5-0.6,4.8-2c0.2-0.2,0.4-0.4,0.5-0.6l28.9,18.2c-0.8,1.5-0.9,3.3-0.4,4.9l-32.5,13.4
		c-0.3-0.6-0.7-1.1-1.1-1.6C260.6,171.6,259.4,171,258.1,170.7z M224.5,133.1l38.9-31.4c0,0,0,0,0,0c0.8,0.8,1.8,1.4,2.9,1.7
		l-4.4,23.5c-1.9-0.2-3.9,0.5-5.3,1.9c-1.3,1.3-1.9,2.9-2,4.6l-29.2,2.2C225.3,134.7,225,133.8,224.5,133.1z M227.6,95.2l6.3-22.6
		c1.9,0.3,4-0.2,5.6-1.6l23.4,21.8c-0.9,1.2-1.4,2.6-1.4,4.1l-29.8,3.2c-0.3-1.2-0.9-2.4-1.8-3.4C229.2,96,228.4,95.5,227.6,95.2z
		 M300.9,152.2c-1.5,0.1-3,0.8-4.1,1.9c-0.2,0.2-0.4,0.4-0.5,0.6l-28.9-18.2c0.8-1.6,0.9-3.4,0.4-5.1l28.2-12.8c0.3,0.5,0.6,1,1,1.4
		c1.1,1.1,2.6,1.8,4.1,1.9L300.9,152.2z M273,101.7c0.3-0.3,0.6-0.6,0.8-1l21.8,11.9c-0.6,1.5-0.7,3.2-0.2,4.8l-28.2,12.8
		c-0.3-0.5-0.6-1-1-1.4c-0.8-0.8-1.8-1.4-2.9-1.7l4.4-23.5C269.6,103.7,271.5,103.1,273,101.7z M297,110.4c-0.3,0.3-0.6,0.6-0.8,1
		l-21.8-11.9c0.6-1.4,0.7-3,0.2-4.5l49.7-19.8c0.3,0.6,0.7,1.2,1.2,1.7c0.2,0.2,0.3,0.3,0.5,0.4l-21.2,32
		C302.4,107.9,299.1,108.3,297,110.4z M323.9,74l-49.7,19.8c-0.3-0.6-0.7-1.2-1.2-1.7c-0.4-0.4-0.9-0.7-1.4-1l13.9-30.2
		c2.4,0.8,5.1,0.3,6.9-1.6c0.5-0.5,0.8-1,1.2-1.6l30.3,12.5C323.6,71.4,323.6,72.7,323.9,74z M284.3,60.4l-13.9,30.2
		c-2.2-0.8-4.7-0.3-6.6,1.3l-23.4-21.8c1.1-1.4,1.5-3.1,1.3-4.8l39.6-8.6c0.3,1,0.8,1.9,1.6,2.7C283.3,59.8,283.8,60.1,284.3,60.4z
		 M335.5,115.4c-0.9,0.9-1.5,2.1-1.8,3.2l-25.2-3.2c0-1.8-0.6-3.6-2-5c-0.2-0.2-0.3-0.3-0.5-0.4l21.2-32c1.2,0.6,2.5,0.9,3.8,0.7
		l7.2,35C337.3,114.1,336.3,114.6,335.5,115.4z M229.9,106.2c1.3-1.3,2-3.1,2-4.8l29.8-3.2c0.2,0.8,0.5,1.6,0.9,2.3L223.6,132
		c0,0,0,0,0,0c-0.8-0.8-1.9-1.4-2.9-1.7l3.9-22.1C226.5,108.3,228.5,107.7,229.9,106.2z M223.9,141.2c1.1-1.2,1.6-2.7,1.7-4.3
		l29.2-2.2c0.2,1.3,0.8,2.6,1.9,3.6c1,1,2.2,1.6,3.4,1.8l-3.2,30.5c-1.4,0-2.9,0.5-4.1,1.4L223.9,141.2z M306.8,154.6l29.3-29.2
		c0.9,0.7,2,1.2,3.1,1.4l-3.1,47.8c-1.6,0.1-3.3,0.7-4.5,2c-0.2,0.2-0.3,0.4-0.5,0.6l-23.5-15.2
		C308.7,159.6,308.5,156.7,306.8,154.6z M371.8,73.7l-34.7-1.9c-0.1-1.6-0.7-3.2-1.9-4.5c-1.2-1.2-2.7-1.8-4.2-1.9l-0.7-29.2
		c1.3-0.2,2.6-0.7,3.6-1.6L373,70.7C372.4,71.6,371.9,72.7,371.8,73.7z M323.3,26.9c-0.8,1.8-0.8,3.8,0.1,5.6L293,50.6
		c-0.2-0.3-0.4-0.5-0.6-0.8c-1-1-2.2-1.6-3.4-1.8l3.4-32.6c1.7,0,3.5-0.7,4.8-2c0.3-0.3,0.5-0.6,0.7-0.9L323.3,26.9z M248.2,15.1
		c1.2-1.2,1.8-2.8,1.9-4.3l35.6-1.2c0.2,1.2,0.6,2.3,1.4,3.3l-48.6,47.5c-0.8-0.5-1.6-0.8-2.5-0.9l7-42.3
		C244.9,17.2,246.8,16.5,248.2,15.1z M228.5,67.7c0.3,1.1,0.8,2.1,1.6,3l-34.9,40c-1.1-0.8-2.3-1.2-3.6-1.2l-1.5-24.8
		c1.4-0.2,2.7-0.8,3.7-1.9c1.6-1.6,2.2-3.8,1.9-5.9L228.5,67.7z M197.2,119.6c1-1.7,1.2-3.7,0.6-5.5l21.5-9.4c0.3,0.5,0.6,1,1.1,1.5
		c0.8,0.8,1.9,1.4,2.9,1.7l-3.9,22.1c-1.9-0.1-3.8,0.5-5.3,1.9c-0.1,0.1-0.1,0.1-0.2,0.2L197.2,119.6z M217.3,143.3
		c1.9,0.5,4,0,5.6-1.2l28.8,30.8c-0.9,1-1.4,2.2-1.6,3.5l-37.9-1.6c-0.1-1.6-0.7-3.2-1.9-4.4c-0.6-0.6-1.2-1-1.9-1.3L217.3,143.3z
		 M295,205c-0.2-0.3-0.4-0.5-0.6-0.8c-0.7-0.7-1.6-1.3-2.6-1.6l8.9-37.1c2,0.3,4.1-0.3,5.7-1.9c0.2-0.2,0.3-0.4,0.5-0.6l23.5,15.2
		c-0.9,1.8-1,4-0.1,5.9L295,205z M387.1,115.1c-0.9,0.3-1.8,0.8-2.6,1.6c-1.1,1.1-1.7,2.5-1.9,3.9l-35.6-1c-0.1-1.5-0.7-3-1.8-4.2
		l29.5-35.1c1.4,0.9,3,1.3,4.6,1.1L387.1,115.1z M376.6,68.3c-1,0.3-1.9,0.7-2.6,1.4l-39.2-36.1c1-1.4,1.5-3.1,1.3-4.7l26.4-5.5
		c0.3,1,0.8,2,1.6,2.7c1.4,1.4,3.4,2.1,5.3,1.9L376.6,68.3z"/>
	<g>
		<path d="M275.6,89.6c0,2-0.7,3.6-2.2,4.8s-3.5,1.7-6.1,1.7c-2.6,0-4.7-0.4-6.3-1.2v-3.5c1,0.5,2.1,0.9,3.3,1.2s2.3,0.4,3.3,0.4
			c1.5,0,2.6-0.3,3.3-0.8s1.1-1.3,1.1-2.3c0-0.9-0.3-1.6-1-2.2c-0.6-0.6-2-1.3-4-2.1c-2.1-0.8-3.6-1.8-4.4-2.9
			c-0.9-1.1-1.3-2.4-1.3-3.9c0-1.9,0.7-3.4,2-4.5c1.4-1.1,3.2-1.6,5.5-1.6c2.2,0,4.4,0.5,6.5,1.4l-1.2,3c-2-0.9-3.8-1.3-5.4-1.3
			c-1.2,0-2.1,0.3-2.8,0.8c-0.6,0.5-0.9,1.2-0.9,2.1c0,0.6,0.1,1.1,0.4,1.5s0.7,0.8,1.2,1.2c0.6,0.4,1.6,0.9,3.1,1.5
			c1.7,0.7,2.9,1.3,3.7,2c0.8,0.6,1.4,1.3,1.7,2C275.4,87.7,275.6,88.6,275.6,89.6z"/>
		<path d="M294.1,95.8l-2.3-6.3h-8.7l-2.2,6.3H277l8.5-22.9h4.1l8.5,22.9H294.1z M290.9,86.2l-2.1-6.2c-0.2-0.4-0.4-1.1-0.6-2
			c-0.3-0.9-0.5-1.6-0.6-2c-0.3,1.3-0.7,2.7-1.2,4.2l-2.1,6H290.9z"/>
		<path d="M304.8,95.8h-3.7V73H314v3.2h-9.2v7.1h8.6v3.2h-8.6V95.8z"/>
		<path d="M331.1,95.8h-12.9V73h12.9v3.2h-9.2v6.2h8.6v3.1h-8.6v7.2h9.2V95.8z"/>
		<path d="M251.3,134.2h-4.6L235.5,116h-0.1l0.1,1c0.1,1.9,0.2,3.7,0.2,5.3v11.9h-3.4v-22.8h4.5l11.2,18.1h0.1
			c0-0.2-0.1-1.1-0.1-2.6c-0.1-1.5-0.1-2.7-0.1-3.5v-12h3.4V134.2z"/>
		<path d="M264.5,134.5c-2.7,0-4.8-0.8-6.3-2.4c-1.5-1.6-2.3-3.7-2.3-6.5c0-2.8,0.7-5,2.1-6.7c1.4-1.6,3.3-2.4,5.8-2.4
			c2.3,0,4.1,0.7,5.4,2.1c1.3,1.4,2,3.3,2,5.7v2h-11.5c0.1,1.7,0.5,3,1.4,3.9c0.9,0.9,2.1,1.4,3.6,1.4c1,0,2-0.1,2.9-0.3
			c0.9-0.2,1.8-0.5,2.8-1v3c-0.9,0.4-1.8,0.7-2.7,0.9C266.7,134.4,265.7,134.5,264.5,134.5z M263.8,119.4c-1.2,0-2.1,0.4-2.8,1.1
			c-0.7,0.7-1.1,1.8-1.3,3.2h7.8c0-1.4-0.4-2.5-1-3.2C265.9,119.8,265,119.4,263.8,119.4z"/>
		<path d="M281.8,131.6c0.9,0,1.8-0.1,2.7-0.4v2.8c-0.4,0.2-0.9,0.3-1.6,0.4c-0.6,0.1-1.3,0.2-2,0.2c-3.5,0-5.2-1.8-5.2-5.5v-9.3
			h-2.4v-1.6l2.5-1.3l1.3-3.7h2.3v3.8h4.9v2.8h-4.9v9.3c0,0.9,0.2,1.5,0.7,2C280.5,131.3,281.1,131.6,281.8,131.6z"/>
		<path d="M302.1,134.2l-2.2-8.1c-0.3-0.9-0.8-2.8-1.5-6h-0.1c-0.6,2.8-1.1,4.8-1.4,6l-2.3,8h-4.1l-4.8-17.3h3.8l2.2,8.5
			c0.5,2.1,0.9,3.9,1.1,5.4h0.1c0.1-0.8,0.3-1.6,0.5-2.6c0.2-1,0.4-1.7,0.6-2.2l2.6-9.1h4l2.5,9.1c0.2,0.5,0.4,1.3,0.6,2.3
			c0.2,1.1,0.4,1.9,0.4,2.5h0.1c0.2-1.3,0.5-3.1,1.1-5.4l2.2-8.5h3.7l-4.9,17.3H302.1z"/>
		<path d="M329.4,125.5c0,2.8-0.7,5-2.2,6.6c-1.4,1.6-3.5,2.4-6,2.4c-1.6,0-3-0.4-4.3-1.1c-1.2-0.7-2.2-1.8-2.9-3.1
			c-0.7-1.4-1-2.9-1-4.8c0-2.8,0.7-5,2.2-6.6c1.4-1.6,3.5-2.4,6.1-2.4c2.5,0,4.5,0.8,5.9,2.4C328.7,120.6,329.4,122.8,329.4,125.5z
			 M316.8,125.5c0,4,1.5,6,4.4,6c2.9,0,4.4-2,4.4-6c0-3.9-1.5-5.9-4.4-5.9c-1.5,0-2.7,0.5-3.4,1.5
			C317.2,122.2,316.8,123.6,316.8,125.5z"/>
		<path d="M342.4,116.6c0.7,0,1.3,0.1,1.8,0.2l-0.4,3.4c-0.5-0.1-1.1-0.2-1.6-0.2c-1.5,0-2.7,0.5-3.6,1.4c-0.9,1-1.4,2.2-1.4,3.7v9
			h-3.7v-17.3h2.9l0.5,3h0.2c0.6-1,1.3-1.8,2.2-2.5C340.4,116.9,341.3,116.6,342.4,116.6z"/>
		<path d="M351,125.1l2.1-2.6l5.2-5.6h4.2l-7,7.4l7.4,9.9h-4.3l-5.5-7.6l-2,1.7v5.9h-3.6v-24.3h3.6v11.9L351,125.1L351,125.1z"/>
	</g>
</g>
</svg>
