<?xml version="1.0" encoding="utf-8"?>
<!-- Generator: Adobe Illustrator 19.1.0, SVG Export Plug-In . SVG Version: 6.00 Build 0)  -->
<svg version="1.1" id="Layer_1" xmlns="http://www.w3.org/2000/svg" xmlns:xlink="http://www.w3.org/1999/xlink" x="0px" y="0px"
	 viewBox="0 0 434 264" enable-background="new 0 0 434 264" xml:space="preserve">
<g>
	<g>
		<path fill="#5592D7" d="M196.3,46.7L6.5,84c-3,0.6-5,3.5-4.4,6.5l28.3,144c0.6,3,3.5,5,6.5,4.4l189.8-37.3c3-0.6,5-3.5,4.4-6.5
			l-28.3-144C202.2,48.1,199.3,46.1,196.3,46.7z M21.2,86.8c1.8-0.4,3.6,0.8,3.9,2.6c0.4,1.8-0.8,3.6-2.6,3.9
			c-1.8,0.4-3.6-0.8-3.9-2.6C18.2,88.9,19.4,87.2,21.2,86.8z M10.9,88.8c1.8-0.4,3.6,0.8,3.9,2.6c0.4,1.8-0.8,3.6-2.6,3.9
			c-1.8,0.4-3.6-0.8-3.9-2.6C7.9,90.9,9.1,89.2,10.9,88.8z M226.9,197L35,234.8L8.6,100.6l192-37.7L226.9,197z M32.8,91.3
			c-1.8,0.4-3.6-0.8-3.9-2.6c-0.4-1.8,0.8-3.6,2.6-3.9c1.8-0.4,3.6,0.8,3.9,2.6C35.8,89.2,34.6,91,32.8,91.3z"/>
		<g opacity="0.85">
			<polygon fill="#5592D7" points="148.9,76.4 105.2,85 61.6,93.6 12.5,103.2 16.4,122.9 65.5,113.2 109.1,104.6 152.7,96.1 
				201.8,86.4 197.9,66.8 			"/>
			
				<rect x="162.5" y="95.8" transform="matrix(0.9812 -0.1928 0.1928 0.9812 -18.6548 37.7706)" opacity="0.25" fill="#5592D7" width="44.5" height="37.8"/>
			
				<rect x="20.7" y="123.7" transform="matrix(0.9812 -0.1928 0.1928 0.9812 -26.69 10.9509)" opacity="0.25" fill="#5592D7" width="44.5" height="37.8"/>
			<polygon fill="#5592D7" points="110.2,110.1 66.5,118.7 73.8,155.8 117.4,147.2 161.1,138.6 153.8,101.5 			"/>
			
				<rect x="177.6" y="181" transform="matrix(0.9812 -0.1928 0.1928 0.9812 -33.1992 42.1281)" fill="#5592D7" width="44.5" height="21.1"/>
			
				<rect x="35.8" y="208.9" transform="matrix(0.9812 -0.1928 0.1928 0.9812 -41.2345 15.3085)" fill="#5592D7" width="44.5" height="21.1"/>
			<polygon opacity="0.75" fill="#5592D7" points="128,195 84.3,203.5 88.4,224.3 132,215.7 175.7,207.1 171.6,186.4 			"/>
			
				<rect x="78.1" y="156.6" transform="matrix(-0.9812 0.1928 -0.1928 -0.9812 232.6493 328.2891)" fill="#5592D7" width="44.5" height="37.8"/>
			<polygon opacity="0.75" fill="#5592D7" points="167.6,143 211.2,134.4 218.5,171.5 174.9,180.1 131.3,188.6 124,151.6 			"/>
			
				<rect x="29" y="166.2" transform="matrix(-0.9812 0.1928 -0.1928 -0.9812 137.2716 356.8644)" opacity="0.75" fill="#5592D7" width="44.5" height="37.8"/>
		</g>
	</g>
	<g>
		<path fill="none" stroke="#EBEBEB" stroke-width="3.9981" stroke-linecap="round" stroke-miterlimit="10" d="M273,61.2
			c-2.4-7.7-2.7-11.9-3.2-21.9c-1-19.9-0.6-1.9-1-19.9c-0.3-11,19.9-15.2,22.6-15.4c3.1-0.2,18.8-1.1,22.7,6.8
			c1.5,2.9,1.2,8.4,1.3,9.6c0.6,8.2,0.3,13.2,3.8,37.2"/>
		<polygon fill="#CCCCCC" points="400.9,37.2 193.5,52.8 206.4,63.4 215.4,72 400.9,57.2 		"/>
		<polygon fill="#EAEAEA" points="431.6,54.8 215.4,72 213.8,227.5 217.8,261.7 431.6,237.4 426.8,201.7 		"/>
		<g>
			<g>
				<polygon fill="#5892CD" points="344.7,149.8 344.7,141.4 322.5,131 305.9,142.3 355.5,165.7 355.5,171.9 322.6,194.3 
					289.6,178.8 289.6,166.3 280.2,161.8 280.2,185.3 322.4,205.3 364.5,176.5 364.5,159.1 				"/>
				<polygon fill="#5892CD" points="355.5,134 355.5,134 322.6,118.5 289.6,140.9 289.6,140.9 322.6,118.5 				"/>
			</g>
			<polygon fill="#6EAADC" points="322.6,107.6 280.2,136.5 280.2,154.9 300.1,164.4 300.1,164.4 300.1,164.4 300.1,164.4 
				300.1,171.5 322.4,181.9 338,171.3 289.6,148.4 289.6,140.9 322.6,118.5 355.5,134 355.5,146.4 364.9,150.8 364.9,127.6 			"/>
		</g>
		<polygon fill="#E2E2E2" points="184.7,232.9 217.8,261.7 213.8,227.5 215.4,72 206.4,63.4 193.5,52.8 194.3,214.5 		"/>
		<polygon fill="#BCBCBC" points="431.6,54.8 400.9,57.2 400.9,37.2 411.8,47.4 		"/>
		<polygon fill="#EFEFEF" points="431.6,237.4 217.8,261.7 213.8,227.5 426.8,201.7 		"/>
		<polygon fill="#DBDBDB" points="184.7,232.9 207.4,225.2 206.4,63.4 193.5,52.8 194.3,214.5 		"/>
		<polygon fill="#D3D3D3" points="217.8,261.7 207.4,225.2 206.4,63.4 215.4,72 213.8,227.5 		"/>
		<polygon fill="#C6C6C6" points="431.6,54.8 411.8,56.4 411.8,47.4 		"/>
		<circle fill="#F4F4F4" stroke="#FFFFFF" stroke-width="0.7996" stroke-miterlimit="10" cx="298.4" cy="79" r="2.4"/>
		<circle fill="#F4F4F4" stroke="#FFFFFF" stroke-width="0.7996" stroke-miterlimit="10" cx="344.8" cy="75.5" r="2.4"/>
		<path fill="none" stroke="#EFEFEF" stroke-width="3.9981" stroke-linecap="round" stroke-miterlimit="10" d="M298.4,79
			c2.3-23.1,0.6-36-1.6-43.5c-0.4-1.4-1.4-4.5-0.2-7.9c3.4-9.4,20.7-10.4,23.4-10.6c3.1-0.2,18.8-1.1,22.7,6.8
			c1.5,2.9,0.8,6,0.5,7.2c-1.6,7.5-2.1,20.4,1.4,44.4"/>
		<circle opacity="0.5" fill="none" stroke="#FFFFFF" stroke-width="0.7996" stroke-miterlimit="10" cx="273" cy="61.2" r="2.4"/>
		<circle opacity="0.5" fill="none" stroke="#FFFFFF" stroke-width="0.7996" stroke-miterlimit="10" cx="319.4" cy="57.7" r="2.4"/>
	</g>
</g>
</svg>
