<?xml version="1.0" encoding="utf-8"?>
<!-- Generator: Adobe Illustrator 19.1.0, SVG Export Plug-In . SVG Version: 6.00 Build 0)  -->
<svg version="1.1" id="Layer_1" xmlns="http://www.w3.org/2000/svg" xmlns:xlink="http://www.w3.org/1999/xlink" x="0px" y="0px"
	 viewBox="0 0 440 470" style="enable-background:new 0 0 440 470;" xml:space="preserve">
<style type="text/css">
	.st0{fill:url(#SVGID_1_);}
	.st1{fill:#424242;}
	.st2{fill:#262626;}
	.st3{fill:#C9C9CC;}
	.st4{fill:#5592D7;}
	.st5{fill:#FFFFFF;}
	.st6{fill:#E2E2E2;}
	.st7{clip-path:url(#SVGID_3_);}
	.st8{fill:#99BEE7;}
	.st9{fill:#29578A;}
	.st10{fill:#898989;}
	.st11{fill:#FFB600;}
	.st12{fill:#DCDAD9;}
	.st13{fill:#474747;}
</style>
<g>
	
		<radialGradient id="SVGID_1_" cx="302.9998" cy="265.0782" r="162.4615" fx="301.7117" fy="230.8107" gradientTransform="matrix(0.9997 2.337926e-002 -3.233559e-002 1.3827 8.6543 -108.5322)" gradientUnits="userSpaceOnUse">
		<stop  offset="0" style="stop-color:#FFFFFF"/>
		<stop  offset="1" style="stop-color:#FFFFFF;stop-opacity:0"/>
	</radialGradient>
	<path class="st0" d="M422.6,220.3l-11-111.8c5.2-1,9-5.6,9-11c0-6.2-5-11.3-11.3-11.3c-3.8,0-7.1,1.9-9.2,4.8l-50.9-28.8
		c0.6-1.4,1-2.9,1-4.5c0-6.2-5-11.2-11.1-11.2l-3.6-41.3h-2.4l3.7,42c-2.6,0.5-4.9,1.9-6.5,3.8l-54.9-37.1c0.9-1.6,1.3-3.4,1.3-5.3
		c0-1.2-0.2-2.3-0.5-3.3h-21.5c-0.1,0.4-0.2,0.8-0.2,1.2l-21.5-1.2h-51L254.2,9c0.2,3.3,1.7,6.2,4.1,8.2l-26.4,39.5
		c-1.6-0.8-3.4-1.3-5.3-1.3c-6.2,0-11.3,5-11.3,11.3c0,0.9,0.1,1.7,0.3,2.5L169,85c-1.4-3.1-4.2-5.4-7.6-6.2l8.9-64.2
		c0.1,0,0.3,0,0.4,0c5.6,0,10.3-4.1,11.1-9.5h-22c0.1,0.5,0.2,0.9,0.4,1.4L103,32.3c-1.9-3.4-5.6-5.6-9.7-5.6C87,26.7,82,31.7,82,38
		s5,11.3,11.2,11.3c3.2,0,6.1-1.3,8.1-3.5l48,37.5c-1.1,1.7-1.7,3.8-1.7,6c0,6.2,5,11.3,11.3,11.3c6.2,0,11.3-5,11.3-11.3
		c0-0.9-0.1-1.7-0.3-2.5l46.7-15.9c1.8,3.9,5.7,6.6,10.2,6.6c1.8,0,3.4-0.4,4.9-1.1l10.1,32.2c-2.7,2.1-4.4,5.3-4.4,8.9
		c0,6.2,5,11.2,11.3,11.2c0.7,0,1.4-0.1,2.1-0.2l45.1,62.7c-2.7,2.1-4.5,5.3-4.5,9c0,2.4,0.7,4.5,2,6.4l-43.2,42.3
		c-1.3-0.6-2.7-1-4.3-1.1c-0.2,0-0.4,0-0.6,0c-1.6,0-3,0.3-4.4,0.9c-1,0.4-1.9,1-2.8,1.7c-0.8,0.7-1.6,1.5-2.2,2.4
		c-1.2,1.8-1.9,4-1.9,6.3c0,0.4,0,0.8,0.1,1.2c0,0.1,0,0.2,0,0.3c0,0.3,0.1,0.6,0.1,0.8c0,0.1,0.1,0.2,0.1,0.3
		c0.1,0.3,0.1,0.5,0.2,0.8c0,0.1,0.1,0.2,0.1,0.3c0.1,0.3,0.2,0.6,0.3,0.8c0,0.1,0.1,0.1,0.1,0.2c0.1,0.3,0.3,0.6,0.4,0.8
		c0,0,0.1,0.1,0.1,0.1c0.2,0.3,0.4,0.6,0.6,0.8c0,0,0,0.1,0.1,0.1c0.2,0.3,0.4,0.6,0.7,0.8c0,0,0,0,0,0c0.3,0.3,0.5,0.5,0.8,0.8l0,0
		l1.5,49.3c-1.7-1-3.6-1.5-5.6-1.5c-6.2,0-11.3,5-11.3,11.3c0,1,0.2,2,0.4,3l-46.3,18c-1.9-3.6-5.6-6.1-10-6.1
		c-6.2,0-11.3,5-11.3,11.3c0,3.2,1.3,6,3.4,8.1l-40,50.7c-1.7-1.1-3.8-1.8-6.1-1.8c-6.2,0-11.3,5-11.3,11.3c0,6.2,5,11.3,11.3,11.3
		c5.6,0,10.3-4.1,11.1-9.5l63.1,3.3c0.3,6,5.2,10.7,11.2,10.7c4.7,0,8.7-2.9,10.4-7l75,22.2c-0.1,0.7-0.2,1.4-0.2,2.1
		c0,6.2,5,11.3,11.3,11.3s11.2-5,11.2-11.3c0-2.4-0.7-4.5-2-6.4l48.7-41.1c2,2,4.8,3.2,7.8,3.2c6.2,0,11.3-5,11.3-11.3
		c0-3.8-1.9-7.1-4.8-9.2l32.6-57.7c1.4,0.6,2.9,1,4.5,1c6.2,0,11.3-5,11.3-11.3c0-5-3.3-9.3-7.9-10.7l14.2-67.5
		c0.4,0,0.8,0.1,1.2,0.1c6.2,0,11.3-5,11.3-11.3C433.8,225.4,428.8,220.4,422.6,220.3z M158.8,78.5c-3.2,0-6.1,1.3-8.1,3.5l-48-37.5
		c1.1-1.7,1.7-3.8,1.7-6c0-1.3-0.2-2.5-0.6-3.6L161.1,9c1.5,2.6,4.1,4.6,7.1,5.3l-8.9,64.2C159.1,78.5,158.9,78.5,158.8,78.5z
		 M348.1,64.6L399,93.4c-0.6,1.4-1,2.9-1,4.5c0,2.8,1,5.3,2.7,7.2l-42,43.3c-1.9-1.5-4.3-2.4-7-2.4c-0.1,0-0.2,0-0.3,0l-9.9-77
		C344.2,68.4,346.6,66.8,348.1,64.6z M411.3,233.8l-45.7,11.8c-1.5-4.1-5.3-7-9.8-7.3l-2.6-69.8c2-0.3,3.8-1.1,5.3-2.2l55.4,58.5
		c-1.7,2-2.7,4.5-2.7,7.3C411.2,232.6,411.3,233.2,411.3,233.8z M256.2,258.1C256.2,258.1,256.2,258.1,256.2,258.1
		c-0.1-0.4-0.1-0.8-0.2-1.2l88.9-2.8c1.1,2.4,3,4.4,5.3,5.5l-20.7,56.1c-0.9-0.2-1.8-0.4-2.8-0.4c-3.1,0-5.9,1.2-7.9,3.2l-64.4-52.9
		c0.2-0.3,0.3-0.5,0.5-0.8c0.1-0.1,0.1-0.2,0.2-0.3c0.1-0.2,0.2-0.4,0.3-0.6c0-0.1,0.1-0.2,0.1-0.3c0.1-0.3,0.2-0.6,0.3-0.9
		c0,0,0,0,0-0.1c0.1-0.3,0.2-0.6,0.2-1c0-0.1,0-0.2,0.1-0.3c0-0.2,0.1-0.5,0.1-0.7c0-0.1,0-0.2,0-0.3c0-0.3,0.1-0.7,0.1-1
		C256.3,259,256.2,258.6,256.2,258.1z M311.5,193.4l32.1-28.3c1.9,2,4.5,3.2,7.4,3.4l2.6,69.8c-2.5,0.3-4.7,1.5-6.4,3.2l-35.7-34.7
		c1.4-1.9,2.2-4.2,2.2-6.7C313.7,197.6,312.9,195.3,311.5,193.4z M352.3,260.4c0.9,0.2,1.8,0.4,2.8,0.4c1.9,0,3.7-0.5,5.3-1.3
		l36.1,53.5c-2.4,2-3.9,4.9-4,8.3l-54.7,3.6c-0.6-3.6-3-6.7-6.2-8.2L352.3,260.4z M338.9,69.4c0.1,0,0.2,0,0.3,0l9.9,77
		c-3.9,0.9-6.9,3.8-8.2,7.5l-81.4-34.8c0-0.4,0.1-0.8,0.1-1.3c0-3.1-1.3-5.9-3.3-7.9l76.3-42.4C334.5,68.7,336.6,69.4,338.9,69.4z
		 M260.2,18.4c1.6,0.8,3.4,1.3,5.3,1.3c3.5,0,6.6-1.6,8.6-4L329,52.8c-0.8,1.5-1.3,3.2-1.3,5.1l-90,6.8c-0.5-2.7-1.9-5.1-3.9-6.7
		L260.2,18.4z M248.5,106.6c-1.8,0-3.4,0.4-4.9,1.1l-10.1-32.2c2.6-2,4.3-5.1,4.4-8.7l90-6.8c0.4,2.3,1.5,4.4,3.1,6l-76.3,42.4
		C252.9,107.3,250.8,106.6,248.5,106.6z M252.7,128.2c3.1-1.2,5.4-3.8,6.5-6.9l81.4,34.8c0,0.4-0.1,0.8-0.1,1.3c0,2.2,0.7,4.3,1.8,6
		L310,191.7l0,0c0,0,0,0-0.1,0.1c-2-1.8-4.6-2.9-7.5-2.9c-1.9,0-3.7,0.5-5.2,1.3L252.7,128.2z M294.7,208.3c2,1.9,4.7,3.1,7.8,3.1
		c2.9,0,5.5-1.1,7.5-2.9l35.8,34.8c-1.2,1.8-1.9,3.9-1.9,6.2c0,0.8,0.1,1.7,0.3,2.5l-88.9,2.8c-0.7-1.6-1.9-3.1-3.2-4.2L294.7,208.3
		z M240,269.4c0,0,0.1,0,0.1,0.1c0.3,0.2,0.7,0.3,1,0.4c0.1,0,0.2,0.1,0.3,0.1c0.2,0.1,0.3,0.1,0.5,0.1c0.2,0.1,0.4,0.1,0.6,0.2
		c0.1,0,0.3,0.1,0.4,0.1c0.3,0.1,0.5,0.1,0.8,0.1c0.1,0,0.2,0,0.3,0c0.3,0,0.7,0.1,1,0.1c0.4,0,0.8,0,1.1-0.1c0.2,0,0.4-0.1,0.6-0.1
		c0.2,0,0.3,0,0.5-0.1c0.3-0.1,0.5-0.1,0.8-0.2c0.1,0,0.2,0,0.3-0.1c0.3-0.1,0.6-0.2,0.9-0.3c0,0,0.1,0,0.1,0c0.3-0.1,0.6-0.3,1-0.5
		c0,0,0,0,0,0c1-0.5,1.8-1.2,2.6-1.9l64.4,52.9c-1,1.5-1.7,3.3-1.9,5.2l-70.9,0.2c-0.3-2.9-1.7-5.4-3.7-7.2l-1.5-49.3
		C239.6,269.2,239.8,269.3,240,269.4z M318,333.6l-45.6,45.1c-1.9-1.6-4.4-2.6-7.2-2.6c-1.5,0-2.9,0.3-4.2,0.8l-21.4-40.8
		c2.8-1.8,4.7-4.8,5-8.3l70.9-0.2C315.7,330,316.6,332,318,333.6z M186.7,423.9l-63.1-3.3c-0.1-3-1.4-5.6-3.4-7.5l40-50.7
		c1.7,1.1,3.8,1.8,6.1,1.8c1.2,0,2.3-0.2,3.4-0.5l22.7,52.2C189.4,417.5,187.2,420.4,186.7,423.9z M197.8,414.4
		c-1.2,0-2.3,0.2-3.4,0.5l-22.7-52.2c3.4-1.9,5.8-5.6,5.8-9.8c0-1-0.2-2-0.4-3l46.3-18c1.1,2.2,2.9,4,5.2,5l-28,77.8
		C199.7,414.5,198.8,414.4,197.8,414.4z M202.7,415.5l28-77.8c0.9,0.2,1.8,0.3,2.7,0.3c1.5,0,2.9-0.3,4.2-0.8L259,378
		c-3,2-5.1,5.5-5.1,9.4c0,1.6,0.3,3.2,1,4.5L207,419.1C205.9,417.6,204.4,416.3,202.7,415.5z M283.9,449.9l-75-22.2
		c0.1-0.7,0.2-1.4,0.2-2.1c0-1.6-0.3-3.2-1-4.5l47.9-27.2c2,2.9,5.4,4.7,9.2,4.7c1.2,0,2.4-0.2,3.5-0.5l20.2,46.2
		C286.6,445.6,284.9,447.5,283.9,449.9z M302.1,446.1c-2-2-4.8-3.2-7.8-3.2c-1.2,0-2.4,0.2-3.5,0.5l-20.2-46.2
		c2.7-1.5,4.8-4.2,5.5-7.4l72.8,8.6c0,0.1,0,0.1,0,0.2c0,2.4,0.7,4.5,2,6.4L302.1,446.1z M349.2,396.2l-72.8-8.6c0-0.1,0-0.1,0-0.2
		c0-2.7-0.9-5.1-2.5-7.1l45.6-45.1c1.9,1.6,4.4,2.6,7.2,2.6c1.3,0,2.5-0.2,3.7-0.6l24,51.8C351.8,390.5,349.8,393.1,349.2,396.2z
		 M364.7,388.3c-1.4-0.6-2.9-1-4.5-1c-1.3,0-2.5,0.2-3.7,0.6l-24-51.8c3.2-1.9,5.4-5.3,5.5-9.3l54.7-3.6c0.5,3,2.2,5.6,4.6,7.3
		L364.7,388.3z M404.9,310.3c-0.4,0-0.8-0.1-1.2-0.1c-1.9,0-3.7,0.5-5.3,1.3l-36.1-53.5c2.5-2.1,4.1-5.2,4.1-8.6
		c0-0.6-0.1-1.2-0.1-1.7l45.7-11.8c1.2,3.2,3.8,5.8,7.1,6.8L404.9,310.3z M415.6,223.2l-55.4-58.5c1.7-2,2.7-4.5,2.7-7.3
		c0-2.8-1-5.3-2.7-7.2l42-43.3c1.9,1.5,4.3,2.4,7,2.4l11,111.8C418.5,221.4,416.9,222.1,415.6,223.2z"/>
	<g>
		<g>
			<path class="st1" d="M238,420.4H10.7c-2.5,0-4.5-2-4.5-4.5V84.4c0-2.5,2-4.5,4.5-4.5H238c2.5,0,4.5,2,4.5,4.5v331.5
				C242.5,418.4,240.4,420.4,238,420.4z"/>
			<path class="st2" d="M229.5,276.4c-5.7-2-9.6-7.4-9.5-13.4c0-2.1,0.6-4,1.4-5.8c10.1-16.9,15.8-36.6,15.8-57.7
				c0-21.8-6.2-42.1-16.8-59.3l9.3-6.5l-0.1-0.1c2.1-2,3.6-4.6,4.1-7.6c1.4-7.5-3.7-14.8-11.2-16.1c-3-0.5-6-0.1-8.5,1.2l-0.1-0.1
				l-10.9,7.6c-20.3-19.7-48-31.9-78.6-31.9c-2.8,0-5.6,0.1-8.3,0.3l0.4-0.3H47.8l-30.4,25.5l-2.8,19.6c-0.6,4.1,1,8.3,4.1,11.1
				l5.4,4.7c-8.1,15.6-12.7,33.2-12.7,52c0,21.1,5.8,40.8,15.8,57.7c0.9,1.8,1.4,3.9,1.4,6.1c0,7.7-6.2,13.9-13.9,13.9
				c-0.6,0-1.3-0.1-1.9-0.1v94.3c0,1.2,0.4,2.3,1.3,3.1l33.7,35.1c1.1,1.2,2.7,1.8,4.3,1.8h58.5c1.4-6.2,6.9-10.9,13.5-10.9
				c6.6,0,12.2,4.7,13.5,10.9h59.3c1.6,0,3.2-0.7,4.3-1.8l33.7-35.1c0.8-0.8,1.3-2,1.3-3.1v-94.4
				C234.3,277.3,231.9,277.2,229.5,276.4z"/>
			<circle class="st3" cx="16.3" cy="264.1" r="3.3"/>
			<circle class="st3" cx="232.4" cy="264.1" r="3.3"/>
			<circle class="st3" cx="228.7" cy="406.6" r="3.3"/>
			<circle class="st3" cx="20" cy="406.6" r="3.3"/>
			<circle class="st3" cx="228.7" cy="93.4" r="3.3"/>
			<circle class="st3" cx="20" cy="93.4" r="3.3"/>
			<circle class="st3" cx="124.3" cy="410.3" r="3.3"/>
		</g>
		<g>
			<circle class="st4" cx="124.3" cy="199.5" r="109.4"/>
			<path class="st5" d="M236.2,231.9c18.3-18.3,41.4-28.7,65.3-31.4v-1.9c-23.7-2.7-46.8-13.1-65-31.3c-7.7-7.7-14.1-16.3-19-25.5
				h-0.1v115.2C222.3,248.1,228.6,239.6,236.2,231.9z"/>
			<circle class="st5" cx="124.3" cy="199.5" r="109.4"/>
			<g>
				<path class="st6" d="M124.3,199.5l93.1-57.6c-4.4-7-9.6-13.7-15.7-19.8c-42.7-42.7-112-42.7-154.8,0s-42.7,112,0,154.8
					c42.7,42.7,112,42.7,154.8,0c6.1-6.1,11.3-12.7,15.6-19.7L124.3,199.5z"/>
			</g>
			<g>
				<defs>
					<path id="SVGID_2_" d="M217.3,257.2c21.9-35.2,21.9-80.1,0.1-115.3l-93.1,57.6L217.3,257.2z"/>
				</defs>
				<clipPath id="SVGID_3_">
					<use xlink:href="#SVGID_2_"  style="overflow:visible;"/>
				</clipPath>
				<g class="st7">
					<path class="st5" d="M128.1,199.5l106.1-65.7c24,40.2,24,91.3-0.1,131.4L128.1,199.5z"/>
					<path class="st4" d="M233.5,136.6c11,19.1,16.8,40.7,16.8,62.9c0,22.2-5.8,43.9-16.8,62.9l-101.5-63L233.5,136.6 M234.9,131.1
						l-110.6,68.4L234.8,268C260.8,226.2,260.8,172.9,234.9,131.1L234.9,131.1z"/>
				</g>
			</g>
			<g>
				<path class="st8" d="M205.9,193.1v25.3l-21.3-12.3l0,0c-6.3-3.7-5.9-6-5.9-11l21.9,12.7v-11.5L205.9,193.1z"/>
				<path class="st4" d="M200.6,207.7l-21.9-12.7l21.3-12.3l0,0c6.3-3.6,8.1-2.1,12.5,0.4l-21.9,12.7l10,5.8V207.7z"/>
				<path class="st9" d="M190.6,195.8l21.9-12.7v24.6l0,0c0,7.3-2.2,8.1-6.6,10.6l0-25.3l-10,5.8L190.6,195.8z"/>
			</g>
		</g>
		<g>
			<circle class="st10" cx="124.3" cy="199.5" r="31.1"/>
			<circle class="st3" cx="124.3" cy="199.5" r="28.9"/>
			<circle class="st10" cx="124.3" cy="199.5" r="13.9"/>
			<circle class="st1" cx="124.3" cy="199.5" r="5.6"/>
		</g>
		<g>
			<g>
				<path class="st11" d="M77.4,390.5l97.1-141.7c1.1-1.6,0.9-3.8-0.6-5.1l0,0c-1.4-1.3-3.6-1.4-5.1-0.2L33.2,349
					c-1.3,1-1.8,2.6-1.4,4.2l0.2,0.6c5.4,19.4,21.1,34.1,40.8,38.2l0.6,0.1C74.9,392.5,76.5,391.9,77.4,390.5z M151.7,262.6
					c0.7-0.7,1.8-0.7,2.5-0.1l1.8,1.7c0.7,0.7,0.7,1.8,0.1,2.5l-1.7,1.8c-0.7,0.7-1.8,0.7-2.5,0.1l-1.8-1.7
					c-0.7-0.7-0.7-1.8-0.1-2.5L151.7,262.6z M139.5,273.4c1.4-1.5,3.8-1.6,5.3-0.2l1.1,1c1.5,1.4,1.6,3.8,0.2,5.3l-7.2,7.7
					c-1.4,1.5-3.8,1.6-5.3,0.2l-1.1-1c-1.5-1.4-1.6-3.8-0.2-5.3L139.5,273.4z M120,294.2c1.4-1.5,3.8-1.6,5.3-0.2l1.1,1
					c1.5,1.4,1.6,3.8,0.2,5.3l-7.2,7.7c-1.4,1.5-3.8,1.6-5.3,0.2l-1.1-1c-1.5-1.4-1.6-3.8-0.2-5.3L120,294.2z M72.7,384.4
					c-15.7-3.8-28.3-15.6-33.1-31.1l28.5-23.9c13.1,1.8,23.6,11.7,26.3,24.6l0,0L72.7,384.4L72.7,384.4z"/>
				<circle class="st12" cx="96.6" cy="325.7" r="12.7"/>
				<circle class="st13" cx="96.6" cy="325.7" r="3.7"/>
			</g>
			<path class="st10" d="M102.8,355.1c-19.4,0-35-15.7-35-35v-8.6c0-4.5-3.6-8.1-8.1-8.1H45.2H31.6c-4.5,0-8.1,3.6-8.1,8.1v57
				c0,13.3,10.8,24.1,24.1,24.1h71.2c4.5,0,8.1-3.6,8.1-8.1v-21.3c0-4.5-3.6-8.1-8.1-8.1H102.8z"/>
			<circle class="st3" cx="116.7" cy="373.2" r="3.3"/>
			<circle class="st3" cx="45.4" cy="313.1" r="3.3"/>
		</g>
	</g>
</g>
</svg>
