<?xml version="1.0" encoding="utf-8"?>
<!-- Generator: Adobe Illustrator 19.1.0, SVG Export Plug-In . SVG Version: 6.00 Build 0)  -->
<svg version="1.1" id="Layer_1" xmlns="http://www.w3.org/2000/svg" xmlns:xlink="http://www.w3.org/1999/xlink" x="0px" y="0px"
	 viewBox="-440 232 76 95" enable-background="new -440 232 76 95" xml:space="preserve">
<g>
	<polygon fill="#FFFFFF" points="-381,245 -381,234 -438,234 -438,311 -426,311 -426,248 -426,245 -423,245 	"/>
	<rect x="-423" y="248" fill="#FFFFFF" width="57" height="77"/>
	<polyline fill="#025487" points="-414.4,261 -374.6,261 -374.6,258 -414.4,258 -414.4,261 	"/>
	<polyline fill="#025487" points="-414.4,270 -374.6,270 -374.6,267 -414.4,267 -414.4,270 	"/>
	<polyline fill="#025487" points="-414.4,279 -374.6,279 -374.6,276 -414.4,276 -414.4,279 	"/>
	<polyline fill="#025487" points="-414.4,288 -374.6,288 -374.6,285 -414.4,285 -414.4,288 	"/>
	<polyline fill="#025487" points="-414.4,297 -374.6,297 -374.6,294 -414.4,294 -414.4,297 	"/>
	<polyline fill="#025487" points="-414.4,306 -374.6,306 -374.6,303 -414.4,303 -414.4,306 	"/>
	<polyline fill="#025487" points="-414.4,315 -374.6,315 -374.6,312 -414.4,312 -414.4,315 	"/>
	<g>
		<polygon fill="#025487" points="-426,245 -423,245 -390.2,245 -390.2,244 -430,244 -430,247 -426,247 		"/>
		<rect x="-430" y="253" fill="#025487" width="4" height="3"/>
		<rect x="-430" y="262" fill="#025487" width="4" height="3"/>
		<rect x="-430" y="271" fill="#025487" width="4" height="3"/>
		<rect x="-430" y="280" fill="#025487" width="4" height="3"/>
		<rect x="-430" y="289" fill="#025487" width="4" height="3"/>
		<rect x="-430" y="298" fill="#025487" width="4" height="3"/>
	</g>
</g>
</svg>
