<?xml version="1.0" encoding="utf-8"?>
<!-- Generator: Adobe Illustrator 19.1.0, SVG Export Plug-In . SVG Version: 6.00 Build 0)  -->
<svg version="1.1" id="Layer_1" xmlns="http://www.w3.org/2000/svg" xmlns:xlink="http://www.w3.org/1999/xlink" x="0px" y="0px"
	 viewBox="0 0 27.9 21.9" style="enable-background:new 0 0 27.9 21.9;" xml:space="preserve">
	 <style type="text/css">
	 	.st0{fill:#616161;}
	 	.st1{opacity:0.3;fill:#FFFFFF;}
	 	.st2{fill:none;stroke:#616161;stroke-width:1.9272;stroke-miterlimit:10;}
	 	.st3{fill:none;stroke:#616161;stroke-width:1.9272;stroke-miterlimit:10;stroke-dasharray:5.8086,2.9043;}
	 	.st4{fill:none;stroke:#616161;stroke-width:1.9272;stroke-miterlimit:10;stroke-dasharray:8.8086,4.4043;}
	 	.st5{fill:#FFFFFF;}
	 </style>
	 <g>
		 <rect x="1" y="1" class="st0" width="26" height="20"/>
		 <rect x="1" y="1" class="st1" width="26" height="20"/>
		 <polyline class="st2" points="5.2,1 1,1 1,5.2 			"/>
		 <line class="st3" x1="1" y1="8.1" x2="1" y2="15.4"/>
		 <polyline class="st2" points="1,16.8 1,21 5.2,21 			"/>
		 <line class="st4" x1="9.6" y1="21" x2="20.6" y2="21"/>
		 <polyline class="st2" points="22.8,21 27,21 27,16.8 			"/>
		 <line class="st3" x1="27" y1="13.9" x2="27" y2="6.6"/>
		 <polyline class="st2" points="27,5.2 27,1 22.8,1 			"/>
		 <line class="st4" x1="18.4" y1="1" x2="7.4" y2="1"/>
		 <path class="st5" d="M12.6,11.2H10c-0.4,0-0.7,0.3-0.7,0.7v1c0.8,0,1.4,0.6,1.4,1.4h2c0.4,0,0.7-0.3,0.7-0.7v-1.7
			 C13.3,11.5,13,11.2,12.6,11.2z"/>
		 <path class="st5" d="M18.7,6.2h-6.8c-0.9,0-1.6,0.7-1.6,1.6v1.4h2.3c1.5,0,2.7,1.2,2.7,2.7v1.3h3.4c0.9,0,1.6-0.7,1.6-1.6V7.8
			 C20.3,6.9,19.6,6.2,18.7,6.2z"/>
		 <path class="st5" d="M9.3,13.8H8.1c-0.2,0-0.4,0.2-0.4,0.4v1.2c0,0.2,0.2,0.4,0.4,0.4h1.2c0.2,0,0.4-0.2,0.4-0.4v-1.2
			 C9.7,14,9.5,13.8,9.3,13.8z"/>
	 </g>
</svg>
