<?xml version="1.0" encoding="utf-8"?>
<!-- Generator: Adobe Illustrator 19.1.0, SVG Export Plug-In . SVG Version: 6.00 Build 0)  -->
<svg version="1.1" id="Layer_1" xmlns="http://www.w3.org/2000/svg" xmlns:xlink="http://www.w3.org/1999/xlink" x="0px" y="0px"
	 viewBox="0 0 28 22" style="enable-background:new 0 0 28 22;" xml:space="preserve">
<style type="text/css">
	.st0{fill:#616161;}
	.st1{opacity:0.3;}
	.st2{fill:#FFFFFF;}
</style>
	<g>
		<rect x="0" y="0" class="st0" width="28" height="22"/>
		<polygon class="st1 st2" points="21.8,2 2.8,20 26,20 26,2 			"/>
		<path class="st2" d="M19.3,14.4l-4.5-4.5c0.4-1.1,0.2-2.5-0.7-3.4c-1-1-2.5-1.2-3.6-0.6L12.5,8l-1.5,1.5L8.9,7.4
			C8.3,8.6,8.6,10,9.6,11c0.9,0.9,2.3,1.2,3.4,0.7l4.5,4.5c0.2,0.2,0.5,0.2,0.7,0l1.1-1.1C19.5,14.9,19.5,14.6,19.3,14.4z"/>
	</g>
</svg>
