<svg xmlns="http://www.w3.org/2000/svg" viewBox="0 0 389 425.2" enable-background="new 0 0 389 425.2"><path d="M323.4 248.2h-232v-134c0-2.8 2.3-5.2 5.2-5.2h221.6c2.8 0 5.2 2.3 5.2 5.2v134z"/><path fill="#5593D7" d="M100.7 118.3h213.4v120.6H100.7z"/><path fill="#C9C9CC" d="M318.3 268.8H96.6c-2.8 0-5.2-2.3-5.2-5.2v-15.5h232v15.5c0 2.8-2.3 5.2-5.1 5.2zM228.6 292.5h-42.3l2.1-23.7h38.1zM171.9 292.5H243v6.2h-71.1z"/><circle cx="207.4" cy="258.5" r="5.2"/><path fill="#B2B2B2" d="M227.5 282.2l-1-13.4h-38.1l-1.1 9.2z"/><path d="M32.7 300.6h100.1v7.1H32.7z"/><path fill="#F7944B" d="M113.9 300.6H51.7l25.1-107c.2-.9 1-1.5 1.8-1.5H87c.9 0 1.6.6 1.8 1.5l25.1 107z"/><path fill="#fff" d="M71.7 215l-14.5 61.8h51.1L93.8 215z"/><path fill="#333" d="M32.7 300.6h50.1v7.1H32.7z"/><path d="M249.6 307.9h110.2v7.8H249.6z"/><path fill="#F7944B" d="M339 307.9h-68.6L298 190.1c.2-.9 1.1-1.6 2-1.6h9.3c1 0 1.8.7 2 1.6L339 307.9z"/><path fill="#fff" d="M292.6 213.6l-16 68.1h56.3l-16-68.1z"/><path fill="#333" d="M249.6 307.9h55.1v7.8h-55.1z"/></svg>