<svg xmlns="http://www.w3.org/2000/svg" viewBox="0 0 389 425.2" enable-background="new 0 0 389 425.2"><g fill="#fff" opacity=".1"><path d="M254.5 186.9h-3.2l20.5 63.5c.2-.2.4-.5.6-.7-.3-.6-.5-1.2-.7-2-.2-.5 0-.6.4-.2.4.4 1 .8 1.8.9v-1.5l-19.4-60zM250.6 176.7c.2.1.4.1.6.2l-.7-2.1.1 1.9zM240 155.1c.6-1 1.4-1.8 2.3-2.5l-26.4-70.1h-3.2l27.3 72.6zM190.5 259.3h-3l4.2 42.9c.9-.3 1.9-.6 2.9-.7l-4.1-42.2zM42.6 158.3l2-2c-.6.3-1.3.5-2 .7v1.3zM109.8 86.2c.1-.1.2-.1.3-.1.3-.1.6-.3.9-.4.1 0 .2-.1.3-.1.3-.1.6-.2 1-.3v-2.4l-4.5 4.6c.7-.5 1.4-.9 2-1.3zM40.6 228.9l.6-53.6h-3l-.6 53.5h.9c.7 0 1.4 0 2.1.1zM104.9 90.5l-49.5 50.4c-.4 1.3-1.1 2.2-1.9 2.2h-.1c-.1 2-.7 3.9-1.5 5.6l49.8-50.8c.6-2.8 1.7-5.3 3.2-7.4zM132 78.7L187 62c-1-.7-1.9-1.5-2.8-2.3L132 75.5V78.7zM359.1 290.8c-3-.6-5.7-2-8-4l-67.6-16.5c-.5.2-1.1.4-1.6.5v2.1c.2 0 .3.1.5.1l76.8 18.7v-.9zM170.6 222.5l-48.4-45.2-.6.9c1.8 1.4 3.1 3.5 3.7 6.1l45.3 42.3v-4.1zM189 202.8l.4-41.3h-3l-.4 41.2c.4 0 .7-.1 1.1-.1.6.1 1.3.2 1.9.2zM199.5 338.9zM276.7 273.5c.1 0 .1 0 .2-.1l.6-.3c.1 0 .1 0 .2-.1.2-.1.4-.1.6-.2v-2.1c-2.3-.5-4.2-1.9-5.4-3.8l-66.7-22.2c-.4.7-1.1 1.6-1.9 2.5l72.7 24.2-65.3 53.6c-.4.8-1 1.4-1.6 1.4h-.1c-.1 1.7-.6 3.4-1.3 4.9l63.2-51.7c.9-2.8 2.6-5 4.8-6.1zM185.4 142.2c-.3-.1-.7-.2-1-.3L125.1 169c-.2 1.2-.6 2.5-1 3.8l61.3-28v-2.6zM127.1 158c.3 1 .3 2.3.1 3.4-.1.6-.2 1.1-.4 1.6v.4l59-80.8h-.8c0-1.5.1-3 .4-4.5L127.1 158zM114 101.3l.9 49.2c.4-.1.7-.1 1.1-.2h.9c.4 0 .7 0 1 .1l-.9-49.1h-3zM117.8 81.9v1l12.2-3.7c-1.5-.5-3.3-.9-5.3-1.2-1.8 2-4.2 3.4-6.9 3.9zM110.6 334.5l.9.6v-.4c-.3 0-.6-.1-.9-.2zM98.6 237.6v-3c0-.3 0-.6.1-.9 0-.2.1-.4.1-.7l-45.4-58.9c0 .4.1.8.1 1.2h-2.9l48 62.3zM194.1 338.9c-1.4-.3-2.8-.9-4-1.6l-71.9-4c-.9.7-2 1.2-3.2 1.4v2.1c.2.1.4.1.6.2H115.9l.6.3c.1 0 .1.1.2.1.3.1.5.3.7.5l-1.2-1.7 78 4.3v-1.6zM116.8 218.8c.2 0 .4.1.5.1h.1l.7-31.9h-3l-.6 31.8h.7c.5-.1 1.1-.1 1.6 0zM37.2 157.8v-.9l-.9-.3.9 1.2zM126.9 267.7c.6 1.3 1 2.7 1.3 4.2l55.5 56.2c-.1-.6-.2-1.2-.2-1.7h-.1c-1.2 0-2.1-1.8-2.1-4 0-.3 0-.6.1-.9l-53.2-53.8h-1.3zM193.7 342.3c.1 0 .3-.1.4-.1v-.8l-.4.9zM121.5 344.2c.2.9.4 1.9.4 2.9h-2l33.6 49.7c0-1.5.3-2.9.8-4.1l-32.8-48.5zM269 356l-68.4-17.3c-.4.1-.8.2-1.1.3v2.5l75.1 19-99.7 43.3v3.3L276.5 363v-2.5c-3-.7-5.6-2.3-7.5-4.5zM42.6 159.2c.4.1.7.2 1.1.3.1 0 .2 0 .2.1.4.1.7.3 1 .5.1 0 .1.1.2.1 1 .5 1.9 1.1 2.7 1.9l62.4 12.6c-.5-1.1-.8-2.2-1.2-3.3L42.4 158l.2 1.2zM293.1 93.6c-.1-.8-.2-1.5-.4-2.2-.2-.5-.3-1-.5-1.5L222 61.1c-.9.7-1.8 1.4-2.8 2.1l73.9 30.4zM186.5 357.9L172 389.4c.8.9 1.4 1.9 1.9 3l15.9-34.5h-3.3zM316.8 211.1l24.1 43.5c.1-1.4.4-3 .9-4.7L320.3 211h-3.5zM281.1 322l.4-38.9h-3l-.4 39c.4.1.7.2 1.1.3.6-.3 1.2-.4 1.9-.4zM304.5 211.1l-16.8 38.6c.8.8 1.5 1.8 2 2.9l18.1-41.5h-3.3zM168.4 242.8l-33 7.6c.8.8 1.5 1.6 2 2.6l31.2-7.2c-.3-.4-.6-.8-.8-1.1-.4-.7-.1-1.5.6-1.9zM307.1 117.2l2 54.4c.8-.3 1.6-.4 2.5-.4h.5l-2-54h-3zM195.6 109.4l4.9-26.9h-3l-4.6 25.4c.9.4 1.8.9 2.7 1.5zM104.6 326.7c-.5 0-.8-.4-1.1-.9l-61.3-44.2v3.3h.1c.1 0 .1 0 .2.1.2.1.5.1.7.2.1 0 .1 0 .2.1h.1c.1 0 .1 0 .2.1.1 0 .3.1.4.1 0 0 .1 0 .1.1.2.1.5.2.7.3h.1c.3.1.5.2.8.4h.1c.1 0 .2.1.3.1 0 0 .1 0 .1.1.1.1.3.1.4.2.3.2.5.3.8.5.4.2.7.5 1.1.8 0 0 .1 0 .1.1.7.6 1.4 1.2 2.1 1.9v.1c.9 1 1.7 2 2.5 3.2l53.4 38.4c-1.3-1.5-2-3.2-2.1-5zM355.7 296.5s.1 0 .1-.1c.2-.1.5-.2.7-.3.1 0 .1 0 .2-.1.2-.1.4-.2.7-.3.1 0 .2-.1.3-.1.2-.1.4-.1.6-.2.1 0 .2-.1.3-.1.2-.1.4-.1.6-.2v-3l-64.4 53.1c-.4 1.4-1.1 2.3-2 2.3h-.1c-.1 1.4-.4 2.7-.8 3.9l54.8-45.2c2-4.3 5.1-7.8 9-9.7zM46.5 278.8c-1.4.7-2.8 1.2-4.3 1.5v.8l5.2-1.6c-.3-.2-.6-.4-.9-.7zM115.3 310.6l.9-35.4h-3l-.9 35.2h.9c.7 0 1.4.1 2.1.2zM240.3 185.4c0-.2 0-.4.1-.6 0-.2.1-.3.1-.5s.1-.3.1-.5.1-.4.2-.5c0-.1.1-.3.1-.4.1-.2.1-.4.2-.6 0-.1.1-.2.1-.3l.3-.6c0-.1.1-.2.1-.3.1-.2.2-.4.3-.5.1-.1.1-.2.2-.3.1-.2.2-.3.4-.5 0-.1.1-.1.1-.2.8-1 1.8-1.8 2.9-2.4.1 0 .1 0 .2-.1l.6-.3c.1 0 .1 0 .2-.1.2-.1.4-.1.6-.2v-2.1c-3.2-.7-5.7-3.2-6.6-6.4l-49-26.2c-.2.1-.5.1-.7.2v2.8l55.6 29.8-42.8 45.5v4.4l36.7-38.9v-.2zM92.9 262.1L64 271.2c.2 1.1.5 2 .8 2.9l29.8-9.4c-.7-.8-1.3-1.7-1.7-2.6zM308.8 201.3c.1 0 .2-.1.2-.1.1 0 .2-.1.4-.1.1 0 .3-.1.4-.1v-2.1c-2.1-.4-4-1.7-5.2-3.5-.7-.5-1.4-1.1-1.9-1.8l-50.5-19.5c-.5.2-1.1.4-1.6.5v2.1l.6.2h.2c.1 0 .2.1.3.1l57.9 22.4-.8 1.9zM259.2 161.3c-.1.6-.2 1.1-.4 1.6.1.3.1.6.1 1l36.1-46.7h-.8c0-1.6.2-3.2.6-4.7l-35.6 46c.2.9.1 1.9 0 2.8zM313.4 201c.2 0 .3.1.5.1.1 0 .2.1.4.1.2.1.3.1.5.2.1 0 .2.1.3.1l-1.5-2.7h-.1l-.1 2.2z"/></g><g opacity=".75"><path fill="#ED5E51" d="M303 211.1c0-5.7 3.9-10.4 8.6-10.4s8.6 4.6 8.6 10.4H303z"/><path fill="#D94A3D" d="M311.6 200.8v10.4h8.6c.1-5.8-3.8-10.4-8.6-10.4z"/><path fill="#F7944B" d="M317.7 203.8c-1.6-1.8-3.7-3-6.1-3s-4.5 1.1-6.1 3c1.1 2.2 3.4 3.8 6.1 3.8s5-1.6 6.1-3.8z"/><path fill="#E6820E" d="M311.6 200.8v6.8c2.7 0 5-1.5 6.1-3.8-1.6-1.9-3.7-3-6.1-3z"/><ellipse fill="#808285" cx="311.6" cy="175.4" rx="5.9" ry="4.2"/><path fill="#939598" d="M300.9 188c0 6.1 4.8 9.3 10.7 9.3 5.9 0 10.7-3.2 10.7-9.3v-2.4h-21.4v2.4z"/><path fill="#F7C1A1" d="M315 201.6c-1-.5-2.2-.8-3.4-.8s-2.3.3-3.4.8c.4 1.5 1.7 2.6 3.4 2.6s3-1.1 3.4-2.6zM309.9 195.3h3.5v6.7h-3.5z"/><path fill="#F5B090" d="M313.4 201v-5.7h-1.7v8.9c1.6 0 3-1.1 3.4-2.6-.6-.3-1.2-.5-1.7-.6z"/><ellipse fill="#F7C1A1" cx="320.3" cy="188.1" rx="1.4" ry="2.6"/><ellipse fill="#F7C1A1" cx="303" cy="188.1" rx="1.4" ry="2.6"/><path fill="#F7C1A1" d="M311.6 176.6c-4.8 0-8.6 4-8.6 9v4.5c0 5 3.9 9 8.6 9 4.8 0 8.6-4 8.6-9v-4.5c.1-5-3.8-9-8.6-9z"/><path fill="#F5B090" d="M311.6 176.6c3.8 0 6.9 4 6.9 9v4.5c0 5-3.1 9-6.9 9 4.8 0 8.6-4 8.6-9v-4.5c.1-5-3.8-9-8.6-9z"/><path fill="#513432" d="M311.6 180.9z"/><path fill="#939598" d="M311.6 174.5c-5.9 0-10.7 5-10.7 11.1h2.1c.5-1.6 2.9-1.4 4.8-1.7 1.9-.3 3.8-2.9 3.8-2.9s1.9 2.6 3.8 2.9c1.9.3 4.4.1 4.8 1.7h2.1c0-6.1-4.8-11.1-10.7-11.1z"/><path fill="#513432" d="M153.4 410.1c0 .6.5 1 1 1h19.4c.6 0 1-.5 1-1v-13.2h-21.4v13.2z"/><path fill="#FFE999" d="M155.5 422.5c0-5.7 3.9-10.4 8.6-10.4s8.6 4.6 8.6 10.4h-17.2z"/><path fill="#F9CB64" d="M164.1 412.1v10.4h8.6c.1-5.7-3.8-10.4-8.6-10.4z"/><path fill="#F7C1A1" d="M167.5 412.9c-1-.5-2.2-.8-3.4-.8s-2.3.3-3.4.8c.4 1.5 1.7 2.6 3.4 2.6 1.7.1 3-1 3.4-2.6zM162.4 406.7h3.5v6.7h-3.5z"/><path fill="#F5B090" d="M165.9 412.3v-5.7h-1.7v8.9c1.6 0 3-1.1 3.4-2.6-.6-.2-1.2-.4-1.7-.6z"/><ellipse fill="#F7C1A1" cx="172.8" cy="399.5" rx="1.4" ry="2.6"/><ellipse fill="#F7C1A1" cx="155.5" cy="399.5" rx="1.4" ry="2.6"/><path fill="#F7C1A1" d="M164.1 387.9c-4.8 0-8.6 4-8.6 9v4.5c0 5 3.9 9 8.6 9 4.8 0 8.6-4 8.6-9v-4.5c.1-4.9-3.8-9-8.6-9z"/><path fill="#F5B090" d="M164.1 387.9c3.8 0 6.9 4 6.9 9v4.5c0 5-3.1 9-6.9 9 4.8 0 8.6-4 8.6-9v-4.5c.1-4.9-3.8-9-8.6-9z"/><path fill="#513432" d="M164.1 385.9c-5.9 0-10.7 5-10.7 11.1h2.1s1.9-4.8 6.3-5.2c0 0 4.5 11.6 11 5.2h2.1c0-6.2-4.8-11.1-10.8-11.1z"/><g opacity=".5"><path fill="#F69626" d="M341 262.7c.3 1.9.8 3.6 1.3 4.7 1.2 2.6 2.2 4.7 2.2 4.7h36.4l2.2-4.7c.5-1.2 1-2.9 1.3-4.7H341z"/><path fill="#FFE999" d="M344.5 316.6c0-12.1 8.1-21.8 18.2-21.8s18.2 9.8 18.2 21.8h-36.4z"/><path fill="#F9CB64" d="M362.7 294.8v21.8h18.2c0-12-8.1-21.8-18.2-21.8z"/><path fill="#F7C1A1" d="M369.8 296.5c-2.2-1.1-4.6-1.7-7.1-1.7s-4.9.6-7.1 1.7c.8 3.2 3.6 5.6 7.1 5.6 3.5 0 6.3-2.4 7.1-5.6zM359.1 283.3h7.3v14.1h-7.3z"/><path fill="#F5B090" d="M366.4 295.2v-12h-3.6V302c3.4 0 6.3-2.4 7.1-5.6-1.2-.5-2.3-.9-3.5-1.2z"/><ellipse fill="#F7C1A1" cx="380.9" cy="268.2" rx="2.9" ry="5.5"/><ellipse fill="#F7C1A1" cx="344.5" cy="268.2" rx="2.9" ry="5.5"/><path fill="#F7C1A1" d="M362.8 243.8c-10.1 0-18.2 8.4-18.3 18.9v9.5c0 10.5 8.1 19 18.1 19 10.1 0 18.2-8.4 18.3-18.9v-9.5c.1-10.4-8-18.9-18.1-19z"/><path fill="#F5B090" d="M362.7 243.8c8 0 14.6 8.5 14.6 18.9v9.5c0 10.5-6.5 18.9-14.6 18.9 10.1 0 18.2-8.5 18.2-18.9v-9.5c0-10.4-8.1-18.9-18.2-18.9z"/><path fill="#F69626" d="M379.9 244.4c-6.4-5.9-15.6-4.9-15.6-4.9 1-.8 2.8-1.3 4.1-1.6.8-.2.8-.4 0-.6-14-3.3-19.9 7.4-19.9 7.4-.2-1.1 1-3.5 1.8-5 .4-.7.1-1-.6-.6-10.1 5.4-9 20.1-9 20.1 0 1.2.1 2.5.3 3.6h3.5s4.2-10.1 11.1-12.7c1.8 1.8 4.3 2.9 7.1 2.9 2.7 0 5.2-1.1 7.1-2.9 6.9 2.6 11.1 12.7 11.1 12.7h3.5c.4-2.4.4-5-.2-7.2-1.5-4.6-4.3-8.6-8-11.5 1.1 0 2.4.4 3.3.7.9.3 1 .1.4-.4z"/></g><path fill="#FFE999" d="M20.2 306.4c0-12.1 8.2-22 18.3-22 10.1 0 18.3 9.8 18.3 22H20.2z"/><path fill="#F9CB64" d="M38.5 284.4v22h18.3c0-12.1-8.2-22-18.3-22z"/><path fill="#F7C1A1" d="M38.5 299.1c5.6 0 10.6-3.2 13.1-8.1-3.3-4.1-7.9-6.6-13.1-6.6-5.1 0-9.7 2.5-13.1 6.6 2.5 4.9 7.5 8.1 13.1 8.1zM34.9 272.8h7.3V287h-7.3z"/><path fill="#F5B090" d="M42.2 284.9v-12h-3.7v26.2c5.6 0 10.6-3.2 13.1-8.1-2.5-3.1-5.8-5.2-9.4-6.1z"/><g fill="#513432"><path d="M48.1 231c2.5-2.8 6-4.6 10.1-4.6 7.4 0 13.4 6 13.4 13.4 0 1.5-.3 2.9-.7 4.3-1.5-3.3-4.2-5.9-7.6-7.1.1.1 7.3 10.2 2.3 23.3-5 13.2 2.7 18.4 2.7 18.4s-11.7 9.8-23-.8h-6.7v-44.6l9.5-2.3zM29 231c-2.5-2.8-6-4.6-10.1-4.6-7.4 0-13.4 6-13.4 13.4 0 1.5.3 2.9.7 4.3 1.5-3.3 4.2-5.9 7.6-7.1-.1.1-7.3 10.2-2.3 23.3 5 13.2-2.7 18.4-2.7 18.4s11.7 9.8 23-.8h6.7v-44.6L29 231z"/></g><ellipse fill="#F7C1A1" cx="56.8" cy="257.7" rx="2.9" ry="5.5"/><ellipse fill="#F7C1A1" cx="20.2" cy="257.7" rx="2.9" ry="5.5"/><path fill="#F7C1A1" d="M38.5 233.2c-10.1 0-18.3 8.5-18.3 19v9.5c0 10.5 8.2 19 18.3 19 10.1 0 18.3-8.5 18.3-19v-9.5c0-10.5-8.2-19-18.3-19z"/><path fill="#F5B090" d="M38.5 233.2c8.1 0 14.6 8.5 14.6 19v9.5c0 10.5-6.6 19-14.6 19 10.1 0 18.3-8.5 18.3-19v-9.5c0-10.5-8.2-19-18.3-19z"/><path fill="#ED5E51" d="M29 231c-.7-.8-1.5-1.4-2.3-2-1.5.4-3.5 1.7-5.4 3.6-3 3-4.5 6.3-3.4 7.4 1.1 1.1 4.4-.4 7.4-3.4 2-2 3.3-4.1 3.7-5.6zM48.1 231c.7-.8 1.5-1.4 2.3-2 1.5.4 3.5 1.7 5.4 3.6 3 3 4.5 6.3 3.4 7.4-1.1 1.1-4.4-.4-7.4-3.4-2.1-2-3.4-4.1-3.7-5.6z"/><path fill="#513432" d="M60.1 245c-3-9.4-11.5-16.2-21.6-16.2-10.1 0-18.6 6.8-21.6 16.2-.7 2.2-.6 4.8-.3 7.2h3.5s15.2-1.7 18.3-9.7c3.1 8 18.3 9.7 18.3 9.7h3.5c.6-2.4.6-5.1-.1-7.2zM177.5 31.6c1.7-2.7 2.9-8.4 4.2-12.3 3-9.7 11.9-16.7 22.3-16.7s19.2 7 22.3 16.7c1.2 4 2.5 9.6 4.2 12.3 0 0 2.6 5.8 3 7.2C237.1 51.6 217 69 204.1 69c-12.9 0-33.1-17.4-29.4-30.2.2-1.4 1.1-4.5 2.8-7.2z"/><path fill="#FFE999" d="M185.1 82.5c0-12.5 8.4-22.6 18.9-22.6 10.4 0 18.9 10.1 18.9 22.6h-37.8z"/><path fill="#F9CB64" d="M203.9 59.9v22.6h18.9c0-12.5-8.5-22.6-18.9-22.6z"/><path fill="#87583C" d="M211.3 61.7c-2.3-1.1-4.7-1.8-7.3-1.8s-5.1.6-7.3 1.8c.8 3.3 3.8 5.8 7.3 5.8s6.5-2.5 7.3-5.8zM200.2 47.9h7.5v14.6h-7.5z"/><path fill="#804C2D" d="M207.7 60.3V47.9h-3.8v19.5c3.6 0 6.5-2.5 7.3-5.8-1.1-.5-2.3-1-3.5-1.3z"/><ellipse fill="#87583C" cx="222.8" cy="32.3" rx="3" ry="5.7"/><ellipse fill="#87583C" cx="185.1" cy="32.3" rx="3" ry="5.7"/><path fill="#87583C" d="M203.9 7C193.5 7 185 15.8 185 26.6v9.8c0 10.8 8.4 19.6 18.9 19.6 10.4 0 18.9-8.8 18.9-19.6v-9.8c0-10.8-8.5-19.6-18.9-19.6z"/><path fill="#804C2D" d="M203.9 7c8.3 0 15.1 8.8 15.1 19.6v9.8c0 10.8-6.8 19.6-15.1 19.6 10.4 0 18.9-8.8 18.9-19.6v-9.8c0-10.8-8.5-19.6-18.9-19.6z"/><path fill="#513432" d="M209.8 15.1s5.5 10.6 13 11.6h4.5c0-13.3-10.5-24.2-23.4-24.2-12.9 0-23.4 10.8-23.4 24.2h5.5c3.8-.1 18.2-1.1 23.8-11.6z"/><path fill="#FFE999" d="M101.5 101.3c0-9 6.1-16.3 13.6-16.3s13.6 7.3 13.6 16.3h-27.2z"/><path fill="#F9CB64" d="M115.1 85v16.3h13.6c0-9-6.1-16.3-13.6-16.3z"/><path fill="#F7C1A1" d="M112.4 76.3h5.4v10.6h-5.4zM120.4 86.2c-1.6-.8-3.4-1.3-5.3-1.3s-3.7.5-5.3 1.3l5.3 7.8 5.3-7.8z"/><path fill="#F5B090" d="M117.8 85.3v-8.9h-2.7V94l5.3-7.8c-.8-.4-1.7-.7-2.6-.9z"/><path fill="#513432" d="M115.1 43.6c-9.3 0-16.9 7.8-16.9 17.4v17.4c0 .9.7 1.3 1.5 1 3.7-1.3 9.2-2.1 15.4-2.1 6.1 0 11.6.8 15.4 2.1.9.3 1.5-.1 1.5-1V61c0-9.6-7.6-17.4-16.9-17.4zM98.2 61v17.4c0 .9.7 1.3 1.5 1 3.7-1.3 9.2-2.1 15.4-2.1 6.1 0 11.6.8 15.4 2.1.9.3 1.5-.1 1.5-1V61H98.2z"/><path fill="#F7C1A1" d="M115.1 46.8c-7.5 0-13.6 6.3-13.6 14.2v7.1c0 7.8 6.1 14.2 13.6 14.2s13.6-6.3 13.6-14.2V61c0-7.8-6.1-14.2-13.6-14.2z"/><path fill="#F5B090" d="M115.1 46.8c6 0 10.9 6.3 10.9 14.2v7.1c0 7.8-4.9 14.2-10.9 14.2 7.5 0 13.6-6.3 13.6-14.2V61c0-7.8-6.1-14.2-13.6-14.2z"/><path fill="#513432" d="M115.1 43.6c-9.3 0-16.9 7.8-16.9 17.4h3.3s1.7-1.3 5.6-2.2c.4-1.5 1.4-4.6 3.1-5.8 0 0-1.2 3-1.1 5.5 1.7-.3 3.6-.4 6-.4 2.3 0 4.3.2 6 .4.2-2.5-1.1-5.5-1.1-5.5 1.7 1.2 2.7 4.3 3.1 5.8 4 .9 5.6 2.2 5.6 2.2h3.3c0-9.6-7.6-17.4-16.9-17.4z"/><path fill="#FFE999" d="M240.2 186.9c0-5.7 3.9-10.4 8.6-10.4 4.8 0 8.6 4.6 8.6 10.4h-17.2z"/><path fill="#F9CB64" d="M248.9 176.5v10.4h8.6c0-5.7-3.8-10.4-8.6-10.4z"/><path fill="#E6820E" d="M255.1 179.7v7.2h2.4c0-2.8-.9-5.3-2.4-7.2z"/><path fill="#F7944B" d="M240.2 186.9h2.4v-7.2c-1.4 1.9-2.4 4.4-2.4 7.2z"/><path fill="#513432" d="M259.2 161.3c-.1.9-.4 1.7-.6 2.2l-1 2.2h-17.3s-.5-1-1-2.2c-.3-.5-.5-1.4-.6-2.2h20.5z"/><path fill="#F7C1A1" d="M252.2 177.3c-1-.5-2.2-.8-3.4-.8-1.2 0-2.3.3-3.4.8.4 1.5 1.7 2.6 3.4 2.6 1.7.1 3.1-1.1 3.4-2.6zM247.1 171h3.5v6.7h-3.5z"/><path fill="#F5B090" d="M250.6 176.7V171h-1.7v8.9c1.6 0 3-1.1 3.4-2.6-.6-.2-1.1-.4-1.7-.6z"/><ellipse fill="#F7C1A1" cx="257.5" cy="163.9" rx="1.4" ry="2.6"/><ellipse fill="#F7C1A1" cx="240.2" cy="163.9" rx="1.4" ry="2.6"/><path fill="#F7C1A1" d="M248.9 152.3c-4.8 0-8.6 4-8.6 9v4.5c0 5 3.9 9 8.6 9 4.8 0 8.6-4 8.6-9v-4.5c0-5-3.8-9-8.6-9z"/><path fill="#F5B090" d="M248.9 152.3c3.8 0 6.9 4 6.9 9v4.5c0 5-3.1 9-6.9 9 4.8 0 8.6-4 8.6-9v-4.5c0-5-3.8-9-8.6-9z"/><path fill="#513432" d="M259.2 161.3h-1.7s-1.8-4.6-4.6-4.6c-1.8 0-2.1 2-4 2s-2.3-2-4-2c-2.8 0-4.6 4.6-4.6 4.6h-1.7c-.2-1.1-.2-2.4.1-3.4 1.4-4.4 5.4-7.7 10.2-7.7 4.8 0 8.8 3.2 10.2 7.7.3 1 .3 2.3.1 3.4z"/><g opacity=".5"><path fill="#FFE999" d="M174.5 161.5c0-9 6.1-16.3 13.6-16.3s13.6 7.3 13.6 16.3h-27.2z"/><path fill="#F9CB64" d="M188.1 145.2v16.3h13.6c0-9-6.1-16.3-13.6-16.3z"/><path fill="#E6820E" d="M197.9 150.2v11.3h3.8c0-4.4-1.4-8.4-3.8-11.3z"/><path fill="#F7944B" d="M174.5 161.5h3.8v-11.3c-2.4 2.9-3.8 6.9-3.8 11.3z"/><path fill="#87583C" d="M185.4 136.6h5.4v10.6h-5.4zM193.4 146.5c-1.6-.8-3.4-1.3-5.3-1.3s-3.7.5-5.3 1.3l5.3 7.8 5.3-7.8z"/><path fill="#804C2D" d="M190.8 145.5v-8.9h-2.7v17.7l5.3-7.8c-.8-.4-1.7-.8-2.6-1z"/><circle fill="#939598" cx="178.3" cy="118.1" r="7.2"/><circle fill="#939598" cx="197.9" cy="118.1" r="7.2"/><ellipse fill="#87583C" cx="201.7" cy="125.3" rx="2.2" ry="4.1"/><ellipse fill="#87583C" cx="174.5" cy="125.3" rx="2.2" ry="4.1"/><path fill="#87583C" d="M188.1 107.1c-7.5 0-13.6 6.3-13.6 14.2v7.1c0 7.8 6.1 14.2 13.6 14.2s13.6-6.3 13.6-14.2v-7.1c0-7.9-6.1-14.2-13.6-14.2z"/><path fill="#804C2D" d="M188.1 107.1c6 0 10.9 6.3 10.9 14.2v7.1c0 7.8-4.9 14.2-10.9 14.2 7.5 0 13.6-6.3 13.6-14.2v-7.1c0-7.9-6.1-14.2-13.6-14.2z"/><path fill="#939598" d="M188.1 133.6c3.8 3.8 7.4 1.8 9 .6.5-.4.3-.5-.3-.6-1.1-.1-2.7-.8-3.8-2.7-1.6-2.7-4.9-.3-4.9-.3s-3.3-2.4-4.9.3c-1.1 1.9-2.7 2.6-3.8 2.7-.6.1-.7.2-.3.6 1.6 1.2 5.2 3.2 9-.6z"/><path fill="#808285" d="M196.8 133.6c-1.1-.1-2.7-.8-3.8-2.7-1.6-2.7-4.9-.3-4.9-.3v2.9c3.8 3.8 7.4 1.8 9 .6.5-.3.3-.4-.3-.5z"/><path fill="#804C2D" d="M193.3 114.6H183c-.3 0-.5-.2-.5-.5s.2-.5.5-.5h10.3c.3 0 .5.2.5.5s-.2.5-.5.5zM194.9 117.1h-13.6c-.3 0-.5-.2-.5-.5s.2-.5.5-.5h13.6c.3 0 .5.2.5.5.1.3-.2.5-.5.5z"/></g><g opacity=".5"><path fill="#F69626" d="M326.8 100.2c-4.9-2.6-4.4-6.5-3.7-8.7.8-2.4 1.7-4.8 1.7-7.5v-7.1H291V84c0 2.7.9 5.1 1.7 7.5.7 2.3 1.2 6.2-3.7 8.7-.8.4-1.2 1.3-.7 2.1 1.9 3.1 7.4 9.9 19.7 9.9 12.3 0 17.8-6.8 19.7-9.9.3-.8-.1-1.7-.9-2.1z"/><path fill="#FFE999" d="M294.2 117.2c0-9 6.1-16.3 13.6-16.3s13.6 7.3 13.6 16.3h-27.2z"/><path fill="#F9CB64" d="M307.8 100.8v16.3h13.6c.1-8.9-6-16.3-13.6-16.3z"/><path fill="#F7C1A1" d="M313.1 102.1c-1.6-.8-3.4-1.3-5.3-1.3s-3.7.5-5.3 1.3c.6 2.4 2.7 4.2 5.3 4.2s4.8-1.8 5.3-4.2zM305.1 92.2h5.4v10.6h-5.4z"/><path fill="#F5B090" d="M310.6 101.2v-8.9h-2.7v14.1c2.6 0 4.7-1.8 5.3-4.2-.9-.5-1.7-.8-2.6-1z"/><ellipse fill="#F7C1A1" cx="321.5" cy="81" rx="2.2" ry="4.1"/><ellipse fill="#F7C1A1" cx="294.2" cy="81" rx="2.2" ry="4.1"/><path fill="#F7C1A1" d="M307.8 62.7c-7.5 0-13.6 6.3-13.6 14.2V84c0 7.8 6.1 14.2 13.6 14.2s13.6-6.3 13.6-14.2v-7.1c.1-7.8-6-14.2-13.6-14.2z"/><path fill="#F5B090" d="M307.8 62.7c6 0 10.9 6.3 10.9 14.2V84c0 7.8-4.9 14.2-10.9 14.2 7.5 0 13.6-6.3 13.6-14.2v-7.1c.1-7.8-6-14.2-13.6-14.2z"/><path fill="#F69626" d="M307.8 59.4c-9.3 0-16.9 7.8-16.9 17.4h3.3s2.1-1.2 5-2.2c2.9-1 5.4-5.3 5.4-5.3 1.3 2.6 6.4 5.2 10 5.4 3.6.3 6.8 2.1 6.8 2.1h3.3c0-9.5-7.5-17.4-16.9-17.4z"/></g><path fill="#513432" d="M205.6 242.7c-4.8-2.5-4.3-6.4-3.6-8.6.8-2.3 1.6-4.7 1.6-7.4v-6.9c0-9.4-7.4-17.1-16.5-17.1s-16.5 7.7-16.5 17.1v6.9c0 2.6.9 5 1.6 7.4.7 2.2 1.2 6-3.6 8.6-.8.4-1.2 1.3-.7 2 1.8 3 7.2 9.7 19.3 9.7 12 0 17.4-6.7 19.3-9.7.3-.8-.1-1.6-.9-2z"/><path fill="#FFB583" d="M173.8 259.3c0-8.8 6-16 13.3-16 7.4 0 13.3 7.2 13.3 16h-26.6z"/><path fill="#F7944B" d="M187.1 243.3v16h13.3c0-8.9-5.9-16-13.3-16z"/><path fill="#FFE999" d="M181.9 244.5c-.8 2.2 0 9.4 5.2 9.4v-10.7c-1.8.1-3.6.5-5.2 1.3z"/><path fill="#F9CB64" d="M192.3 244.5c.8 2.2 0 9.4-5.2 9.4v-10.7c1.8.1 3.6.5 5.2 1.3z"/><path fill="#F7C1A1" d="M192.3 244.5c-1.6-.8-3.3-1.3-5.2-1.3s-3.6.4-5.2 1.3c.6 2.3 2.7 4.1 5.2 4.1s4.6-1.7 5.2-4.1zM184.4 234.8h5.3v10.3h-5.3z"/><path fill="#F5B090" d="M189.8 243.6v-8.8h-2.7v13.8c2.5 0 4.6-1.7 5.2-4.1-.8-.4-1.7-.7-2.5-.9z"/><ellipse fill="#F7C1A1" cx="200.4" cy="223.8" rx="2.1" ry="4"/><path fill="#F7C1A1" d="M187.1 205.9c-7.4 0-13.3 6.2-13.3 13.9v6.9c0 7.7 6 13.9 13.3 13.9s13.3-6.2 13.3-13.9v-6.9c0-7.7-5.9-13.9-13.3-13.9z"/><path fill="#F5B090" d="M187.1 205.9c5.9 0 10.7 6.2 10.7 13.9v6.9c0 7.7-4.8 13.9-10.7 13.9 7.4 0 13.3-6.2 13.3-13.9v-6.9c0-7.7-5.9-13.9-13.3-13.9z"/><path fill="#513432" d="M187.1 202.7c-9.1 0-16.5 7.7-16.5 17.1v6.9c0 2.6.9 5 1.6 7.4.3 1 .6 2.3.4 3.7h3.9c-1.1-2.9-.6-12.7 5.5-15.6s10.4-9.7 10.4-9.7c3.8 1.7 8.2 7.3 8.2 7.3h3.2c-.2-9.4-7.6-17.1-16.7-17.1z"/><g opacity=".5"><path fill="#513432" d="M269.8 257.5c.1.9.4 1.7.6 2.2.6 1.2 1 2.2 1 2.2h17.3l1-2.2c.3-.5.5-1.4.6-2.2h-20.5z"/><path fill="#FFE999" d="M271.4 283.1c0-5.7 3.9-10.4 8.6-10.4 4.8 0 8.6 4.6 8.6 10.4h-17.2z"/><path fill="#F9CB64" d="M280.1 272.7v10.4h8.6c0-5.7-3.8-10.4-8.6-10.4z"/><path fill="#F7C1A1" d="M283.4 273.5c-1-.5-2.2-.8-3.4-.8-1.2 0-2.3.3-3.4.8.4 1.5 1.7 2.6 3.4 2.6 1.7.1 3.1-1.1 3.4-2.6zM278.4 267.2h3.5v6.7h-3.5z"/><path fill="#F5B090" d="M281.8 272.9v-5.7h-1.7v8.9c1.6 0 3-1.1 3.4-2.6-.6-.2-1.1-.4-1.7-.6z"/><ellipse fill="#F7C1A1" cx="288.7" cy="260.1" rx="1.4" ry="2.6"/><ellipse fill="#F7C1A1" cx="271.4" cy="260.1" rx="1.4" ry="2.6"/><path fill="#F7C1A1" d="M280.1 248.5c-4.8 0-8.6 4-8.6 9v4.5c0 5 3.9 9 8.6 9s8.6-4 8.6-9v-4.5c0-5-3.8-9-8.6-9z"/><path fill="#F5B090" d="M280.1 248.5c3.8 0 6.9 4 6.9 9v4.5c0 5-3.1 9-6.9 9 4.8 0 8.6-4 8.6-9v-4.5c0-5-3.8-9-8.6-9z"/><path fill="#513432" d="M275.4 246.9c-.4-.1-.7-.3-.9-.5-.4-.4-.6-.5-.6.1-.1.8 0 1.9 0 1.9-.7-.1-1.3-.5-1.8-.9-.4-.4-.6-.3-.4.2.2.7.5 1.4.7 2-1.2 1.2-2 2.7-2.6 4.3-.3 1-.3 2.3-.1 3.4h1.7s1.6-3.3 3.8-3.8c4 3.1 9-.7 9-.7s1 4.6 4.5 4.6h1.7c.2-1.1.2-2.4-.1-3.4-1.4-4.4-5.4-7.7-10.2-7.7-.7 0-1.4.1-2 .2-1 .2-2.1.5-2.7.3z"/></g><g opacity=".75"><path fill="#513432" d="M102.9 321.5c.1.9.4 1.7.6 2.2.6 1.2 1 2.2 1 2.2h17.3l1-2.2c.3-.5.5-1.4.6-2.2h-20.5z"/><path fill="#FFE999" d="M104.6 347.1c0-5.7 3.9-10.4 8.6-10.4s8.6 4.6 8.6 10.4h-17.2z"/><path fill="#F9CB64" d="M113.2 336.7v10.4h8.6c.1-5.8-3.8-10.4-8.6-10.4z"/><path fill="#87583C" d="M116.6 337.5c-1-.5-2.2-.8-3.4-.8s-2.3.3-3.4.8c.4 1.5 1.7 2.6 3.4 2.6s3-1.1 3.4-2.6zM111.5 331.2h3.5v6.7h-3.5z"/><path fill="#804C2D" d="M115 336.9v-5.7h-1.7v8.9c1.6 0 3-1.1 3.4-2.6-.6-.3-1.2-.5-1.7-.6z"/><ellipse fill="#87583C" cx="121.9" cy="324.1" rx="1.4" ry="2.6"/><ellipse fill="#87583C" cx="104.6" cy="324.1" rx="1.4" ry="2.6"/><path fill="#87583C" d="M113.2 312.5c-4.8 0-8.6 4-8.6 9v4.5c0 5 3.9 9 8.6 9 4.8 0 8.6-4 8.6-9v-4.5c.1-5-3.8-9-8.6-9z"/><path fill="#804C2D" d="M113.2 312.5c3.8 0 6.9 4 6.9 9v4.5c0 5-3.1 9-6.9 9 4.8 0 8.6-4 8.6-9v-4.5c.1-5-3.8-9-8.6-9z"/><path fill="#513432" d="M108.6 310.9c-.4-.1-.7-.3-.9-.5-.4-.4-.6-.5-.6.1-.1.8 0 1.9 0 1.9-.7-.1-1.3-.5-1.8-.9-.4-.4-.6-.3-.4.2.2.7.5 1.4.7 2-1.2 1.2-2 2.7-2.6 4.3-.3 1-.3 2.3-.1 3.4h1.7s1.6-3.3 3.8-3.8c4 3.1 9-.7 9-.7s1 4.6 4.5 4.6h1.7c.2-1.1.2-2.4-.1-3.4-1.4-4.4-5.4-7.7-10.2-7.7-.7 0-1.4.1-2 .2-1 .2-2.2.5-2.7.3z"/></g><g opacity=".5"><path fill="#F69626" d="M131.7 248.2v-12.4c0-9.4-7.4-17.1-16.5-17.1s-16.5 7.7-16.5 17.1v12.4c-4 1.3-6.8 5.1-6.8 9.5 0 5.5 4.5 10 10 10h26.7c5.5 0 10-4.5 10-10-.1-4.4-2.9-8.2-6.9-9.5z"/><path fill="#FFE999" d="M101.8 275.3c0-8.8 6-16 13.3-16 7.4 0 13.3 7.2 13.3 16h-26.6z"/><path fill="#F9CB64" d="M115.2 259.3v16h13.3c0-8.9-6-16-13.3-16z"/><path fill="#513432" d="M114.1 259.3v16h2.2v-16c-.4 0-.7-.1-1.1-.1-.4.1-.8.1-1.1.1zM115.2 264.8c.9 1.3 2.4 2.2 4.2 2.2 2.3 0 4.2-1.5 4.8-3.5-2.4-2.6-5.5-4.2-9-4.2s-6.6 1.6-9 4.2c.6 2 2.6 3.5 4.8 3.5 1.7 0 3.3-.9 4.2-2.2z"/><path fill="#F7C1A1" d="M120.4 260.5c-1.6-.8-3.3-1.3-5.2-1.3-1.8 0-3.6.4-5.2 1.3.6 2.3 2.7 4.1 5.2 4.1s4.6-1.7 5.2-4.1zM112.5 250.8h5.3v10.3h-5.3z"/><path fill="#F5B090" d="M117.8 259.6v-8.8h-2.7v13.8c2.5 0 4.6-1.7 5.2-4.1-.7-.4-1.6-.7-2.5-.9z"/><ellipse fill="#F7C1A1" cx="128.5" cy="239.8" rx="2.1" ry="4"/><ellipse fill="#F7C1A1" cx="101.8" cy="239.8" rx="2.1" ry="4"/><path fill="#F7C1A1" d="M115.2 221.9c-7.4 0-13.3 6.2-13.3 13.9v6.9c0 7.7 6 13.9 13.3 13.9 7.4 0 13.3-6.2 13.3-13.9v-6.9c0-7.7-6-13.9-13.3-13.9z"/><path fill="#F5B090" d="M115.2 221.9c5.9 0 10.7 6.2 10.7 13.9v6.9c0 7.7-4.8 13.9-10.7 13.9 7.4 0 13.3-6.2 13.3-13.9v-6.9c0-7.7-6-13.9-13.3-13.9z"/><path fill="#F69626" d="M108.4 229.4c1.3 2.4 3.8 4.1 6.7 4.1 2.9 0 5.5-1.7 6.7-4.1.1 3.6 3 6.4 6.6 6.4 1.2 0 2.2-.3 3.2-.8-.4-9-7.7-16.3-16.5-16.3-8.9 0-16.1 7.2-16.5 16.3.9.5 2 .8 3.2.8 3.6 0 6.6-2.9 6.6-6.4z"/></g><path fill="#FFE999" d="M183.4 357.9c0-8.8 6-16 13.3-16 7.4 0 13.3 7.2 13.3 16h-26.6z"/><path fill="#F9CB64" d="M196.8 341.9v16h13.3c0-8.8-5.9-16-13.3-16z"/><path fill="#FFE999" d="M187.8 346.1l9 6.9v-11.1c-3.5 0-6.6 1.6-9 4.2z"/><path fill="#F9CB64" d="M196.8 341.9V353l9-6.9c-2.4-2.6-5.6-4.2-9-4.2z"/><path fill="#513432" d="M180.9 318.4c.2 1.4.6 2.6 1 3.5.9 1.9 1.6 3.5 1.6 3.5h26.7l1.6-3.5c.4-.8.8-2.1 1-3.5h-31.9z"/><path fill="#F7C1A1" d="M202 343.1c-1.6-.8-3.3-1.3-5.2-1.3s-3.6.4-5.2 1.3c.6 2.3 2.7 4.1 5.2 4.1s4.6-1.7 5.2-4.1zM194.1 333.5h5.3v10.3h-5.3z"/><path fill="#F5B090" d="M199.5 342.2v-8.8h-2.7v13.8c2.5 0 4.6-1.7 5.2-4.1-.8-.4-1.7-.7-2.5-.9z"/><ellipse fill="#F7C1A1" cx="210.1" cy="322.4" rx="2.1" ry="4"/><ellipse fill="#F7C1A1" cx="183.4" cy="322.4" rx="2.1" ry="4"/><path fill="#F7C1A1" d="M196.8 304.5c-7.4 0-13.3 6.2-13.3 13.9v6.9c0 7.7 6 13.9 13.3 13.9 7.4 0 13.3-6.2 13.3-13.9v-6.9c0-7.6-5.9-13.9-13.3-13.9z"/><path fill="#F5B090" d="M196.8 304.5c5.9 0 10.7 6.2 10.7 13.9v6.9c0 7.7-4.8 13.9-10.7 13.9 7.4 0 13.3-6.2 13.3-13.9v-6.9c0-7.6-5.9-13.9-13.3-13.9z"/><path fill="#513432" d="M212.5 313.2c-.7-2.2-1.8-4.2-3.3-6 .3-.8.4-1.6.5-2.5v-.8c0-2.2-.7-4.3-1.9-6-1.1 2.3-3.3 4-5.9 4.3-1.6-.6-3.4-.9-5.2-.9-2.9 0-5.6.8-8 2.1-3.6 2.1-6.4 5.5-7.7 9.7-.5 1.6-.5 3.5-.2 5.3h2.6s2.6-6 7.3-8.4c1.9 2.7 5 4.4 8.5 4.4 2.2 0 4.2-.6 5.8-1.8 1.6 1 3.8 2.9 5 5.8h2.6c.4-1.7.4-3.7-.1-5.2z"/><path fill="#ED5E51" d="M210.5 317.5h-8c-1 0-2.5.2-3.3.8-.2.2-.5.4-.6.6H195l-.6-.6c-.8-.6-2.4-.8-3.3-.8h-8c-.3 0-.6.3-.6.6s.3.6.6.6h1.5c-.2.6-.4 1.2-.4 1.9 0 2.8 2.5 5.1 5.5 5.1 2.8 0 5.2-2 5.5-4.6.3 0 .5-.3.5-.6v-.4h2.6v.4c0 .3.2.5.5.6.3 2.6 2.6 4.6 5.5 4.6 3 0 5.5-2.3 5.5-5.1 0-.7-.1-1.3-.4-1.9h1.5c.3 0 .6-.3.6-.6-.4-.3-.6-.6-1-.6zm-20.9 7.5c-2.7 0-4.9-2-4.9-4.5 0-.7.2-1.3.4-1.9h5.6c1 0 2.4.2 3 .6.4.3.7.7.7 1.1 0 .1 0 .2.1.3-.1 2.5-2.3 4.4-4.9 4.4zm14.4 0c-2.6 0-4.8-1.9-4.9-4.3.1-.1.1-.2.1-.3 0-.5.3-.8.7-1.1.6-.5 2-.6 3-.6h5.6c.3.6.4 1.2.4 1.9 0 2.4-2.2 4.4-4.9 4.4z"/><path fill="#D94A3D" d="M210.5 317.5h-8c-1 0-2.5.2-3.3.8-.2.2-.5.4-.6.6h-1.8v1.2h1.3v.4c0 .3.2.5.5.6.3 2.6 2.6 4.6 5.5 4.6 3 0 5.5-2.3 5.5-5.1 0-.7-.1-1.3-.4-1.9h1.5c.3 0 .6-.3.6-.6-.2-.3-.4-.6-.8-.6zM204 325c-2.6 0-4.8-1.9-4.9-4.3.1-.1.1-.2.1-.3 0-.5.3-.8.7-1.1.6-.5 2-.6 3-.6h5.6c.3.6.4 1.2.4 1.9 0 2.4-2.2 4.4-4.9 4.4z"/><path fill="#513432" d="M127.1 158c-1.4-4.4-5.4-7.7-10.2-7.7-4.8 0-8.8 3.2-10.2 7.7-.3 1-.3 2.3-.1 3.4.1.9.4 1.7.6 2.2.6 1.2 1 2.2 1 2.2h17.3l1-2.2c.3-.5.5-1.4.6-2.2.3-1.2.3-2.4 0-3.4z"/><path fill="#FFE999" d="M108.2 187c0-5.7 3.9-10.4 8.6-10.4 4.8 0 8.6 4.6 8.6 10.4h-17.2z"/><path fill="#F9CB64" d="M116.9 176.6V187h8.6c0-5.8-3.9-10.4-8.6-10.4z"/><path fill="#F7C1A1" d="M120.2 177.4c-1-.5-2.2-.8-3.4-.8-1.2 0-2.3.3-3.4.8.4 1.5 1.7 2.6 3.4 2.6s3-1.1 3.4-2.6zM115.1 171.1h3.5v6.7h-3.5z"/><path fill="#F5B090" d="M118.6 176.8v-5.7h-1.7v8.9c1.6 0 3-1.1 3.4-2.6-.6-.3-1.2-.5-1.7-.6z"/><ellipse fill="#F7C1A1" cx="125.5" cy="164" rx="1.4" ry="2.6"/><ellipse fill="#F7C1A1" cx="108.2" cy="164" rx="1.4" ry="2.6"/><path fill="#F7C1A1" d="M116.9 152.4c-4.8 0-8.6 4-8.6 9v4.5c0 5 3.9 9 8.6 9 4.8 0 8.6-4 8.6-9v-4.5c0-5-3.9-9-8.6-9z"/><path fill="#F5B090" d="M116.9 152.4c3.8 0 6.9 4 6.9 9v4.5c0 5-3.1 9-6.9 9 4.8 0 8.6-4 8.6-9v-4.5c0-5-3.9-9-8.6-9z"/><path fill="#513432" d="M125.4 152.9c-.9.1-2.3-.6-3.1-1.1-1.6-1-3.5-1.5-5.4-1.5-4.8 0-8.8 3.2-10.2 7.7-.3 1-.3 2.3-.1 3.4h1.7s2.5-5 5.9-5c3.5 0 3 3.2 7.7 3.2 6.7 0 6.1-6.8 6-7.5-.1 0-1 .6-2.5.8zM125 158.4c-.2 2.8-.8 7.9-2 8.7 0 0-2.4-1.1-6.2-1.1-3.7 0-6.2 1.1-6.2 1.1-1.2-.8-1.8-5.8-2-8.7-.3.9-.5 1.9-.5 3v4.5c0 5 3.9 15.9 8.6 15.9 4.8 0 8.6-10.9 8.6-15.9v-4.5c.2-1.1 0-2.1-.3-3z"/><path fill="#F7C1A1" d="M113.4 168.8c.7 1.6 2 2.6 3.5 2.6s2.7-1.1 3.5-2.6h-7z"/><g opacity=".5"><path fill="#FFE999" d="M26.3 175.2c0-9 6.1-16.3 13.6-16.3s13.6 7.3 13.6 16.3H26.3z"/><path fill="#F9CB64" d="M39.9 158.9v16.3h13.6c0-9-6.1-16.3-13.6-16.3z"/><path fill="#E6820E" d="M49.7 163.9v11.3h3.8c0-4.4-1.5-8.3-3.8-11.3z"/><path fill="#F7944B" d="M26.3 175.2h3.8v-11.3c-2.4 3-3.8 6.9-3.8 11.3z"/><path fill="#513432" d="M55.9 129.6c-2.2-7-8.6-12.1-16.1-12.1-7.5 0-13.9 5.1-16.1 12.1-.5 1.6-.5 3.6-.2 5.4.2 1.4.6 2.7 1 3.5.9 2 1.6 3.5 1.6 3.5h27.2l1.6-3.5c.4-.9.8-2.1 1-3.5.5-1.8.5-3.8 0-5.4z"/><path fill="#87583C" d="M45.2 160.2c-1.6-.8-3.4-1.3-5.3-1.3s-3.7.5-5.3 1.3c.6 2.4 2.7 4.2 5.3 4.2 2.5 0 4.7-1.8 5.3-4.2zM37.2 150.3h5.4v10.6h-5.4z"/><path fill="#804C2D" d="M42.6 159.2v-8.9h-2.7v14.1c2.6 0 4.7-1.8 5.3-4.2-.9-.4-1.7-.7-2.6-1z"/><ellipse fill="#87583C" cx="53.5" cy="139" rx="2.2" ry="4.1"/><ellipse fill="#87583C" cx="26.3" cy="139" rx="2.2" ry="4.1"/><path fill="#87583C" d="M39.9 120.8c-7.5 0-13.6 6.3-13.6 14.2v7.1c0 7.8 6.1 14.2 13.6 14.2s13.6-6.3 13.6-14.2V135c0-7.9-6.1-14.2-13.6-14.2z"/><path fill="#804C2D" d="M39.9 120.8c6 0 10.9 6.3 10.9 14.2v7.1c0 7.8-4.9 14.2-10.9 14.2 7.5 0 13.6-6.3 13.6-14.2V135c0-7.9-6.1-14.2-13.6-14.2z"/><path fill="#513432" d="M52.7 130.3c-.4 4.5-1.3 12.4-3.1 13.6 0 0-3.8-1.8-9.7-1.8-5.9 0-9.7 1.8-9.7 1.8-1.9-1.3-2.8-9.2-3.1-13.6-.5 1.5-.8 3-.8 4.7v7.1c0 7.8 6.1 15.3 13.6 15.3s13.6-7.4 13.6-15.3V135c0-1.7-.3-3.3-.8-4.7z"/><path fill="#87583C" d="M34.4 146.6c1.1 2.5 3.1 4.2 5.4 4.2 2.3 0 4.3-1.7 5.4-4.2H34.4z"/><path fill="#F7944B" d="M24.6 128.2c0-7.2 6.8-13 15.3-13 8.4 0 15.3 5.8 15.3 13H24.6z"/><path fill="#E6820E" d="M39.9 115.2v13h15.3c-.1-7.1-6.9-13-15.3-13z"/><path fill="#ED5E51" d="M56.3 126.5c-4-2.8-9.9-4.5-16.4-4.5-6.5 0-12.4 1.7-16.4 4.5-.7.5-1.3 1.7-1.3 2.6v3.4c0 .9.6 1.2 1.3.7 4-2.8 9.9-4.5 16.4-4.5 6.5 0 12.4 1.7 16.4 4.5.7.5 1.3.3 1.3-.7v-3.4c0-.8-.6-2-1.3-2.6z"/><path fill="#D94A3D" d="M25.5 125.3v6.7c-.6.3-1.1.6-1.6 1v-6.7c.5-.4 1.1-.7 1.6-1zM28.9 123.8v6.7c-.6.2-1.1.4-1.6.6v-6.7c.5-.1 1-.4 1.6-.6zM32.3 122.9v6.7c-.6.1-1.1.3-1.6.4v-6.7c.5-.2 1-.3 1.6-.4zM35.6 122.3v6.7c-.6.1-1.1.1-1.6.2v-6.7c.6-.1 1.1-.1 1.6-.2zM39 122.1v6.7c-.6 0-1.1 0-1.6.1v-6.7c.5-.1 1.1-.1 1.6-.1zM42.4 122.1v6.7c-.5 0-1.1-.1-1.6-.1V122c.5.1 1 .1 1.6.1zM45.7 122.5v6.7c-.5-.1-1.1-.2-1.6-.2v-6.7c.6.1 1.1.1 1.6.2zM49.1 123.3v6.7c-.5-.1-1.1-.3-1.6-.4v-6.7c.5.1 1.1.2 1.6.4zM52.5 124.5v6.7c-.5-.2-1.1-.4-1.6-.6v-6.7c.5.1 1.1.4 1.6.6zM55.8 126.3v6.7c-.5-.3-1.1-.7-1.6-1v-6.7c.6.3 1.1.6 1.6 1z"/></g><path fill="#FFE999" d="M265.5 379.8c0-9 6.1-16.3 13.6-16.3s13.6 7.3 13.6 16.3h-27.2z"/><path fill="#F9CB64" d="M279.2 363.4v16.3h13.6c0-9-6.1-16.3-13.6-16.3z"/><path fill="#87583C" d="M276.4 354.8h5.4v10.6h-5.4zM284.4 364.7c-1.6-.8-3.4-1.3-5.3-1.3s-3.7.5-5.3 1.3l5.3 7.8 5.3-7.8z"/><path fill="#804C2D" d="M281.9 363.7v-8.9h-2.7v17.7l5.3-7.8c-.9-.4-1.7-.7-2.6-1z"/><path fill="#513432" d="M263.6 334.1c-.4-1.8.4-3.5 2.3-4.7.2-1.8 1.5-3.1 3.6-3.7.8-1.6 2.5-2.5 4.5-2.4 1.4-1.3 3.3-1.6 5.2-.9 1.9-.7 3.8-.4 5.2.9 2.1-.1 3.7.8 4.5 2.4 2 .6 3.3 1.9 3.6 3.7 1.9 1.2 2.7 2.9 2.3 4.7 1.2.7 1.3 1.5.4 2.3 1 1 1 1.8-.1 2.4.9 1.1.7 1.9-.4 2.2.8 1.1.5 1.8-.6 1.8.9.5.5 1.4-.4.9.9.6.5 1.5-.4.9.9.6.4 1.5-.4.9.8.7.4 1.6-.4.9.8.7-6.2.7-6.6 0 .4.7-6.6.7-6.6 0 0 .7-7 .7-6.6 0-.4.7-7.4.7-6.6 0-.8.7-.9.6-.1-.3-.9.5-1 .3-.3-.7-1 .3-1.2-.1-.5-1.1-1.1.2-1.3-.3-.6-1.3-1.1 0-1.4-.6-.6-1.8-1.1-.3-1.3-1.1-.4-2.2-1.1-.6-1.1-1.4-.1-2.4-1.2-1-1.1-1.8.1-2.5z"/><ellipse fill="#87583C" cx="292.8" cy="343.5" rx="2.2" ry="4.1"/><ellipse fill="#87583C" cx="265.5" cy="343.5" rx="2.2" ry="4.1"/><path fill="#87583C" d="M279.2 325.3c-7.5 0-13.6 6.3-13.6 14.2v7.1c0 7.8 6.1 14.2 13.6 14.2s13.6-6.3 13.6-14.2v-7.1c0-7.9-6.1-14.2-13.6-14.2z"/><path fill="#804C2D" d="M279.2 325.3c6 0 10.9 6.3 10.9 14.2v7.1c0 7.8-4.9 14.2-10.9 14.2 7.5 0 13.6-6.3 13.6-14.2v-7.1c0-7.9-6.1-14.2-13.6-14.2z"/><path fill="#513432" d="M295.1 336.4c.9-.7.8-1.5-.4-2.3.4-1.8-.4-3.5-2.3-4.7-.2-1.8-1.5-3.1-3.6-3.7-.8-1.6-2.5-2.5-4.5-2.4-1.4-1.3-3.3-1.6-5.2-.9-1.9-.7-3.8-.4-5.2.9-2.1-.1-3.7.8-4.5 2.4-2 .6-3.3 1.9-3.6 3.7-1.9 1.2-2.7 2.9-2.3 4.7-1.2.7-1.3 1.5-.4 2.3-1 1-1 1.8.1 2.4-.2.3-.3.5-.4.7h2.7c1.6 3.5 4.9 2.9 4.4 0-.5-2.8 1.3-5.5 1.4-5.6 1.8 1.3 4.7 2.2 7.8 2.2 3.2 0 6-.8 7.8-2.2.1.1 1.9 2.8 1.4 5.6-.5 2.9 2.7 3.5 4.4 0h2.7c-.1-.2-.2-.5-.4-.7 1.1-.6 1.1-1.5.1-2.4z"/></g></svg>