<svg xmlns="http://www.w3.org/2000/svg" width="414" height="414" viewBox="0 0 414 414"><radialGradient id="a" cx="-3160.638" cy="3325.384" r="210.901" gradientTransform="matrix(.707 .707 -.707 .707 4789.651 70.562)" gradientUnits="userSpaceOnUse"><stop offset="0" stop-color="#fff" stop-opacity=".3"/><stop offset=".919" stop-color="#fff" stop-opacity=".943"/><stop offset="1" stop-color="#fff"/></radialGradient><path opacity=".2" fill="url(#a)" d="M350.8 30.1c-2.9 2.9-4.1 6.7-3.7 10.5l-50.7 10.5c-.6-1.9-1.6-3.7-3.1-5.3-5.1-5.1-13.2-5.1-18.3 0-.5.5-1 1.1-1.4 1.7L225 19.9c2.1-4.7 1.2-10.5-2.7-14.4-5.1-5.1-13.2-5.1-18.3 0-2.3 2.3-3.5 5.3-3.7 8.3l-68.4 2.4c-.4-2.7-1.5-5.3-3.6-7.4-5.1-5.1-13.2-5.1-18.3 0-5.1 5.1-5.1 13.2 0 18.3 1.7 1.7 3.7 2.7 5.8 3.3L102.4 112c-3.1.2-6.1 1.4-8.4 3.7-2.7 2.7-3.9 6.2-3.7 9.7L27 143.1c-.6-1.6-1.6-3.1-2.9-4.4-5.1-5.1-13.2-5.1-18.3 0-5.1 5.1-5.1 13.2 0 18.3 2.4 2.4 5.5 3.6 8.6 3.7l2.9 47.6c-2.6.4-5.1 1.6-7.1 3.6-5.1 5.1-5.1 13.2 0 18.3 5.1 5.1 13.2 5.1 18.3 0 .1-.1.2-.3.3-.4L61 253.9c-3 5-2.4 11.5 1.9 15.8 1.1 1.1 2.4 1.9 3.7 2.6L49.3 322c-4.2-1-8.8.1-12.1 3.4-5.1 5.1-5.1 13.2 0 18.3s13.2 5.1 18.3 0c2.1-2.1 3.2-4.7 3.6-7.3l72.8 3c.2 3 1.4 6.1 3.7 8.4 4.8 4.8 12.4 5 17.5.7l44.5 43c-4 5.1-3.7 12.4 1 17.1 5.1 5.1 13.2 5.1 18.3 0 3.9-3.9 4.8-9.8 2.6-14.6l67.6-40 1.2 1.5c5.1 5.1 13.2 5.1 18.3 0 4.9-4.9 5-12.8.3-17.9l84.7-95.7c5.1 3.6 12.1 3.2 16.7-1.3 5.1-5.1 5.1-13.2 0-18.3-2.9-2.9-6.9-4.1-10.8-3.6l-15-64.7c1.8-.6 3.5-1.6 4.9-3 5.1-5.1 5.1-13.2 0-18.3-2.8-2.8-6.4-4-10-3.7l-13.9-77.2c2-.6 4-1.6 5.6-3.2 5.1-5.1 5.1-13.2 0-18.3-5-5.3-13.2-5.3-18.3-.2zm-38.4 188.1c-2.6-1.8-5.7-2.5-8.7-2.2l-13.9-67.1c1.9-.6 3.8-1.6 5.3-3.1 2-2 3.2-4.5 3.6-7.1l66.6 3.7c.1 3.1 1.3 6.1 3.7 8.5l-56.6 67.3zm77.3 21.9L305 335.8c-1.6-1.2-3.5-2-5.4-2.3l6-91.8c3.2-.1 6.3-1.3 8.7-3.7 2.1-2.1 3.3-4.8 3.6-7.5l68.4 1.9c.2 2.7 1.3 5.5 3.4 7.7zM199.4 389.5l-44.5-43c2.7-3.4 3.4-7.7 2.2-11.7l62.3-25.7c.6 1.1 1.3 2.1 2.2 3.1 1.4 1.4 3.1 2.4 4.9 3l-17.1 71.3c-3.5-.4-7.1.6-10 3zM28.7 212.3l66.9-76.9c.9.6 1.8 1.1 2.7 1.5l-12.1 43.3c-4-.7-8.3.5-11.4 3.6-3.5 3.5-4.5 8.6-3.1 13.1l-41.3 18c-.4-1-1-1.9-1.7-2.6zM205 24.6c1.7 1.4 3.6 2.4 5.6 2.8L204.1 90c-3.3 0-6.7 1.2-9.2 3.8-2.9 2.9-4.1 6.8-3.6 10.6l-76 16.5c-.6-1.9-1.6-3.7-3.1-5.2l-.3-.3L205 24.6zm78.2 43.2l1.3 56c-2.8.3-5.4 1.5-7.6 3.6-.9.9-1.6 2-2.2 3.1l-58.3-23.9c.9-3 .7-6.3-.7-9.1l58.1-34.8c.4.5.7 1 1.2 1.5 2.3 2.2 5.2 3.4 8.2 3.6zm-44.3 225.3c-2-1.6-4.4-2.6-6.8-2.8l.3-58.2c2.9-.3 5.7-1.5 7.9-3.7 1.8-1.8 2.9-3.9 3.4-6.2l48.5 6.2c-.1 3 .9 6.1 3 8.6l-56.3 56.1zm-91.5 32.8l6.1-58.6c3.3 0 6.7-1.2 9.2-3.8.4-.4.7-.8 1-1.2l55.5 35c-1.5 3-1.7 6.3-.8 9.4l-62.3 25.7c-.6-1.1-1.3-2.1-2.2-3.1-1.8-1.7-4.1-2.9-6.5-3.4zm-64.6-72.4l74.8-60.3.1.1c1.6 1.6 3.5 2.6 5.5 3.2l-8.5 45.1c-3.7-.3-7.4.9-10.2 3.7-2.4 2.4-3.7 5.6-3.8 8.8l-56 4.3c-.3-1.7-.9-3.4-1.9-4.9zm5.9-72.6l12.1-43.3c3.7.6 7.7-.4 10.7-3l44.9 41.8c-1.8 2.3-2.7 5.1-2.7 7.9l-57.1 6.1c-.5-2.4-1.7-4.7-3.5-6.5-1.2-1.4-2.7-2.4-4.4-3zm140.9 109.3c-2.9.3-5.7 1.5-7.9 3.7-.4.4-.7.8-1 1.2l-55.5-35c1.5-3.1 1.8-6.6.7-9.9l54.2-24.6c.6 1 1.2 1.9 2 2.7 2.2 2.2 5 3.4 7.8 3.7l-.3 58.2zm-53.7-96.9c.6-.6 1.1-1.2 1.5-1.9l41.8 22.8c-1.2 2.9-1.3 6.2-.3 9.1l-54.2 24.6c-.6-1-1.2-1.9-2-2.7-1.6-1.6-3.5-2.6-5.5-3.2l8.5-45.1c3.6.4 7.4-.8 10.2-3.6zm46.1 16.8c-.6.6-1.1 1.2-1.5 1.9l-41.8-22.8c1.1-2.7 1.3-5.7.5-8.6l95.5-38.1c.6 1.1 1.3 2.2 2.3 3.2.3.3.7.5 1 .8l-40.7 61.4c-5-2.6-11.2-1.9-15.3 2.2zm51.7-70l-95.5 38.1c-.6-1.1-1.3-2.2-2.3-3.2-.8-.8-1.7-1.4-2.6-2l26.6-57.9c4.5 1.5 9.7.6 13.3-3 .9-.9 1.6-2 2.2-3.1l58.3 23.9c-.7 2.3-.7 4.8 0 7.2zM197.5 114l-26.6 57.9c-4.3-1.5-9.1-.6-12.7 2.5l-44.9-41.8c2.1-2.7 2.9-6 2.5-9.2l76-16.5c.6 1.9 1.6 3.7 3.1 5.2.8.7 1.7 1.4 2.6 1.9zm98.4 105.6c-1.8 1.8-2.9 3.9-3.4 6.2l-48.5-6.2c.1-3.4-1.1-6.9-3.8-9.5-.3-.3-.7-.5-1-.8l40.7-61.4c2.3 1.2 4.8 1.7 7.3 1.4l13.9 67.1c-1.8.7-3.6 1.7-5.2 3.2zM93.2 202.1c2.5-2.5 3.8-5.9 3.8-9.2l57.1-6.1c.3 1.6.9 3.1 1.8 4.4l-74.8 60.3-.1-.1c-1.6-1.6-3.6-2.7-5.6-3.2l7.6-42.5c3.7.3 7.4-.9 10.2-3.6zm-11.5 67c2.1-2.3 3.1-5.2 3.2-8.2l56-4.3c.4 2.5 1.6 4.9 3.6 6.9 1.9 1.9 4.1 3 6.5 3.5l-6.1 58.6c-2.8 0-5.5.9-7.9 2.7l-55.3-59.2zm159.1 25.8l56.2-56.1c1.8 1.4 3.8 2.4 5.9 2.7l-6 91.8c-3.2.1-6.3 1.3-8.7 3.7-.3.3-.6.7-.9 1.1l-45.1-29.2c2.3-4.4 1.9-9.9-1.4-14zm124.7-155.2l-66.6-3.7c-.1-3.1-1.4-6.2-3.7-8.6-2.3-2.3-5.2-3.5-8.1-3.7l-1.3-56c2.5-.3 4.9-1.4 7-3.1l75.2 69.3c-1.3 1.7-2.2 3.7-2.5 5.8zm-93.1-90c-1.5 3.4-1.4 7.3.1 10.7l-58.1 34.8c-.4-.5-.7-1-1.2-1.5-1.9-1.9-4.1-3-6.5-3.5l6.5-62.6c3.3 0 6.7-1.2 9.2-3.8.5-.5 1-1.1 1.4-1.7l48.6 27.6zM128.3 27.1c2.3-2.3 3.5-5.3 3.7-8.3l68.4-2.4c.3 2.3 1.2 4.4 2.7 6.3l-93.3 91.1c-1.5-.9-3.2-1.5-4.9-1.8l13.4-81.2c3.6.3 7.3-.9 10-3.7zM90.6 128c.5 2.1 1.5 4 3.1 5.7l-66.9 76.9c-2.1-1.5-4.5-2.3-6.9-2.4L17 160.6c2.6-.4 5.1-1.6 7.1-3.6 3.1-3.1 4.3-7.4 3.6-11.4L90.6 128zm-60.3 99.8c1.9-3.2 2.3-7.1 1.2-10.6l41.3-18c.6 1 1.2 2 2.1 2.8 1.6 1.6 3.6 2.7 5.6 3.2l-7.6 42.5c-3.6-.3-7.3.9-10.1 3.7-.1.1-.2.3-.3.4l-32.2-24zM69 273.2c3.7.9 7.6.1 10.8-2.3l55.3 59.2c-1.7 1.9-2.7 4.3-3.1 6.7l-72.8-3c-.2-3-1.4-6.1-3.7-8.4-1.1-1.1-2.4-1.9-3.7-2.6L69 273.2zm149.1 118.5l-1.2-1.5c-1.4-1.4-3.1-2.4-4.9-3l17.1-71.3c3.9.5 7.9-.7 10.9-3.6.3-.3.6-.7.9-1.1l45.1 29.2c-1.8 3.5-1.9 7.7-.2 11.3l-67.7 40zM395 219.1c-1.8.6-3.5 1.6-5 3.1-2.1 2.1-3.3 4.8-3.6 7.5l-68.4-1.9c-.2-2.9-1.4-5.7-3.5-8l56.7-67.4c2.7 1.8 5.9 2.4 8.9 2l14.9 64.7zm-20.2-89.8c-1.8.5-3.6 1.4-5.1 2.7l-75.2-69.3c2-2.7 2.8-5.9 2.5-9.1l50.7-10.5c.6 1.9 1.6 3.7 3.1 5.3 2.8 2.8 6.5 4 10.1 3.7l13.9 77.2z"/><path fill="#262626" d="M192.4 228.2h23.7v59.7h-23.7zM167.3 288h74v5h-74zM317.2 249.8H91.3c-1.1 0-2.1-.9-2.1-2.1V115.1c0-1.1.9-2.1 2.1-2.1h225.9c1.1 0 2.1.9 2.1 2.1v132.7c0 1.1-1 2-2.1 2z"/><path fill="#515151" d="M198.6 243.6h11.3v4.1h-11.3z"/><path d="M216.1 261.1l-23.7-3.1v-8.2h23.7z"/><path fill="#EDEDED" d="M97.3 121h214v121h-214z"/><path fill="#232323" d="M361.1 294.9H231.4V211c0-2.8 2.3-5.1 5.1-5.1h119.6c2.8 0 5.1 2.3 5.1 5.1v83.9z"/><path fill="#fff" d="M237.5 216.1h117.6v68.7H237.5z"/><path fill="#EDEDED" d="M237.5 216.1h117.6v68.7H237.5z"/><path fill="#424242" d="M307.4 290.9v1c0 1.1-.9 2-2 2h-18.2c-1.1 0-2-.9-2-2v-1h-63.9v5.1c0 2.8 2.3 5.1 5.1 5.1h139.9c2.8 0 5.1-2.3 5.1-5.1v-5.1h-64z"/><ellipse fill="#232323" cx="289.7" cy="297.5" rx="2.5" ry="2.5"/><ellipse fill="#232323" cx="296.8" cy="297.5" rx="2.5" ry="2.5"/><ellipse fill="#232323" cx="303.9" cy="297.5" rx="2.5" ry="2.5"/><circle fill="#C9C9CC" cx="303.9" cy="297.5" r="1.5"/><circle fill="#C9C9CC" cx="296.8" cy="297.5" r="1.5"/><circle fill="#C9C9CC" cx="289.7" cy="297.5" r="1.5"/><path fill="#232323" d="M289.2 297h1v1h-1zM296.3 297h1v1h-1zM303.4 297h1v1h-1z"/><path d="M177.3 295h-130v-75.9c0-2.8 2.3-5.1 5.1-5.1h119.9c2.8 0 5.1 2.3 5.1 5.1V295z"/><path fill="#fff" d="M53.3 220h118v69h-118z"/><path fill="#424242" d="M181.2 301H43.3l-6-3v-3h150v3z"/><path fill="#EDEDED" d="M53.3 220h118.2v69.1H53.3z"/><path fill="#99BEE7" d="M306.1 245.4v25.8l-21.8-12.5c-6.5-3.8-6-6.1-6-11.3l22.4 12.9v-11.8l5.4-3.1z"/><path fill="#5593D7" d="M300.6 260.3l-22.4-12.9 21.8-12.5c6.5-3.7 8.3-2.1 12.8.4l-22.4 12.9 10.2 5.9v6.2z"/><path fill="#29578A" d="M290.4 248.2l22.4-12.9v25.1c0 7.5-2.3 8.2-6.8 10.8v-25.8l-10.2 5.9-5.4-3.1z"/><path fill="#99BEE7" d="M122.4 248.7v25.8l-21.8-12.6c-6.5-3.8-6-6.1-6-11.3l22.4 12.9v-11.8l5.4-3z"/><path fill="#5593D7" d="M117 263.6l-22.4-12.9 21.8-12.6c6.5-3.7 8.3-2.1 12.8.4l-22.4 12.9 10.2 5.9v6.3z"/><path fill="#29578A" d="M106.8 251.4l22.4-12.9v25.1c0 7.5-2.3 8.2-6.8 10.9v-25.8l-10.2 5.9-5.4-3.2z"/><path fill="#99BEE7" d="M211.9 175.2v32.9l-27.7-16c-8.2-4.8-7.6-7.7-7.7-14.4l28.5 16.5v-15l6.9-4z"/><path fill="#5593D7" d="M205 194.2l-28.5-16.5 27.7-16c8.3-4.7 10.5-2.7 16.3.5L192 178.7l13 7.5v8z"/><path fill="#29578A" d="M192 178.7l28.5-16.5v32c0 9.5-2.9 10.5-8.6 13.8v-32.9l-13 7.5-6.9-3.9z"/></svg>