<svg xmlns="http://www.w3.org/2000/svg" xmlns:xlink="http://www.w3.org/1999/xlink" width="414" height="414" viewBox="0 0 414 414"><radialGradient id="a" cx="-3160.318" cy="3325.251" r="210.901" gradientTransform="matrix(.707 .707 -.707 .707 4789.33 70.43)" gradientUnits="userSpaceOnUse"><stop offset="0" stop-color="#fff" stop-opacity=".3"/><stop offset=".919" stop-color="#fff" stop-opacity=".943"/><stop offset="1" stop-color="#fff"/></radialGradient><path opacity=".2" fill="url(#a)" d="M350.8 30.1c-2.9 2.9-4.1 6.7-3.7 10.5l-50.7 10.5c-.6-1.9-1.6-3.7-3.1-5.3-5.1-5.1-13.2-5.1-18.3 0-.5.5-1 1.1-1.4 1.7L225 19.9c2.1-4.7 1.2-10.5-2.7-14.4-5.1-5.1-13.2-5.1-18.3 0-2.3 2.3-3.5 5.3-3.7 8.3l-68.4 2.4c-.4-2.7-1.5-5.3-3.6-7.4-5.1-5.1-13.2-5.1-18.3 0-5.1 5.1-5.1 13.2 0 18.3 1.7 1.7 3.7 2.7 5.8 3.3L102.4 112c-3.1.2-6.1 1.4-8.4 3.7-2.7 2.7-3.9 6.2-3.7 9.7L27 143.1c-.6-1.6-1.6-3.1-2.9-4.4-5.1-5.1-13.2-5.1-18.3 0-5.1 5.1-5.1 13.2 0 18.3 2.4 2.4 5.5 3.6 8.6 3.7l2.9 47.6c-2.6.4-5.1 1.6-7.1 3.6-5.1 5.1-5.1 13.2 0 18.3 5.1 5.1 13.2 5.1 18.3 0 .1-.1.2-.3.3-.4L61 253.9c-3 5-2.4 11.5 1.9 15.8 1.1 1.1 2.4 1.9 3.7 2.6L49.3 322c-4.2-1-8.8.1-12.1 3.4-5.1 5.1-5.1 13.2 0 18.3s13.2 5.1 18.3 0c2.1-2.1 3.2-4.7 3.6-7.3l72.8 3c.2 3 1.4 6.1 3.7 8.4 4.8 4.8 12.4 5 17.5.7l44.5 43c-4 5.1-3.7 12.4 1 17.1 5.1 5.1 13.2 5.1 18.3 0 3.9-3.9 4.8-9.8 2.6-14.6l67.6-40 1.2 1.5c5.1 5.1 13.2 5.1 18.3 0 4.9-4.9 5-12.8.3-17.9l84.7-95.7c5.1 3.6 12.1 3.2 16.7-1.3 5.1-5.1 5.1-13.2 0-18.3-2.9-2.9-6.9-4.1-10.8-3.6l-15-64.7c1.8-.6 3.5-1.6 4.9-3 5.1-5.1 5.1-13.2 0-18.3-2.8-2.8-6.4-4-10-3.7l-13.9-77.2c2-.6 4-1.6 5.6-3.2 5.1-5.1 5.1-13.2 0-18.3-5-5.3-13.2-5.3-18.3-.2zm-38.4 188.1c-2.6-1.8-5.7-2.5-8.7-2.2l-13.9-67.1c1.9-.6 3.8-1.6 5.3-3.1 2-2 3.2-4.5 3.6-7.1l66.6 3.7c.1 3.1 1.3 6.1 3.7 8.5l-56.6 67.3zm77.3 21.9L305 335.8c-1.6-1.2-3.5-2-5.4-2.3l6-91.8c3.2-.1 6.3-1.3 8.7-3.7 2.1-2.1 3.3-4.8 3.6-7.5l68.4 1.9c.2 2.7 1.3 5.5 3.4 7.7zM199.4 389.5l-44.5-43c2.7-3.4 3.4-7.7 2.2-11.7l62.3-25.7c.6 1.1 1.3 2.1 2.2 3.1 1.4 1.4 3.1 2.4 4.9 3l-17.1 71.3c-3.5-.4-7.1.6-10 3zM28.7 212.3l66.9-76.9c.9.6 1.8 1.1 2.7 1.5l-12.1 43.3c-4-.7-8.3.5-11.4 3.6-3.5 3.5-4.5 8.6-3.1 13.1l-41.3 18c-.4-1-1-1.9-1.7-2.6zM205 24.6c1.7 1.4 3.6 2.4 5.6 2.8L204.1 90c-3.3 0-6.7 1.2-9.2 3.8-2.9 2.9-4.1 6.8-3.6 10.6l-76 16.5c-.6-1.9-1.6-3.7-3.1-5.2l-.3-.3L205 24.6zm78.2 43.2l1.3 56c-2.8.3-5.4 1.5-7.6 3.6-.9.9-1.6 2-2.2 3.1l-58.3-23.9c.9-3 .7-6.3-.7-9.1l58.1-34.8c.4.5.7 1 1.2 1.5 2.3 2.2 5.2 3.4 8.2 3.6zm-44.3 225.3c-2-1.6-4.4-2.6-6.8-2.8l.3-58.2c2.9-.3 5.7-1.5 7.9-3.7 1.8-1.8 2.9-3.9 3.4-6.2l48.5 6.2c-.1 3 .9 6.1 3 8.6l-56.3 56.1zm-91.5 32.8l6.1-58.6c3.3 0 6.7-1.2 9.2-3.8.4-.4.7-.8 1-1.2l55.5 35c-1.5 3-1.7 6.3-.8 9.4l-62.3 25.7c-.6-1.1-1.3-2.1-2.2-3.1-1.8-1.7-4.1-2.9-6.5-3.4zm-64.6-72.4l74.8-60.3.1.1c1.6 1.6 3.5 2.6 5.5 3.2l-8.5 45.1c-3.7-.3-7.4.9-10.2 3.7-2.4 2.4-3.7 5.6-3.8 8.8l-56 4.3c-.3-1.7-.9-3.4-1.9-4.9zm5.9-72.6l12.1-43.3c3.7.6 7.7-.4 10.7-3l44.9 41.8c-1.8 2.3-2.7 5.1-2.7 7.9l-57.1 6.1c-.5-2.4-1.7-4.7-3.5-6.5-1.2-1.4-2.7-2.4-4.4-3zm140.9 109.3c-2.9.3-5.7 1.5-7.9 3.7-.4.4-.7.8-1 1.2l-55.5-35c1.5-3.1 1.8-6.6.7-9.9l54.2-24.6c.6 1 1.2 1.9 2 2.7 2.2 2.2 5 3.4 7.8 3.7l-.3 58.2zm-53.7-96.9c.6-.6 1.1-1.2 1.5-1.9l41.8 22.8c-1.2 2.9-1.3 6.2-.3 9.1l-54.2 24.6c-.6-1-1.2-1.9-2-2.7-1.6-1.6-3.5-2.6-5.5-3.2l8.5-45.1c3.6.4 7.4-.8 10.2-3.6zm46.1 16.8c-.6.6-1.1 1.2-1.5 1.9l-41.8-22.8c1.1-2.7 1.3-5.7.5-8.6l95.5-38.1c.6 1.1 1.3 2.2 2.3 3.2.3.3.7.5 1 .8l-40.7 61.4c-5-2.6-11.2-1.9-15.3 2.2zm51.7-70l-95.5 38.1c-.6-1.1-1.3-2.2-2.3-3.2-.8-.8-1.7-1.4-2.6-2l26.6-57.9c4.5 1.5 9.7.6 13.3-3 .9-.9 1.6-2 2.2-3.1l58.3 23.9c-.7 2.3-.7 4.8 0 7.2zM197.5 114l-26.6 57.9c-4.3-1.5-9.1-.6-12.7 2.5l-44.9-41.8c2.1-2.7 2.9-6 2.5-9.2l76-16.5c.6 1.9 1.6 3.7 3.1 5.2.8.7 1.7 1.4 2.6 1.9zm98.4 105.6c-1.8 1.8-2.9 3.9-3.4 6.2l-48.5-6.2c.1-3.4-1.1-6.9-3.8-9.5-.3-.3-.7-.5-1-.8l40.7-61.4c2.3 1.2 4.8 1.7 7.3 1.4l13.9 67.1c-1.8.7-3.6 1.7-5.2 3.2zM93.2 202.1c2.5-2.5 3.8-5.9 3.8-9.2l57.1-6.1c.3 1.6.9 3.1 1.8 4.4l-74.8 60.3-.1-.1c-1.6-1.6-3.6-2.7-5.6-3.2l7.6-42.5c3.7.3 7.4-.9 10.2-3.6zm-11.5 67c2.1-2.3 3.1-5.2 3.2-8.2l56-4.3c.4 2.5 1.6 4.9 3.6 6.9 1.9 1.9 4.1 3 6.5 3.5l-6.1 58.6c-2.8 0-5.5.9-7.9 2.7l-55.3-59.2zm159.1 25.8l56.2-56.1c1.8 1.4 3.8 2.4 5.9 2.7l-6 91.8c-3.2.1-6.3 1.3-8.7 3.7-.3.3-.6.7-.9 1.1l-45.1-29.2c2.3-4.4 1.9-9.9-1.4-14zm124.7-155.2l-66.6-3.7c-.1-3.1-1.4-6.2-3.7-8.6-2.3-2.3-5.2-3.5-8.1-3.7l-1.3-56c2.5-.3 4.9-1.4 7-3.1l75.2 69.3c-1.3 1.7-2.2 3.7-2.5 5.8zm-93.1-90c-1.5 3.4-1.4 7.3.1 10.7l-58.1 34.8c-.4-.5-.7-1-1.2-1.5-1.9-1.9-4.1-3-6.5-3.5l6.5-62.6c3.3 0 6.7-1.2 9.2-3.8.5-.5 1-1.1 1.4-1.7l48.6 27.6zM128.3 27.1c2.3-2.3 3.5-5.3 3.7-8.3l68.4-2.4c.3 2.3 1.2 4.4 2.7 6.3l-93.3 91.1c-1.5-.9-3.2-1.5-4.9-1.8l13.4-81.2c3.6.3 7.3-.9 10-3.7zM90.6 128c.5 2.1 1.5 4 3.1 5.7l-66.9 76.9c-2.1-1.5-4.5-2.3-6.9-2.4L17 160.6c2.6-.4 5.1-1.6 7.1-3.6 3.1-3.1 4.3-7.4 3.6-11.4L90.6 128zm-60.3 99.8c1.9-3.2 2.3-7.1 1.2-10.6l41.3-18c.6 1 1.2 2 2.1 2.8 1.6 1.6 3.6 2.7 5.6 3.2l-7.6 42.5c-3.6-.3-7.3.9-10.1 3.7-.1.1-.2.3-.3.4l-32.2-24zM69 273.2c3.7.9 7.6.1 10.8-2.3l55.3 59.2c-1.7 1.9-2.7 4.3-3.1 6.7l-72.8-3c-.2-3-1.4-6.1-3.7-8.4-1.1-1.1-2.4-1.9-3.7-2.6L69 273.2zm149.1 118.5l-1.2-1.5c-1.4-1.4-3.1-2.4-4.9-3l17.1-71.3c3.9.5 7.9-.7 10.9-3.6.3-.3.6-.7.9-1.1l45.1 29.2c-1.8 3.5-1.9 7.7-.2 11.3l-67.7 40zM395 219.1c-1.8.6-3.5 1.6-5 3.1-2.1 2.1-3.3 4.8-3.6 7.5l-68.4-1.9c-.2-2.9-1.4-5.7-3.5-8l56.7-67.4c2.7 1.8 5.9 2.4 8.9 2l14.9 64.7zm-20.2-89.8c-1.8.5-3.6 1.4-5.1 2.7l-75.2-69.3c2-2.7 2.8-5.9 2.5-9.1l50.7-10.5c.6 1.9 1.6 3.7 3.1 5.3 2.8 2.8 6.5 4 10.1 3.7l13.9 77.2z"/><path d="M323 256.7H91v-134c0-2.8 2.3-5.2 5.2-5.2h221.6c2.8 0 5.2 2.3 5.2 5.2v134z"/><path fill="#F7944B" d="M100.3 126.8h213.4v120.6H100.3z"/><path fill="#C9C9CC" d="M317.8 277.3H96.2c-2.8 0-5.2-2.3-5.2-5.2v-15.5h232v15.5c0 2.9-2.3 5.2-5.2 5.2zM228.1 301h-42.2l2-23.7h38.2zM171.4 301h71.1v6.2h-71.1z"/><circle cx="207" cy="267" r="5.2"/><path fill="#B2B2B2" d="M227.1 290.7l-1-13.4h-38.2l-1 9.3z"/><path fill="#5592D7" d="M183.6 190.2l3.7-11.6h12.2l3.8 11.6-9.8 7.2z"/><path fill="#fff" d="M225.7 136.4l18.7 6.9-25 16.5 9.9 17-27.5-7-6.9 20-15.2-25-22.2 6 9.6-23.7-18.7-9.4 22.4-10-7.3-21 25 11 14.6-20.1 6 23 28.1-4.2z"/><path fill="#FFE999" d="M217.9 129.8l16.8.2-15.2 20.2 12.6 10.8-23.9 2.1.2 17.9-19.1-15.7-16 11.1 1-21.6-17.6-2.2 15.1-14.3-11.7-14.6 22.9 1.7 6-20.1 11.3 16.6 21.1-11.2z"/><path fill="#99BEE7" d="M205.5 133.8l.2 36.9-31.1-17.7c-9.3-5.3-8.6-8.6-8.7-16.1l32.1 18.2-.1-16.8 7.6-4.5z"/><path fill="#5593D7" d="M197.9 155.2L165.8 137l31-18.2c9.2-5.4 11.8-3.1 18.3.5L183.3 138l14.6 8.3v8.9z"/><path fill="#29578A" d="M183.2 137.9l31.8-18.7.2 35.9c0 10.7-3.2 11.8-9.6 15.6l-.2-36.9-14.5 8.5-7.7-4.4z"/><path fill="#fff" d="M254.6 100.8l-14 12.8-16.5-9.3 3.8-18.6 18.8-2.2zM142.6 140.8l-15 1.4-6.1-13.9 11.4-10L146 126zM259.1 180.7l-13.4 4.1-8-11.5 8.5-11.2 13.2 4.6z"/><path fill="#5592D7" d="M118.6 131.3l3.8-11.6h12.2l3.8 11.6-9.9 7.2zM229.1 87.7l12.6-8.9 12.4 9.2-4.9 14.6-15.4-.2z"/><defs><path id="b" d="M100.3 126.8h213.4v120.6H100.3z"/></defs><clipPath id="c"><use xlink:href="#b" overflow="visible"/></clipPath><g clip-path="url(#c)"><path fill="#5592D7" d="M285.6 225.1c3.8.7 6.9 3 8.6 6.4l16.9 33.5c1.4 2.8 1.7 6.1.7 9.1s-3.1 5.5-6 6.9l-2.9 1.5c-2.3 1.2-4.9 1.5-7.4 1.1-3.8-.7-6.9-3-8.6-6.4L270 243.7c-3-5.9-.6-13.1 5.3-16l2.9-1.5c2.4-1.1 4.9-1.5 7.4-1.1m2.1-11.9c-4.9-.9-10.1-.2-15 2.2l-2.9 1.5c-11.9 6-16.6 20.4-10.7 32.3l16.9 33.5c3.6 7.1 10.1 11.6 17.4 12.9 4.9.9 10.1.2 15-2.2l2.9-1.5c11.9-6 16.6-20.4 10.7-32.3l-16.9-33.5c-3.6-7.1-10.1-11.7-17.4-12.9zM232.7 193l-4.2-8.9 7.7-3.7 12.3 9.5c3.5 2.7 8.2 3.2 12.3 1.4 1.8-.8 3.3-2 4.4-3.6l2-2.6c1.9-2.5 2.8-5.7 2.4-8.8-.4-3.2-2-6-4.6-7.9l-16.8-12.9.4-8.5 9.5.8 14.3 11c10.5 8.1 12.5 23.2 4.4 33.7l-2 2.6c-2.5 3.2-5.6 5.6-9 7.2-7.9 3.6-17.4 2.9-24.8-2.8l-8.3-6.5z"/><path opacity=".5" d="M256.2 192.4l-2.9-8c-.1-.4-.2-.7-.3-1.1.7-1.3 1.9-2.4 3.4-2.9 3.3-1.2 7 .5 8.2 3.9l20.8 57.7c.1.4.2.7.3 1.1-.7 1.3-1.9 2.3-3.4 2.9-3.3 1.2-7-.5-8.2-3.9l-3.6-9.9c-.5.9-.9 1.8-1.2 2.8l-5.1-14.1c.5-.5 1.1-1 1.7-1.5l-5.5-15.3-2.1.3-4.4-12.1c.8.1 1.6.1 2.3.1zM325.7 327.7l-21-32.9c-1 .3-2 .5-3 .7l-7.9-12.4c.6.2 1.1.3 1.7.4.7.1 1.4.2 2.1.2l-4.8-7.6c-1.9-3-1-7 2-8.9.8-.5 1.7-.8 2.6-.9l3.2 4.9c.9.5 1.8 1.2 2.4 2.2l32.9 51.5c.5.7.8 1.6.9 2.4-.5.9-1.2 1.7-2.1 2.3-3.1 2-7.1 1.1-9-1.9z"/><path fill="#5592D7" d="M282.3 246c-3.3 1.2-7-.5-8.2-3.9l-20.8-57.7c-1.2-3.3.5-7 3.9-8.2 3.3-1.2 7 .5 8.2 3.9l20.8 57.7c1.2 3.3-.5 7-3.9 8.2zM334.5 329.7c-3 1.9-7 1-8.9-2l-32.9-51.5c-1.9-3-1-7 2-8.9 3-1.9 7-1 8.9 2l32.9 51.5c1.9 3 1 6.9-2 8.9zM379.6 317.1c-3.3.3-7.4 3.8-8.6 10.5l2.9 33.1c.3 3.3 3.2 5.7 6.5 5.4h.3c3.3-.3 5.7-3.2 5.4-6.5l-2.9-33.1c-.3-3.3-3.6-9.4-3.6-9.4z"/></g><g clip-path="url(#c)"><path fill="#5592D7" d="M339.2 341.5c1.7 1.9 2.8 4.2 3.1 6.7l.4 3.2c.4 3.2-.5 6.3-2.5 8.8-2 2.5-4.8 4.1-8 4.5l-37.2 4.4c-3.8.5-7.5-.9-10.2-3.7-1.7-1.9-2.8-4.2-3.1-6.7l-.4-3.2c-.4-3.2.5-6.3 2.5-8.8 2-2.5 4.8-4.1 8-4.5l37.2-4.4c3.9-.5 7.6.8 10.2 3.7m8.9-8.3c-5.1-5.5-12.6-8.5-20.5-7.5l-37.2 4.4c-13.2 1.6-22.6 13.5-21 26.7l.4 3.2c.6 5.2 2.9 9.9 6.2 13.5 5.1 5.5 12.6 8.5 20.5 7.5l37.2-4.4c13.2-1.6 22.6-13.5 21-26.7l-.4-3.2c-.6-5.2-2.9-9.9-6.2-13.5z"/><path opacity=".5" d="M385.4 326.3l-11-.1-.2 11.8 2.1 23.9c.3 3 2.9 5.2 5.9 4.9l1.4-.1c3-.3 5.2-2.9 4.9-5.9l-3.1-34.5z"/><path fill="#5592D7" d="M379.5 316.9c-3.4.3-5.9 3.3-5.6 6.6l3.5 39.4c.3 3.4 3.3 5.9 6.6 5.6 3.4-.3 5.9-3.3 5.6-6.6l-3.5-39.4c-.3-3.5-3.2-5.9-6.6-5.6zM243.2 347.7c1.4 2.1 2 4.6 1.8 7.1l-.2 3.2c-.2 3.2-1.6 6.1-4 8.2-2.4 2.1-5.5 3.1-8.6 2.9l-37.4-2.4c-3.9-.2-7.3-2.3-9.3-5.5-1.4-2.1-2-4.6-1.8-7.1l.2-3.2c.2-3.2 1.6-6.1 4-8.2 2.4-2.1 5.5-3.1 8.6-2.9l37.4 2.4c3.9.2 7.3 2.3 9.3 5.5m10.3-6.5c-4-6.3-10.8-10.6-18.8-11.2l-37.4-2.4c-13.3-.9-24.7 9.2-25.6 22.5l-.2 3.2c-.3 5.3 1 10.3 3.7 14.4 4 6.3 10.8 10.6 18.8 11.2l37.4 2.4c13.3.9 24.7-9.2 25.6-22.5l.2-3.2c.3-5.2-1.1-10.2-3.7-14.4zM149.2 166.3l3 7.9 8.7-3.3-17.6 23.8c-1.9 2.6-2.7 5.7-2.2 8.9s2.1 5.9 4.7 7.8l2.6 1.9c1.6 1.2 3.3 1.9 5.3 2.2 4.4.7 8.8-1.1 11.4-4.7l13.6-18.4-1.5 9.8 8.4 1.3-10.8 14.5c-5.5 7.4-14.5 10.8-23 9.5-3.7-.6-7.4-2-10.6-4.4l-2.6-1.9c-10.7-7.9-12.9-23-5-33.7l15.6-21.2zM134.2 263.1c1.2-2.2 3-4 5.3-5.1l2.9-1.4c2.9-1.4 6.1-1.6 9.1-.6s5.4 3.2 6.9 6l16.5 33.6c1.7 3.5 1.6 7.4-.2 10.8-1.2 2.2-3 4-5.3 5.1l-2.9 1.4c-2.9 1.4-6.1 1.6-9.1.6s-5.4-3.2-6.9-6L134 273.9c-1.7-3.5-1.6-7.4.2-10.8m-10.7-5.7c-3.5 6.6-3.9 14.7-.3 21.9l16.5 33.6c5.9 11.9 20.3 16.9 32.2 11l2.9-1.4c4.7-2.3 8.4-6 10.7-10.4 3.5-6.6 3.9-14.7.3-21.9l-16.5-33.6c-5.9-11.9-20.3-16.9-32.2-11l-2.9 1.4c-4.8 2.4-8.4 6.1-10.7 10.4zM141.6 273.9c3.5.5 6.8-1.9 7.3-5.4l9.3-60.2c.5-3.5-1.9-6.8-5.4-7.3-3.5-.5-6.8 1.9-7.3 5.4l-9.3 60.2c-.5 3.5 1.9 6.8 5.4 7.3z"/><path opacity=".5" d="M340.2 360.2c1-1.3 1.7-2.7 2.1-4.2l-9.3 1.5c-3.5.5-6.7-1.8-7.3-5.2.9-1.7 2.6-2.9 4.6-3.2l60.2-9.4c3.5-.5 6.7 1.8 7.3 5.3-.9 1.7-2.6 2.9-4.6 3.2l-4.7.7.4 4-15.5 2.4-.4-4-18.2 2.8c-.1 1.4-.3 2.8-.6 4.2l-14.3 2.2c.1-.2.2-.3.3-.3zM240.8 366.3c.9-.8 1.6-1.6 2.2-2.6l-6 .1c-3.2 0-5.9-2.3-6.4-5.3 1.1-1.9 3.1-3.3 5.5-3.3l53.9-.5c2.1 0 4 1 5.2 2.6l2-.2c-.1 3.4-2.9 6.1-6.3 6.2l-7.5.1c.4.7.9 1.4 1.5 2 .8.9 1.7 1.6 2.7 2.1l-15.6.2c-.6-1.3-1.2-2.7-1.5-4.2l-14.2.1c-.4 1.5-.9 2.9-1.6 4.2l-16.2.2c.7-.5 1.6-1 2.3-1.7zM155.2 227.7l-2.5 16c.5.1.9.2 1.4.4l-1.9 12.2c-.3-.1-.5-.2-.8-.3-.2-.1-.4-.1-.6-.2l-2 12.8c-.5 3.5-3.8 5.9-7.3 5.4s-5.9-3.8-5.4-7.3l1.1-7.3c-.6.5-1.2 1.1-1.7 1.7l2.5-15.8c.5-.2 1-.4 1.6-.6l3.2-20.4c-.4-.3-.9-.6-1.3-.9l2.2-13.9c.4.5.8.9 1.3 1.3l.7-4.3c.5-3.5 3.8-5.9 7.3-5.4s5.9 3.8 5.4 7.3l-1.1 7.2 1.5-.3-1.9 12.5c-.7-.1-1.2-.1-1.7-.1zM157.4 313.6c.8.3 1.5.4 2.3.5l-2.5-3.5h.1l-2.4-4.6c-.2-2.2.7-4.5 2.7-5.9.6-.4 1.3-.7 1.9-.9l3.3 7.6 2.9-2 32.6 46.5c-.4 1.4-1.2 2.6-2.5 3.5-2.9 2-6.9 1.3-8.9-1.6l-2.8-4c-.1.6-.2 1.3-.3 1.9l-.1 1.7-8.9-12.8c.4-.8.9-1.5 1.4-2.2l-8.5-12.2c-.8.2-1.7.4-2.6.5l-9.1-13c.4.1.9.3 1.4.5z"/><path fill="#5592D7" d="M325.7 352.1c.5 3.5 3.8 5.9 7.3 5.3l60.2-9.4c3.5-.5 5.9-3.8 5.3-7.3-.5-3.5-3.8-5.9-7.3-5.3l-60.2 9.4c-3.5.5-5.9 3.8-5.3 7.3zM230.5 357.4c0 3.5 2.9 6.4 6.5 6.4l53.9-.5c3.5 0 6.4-2.9 6.4-6.5 0-3.5-2.9-6.4-6.5-6.4l-53.9.5c-3.6 0-6.4 2.9-6.4 6.5zM141.6 273.9c3.5.5 6.8-1.9 7.3-5.4l9.3-60.2c.5-3.5-1.9-6.8-5.4-7.3-3.5-.5-6.8 1.9-7.3 5.4l-9.3 60.2c-.5 3.5 1.9 6.8 5.4 7.3zM195.9 354.6c2.9-2 3.6-6 1.6-8.9l-30.9-44.1c-2-2.9-6-3.6-8.9-1.6-2.9 2-3.6 6-1.6 8.9L187 353c2 3 6 3.7 8.9 1.6z"/></g><path fill="#fff" d="M166.1 183.8l-2.9 13.7-13.9 1.5-5.7-12.8 10.4-9.3z"/></svg>