<svg xmlns="http://www.w3.org/2000/svg" xmlns:xlink="http://www.w3.org/1999/xlink" viewBox="0 0 465 420" enable-background="new 0 0 465 420"><radialGradient id="a" cx="230.495" cy="398" r="401.884" gradientTransform="matrix(.002 -1 .952 .002 -148.918 627.891)" gradientUnits="userSpaceOnUse"><stop offset=".1" stop-color="#5592D7"/><stop offset="1" stop-color="#fff"/></radialGradient><path opacity=".5" fill="url(#a)" d="M374.3 33.1c-2.9 2.9-4.1 6.7-3.7 10.5L320 54.1c-.6-1.9-1.6-3.7-3.1-5.3-5.1-5.1-13.2-5.1-18.3 0-.5.5-1 1.1-1.4 1.7l-48.7-27.6c2.1-4.7 1.2-10.5-2.7-14.4-5.1-5.1-13.2-5.1-18.3 0-2.3 2.3-3.5 5.3-3.7 8.3l-68.4 2.4c-.4-2.7-1.5-5.3-3.6-7.4-5.1-5.1-13.2-5.1-18.3 0-5.1 5.1-5.1 13.2 0 18.3 1.7 1.7 3.7 2.7 5.8 3.3L125.8 115c-3.1.2-6.1 1.4-8.4 3.7-2.7 2.7-3.9 6.2-3.7 9.7l-63.3 17.7c-.6-1.6-1.6-3.1-2.9-4.4-5.1-5.1-13.2-5.1-18.3 0-5.1 5.1-5.1 13.2 0 18.3 2.4 2.4 5.5 3.6 8.6 3.7l2.9 47.6c-2.6.4-5.1 1.6-7.1 3.6-5.1 5.1-5.1 13.2 0 18.3 5.1 5.1 13.2 5.1 18.3 0 .1-.1.2-.3.3-.4l32.2 24.1c-3 5-2.4 11.5 1.9 15.8 1.1 1.1 2.4 1.9 3.7 2.6L72.8 325c-4.2-1-8.8.1-12.1 3.4-5.1 5.1-5.1 13.2 0 18.3 5.1 5.1 13.2 5.1 18.3 0 2.1-2.1 3.2-4.7 3.6-7.3l72.8 3c.2 3 1.4 6.1 3.7 8.4 4.8 4.8 12.4 5 17.5.7l44.5 43c-4 5.1-3.7 12.4 1 17.1 5.1 5.1 13.2 5.1 18.3 0 3.9-3.9 4.8-9.8 2.6-14.6l67.6-40 1.2 1.5c5.1 5.1 13.2 5.1 18.3 0 4.9-4.9 5-12.8.3-17.9l84.7-95.7c5.1 3.6 12.1 3.2 16.7-1.3 5.1-5.1 5.1-13.2 0-18.3-2.9-2.9-6.9-4.1-10.8-3.6L406 157c1.8-.6 3.5-1.6 4.9-3 5.1-5.1 5.1-13.2 0-18.3-2.8-2.8-6.4-4-10-3.7L387 54.6c2-.6 4-1.6 5.6-3.2 5.1-5.1 5.1-13.2 0-18.3-5-5.1-13.2-5.1-18.3 0zm-38.4 188.1c-2.6-1.8-5.7-2.5-8.7-2.2l-13.9-67.1c1.9-.6 3.8-1.6 5.3-3.1 2-2 3.2-4.5 3.6-7.1l66.6 3.7c.1 3.1 1.3 6.1 3.7 8.5l-56.6 67.3zm77.2 21.9l-84.7 95.7c-1.6-1.2-3.5-2-5.4-2.3l6-91.8c3.2-.1 6.3-1.3 8.7-3.7 2.1-2.1 3.3-4.8 3.6-7.5l68.4 1.9c.3 2.7 1.4 5.5 3.4 7.7zM222.9 392.5l-44.5-43c2.7-3.4 3.4-7.7 2.2-11.7l62.3-25.7c.6 1.1 1.3 2.1 2.2 3.1 1.4 1.4 3.1 2.4 4.9 3l-17 71.3c-3.6-.4-7.2.6-10.1 3zM52.2 215.3l66.9-76.9c.9.6 1.8 1.1 2.7 1.5l-12.1 43.3c-4-.7-8.3.5-11.4 3.6-3.5 3.5-4.5 8.6-3.1 13.1l-41.3 18c-.4-1-1-1.9-1.7-2.6zM228.5 27.6c1.7 1.4 3.6 2.4 5.6 2.8L227.6 93c-3.3 0-6.7 1.2-9.2 3.8-2.9 2.9-4.1 6.8-3.6 10.6l-76 16.5c-.6-1.9-1.6-3.7-3.1-5.2l-.3-.3 93.1-90.8zm78.2 43.2l1.3 56c-2.8.3-5.4 1.5-7.6 3.6-.9.9-1.6 2-2.2 3.1l-58.3-23.9c.9-3 .7-6.3-.7-9.1l58.1-34.8c.4.5.7 1 1.2 1.5 2.3 2.2 5.2 3.4 8.2 3.6zm-44.3 225.3c-2-1.6-4.4-2.6-6.8-2.8l.3-58.2c2.9-.3 5.7-1.5 7.9-3.7 1.8-1.8 2.9-3.9 3.4-6.2l48.5 6.2c-.1 3 .9 6.1 3 8.6l-56.3 56.1zm-91.5 32.8l6.1-58.6c3.3 0 6.7-1.2 9.2-3.8.4-.4.7-.8 1-1.2l55.5 35c-1.5 3-1.7 6.3-.8 9.4l-62.3 25.7c-.6-1.1-1.3-2.1-2.2-3.1-1.8-1.7-4.1-2.9-6.5-3.4zm-64.6-72.4l74.8-60.3.1.1c1.6 1.6 3.5 2.6 5.5 3.2l-8.5 45.1c-3.7-.3-7.4.9-10.2 3.7-2.4 2.4-3.7 5.6-3.8 8.8l-56 4.3c-.3-1.7-.9-3.4-1.9-4.9zm5.9-72.6l12.1-43.3c3.7.6 7.7-.4 10.7-3l44.9 41.8c-1.8 2.3-2.7 5.1-2.7 7.9l-57.1 6.1c-.5-2.4-1.7-4.7-3.5-6.5-1.2-1.4-2.7-2.4-4.4-3zM253 293.2c-2.9.3-5.7 1.5-7.9 3.7-.4.4-.7.8-1 1.2l-55.5-35c1.5-3.1 1.8-6.6.7-9.9l54.2-24.6c.6 1 1.2 1.9 2 2.7 2.2 2.2 5 3.4 7.8 3.7l-.3 58.2zm-53.6-96.9c.6-.6 1.1-1.2 1.5-1.9l41.8 22.8c-1.2 2.9-1.3 6.2-.3 9.1l-54.2 24.6c-.6-1-1.2-1.9-2-2.7-1.6-1.6-3.5-2.6-5.5-3.2l8.5-45.1c3.6.4 7.4-.8 10.2-3.6zm46.1 16.8c-.6.6-1.1 1.2-1.5 1.9l-41.8-22.8c1.1-2.7 1.3-5.7.5-8.6l95.5-38.1c.6 1.1 1.3 2.2 2.3 3.2.3.3.7.5 1 .8l-40.7 61.4c-5-2.6-11.2-1.9-15.3 2.2zm51.7-70l-95.5 38.1c-.6-1.1-1.3-2.2-2.3-3.2-.8-.8-1.7-1.4-2.6-2l26.6-57.9c4.5 1.5 9.7.6 13.3-3 .9-.9 1.6-2 2.2-3.1l58.3 23.9c-.7 2.3-.7 4.8 0 7.2zM221 117l-26.6 57.9c-4.3-1.5-9.1-.6-12.7 2.5l-44.9-41.8c2.1-2.7 2.9-6 2.5-9.2l76-16.5c.6 1.9 1.6 3.7 3.1 5.2.8.7 1.7 1.4 2.6 1.9zm98.4 105.6c-1.8 1.8-2.9 3.9-3.4 6.2l-48.5-6.2c.1-3.4-1.1-6.9-3.8-9.5-.3-.3-.7-.5-1-.8l40.7-61.4c2.3 1.2 4.8 1.7 7.3 1.4l13.9 67.1c-1.8.7-3.6 1.7-5.2 3.2zm-202.7-17.5c2.5-2.5 3.8-5.9 3.8-9.2l57.1-6.1c.3 1.6.9 3.1 1.8 4.4l-74.8 60.3-.1-.1c-1.6-1.6-3.6-2.7-5.6-3.2l7.6-42.5c3.7.3 7.4-.9 10.2-3.6zm-11.5 67c2.1-2.3 3.1-5.2 3.2-8.2l56-4.3c.4 2.5 1.6 4.9 3.6 6.9 1.9 1.9 4.1 3 6.5 3.5l-6.1 58.6c-2.8 0-5.5.9-7.9 2.7l-55.3-59.2zm159.1 25.8l56.2-56.1c1.8 1.4 3.8 2.4 5.9 2.7l-6 91.8c-3.2.1-6.3 1.3-8.7 3.7-.3.3-.6.7-.9 1.1l-45.1-29.2c2.3-4.4 1.9-9.9-1.4-14zM389 142.7l-66.6-3.7c-.1-3.1-1.4-6.2-3.7-8.6-2.3-2.3-5.2-3.5-8.1-3.7l-1.3-56c2.5-.3 4.9-1.4 7-3.1l75.2 69.3c-1.3 1.7-2.2 3.7-2.5 5.8zm-93.1-90c-1.5 3.4-1.4 7.3.1 10.7l-58.1 34.8c-.4-.5-.7-1-1.2-1.5-1.9-1.9-4.1-3-6.5-3.5l6.5-62.6c3.3 0 6.7-1.2 9.2-3.8.5-.5 1-1.1 1.4-1.7l48.6 27.6zM151.8 30.1c2.3-2.3 3.5-5.3 3.7-8.3l68.4-2.4c.3 2.3 1.2 4.4 2.7 6.3l-93.3 91.1c-1.5-.9-3.2-1.5-4.9-1.8l13.4-81.2c3.6.3 7.3-.9 10-3.7zM114.1 131c.5 2.1 1.5 4 3.1 5.7l-66.9 76.9c-2.1-1.5-4.5-2.3-6.9-2.4l-2.9-47.6c2.6-.4 5.1-1.6 7.1-3.6 3.1-3.1 4.3-7.4 3.6-11.4l62.9-17.6zm-60.3 99.8c1.9-3.2 2.3-7.1 1.2-10.6l41.3-18c.6 1 1.2 2 2.1 2.8 1.6 1.6 3.6 2.7 5.6 3.2l-7.6 42.5c-3.6-.3-7.3.9-10.1 3.7-.1.1-.2.3-.3.4l-32.2-24zm38.7 45.4c3.7.9 7.6.1 10.8-2.3l55.3 59.2c-1.7 1.9-2.7 4.3-3.1 6.7l-72.8-3c-.2-3-1.4-6.1-3.7-8.4-1.1-1.1-2.4-1.9-3.7-2.6l17.2-49.6zm149.1 118.5l-1.2-1.5c-1.4-1.4-3.1-2.4-4.9-3l17.1-71.3c3.9.5 7.9-.7 10.9-3.6.3-.3.6-.7.9-1.1l45.1 29.2c-1.8 3.5-1.9 7.7-.2 11.3l-67.7 40zm176.9-172.6c-1.8.6-3.5 1.6-5 3.1-2.1 2.1-3.3 4.8-3.6 7.5l-68.4-1.9c-.2-2.9-1.4-5.7-3.5-8l56.7-67.4c2.7 1.8 5.9 2.4 8.9 2l14.9 64.7zm-20.2-89.8c-1.8.5-3.6 1.4-5.1 2.7L318 65.7c2-2.7 2.8-5.9 2.5-9.1l50.7-10.5c.6 1.9 1.6 3.7 3.1 5.3 2.8 2.8 6.5 4 10.1 3.7l13.9 77.2z"/><g opacity=".75"><path opacity=".15" d="M459.4 254.5h-68.1V219l9.8-9.9h58.3z"/><path fill="#EDEDED" d="M457.9 253h-68.1v-39l6.4-6.4h61.7z"/><path fill="#8FB8E2" d="M394.3 212.1h59v36.3h-59z"/><path fill="#96B548" d="M394.3 232.6h59v15.9h-59z"/><defs><path id="b" d="M394.3 212.1h59v36.3h-59z"/></defs><clipPath id="c"><use xlink:href="#b" overflow="visible"/></clipPath><g clip-path="url(#c)"><path fill="#5593D7" d="M429.7 248.6c0-3-2-5.5-4.6-5.5-2.5 0-4.6 2.5-4.6 5.5 0 1.5 2 2.8 4.6 2.8s4.6-1.2 4.6-2.8zM420.6 248.6c0-3 2-5.5 4.6-5.5s4.6 2.5 4.6 5.5h-9.2z"/><g fill="#F7C1A1"><path d="M425.2 246.8c1.4 0 2.7-.8 3.3-2-.8-1-2-1.6-3.3-1.6-1.3 0-2.4.6-3.3 1.6.6 1.2 1.9 2 3.3 2zM424.3 240.2h1.8v3.5h-1.8z"/></g><g fill="#F69626"><path d="M427.6 229.8c.6-.7 1.5-1.1 2.5-1.1 1.8 0 3.3 1.5 3.3 3.3 0 .4-.1.7-.2 1.1-.4-.8-1.1-1.5-1.9-1.8 0 0 1.8 2.5.6 5.8-1.3 3.3.7 4.6.7 4.6s-2.9 2.4-5.7-.2h-1.7v-11.1l2.4-.6zM422.8 229.8c-.6-.7-1.5-1.1-2.5-1.1-1.8 0-3.3 1.5-3.3 3.3 0 .4.1.7.2 1.1.4-.8 1.1-1.5 1.9-1.8 0 0-1.8 2.5-.6 5.8 1.3 3.3-.7 4.6-.7 4.6s2.9 2.4 5.7-.2h1.7v-11.1l-2.4-.6z"/></g><path fill="#F7C1A1" d="M425.2 230.3c-2.5 0-4.6 2.1-4.6 4.7v2.4c0 2.6 2 4.7 4.6 4.7s4.6-2.1 4.6-4.7V235c-.1-2.5-2.1-4.7-4.6-4.7z"/><path fill="#ED5E51" d="M422.8 229.8c-.2-.2-.4-.4-.6-.5-.4.1-.9.4-1.3.9-.7.7-1.1 1.6-.8 1.8.3.3 1.1-.1 1.8-.8.5-.5.8-1 .9-1.4zM427.6 229.8c.2-.2.4-.4.6-.5.4.1.9.4 1.3.9.7.7 1.1 1.6.8 1.8-.3.3-1.1-.1-1.8-.8-.5-.5-.9-1-.9-1.4z"/><path fill="#F69626" d="M430.6 233.3c-.7-2.3-2.9-4-5.4-4-2.5 0-4.7 1.7-5.4 4-.2.5-.2 1.2-.1 1.8h.9s3.8-.4 4.6-2.4c.8 2 4.6 2.4 4.6 2.4h.9c0-.6 0-1.3-.1-1.8z"/><path fill="#513432" d="M411.3 240.9c-5 0-9-4-9-9v-5.8c0-5 4-9 9-9s9 4 9 9v5.8c0 5-4.1 9-9 9z"/><path fill="#5593D7" d="M418.2 247.1c0-4.7-3.2-8.5-7.1-8.5-3.9 0-7.1 3.8-7.1 8.5 0 2.3 3.2 4.3 7.1 4.3s7.1-1.9 7.1-4.3z"/><path fill="#F7944B" d="M413.9 239.3c-.8-.4-1.8-.7-2.8-.7-1 0-1.9.2-2.8.7-.4 1.2 0 5 2.8 5s3.2-3.8 2.8-5z"/><g fill="#F7C1A1"><path d="M413.9 239.3c-.8-.4-1.8-.7-2.8-.7-1 0-1.9.2-2.8.7.3 1.2 1.4 2.2 2.8 2.2s2.5-1 2.8-2.2zM409.7 234.2h2.8v5.5h-2.8z"/></g><path fill="#F7C1A1" d="M411.1 218.8c-3.9 0-7.1 3.3-7.1 7.4v3.7c0 4.1 3.2 7.4 7.1 7.4s7.1-3.3 7.1-7.4v-3.7c0-4.1-3.2-7.4-7.1-7.4z"/><path fill="#513432" d="M411.1 217.1c-4.8 0-8.8 4.1-8.8 9.1v3.7c0 1.4.5 2.7.9 3.9.2.5.3 1.2.2 2h2.1c-.6-1.6-.3-6.8 2.9-8.3s5.5-5.2 5.5-5.2c2 .9 4.3 3.9 4.3 3.9h1.7c0-5-3.9-9.1-8.8-9.1z"/></g><path opacity=".03" d="M396.2 207.6v6.4h-6.4v.4h6.8v-6.8zM396.2 207.6v6.4h-6.4v.8h7.2v-7.2zM396.2 207.6v6.4h-6.4v1.2h7.5v-7.6zM396.5 207.6h-.3v6.4h-6.4v1.6h7.9v-8zM396.2 207.6v6.4h-6.4v1.9h8.3v-8.3z"/><path fill="#EDEDED" d="M396.2 207.6l-6.4 6.4h6.4z"/></g><path opacity=".15" d="M105.4 358.9H37.3v-35.5l9.9-9.9h58.2z"/><path fill="#EDEDED" d="M103.9 357.4H35.8v-38.9l6.4-6.5h61.7z"/><path fill="#8FB8E2" d="M40.3 316.6h59v36.3h-59z"/><path fill="#96B548" d="M40.3 337h59v15.9h-59z"/><defs><path id="d" d="M40.3 316.6h59v36.3h-59z"/></defs><clipPath id="e"><use xlink:href="#d" overflow="visible"/></clipPath><g clip-path="url(#e)"><path fill="#5593D7" d="M75.8 353.1c0-3-2-5.5-4.6-5.5-2.5 0-4.6 2.5-4.6 5.5 0 1.5 2 2.8 4.6 2.8s4.6-1.3 4.6-2.8zM66.6 353c0-3 2-5.5 4.6-5.5s4.6 2.5 4.6 5.5h-9.2z"/><g fill="#F7C1A1"><path d="M71.2 351.2c1.4 0 2.7-.8 3.3-2-.8-1-2-1.6-3.3-1.6-1.3 0-2.4.6-3.3 1.6.7 1.2 1.9 2 3.3 2zM70.3 344.6h1.8v3.5h-1.8z"/></g><g fill="#F69626"><path d="M73.6 334.2c.6-.7 1.5-1.1 2.5-1.1 1.8 0 3.3 1.5 3.3 3.3 0 .4-.1.7-.2 1.1-.4-.8-1.1-1.5-1.9-1.8 0 0 1.8 2.5.6 5.8-1.3 3.3.7 4.6.7 4.6s-2.9 2.4-5.7-.2h-1.7v-11.1l2.4-.6zM68.8 334.2c-.6-.7-1.5-1.1-2.5-1.1-1.8 0-3.3 1.5-3.3 3.3 0 .4.1.7.2 1.1.4-.8 1.1-1.5 1.9-1.8 0 0-1.8 2.5-.6 5.8 1.3 3.3-.7 4.6-.7 4.6s2.9 2.4 5.7-.2h1.7v-11.1l-2.4-.6z"/></g><path fill="#F7C1A1" d="M71.2 334.7c-2.5 0-4.6 2.1-4.6 4.7v2.4c0 2.6 2 4.7 4.6 4.7s4.6-2.1 4.6-4.7v-2.4c0-2.5-2.1-4.7-4.6-4.7z"/><path fill="#ED5E51" d="M68.8 334.2c-.2-.2-.4-.4-.6-.5-.4.1-.9.4-1.3.9-.7.7-1.1 1.6-.8 1.8.3.3 1.1-.1 1.8-.8.5-.5.8-1 .9-1.4zM73.6 334.2c.2-.2.4-.4.6-.5.4.1.9.4 1.3.9.7.7 1.1 1.6.8 1.8-.3.3-1.1-.1-1.8-.8-.5-.5-.8-1-.9-1.4z"/><path fill="#F69626" d="M76.6 337.7c-.7-2.3-2.9-4-5.4-4-2.5 0-4.7 1.7-5.4 4-.2.5-.2 1.2-.1 1.8h.9s3.8-.4 4.6-2.4c.8 2 4.6 2.4 4.6 2.4h.9c.1-.6.1-1.3-.1-1.8z"/><path fill="#513432" d="M57.3 345.4c-5 0-9-4-9-9v-5.8c0-5 4-9 9-9s9 4 9 9v5.8c0 4.9-4 9-9 9z"/><path fill="#5593D7" d="M64.2 351.6c0-4.7-3.2-8.5-7.1-8.5-3.9 0-7.1 3.8-7.1 8.5 0 2.3 3.2 4.3 7.1 4.3s7.1-2 7.1-4.3z"/><path fill="#F7944B" d="M59.9 343.7c-.8-.4-1.8-.7-2.8-.7-1 0-1.9.2-2.8.7-.4 1.2 0 5 2.8 5s3.2-3.8 2.8-5z"/><g fill="#F7C1A1"><path d="M59.9 343.7c-.8-.4-1.8-.7-2.8-.7-1 0-1.9.2-2.8.7.3 1.2 1.4 2.2 2.8 2.2s2.5-.9 2.8-2.2zM55.7 338.6h2.8v5.5h-2.8z"/></g><path fill="#F7C1A1" d="M57.2 323.2c-3.9 0-7.1 3.3-7.1 7.4v3.7c0 4.1 3.2 7.4 7.1 7.4 3.9 0 7.1-3.3 7.1-7.4v-3.7c-.1-4.1-3.2-7.4-7.1-7.4z"/><path fill="#513432" d="M57.2 321.5c-4.8 0-8.8 4.1-8.8 9.1v3.7c0 1.4.5 2.7.9 3.9.2.5.3 1.2.2 2h2.1c-.6-1.6-.3-6.8 2.9-8.3s5.5-5.2 5.5-5.2c2 .9 4.3 3.9 4.3 3.9H66c-.1-5-4-9.1-8.8-9.1z"/></g><path opacity=".03" d="M42.2 312v6.5h-6.4v.3h6.8V312zM42.2 312v6.5h-6.4v.7H43V312zM42.2 312v6.5h-6.4v1.1h7.6V312zM42.5 312h-.3v6.5h-6.4v1.5h8v-8zM42.3 312h-.1v6.5h-6.4v1.8h8.3V312z"/><path fill="#EDEDED" d="M42.2 312l-6.4 6.5h6.4z"/><g opacity=".5"><path opacity=".15" d="M75.2 174.4H7.1v-35.6L17 129h58.2z"/><path fill="#EDEDED" d="M73.7 172.9H5.6v-39l6.5-6.4h61.6z"/><path fill="#8FB8E2" d="M10.2 132h59v36.3h-59z"/><path fill="#96B548" d="M10.2 152.5h59v15.9h-59z"/><defs><path id="f" d="M10.2 132h59v36.3h-59z"/></defs><clipPath id="g"><use xlink:href="#f" overflow="visible"/></clipPath><g clip-path="url(#g)"><path fill="#5593D7" d="M45.6 168.5c0-3-2-5.5-4.6-5.5-2.5 0-4.6 2.5-4.6 5.5 0 1.5 2 2.8 4.6 2.8s4.6-1.3 4.6-2.8zM36.5 168.5c0-3 2-5.5 4.6-5.5 2.5 0 4.6 2.5 4.6 5.5h-9.2z"/><g fill="#F7C1A1"><path d="M41 166.7c1.4 0 2.7-.8 3.3-2-.8-1-2-1.6-3.3-1.6-1.3 0-2.4.6-3.3 1.6.7 1.2 1.9 2 3.3 2zM40.1 160.1h1.8v3.5h-1.8z"/></g><g fill="#F69626"><path d="M43.4 149.7c.6-.7 1.5-1.1 2.5-1.1 1.8 0 3.3 1.5 3.3 3.3 0 .4-.1.7-.2 1.1-.4-.8-1.1-1.5-1.9-1.8 0 0 1.8 2.5.6 5.8-1.3 3.3.7 4.6.7 4.6s-2.9 2.4-5.7-.2H41v-11.1l2.4-.6zM38.6 149.7c-.6-.7-1.5-1.1-2.5-1.1-1.8 0-3.3 1.5-3.3 3.3 0 .4.1.7.2 1.1.4-.8 1.1-1.5 1.9-1.8 0 0-1.8 2.5-.6 5.8 1.3 3.3-.7 4.6-.7 4.6s2.9 2.4 5.7-.2H41v-11.1l-2.4-.6z"/></g><path fill="#F7C1A1" d="M41 150.2c-2.5 0-4.6 2.1-4.6 4.7v2.4c0 2.6 2 4.7 4.6 4.7 2.5 0 4.6-2.1 4.6-4.7V155c0-2.7-2.1-4.8-4.6-4.8z"/><path fill="#ED5E51" d="M38.6 149.7c-.2-.2-.4-.4-.6-.5-.4.1-.9.4-1.3.9-.7.7-1.1 1.6-.8 1.8.3.3 1.1-.1 1.8-.8.5-.5.9-1.1.9-1.4zM43.4 149.7c.2-.2.4-.4.6-.5.4.1.9.4 1.3.9.7.7 1.1 1.6.8 1.8-.3.3-1.1-.1-1.8-.8-.5-.5-.8-1.1-.9-1.4z"/><path fill="#F69626" d="M46.4 153.2c-.7-2.3-2.9-4-5.4-4-2.5 0-4.7 1.7-5.4 4-.2.5-.2 1.2-.1 1.8h.9s3.8-.4 4.6-2.4c.8 2 4.6 2.4 4.6 2.4h.9c.1-.6.1-1.3-.1-1.8z"/><path fill="#513432" d="M27.1 160.8c-5 0-9-4-9-9V146c0-5 4-9 9-9s9 4 9 9v5.8c0 5-4 9-9 9z"/><path fill="#5593D7" d="M34.1 167c0-4.7-3.2-8.5-7.1-8.5-3.9 0-7.1 3.8-7.1 8.5 0 2.3 3.2 4.3 7.1 4.3s7.1-1.9 7.1-4.3z"/><path fill="#F7944B" d="M29.7 159.2c-.8-.4-1.8-.7-2.8-.7s-1.9.2-2.8.7c-.4 1.2 0 5 2.8 5s3.2-3.8 2.8-5z"/><g fill="#F7C1A1"><path d="M29.7 159.2c-.8-.4-1.8-.7-2.8-.7-1 0-1.9.2-2.8.7.3 1.2 1.4 2.2 2.8 2.2s2.5-1 2.8-2.2zM25.6 154h2.8v5.5h-2.8z"/></g><path fill="#F7C1A1" d="M27 138.7c-3.9 0-7.1 3.3-7.1 7.4v3.7c0 4.1 3.2 7.4 7.1 7.4 3.9 0 7.1-3.3 7.1-7.4v-3.7c0-4.1-3.2-7.4-7.1-7.4z"/><path fill="#513432" d="M27 137c-4.8 0-8.8 4.1-8.8 9.1v3.7c0 1.4.5 2.7.9 3.9.2.5.3 1.2.2 2h2.1c-.6-1.6-.3-6.8 2.9-8.3 3.3-1.5 5.5-5.2 5.5-5.2 2 .9 4.3 3.9 4.3 3.9h1.7c0-5.1-4-9.1-8.8-9.1z"/></g><path opacity=".03" d="M12.1 127.5v6.4H5.6v.4h6.8v-6.8zM12.1 127.5v6.4H5.6v.8h7.2v-7.2zM12.1 127.5v6.4H5.6v1.2h7.6v-7.6zM12.3 127.5h-.2v6.4H5.6v1.5h8v-7.9zM12.1 127.5v6.4H5.6v1.9h8.3v-8.3z"/><path fill="#EDEDED" d="M12.1 127.5l-6.5 6.4h6.5z"/></g><g opacity=".75"><path opacity=".15" d="M261.5 124.9h-68.1V89.4l9.8-9.9h58.3z"/><path fill="#EDEDED" d="M259.9 123.4h-68.1V84.5l6.5-6.5h61.6z"/><path fill="#8FB8E2" d="M196.4 82.6h59v36.3h-59z"/><path fill="#96B548" d="M196.4 103h59v15.9h-59z"/><defs><path id="h" d="M196.4 82.6h59v36.3h-59z"/></defs><clipPath id="i"><use xlink:href="#h" overflow="visible"/></clipPath><g clip-path="url(#i)"><path fill="#5593D7" d="M231.8 119.1c0-3-2-5.5-4.6-5.5-2.5 0-4.6 2.5-4.6 5.5 0 1.5 2 2.8 4.6 2.8 2.6-.1 4.6-1.3 4.6-2.8zM222.7 119c0-3 2-5.5 4.6-5.5 2.5 0 4.6 2.5 4.6 5.5h-9.2z"/><g fill="#F7C1A1"><path d="M227.2 117.2c1.4 0 2.7-.8 3.3-2-.8-1-2-1.6-3.3-1.6-1.3 0-2.4.6-3.3 1.6.7 1.2 1.9 2 3.3 2zM226.3 110.6h1.8v3.5h-1.8z"/></g><g fill="#F69626"><path d="M229.6 100.2c.6-.7 1.5-1.1 2.5-1.1 1.8 0 3.3 1.5 3.3 3.3 0 .4-.1.7-.2 1.1-.4-.8-1.1-1.5-1.9-1.8 0 0 1.8 2.5.6 5.8-1.3 3.3.7 4.6.7 4.6s-2.9 2.4-5.7-.2h-1.7v-11.1l2.4-.6zM224.9 100.2c-.6-.7-1.5-1.1-2.5-1.1-1.8 0-3.3 1.5-3.3 3.3 0 .4.1.7.2 1.1.4-.8 1.1-1.5 1.9-1.8 0 0-1.8 2.5-.6 5.8 1.3 3.3-.7 4.6-.7 4.6s2.9 2.4 5.7-.2h1.7v-11.1l-2.4-.6z"/></g><path fill="#F7C1A1" d="M227.2 100.7c-2.5 0-4.6 2.1-4.6 4.7v2.4c0 2.6 2 4.7 4.6 4.7 2.5 0 4.6-2.1 4.6-4.7v-2.4c0-2.5-2-4.7-4.6-4.7z"/><path fill="#ED5E51" d="M224.9 100.2c-.2-.2-.4-.4-.6-.5-.4.1-.9.4-1.3.9-.7.7-1.1 1.6-.8 1.8.3.3 1.1-.1 1.8-.8.5-.5.8-1 .9-1.4zM229.6 100.2c.2-.2.4-.4.6-.5.4.1.9.4 1.3.9.7.7 1.1 1.6.8 1.8-.3.3-1.1-.1-1.8-.8-.5-.5-.8-1-.9-1.4z"/><path fill="#F69626" d="M232.6 103.7c-.7-2.3-2.9-4-5.4-4-2.5 0-4.7 1.7-5.4 4-.2.5-.2 1.2-.1 1.8h.9s3.8-.4 4.6-2.4c.8 2 4.6 2.4 4.6 2.4h.9c.1-.6.1-1.3-.1-1.8z"/><path fill="#513432" d="M213.3 111.4c-5 0-9-4-9-9v-5.8c0-5 4-9 9-9s9 4 9 9v5.8c0 4.9-4 9-9 9z"/><path fill="#5593D7" d="M220.3 117.6c0-4.7-3.2-8.5-7.1-8.5-3.9 0-7.1 3.8-7.1 8.5 0 2.3 3.2 4.3 7.1 4.3 3.9-.1 7.1-2 7.1-4.3z"/><path fill="#F7944B" d="M216 109.7c-.8-.4-1.8-.7-2.8-.7-1 0-1.9.2-2.8.7-.4 1.2 0 5 2.8 5s3.2-3.8 2.8-5z"/><g fill="#F7C1A1"><path d="M216 109.7c-.8-.4-1.8-.7-2.8-.7-1 0-1.9.2-2.8.7.3 1.2 1.4 2.2 2.8 2.2 1.3 0 2.5-.9 2.8-2.2zM211.8 104.6h2.8v5.5h-2.8z"/></g><path fill="#F7C1A1" d="M213.2 89.2c-3.9 0-7.1 3.3-7.1 7.4v3.7c0 4.1 3.2 7.4 7.1 7.4s7.1-3.3 7.1-7.4v-3.7c0-4.1-3.2-7.4-7.1-7.4z"/><path fill="#513432" d="M213.2 87.5c-4.8 0-8.8 4.1-8.8 9.1v3.7c0 1.4.5 2.7.9 3.9.2.5.3 1.2.2 2h2.1c-.6-1.6-.3-6.8 2.9-8.3 3.3-1.5 5.5-5.2 5.5-5.2 2 .9 4.3 3.9 4.3 3.9h1.7c0-5-4-9.1-8.8-9.1z"/></g><path opacity=".03" d="M198.3 78v6.5h-6.5v.3h6.9V78zM198.3 78v6.5h-6.5v.7h7.2V78zM198.3 78v6.5h-6.5v1.1h7.6V78zM198.6 78h-.3v6.5h-6.5V86h8v-8zM198.3 78v6.5h-6.5v1.8h8.4V78z"/><path fill="#EDEDED" d="M198.3 78l-6.5 6.5h6.5z"/></g><g opacity=".25"><path opacity=".15" d="M420 65.1h-68.1V29.6l9.8-9.8H420z"/><path fill="#EDEDED" d="M418.5 63.6h-68.1V24.7l6.4-6.5h61.7z"/><path fill="#8FB8E2" d="M354.9 22.8h59v36.3h-59z"/><path fill="#96B548" d="M354.9 43.2h59v15.9h-59z"/><defs><path id="j" d="M354.9 22.8h59v36.3h-59z"/></defs><clipPath id="k"><use xlink:href="#j" overflow="visible"/></clipPath><g clip-path="url(#k)"><path fill="#5593D7" d="M390.4 59.3c0-3-2-5.5-4.6-5.5-2.5 0-4.6 2.5-4.6 5.5 0 1.5 2 2.8 4.6 2.8s4.6-1.3 4.6-2.8zM381.2 59.2c0-3 2-5.5 4.6-5.5s4.6 2.5 4.6 5.5h-9.2z"/><g fill="#F7C1A1"><path d="M385.8 57.4c1.4 0 2.7-.8 3.3-2-.8-1-2-1.6-3.3-1.6-1.3 0-2.4.6-3.3 1.6.6 1.2 1.9 2 3.3 2zM384.9 50.9h1.8v3.5h-1.8z"/></g><g fill="#F69626"><path d="M388.2 40.4c.6-.7 1.5-1.1 2.5-1.1 1.8 0 3.3 1.5 3.3 3.3 0 .4-.1.7-.2 1.1-.4-.8-1.1-1.5-1.9-1.8 0 0 1.8 2.5.6 5.8-1.3 3.3.7 4.6.7 4.6s-2.9 2.4-5.7-.2h-1.7V41l2.4-.6zM383.4 40.4c-.6-.7-1.5-1.1-2.5-1.1-1.8 0-3.3 1.5-3.3 3.3 0 .4.1.7.2 1.1.4-.8 1.1-1.5 1.9-1.8 0 0-1.8 2.5-.6 5.8 1.3 3.3-.7 4.6-.7 4.6s2.9 2.4 5.7-.2h1.7V41l-2.4-.6z"/></g><path fill="#F7C1A1" d="M385.8 41c-2.5 0-4.6 2.1-4.6 4.7v2.4c0 2.6 2 4.7 4.6 4.7s4.6-2.1 4.6-4.7v-2.4c0-2.6-2.1-4.7-4.6-4.7z"/><path fill="#ED5E51" d="M383.4 40.4c-.2-.2-.4-.4-.6-.5-.4.1-.9.4-1.3.9-.7.7-1.1 1.6-.8 1.8.3.3 1.1-.1 1.8-.8.5-.5.8-1 .9-1.4zM388.2 40.4c.2-.2.4-.4.6-.5.4.1.9.4 1.3.9.7.7 1.1 1.6.8 1.8-.3.3-1.1-.1-1.8-.8-.5-.5-.8-1-.9-1.4z"/><path fill="#F69626" d="M391.2 43.9c-.7-2.3-2.9-4-5.4-4-2.5 0-4.7 1.7-5.4 4-.2.5-.2 1.2-.1 1.8h.9s3.8-.4 4.6-2.4c.8 2 4.6 2.4 4.6 2.4h.9c0-.6 0-1.2-.1-1.8z"/><path fill="#513432" d="M371.9 51.6c-5 0-9-4-9-9v-5.8c0-5 4-9 9-9s9 4 9 9v5.8c0 4.9-4.1 9-9 9z"/><path fill="#5593D7" d="M378.8 57.8c0-4.7-3.2-8.5-7.1-8.5-3.9 0-7.1 3.8-7.1 8.5 0 2.3 3.2 4.3 7.1 4.3s7.1-2 7.1-4.3z"/><path fill="#F7944B" d="M374.5 49.9c-.8-.4-1.8-.7-2.8-.7-1 0-1.9.2-2.8.7-.4 1.2 0 5 2.8 5s3.2-3.8 2.8-5z"/><g fill="#F7C1A1"><path d="M374.5 49.9c-.8-.4-1.8-.7-2.8-.7-1 0-1.9.2-2.8.7.3 1.2 1.4 2.2 2.8 2.2s2.5-.9 2.8-2.2zM370.3 44.8h2.8v5.5h-2.8z"/></g><path fill="#F7C1A1" d="M371.7 29.4c-3.9 0-7.1 3.3-7.1 7.4v3.7c0 4.1 3.2 7.4 7.1 7.4s7.1-3.3 7.1-7.4v-3.7c0-4.1-3.1-7.4-7.1-7.4z"/><path fill="#513432" d="M371.7 27.7c-4.8 0-8.8 4.1-8.8 9.1v3.7c0 1.4.5 2.7.9 3.9.2.5.3 1.2.2 2h2.1c-.6-1.6-.3-6.8 2.9-8.3 3.3-1.5 5.5-5.2 5.5-5.2 2 .9 4.3 3.9 4.3 3.9h1.7c0-5-3.9-9.1-8.8-9.1z"/></g><path opacity=".03" d="M356.8 18.2v6.5h-6.4v.3h6.8v-6.8zM356.8 18.2v6.5h-6.4v.7h7.2v-7.2zM356.8 18.2v6.5h-6.4v1.1h7.6v-7.6zM357.1 18.2h-.3v6.5h-6.4v1.5h7.9v-8zM356.9 18.2h-.1v6.5h-6.4v1.9h8.3v-8.4z"/><path fill="#EDEDED" d="M356.8 18.2l-6.4 6.5h6.4z"/></g><path opacity=".15" d="M223.4 204.8h-68.1v-35.5l9.8-9.9h58.3z"/><path fill="#EDEDED" d="M221.9 203.3h-68.1v-39l6.4-6.4h61.7z"/><path fill="#8FB8E2" d="M158.3 162.4h59v36.3h-59z"/><path fill="#96B548" d="M158.3 182.9h59v15.9h-59z"/><defs><path id="l" d="M158.3 162.4h59v36.3h-59z"/></defs><clipPath id="m"><use xlink:href="#l" overflow="visible"/></clipPath><g clip-path="url(#m)"><path fill="#5593D7" d="M193.8 198.9c0-3-2-5.5-4.6-5.5-2.5 0-4.6 2.5-4.6 5.5 0 1.5 2 2.8 4.6 2.8 2.5 0 4.6-1.2 4.6-2.8zM184.6 198.9c0-3 2-5.5 4.6-5.5 2.5 0 4.6 2.5 4.6 5.5h-9.2z"/><g fill="#F7C1A1"><path d="M189.2 197.1c1.4 0 2.7-.8 3.3-2-.8-1-2-1.6-3.3-1.6-1.3 0-2.4.6-3.3 1.6.6 1.2 1.9 2 3.3 2zM188.3 190.5h1.8v3.5h-1.8z"/></g><g fill="#F69626"><path d="M191.6 180.1c.6-.7 1.5-1.1 2.5-1.1 1.8 0 3.3 1.5 3.3 3.3 0 .4-.1.7-.2 1.1-.4-.8-1.1-1.5-1.9-1.8 0 0 1.8 2.5.6 5.8-1.3 3.3.7 4.6.7 4.6s-2.9 2.4-5.7-.2h-1.7v-11.1l2.4-.6zM186.8 180.1c-.6-.7-1.5-1.1-2.5-1.1-1.8 0-3.3 1.5-3.3 3.3 0 .4.1.7.2 1.1.4-.8 1.1-1.5 1.9-1.8 0 0-1.8 2.5-.6 5.8 1.3 3.3-.7 4.6-.7 4.6s2.9 2.4 5.7-.2h1.7v-11.1l-2.4-.6z"/></g><path fill="#F7C1A1" d="M189.2 180.6c-2.5 0-4.6 2.1-4.6 4.7v2.4c0 2.6 2 4.7 4.6 4.7 2.5 0 4.6-2.1 4.6-4.7v-2.4c0-2.5-2.1-4.7-4.6-4.7z"/><path fill="#ED5E51" d="M186.8 180.1c-.2-.2-.4-.4-.6-.5-.4.1-.9.4-1.3.9-.7.7-1.1 1.6-.8 1.8.3.3 1.1-.1 1.8-.8.5-.5.8-1 .9-1.4zM191.6 180.1c.2-.2.4-.4.6-.5.4.1.9.4 1.3.9.7.7 1.1 1.6.8 1.8-.3.3-1.1-.1-1.8-.8-.5-.5-.8-1-.9-1.4z"/><path fill="#F69626" d="M194.6 183.6c-.7-2.3-2.9-4-5.4-4-2.5 0-4.7 1.7-5.4 4-.2.5-.2 1.2-.1 1.8h.9s3.8-.4 4.6-2.4c.8 2 4.6 2.4 4.6 2.4h.9c0-.6.1-1.3-.1-1.8z"/><path fill="#513432" d="M175.3 191.2c-5 0-9-4-9-9v-5.8c0-5 4-9 9-9s9 4 9 9v5.8c0 5-4 9-9 9z"/><path fill="#5593D7" d="M182.2 197.4c0-4.7-3.2-8.5-7.1-8.5-3.9 0-7.1 3.8-7.1 8.5 0 2.3 3.2 4.3 7.1 4.3 4 0 7.1-1.9 7.1-4.3z"/><path fill="#F7944B" d="M177.9 189.6c-.8-.4-1.8-.7-2.8-.7-1 0-1.9.2-2.8.7-.4 1.2 0 5 2.8 5s3.2-3.8 2.8-5z"/><g fill="#F7C1A1"><path d="M177.9 189.6c-.8-.4-1.8-.7-2.8-.7s-1.9.2-2.8.7c.3 1.2 1.4 2.2 2.8 2.2s2.5-1 2.8-2.2zM173.7 184.5h2.8v5.5h-2.8z"/></g><path fill="#F7C1A1" d="M175.1 169.1c-3.9 0-7.1 3.3-7.1 7.4v3.7c0 4.1 3.2 7.4 7.1 7.4s7.1-3.3 7.1-7.4v-3.7c0-4.1-3.1-7.4-7.1-7.4z"/><path fill="#513432" d="M175.1 167.4c-4.8 0-8.8 4.1-8.8 9.1v3.7c0 1.4.5 2.7.9 3.9.2.5.3 1.2.2 2h2.1c-.6-1.6-.3-6.8 2.9-8.3s5.5-5.2 5.5-5.2c2 .9 4.3 3.9 4.3 3.9h1.7c0-5-3.9-9.1-8.8-9.1z"/></g><path opacity=".03" d="M160.2 157.9v6.4h-6.4v.4h6.8v-6.8zM160.2 157.9v6.4h-6.4v.8h7.2v-7.2zM160.2 157.9v6.4h-6.4v1.2h7.6v-7.6zM160.5 157.9h-.3v6.4h-6.4v1.6h7.9v-8zM160.3 157.9h-.1v6.4h-6.4v1.9h8.3v-8.3z"/><path fill="#EDEDED" d="M160.2 157.9l-6.4 6.4h6.4z"/><path d="M347.8 363.8h-232v-134c0-2.8 2.3-5.2 5.2-5.2h221.6c2.8 0 5.2 2.3 5.2 5.2v134z"/><path fill="#5592D7" d="M125.1 233.9h213.4v120.6H125.1z"/><path fill="#EDEDED" d="M166.9 250.9h129.8v86.5H166.9z"/><path fill="#8FB8E2" d="M175.6 259.6h112.5v69.2H175.6z"/><path fill="#96B548" d="M175.6 298.5h112.5v30.3H175.6z"/><defs><path id="n" d="M175.6 259.6h112.5v69.2H175.6z"/></defs><clipPath id="o"><use xlink:href="#n" overflow="visible"/></clipPath><g clip-path="url(#o)"><path fill="#5593D7" d="M243.1 329.2c0-5.8-3.9-10.5-8.7-10.5-4.8 0-8.7 4.7-8.7 10.5 0 2.9 3.9 5.3 8.7 5.3s8.7-2.4 8.7-5.3zM225.7 329.1c0-5.8 3.9-10.4 8.7-10.4s8.7 4.7 8.7 10.4h-17.4z"/><g fill="#F7C1A1"><path d="M234.4 325.6c2.7 0 5.1-1.5 6.2-3.8-1.6-1.9-3.8-3.1-6.2-3.1-2.4 0-4.6 1.2-6.2 3.1 1.1 2.3 3.5 3.8 6.2 3.8zM232.7 313.1h3.5v6.7h-3.5z"/></g><g fill="#F69626"><path d="M238.9 293.2c1.2-1.3 2.9-2.2 4.8-2.2 3.5 0 6.4 2.8 6.4 6.4 0 .7-.1 1.4-.3 2-.7-1.6-2-2.8-3.6-3.4 0 0 3.5 4.8 1.1 11.1s1.3 8.7 1.3 8.7-5.6 4.7-10.9-.4h-3.2v-21.2l4.4-1zM229.8 293.2c-1.2-1.3-2.9-2.2-4.8-2.2-3.5 0-6.4 2.8-6.4 6.4 0 .7.1 1.4.3 2 .7-1.6 2-2.8 3.6-3.4 0 0-3.5 4.8-1.1 11.1s-1.3 8.7-1.3 8.7 5.6 4.7 10.9-.4h3.2v-21.2l-4.4-1z"/></g><path fill="#F7C1A1" d="M234.4 294.3c-4.8 0-8.7 4.1-8.7 9.1v4.5c0 5 3.9 9.1 8.7 9.1s8.7-4.1 8.7-9.1v-4.5c0-5.1-3.9-9.1-8.7-9.1z"/><path fill="#ED5E51" d="M229.9 293.2c-.3-.4-.7-.7-1.1-1-.7.2-1.7.8-2.6 1.7-1.4 1.4-2.1 3-1.6 3.5s2.1-.2 3.5-1.6c1-.9 1.6-1.9 1.8-2.6zM238.9 293.2c.3-.4.7-.7 1.1-1 .7.2 1.7.8 2.6 1.7 1.4 1.4 2.1 3 1.6 3.5s-2.1-.2-3.5-1.6c-1-.9-1.6-1.9-1.8-2.6z"/><path fill="#F69626" d="M244.7 299.9c-1.4-4.5-5.5-7.7-10.3-7.7-4.8 0-8.9 3.2-10.3 7.7-.3 1-.3 2.3-.1 3.4h1.7s7.2-.8 8.7-4.6c1.5 3.8 8.7 4.6 8.7 4.6h1.7c.2-1.1.2-2.4-.1-3.4z"/><path fill="#513432" d="M207.9 314.5c-9.5 0-17.2-7.7-17.2-17.2v-11.1c0-9.5 7.7-17.2 17.2-17.2s17.2 7.7 17.2 17.2v11.1c-.1 9.5-7.8 17.2-17.2 17.2z"/><path fill="#5593D7" d="M221.1 326.3c0-9-6-16.2-13.5-16.2s-13.5 7.3-13.5 16.2c0 4.5 6 8.1 13.5 8.1s13.5-3.6 13.5-8.1z"/><path fill="#F7944B" d="M212.9 311.4c-1.6-.8-3.4-1.3-5.2-1.3-1.9 0-3.6.5-5.2 1.3-.8 2.2 0 9.5 5.2 9.5s5.9-7.3 5.2-9.5z"/><g fill="#F7C1A1"><path d="M212.9 311.4c-1.6-.8-3.4-1.3-5.2-1.3-1.9 0-3.6.5-5.2 1.3.6 2.4 2.7 4.1 5.2 4.1s4.6-1.8 5.2-4.1zM204.9 301.6h5.4v10.5h-5.4z"/></g><path fill="#F7C1A1" d="M207.6 272.3c-7.5 0-13.5 6.3-13.5 14.1v7c0 7.8 6 14.1 13.5 14.1s13.5-6.3 13.5-14.1v-7c0-7.8-6-14.1-13.5-14.1z"/><path fill="#513432" d="M207.6 269c-9.2 0-16.8 7.8-16.8 17.3v7c0 2.7.9 5.1 1.6 7.5.3 1 .6 2.3.4 3.7h3.9c-1.1-3-.7-12.9 5.6-15.8 6.2-2.9 10.5-9.9 10.5-9.9 3.9 1.8 8.3 7.4 8.3 7.4h3.2c.1-9.4-7.4-17.2-16.7-17.2z"/></g><path fill="#C9C9CC" d="M342.6 384.4H121c-2.8 0-5.2-2.3-5.2-5.2v-15.5h232v15.5c0 2.9-2.3 5.2-5.2 5.2zM252.9 408.1h-42.2l2-23.7h38.2zM196.2 408.1h71.1v6.2h-71.1z"/><circle cx="231.8" cy="374.1" r="5.2"/><path fill="#B2B2B2" d="M251.9 397.8l-1-13.4h-38.2l-1 9.3z"/></svg>