<svg xmlns="http://www.w3.org/2000/svg" xmlns:xlink="http://www.w3.org/1999/xlink" viewBox="0 0 490 440" enable-background="new 0 0 490 440"><path opacity=".15" d="M169.5 117.2H7.3V32.5L30.7 9h138.8z"/><path fill="#EDEDED" d="M165.9 113.6H3.7V20.8L19 5.4h146.9z"/><path fill="#8FB8E2" d="M14.5 16.2h140.6v86.5H14.5z"/><path fill="#96B548" d="M14.5 64.9h140.6v37.9H14.5z"/><defs><path id="a" d="M14.5 16.2h140.6v86.5H14.5z"/></defs><clipPath id="b"><use xlink:href="#a" overflow="visible"/></clipPath><g clip-path="url(#b)"><path fill="#5593D7" d="M98.9 103.2C98.9 95.9 94.1 90 88 90c-6 0-10.9 5.9-10.9 13.2 0 3.6 4.9 6.6 10.9 6.6s10.9-3 10.9-6.6zM77.2 103.1C77.2 95.9 82 90 88 90c6 0 10.9 5.8 10.9 13.1H77.2z"/><g fill="#F7C1A1"><path d="M88 98.7c3.4 0 6.3-1.9 7.8-4.8-2-2.4-4.7-3.9-7.8-3.9-3 0-5.8 1.5-7.8 3.9 1.5 3 4.5 4.8 7.8 4.8zM85.9 83.2h4.4v8.4h-4.4z"/></g><g fill="#F69626"><path d="M93.7 58.3c1.5-1.7 3.6-2.7 6-2.7 4.4 0 7.9 3.6 7.9 7.9 0 .9-.2 1.7-.4 2.5-.9-2-2.5-3.5-4.5-4.2 0 .1 4.3 6 1.4 13.8-3 7.8 1.6 10.9 1.6 10.9s-7 5.8-13.7-.5h-4V59.6l5.7-1.3zM82.4 58.3c-1.5-1.7-3.6-2.7-6-2.7-4.4 0-7.9 3.6-7.9 7.9 0 .9.2 1.7.4 2.5.9-2 2.5-3.5 4.5-4.2 0 .1-4.3 6-1.4 13.8 3 7.8-1.6 10.9-1.6 10.9s7 5.8 13.7-.5h4V59.6l-5.7-1.3z"/></g><path fill="#F7C1A1" d="M88 59.6c-6 0-10.9 5.1-10.9 11.3v5.7c0 6.3 4.9 11.3 10.9 11.3s10.9-5.1 10.9-11.3v-5.7c0-6.3-4.8-11.3-10.9-11.3z"/><path fill="#ED5E51" d="M82.4 58.3c-.4-.5-.9-.9-1.4-1.3-.9.2-2.1 1-3.2 2.1-1.8 1.8-2.7 3.7-2 4.4.7.7 2.6-.2 4.4-2 1.2-1.1 2-2.3 2.2-3.2zM93.7 58.3c.4-.5.9-.9 1.4-1.2.9.2 2.1 1 3.2 2.1 1.8 1.8 2.7 3.7 2 4.4-.7.7-2.6-.2-4.4-2-1.2-1.2-2-2.4-2.2-3.3z"/><path fill="#F69626" d="M100.9 66.6C99.1 61 94 57 88 57s-11 4-12.8 9.6c-.4 1.3-.4 2.9-.1 4.3h2.1s9-1 10.9-5.8C90 69.9 99 70.9 99 70.9h2.1c.2-1.4.2-3-.2-4.3z"/><path fill="#513432" d="M54.9 84.9c-11.9 0-21.5-9.6-21.5-21.5V49.5C33.4 37.6 43 28 54.9 28s21.5 9.6 21.5 21.5v13.9c-.1 11.9-9.7 21.5-21.5 21.5z"/><path fill="#5593D7" d="M71.5 99.6c0-11.2-7.6-20.3-16.9-20.3-9.3 0-16.9 9.1-16.9 20.3 0 5.6 7.6 10.1 16.9 10.1s16.9-4.5 16.9-10.1z"/><path fill="#F7944B" d="M61.1 81c-2-1-4.2-1.6-6.6-1.6S50 79.9 48 81c-1 2.8 0 11.9 6.6 11.9 6.5 0 7.5-9.1 6.5-11.9z"/><g fill="#F7C1A1"><path d="M61.1 81c-2-1-4.2-1.6-6.6-1.6-2.3 0-4.5.6-6.6 1.6.7 3 3.4 5.2 6.6 5.2 3.2-.1 5.9-2.3 6.6-5.2zM51.2 68.7H58v13.1h-6.8z"/></g><path fill="#F7C1A1" d="M54.6 32.1c-9.3 0-16.9 7.9-16.9 17.6v8.8c0 9.7 7.6 17.6 16.9 17.6 9.3 0 16.9-7.9 16.9-17.6v-8.8c0-9.7-7.6-17.6-16.9-17.6z"/><path fill="#513432" d="M54.6 28c-11.6 0-21 9.7-21 21.7v8.8c0 3.3 1.1 6.4 2.1 9.3.4 1.3.7 2.9.4 4.7H41c-1.4-3.7-.8-16.1 7-19.8 7.8-3.6 13.1-12.3 13.1-12.3 4.9 2.2 10.3 9.3 10.3 9.3h4.1c0-12-9.4-21.7-20.9-21.7z"/></g><path opacity=".03" d="M19 5.4v15.4H3.7v.9h16.2V5.4zM19 5.4v15.4H3.7v1.8h17.1V5.4zM19 5.4v15.4H3.7v2.7h18V5.4zM19.7 5.4H19v15.4H3.7v3.6h18.9v-19zM19.1 5.4H19v15.4H3.7v4.5h19.8V5.4z"/><path fill="#EDEDED" d="M19 5.4L3.7 20.8H19z"/><path opacity=".15" d="M256.5 217.2h81.1v54.1h-81.1zM148.3 217.2h81.1v54.1h-81.1z"/><defs><path id="c" d="M144.7 214h81.1v54.1h-81.1z"/></defs><clipPath id="d"><use xlink:href="#c" overflow="visible"/></clipPath><g clip-path="url(#d)"><path fill="#EDEDED" d="M144.7 159.9H307v108.2H144.7z"/><path fill="#8FB8E2" d="M155.5 170.7h140.6v86.5H155.5z"/><path fill="#96B548" d="M155.5 219.4h140.6v37.9H155.5z"/><defs><path id="e" d="M155.5 170.7h140.6v86.5H155.5z"/></defs><clipPath id="f"><use xlink:href="#e" overflow="visible"/></clipPath><g clip-path="url(#f)"><path fill="#5593D7" d="M239.9 257.7c0-7.3-4.9-13.2-10.9-13.2s-10.9 5.9-10.9 13.2c0 3.6 4.9 6.6 10.9 6.6s10.9-3 10.9-6.6zM218.1 257.6c0-7.2 4.9-13.1 10.9-13.1s10.9 5.8 10.9 13.1h-21.8z"/><g fill="#F7C1A1"><path d="M229 253.3c3.4 0 6.3-1.9 7.8-4.8-2-2.4-4.7-3.9-7.8-3.9-3 0-5.8 1.5-7.8 3.9 1.5 2.9 4.5 4.8 7.8 4.8zM226.8 237.7h4.4v8.4h-4.4z"/></g><g fill="#F69626"><path d="M234.7 212.8c1.5-1.7 3.6-2.7 6-2.7 4.4 0 7.9 3.6 7.9 7.9 0 .9-.2 1.7-.4 2.5-.9-2-2.5-3.5-4.5-4.2 0 .1 4.3 6 1.4 13.8-3 7.8 1.6 10.9 1.6 10.9s-7 5.8-13.7-.5h-4V214l5.7-1.2zM223.3 212.8c-1.5-1.7-3.6-2.7-6-2.7-4.4 0-7.9 3.6-7.9 7.9 0 .9.2 1.7.4 2.5.9-2 2.5-3.5 4.5-4.2 0 .1-4.3 6-1.4 13.8 3 7.8-1.6 10.9-1.6 10.9s7 5.8 13.7-.5h4V214l-5.7-1.2z"/></g><path fill="#F7C1A1" d="M229 214.1c-6 0-10.9 5.1-10.9 11.3v5.7c0 6.3 4.9 11.3 10.9 11.3s10.9-5.1 10.9-11.3v-5.7c0-6.3-4.9-11.3-10.9-11.3z"/><path fill="#ED5E51" d="M223.4 212.8c-.4-.5-.9-.9-1.4-1.2-.9.2-2.1 1-3.2 2.1-1.8 1.8-2.7 3.7-2 4.4.7.7 2.6-.2 4.4-2 1.2-1.2 1.9-2.4 2.2-3.3zM234.7 212.8c.4-.5.9-.9 1.4-1.2.9.2 2.1 1 3.2 2.1 1.8 1.8 2.7 3.7 2 4.4-.7.7-2.6-.2-4.4-2-1.2-1.2-2-2.4-2.2-3.3z"/><path fill="#F69626" d="M241.9 221.1c-1.8-5.6-6.8-9.6-12.8-9.6-6 0-11.1 4.1-12.8 9.6-.4 1.3-.4 2.9-.1 4.3h2.1s9-1 10.9-5.8c1.9 4.8 10.9 5.8 10.9 5.8h2.1c0-1.4.1-3-.3-4.3z"/><path fill="#513432" d="M195.9 239.4c-11.9 0-21.5-9.6-21.5-21.5V204c0-11.9 9.6-21.5 21.5-21.5s21.5 9.6 21.5 21.5v13.9c-.1 11.9-9.7 21.5-21.5 21.5z"/><path fill="#5593D7" d="M212.4 254.1c0-11.2-7.6-20.3-16.9-20.3-9.3 0-16.9 9.1-16.9 20.3 0 5.6 7.6 10.1 16.9 10.1s16.9-4.5 16.9-10.1z"/><path fill="#F7944B" d="M202.1 235.5c-2-1-4.2-1.6-6.6-1.6s-4.5.6-6.6 1.6c-1 2.8 0 11.9 6.6 11.9s7.6-9.1 6.6-11.9z"/><g fill="#F7C1A1"><path d="M202.1 235.5c-2-1-4.2-1.6-6.6-1.6-2.3 0-4.5.6-6.6 1.6.7 3 3.4 5.2 6.6 5.2 3.2-.1 5.9-2.3 6.6-5.2zM192.2 223.2h6.8v13.1h-6.8z"/></g><path fill="#F7C1A1" d="M195.5 186.6c-9.3 0-16.9 7.9-16.9 17.6v8.8c0 9.7 7.6 17.6 16.9 17.6 9.3 0 16.9-7.9 16.9-17.6v-8.8c0-9.7-7.5-17.6-16.9-17.6z"/><path fill="#513432" d="M195.5 182.5c-11.5 0-20.9 9.7-20.9 21.6v8.8c0 3.3 1.1 6.4 2.1 9.3.4 1.3.7 2.9.4 4.7h4.9c-1.4-3.7-.8-16.1 7-19.8 7.8-3.6 13.1-12.3 13.1-12.3 4.9 2.2 10.3 9.3 10.3 9.3h4.1c0-11.9-9.4-21.6-21-21.6z"/></g></g><path opacity=".15" d="M256.5 136.5h81.1v54.1h-81.1z"/><defs><path id="g" d="M252.8 132.9h81.1V187h-81.1z"/></defs><clipPath id="h"><use xlink:href="#g" overflow="visible"/></clipPath><g clip-path="url(#h)"><path fill="#EDEDED" d="M171.7 132.9H334v108.2H171.7z"/><path fill="#8FB8E2" d="M182.5 143.7h140.6v86.5H182.5z"/><path fill="#96B548" d="M182.5 192.4h140.6v37.9H182.5z"/><defs><path id="i" d="M182.5 143.7h140.6v86.5H182.5z"/></defs><clipPath id="j"><use xlink:href="#i" overflow="visible"/></clipPath><g clip-path="url(#j)"><path fill="#5593D7" d="M267 230.7c0-7.3-4.9-13.2-10.9-13.2s-10.9 5.9-10.9 13.2c0 3.6 4.9 6.6 10.9 6.6 6-.1 10.9-3 10.9-6.6zM245.2 230.6c0-7.2 4.9-13.1 10.9-13.1s10.9 5.8 10.9 13.1h-21.8z"/><g fill="#F7C1A1"><path d="M256.1 226.2c3.4 0 6.3-1.9 7.8-4.8-2-2.4-4.7-3.9-7.8-3.9-3 0-5.8 1.5-7.8 3.9 1.5 2.9 4.4 4.8 7.8 4.8zM253.9 210.6h4.4v8.4h-4.4z"/></g><g fill="#F69626"><path d="M261.8 185.7c1.5-1.7 3.6-2.7 6-2.7 4.4 0 7.9 3.6 7.9 7.9 0 .9-.2 1.7-.4 2.5-.9-2-2.5-3.5-4.5-4.2 0 .1 4.3 6 1.4 13.8-3 7.8 1.6 10.9 1.6 10.9s-7 5.8-13.7-.5h-4V187l5.7-1.3zM250.4 185.7c-1.5-1.7-3.6-2.7-6-2.7-4.4 0-7.9 3.6-7.9 7.9 0 .9.2 1.7.4 2.5.9-2 2.5-3.5 4.5-4.2 0 .1-4.3 6-1.4 13.8 3 7.8-1.6 10.9-1.6 10.9s7 5.8 13.7-.5h4V187l-5.7-1.3z"/></g><path fill="#F7C1A1" d="M256.1 187c-6 0-10.9 5.1-10.9 11.3v5.7c0 6.3 4.9 11.3 10.9 11.3s10.9-5 10.9-11.3v-5.7c0-6.2-4.9-11.3-10.9-11.3z"/><path fill="#ED5E51" d="M250.4 185.7c-.4-.5-.9-.9-1.4-1.2-.9.2-2.1 1-3.2 2.1-1.8 1.8-2.7 3.7-2 4.4.7.7 2.6-.2 4.4-2 1.2-1.1 2-2.4 2.2-3.3zM261.7 185.7c.4-.5.9-.9 1.4-1.2.9.2 2.1 1 3.2 2.1 1.8 1.8 2.7 3.7 2 4.4-.7.7-2.6-.2-4.4-2-1.2-1.1-1.9-2.4-2.2-3.3z"/><path fill="#F69626" d="M268.9 194.1c-1.8-5.6-6.8-9.6-12.8-9.6-6 0-11.1 4.1-12.8 9.6-.4 1.3-.4 2.9-.1 4.3h2.1s9-1 10.9-5.8c1.9 4.8 10.9 5.8 10.9 5.8h2.1c.1-1.5.1-3.1-.3-4.3z"/><path fill="#513432" d="M222.9 212.3c-11.9 0-21.5-9.6-21.5-21.5V177c0-11.9 9.6-21.5 21.5-21.5s21.5 9.6 21.5 21.5v13.9c0 11.8-9.6 21.4-21.5 21.4z"/><path fill="#5593D7" d="M239.5 227.1c0-11.2-7.6-20.3-16.9-20.3-9.3 0-16.9 9.1-16.9 20.3 0 5.6 7.6 10.1 16.9 10.1 9.3 0 16.9-4.5 16.9-10.1z"/><path fill="#F7944B" d="M229.2 208.4c-2-1-4.2-1.6-6.6-1.6s-4.5.6-6.6 1.6c-1 2.8 0 11.9 6.6 11.9s7.5-9.1 6.6-11.9z"/><g fill="#F7C1A1"><path d="M229.2 208.4c-2-1-4.2-1.6-6.6-1.6-2.3 0-4.5.6-6.6 1.6.7 3 3.4 5.2 6.6 5.2 3.2 0 5.8-2.2 6.6-5.2zM219.2 196.2h6.8v13.1h-6.8z"/></g><path fill="#F7C1A1" d="M222.6 159.6c-9.3 0-16.9 7.9-16.9 17.6v8.8c0 9.7 7.6 17.6 16.9 17.6 9.3 0 16.9-7.9 16.9-17.6v-8.8c0-9.8-7.6-17.6-16.9-17.6z"/><path fill="#513432" d="M222.6 155.5c-11.5 0-20.9 9.7-20.9 21.6v8.8c0 3.3 1.1 6.4 2.1 9.3.4 1.3.7 2.9.4 4.7h4.9c-1.4-3.7-.8-16.1 7-19.8 7.8-3.6 13.1-12.3 13.1-12.3 4.9 2.2 10.3 9.3 10.3 9.3h4.1c-.1-11.9-9.5-21.6-21-21.6z"/></g></g><defs><path id="k" d="M252.8 214h81.1v54.1h-81.1z"/></defs><clipPath id="l"><use xlink:href="#k" overflow="visible"/></clipPath><g clip-path="url(#l)"><path fill="#EDEDED" d="M171.7 159.9H334v108.2H171.7z"/><path fill="#8FB8E2" d="M182.5 170.7h140.6v86.5H182.5z"/><path fill="#96B548" d="M182.5 219.4h140.6v37.9H182.5z"/><defs><path id="m" d="M182.5 170.7h140.6v86.5H182.5z"/></defs><clipPath id="n"><use xlink:href="#m" overflow="visible"/></clipPath><g clip-path="url(#n)"><path fill="#5593D7" d="M267 257.7c0-7.3-4.9-13.2-10.9-13.2s-10.9 5.9-10.9 13.2c0 3.6 4.9 6.6 10.9 6.6s10.9-3 10.9-6.6zM245.2 257.6c0-7.2 4.9-13.1 10.9-13.1s10.9 5.8 10.9 13.1h-21.8z"/><g fill="#F7C1A1"><path d="M256.1 253.3c3.4 0 6.3-1.9 7.8-4.8-2-2.4-4.7-3.9-7.8-3.9-3 0-5.8 1.5-7.8 3.9 1.5 2.9 4.4 4.8 7.8 4.8zM253.9 237.7h4.4v8.4h-4.4z"/></g><g fill="#F69626"><path d="M261.8 212.8c1.5-1.7 3.6-2.7 6-2.7 4.4 0 7.9 3.6 7.9 7.9 0 .9-.2 1.7-.4 2.5-.9-2-2.5-3.5-4.5-4.2 0 .1 4.3 6 1.4 13.8-3 7.8 1.6 10.9 1.6 10.9s-7 5.8-13.7-.5h-4V214l5.7-1.2zM250.4 212.8c-1.5-1.7-3.6-2.7-6-2.7-4.4 0-7.9 3.6-7.9 7.9 0 .9.2 1.7.4 2.5.9-2 2.5-3.5 4.5-4.2 0 .1-4.3 6-1.4 13.8 3 7.8-1.6 10.9-1.6 10.9s7 5.8 13.7-.5h4V214l-5.7-1.2z"/></g><path fill="#F7C1A1" d="M256.1 214.1c-6 0-10.9 5.1-10.9 11.3v5.7c0 6.3 4.9 11.3 10.9 11.3s10.9-5.1 10.9-11.3v-5.7c0-6.3-4.9-11.3-10.9-11.3z"/><path fill="#ED5E51" d="M250.4 212.8c-.4-.5-.9-.9-1.4-1.2-.9.2-2.1 1-3.2 2.1-1.8 1.8-2.7 3.7-2 4.4.7.7 2.6-.2 4.4-2 1.2-1.2 2-2.4 2.2-3.3zM261.7 212.8c.4-.5.9-.9 1.4-1.2.9.2 2.1 1 3.2 2.1 1.8 1.8 2.7 3.7 2 4.4-.7.7-2.6-.2-4.4-2-1.2-1.2-1.9-2.4-2.2-3.3z"/><path fill="#F69626" d="M268.9 221.1c-1.8-5.6-6.8-9.6-12.8-9.6-6 0-11.1 4.1-12.8 9.6-.4 1.3-.4 2.9-.1 4.3h2.1s9-1 10.9-5.8c1.9 4.8 10.9 5.8 10.9 5.8h2.1c.1-1.4.1-3-.3-4.3z"/><path fill="#513432" d="M222.9 239.4c-11.9 0-21.5-9.6-21.5-21.5V204c0-11.9 9.6-21.5 21.5-21.5s21.5 9.6 21.5 21.5v13.9c0 11.9-9.6 21.5-21.5 21.5z"/><path fill="#5593D7" d="M239.5 254.1c0-11.2-7.6-20.3-16.9-20.3-9.3 0-16.9 9.1-16.9 20.3 0 5.6 7.6 10.1 16.9 10.1 9.3.1 16.9-4.5 16.9-10.1z"/><path fill="#F7944B" d="M229.2 235.5c-2-1-4.2-1.6-6.6-1.6s-4.5.6-6.6 1.6c-1 2.8 0 11.9 6.6 11.9s7.5-9.1 6.6-11.9z"/><g fill="#F7C1A1"><path d="M229.2 235.5c-2-1-4.2-1.6-6.6-1.6-2.3 0-4.5.6-6.6 1.6.7 3 3.4 5.2 6.6 5.2 3.2-.1 5.8-2.3 6.6-5.2zM219.2 223.2h6.8v13.1h-6.8z"/></g><path fill="#F7C1A1" d="M222.6 186.6c-9.3 0-16.9 7.9-16.9 17.6v8.8c0 9.7 7.6 17.6 16.9 17.6 9.3 0 16.9-7.9 16.9-17.6v-8.8c0-9.7-7.6-17.6-16.9-17.6z"/><path fill="#513432" d="M222.6 182.5c-11.5 0-20.9 9.7-20.9 21.6v8.8c0 3.3 1.1 6.4 2.1 9.3.4 1.3.7 2.9.4 4.7h4.9c-1.4-3.7-.8-16.1 7-19.8 7.8-3.6 13.1-12.3 13.1-12.3 4.9 2.2 10.3 9.3 10.3 9.3h4.1c-.1-11.9-9.5-21.6-21-21.6z"/></g></g><path opacity=".15" d="M148.3 136.5h81.1v54.1h-81.1z"/><defs><path id="o" d="M144.7 132.9h81.1V187h-81.1z"/></defs><clipPath id="p"><use xlink:href="#o" overflow="visible"/></clipPath><g clip-path="url(#p)"><path fill="#EDEDED" d="M144.7 132.9H307v108.2H144.7z"/><path fill="#8FB8E2" d="M155.5 143.7h140.6v86.5H155.5z"/><path fill="#96B548" d="M155.5 192.4h140.6v37.9H155.5z"/><defs><path id="q" d="M155.5 143.7h140.6v86.5H155.5z"/></defs><clipPath id="r"><use xlink:href="#q" overflow="visible"/></clipPath><g clip-path="url(#r)"><path fill="#5593D7" d="M239.9 230.7c0-7.3-4.9-13.2-10.9-13.2s-10.9 5.9-10.9 13.2c0 3.6 4.9 6.6 10.9 6.6s10.9-3 10.9-6.6zM218.1 230.6c0-7.2 4.9-13.1 10.9-13.1s10.9 5.8 10.9 13.1h-21.8z"/><g fill="#F7C1A1"><path d="M229 226.2c3.4 0 6.3-1.9 7.8-4.8-2-2.4-4.7-3.9-7.8-3.9-3 0-5.8 1.5-7.8 3.9 1.5 2.9 4.5 4.8 7.8 4.8zM226.8 210.6h4.4v8.4h-4.4z"/></g><g fill="#F69626"><path d="M234.7 185.7c1.5-1.7 3.6-2.7 6-2.7 4.4 0 7.9 3.6 7.9 7.9 0 .9-.2 1.7-.4 2.5-.9-2-2.5-3.5-4.5-4.2 0 .1 4.3 6 1.4 13.8-3 7.8 1.6 10.9 1.6 10.9s-7 5.8-13.7-.5h-4V187l5.7-1.3zM223.3 185.7c-1.5-1.7-3.6-2.7-6-2.7-4.4 0-7.9 3.6-7.9 7.9 0 .9.2 1.7.4 2.5.9-2 2.5-3.5 4.5-4.2 0 .1-4.3 6-1.4 13.8 3 7.8-1.6 10.9-1.6 10.9s7 5.8 13.7-.5h4V187l-5.7-1.3z"/></g><path fill="#F7C1A1" d="M229 187c-6 0-10.9 5.1-10.9 11.3v5.7c0 6.3 4.9 11.3 10.9 11.3s10.9-5.1 10.9-11.3v-5.7c0-6.2-4.9-11.3-10.9-11.3z"/><path fill="#ED5E51" d="M223.4 185.7c-.4-.5-.9-.9-1.4-1.2-.9.2-2.1 1-3.2 2.1-1.8 1.8-2.7 3.7-2 4.4.7.7 2.6-.2 4.4-2 1.2-1.1 1.9-2.4 2.2-3.3zM234.7 185.7c.4-.5.9-.9 1.4-1.2.9.2 2.1 1 3.2 2.1 1.8 1.8 2.7 3.7 2 4.4-.7.7-2.6-.2-4.4-2-1.2-1.1-2-2.4-2.2-3.3z"/><path fill="#F69626" d="M241.9 194.1c-1.8-5.6-6.8-9.6-12.8-9.6-6 0-11.1 4.1-12.8 9.6-.4 1.3-.4 2.9-.1 4.3h2.1s9-1 10.9-5.8c1.9 4.8 10.9 5.8 10.9 5.8h2.1c0-1.5.1-3.1-.3-4.3z"/><path fill="#513432" d="M195.9 212.3c-11.9 0-21.5-9.6-21.5-21.5V177c0-11.9 9.6-21.5 21.5-21.5s21.5 9.6 21.5 21.5v13.9c-.1 11.8-9.7 21.4-21.5 21.4z"/><path fill="#5593D7" d="M212.4 227.1c0-11.2-7.6-20.3-16.9-20.3-9.3 0-16.9 9.1-16.9 20.3 0 5.6 7.6 10.1 16.9 10.1s16.9-4.5 16.9-10.1z"/><path fill="#F7944B" d="M202.1 208.4c-2-1-4.2-1.6-6.6-1.6s-4.5.6-6.6 1.6c-1 2.8 0 11.9 6.6 11.9s7.6-9.1 6.6-11.9z"/><g fill="#F7C1A1"><path d="M202.1 208.4c-2-1-4.2-1.6-6.6-1.6-2.3 0-4.5.6-6.6 1.6.7 3 3.4 5.2 6.6 5.2 3.2 0 5.9-2.2 6.6-5.2zM192.2 196.2h6.8v13.1h-6.8z"/></g><path fill="#F7C1A1" d="M195.5 159.6c-9.3 0-16.9 7.9-16.9 17.6v8.8c0 9.7 7.6 17.6 16.9 17.6 9.3 0 16.9-7.9 16.9-17.6v-8.8c0-9.8-7.5-17.6-16.9-17.6z"/><path fill="#513432" d="M195.5 155.5c-11.5 0-20.9 9.7-20.9 21.6v8.8c0 3.3 1.1 6.4 2.1 9.3.4 1.3.7 2.9.4 4.7h4.9c-1.4-3.7-.8-16.1 7-19.8 7.8-3.6 13.1-12.3 13.1-12.3 4.9 2.2 10.3 9.3 10.3 9.3h4.1c0-11.9-9.4-21.6-21-21.6z"/></g></g><g opacity=".15"><defs><path id="s" opacity=".15" d="M297 380.5h81.1v54.1H297z"/></defs><clipPath id="t"><use xlink:href="#s" overflow="visible"/></clipPath><path clip-path="url(#t)" d="M361.9 394h16.2v13.5h-16.2z"/><path opacity=".25" clip-path="url(#t)" d="M361.9 380.5h16.2V394h-16.2z"/><path opacity=".75" clip-path="url(#t)" d="M361.9 407.5h16.2V421h-16.2z"/><path opacity=".5" clip-path="url(#t)" d="M361.9 421.1h16.2v13.5h-16.2z"/><path opacity=".75" clip-path="url(#t)" d="M345.7 380.5h16.2V394h-16.2z"/><path opacity=".25" clip-path="url(#t)" d="M345.7 394h16.2v13.5h-16.2z"/><path clip-path="url(#t)" d="M345.7 407.5h16.2V421h-16.2z"/><path opacity=".25" clip-path="url(#t)" d="M345.7 421.1h16.2v13.5h-16.2z"/><path clip-path="url(#t)" d="M329.5 421.1h16.2v13.5h-16.2z"/><path opacity=".75" clip-path="url(#t)" d="M329.5 380.5h16.2V394h-16.2z"/><path opacity=".25" clip-path="url(#t)" d="M329.5 394h16.2v13.5h-16.2z"/><path clip-path="url(#t)" d="M329.5 407.5h16.2V421h-16.2z"/><path opacity=".75" clip-path="url(#t)" d="M313.2 394h16.2v13.5h-16.2z"/><path clip-path="url(#t)" d="M313.2 380.5h16.2V394h-16.2z"/><path opacity=".75" clip-path="url(#t)" d="M313.2 407.5h16.2V421h-16.2z"/><path clip-path="url(#t)" d="M313.2 421.1h16.2v13.5h-16.2z"/><path opacity=".5" clip-path="url(#t)" d="M297 380.5h16.2V394H297z"/><path opacity=".25" clip-path="url(#t)" d="M297 394h16.2v13.5H297z"/><path clip-path="url(#t)" d="M297 407.5h16.2V421H297z"/></g><g opacity=".15"><defs><path id="u" opacity=".15" d="M405.2 299.4h81.1v54.1h-81.1z"/></defs><clipPath id="v"><use xlink:href="#u" overflow="visible"/></clipPath><path opacity=".5" clip-path="url(#v)" d="M405.2 326.4h16.2v13.5h-16.2z"/><path clip-path="url(#v)" d="M405.2 312.9h16.2v13.5h-16.2z"/><path opacity=".5" clip-path="url(#v)" d="M405.2 299.4h16.2v13.5h-16.2z"/><path clip-path="url(#v)" d="M421.4 339.9h16.2v13.5h-16.2z"/><path opacity=".25" clip-path="url(#v)" d="M421.4 326.4h16.2v13.5h-16.2z"/><path opacity=".75" clip-path="url(#v)" d="M421.4 312.9h16.2v13.5h-16.2z"/><path clip-path="url(#v)" d="M421.4 299.4h16.2v13.5h-16.2z"/><path opacity=".75" clip-path="url(#v)" d="M437.6 339.9h16.2v13.5h-16.2z"/><path clip-path="url(#v)" d="M437.6 326.4h16.2v13.5h-16.2zM437.6 312.9h16.2v13.5h-16.2zM453.9 339.9h16.2v13.5h-16.2z"/><path opacity=".75" clip-path="url(#v)" d="M453.9 326.4h16.2v13.5h-16.2z"/><path opacity=".25" clip-path="url(#v)" d="M453.9 312.9h16.2v13.5h-16.2z"/><path clip-path="url(#v)" d="M453.9 299.4h16.2v13.5h-16.2z"/><path opacity=".25" clip-path="url(#v)" d="M470.1 339.9h16.2v13.5h-16.2z"/><path clip-path="url(#v)" d="M470.1 326.4h16.2v13.5h-16.2z"/><path opacity=".75" clip-path="url(#v)" d="M470.1 299.4h16.2v13.5h-16.2z"/></g><g opacity=".15"><defs><path id="w" opacity=".15" d="M405.2 380.5h81.1v54.1h-81.1z"/></defs><clipPath id="x"><use xlink:href="#w" overflow="visible"/></clipPath><path clip-path="url(#x)" d="M470.1 394h16.2v13.5h-16.2z"/><path opacity=".25" clip-path="url(#x)" d="M470.1 380.5h16.2V394h-16.2z"/><path opacity=".75" clip-path="url(#x)" d="M470.1 407.5h16.2V421h-16.2z"/><path opacity=".5" clip-path="url(#x)" d="M470.1 421.1h16.2v13.5h-16.2z"/><path clip-path="url(#x)" d="M453.9 380.5h16.2V394h-16.2z"/><path opacity=".25" clip-path="url(#x)" d="M453.9 394h16.2v13.5h-16.2z"/><path clip-path="url(#x)" d="M453.9 407.5h16.2V421h-16.2z"/><path opacity=".25" clip-path="url(#x)" d="M453.9 421.1h16.2v13.5h-16.2z"/><path opacity=".75" clip-path="url(#x)" d="M437.6 380.5h16.2V394h-16.2z"/><path clip-path="url(#x)" d="M437.6 394h16.2v13.5h-16.2z"/><path opacity=".25" clip-path="url(#x)" d="M437.6 407.5h16.2V421h-16.2z"/><path opacity=".75" clip-path="url(#x)" d="M421.4 394h16.2v13.5h-16.2z"/><path clip-path="url(#x)" d="M421.4 380.5h16.2V394h-16.2z"/><path opacity=".75" clip-path="url(#x)" d="M421.4 407.5h16.2V421h-16.2z"/><path clip-path="url(#x)" d="M421.4 421.1h16.2v13.5h-16.2z"/><path opacity=".5" clip-path="url(#x)" d="M405.2 380.5h16.2V394h-16.2z"/><path clip-path="url(#x)" d="M405.2 394h16.2v13.5h-16.2z"/><path opacity=".25" clip-path="url(#x)" d="M405.2 407.5h16.2V421h-16.2z"/></g><g opacity=".15"><defs><path id="y" opacity=".15" d="M297 299.4h81.1v54.1H297z"/></defs><clipPath id="z"><use xlink:href="#y" overflow="visible"/></clipPath><path clip-path="url(#z)" d="M297 326.4h16.2v13.5H297z"/><path opacity=".25" clip-path="url(#z)" d="M297 339.9h16.2v13.5H297z"/><path opacity=".75" clip-path="url(#z)" d="M297 312.9h16.2v13.5H297z"/><path opacity=".5" clip-path="url(#z)" d="M297 299.4h16.2v13.5H297z"/><path clip-path="url(#z)" d="M313.2 339.9h16.2v13.5h-16.2z"/><path opacity=".25" clip-path="url(#z)" d="M313.2 326.4h16.2v13.5h-16.2z"/><path clip-path="url(#z)" d="M313.2 312.9h16.2v13.5h-16.2z"/><path opacity=".25" clip-path="url(#z)" d="M313.2 299.4h16.2v13.5h-16.2z"/><path opacity=".75" clip-path="url(#z)" d="M329.5 339.9h16.2v13.5h-16.2z"/><path clip-path="url(#z)" d="M329.5 326.4h16.2v13.5h-16.2z"/><path opacity=".25" clip-path="url(#z)" d="M329.5 312.9h16.2v13.5h-16.2z"/><path opacity=".75" clip-path="url(#z)" d="M345.7 326.4h16.2v13.5h-16.2z"/><path clip-path="url(#z)" d="M345.7 339.9h16.2v13.5h-16.2z"/><path opacity=".75" clip-path="url(#z)" d="M345.7 312.9h16.2v13.5h-16.2z"/><path clip-path="url(#z)" d="M345.7 299.4h16.2v13.5h-16.2z"/><path opacity=".5" clip-path="url(#z)" d="M361.9 339.9h16.2v13.5h-16.2z"/><path clip-path="url(#z)" d="M361.9 326.4h16.2v13.5h-16.2z"/><path opacity=".25" clip-path="url(#z)" d="M361.9 312.9h16.2v13.5h-16.2z"/></g><defs><path id="A" d="M293.4 376.9h81.1V431h-81.1z"/></defs><clipPath id="B"><use xlink:href="#A" overflow="visible"/></clipPath><path clip-path="url(#B)" fill="#5592D7" d="M358.3 390.4h16.2v13.5h-16.2z"/><path opacity=".25" clip-path="url(#B)" fill="#5592D7" d="M358.3 376.9h16.2v13.5h-16.2z"/><path opacity=".75" clip-path="url(#B)" fill="#5592D7" d="M358.3 403.9h16.2v13.5h-16.2z"/><path opacity=".5" clip-path="url(#B)" fill="#5592D7" d="M358.3 417.4h16.2v13.5h-16.2z"/><path opacity=".75" clip-path="url(#B)" fill="#5592D7" d="M342.1 376.9h16.2v13.5h-16.2z"/><path opacity=".25" clip-path="url(#B)" fill="#5592D7" d="M342.1 390.4h16.2v13.5h-16.2z"/><path clip-path="url(#B)" fill="#5592D7" d="M342.1 403.9h16.2v13.5h-16.2z"/><path opacity=".25" clip-path="url(#B)" fill="#5592D7" d="M342.1 417.4h16.2v13.5h-16.2z"/><path clip-path="url(#B)" fill="#5592D7" d="M325.9 417.4h16.2v13.5h-16.2z"/><path opacity=".75" clip-path="url(#B)" fill="#5592D7" d="M325.9 376.9h16.2v13.5h-16.2z"/><path opacity=".25" clip-path="url(#B)" fill="#5592D7" d="M325.9 390.4h16.2v13.5h-16.2z"/><path clip-path="url(#B)" fill="#5592D7" d="M325.9 403.9h16.2v13.5h-16.2z"/><path opacity=".75" clip-path="url(#B)" fill="#5592D7" d="M309.6 390.4h16.2v13.5h-16.2z"/><path clip-path="url(#B)" fill="#5592D7" d="M309.6 376.9h16.2v13.5h-16.2z"/><path opacity=".75" clip-path="url(#B)" fill="#5592D7" d="M309.6 403.9h16.2v13.5h-16.2z"/><path clip-path="url(#B)" fill="#5592D7" d="M309.6 417.4h16.2v13.5h-16.2z"/><path opacity=".5" clip-path="url(#B)" fill="#5592D7" d="M293.4 376.9h16.2v13.5h-16.2z"/><path opacity=".25" clip-path="url(#B)" fill="#5592D7" d="M293.4 390.4h16.2v13.5h-16.2z"/><path clip-path="url(#B)" fill="#5592D7" d="M293.4 403.9h16.2v13.5h-16.2z"/><defs><path id="C" d="M401.6 295.7h81.1v54.1h-81.1z"/></defs><clipPath id="D"><use xlink:href="#C" overflow="visible"/></clipPath><path opacity=".5" clip-path="url(#D)" fill="#5592D7" d="M401.6 322.8h16.2v13.5h-16.2z"/><path clip-path="url(#D)" fill="#5592D7" d="M401.6 309.3h16.2v13.5h-16.2z"/><path opacity=".5" clip-path="url(#D)" fill="#5592D7" d="M401.6 295.7h16.2v13.5h-16.2z"/><path clip-path="url(#D)" fill="#5592D7" d="M417.8 336.3H434v13.5h-16.2z"/><path opacity=".25" clip-path="url(#D)" fill="#5592D7" d="M417.8 322.8H434v13.5h-16.2z"/><path opacity=".75" clip-path="url(#D)" fill="#5592D7" d="M417.8 309.3H434v13.5h-16.2z"/><path clip-path="url(#D)" fill="#5592D7" d="M417.8 295.7H434v13.5h-16.2z"/><path opacity=".75" clip-path="url(#D)" fill="#5592D7" d="M434 336.3h16.2v13.5H434z"/><path clip-path="url(#D)" fill="#5592D7" d="M434 322.8h16.2v13.5H434zM434 309.3h16.2v13.5H434zM450.3 336.3h16.2v13.5h-16.2z"/><path opacity=".75" clip-path="url(#D)" fill="#5592D7" d="M450.3 322.8h16.2v13.5h-16.2z"/><path opacity=".25" clip-path="url(#D)" fill="#5592D7" d="M450.3 309.3h16.2v13.5h-16.2z"/><path clip-path="url(#D)" fill="#5592D7" d="M450.3 295.7h16.2v13.5h-16.2z"/><path opacity=".25" clip-path="url(#D)" fill="#5592D7" d="M466.5 336.3h16.2v13.5h-16.2z"/><path clip-path="url(#D)" fill="#5592D7" d="M466.5 322.8h16.2v13.5h-16.2z"/><path opacity=".75" clip-path="url(#D)" fill="#5592D7" d="M466.5 295.7h16.2v13.5h-16.2z"/><defs><path id="E" d="M401.6 376.9h81.1V431h-81.1z"/></defs><clipPath id="F"><use xlink:href="#E" overflow="visible"/></clipPath><path clip-path="url(#F)" fill="#5592D7" d="M466.5 390.4h16.2v13.5h-16.2z"/><path opacity=".25" clip-path="url(#F)" fill="#5592D7" d="M466.5 376.9h16.2v13.5h-16.2z"/><path opacity=".75" clip-path="url(#F)" fill="#5592D7" d="M466.5 403.9h16.2v13.5h-16.2z"/><path opacity=".5" clip-path="url(#F)" fill="#5592D7" d="M466.5 417.4h16.2v13.5h-16.2z"/><path clip-path="url(#F)" fill="#5592D7" d="M450.3 376.9h16.2v13.5h-16.2z"/><path opacity=".25" clip-path="url(#F)" fill="#5592D7" d="M450.3 390.4h16.2v13.5h-16.2z"/><path clip-path="url(#F)" fill="#5592D7" d="M450.3 403.9h16.2v13.5h-16.2z"/><path opacity=".25" clip-path="url(#F)" fill="#5592D7" d="M450.3 417.4h16.2v13.5h-16.2z"/><path opacity=".75" clip-path="url(#F)" fill="#5592D7" d="M434 376.9h16.2v13.5H434z"/><path clip-path="url(#F)" fill="#5592D7" d="M434 390.4h16.2v13.5H434z"/><path opacity=".25" clip-path="url(#F)" fill="#5592D7" d="M434 403.9h16.2v13.5H434z"/><path opacity=".75" clip-path="url(#F)" fill="#5592D7" d="M417.8 390.4H434v13.5h-16.2z"/><path clip-path="url(#F)" fill="#5592D7" d="M417.8 376.9H434v13.5h-16.2z"/><path opacity=".75" clip-path="url(#F)" fill="#5592D7" d="M417.8 403.9H434v13.5h-16.2z"/><path clip-path="url(#F)" fill="#5592D7" d="M417.8 417.4H434v13.5h-16.2z"/><path opacity=".5" clip-path="url(#F)" fill="#5592D7" d="M401.6 376.9h16.2v13.5h-16.2z"/><path clip-path="url(#F)" fill="#5592D7" d="M401.6 390.4h16.2v13.5h-16.2z"/><path opacity=".25" clip-path="url(#F)" fill="#5592D7" d="M401.6 403.9h16.2v13.5h-16.2z"/><defs><path id="G" d="M293.4 295.7h81.1v54.1h-81.1z"/></defs><clipPath id="H"><use xlink:href="#G" overflow="visible"/></clipPath><path clip-path="url(#H)" fill="#5592D7" d="M293.4 322.8h16.2v13.5h-16.2z"/><path opacity=".25" clip-path="url(#H)" fill="#5592D7" d="M293.4 336.3h16.2v13.5h-16.2z"/><path opacity=".75" clip-path="url(#H)" fill="#5592D7" d="M293.4 309.3h16.2v13.5h-16.2z"/><path opacity=".5" clip-path="url(#H)" fill="#5592D7" d="M293.4 295.7h16.2v13.5h-16.2z"/><path clip-path="url(#H)" fill="#5592D7" d="M309.6 336.3h16.2v13.5h-16.2z"/><path opacity=".25" clip-path="url(#H)" fill="#5592D7" d="M309.6 322.8h16.2v13.5h-16.2z"/><path clip-path="url(#H)" fill="#5592D7" d="M309.6 309.3h16.2v13.5h-16.2z"/><path opacity=".25" clip-path="url(#H)" fill="#5592D7" d="M309.6 295.7h16.2v13.5h-16.2z"/><path opacity=".75" clip-path="url(#H)" fill="#5592D7" d="M325.9 336.3h16.2v13.5h-16.2z"/><path clip-path="url(#H)" fill="#5592D7" d="M325.9 322.8h16.2v13.5h-16.2z"/><path opacity=".25" clip-path="url(#H)" fill="#5592D7" d="M325.9 309.3h16.2v13.5h-16.2z"/><path opacity=".75" clip-path="url(#H)" fill="#5592D7" d="M342.1 322.8h16.2v13.5h-16.2z"/><path clip-path="url(#H)" fill="#5592D7" d="M342.1 336.3h16.2v13.5h-16.2z"/><path opacity=".75" clip-path="url(#H)" fill="#5592D7" d="M342.1 309.3h16.2v13.5h-16.2z"/><path clip-path="url(#H)" fill="#5592D7" d="M342.1 295.7h16.2v13.5h-16.2z"/><path opacity=".5" clip-path="url(#H)" fill="#5592D7" d="M358.3 336.3h16.2v13.5h-16.2z"/><path clip-path="url(#H)" fill="#5592D7" d="M358.3 322.8h16.2v13.5h-16.2z"/><path opacity=".25" clip-path="url(#H)" fill="#5592D7" d="M358.3 309.3h16.2v13.5h-16.2z"/><path stroke="#5592D7" stroke-width="4.507" stroke-miterlimit="10" fill="none" d="M199.9 295.7l64.8 64.9"/><path fill="#5592D7" d="M241.1 363.1l.2-4.5 22.2.8-.8-22.2 4.5-.2 1 27.1z"/><path stroke="#5592D7" stroke-width="4.507" stroke-miterlimit="10" fill="none" d="M48.4 144.3l64.9 64.9"/><path fill="#5592D7" d="M89.7 211.6l.2-4.5 22.2.9-.8-22.3 4.5-.1.9 27z"/></svg>