<svg xmlns="http://www.w3.org/2000/svg" viewBox="0 0 390 430" enable-background="new 0 0 390 430"><g opacity=".2" fill="#5592D7"><path d="M254.3 189.4h-3.2l20.5 63.5c.2-.2.4-.5.6-.7-.3-.6-.5-1.2-.7-2-.2-.5 0-.6.4-.2.4.4 1 .8 1.8.9v-1.5l-19.4-60zM250.5 179.2c.2.1.4.1.6.2l-.7-2.1.1 1.9zM239.9 157.6c.6-1 1.4-1.8 2.3-2.5L215.7 85h-3.2l27.4 72.6zM190.3 261.8h-3l4.2 42.9c.9-.3 1.9-.6 2.9-.7l-4.1-42.2zM42.5 160.8l2-2c-.6.3-1.3.5-2 .7v1.3zM109.7 88.7c.1-.1.2-.1.3-.1.3-.1.6-.3.9-.4.1 0 .2-.1.3-.1.3-.1.6-.2 1-.3v-2.4l-4.5 4.6c.7-.5 1.3-.9 2-1.3zM40.5 231.4l.6-53.6h-3l-.6 53.5h.9c.7 0 1.4 0 2.1.1zM104.8 93l-49.5 50.4c-.4 1.3-1.1 2.2-1.9 2.2h-.1c-.1 2-.7 3.9-1.5 5.6l49.8-50.8c.5-2.8 1.6-5.3 3.2-7.4zM131.8 81.2l55-16.7c-1-.7-1.9-1.5-2.8-2.3L131.9 78v2.8c0 .2 0 .3-.1.4zM359 293.2c-3-.6-5.7-2-8-4l-67.6-16.5c-.5.2-1.1.4-1.6.5v2.1c.2 0 .3.1.5.1l76.8 18.7v-.9zM170.4 225L122 179.8l-.6.9c1.8 1.4 3.1 3.5 3.7 6.1l45.3 42.3V225zM188.8 205.3l.4-41.3h-2.9l-.4 41.2c.4 0 .7-.1 1.1-.1.6.1 1.2.1 1.8.2zM199.3 341.4c.1 0 0 0 0 0zM276.6 276c.1 0 .1 0 .2-.1l.6-.3c.1 0 .1 0 .2-.1.2-.1.4-.1.6-.2v-2.1c-2.3-.5-4.2-1.9-5.4-3.8l-66.7-22.2c-.4.7-1.1 1.6-1.9 2.5l72.7 24.2-65.3 53.5c-.4.8-1 1.4-1.6 1.4h-.1c-.1 1.7-.6 3.4-1.3 4.9l63.2-51.7c.9-2.7 2.6-4.9 4.8-6zM185.2 144.7c-.3-.1-.7-.2-1-.3L125 171.5c-.2 1.2-.6 2.5-1 3.8l61.3-28v-2.6zM126.9 160.4c.3 1 .3 2.3.1 3.4-.1.6-.2 1.1-.4 1.6v.4l59-80.8h-.8c0-1.5.1-3 .4-4.5l-58.3 79.9zM113.8 103.8l.9 49.2c.4-.1.7-.1 1.1-.2h.9c.4 0 .7 0 1 .1l-.9-49.1h-3zM117.7 84.4v1l12.2-3.7c-1.5-.5-3.3-.9-5.3-1.2-1.8 2-4.2 3.4-6.9 3.9zM110.5 337l.9.6v-.4c-.4 0-.6-.1-.9-.2zM98.5 240.1v-3c0-.3 0-.6.1-.9 0-.2.1-.4.1-.7l-45.4-58.9c0 .4.1.8.1 1.2h-2.9l48 62.3zM194 341.4c-1.4-.3-2.8-.9-4-1.6l-71.9-4c-.9.7-2 1.2-3.2 1.4v2.1c.2.1.4.1.6.2H115.8l.6.3c.1 0 .1.1.2.1.3.1.5.3.7.5l-1.2-1.7 78 4.3v-1.6zM116.7 221.3c.2 0 .4.1.5.1h.1l.7-31.9h-3l-.6 31.8h.7c.5-.1 1.1-.1 1.6 0zM37 160.3v-.9l-.9-.3.9 1.2zM126.8 270.2c.6 1.3 1 2.7 1.3 4.2l55.5 56.2c-.1-.6-.2-1.2-.2-1.7h-.1c-1.2 0-2.1-1.8-2.1-4 0-.3 0-.6.1-.9l-53.2-53.8h-1.3zM193.6 344.8c.1 0 .3-.1.4-.1v-.8l-.4.9zM121.4 346.7c.2.9.4 1.9.4 2.9h-2l33.6 49.7c0-1.5.3-2.9.8-4.1l-32.8-48.5zM268.9 358.4l-68.4-17.3c-.4.1-.8.2-1.1.3v2.5l75.1 19-99.7 43.3v3.3l101.6-44.1v-2.5c-3-.6-5.6-2.2-7.5-4.5zM42.5 161.7c.4.1.7.2 1.1.3.1 0 .2 0 .2.1.4.1.7.3 1 .5.1 0 .1.1.2.1 1 .5 1.9 1.1 2.7 1.9l62.4 12.6c-.5-1.1-.8-2.2-1.2-3.3l-66.6-13.4.2 1.2zM292.9 96.1c-.1-.8-.2-1.5-.4-2.2-.2-.5-.3-1-.5-1.5l-70.1-28.9c-.9.7-1.8 1.4-2.8 2.1l73.8 30.5zM186.4 360.4l-14.5 31.5c.8.9 1.4 1.9 1.9 3l15.9-34.5h-3.3zM316.7 213.6l24.1 43.5c.1-1.4.4-3 .9-4.7l-21.5-38.9h-3.5zM280.9 324.5l.4-38.9h-3l-.4 39c.4.1.7.2 1.1.3.7-.3 1.3-.4 1.9-.4zM304.4 213.6l-16.8 38.6c.8.8 1.5 1.8 2 2.9l18.1-41.5h-3.3zM168.2 245.3l-33 7.6c.8.8 1.5 1.6 2 2.6l31.2-7.2c-.3-.4-.6-.8-.8-1.1-.3-.7 0-1.5.6-1.9zM306.9 119.7l2 54.4c.8-.3 1.6-.4 2.5-.4h.5l-2-54h-3zM195.4 111.9l4.9-26.9h-3l-4.6 25.4c.9.4 1.8.9 2.7 1.5zM104.5 329.1s-.1.1 0 0c-.5 0-.8-.4-1.1-.9L42 284v3.3h.1c.1 0 .1 0 .2.1.2.1.5.1.7.2.1 0 .1 0 .2.1h.1c.1 0 .1 0 .2.1.1 0 .3.1.4.1 0 0 .1 0 .1.1.2.1.5.2.7.3h.1c.3.1.5.2.8.4h.1c.1 0 .2.1.3.1 0 0 .1 0 .1.1.1.1.3.1.4.2.3.2.5.3.8.5.4.2.7.5 1.1.8 0 0 .1 0 .1.1.7.6 1.4 1.2 2.1 1.9v.1c.9 1 1.7 2 2.5 3.2l53.4 38.4c-1.2-1.4-1.9-3.1-2-5zM355.5 299s.1 0 .1-.1c.2-.1.5-.2.7-.3.1 0 .1 0 .2-.1.2-.1.4-.2.7-.3.1 0 .2-.1.3-.1.2-.1.4-.1.6-.2.1 0 .2-.1.3-.1.2-.1.4-.1.6-.2v-3l-64.4 53.1c-.4 1.4-1.1 2.3-2 2.3h-.1c-.1 1.4-.4 2.7-.8 3.9l54.8-45.2c2-4.3 5.2-7.8 9-9.7zM46.3 281.3c-1.4.7-2.8 1.2-4.3 1.5v.8l5.2-1.6c-.3-.2-.6-.4-.9-.7zM115.2 313.1l.9-35.4h-3l-.9 35.2h.9c.7 0 1.4.1 2.1.2zM240.2 187.9c0-.2 0-.4.1-.6 0-.2.1-.3.1-.5s.1-.3.1-.5.1-.4.2-.5c0-.1.1-.3.1-.4.1-.2.1-.4.2-.6 0-.1.1-.2.1-.3l.3-.6c0-.1.1-.2.1-.3.1-.2.2-.4.3-.5.1-.1.1-.2.2-.3.1-.2.2-.3.4-.5 0-.1.1-.1.1-.2.8-1 1.8-1.8 2.9-2.4.1 0 .1 0 .2-.1l.6-.3c.1 0 .1 0 .2-.1.2-.1.4-.1.6-.2v-2.1c-3.2-.7-5.7-3.2-6.6-6.4l-49-26.2c-.2.1-.5.1-.7.2v2.8l55.6 29.8-42.8 45.5v4.4l36.7-38.9v-.2zM92.7 264.6l-28.9 9.1c.2 1.1.5 2 .8 2.9l29.8-9.4c-.6-.8-1.2-1.7-1.7-2.6zM308.7 203.8c.1 0 .2-.1.2-.1.1 0 .2-.1.4-.1.1 0 .3-.1.4-.1v-2.1c-2.1-.4-4-1.7-5.2-3.5-.7-.5-1.4-1.1-1.9-1.8l-50.5-19.5c-.5.2-1.1.4-1.6.5v2.1l.6.2h.2c.1 0 .2.1.3.1l57.9 22.4-.8 1.9zM259.1 163.8c-.1.6-.2 1.1-.4 1.6.1.3.1.6.1 1l36.1-46.7h-.8c0-1.6.2-3.2.6-4.7l-35.6 46c.1.9.1 1.9 0 2.8zM313.2 203.5c.2 0 .3.1.5.1.1 0 .2.1.4.1.2.1.3.1.5.2.1 0 .2.1.3.1l-1.5-2.7h-.1l-.1 2.2z"/></g><path fill="#5592D7" d="M302.8 213.6c0-5.7 3.9-10.4 8.6-10.4 4.8 0 8.6 4.6 8.6 10.4h-17.2z"/><path opacity=".1" d="M311.5 203.3v10.4h8.6c0-5.8-3.8-10.4-8.6-10.4z"/><path fill="#F7944B" d="M317.6 206.2c-1.6-1.8-3.7-3-6.1-3-2.4 0-4.5 1.1-6.1 3 1.1 2.2 3.4 3.8 6.1 3.8 2.6 0 4.9-1.5 6.1-3.8z"/><path fill="#E6820E" d="M311.5 203.3v6.8c2.7 0 5-1.5 6.1-3.8-1.6-1.9-3.8-3-6.1-3z"/><ellipse fill="#808285" cx="311.5" cy="177.8" rx="5.9" ry="4.2"/><path fill="#939598" d="M300.8 190.5c0 6.1 4.8 9.3 10.7 9.3 5.9 0 10.7-3.2 10.7-9.3V188h-21.4v2.5z"/><path fill="#F7C1A1" d="M314.8 204.1c-1-.5-2.2-.8-3.4-.8-1.2 0-2.3.3-3.4.8.4 1.5 1.7 2.6 3.4 2.6s3.1-1.1 3.4-2.6zM309.8 197.8h3.5v6.7h-3.5z"/><path fill="#F5B090" d="M313.2 203.5v-5.7h-1.7v8.9c1.6 0 3-1.1 3.4-2.6-.6-.3-1.1-.5-1.7-.6z"/><ellipse fill="#F7C1A1" cx="320.1" cy="190.6" rx="1.4" ry="2.6"/><ellipse fill="#F7C1A1" cx="302.8" cy="190.6" rx="1.4" ry="2.6"/><path fill="#F7C1A1" d="M311.5 179c-4.8 0-8.6 4-8.6 9v4.5c0 5 3.9 9 8.6 9s8.6-4 8.6-9V188c0-4.9-3.8-9-8.6-9z"/><path fill="#F5B090" d="M311.5 179c3.8 0 6.9 4 6.9 9v4.5c0 5-3.1 9-6.9 9 4.8 0 8.6-4 8.6-9V188c0-4.9-3.8-9-8.6-9z"/><path fill="#513432" d="M311.5 183.4z"/><path fill="#939598" d="M311.5 177c-5.9 0-10.7 5-10.7 11.1h2.1c.5-1.6 2.9-1.4 4.8-1.7 1.9-.3 3.8-2.9 3.8-2.9s1.9 2.6 3.8 2.9c1.9.3 4.4.1 4.8 1.7h2.1c0-6.2-4.8-11.1-10.7-11.1z"/><path fill="#513432" d="M153.3 412.6c0 .6.5 1 1 1h19.4c.6 0 1-.5 1-1v-13.2h-21.4v13.2z"/><path fill="#5592D7" d="M155.4 425c0-5.7 3.9-10.4 8.6-10.4s8.6 4.6 8.6 10.4h-17.2z"/><path opacity=".1" d="M164 414.6V425h8.6c0-5.7-3.8-10.4-8.6-10.4z"/><path fill="#F7C1A1" d="M167.4 415.4c-1-.5-2.2-.8-3.4-.8s-2.3.3-3.4.8c.4 1.5 1.7 2.6 3.4 2.6 1.6.1 3-1.1 3.4-2.6zM162.3 409.2h3.5v6.7h-3.5z"/><path fill="#F5B090" d="M165.7 414.8v-5.7H164v8.9c1.6 0 3-1.1 3.4-2.6-.6-.2-1.1-.4-1.7-.6z"/><ellipse fill="#F7C1A1" cx="172.6" cy="402" rx="1.4" ry="2.6"/><ellipse fill="#F7C1A1" cx="155.4" cy="402" rx="1.4" ry="2.6"/><path fill="#F7C1A1" d="M164 390.4c-4.8 0-8.6 4-8.6 9v4.5c0 5 3.9 9 8.6 9 4.8 0 8.6-4 8.6-9v-4.5c0-5-3.8-9-8.6-9z"/><path fill="#F5B090" d="M164 390.4c3.8 0 6.9 4 6.9 9v4.5c0 5-3.1 9-6.9 9 4.8 0 8.6-4 8.6-9v-4.5c0-5-3.8-9-8.6-9z"/><path fill="#513432" d="M164 388.3c-5.9 0-10.7 5-10.7 11.1h2.1s1.9-4.8 6.3-5.2c0 0 4.5 11.6 11 5.2h2.1c-.1-6.1-4.9-11.1-10.8-11.1z"/><path fill="#F69626" d="M340.9 265.2c.3 1.9.8 3.6 1.3 4.7 1.2 2.6 2.2 4.7 2.2 4.7h36.4l2.2-4.7c.5-1.2 1-2.9 1.3-4.7h-43.4z"/><path fill="#5592D7" d="M344.4 319.1c0-12.1 8.1-21.8 18.2-21.8s18.2 9.8 18.2 21.8h-36.4z"/><path opacity=".1" d="M362.6 297.3v21.8h18.2c0-12.1-8.1-21.8-18.2-21.8z"/><path fill="#F7C1A1" d="M369.7 299c-2.2-1.1-4.6-1.7-7.1-1.7s-4.9.6-7.1 1.7c.8 3.2 3.6 5.6 7.1 5.6 3.4-.1 6.3-2.4 7.1-5.6zM359 285.7h7.3v14.1H359z"/><path fill="#F5B090" d="M366.2 297.7v-12h-3.6v18.8c3.4 0 6.3-2.4 7.1-5.6-1.1-.5-2.3-.9-3.5-1.2z"/><ellipse fill="#F7C1A1" cx="380.8" cy="270.7" rx="2.9" ry="5.5"/><ellipse fill="#F7C1A1" cx="344.4" cy="270.7" rx="2.9" ry="5.5"/><path fill="#F7C1A1" d="M362.7 246.3c-10.1 0-18.2 8.4-18.3 18.9v9.5c0 10.5 8.1 19 18.1 19 10.1 0 18.2-8.4 18.3-18.9v-9.5c.1-10.5-8.1-19-18.1-19z"/><path fill="#F5B090" d="M362.6 246.3c8 0 14.6 8.5 14.6 18.9v9.5c0 10.5-6.5 18.9-14.6 18.9 10.1 0 18.2-8.5 18.2-18.9v-9.5c0-10.4-8.1-18.9-18.2-18.9z"/><path fill="#F69626" d="M379.8 246.8c-6.4-5.9-15.6-4.9-15.6-4.9 1-.8 2.8-1.3 4.1-1.6.8-.2.8-.4 0-.6-14-3.3-19.9 7.4-19.9 7.4-.2-1.1 1-3.5 1.8-5 .4-.7.1-1-.6-.6-10.1 5.4-9 20.1-9 20.1 0 1.2.1 2.5.3 3.6h3.5s4.2-10.1 11.1-12.7c1.8 1.8 4.3 2.9 7.1 2.9 2.7 0 5.2-1.1 7.1-2.9 6.9 2.6 11.1 12.7 11.1 12.7h3.5c.4-2.4.4-5-.2-7.2-1.5-4.6-4.3-8.6-8-11.5 1.1 0 2.4.4 3.3.7.8.4 1 .2.4-.4z"/><path fill="#5592D7" d="M20.1 308.9c0-12.1 8.2-22 18.3-22 10.1 0 18.3 9.8 18.3 22H20.1z"/><path opacity=".1" d="M38.4 286.9v22h18.3c0-12.2-8.2-22-18.3-22z"/><path fill="#F7C1A1" d="M38.4 301.6c5.6 0 10.6-3.2 13.1-8.1-3.3-4.1-7.9-6.6-13.1-6.6-5.1 0-9.7 2.5-13.1 6.6 2.5 4.9 7.4 8.1 13.1 8.1zM34.7 275.3H42v14.2h-7.3z"/><path fill="#F5B090" d="M42 287.4v-12h-3.7v26.2c5.6 0 10.6-3.2 13.1-8.1-2.5-3.1-5.7-5.3-9.4-6.1z"/><g fill="#513432"><path d="M48 233.4c2.5-2.8 6-4.6 10.1-4.6 7.4 0 13.4 6 13.4 13.4 0 1.5-.3 2.9-.7 4.3-1.5-3.3-4.2-5.9-7.6-7.1.1.1 7.3 10.2 2.3 23.3-5 13.2 2.7 18.4 2.7 18.4s-11.7 9.8-23-.8h-6.7v-44.6l9.5-2.3zM28.8 233.4c-2.5-2.8-6-4.6-10.1-4.6-7.4 0-13.4 6-13.4 13.4 0 1.5.3 2.9.7 4.3 1.5-3.3 4.2-5.9 7.6-7.1-.1.1-7.3 10.2-2.3 23.3 5 13.2-2.7 18.4-2.7 18.4s11.7 9.8 23-.8h6.7v-44.6l-9.5-2.3z"/></g><ellipse fill="#F7C1A1" cx="56.7" cy="260.2" rx="2.9" ry="5.5"/><ellipse fill="#F7C1A1" cx="20.1" cy="260.2" rx="2.9" ry="5.5"/><path fill="#F7C1A1" d="M38.4 235.7c-10.1 0-18.3 8.5-18.3 19v9.5c0 10.5 8.2 19 18.3 19 10.1 0 18.3-8.5 18.3-19v-9.5c0-10.5-8.2-19-18.3-19z"/><path fill="#F5B090" d="M38.4 235.7c8.1 0 14.6 8.5 14.6 19v9.5c0 10.5-6.6 19-14.6 19 10.1 0 18.3-8.5 18.3-19v-9.5c0-10.5-8.2-19-18.3-19z"/><path fill="#ED5E51" d="M28.8 233.4c-.7-.8-1.5-1.4-2.3-2-1.5.4-3.5 1.7-5.4 3.6-3 3-4.5 6.3-3.4 7.4 1.1 1.1 4.4-.4 7.4-3.4 2.1-1.9 3.4-4 3.7-5.6zM47.9 233.4c.7-.8 1.5-1.4 2.3-2 1.5.4 3.5 1.7 5.4 3.6 3 3 4.5 6.3 3.4 7.4-1.1 1.1-4.4-.4-7.4-3.4-2-1.9-3.3-4-3.7-5.6z"/><path fill="#513432" d="M60 247.5c-3-9.4-11.5-16.2-21.6-16.2-10.1 0-18.6 6.8-21.6 16.2-.7 2.2-.6 4.8-.3 7.2H20s15.2-1.7 18.3-9.7c3.1 8 18.3 9.7 18.3 9.7h3.5c.5-2.4.6-5.1-.1-7.2zM177.4 34.1c1.7-2.7 2.9-8.4 4.2-12.3C184.6 12 193.4 5 203.8 5c10.4 0 19.2 7 22.3 16.7 1.2 4 2.5 9.6 4.2 12.3 0 0 2.6 5.8 3 7.2 3.6 12.8-16.5 30.2-29.4 30.2-12.9 0-33.1-17.4-29.4-30.2.2-1.4 1.2-4.4 2.9-7.1z"/><path fill="#5592D7" d="M184.9 85c0-12.5 8.4-22.6 18.9-22.6 10.4 0 18.9 10.1 18.9 22.6h-37.8z"/><path opacity=".1" d="M203.8 62.4V85h18.9c-.1-12.5-8.5-22.6-18.9-22.6z"/><path fill="#87583C" d="M211.1 64.1c-2.3-1.1-4.7-1.8-7.3-1.8-2.6 0-5.1.6-7.3 1.8.8 3.3 3.8 5.8 7.3 5.8s6.5-2.5 7.3-5.8zM200 50.4h7.5V65H200z"/><path fill="#804C2D" d="M207.6 62.8V50.4h-3.8v19.5c3.6 0 6.5-2.5 7.3-5.8-1.1-.5-2.3-1-3.5-1.3z"/><ellipse fill="#87583C" cx="222.6" cy="34.8" rx="3" ry="5.7"/><ellipse fill="#87583C" cx="184.9" cy="34.8" rx="3" ry="5.7"/><path fill="#87583C" d="M203.8 9.5c-10.4 0-18.9 8.8-18.9 19.6V39c0 10.8 8.4 19.6 18.9 19.6 10.4 0 18.9-8.8 18.9-19.6v-9.8c-.1-10.9-8.5-19.7-18.9-19.7z"/><path fill="#804C2D" d="M203.8 9.5c8.3 0 15.1 8.8 15.1 19.6V39c0 10.8-6.8 19.6-15.1 19.6 10.4 0 18.9-8.8 18.9-19.6v-9.8c-.1-10.9-8.5-19.7-18.9-19.7z"/><path fill="#513432" d="M209.7 17.6s5.5 10.6 13 11.6h4.5c0-13.3-10.5-24.2-23.4-24.2-12.9 0-23.4 10.8-23.4 24.2h5.5c3.8-.1 18.1-1.1 23.8-11.6z"/><path fill="#5592D7" d="M101.4 103.8c0-9 6.1-16.3 13.6-16.3s13.6 7.3 13.6 16.3h-27.2z"/><path opacity=".1" d="M115 87.4v16.3h13.6c0-8.9-6.1-16.3-13.6-16.3z"/><path fill="#F7C1A1" d="M112.3 78.8h5.4v10.6h-5.4zM120.3 88.7c-1.6-.8-3.4-1.3-5.3-1.3s-3.7.5-5.3 1.3l5.3 7.8 5.3-7.8z"/><path fill="#F5B090" d="M117.7 87.8v-8.9H115v17.7l5.3-7.8c-.8-.5-1.7-.8-2.6-1z"/><path fill="#513432" d="M115 46c-9.3 0-16.9 7.8-16.9 17.4v17.4c0 .9.7 1.3 1.5 1 3.7-1.3 9.2-2.1 15.4-2.1 6.1 0 11.6.8 15.4 2.1.9.3 1.5-.1 1.5-1V63.5c0-9.6-7.6-17.5-16.9-17.5zM98.1 63.5v17.4c0 .9.7 1.3 1.5 1 3.7-1.3 9.2-2.1 15.4-2.1 6.1 0 11.6.8 15.4 2.1.9.3 1.5-.1 1.5-1V63.5H98.1z"/><path fill="#F7C1A1" d="M115 49.3c-7.5 0-13.6 6.3-13.6 14.2v7.1c0 7.8 6.1 14.2 13.6 14.2s13.6-6.3 13.6-14.2v-7.1c0-7.9-6.1-14.2-13.6-14.2z"/><path fill="#F5B090" d="M115 49.3c6 0 10.9 6.3 10.9 14.2v7.1c0 7.8-4.9 14.2-10.9 14.2 7.5 0 13.6-6.3 13.6-14.2v-7.1c0-7.9-6.1-14.2-13.6-14.2z"/><path fill="#513432" d="M115 46c-9.3 0-16.9 7.8-16.9 17.4h3.3s1.7-1.3 5.6-2.2c.4-1.5 1.4-4.6 3.1-5.8 0 0-1.2 3-1.1 5.5 1.7-.3 3.6-.4 6-.4 2.3 0 4.3.2 6 .4.2-2.5-1.1-5.5-1.1-5.5 1.7 1.2 2.7 4.3 3.1 5.8 4 .9 5.6 2.2 5.6 2.2h3.3c0-9.5-7.6-17.4-16.9-17.4z"/><path fill="#5592D7" d="M240.1 189.4c0-5.7 3.9-10.4 8.6-10.4 4.8 0 8.6 4.6 8.6 10.4h-17.2z"/><path opacity=".1" d="M248.7 179v10.4h8.6c.1-5.8-3.8-10.4-8.6-10.4z"/><path fill="#E6820E" d="M255 182.2v7.2h2.4c0-2.8-.9-5.4-2.4-7.2z"/><path fill="#F7944B" d="M240.1 189.4h2.4v-7.2c-1.5 1.8-2.4 4.4-2.4 7.2z"/><path fill="#513432" d="M259.1 163.8c-.1.9-.4 1.7-.6 2.2l-1 2.2h-17.3s-.5-1-1-2.2c-.3-.5-.5-1.4-.6-2.2h20.5z"/><path fill="#F7C1A1" d="M252.1 179.8c-1-.5-2.2-.8-3.4-.8s-2.3.3-3.4.8c.4 1.5 1.7 2.6 3.4 2.6 1.7.1 3-1.1 3.4-2.6zM247 173.5h3.5v6.7H247z"/><path fill="#F5B090" d="M250.5 179.2v-5.7h-1.7v8.9c1.6 0 3-1.1 3.4-2.6-.6-.3-1.2-.5-1.7-.6z"/><ellipse fill="#F7C1A1" cx="257.4" cy="166.4" rx="1.4" ry="2.6"/><ellipse fill="#F7C1A1" cx="240.1" cy="166.4" rx="1.4" ry="2.6"/><path fill="#F7C1A1" d="M248.7 154.8c-4.8 0-8.6 4-8.6 9v4.5c0 5 3.9 9 8.6 9s8.6-4 8.6-9v-4.5c.1-5-3.8-9-8.6-9z"/><path fill="#F5B090" d="M248.7 154.8c3.8 0 6.9 4 6.9 9v4.5c0 5-3.1 9-6.9 9 4.8 0 8.6-4 8.6-9v-4.5c.1-5-3.8-9-8.6-9z"/><path fill="#513432" d="M259.1 163.8h-1.7s-1.8-4.6-4.6-4.6c-1.8 0-2.1 2-4 2s-2.3-2-4-2c-2.8 0-4.6 4.6-4.6 4.6h-1.7c-.2-1.1-.2-2.4.1-3.4 1.4-4.4 5.4-7.7 10.2-7.7s8.8 3.2 10.2 7.7c.3 1 .2 2.2.1 3.4z"/><path fill="#5592D7" d="M174.3 164c0-9 6.1-16.3 13.6-16.3s13.6 7.3 13.6 16.3h-27.2z"/><path opacity=".1" d="M188 147.7V164h13.6c0-9-6.1-16.3-13.6-16.3z"/><path fill="#E6820E" d="M197.8 152.7V164h3.8c0-4.4-1.5-8.4-3.8-11.3z"/><path fill="#F7944B" d="M174.3 164h3.8v-11.3c-2.3 2.9-3.8 6.9-3.8 11.3z"/><path fill="#87583C" d="M185.2 139.1h5.4v10.6h-5.4zM193.2 149c-1.6-.8-3.4-1.3-5.3-1.3s-3.7.5-5.3 1.3l5.3 7.8 5.3-7.8z"/><path fill="#804C2D" d="M190.7 148v-8.9H188v17.7l5.3-7.8c-.9-.5-1.7-.8-2.6-1z"/><circle fill="#939598" cx="178.1" cy="120.6" r="7.2"/><circle fill="#939598" cx="197.8" cy="120.6" r="7.2"/><ellipse fill="#87583C" cx="201.6" cy="127.8" rx="2.2" ry="4.1"/><ellipse fill="#87583C" cx="174.3" cy="127.8" rx="2.2" ry="4.1"/><path fill="#87583C" d="M188 109.5c-7.5 0-13.6 6.3-13.6 14.2v7.1c0 7.8 6.1 14.2 13.6 14.2s13.6-6.3 13.6-14.2v-7.1c0-7.8-6.1-14.2-13.6-14.2z"/><path fill="#804C2D" d="M188 109.5c6 0 10.9 6.3 10.9 14.2v7.1c0 7.8-4.9 14.2-10.9 14.2 7.5 0 13.6-6.3 13.6-14.2v-7.1c0-7.8-6.1-14.2-13.6-14.2z"/><path fill="#939598" d="M188 136.1c3.8 3.8 7.4 1.8 9 .6.5-.4.3-.5-.3-.6-1.1-.1-2.7-.8-3.8-2.7-1.6-2.7-4.9-.3-4.9-.3s-3.3-2.4-4.9.3c-1.1 1.9-2.7 2.6-3.8 2.7-.6.1-.7.2-.3.6 1.5 1.2 5.1 3.2 9-.6z"/><path fill="#808285" d="M196.7 136.1c-1.1-.1-2.7-.8-3.8-2.7-1.6-2.7-4.9-.3-4.9-.3v2.9c3.8 3.8 7.4 1.8 9 .6.4-.3.3-.4-.3-.5z"/><path fill="#804C2D" d="M193.1 117.1h-10.3c-.3 0-.5-.2-.5-.5s.2-.5.5-.5h10.3c.3 0 .5.2.5.5s-.2.5-.5.5zM194.8 119.6h-13.6c-.3 0-.5-.2-.5-.5s.2-.5.5-.5h13.6c.3 0 .5.2.5.5s-.2.5-.5.5z"/><path fill="#F69626" d="M326.6 102.7c-4.9-2.6-4.4-6.5-3.7-8.7.8-2.4 1.7-4.8 1.7-7.5v-7.1h-33.8v7.1c0 2.7.9 5.1 1.7 7.5.7 2.3 1.2 6.2-3.7 8.7-.8.4-1.2 1.3-.7 2.1 1.9 3.1 7.4 9.9 19.7 9.9s17.8-6.8 19.7-9.9c.3-.8-.1-1.7-.9-2.1z"/><path fill="#5592D7" d="M294.1 119.7c0-9 6.1-16.3 13.6-16.3s13.6 7.3 13.6 16.3h-27.2z"/><path opacity=".1" d="M307.7 103.3v16.3h13.6c0-9-6.1-16.3-13.6-16.3z"/><path fill="#F7C1A1" d="M313 104.6c-1.6-.8-3.4-1.3-5.3-1.3s-3.7.5-5.3 1.3c.6 2.4 2.7 4.2 5.3 4.2s4.7-1.8 5.3-4.2zM305 94.7h5.4v10.6H305z"/><path fill="#F5B090" d="M310.4 103.7v-8.9h-2.7v14.1c2.6 0 4.7-1.8 5.3-4.2-.8-.5-1.7-.8-2.6-1z"/><ellipse fill="#F7C1A1" cx="321.3" cy="83.4" rx="2.2" ry="4.1"/><ellipse fill="#F7C1A1" cx="294.1" cy="83.4" rx="2.2" ry="4.1"/><path fill="#F7C1A1" d="M307.7 65.2c-7.5 0-13.6 6.3-13.6 14.2v7.1c0 7.8 6.1 14.2 13.6 14.2s13.6-6.3 13.6-14.2v-7.1c0-7.9-6.1-14.2-13.6-14.2z"/><path fill="#F5B090" d="M307.7 65.2c6 0 10.9 6.3 10.9 14.2v7.1c0 7.8-4.9 14.2-10.9 14.2 7.5 0 13.6-6.3 13.6-14.2v-7.1c0-7.9-6.1-14.2-13.6-14.2z"/><path fill="#F69626" d="M307.7 61.9c-9.3 0-16.9 7.8-16.9 17.4h3.3s2.1-1.2 5-2.2c2.9-1 5.4-5.3 5.4-5.3 1.3 2.6 6.4 5.2 10 5.4 3.6.3 6.8 2.1 6.8 2.1h3.3c0-9.6-7.6-17.4-16.9-17.4z"/><path fill="#513432" d="M205.5 245.2c-4.8-2.5-4.3-6.4-3.6-8.6.8-2.3 1.6-4.7 1.6-7.4v-6.9c0-9.4-7.4-17.1-16.5-17.1s-16.5 7.7-16.5 17.1v6.9c0 2.6.9 5 1.6 7.4.7 2.2 1.2 6-3.6 8.6-.8.4-1.2 1.3-.7 2 1.8 3 7.2 9.7 19.3 9.7 12 0 17.4-6.7 19.3-9.7.3-.8-.1-1.6-.9-2z"/><path fill="#FFB583" d="M173.6 261.8c0-8.8 6-16 13.3-16 7.4 0 13.3 7.2 13.3 16h-26.6z"/><path fill="#F7944B" d="M187 245.8v16h13.3c0-8.9-6-16-13.3-16z"/><path fill="#5592D7" d="M181.8 247c-.8 2.2 0 9.4 5.2 9.4v-10.7c-1.9.1-3.6.5-5.2 1.3zM192.1 247c.8 2.2 0 9.4-5.2 9.4v-10.7c1.9.1 3.6.5 5.2 1.3z"/><path fill="#F7C1A1" d="M192.1 247c-1.6-.8-3.3-1.3-5.2-1.3-1.8 0-3.6.4-5.2 1.3.6 2.3 2.7 4.1 5.2 4.1 2.6 0 4.7-1.8 5.2-4.1zM184.3 237.3h5.3v10.3h-5.3z"/><path fill="#F5B090" d="M189.6 246.1v-8.8H187v13.8c2.5 0 4.6-1.7 5.2-4.1-.9-.4-1.7-.7-2.6-.9z"/><ellipse fill="#F7C1A1" cx="200.3" cy="226.3" rx="2.1" ry="4"/><path fill="#F7C1A1" d="M187 208.4c-7.4 0-13.3 6.2-13.3 13.9v6.9c0 7.7 6 13.9 13.3 13.9 7.4 0 13.3-6.2 13.3-13.9v-6.9c0-7.7-6-13.9-13.3-13.9z"/><path fill="#F5B090" d="M187 208.4c5.9 0 10.7 6.2 10.7 13.9v6.9c0 7.7-4.8 13.9-10.7 13.9 7.4 0 13.3-6.2 13.3-13.9v-6.9c0-7.7-6-13.9-13.3-13.9z"/><path fill="#513432" d="M187 205.2c-9.1 0-16.5 7.7-16.5 17.1v6.9c0 2.6.9 5 1.6 7.4.3 1 .6 2.3.4 3.7h3.9c-1.1-2.9-.6-12.7 5.5-15.6 6.1-2.9 10.4-9.7 10.4-9.7 3.8 1.7 8.2 7.3 8.2 7.3h3.2c-.2-9.4-7.6-17.1-16.7-17.1zM269.6 260c.1.9.4 1.7.6 2.2.6 1.2 1 2.2 1 2.2h17.3l1-2.2c.3-.5.5-1.4.6-2.2h-20.5z"/><path fill="#5592D7" d="M271.3 285.6c0-5.7 3.9-10.4 8.6-10.4s8.6 4.6 8.6 10.4h-17.2z"/><path opacity=".1" d="M279.9 275.2v10.4h8.6c.1-5.8-3.8-10.4-8.6-10.4z"/><path fill="#F7C1A1" d="M283.3 276c-1-.5-2.2-.8-3.4-.8s-2.3.3-3.4.8c.4 1.5 1.7 2.6 3.4 2.6s3-1.1 3.4-2.6zM278.2 269.7h3.5v6.7h-3.5z"/><path fill="#F5B090" d="M281.7 275.4v-5.7H280v8.9c1.6 0 3-1.1 3.4-2.6-.6-.3-1.2-.5-1.7-.6z"/><ellipse fill="#F7C1A1" cx="288.6" cy="262.6" rx="1.4" ry="2.6"/><ellipse fill="#F7C1A1" cx="271.3" cy="262.6" rx="1.4" ry="2.6"/><path fill="#F7C1A1" d="M279.9 251c-4.8 0-8.6 4-8.6 9v4.5c0 5 3.9 9 8.6 9 4.8 0 8.6-4 8.6-9V260c.1-5-3.8-9-8.6-9z"/><path fill="#F5B090" d="M279.9 251c3.8 0 6.9 4 6.9 9v4.5c0 5-3.1 9-6.9 9 4.8 0 8.6-4 8.6-9V260c.1-5-3.8-9-8.6-9z"/><path fill="#513432" d="M275.3 249.4c-.4-.1-.7-.3-.9-.5-.4-.4-.6-.5-.6.1-.1.8 0 1.9 0 1.9-.7-.1-1.3-.5-1.8-.9-.4-.4-.6-.3-.4.2.2.7.5 1.4.7 2-1.2 1.2-2 2.7-2.6 4.3-.3 1-.3 2.3-.1 3.4h1.7s1.6-3.3 3.8-3.8c4 3.1 9-.7 9-.7s1 4.6 4.5 4.6h1.7c.2-1.1.2-2.4-.1-3.4-1.4-4.4-5.4-7.7-10.2-7.7-.7 0-1.4.1-2 .2-1 .2-2.2.4-2.7.3zM102.8 324c.1.9.4 1.7.6 2.2.6 1.2 1 2.2 1 2.2h17.3l1-2.2c.3-.5.5-1.4.6-2.2h-20.5z"/><path fill="#5592D7" d="M104.4 349.6c0-5.7 3.9-10.4 8.6-10.4 4.8 0 8.6 4.6 8.6 10.4h-17.2z"/><path opacity=".1" d="M113.1 339.2v10.4h8.6c0-5.8-3.8-10.4-8.6-10.4z"/><path fill="#87583C" d="M116.4 340c-1-.5-2.2-.8-3.4-.8-1.2 0-2.3.3-3.4.8.4 1.5 1.7 2.6 3.4 2.6s3.1-1.1 3.4-2.6zM111.4 333.7h3.5v6.7h-3.5z"/><path fill="#804C2D" d="M114.8 339.4v-5.7h-1.7v8.9c1.6 0 3-1.1 3.4-2.6-.6-.3-1.1-.5-1.7-.6z"/><ellipse fill="#87583C" cx="121.7" cy="326.6" rx="1.4" ry="2.6"/><ellipse fill="#87583C" cx="104.4" cy="326.6" rx="1.4" ry="2.6"/><path fill="#87583C" d="M113.1 315c-4.8 0-8.6 4-8.6 9v4.5c0 5 3.9 9 8.6 9 4.8 0 8.6-4 8.6-9V324c0-5-3.8-9-8.6-9z"/><path fill="#804C2D" d="M113.1 315c3.8 0 6.9 4 6.9 9v4.5c0 5-3.1 9-6.9 9 4.8 0 8.6-4 8.6-9V324c0-5-3.8-9-8.6-9z"/><path fill="#513432" d="M108.4 313.4c-.4-.1-.7-.3-.9-.5-.4-.4-.6-.5-.6.1-.1.8 0 1.9 0 1.9-.7-.1-1.3-.5-1.8-.9-.4-.4-.6-.3-.4.2.2.7.5 1.4.7 2-1.2 1.2-2 2.7-2.6 4.3-.3 1-.3 2.3-.1 3.4h1.7s1.6-3.3 3.8-3.8c4 3.1 9-.7 9-.7s1 4.6 4.5 4.6h1.7c.2-1.1.2-2.4-.1-3.4-1.4-4.4-5.4-7.7-10.2-7.7-.7 0-1.4.1-2 .2-1 .2-2.2.4-2.7.3z"/><path fill="#F69626" d="M131.6 250.7v-12.4c0-9.4-7.4-17.1-16.5-17.1s-16.5 7.7-16.5 17.1v12.4c-4 1.3-6.8 5.1-6.8 9.5 0 5.5 4.5 10 10 10h26.7c5.5 0 10-4.5 10-10-.1-4.4-3-8.2-6.9-9.5z"/><path fill="#5592D7" d="M101.7 277.8c0-8.8 6-16 13.3-16s13.3 7.2 13.3 16h-26.6z"/><path opacity=".1" d="M115 261.8v16h13.3c.1-8.9-5.9-16-13.3-16z"/><path fill="#513432" d="M113.9 261.8v16h2.2v-16c-.4 0-.7-.1-1.1-.1s-.7.1-1.1.1zM115 267.2c.9 1.3 2.4 2.2 4.2 2.2 2.3 0 4.2-1.5 4.8-3.5-2.4-2.6-5.5-4.2-9-4.2s-6.6 1.6-9 4.2c.6 2 2.6 3.5 4.8 3.5 1.8.1 3.3-.8 4.2-2.2z"/><path fill="#F7C1A1" d="M120.2 263c-1.6-.8-3.3-1.3-5.2-1.3-1.8 0-3.6.4-5.2 1.3.6 2.3 2.7 4.1 5.2 4.1s4.7-1.7 5.2-4.1zM112.4 253.3h5.3v10.3h-5.3z"/><path fill="#F5B090" d="M117.7 262.1v-8.8H115v13.8c2.5 0 4.6-1.7 5.2-4.1-.8-.4-1.6-.7-2.5-.9z"/><ellipse fill="#F7C1A1" cx="128.4" cy="242.3" rx="2.1" ry="4"/><ellipse fill="#F7C1A1" cx="101.7" cy="242.3" rx="2.1" ry="4"/><path fill="#F7C1A1" d="M115 224.4c-7.4 0-13.3 6.2-13.3 13.9v6.9c0 7.7 6 13.9 13.3 13.9s13.3-6.2 13.3-13.9v-6.9c.1-7.7-5.9-13.9-13.3-13.9z"/><path fill="#F5B090" d="M115 224.4c5.9 0 10.7 6.2 10.7 13.9v6.9c0 7.7-4.8 13.9-10.7 13.9 7.4 0 13.3-6.2 13.3-13.9v-6.9c.1-7.7-5.9-13.9-13.3-13.9z"/><path fill="#F69626" d="M108.3 231.8c1.3 2.4 3.8 4.1 6.7 4.1 2.9 0 5.5-1.7 6.7-4.1.1 3.6 3 6.4 6.6 6.4 1.2 0 2.2-.3 3.2-.8-.4-9-7.7-16.3-16.5-16.3-8.9 0-16.1 7.2-16.5 16.3.9.5 2 .8 3.2.8 3.6.1 6.5-2.8 6.6-6.4z"/><path fill="#5592D7" d="M183.3 360.4c0-8.8 6-16 13.3-16 7.4 0 13.3 7.2 13.3 16h-26.6z"/><path opacity=".1" d="M196.6 344.4v16H210c0-8.9-6-16-13.4-16z"/><path fill="#5592D7" d="M187.7 348.6l9 6.9v-11.1c-3.5 0-6.7 1.6-9 4.2z"/><path fill="#513432" d="M180.7 320.9c.2 1.4.6 2.6 1 3.5.9 1.9 1.6 3.5 1.6 3.5H210l1.6-3.5c.4-.8.8-2.1 1-3.5h-31.9z"/><path fill="#F7C1A1" d="M201.8 345.6c-1.6-.8-3.3-1.3-5.2-1.3-1.8 0-3.6.4-5.2 1.3.6 2.3 2.7 4.1 5.2 4.1 2.6 0 4.7-1.7 5.2-4.1zM194 335.9h5.3v10.3H194z"/><path fill="#F5B090" d="M199.3 344.7v-8.8h-2.7v13.8c2.5 0 4.6-1.7 5.2-4.1-.8-.4-1.6-.7-2.5-.9z"/><ellipse fill="#F7C1A1" cx="210" cy="324.9" rx="2.1" ry="4"/><ellipse fill="#F7C1A1" cx="183.3" cy="324.9" rx="2.1" ry="4"/><path fill="#F7C1A1" d="M196.6 307c-7.4 0-13.3 6.2-13.3 13.9v6.9c0 7.7 6 13.9 13.3 13.9 7.4 0 13.3-6.2 13.3-13.9v-6.9c.1-7.7-5.9-13.9-13.3-13.9z"/><path fill="#F5B090" d="M196.6 307c5.9 0 10.7 6.2 10.7 13.9v6.9c0 7.7-4.8 13.9-10.7 13.9 7.4 0 13.3-6.2 13.3-13.9v-6.9c.1-7.7-5.9-13.9-13.3-13.9z"/><path fill="#513432" d="M212.4 315.6c-.7-2.2-1.8-4.2-3.3-6 .3-.8.4-1.6.5-2.5v-.8c0-2.2-.7-4.3-1.9-6-1.1 2.3-3.3 4-5.9 4.3-1.6-.6-3.4-.9-5.2-.9-2.9 0-5.6.8-8 2.1-3.6 2.1-6.4 5.5-7.7 9.7-.5 1.6-.5 3.5-.2 5.3h2.6s2.6-6 7.3-8.4c1.9 2.7 5 4.4 8.5 4.4 2.2 0 4.2-.6 5.8-1.8 1.6 1 3.8 2.9 5 5.8h2.6c.3-1.6.4-3.6-.1-5.2z"/><path fill="#ED5E51" d="M210.4 320h-8c-1 0-2.5.2-3.3.8-.2.2-.5.4-.6.6h-3.6l-.6-.6c-.8-.6-2.4-.8-3.3-.8h-8c-.3 0-.6.3-.6.6s.3.6.6.6h1.5c-.2.6-.4 1.2-.4 1.9 0 2.8 2.5 5.1 5.5 5.1 2.8 0 5.2-2 5.5-4.6.3 0 .5-.3.5-.6v-.4h2.6v.4c0 .3.2.5.5.6.3 2.6 2.6 4.6 5.5 4.6 3 0 5.5-2.3 5.5-5.1 0-.7-.1-1.3-.4-1.9h1.5c.3 0 .6-.3.6-.6-.4-.3-.7-.6-1-.6zm-21 7.5c-2.7 0-4.9-2-4.9-4.5 0-.7.2-1.3.4-1.9h5.6c1 0 2.4.2 3 .6.4.3.7.7.7 1.1 0 .1 0 .2.1.3-.1 2.5-2.2 4.4-4.9 4.4zm14.4 0c-2.6 0-4.8-1.9-4.9-4.3.1-.1.1-.2.1-.3 0-.5.3-.8.7-1.1.6-.5 2-.6 3-.6h5.6c.3.6.4 1.2.4 1.9 0 2.4-2.2 4.4-4.9 4.4z"/><path fill="#D94A3D" d="M210.4 320h-8c-1 0-2.5.2-3.3.8-.2.2-.5.4-.6.6h-1.8v1.2h1.3v.4c0 .3.2.5.5.6.3 2.6 2.6 4.6 5.5 4.6 3 0 5.5-2.3 5.5-5.1 0-.7-.1-1.3-.4-1.9h1.5c.3 0 .6-.3.6-.6-.2-.3-.5-.6-.8-.6zm-6.6 7.5c-2.6 0-4.8-1.9-4.9-4.3.1-.1.1-.2.1-.3 0-.5.3-.8.7-1.1.6-.5 2-.6 3-.6h5.6c.3.6.4 1.2.4 1.9 0 2.4-2.2 4.4-4.9 4.4z"/><path fill="#513432" d="M126.9 160.4c-1.4-4.4-5.4-7.7-10.2-7.7-4.8 0-8.8 3.2-10.2 7.7-.3 1-.3 2.3-.1 3.4.1.9.4 1.7.6 2.2.6 1.2 1 2.2 1 2.2h17.3l1-2.2c.3-.5.5-1.4.6-2.2.3-1.1.3-2.3 0-3.4z"/><path fill="#5592D7" d="M108.1 189.4c0-5.7 3.9-10.4 8.6-10.4s8.6 4.6 8.6 10.4h-17.2z"/><path opacity=".1" d="M116.7 179.1v10.4h8.6c.1-5.8-3.8-10.4-8.6-10.4z"/><path fill="#F7C1A1" d="M120.1 179.9c-1-.5-2.2-.8-3.4-.8s-2.3.3-3.4.8c.4 1.5 1.7 2.6 3.4 2.6s3-1.1 3.4-2.6zM115 173.6h3.5v6.7H115z"/><path fill="#F5B090" d="M118.4 179.3v-5.7h-1.7v8.9c1.6 0 3-1.1 3.4-2.6-.6-.3-1.1-.5-1.7-.6z"/><ellipse fill="#F7C1A1" cx="125.4" cy="166.4" rx="1.4" ry="2.6"/><ellipse fill="#F7C1A1" cx="108.1" cy="166.4" rx="1.4" ry="2.6"/><path fill="#F7C1A1" d="M116.7 154.9c-4.8 0-8.6 4-8.6 9v4.5c0 5 3.9 9 8.6 9 4.8 0 8.6-4 8.6-9v-4.5c.1-5-3.8-9-8.6-9z"/><path fill="#F5B090" d="M116.7 154.9c3.8 0 6.9 4 6.9 9v4.5c0 5-3.1 9-6.9 9 4.8 0 8.6-4 8.6-9v-4.5c.1-5-3.8-9-8.6-9z"/><path fill="#513432" d="M125.3 155.4c-.9.1-2.3-.6-3.1-1.1-1.6-1-3.5-1.5-5.4-1.5-4.8 0-8.8 3.2-10.2 7.7-.3 1-.3 2.3-.1 3.4h1.7s2.5-5 5.9-5c3.5 0 3 3.2 7.7 3.2 6.7 0 6.1-6.8 6-7.5-.2 0-1.1.6-2.5.8zM124.9 160.9c-.2 2.8-.8 7.9-2 8.7 0 0-2.4-1.1-6.2-1.1-3.7 0-6.2 1.1-6.2 1.1-1.2-.8-1.8-5.8-2-8.7-.3.9-.5 1.9-.5 3v4.5c0 5 3.9 15.9 8.6 15.9 4.8 0 8.6-10.9 8.6-15.9v-4.5c.2-1.1 0-2.1-.3-3z"/><path fill="#F7C1A1" d="M113.2 171.2c.7 1.6 2 2.6 3.5 2.6s2.7-1.1 3.5-2.6h-7z"/><path fill="#5592D7" d="M26.1 177.7c0-9 6.1-16.3 13.6-16.3s13.6 7.3 13.6 16.3H26.1z"/><path opacity=".1" d="M39.7 161.4v16.3h13.6c0-9-6-16.3-13.6-16.3z"/><path fill="#E6820E" d="M49.5 166.4v11.3h3.8c0-4.4-1.4-8.4-3.8-11.3z"/><path fill="#F7944B" d="M26.1 177.7h3.8v-11.3c-2.3 2.9-3.8 6.9-3.8 11.3z"/><path fill="#513432" d="M55.8 132.1c-2.2-7-8.6-12.1-16.1-12.1-7.5 0-13.9 5.1-16.1 12.1-.5 1.6-.5 3.6-.2 5.4.2 1.4.6 2.7 1 3.5.9 2 1.6 3.5 1.6 3.5h27.2L55 141c.4-.9.8-2.1 1-3.5.3-1.8.3-3.8-.2-5.4z"/><path fill="#87583C" d="M45 162.7c-1.6-.8-3.4-1.3-5.3-1.3s-3.7.5-5.3 1.3c.6 2.4 2.7 4.2 5.3 4.2 2.6-.1 4.7-1.8 5.3-4.2zM37 152.8h5.4v10.6H37z"/><path fill="#804C2D" d="M42.5 161.7v-8.9h-2.7v14.1c2.6 0 4.7-1.8 5.3-4.2-.9-.4-1.8-.8-2.6-1z"/><ellipse fill="#87583C" cx="53.4" cy="141.5" rx="2.2" ry="4.1"/><ellipse fill="#87583C" cx="26.1" cy="141.5" rx="2.2" ry="4.1"/><path fill="#87583C" d="M39.7 123.3c-7.5 0-13.6 6.3-13.6 14.2v7.1c0 7.8 6.1 14.2 13.6 14.2s13.6-6.3 13.6-14.2v-7.1c0-7.9-6-14.2-13.6-14.2z"/><path fill="#804C2D" d="M39.7 123.3c6 0 10.9 6.3 10.9 14.2v7.1c0 7.8-4.9 14.2-10.9 14.2 7.5 0 13.6-6.3 13.6-14.2v-7.1c0-7.9-6-14.2-13.6-14.2z"/><path fill="#513432" d="M52.6 132.8c-.4 4.5-1.3 12.4-3.1 13.6 0 0-3.8-1.8-9.7-1.8-5.9 0-9.7 1.8-9.7 1.8-1.9-1.3-2.8-9.2-3.1-13.6-.5 1.5-.8 3-.8 4.7v7.1c0 7.8 6.1 15.3 13.6 15.3s13.6-7.4 13.6-15.3v-7.1c-.1-1.7-.3-3.3-.8-4.7z"/><path fill="#87583C" d="M34.3 149.1c1.1 2.5 3.1 4.2 5.4 4.2 2.3 0 4.3-1.7 5.4-4.2H34.3z"/><path fill="#F7944B" d="M24.5 130.7c0-7.2 6.8-13 15.3-13 8.4 0 15.3 5.8 15.3 13H24.5z"/><path fill="#E6820E" d="M39.7 117.7v13H55c0-7.2-6.8-13-15.3-13z"/><path fill="#ED5E51" d="M56.1 129c-4-2.8-9.9-4.5-16.4-4.5-6.5 0-12.4 1.7-16.4 4.5-.7.5-1.3 1.7-1.3 2.6v3.4c0 .9.6 1.2 1.3.7 4-2.8 9.9-4.5 16.4-4.5 6.5 0 12.4 1.7 16.4 4.5.7.5 1.3.3 1.3-.7v-3.4c0-.9-.5-2.1-1.3-2.6z"/><path fill="#D94A3D" d="M25.4 127.8v6.7c-.6.3-1.1.6-1.6 1v-6.7c.5-.4 1-.7 1.6-1zM28.8 126.3v6.7c-.6.2-1.1.4-1.6.6V127c.5-.3 1-.5 1.6-.7zM32.1 125.4v6.7c-.6.1-1.1.3-1.6.4v-6.7c.5-.2 1.1-.3 1.6-.4zM35.5 124.8v6.7c-.6.1-1.1.1-1.6.2V125c.5-.1 1-.1 1.6-.2zM38.9 124.6v6.7c-.6 0-1.1 0-1.6.1v-6.7c.5-.1 1-.1 1.6-.1zM42.2 124.6v6.7c-.5 0-1.1-.1-1.6-.1v-6.7c.5.1 1.1.1 1.6.1zM45.6 125v6.7c-.5-.1-1.1-.2-1.6-.2v-6.7c.5.1 1.1.1 1.6.2zM49 125.8v6.7c-.5-.1-1.1-.3-1.6-.4v-6.7c.5.1 1 .2 1.6.4zM52.3 127v6.7c-.5-.2-1.1-.4-1.6-.6v-6.7c.6.1 1.1.3 1.6.6zM55.7 128.8v6.7c-.5-.3-1.1-.7-1.6-1v-6.7c.5.3 1.1.6 1.6 1z"/><path fill="#5592D7" d="M265.4 382.2c0-9 6.1-16.3 13.6-16.3s13.6 7.3 13.6 16.3h-27.2z"/><path opacity=".1" d="M279 365.9v16.3h13.6c0-9-6.1-16.3-13.6-16.3z"/><path fill="#87583C" d="M276.3 357.3h5.4v10.6h-5.4zM284.3 367.2c-1.6-.8-3.4-1.3-5.3-1.3s-3.7.5-5.3 1.3l5.3 7.8 5.3-7.8z"/><path fill="#804C2D" d="M281.7 366.2v-8.9H279V375l5.3-7.8c-.8-.4-1.7-.8-2.6-1z"/><path fill="#513432" d="M263.4 336.6c-.4-1.8.4-3.5 2.3-4.7.2-1.8 1.5-3.1 3.6-3.7.8-1.6 2.5-2.5 4.5-2.4 1.4-1.3 3.3-1.6 5.2-.9 1.9-.7 3.8-.4 5.2.9 2.1-.1 3.7.8 4.5 2.4 2 .6 3.3 1.9 3.6 3.7 1.9 1.2 2.7 2.9 2.3 4.7 1.2.7 1.3 1.5.4 2.3 1 1 1 1.8-.1 2.4.9 1.1.7 1.9-.4 2.2.8 1.1.5 1.8-.6 1.8.9.5.5 1.4-.4.9.9.6.5 1.5-.4.9.9.6.4 1.5-.4.9.8.7.4 1.6-.4.9.8.7-6.2.7-6.6 0 .4.7-6.6.7-6.6 0 0 .7-7 .7-6.6 0-.4.7-7.4.7-6.6 0-.8.7-.9.6-.1-.3-.9.5-1 .3-.3-.7-1 .3-1.2-.1-.5-1.1-1.1.2-1.3-.3-.6-1.3-1.1 0-1.4-.6-.6-1.8-1.1-.3-1.3-1.1-.4-2.2-1.1-.6-1.1-1.4-.1-2.4-1.2-1-1.1-1.8.1-2.5z"/><ellipse fill="#87583C" cx="292.6" cy="346" rx="2.2" ry="4.1"/><ellipse fill="#87583C" cx="265.4" cy="346" rx="2.2" ry="4.1"/><path fill="#87583C" d="M279 327.8c-7.5 0-13.6 6.3-13.6 14.2v7.1c0 7.8 6.1 14.2 13.6 14.2s13.6-6.3 13.6-14.2V342c0-7.9-6.1-14.2-13.6-14.2z"/><path fill="#804C2D" d="M279 327.8c6 0 10.9 6.3 10.9 14.2v7.1c0 7.8-4.9 14.2-10.9 14.2 7.5 0 13.6-6.3 13.6-14.2V342c0-7.9-6.1-14.2-13.6-14.2z"/><path fill="#513432" d="M295 338.8c.9-.7.8-1.5-.4-2.3.4-1.8-.4-3.5-2.3-4.7-.2-1.8-1.5-3.1-3.6-3.7-.8-1.6-2.5-2.5-4.5-2.4-1.4-1.3-3.3-1.6-5.2-.9-1.9-.7-3.8-.4-5.2.9-2.1-.1-3.7.8-4.5 2.4-2 .6-3.3 1.9-3.6 3.7-1.9 1.2-2.7 2.9-2.3 4.7-1.2.7-1.3 1.5-.4 2.3-1 1-1 1.8.1 2.4-.2.3-.3.5-.4.7h2.7c1.6 3.5 4.9 2.9 4.4 0-.5-2.8 1.3-5.5 1.4-5.6 1.8 1.3 4.7 2.2 7.8 2.2s6-.8 7.8-2.2c.1.1 1.9 2.8 1.4 5.6-.5 2.9 2.7 3.5 4.4 0h2.7c-.1-.2-.2-.5-.4-.7 1-.5 1.1-1.4.1-2.4z"/></svg>