<svg xmlns="http://www.w3.org/2000/svg" xmlns:xlink="http://www.w3.org/1999/xlink" viewBox="0 0 465 330" enable-background="new 0 0 465 330"><path opacity=".15" d="M10.6 8.2h76.3v51.2H10.6z"/><defs><path id="a" d="M6.9 4.5h76.3v51.2H6.9z"/></defs><clipPath id="b"><use xlink:href="#a" overflow="visible"/></clipPath><path clip-path="url(#b)" fill="#5592D7" d="M6.9 4.5h76.3v51.2H6.9z"/><path fill="#fff" d="M48.8 41.8l-.6-2.9H48c-1 1.3-2 2.1-3 2.6s-2.3.7-3.8.7c-2 0-3.6-.5-4.8-1.6-1.1-1-1.7-2.5-1.7-4.5 0-4.1 3.3-6.3 9.9-6.5l3.5-.1v-1.3c0-1.6-.3-2.8-1-3.5-.7-.8-1.8-1.1-3.3-1.1-1.7 0-3.6.5-5.8 1.6l-1-2.4c1-.5 2.1-1 3.3-1.3 1.2-.3 2.4-.5 3.6-.5 2.4 0 4.2.5 5.4 1.6s1.8 2.8 1.8 5.2v13.9h-2.3zm-7-2.1c1.9 0 3.4-.5 4.5-1.6s1.6-2.5 1.6-4.4v-1.8l-3.1.1c-2.5.1-4.2.5-5.3 1.1-1.1.7-1.6 1.7-1.6 3.2 0 1.1.3 2 1 2.6.7.5 1.7.8 2.9.8z"/><path opacity=".15" d="M193 8.2h76.3v51.2H193z"/><defs><path id="c" d="M189.2 4.5h76.3v51.2h-76.3z"/></defs><clipPath id="d"><use xlink:href="#c" overflow="visible"/></clipPath><path clip-path="url(#d)" fill="#F69626" d="M189.2 4.5h76.3v51.2h-76.3z"/><path fill="#fff" d="M226.7 42.2c-3 0-5.2-.9-6.9-2.7-1.6-1.8-2.4-4.4-2.4-7.7 0-3.4.8-6.1 2.5-7.9 1.6-1.9 4-2.8 7-2.8 1 0 2 .1 2.9.3 1 .2 1.8.5 2.3.7l-.9 2.6c-.7-.3-1.4-.5-2.2-.7-.8-.2-1.5-.3-2.1-.3-4.1 0-6.2 2.6-6.2 7.9 0 2.5.5 4.4 1.5 5.8 1 1.3 2.5 2 4.5 2 1.7 0 3.4-.4 5.2-1.1V41c-1.4.9-3.1 1.2-5.2 1.2z"/><path opacity=".15" d="M101.8 8.2h76.3v51.2h-76.3z"/><defs><path id="e" d="M98.1 4.5h76.3v51.2H98.1z"/></defs><clipPath id="f"><use xlink:href="#e" overflow="visible"/></clipPath><path clip-path="url(#f)" fill="#96B548" d="M98.1 4.5h76.3v51.2H98.1z"/><path fill="#fff" d="M136.9 21.1c2.7 0 4.8.9 6.2 2.7 1.5 1.8 2.2 4.4 2.2 7.8s-.7 6-2.2 7.8c-1.5 1.9-3.6 2.8-6.2 2.8-1.3 0-2.5-.2-3.6-.7-1.1-.5-2-1.2-2.8-2.3h-.2l-.7 2.6h-2.2v-29h3.1v7c0 1.6 0 3-.1 4.2h.1c1.4-1.9 3.6-2.9 6.4-2.9zm-.5 2.6c-2.1 0-3.6.6-4.6 1.8-.9 1.2-1.4 3.3-1.4 6.1s.5 4.9 1.4 6.2c1 1.2 2.5 1.9 4.6 1.9 1.9 0 3.3-.7 4.2-2.1.9-1.4 1.4-3.4 1.4-6 0-2.7-.5-4.6-1.4-5.9-.8-1.4-2.2-2-4.2-2z"/><path opacity=".15" d="M10.6 274.3h76.3v51.2H10.6z"/><defs><path id="g" d="M6.9 270.6h76.3v51.2H6.9z"/></defs><clipPath id="h"><use xlink:href="#g" overflow="visible"/></clipPath><path clip-path="url(#h)" fill="#96B548" d="M6.9 270.6h76.3v51.2H6.9z"/><path fill="#fff" d="M45.7 285.3c2.7 0 4.8.9 6.2 2.7 1.5 1.8 2.2 4.4 2.2 7.8s-.7 6-2.2 7.8c-1.5 1.9-3.6 2.8-6.2 2.8-1.3 0-2.5-.2-3.6-.7-1.1-.5-2-1.2-2.8-2.3h-.2l-.7 2.6h-2.2v-29h3.1v7c0 1.6 0 3-.1 4.2h.1c1.4-1.8 3.6-2.9 6.4-2.9zm-.4 2.6c-2.1 0-3.6.6-4.6 1.8-.9 1.2-1.4 3.3-1.4 6.1s.5 4.9 1.4 6.2c1 1.2 2.5 1.9 4.6 1.9 1.9 0 3.3-.7 4.2-2.1.9-1.4 1.4-3.4 1.4-6 0-2.7-.5-4.6-1.4-5.9-.9-1.3-2.3-2-4.2-2z"/><path opacity=".15" d="M193 274.3h76.3v51.2H193z"/><defs><path id="i" d="M189.2 270.6h76.3v51.2h-76.3z"/></defs><clipPath id="j"><use xlink:href="#i" overflow="visible"/></clipPath><path clip-path="url(#j)" fill="#F69626" d="M189.2 270.6h76.3v51.2h-76.3z"/><path fill="#fff" d="M226.7 306.5c-3 0-5.2-.9-6.9-2.7-1.6-1.8-2.4-4.4-2.4-7.7 0-3.4.8-6.1 2.5-7.9 1.6-1.9 4-2.8 7-2.8 1 0 2 .1 2.9.3 1 .2 1.8.5 2.3.7l-.9 2.6c-.7-.3-1.4-.5-2.2-.7-.8-.2-1.5-.3-2.1-.3-4.1 0-6.2 2.6-6.2 7.9 0 2.5.5 4.4 1.5 5.8 1 1.3 2.5 2 4.5 2 1.7 0 3.4-.4 5.2-1.1v2.7c-1.4.8-3.1 1.2-5.2 1.2z"/><path opacity=".15" d="M101.8 274.3h76.3v51.2h-76.3z"/><defs><path id="k" d="M98.1 270.6h76.3v51.2H98.1z"/></defs><clipPath id="l"><use xlink:href="#k" overflow="visible"/></clipPath><path clip-path="url(#l)" fill="#5592D7" d="M98.1 270.6h76.3v51.2H98.1z"/><path fill="#fff" d="M139.9 306.1l-.6-2.9h-.1c-1 1.3-2 2.1-3 2.6s-2.3.7-3.8.7c-2 0-3.6-.5-4.8-1.6-1.1-1-1.7-2.5-1.7-4.5 0-4.1 3.3-6.3 9.9-6.5l3.5-.1v-1.3c0-1.6-.3-2.8-1-3.5-.7-.8-1.8-1.1-3.3-1.1-1.7 0-3.6.5-5.8 1.6l-.9-2.4c1-.5 2.1-1 3.3-1.3 1.2-.3 2.4-.5 3.6-.5 2.4 0 4.2.5 5.4 1.6 1.2 1.1 1.8 2.8 1.8 5.2V306h-2.5zm-6.9-2.2c1.9 0 3.4-.5 4.5-1.6s1.6-2.5 1.6-4.4V296l-3.1.1c-2.5.1-4.2.5-5.3 1.1-1.1.7-1.6 1.7-1.6 3.2 0 1.1.3 2 1 2.6.7.6 1.6.9 2.9.9z"/><path opacity=".15" d="M10.6 207.3h76.3v51.2H10.6z"/><defs><path id="m" d="M6.9 203.6h76.3v51.2H6.9z"/></defs><clipPath id="n"><use xlink:href="#m" overflow="visible"/></clipPath><path clip-path="url(#n)" fill="#5592D7" d="M6.9 203.6h76.3v51.2H6.9z"/><path fill="#fff" d="M48.8 240l-.6-2.9H48c-1 1.3-2 2.1-3 2.6s-2.3.7-3.8.7c-2 0-3.6-.5-4.8-1.6-1.1-1-1.7-2.5-1.7-4.5 0-4.1 3.3-6.3 9.9-6.5l3.5-.1v-1.3c0-1.6-.3-2.8-1-3.5-.7-.8-1.8-1.1-3.3-1.1-1.7 0-3.6.5-5.8 1.6l-1-2.4c1-.5 2.1-1 3.3-1.3 1.2-.3 2.4-.5 3.6-.5 2.4 0 4.2.5 5.4 1.6s1.8 2.8 1.8 5.2v14h-2.3zm-7-2.2c1.9 0 3.4-.5 4.5-1.6s1.6-2.5 1.6-4.4V230l-3.1.1c-2.5.1-4.2.5-5.3 1.1-1.1.7-1.6 1.7-1.6 3.2 0 1.1.3 2 1 2.6.7.6 1.7.8 2.9.8z"/><path opacity=".15" d="M193 207.3h76.3v51.2H193z"/><defs><path id="o" d="M189.2 203.6h76.3v51.2h-76.3z"/></defs><clipPath id="p"><use xlink:href="#o" overflow="visible"/></clipPath><path clip-path="url(#p)" fill="#5592D7" d="M189.2 203.6h76.3v51.2h-76.3z"/><path fill="#fff" d="M231.1 240l-.6-2.9h-.1c-1 1.3-2 2.1-3 2.6s-2.3.7-3.8.7c-2 0-3.6-.5-4.8-1.6-1.1-1-1.7-2.5-1.7-4.5 0-4.1 3.3-6.3 9.9-6.5l3.5-.1v-1.3c0-1.6-.3-2.8-1-3.5-.7-.8-1.8-1.1-3.3-1.1-1.7 0-3.6.5-5.8 1.6l-.9-2.4c1-.5 2.1-1 3.3-1.3 1.2-.3 2.4-.5 3.6-.5 2.4 0 4.2.5 5.4 1.6 1.2 1.1 1.8 2.8 1.8 5.2v14h-2.5zm-7-2.2c1.9 0 3.4-.5 4.5-1.6s1.6-2.5 1.6-4.4V230l-3.1.1c-2.5.1-4.2.5-5.3 1.1-1.1.7-1.6 1.7-1.6 3.2 0 1.1.3 2 1 2.6.8.6 1.7.8 2.9.8z"/><path opacity=".15" d="M101.8 207.3h76.3v51.2h-76.3z"/><defs><path id="q" d="M98.1 203.6h76.3v51.2H98.1z"/></defs><clipPath id="r"><use xlink:href="#q" overflow="visible"/></clipPath><path clip-path="url(#r)" fill="#F69626" d="M98.1 203.6h76.3v51.2H98.1z"/><path fill="#fff" d="M135.5 240.4c-3 0-5.2-.9-6.9-2.7-1.6-1.8-2.4-4.4-2.4-7.7 0-3.4.8-6.1 2.5-7.9 1.6-1.9 4-2.8 7-2.8 1 0 2 .1 2.9.3 1 .2 1.8.5 2.3.7l-.9 2.6c-.7-.3-1.4-.5-2.2-.7-.8-.2-1.5-.3-2.1-.3-4.1 0-6.2 2.6-6.2 7.9 0 2.5.5 4.4 1.5 5.8 1 1.3 2.5 2 4.5 2 1.7 0 3.4-.4 5.2-1.1v2.7c-1.4.8-3.1 1.2-5.2 1.2z"/><path opacity=".15" d="M10.6 141.3h76.3v51.2H10.6z"/><defs><path id="s" d="M6.9 137.6h76.3v51.2H6.9z"/></defs><clipPath id="t"><use xlink:href="#s" overflow="visible"/></clipPath><path clip-path="url(#t)" fill="#5592D7" d="M6.9 137.6h76.3v51.2H6.9z"/><path fill="#fff" d="M48.8 174l-.6-2.9H48c-1 1.3-2 2.1-3 2.6s-2.3.7-3.8.7c-2 0-3.6-.5-4.8-1.6-1.1-1-1.7-2.5-1.7-4.5 0-4.1 3.3-6.3 9.9-6.5l3.5-.1v-1.3c0-1.6-.3-2.8-1-3.5-.7-.8-1.8-1.1-3.3-1.1-1.7 0-3.6.5-5.8 1.6l-1-2.4c1-.5 2.1-1 3.3-1.3 1.2-.3 2.4-.5 3.6-.5 2.4 0 4.2.5 5.4 1.6s1.8 2.8 1.8 5.2v14h-2.3zm-7-2.2c1.9 0 3.4-.5 4.5-1.6s1.6-2.5 1.6-4.4V164l-3.1.1c-2.5.1-4.2.5-5.3 1.1-1.1.7-1.6 1.7-1.6 3.2 0 1.1.3 2 1 2.6.7.5 1.7.8 2.9.8z"/><path opacity=".15" d="M193 141.3h76.3v51.2H193z"/><defs><path id="u" d="M189.2 137.6h76.3v51.2h-76.3z"/></defs><clipPath id="v"><use xlink:href="#u" overflow="visible"/></clipPath><path clip-path="url(#v)" fill="#F69626" d="M189.2 137.6h76.3v51.2h-76.3z"/><path fill="#fff" d="M226.7 174.3c-3 0-5.2-.9-6.9-2.7-1.6-1.8-2.4-4.4-2.4-7.7 0-3.4.8-6.1 2.5-7.9 1.6-1.9 4-2.8 7-2.8 1 0 2 .1 2.9.3 1 .2 1.8.5 2.3.7l-.9 2.6c-.7-.3-1.4-.5-2.2-.7-.8-.2-1.5-.3-2.1-.3-4.1 0-6.2 2.6-6.2 7.9 0 2.5.5 4.4 1.5 5.8 1 1.3 2.5 2 4.5 2 1.7 0 3.4-.4 5.2-1.1v2.7c-1.4.9-3.1 1.2-5.2 1.2z"/><path opacity=".15" d="M101.8 141.3h76.3v51.2h-76.3z"/><defs><path id="w" d="M98.1 137.6h76.3v51.2H98.1z"/></defs><clipPath id="x"><use xlink:href="#w" overflow="visible"/></clipPath><path clip-path="url(#x)" fill="#96B548" d="M98.1 137.6h76.3v51.2H98.1z"/><path fill="#fff" d="M136.9 153.2c2.7 0 4.8.9 6.2 2.7 1.5 1.8 2.2 4.4 2.2 7.8 0 3.4-.7 6-2.2 7.8-1.5 1.9-3.6 2.8-6.2 2.8-1.3 0-2.5-.2-3.6-.7-1.1-.5-2-1.2-2.8-2.3h-.2l-.7 2.6h-2.2v-29h3.1v7c0 1.6 0 3-.1 4.2h.1c1.4-1.9 3.6-2.9 6.4-2.9zm-.5 2.6c-2.1 0-3.6.6-4.6 1.8-.9 1.2-1.4 3.3-1.4 6.1 0 2.9.5 4.9 1.4 6.2 1 1.2 2.5 1.9 4.6 1.9 1.9 0 3.3-.7 4.2-2.1.9-1.4 1.4-3.4 1.4-6 0-2.7-.5-4.6-1.4-5.9-.8-1.3-2.2-2-4.2-2z"/><path opacity=".15" d="M10.6 74.3h76.3v51.2H10.6z"/><defs><path id="y" d="M6.9 70.6h76.3v51.2H6.9z"/></defs><clipPath id="z"><use xlink:href="#y" overflow="visible"/></clipPath><path clip-path="url(#z)" fill="#96B548" d="M6.9 70.6h76.3v51.2H6.9z"/><path fill="#fff" d="M45.7 87.2c2.7 0 4.8.9 6.2 2.7 1.5 1.8 2.2 4.4 2.2 7.8s-.7 6-2.2 7.8c-1.5 1.9-3.6 2.8-6.2 2.8-1.3 0-2.5-.2-3.6-.7-1.1-.5-2-1.2-2.8-2.3h-.2l-.7 2.6h-2.2v-29h3.1v7c0 1.6 0 3-.1 4.2h.1c1.4-1.9 3.6-2.9 6.4-2.9zm-.4 2.5c-2.1 0-3.6.6-4.6 1.8-.9 1.2-1.4 3.3-1.4 6.1s.5 4.9 1.4 6.2c1 1.2 2.5 1.9 4.6 1.9 1.9 0 3.3-.7 4.2-2.1.9-1.4 1.4-3.4 1.4-6 0-2.7-.5-4.6-1.4-5.9-.9-1.3-2.3-2-4.2-2z"/><path opacity=".15" d="M193 74.3h76.3v51.2H193z"/><defs><path id="A" d="M189.2 70.6h76.3v51.2h-76.3z"/></defs><clipPath id="B"><use xlink:href="#A" overflow="visible"/></clipPath><path clip-path="url(#B)" fill="#5592D7" d="M189.2 70.6h76.3v51.2h-76.3z"/><path fill="#fff" d="M231.1 107.9l-.6-2.9h-.1c-1 1.3-2 2.1-3 2.6s-2.3.7-3.8.7c-2 0-3.6-.5-4.8-1.6-1.1-1-1.7-2.5-1.7-4.5 0-4.1 3.3-6.3 9.9-6.5l3.5-.1v-1.3c0-1.6-.3-2.8-1-3.5-.7-.8-1.8-1.1-3.3-1.1-1.7 0-3.6.5-5.8 1.6l-.9-2.4c1-.5 2.1-1 3.3-1.3 1.2-.3 2.4-.5 3.6-.5 2.4 0 4.2.5 5.4 1.6 1.2 1.1 1.8 2.8 1.8 5.2v13.9h-2.5zm-7-2.2c1.9 0 3.4-.5 4.5-1.6s1.6-2.5 1.6-4.4v-1.8l-3.1.1c-2.5.1-4.2.5-5.3 1.1-1.1.7-1.6 1.7-1.6 3.2 0 1.1.3 2 1 2.6.8.5 1.7.8 2.9.8z"/><path opacity=".15" d="M101.8 74.3h76.3v51.2h-76.3z"/><defs><path id="C" d="M98.1 70.6h76.3v51.2H98.1z"/></defs><clipPath id="D"><use xlink:href="#C" overflow="visible"/></clipPath><path clip-path="url(#D)" fill="#F69626" d="M98.1 70.6h76.3v51.2H98.1z"/><path fill="#fff" d="M135.5 108.3c-3 0-5.2-.9-6.9-2.7-1.6-1.8-2.4-4.4-2.4-7.7 0-3.4.8-6.1 2.5-7.9 1.6-1.9 4-2.8 7-2.8 1 0 2 .1 2.9.3 1 .2 1.8.5 2.3.7l-.9 2.6c-.7-.3-1.4-.5-2.2-.7-.8-.2-1.5-.3-2.1-.3-4.1 0-6.2 2.6-6.2 7.9 0 2.5.5 4.4 1.5 5.8 1 1.3 2.5 2 4.5 2 1.7 0 3.4-.4 5.2-1.1v2.7c-1.4.8-3.1 1.2-5.2 1.2z"/><path fill="#5592D7" d="M289.1 30.7L361.4 165l-72.3 134.3z"/><path opacity=".15" d="M381.8 76.2h76.3v51.2h-76.3z"/><defs><path id="E" d="M378.1 72.5h76.3v51.2h-76.3z"/></defs><clipPath id="F"><use xlink:href="#E" overflow="visible"/></clipPath><path clip-path="url(#F)" fill="#5592D7" d="M378.1 72.5h76.3v51.2h-76.3z"/><path fill="#fff" d="M420 109.8l-.6-2.9h-.1c-1 1.3-2 2.1-3 2.6s-2.3.7-3.8.7c-2 0-3.6-.5-4.8-1.6-1.1-1-1.7-2.5-1.7-4.5 0-4.1 3.3-6.3 9.9-6.5l3.5-.1v-1.3c0-1.6-.3-2.8-1-3.5-.7-.8-1.8-1.1-3.3-1.1-1.7 0-3.6.5-5.8 1.6l-.9-2.4c1-.5 2.1-1 3.3-1.3 1.2-.3 2.4-.5 3.6-.5 2.4 0 4.2.5 5.4 1.6 1.2 1.1 1.8 2.8 1.8 5.2v13.9H420zm-7-2.1c1.9 0 3.4-.5 4.5-1.6s1.6-2.5 1.6-4.4v-1.8l-3.1.1c-2.5.1-4.2.5-5.3 1.1-1.1.7-1.6 1.7-1.6 3.2 0 1.1.3 2 1 2.6.7.5 1.7.8 2.9.8z"/><path opacity=".15" d="M381.8 208.3h76.3v51.2h-76.3z"/><defs><path id="G" d="M378.1 204.6h76.3v51.2h-76.3z"/></defs><clipPath id="H"><use xlink:href="#G" overflow="visible"/></clipPath><path clip-path="url(#H)" fill="#F69626" d="M378.1 204.6h76.3v51.2h-76.3z"/><path fill="#fff" d="M415.6 242.3c-3 0-5.2-.9-6.9-2.7-1.6-1.8-2.4-4.4-2.4-7.7 0-3.4.8-6.1 2.5-7.9 1.6-1.9 4-2.8 7-2.8 1 0 2 .1 2.9.3 1 .2 1.8.5 2.3.7l-.9 2.6c-.7-.3-1.4-.5-2.2-.7-.8-.2-1.5-.3-2.1-.3-4.1 0-6.2 2.6-6.2 7.9 0 2.5.5 4.4 1.5 5.8 1 1.3 2.5 2 4.5 2 1.7 0 3.4-.4 5.2-1.1v2.7c-1.4.9-3.1 1.2-5.2 1.2z"/><path opacity=".15" d="M381.8 142.3h76.3v51.2h-76.3z"/><defs><path id="I" d="M378.1 138.6h76.3v51.2h-76.3z"/></defs><clipPath id="J"><use xlink:href="#I" overflow="visible"/></clipPath><path clip-path="url(#J)" fill="#96B548" d="M378.1 138.6h76.3v51.2h-76.3z"/><path fill="#fff" d="M416.9 155.1c2.7 0 4.8.9 6.2 2.7 1.5 1.8 2.2 4.4 2.2 7.8 0 3.4-.7 6-2.2 7.8-1.5 1.9-3.6 2.8-6.2 2.8-1.3 0-2.5-.2-3.6-.7-1.1-.5-2-1.2-2.8-2.3h-.2l-.7 2.6h-2.2v-29h3.1v7c0 1.6 0 3-.1 4.2h.1c1.5-1.8 3.6-2.9 6.4-2.9zm-.4 2.6c-2.1 0-3.6.6-4.6 1.8-.9 1.2-1.4 3.3-1.4 6.1 0 2.9.5 4.9 1.4 6.2 1 1.2 2.5 1.9 4.6 1.9 1.9 0 3.3-.7 4.2-2.1s1.4-3.4 1.4-6c0-2.7-.5-4.6-1.4-5.9s-2.3-2-4.2-2z"/></svg>