<svg xmlns="http://www.w3.org/2000/svg" xmlns:xlink="http://www.w3.org/1999/xlink" viewBox="0 0 490 340" enable-background="new 0 0 490 340"><g opacity=".5"><path fill="#424242" d="M262.5 189.9c-.7 4.2-1.8 8.1-3 10.7l-4.9 10.7h-82.5s-2.2-4.8-4.9-10.7c-1.2-2.6-2.4-6.5-3-10.7h98.3z"/><path fill="#9B9B9B" d="M205 236.4h16.5v32H205z"/><ellipse fill="#9B9B9B" cx="254.5" cy="202.3" rx="6.6" ry="12.4"/><ellipse fill="#9B9B9B" cx="172.1" cy="202.3" rx="6.6" ry="12.4"/><path fill="#9B9B9B" d="M213.3 147c-22.8 0-41.2 19.2-41.2 42.9v21.4c0 23.7 18.5 42.9 41.2 42.9s41.2-19.2 41.2-42.9v-21.4c0-23.7-18.4-42.9-41.2-42.9z"/><path fill="#424242" d="M262.5 189.9h-8s-8.7-21.8-21.9-21.8c-8.4 0-10 9.4-19.3 9.4s-10.9-9.4-19.3-9.4c-13.3 0-21.9 21.8-21.9 21.8h-8c-.9-5.4-1-11.4.6-16.2 6.6-21.2 25.9-36.5 48.7-36.5s42 15.4 48.7 36.5c1.4 4.8 1.3 10.8.4 16.2z"/><path fill="#fff" d="M204.5 266.6H222v38.1h-17.5z"/><path fill="#424242" d="M208.1 289.4l5.2 23 4.9-22.3-3.1-16.7 3.3-3.2-5.1-3.6-5.2 3.5 2.8 2.8z"/><path opacity=".15" d="M222.9 263.7l-4 12.7-5.5-8.6-5.8 8.8-4.1-12.7.6-.3 9.2 3 9.2-3z"/><path fill="#9B9B9B" d="M244.6 279.9c0-.1 0-.1 0 0-.4-.6-.8-1-1.1-1.5-.3-.4-.7-.9-1-1.3l-.2-.2c-3.7-4.5-8.2-8.1-13.1-10.6-2.4-1.2-4-1.9-6.7-2.6l-9.2 28.8-9.2-28.8c-2.6.7-4.5 1.4-6.9 2.6-14.8 7.5-25.2 25.1-25.2 45.5v.2c.2 13.6 18.5 24.5 41.2 24.5 22.6 0 41-11 41.2-24.5h.1c0-12.3-3.8-23.5-9.9-32.1z"/><path fill="#fff" d="M222.4 264.2l-3.7 11.2-5.5-8.8-5.5 8.8-3.6-11.2 1-2.7 8.1 4.8 8.2-4.8z"/></g><path opacity=".5" fill="#D65656" d="M298.4 155.8l-3.4-3.4-81.9 81.9-82-81.9-3.4 3.4 81.9 81.9-81.9 82 3.4 3.4 82-82 81.9 82 3.4-3.4-81.9-82z"/><path fill="#513432" d="M119.7 126.9c-14.8-7.8-13.4-19.6-11.1-26.4 2.3-7.2 5-14.6 5-22.7V56.3c0-29.1-22.9-52.7-51.1-52.7-28.1 0-51 23.6-51 52.7v21.4c0 8.1 2.7 15.5 5 22.7 2.2 6.8 3.6 18.7-11.1 26.4-2.4 1.3-3.7 3.9-2.3 6.2 5.6 9.2 22.3 29.9 59.4 29.9 37.1 0 53.8-20.7 59.4-29.9 1.5-2.3.2-4.9-2.2-6.1z"/><path fill="#5593D7" d="M103.7 178.1c0-27.3-18.4-49.4-41.2-49.4-22.7 0-41.2 22.1-41.2 49.4 0 13.6 18.4 24.7 41.2 24.7s41.2-11 41.2-24.7z"/><path fill="#F7944B" d="M78.5 132.6c-4.9-2.5-10.3-3.9-16-3.9s-11.1 1.4-16 3.9c-2.4 6.8 0 29.1 16 29.1 16-.1 18.4-22.3 16-29.1z"/><path opacity=".1" d="M103.7 178.1c0-27.3-18.4-49.4-41.2-49.4v74.1c22.8 0 41.2-11 41.2-24.7z"/><path fill="#F7C1A1" d="M78.5 132.6c-4.9-2.5-10.3-3.9-16-3.9-5.7 0-11.1 1.4-16 3.9 1.7 7.2 8.2 12.6 16 12.6 7.8 0 14.3-5.4 16-12.6zM54.3 102.7h16.5v31.9H54.3z"/><path fill="#F5B090" d="M70.8 129.7v-27h-8.2v42.5c7.8 0 14.2-5.4 16-12.6-2.5-1.3-5.1-2.2-7.8-2.9z"/><ellipse fill="#F7C1A1" cx="103.7" cy="68.6" rx="6.6" ry="12.4"/><path fill="#F7C1A1" d="M62.5 13.4c-22.7 0-41.2 19.2-41.2 42.8v21.4c0 23.6 18.4 42.8 41.2 42.8 22.7 0 41.2-19.2 41.2-42.8V56.3c0-23.7-18.4-42.9-41.2-42.9z"/><path fill="#F5B090" d="M62.5 13.4c18.2 0 32.9 19.2 32.9 42.8v21.4c0 23.6-14.7 42.8-32.9 42.8 22.7 0 41.2-19.2 41.2-42.8V56.3c0-23.7-18.4-42.9-41.2-42.9z"/><path fill="#513432" d="M62.5 3.6c-28.1 0-51 23.6-51 52.7v21.4c0 8.1 2.7 15.5 5 22.7 1 3.1 1.8 7.1 1.1 11.4h12c-3.3-9.1-2-39.3 16.9-48.2 18.9-8.9 32-30.1 32-30.1 11.9 5.4 25.2 22.6 25.2 22.6h9.9c0-28.9-22.9-52.5-51.1-52.5z"/><path opacity=".15" d="M346.3 137.2h-69.1v-79l13.1-13.1h56z"/><path fill="#EDEDED" d="M343.2 134.1h-69.1V55.2L287.3 42h55.9z"/><g fill="#5592D7"><path d="M284.8 58.9h47.6v2.3h-47.6zM284.8 68.9h47.6v2.3h-47.6zM284.8 78.9h47.6v2.3h-47.6zM284.8 88.8h47.6v2.3h-47.6zM284.8 98.8h47.6v2.3h-47.6zM284.8 108.8h47.6v2.3h-47.6zM284.8 118.8h47.6v2.3h-47.6z"/></g><path opacity=".03" d="M287.1 42l-13 13 13-13zM287.1 42v13h-13v.8h13.8V42zM287.1 42v13h-13v1.6h14.6V42zM287.1 42l-13 13 13-13zM287.1 42l-13 13 13-13zM287.1 42v13h-13v2.4h15.4V42zM287.7 42l-.6.6V55h-12.4l-.6.6v2.5h16.1V42zM287.2 42l-.1.1V55h-12.9l-.1.1v3.8H291V42z"/><path fill="#EDEDED" d="M287.1 42l-13 13h13z"/><path opacity=".15" d="M487.5 134.8l-69 4.4-5.1-78.8 12.3-14 55.9-3.6z"/><path fill="#EDEDED" d="M484.2 131.9l-68.9 4.5-5.1-78.8 12.3-14 55.8-3.6z"/><g fill="#5592D7"><path d="M421.16 60.53l47.5-3.062.15 2.295-47.5 3.064zM421.763 70.534l47.5-3.064.148 2.296-47.5 3.063zM422.466 80.53l47.5-3.064.148 2.295-47.5 3.065zM423.062 90.432l47.5-3.063.148 2.294-47.5 3.064zM423.664 100.435l47.5-3.064.148 2.296-47.5 3.064zM424.366 110.43l47.5-3.063.148 2.295-47.5 3.064zM424.962 120.333l47.5-3.063.148 2.295-47.5 3.063z"/></g><path opacity=".03" d="M422.3 43.6l-12.1 13.8 12.2-13.8zM422.4 43.6l.8 13-13 .8v.8l13.8-.9-.9-13.8zM422.4 43.6l.8 13-13 .8.1 1.6 14.5-1-.9-14.5zM422.3 43.6l-12.1 13.8 12.2-13.8zM422.3 43.6l-12.1 13.8 12.2-13.8zM422.4 43.6l.8 13-13 .8.1 2.3 15.3-.9-.9-15.4zM422.9 43.5l-.5.6.8 12.5-12.5.8-.5.6.2 2.5 16.1-1-1.1-16.1zM422.4 43.6v.1l.8 12.9-12.9.8-.1.1.2 3.8 16.9-1.1-1.1-16.9z"/><path fill="#EDEDED" d="M422.4 43.6l-12.2 13.8 13-.8z"/><path opacity=".15" d="M449 166.4l-138.1-4.9 2.5-72.1 20.7-19.3 118.1 4.2z"/><path fill="#EDEDED" d="M446 163.2l-138.1-4.8 2.8-79.1 13.5-12.6 125.1 4.4z"/><path fill="#8FB8E2" d="M320.038 75.82l119.728 4.21-2.59 73.656-119.73-4.21z"/><path fill="#96B548" d="M318.61 117.208l119.73 4.21-1.136 32.282-119.728-4.212z"/><defs><path id="a" d="M320.038 75.82l119.728 4.21-2.59 73.656-119.73-4.21z"/></defs><clipPath id="b"><use xlink:href="#a" overflow="visible"/></clipPath><g clip-path="url(#b)"><path fill="#5593D7" d="M389.3 152.4c.2-6.2-3.8-11.3-8.9-11.5-5.1-.2-9.4 4.7-9.7 10.9-.1 3.1 4 5.7 9.1 5.9 5.1.1 9.4-2.2 9.5-5.3zM370.8 151.6c.2-6.1 4.5-11 9.7-10.8s9.1 5.3 8.9 11.4l-18.6-.6z"/><g fill="#F7C1A1"><path d="M380.2 148.2c2.9.1 5.4-1.4 6.8-3.8-1.6-2.1-3.9-3.5-6.5-3.6-2.6-.1-5 1.1-6.7 3.1 1 2.5 3.5 4.2 6.4 4.3zM378.733 134.938l3.698.13-.252 7.196-3.698-.13z"/></g><g fill="#F69626"><path d="M386.2 113.9c1.3-1.4 3.1-2.2 5.2-2.1 3.7.1 6.7 3.3 6.5 7 0 .8-.2 1.5-.4 2.1-.7-1.7-2-3.1-3.7-3.7 0 0 3.5 5.3.7 11.8-2.8 6.6 1.1 9.4 1.1 9.4s-6.1 4.7-11.6-.8l-3.4-.1.8-22.6 4.8-1zM376.5 113.6c-1.2-1.5-3-2.4-5-2.5-3.7-.1-6.9 2.8-7 6.5 0 .8.1 1.5.3 2.2.8-1.6 2.2-2.9 4-3.5 0 0-3.9 5-1.6 11.7 2.3 6.8-1.7 9.3-1.7 9.3s5.8 5.2 11.6 0l3.4.1.8-22.6-4.8-1.2z"/></g><path fill="#F7C1A1" d="M381.3 114.9c-5.1-.2-9.4 4-9.6 9.3l-.2 4.8c-.2 5.3 3.8 9.8 8.9 10 5.1.2 9.4-4 9.6-9.3l.2-4.8c.2-5.4-3.7-9.8-8.9-10z"/><path fill="#ED5E51" d="M376.5 113.6c-.3-.4-.7-.8-1.1-1.1-.8.2-1.8.8-2.8 1.7-1.6 1.5-2.4 3.1-1.8 3.7.5.6 2.3-.1 3.8-1.6 1-.9 1.7-1.9 1.9-2.7zM386.2 113.9c.4-.4.8-.7 1.2-1 .8.2 1.7.9 2.7 1.9 1.5 1.6 2.2 3.3 1.6 3.8-.6.5-2.2-.3-3.7-1.8-1-1-1.6-2.1-1.8-2.9z"/><path fill="#F69626" d="M392.1 121.3c-1.3-4.8-5.5-8.4-10.6-8.6-5.1-.2-9.6 3.1-11.2 7.8-.4 1.1-.4 2.4-.3 3.6l1.8.1s7.7-.6 9.4-4.6c1.4 4.1 9.1 5.2 9.1 5.2l1.8.1c.2-1.2.3-2.5 0-3.6z"/><path fill="#513432" d="M352.3 135.4c-10.1-.4-18-8.8-17.6-18.9l.4-11.9c.4-10.1 8.8-18 18.9-17.6 10.1.4 18 8.8 17.6 18.9l-.4 11.9c-.3 10.1-8.8 18-18.9 17.6z"/><path fill="#5593D7" d="M366 148.5c.3-9.5-5.8-17.5-13.8-17.8-7.9-.3-14.6 7.2-15 16.7-.2 4.8 6.1 8.9 14.1 9.1 8 .4 14.5-3.2 14.7-8z"/><path fill="#F7944B" d="M357.8 132.3c-1.7-.9-3.6-1.5-5.5-1.5-2-.1-3.9.3-5.6 1.2-.9 2.4-.4 10.2 5.2 10.3 5.5.1 6.6-7.6 5.9-10z"/><g fill="#F7C1A1"><path d="M357.8 132.3c-1.7-.9-3.6-1.5-5.5-1.5-2-.1-3.9.3-5.6 1.2.5 2.5 2.7 4.5 5.4 4.6s5-1.8 5.7-4.3zM349.706 121.505l5.796.204-.393 11.192-5.798-.204z"/></g><path fill="#F7C1A1" d="M353.7 90.5c-7.9-.3-14.6 6.2-14.9 14.4l-.3 7.5c-.3 8.3 5.9 15.2 13.9 15.5 7.9.3 14.6-6.2 14.9-14.4l.3-7.5c.2-8.3-6-15.2-13.9-15.5z"/><path fill="#513432" d="M353.8 87c-9.8-.3-18.1 7.6-18.5 17.8l-.3 7.5c-.1 2.8.7 5.5 1.5 8 .3 1.1.5 2.5.2 4l4.2.1c-1-3.2-.2-13.7 6.5-16.6 6.7-2.9 11.5-10.1 11.5-10.1 4.1 2 8.5 8.2 8.5 8.2l3.5.1c.4-10.1-7.3-18.6-17.1-19z"/></g><path opacity=".03" d="M324.2 66.7l-.5 13.1-13-.5-.1.8 13.9.5.4-13.8zM324.2 66.7l-.5 13.1-13-.5-.1 1.5 14.6.6.5-14.6zM324.2 66.7l-.5 13.1-13-.5-.1 2.3 15.3.6.6-15.4zM324.8 66.7h-.6l-.5 13.1-13-.5v.6l-.1 2.5 16.1.6.6-16.2zM324.3 66.7h-.1l-.5 13.1-12.9-.5h-.1l-.2 3.9 16.9.5.6-16.8z"/><path fill="#EDEDED" d="M324.2 66.7l-13.5 12.6 13 .5z"/></svg>