<svg xmlns="http://www.w3.org/2000/svg" viewBox="0 0 103 81" enable-background="new 0 0 103 81"><g fill="#fff"><path d="M61.9 38.3V26.4H50.1c-4.9 0-9 4-9 9v11.9h11.8c5 0 9-4.1 9-9zM37.7 35.4c0-6.8 5.6-12.4 12.4-12.4h11.8V11.1c0-4.9-4-9-9-9H11.3c-4.9 0-9 4-9 9v43.5l16.2-7.3h19.1V35.4zM91.7 26.4H50.1c-4.9 0-9 4-9 9v27.2c0 4.9 4 9 9 9h34.4l16.2 7.3V35.4c-.1-5-4.1-9-9-9zM62.9 50.8c-.5.5-1.1.8-2 .8s-1.5-.2-2-.7-.7-1.2-.7-2.1c0-.9.2-1.6.7-2 .5-.5 1.1-.7 2-.7.9 0 1.6.2 2 .7.5.5.7 1.2.7 2s-.2 1.5-.7 2zm10.3 0c-.5.5-1.1.8-2 .8s-1.5-.2-2-.7-.7-1.2-.7-2.1c0-.9.2-1.6.7-2 .5-.5 1.1-.7 2-.7.9 0 1.6.2 2 .7.5.5.7 1.2.7 2s-.3 1.5-.7 2zm10.2 0c-.5.5-1.1.8-2 .8s-1.5-.2-2-.7c-.5-.5-.7-1.2-.7-2.1 0-.9.2-1.6.7-2 .5-.5 1.1-.7 2-.7.9 0 1.6.2 2 .7s.7 1.2.7 2-.2 1.5-.7 2z"/></g></svg>