<svg xmlns="http://www.w3.org/2000/svg" viewBox="0 0 165 49" enable-background="new 0 0 165 49"><g fill="#fff"><g><path d="M158.2 10.9v18L143 20.2c-4.5-2.6-4.2-4.2-4.2-7.9l15.7 9v-8.2l3.7-2.2z"/><path opacity=".6" d="M154.4 21.3l-15.7-9L154 3.5c4.6-2.6 5.8-1.5 9 .3l-15.7 9 7.2 4.1-.1 4.4z"/><path opacity=".25" d="M147.3 12.9l15.7-9v17.5c0 5.2-1.6 5.7-4.8 7.6V11l-7.2 4.1-3.7-2.2z"/></g><g><path d="M24.6 46.6c-.1-1-1.4-15.7-1.4-15.7-.2-1.7-.1-3.3-.1-3.3H23s-.3 1.6-.8 3.3c0 0-4.1 14.3-4.6 15.7h-3.2c-.4-1.1-4.6-15.7-4.6-15.7-.5-1.7-.8-3.3-.8-3.3h-.2s.1 1.6-.1 3.3c0 0-1.3 14.5-1.4 15.7H2l2.9-27.3h6.3l4.3 15.3c.5 1.7.7 3.1.7 3.1h.1s.3-1.4.8-3.1l4.5-15.3h6.3l3 27.3h-6.3z"/><path d="M41.1 47c-6.2 0-9.4-2.3-9.4-6.7 0-5.5 5.5-7.1 12-7.7v-1c0-2.2-1.5-2.9-3.8-2.9-2.1 0-4.2.7-5.6 1.3L33 26.5c1.5-.6 4.3-1.6 8.1-1.6 4.9 0 8.5 2 8.5 7.8v12.8c-1.9.9-4.8 1.5-8.5 1.5zm2.6-11.6c-3.8.4-6.2 1.2-6.2 4.6 0 2.5 1.4 3.6 3.9 3.6.9 0 1.7-.2 2.3-.4v-7.8z"/><path d="M54.9 22c-1.8 0-3.3-1.3-3.3-2.9 0-1.6 1.5-2.9 3.3-2.9 1.8 0 3.3 1.3 3.3 2.9 0 1.6-1.5 2.9-3.3 2.9zm-3.1 24.6V25.2H58v21.4h-6.2z"/><path d="M70.5 47c-6.5 0-10.6-3.8-10.6-10.9 0-6.9 3.9-11.1 9.5-11.1 1.3 0 2.4.2 3.2.4v-9.9h6.2v29.9c-2 1-4.6 1.6-8.3 1.6zm2.1-18.3c-.5-.2-1.1-.2-1.7-.2-3.4 0-4.7 2.9-4.7 7.3 0 4.6 1.4 7.3 4.5 7.3.8 0 1.5-.1 1.9-.3V28.7z"/><path d="M88.6 47c-3.4 0-5.6-.6-7.2-1.6l1.5-4.5c.9.6 2.5 1.3 4.4 1.3 2.3 0 3.7-1.3 3.7-3.3 0-1.7-1-2.8-3.8-4-4.3-1.9-5.5-4.9-5.5-7.5 0-4.6 3.4-8.4 8.7-8.4 3 0 5.1.7 6.4 1.6l-1.4 3.9c-1-.6-2.4-1.2-4.1-1.2-2.2 0-3.3 1.2-3.3 3.1 0 2 1.4 3 3.7 4 5.3 2.4 6.1 5.3 6.1 8 .1 5-3.7 8.6-9.2 8.6z"/><path d="M108.4 47c-6.2 0-9.4-2.3-9.4-6.7 0-5.5 5.5-7.1 12-7.7v-1c0-2.2-1.5-2.9-3.8-2.9-2.1 0-4.2.7-5.6 1.3l-1.4-3.5c1.5-.6 4.3-1.6 8.1-1.6 4.9 0 8.5 2 8.5 7.8v12.8c-1.8.9-4.7 1.5-8.4 1.5zm2.6-11.6c-3.8.4-6.2 1.2-6.2 4.6 0 2.5 1.4 3.6 3.9 3.6.9 0 1.7-.2 2.3-.4v-7.8z"/><path d="M126.4 29.2v17.4h-6.2V29.2h-2.4v-4h2.4V23c0-5.4 3.7-8.2 9.5-7.5v3.9c-2.1-.1-3.3.6-3.3 3.1v2.7h3.3v4h-3.3z"/><path d="M135.7 38.1c.4 3.1 2 4.7 5.2 4.7 2.5 0 4.4-.6 5.6-1.1l1.4 3.8c-1.7.8-4.1 1.5-7.7 1.5-6.6 0-10.4-4.3-10.4-11.1 0-6.7 3.5-11 9.7-11 6.2 0 9.4 4.2 9.1 11.4l-12.9 1.8zm3.6-9.6c-2.6 0-4.1 2.2-4 6.6l7.5-1.1c0-3.8-1.2-5.5-3.5-5.5z"/></g></g></svg>