<svg xmlns="http://www.w3.org/2000/svg" width="414" height="414" viewBox="0 0 414 414"><radialGradient id="a" cx="-3160.677" cy="3325.4" r="210.901" gradientTransform="matrix(.707 .707 -.707 .707 4789.69 70.579)" gradientUnits="userSpaceOnUse"><stop offset="0" stop-color="#fff" stop-opacity=".3"/><stop offset=".919" stop-color="#fff" stop-opacity=".943"/><stop offset="1" stop-color="#fff"/></radialGradient><path opacity=".2" fill="url(#a)" d="M350.8 30.1c-2.9 2.9-4.1 6.7-3.7 10.5l-50.7 10.5c-.6-1.9-1.6-3.7-3.1-5.3-5.1-5.1-13.2-5.1-18.3 0-.5.5-1 1.1-1.4 1.7L225 19.9c2.1-4.7 1.2-10.5-2.7-14.4-5.1-5.1-13.2-5.1-18.3 0-2.3 2.3-3.5 5.3-3.7 8.3l-68.4 2.4c-.4-2.7-1.5-5.3-3.6-7.4-5.1-5.1-13.2-5.1-18.3 0-5.1 5.1-5.1 13.2 0 18.3 1.7 1.7 3.7 2.7 5.8 3.3L102.4 112c-3.1.2-6.1 1.4-8.4 3.7-2.7 2.7-3.9 6.2-3.7 9.7L27 143.1c-.6-1.6-1.6-3.1-2.9-4.4-5.1-5.1-13.2-5.1-18.3 0-5.1 5.1-5.1 13.2 0 18.3 2.4 2.4 5.5 3.6 8.6 3.7l2.9 47.6c-2.6.4-5.1 1.6-7.1 3.6-5.1 5.1-5.1 13.2 0 18.3 5.1 5.1 13.2 5.1 18.3 0 .1-.1.2-.3.3-.4L61 253.9c-3 5-2.4 11.5 1.9 15.8 1.1 1.1 2.4 1.9 3.7 2.6L49.3 322c-4.2-1-8.8.1-12.1 3.4-5.1 5.1-5.1 13.2 0 18.3 5.1 5.1 13.2 5.1 18.3 0 2.1-2.1 3.2-4.7 3.6-7.3l72.8 3c.2 3 1.4 6.1 3.7 8.4 4.8 4.8 12.4 5 17.5.7l44.5 43c-4 5.1-3.7 12.4 1 17.1 5.1 5.1 13.2 5.1 18.3 0 3.9-3.9 4.8-9.8 2.6-14.6l67.6-40 1.2 1.5c5.1 5.1 13.2 5.1 18.3 0 4.9-4.9 5-12.8.3-17.9l84.7-95.7c5.1 3.6 12.1 3.2 16.7-1.3 5.1-5.1 5.1-13.2 0-18.3-2.9-2.9-6.9-4.1-10.8-3.6l-15-64.7c1.8-.6 3.5-1.6 4.9-3 5.1-5.1 5.1-13.2 0-18.3-2.8-2.8-6.4-4-10-3.7l-13.9-77.2c2-.6 4-1.6 5.6-3.2 5.1-5.1 5.1-13.2 0-18.3-5-5.3-13.2-5.3-18.3-.2zm-38.4 188.1c-2.6-1.8-5.7-2.5-8.7-2.2l-13.9-67.1c1.9-.6 3.8-1.6 5.3-3.1 2-2 3.2-4.5 3.6-7.1l66.6 3.7c.1 3.1 1.3 6.1 3.7 8.5l-56.6 67.3zm77.3 21.9L305 335.8c-1.6-1.2-3.5-2-5.4-2.3l6-91.8c3.2-.1 6.3-1.3 8.7-3.7 2.1-2.1 3.3-4.8 3.6-7.5l68.4 1.9c.2 2.7 1.3 5.5 3.4 7.7zM199.4 389.5l-44.5-43c2.7-3.4 3.4-7.7 2.2-11.7l62.3-25.7c.6 1.1 1.3 2.1 2.2 3.1 1.4 1.4 3.1 2.4 4.9 3l-17.1 71.3c-3.5-.4-7.1.6-10 3zM28.7 212.3l66.9-76.9c.9.6 1.8 1.1 2.7 1.5l-12.1 43.3c-4-.7-8.3.5-11.4 3.6-3.5 3.5-4.5 8.6-3.1 13.1l-41.3 18c-.4-1-1-1.9-1.7-2.6zM205 24.6c1.7 1.4 3.6 2.4 5.6 2.8L204.1 90c-3.3 0-6.7 1.2-9.2 3.8-2.9 2.9-4.1 6.8-3.6 10.6l-76 16.5c-.6-1.9-1.6-3.7-3.1-5.2l-.3-.3L205 24.6zm78.2 43.2l1.3 56c-2.8.3-5.4 1.5-7.6 3.6-.9.9-1.6 2-2.2 3.1l-58.3-23.9c.9-3 .7-6.3-.7-9.1l58.1-34.8c.4.5.7 1 1.2 1.5 2.3 2.2 5.2 3.4 8.2 3.6zm-44.3 225.3c-2-1.6-4.4-2.6-6.8-2.8l.3-58.2c2.9-.3 5.7-1.5 7.9-3.7 1.8-1.8 2.9-3.9 3.4-6.2l48.5 6.2c-.1 3 .9 6.1 3 8.6l-56.3 56.1zm-91.5 32.8l6.1-58.6c3.3 0 6.7-1.2 9.2-3.8.4-.4.7-.8 1-1.2l55.5 35c-1.5 3-1.7 6.3-.8 9.4l-62.3 25.7c-.6-1.1-1.3-2.1-2.2-3.1-1.8-1.7-4.1-2.9-6.5-3.4zm-64.6-72.4l74.8-60.3.1.1c1.6 1.6 3.5 2.6 5.5 3.2l-8.5 45.1c-3.7-.3-7.4.9-10.2 3.7-2.4 2.4-3.7 5.6-3.8 8.8l-56 4.3c-.3-1.7-.9-3.4-1.9-4.9zm5.9-72.6l12.1-43.3c3.7.6 7.7-.4 10.7-3l44.9 41.8c-1.8 2.3-2.7 5.1-2.7 7.9l-57.1 6.1c-.5-2.4-1.7-4.7-3.5-6.5-1.2-1.4-2.7-2.4-4.4-3zm140.9 109.3c-2.9.3-5.7 1.5-7.9 3.7-.4.4-.7.8-1 1.2l-55.5-35c1.5-3.1 1.8-6.6.7-9.9l54.2-24.6c.6 1 1.2 1.9 2 2.7 2.2 2.2 5 3.4 7.8 3.7l-.3 58.2zm-53.7-96.9c.6-.6 1.1-1.2 1.5-1.9l41.8 22.8c-1.2 2.9-1.3 6.2-.3 9.1l-54.2 24.6c-.6-1-1.2-1.9-2-2.7-1.6-1.6-3.5-2.6-5.5-3.2l8.5-45.1c3.6.4 7.4-.8 10.2-3.6zm46.1 16.8c-.6.6-1.1 1.2-1.5 1.9l-41.8-22.8c1.1-2.7 1.3-5.7.5-8.6l95.5-38.1c.6 1.1 1.3 2.2 2.3 3.2.3.3.7.5 1 .8l-40.7 61.4c-5-2.6-11.2-1.9-15.3 2.2zm51.7-70l-95.5 38.1c-.6-1.1-1.3-2.2-2.3-3.2-.8-.8-1.7-1.4-2.6-2l26.6-57.9c4.5 1.5 9.7.6 13.3-3 .9-.9 1.6-2 2.2-3.1l58.3 23.9c-.7 2.3-.7 4.8 0 7.2zM197.5 114l-26.6 57.9c-4.3-1.5-9.1-.6-12.7 2.5l-44.9-41.8c2.1-2.7 2.9-6 2.5-9.2l76-16.5c.6 1.9 1.6 3.7 3.1 5.2.8.7 1.7 1.4 2.6 1.9zm98.4 105.6c-1.8 1.8-2.9 3.9-3.4 6.2l-48.5-6.2c.1-3.4-1.1-6.9-3.8-9.5-.3-.3-.7-.5-1-.8l40.7-61.4c2.3 1.2 4.8 1.7 7.3 1.4l13.9 67.1c-1.8.7-3.6 1.7-5.2 3.2zM93.2 202.1c2.5-2.5 3.8-5.9 3.8-9.2l57.1-6.1c.3 1.6.9 3.1 1.8 4.4l-74.8 60.3-.1-.1c-1.6-1.6-3.6-2.7-5.6-3.2l7.6-42.5c3.7.3 7.4-.9 10.2-3.6zm-11.5 67c2.1-2.3 3.1-5.2 3.2-8.2l56-4.3c.4 2.5 1.6 4.9 3.6 6.9 1.9 1.9 4.1 3 6.5 3.5l-6.1 58.6c-2.8 0-5.5.9-7.9 2.7l-55.3-59.2zm159.1 25.8l56.2-56.1c1.8 1.4 3.8 2.4 5.9 2.7l-6 91.8c-3.2.1-6.3 1.3-8.7 3.7-.3.3-.6.7-.9 1.1l-45.1-29.2c2.3-4.4 1.9-9.9-1.4-14zm124.7-155.2l-66.6-3.7c-.1-3.1-1.4-6.2-3.7-8.6-2.3-2.3-5.2-3.5-8.1-3.7l-1.3-56c2.5-.3 4.9-1.4 7-3.1l75.2 69.3c-1.3 1.7-2.2 3.7-2.5 5.8zm-93.1-90c-1.5 3.4-1.4 7.3.1 10.7l-58.1 34.8c-.4-.5-.7-1-1.2-1.5-1.9-1.9-4.1-3-6.5-3.5l6.5-62.6c3.3 0 6.7-1.2 9.2-3.8.5-.5 1-1.1 1.4-1.7l48.6 27.6zM128.3 27.1c2.3-2.3 3.5-5.3 3.7-8.3l68.4-2.4c.3 2.3 1.2 4.4 2.7 6.3l-93.3 91.1c-1.5-.9-3.2-1.5-4.9-1.8l13.4-81.2c3.6.3 7.3-.9 10-3.7zM90.6 128c.5 2.1 1.5 4 3.1 5.7l-66.9 76.9c-2.1-1.5-4.5-2.3-6.9-2.4L17 160.6c2.6-.4 5.1-1.6 7.1-3.6 3.1-3.1 4.3-7.4 3.6-11.4L90.6 128zm-60.3 99.8c1.9-3.2 2.3-7.1 1.2-10.6l41.3-18c.6 1 1.2 2 2.1 2.8 1.6 1.6 3.6 2.7 5.6 3.2l-7.6 42.5c-3.6-.3-7.3.9-10.1 3.7-.1.1-.2.3-.3.4l-32.2-24zM69 273.2c3.7.9 7.6.1 10.8-2.3l55.3 59.2c-1.7 1.9-2.7 4.3-3.1 6.7l-72.8-3c-.2-3-1.4-6.1-3.7-8.4-1.1-1.1-2.4-1.9-3.7-2.6L69 273.2zm149.1 118.5l-1.2-1.5c-1.4-1.4-3.1-2.4-4.9-3l17.1-71.3c3.9.5 7.9-.7 10.9-3.6.3-.3.6-.7.9-1.1l45.1 29.2c-1.8 3.5-1.9 7.7-.2 11.3l-67.7 40zM395 219.1c-1.8.6-3.5 1.6-5 3.1-2.1 2.1-3.3 4.8-3.6 7.5l-68.4-1.9c-.2-2.9-1.4-5.7-3.5-8l56.7-67.4c2.7 1.8 5.9 2.4 8.9 2l14.9 64.7zm-20.2-89.8c-1.8.5-3.6 1.4-5.1 2.7l-75.2-69.3c2-2.7 2.8-5.9 2.5-9.1l50.7-10.5c.6 1.9 1.6 3.7 3.1 5.3 2.8 2.8 6.5 4 10.1 3.7l13.9 77.2z"/><path fill="#513432" d="M207.5 219.8c-15.9-8.4-14.3-21.1-12-28.4 2.5-7.8 5.4-15.7 5.4-24.4v-23c0-31.2-24.6-56.6-54.8-56.6-30.2 0-54.8 25.4-54.8 56.6v23c0 8.7 2.9 16.7 5.4 24.4 2.4 7.3 3.9 20-12 28.4-2.6 1.4-3.9 4.2-2.4 6.7 6 9.9 24 32.2 63.8 32.2s57.8-22.2 63.8-32.2c1.6-2.5.2-5.4-2.4-6.7z"/><path fill="#5593D7" d="M190.3 274.8c0-29.3-19.8-53.1-44.2-53.1-24.4 0-44.2 23.8-44.2 53.1 0 14.6 19.8 26.5 44.2 26.5s44.2-11.8 44.2-26.5z"/><path fill="#F7944B" d="M163.3 225.9c-5.3-2.7-11.1-4.2-17.2-4.2s-11.9 1.5-17.2 4.2c-2.6 7.3 0 31.2 17.2 31.2s19.8-23.8 17.2-31.2z"/><path opacity=".1" d="M190.3 274.8c0-29.3-19.8-53.1-44.2-53.1v79.6c24.4 0 44.2-11.8 44.2-26.5z"/><path fill="#F7C1A1" d="M163.3 225.9c-5.3-2.7-11.1-4.2-17.2-4.2s-11.9 1.5-17.2 4.2c1.9 7.8 8.8 13.5 17.2 13.5 8.3.1 15.3-5.7 17.2-13.5zM137.3 193.8H155v34.3h-17.7z"/><path fill="#F5B090" d="M155 222.8v-29h-8.8v45.7c8.3 0 15.3-5.8 17.2-13.5-2.8-1.4-5.6-2.5-8.4-3.2z"/><ellipse fill="#F7C1A1" cx="190.3" cy="157.2" rx="7.1" ry="13.3"/><path fill="#F7C1A1" d="M146.1 98c-24.4 0-44.2 20.6-44.2 46v23c0 25.4 19.8 46 44.2 46 24.4 0 44.2-20.6 44.2-46v-23c0-25.4-19.8-46-44.2-46z"/><path fill="#F5B090" d="M146.1 98c19.5 0 35.4 20.6 35.4 46v23c0 25.4-15.8 46-35.4 46 24.4 0 44.2-20.6 44.2-46v-23c0-25.4-19.8-46-44.2-46z"/><path fill="#513432" d="M146.1 87.4c-30.2 0-54.8 25.4-54.8 56.6v23c0 8.7 2.9 16.7 5.4 24.4 1.1 3.3 2 7.7 1.2 12.3h12.9c-3.5-9.7-2.1-42.2 18.2-51.7 20.3-9.6 34.3-32.3 34.3-32.3 12.8 5.7 27 24.3 27 24.3h10.6c0-31.2-24.6-56.6-54.8-56.6z"/><path fill="#F7944B" d="M287.4 205.2c0 29-35.8 45.8-75.3 45.8v-15.1l-40.2 25.9 40.2 25.9v-14.5c47.6.1 75.3-24.1 75.3-68z"/><path fill="#FFB583" d="M255.1 159.6h72.8v35.9h-72.8z"/><path fill="#F7944B" d="M299.4 155.6h-48.7v44.1h81.7v-43.9h-33zm18.3 4c.5 5.4 4.8 9.7 10.2 10.2v15.5c-5.4.5-9.7 4.8-10.2 10.2h-52.4c-.5-5.4-4.8-9.7-10.2-10.2v-15.5c5.4-.5 9.7-4.8 10.2-10.2h52.4z"/><circle fill="#F7944B" cx="291.5" cy="177.6" r="12.2"/><circle fill="#FFB583" cx="291.5" cy="177.6" r="8"/><path fill="#FFB583" d="M244.1 149.6h72.8v35.9h-72.8z"/><path fill="#F7944B" d="M288.4 145.6h-48.7v44.1h81.7v-43.9h-33zm18.3 4c.5 5.4 4.8 9.7 10.2 10.2v15.5c-5.4.5-9.7 4.8-10.2 10.2h-52.4c-.5-5.4-4.8-9.7-10.2-10.2v-15.5c5.4-.5 9.7-4.8 10.2-10.2h52.4z"/><circle fill="#F7944B" cx="280.5" cy="167.6" r="12.2"/><circle fill="#FFB583" cx="280.5" cy="167.6" r="8"/><path fill="#FFE999" d="M233.6 200.6h25v5h-25zM236.1 194.6h25v5h-25zM236.1 188.6h25v5h-25zM233.6 182.6h25v5h-25zM232.4 176.6h25v5h-25zM233.6 170.6h25v5h-25zM233.6 164.6h25v5h-25zM218.5 205.6c-6.9 0-12.5-5.6-12.5-12.5s5.6-12.5 12.5-12.5 12.5 5.6 12.5 12.5-5.6 12.5-12.5 12.5z"/><path opacity=".8" fill="#F9CB64" d="M218.5 201.8c-4.8 0-8.8-3.9-8.8-8.8 0-4.8 3.9-8.8 8.8-8.8 4.8 0 8.8 3.9 8.8 8.8-.1 4.9-4 8.8-8.8 8.8z"/></svg>