<svg xmlns="http://www.w3.org/2000/svg" xmlns:xlink="http://www.w3.org/1999/xlink" viewBox="0 0 484.7 399.7" enable-background="new 0 0 484.7 399.7"><radialGradient id="a" cx="604.249" cy="9114.771" r="101.451" gradientTransform="matrix(0 -1 1 0 -8727.134 799.942)" gradientUnits="userSpaceOnUse"><stop offset="0" stop-color="#A6A8AB"/><stop offset=".245" stop-color="#A9ABAE"/><stop offset=".448" stop-color="#B4B5B8"/><stop offset=".636" stop-color="#C5C6C8"/><stop offset=".815" stop-color="#DDDEDF"/><stop offset=".986" stop-color="#FCFCFC"/><stop offset="1" stop-color="#fff"/></radialGradient><path fill="url(#a)" d="M384.4 92.1c0 2 .9 3.7 2.3 4.8L373 117.7c-.9-.4-1.8-.7-2.9-.7-3.4 0-6.2 2.8-6.2 6.2 0 .4 0 .7.1 1l-25.9 7.2c-.9-2.3-3.1-4-5.8-4-3.4 0-6.2 2.8-6.2 6.2 0 1.6.6 3 1.6 4.1l-22.5 24.1c-1-.8-2.3-1.3-3.8-1.3-3.4 0-6.2 2.8-6.2 6.2 0 3.4 2.8 6.2 6.2 6.2 1.1 0 2.2-.3 3.1-.8l23.2 32.3c-1 1.1-1.6 2.5-1.6 4.1 0 1.8.8 3.4 2 4.6l-15.5 27.6c-.8-.3-1.6-.5-2.5-.5-3.4 0-6.2 2.8-6.2 6.2 0 3.4 2.8 6.2 6.2 6.2 1.6 0 3.1-.6 4.2-1.7l17.1 15.2c-.7 1-1.2 2.3-1.2 3.6 0 3.4 2.8 6.2 6.2 6.2s6.2-2.8 6.2-6.2v-.3l19.1-2.7c.7 2.7 3.1 4.7 6 4.7.8 0 1.5-.2 2.1-.4l11 22.8c-1.8 1.1-3 3-3 5.3 0 3.4 2.8 6.2 6.2 6.2s6.2-2.8 6.2-6.2c0-1.4-.5-2.7-1.3-3.7l25.8-23.8c1.1 1 2.5 1.6 4.1 1.6 3.3 0 5.9-2.5 6.2-5.7l29.8-.5c.4 3.1 3 5.5 6.2 5.5 3.4 0 6.2-2.8 6.2-6.2 0-2.7-1.7-4.9-4.1-5.8l9.4-36.6c.3 0 .6.1.9.1 3.4 0 6.2-2.8 6.2-6.2 0-3.4-2.7-6.1-6-6.2l-3.7-61.4c3-.5 5.2-3 5.2-6.1 0-3.4-2.8-6.2-6.2-6.2-2 0-3.8 1-4.9 2.4l-27.1-16.9c.4-.8.6-1.7.6-2.7 0-3.4-2.8-6.2-6.2-6.2-1.9 0-3.5.8-4.7 2.2l-31-21.6c.5-.9.8-1.9.8-3 0-3.4-2.8-6.2-6.2-6.2-3 0-5.8 2.8-5.8 6.2zm50.9 77.1c-1.5.3-2.8 1.1-3.7 2.2l-27.5-18.1c.5-.9.7-1.8.7-2.9 0-1.4-.5-2.6-1.2-3.7l23.9-21.4c1.1 1 2.5 1.6 4.1 1.6l3.7 42.3zm33.7-18.8l3.7 61.4c-1 .2-1.9.5-2.6 1.1L441 179.5c1-1.1 1.7-2.6 1.7-4.2 0-1.4-.5-2.7-1.3-3.8l23.9-22.6c1 .8 2.3 1.4 3.7 1.5zm-13.8 115.5l-29.8.5c-.2-2.1-1.5-3.8-3.2-4.7l12.4-29.9c.6.2 1.2.3 1.8.3 1 0 1.9-.2 2.7-.6l18.4 30.1c-1.3.9-2.2 2.5-2.3 4.3zm-118.4-2.2l-3.4-48.9c.5-.1 1-.2 1.4-.4l10.6 18.8c-1.6 1.1-2.6 3-2.6 5.1 0 2.4 1.4 4.5 3.4 5.5l-7.9 20.1c-.5-.1-1-.2-1.5-.2zm-3.9-123.8c1.1-.1 2-.4 2.9-1l19.1 23.5c-1.1 1.1-1.8 2.7-1.8 4.4 0 2 .9 3.7 2.4 4.8l-20.2 31.5c-.8-.4-1.8-.7-2.8-.7h-.2l.6-62.5zm41.3-11.9l19.5 18.6c-.8 1.1-1.3 2.4-1.3 3.8 0 .6.1 1.2.3 1.8l-28 11.7c-.7-1.3-1.9-2.4-3.3-2.9l7.9-31.6c.3 0 .6.1.9.1 1.6 0 2.9-.6 4-1.5zm61.6 91.7c-1.2.1-2.4.6-3.3 1.3l-19.7-19.9c.9-1.1 1.4-2.4 1.4-3.9 0-1.2-.4-2.3-1-3.3l18.6-14.4c1 1.1 2.4 1.8 3.9 1.9l.1 38.3zm-20 42.2l-17.8-22c1.1-1.1 1.8-2.7 1.8-4.4 0-.3 0-.5-.1-.8l30.8-7c.5 1.5 1.6 2.7 2.9 3.5l-12.4 30c-.6-.2-1.2-.3-1.8-.3-1.2 0-2.4.4-3.4 1zm-46.6-2.6l4.9-45.9c1.1 0 2.1-.3 3-.8l12.5 18.2c-1.4 1.1-2.2 2.8-2.2 4.7 0 1.7.7 3.2 1.7 4.3l-17.6 20.5c-.7-.5-1.4-.8-2.3-1zm-22.6-26.7L336 213.8c1.5-1.1 2.5-2.7 2.6-4.7l29.5-1.1c.2 1.4.8 2.6 1.8 3.6l-17.4 21.5c-1-.6-2.1-1-3.4-1-.9-.1-1.8.1-2.5.5zm85.1-10.7c-.9 1.1-1.4 2.4-1.4 3.9 0 .3 0 .5.1.8l-30.8 7c-.5-1.6-1.7-2.9-3.1-3.6l10.1-26.8c.5.1 1 .2 1.6.2 1.5 0 2.8-.5 3.9-1.4l19.6 19.9zm-51.3-14.8c0-.4 0-.8-.1-1.1l22-6.5c.6 1.4 1.7 2.5 3 3.2l-10.1 26.8c-.5-.1-1-.2-1.6-.2-1.1 0-2.1.3-3 .8l-12.5-18.2c1.4-1.2 2.3-2.8 2.3-4.8zm21.4-9.9c0 .4 0 .8.1 1.1l-22 6.5c-.5-1.3-1.5-2.4-2.8-3.1l19.5-45.4c.6.2 1.2.3 1.9.3.2 0 .4 0 .6-.1l7 34.7c-2.4.9-4.3 3.2-4.3 6zm-6.2-41.4l-19.5 45.4c-.6-.2-1.2-.3-1.9-.3-.5 0-1.1.1-1.6.2L362 172.4c2.1-1 3.5-3.1 3.5-5.6 0-.6-.1-1.2-.3-1.8l28-11.7c.5 1.1 1.4 1.9 2.4 2.5zm-34.8 17l10.7 28.8c-1.9 1-3.3 2.9-3.5 5.2l-29.5 1.1c-.2-1.6-1.1-3-2.3-4l20.2-31.5c.8.4 1.8.7 2.8.7.6-.1 1.1-.2 1.6-.3zm69.4 2.5c0 1.2.4 2.3 1 3.3L412.6 193c-1.1-1.2-2.7-2-4.5-2-.2 0-.4 0-.6.1l-7-34.7c1.2-.4 2.2-1.1 3-2l27.5 18.1c-.5.8-.8 1.7-.8 2.8zm-74.9 63c0-1.7-.7-3.3-1.8-4.4l17.4-21.5c.6.4 1.4.7 2.1.9l-4.9 45.9c-1.1 0-2.1.3-3 .8l-11.9-17c1.2-1.2 2.1-2.8 2.1-4.7zm18.9 26.7c-.1-1.5-.7-2.8-1.7-3.9l17.6-20.5c1 .7 2.2 1.1 3.6 1.1 1.3 0 2.4-.4 3.4-1l17.8 22c-.9.9-1.6 2.2-1.8 3.6l-38.9-1.3zm62.9-45.3v-38.2c1.1-.1 2.1-.5 2.9-1.1l29.2 33.3c-1 1.1-1.7 2.6-1.7 4.2 0 .2 0 .5.1.7l-25.3 5.4c-.7-2.4-2.7-4.1-5.2-4.3zm-10.4-95.3l-23.9 21.4c-1.1-1-2.6-1.6-4.2-1.6-1.5 0-2.9.6-4 1.5l-19.5-18.6c.8-1 1.2-2.1 1.3-3.4l49.2-2c.1 1 .5 1.9 1.1 2.7zm-62.3 1.1c.6 1.7 2 3 3.7 3.6l-7.9 31.6c-.3 0-.6-.1-.9-.1-1.3 0-2.4.4-3.4 1l-19.1-23.5c1.1-1.1 1.8-2.7 1.8-4.4 0-.4 0-.7-.1-1l25.9-7.2zm-56.7 41.3c0-1.6-.6-3-1.6-4.1l22.5-24.1c.9.7 1.9 1.1 3.1 1.2l-.7 62.7c-.8.2-1.6.6-2.3 1.1l-23.1-32.2c1.3-1.1 2.1-2.7 2.1-4.6zm21.5 47.2c.9.5 1.9.8 3 .9l3.4 48.9c-1.2.2-2.3.8-3.2 1.6l-17.1-15.2c.7-1 1.2-2.3 1.2-3.6 0-2.1-1.1-4-2.7-5.1l15.4-27.5zm13.4 54.4c-.4-1.8-1.6-3.2-3.2-4l7.9-20.1c.5.2 1.1.3 1.7.3 1.1 0 2.1-.3 3-.8l11.9 17c-1.3 1.1-2.2 2.8-2.2 4.7v.3l-19.1 2.6zm28.6 2.3c1.5-1 2.6-2.6 2.9-4.5l39 1.3c.1 1.2.5 2.4 1.2 3.3l-25.8 23.8c-1.1-1-2.5-1.6-4.1-1.6-.8 0-1.5.2-2.1.4l-11.1-22.7zm91.1-10.4c-.3 0-.6-.1-.9-.1-1 0-1.9.2-2.7.6l-18.4-30.1c1.5-1.1 2.5-2.9 2.5-4.9 0-.2 0-.5-.1-.7l25.3-5.4c.6 1.8 2 3.3 3.8 3.9l-9.5 36.7zm1.4-118.9c-.4.8-.7 1.8-.7 2.7 0 1.4.5 2.7 1.3 3.8l-23.9 22.6c-1.1-.9-2.4-1.5-3.9-1.5l-3.7-42.2c1.5-.3 2.8-1.2 3.7-2.3l27.2 16.9zm-37.4-23.7c-.5.8-.7 1.7-.8 2.7l-49.2 2c-.2-1.6-1-3-2.2-3.9l13.7-20.8c.9.4 1.8.7 2.9.7 1.9 0 3.6-.9 4.7-2.2l30.9 21.5z"/><g><defs><circle id="b" cx="55" cy="195.8" r="48.5"/></defs><clipPath id="c"><use xlink:href="#b" overflow="visible"/></clipPath><path fill="#F6921E" d="M79.1 219.4c-.5-10.6-1.8-34.2-2.7-37.9-1.2-4.7-4.2-11.8-8.3-15.3-4.1-3.5-11.1-3.6-13.4-3.4-3.6.3-6.8 2.9-6.8 2.9s-3.7-1.8-6.9 1.9c-3.1 3.7-7.8 13.3-8.3 34.7-.1 6.6-.3 11.7-.5 15.7-3.4 1.7-6.5 4-7.6 7.6-1.7 5.7-.8 17.6-.3 20.4h60.2c.5-2.8 1.4-14.7-.3-20.4-.7-2.6-2.7-4.6-5.1-6.2zm-10.2-31.1c.7.6 1.3 1.6.7 3.1-.4 1.1-.7 2.1-.9 2.9-.2.6-.3 1.2-.4 1.4v.1c-.1.3-.3.7-.6 1.1.7-3 1.1-6.3 1.2-8.6zM42 185.9c0-.7.1-1.3.3-1.8l.3-1c.9-1.9 2.2-6.3 2.7-8.1 1.2 1.5 4.5 4.8 11.1 7.7 6.6 2.9 9.8 4.4 11.5 5.4-.1 3.9-1.1 11.1-3.9 14.5-4 4.9-6.3 7.2-8.8 7.9-.4.1-.9.1-1.4 0-2.3-.6-3.8-2.5-7.1-6.5l-1-1.3c-3.9-4.8-3.7-15.6-3.7-16.8zm-.9 2.4c.1 2.1.3 5 .9 7.9-.1-.1-.1-.3-.2-.4v-.1c-.1-.3-.3-.8-.4-1.4-.2-.8-.5-1.8-.9-2.9-.6-1.5 0-2.5.6-3.1zm13.6 35.1c-8.6 0-17.3-5.1-17.3-6.3.8-.3 1.5-.5 2.3-.8 1.3-.4 2.5-.8 3.5-1.2 3.5-1.5 4.5-5.8 4.8-8.3 2.2 2.6 3.6 4 5.7 4.5.3.1.6.1 1 .1.3 0 .6 0 .9-.1 1.9-.5 3.5-1.8 5.7-4.1.3 2.6 1.3 6.6 4.7 8 1 .4 2.2.8 3.5 1.2.7.2 1.5.5 2.3.8-.1 1.1-8.6 6.2-17.1 6.2z" clip-path="url(#c)"/><use xlink:href="#b" overflow="visible" stroke="#F6921E" stroke-width="3.505" stroke-miterlimit="10" fill="none"/></g><path fill="#808184" d="M102.1 240.9H7.9l4.2-8.4-4.2-8.4h94.2l-4.2 8.4z"/><text transform="translate(35.914 236.858)" fill="#fff" font-family="'OpenSans-Bold'" font-size="12.061">USERS</text><text transform="translate(169.407 169.17)" fill="#5892CD" font-family="'OpenSans'" font-size="16.064">safecoin</text><text transform="translate(186.408 18.502)" fill="#5892CD" font-family="'OpenSans'" font-size="16.064">safecoin</text><text transform="translate(186.8 206.871)" fill="#6D6E70" font-family="'OpenSans'" font-size="16.064">services</text><text transform="translate(186.408 390.595)" fill="#5892CD" font-family="'OpenSans'" font-size="16.064">safecoin</text><text transform="translate(200.518 336.29)" fill="#6D6E70" font-family="'OpenSans'" font-size="16.064">cash</text><text transform="translate(196.565 68.877)"><tspan x="0" y="0" fill="#6D6E70" font-family="'OpenSans'" font-size="16.064">spare</tspan><tspan x="-58.1" y="19.3" fill="#6D6E70" font-family="'OpenSans'" font-size="16.064">computing resources</tspan></text><g><path stroke="#5892CD" stroke-width="5.841" stroke-miterlimit="10" fill="none" d="M115 177.6h158.5"/><path fill="#5892CD" d="M294.1 177.6L265 189.4l6.9-11.8-6.9-11.9z"/></g><g><path stroke="#B3B2B3" stroke-width="5.841" stroke-miterlimit="10" fill="none" d="M310.1 214.8H151.7"/><path fill="#B3B2B3" d="M131.1 214.8l29.1-11.9-6.9 11.9 6.9 11.8z"/></g><g><circle fill="#A6A8AB" cx="395.8" cy="195.8" r="58"/><path id="d" d="M445.4 195.8c0 27.4-22.2 49.6-49.6 49.6-27.4 0-49.6-22.2-49.6-49.6s22.2-49.6 49.6-49.6c27.4 0 49.6 22.2 49.6 49.6z" fill="none"/><text><textPath xlink:href="#d" startOffset="567.253%"><tspan fill="#231F20" font-family="'OpenSans-Light'" font-size="12.436" letter-spacing="25">SAFECOINS ARE GENERATED BY NETWORK TRAFFIC</tspan></textPath></text><circle fill="#D0D2D3" cx="395.8" cy="195.8" r="40.4"/><g fill="#5892CD"><path d="M386.8 186.8c0 .9-.3 1.6-1 2.1-.6.5-1.5.8-2.7.8-1.1 0-2-.2-2.8-.6v-2c.7.3 1.2.5 1.7.6.5.1.9.2 1.3.2.5 0 .8-.1 1.1-.3.2-.2.4-.4.4-.8 0-.2-.1-.4-.2-.5-.1-.2-.3-.3-.5-.4-.2-.1-.6-.4-1.3-.7-.6-.3-1.1-.6-1.4-.8-.3-.3-.5-.6-.7-.9-.2-.3-.3-.8-.3-1.2 0-.9.3-1.6.9-2.1.6-.5 1.4-.8 2.5-.8.5 0 1 .1 1.5.2s1 .3 1.5.5l-.7 1.6c-.5-.2-1-.4-1.3-.5-.3-.1-.7-.1-1-.1-.4 0-.7.1-.9.3-.2.2-.3.4-.3.7 0 .2 0 .3.1.5.1.1.2.3.4.4.2.1.6.4 1.3.7.9.4 1.6.9 1.9 1.3.3.6.5 1.2.5 1.8z"/><path d="M394.7 189.6l-.7-2.4h-3.6l-.7 2.4h-2.3l3.5-10h2.6l3.5 10h-2.3zm-1.2-4.1c-.7-2.1-1-3.4-1.1-3.6-.1-.3-.1-.5-.2-.7-.1.6-.6 2-1.3 4.3h2.6z"/><path d="M400.3 189.6h-2.1v-9.9h5.7v1.7h-3.6v2.6h3.4v1.7h-3.4v3.9z"/><path d="M411.6 189.6h-5.7v-9.9h5.7v1.7H408v2.2h3.4v1.7H408v2.6h3.6v1.7z"/><path d="M371 203.3h-2.7l-4.3-7.5h-.1c.1 1.3.1 2.3.1 2.8v4.7h-1.9v-9.9h2.7l4.3 7.4c-.1-1.3-.1-2.2-.1-2.7v-4.7h1.9v9.9z"/><path d="M379.2 203.3h-5.7v-9.9h5.7v1.7h-3.6v2.2h3.4v1.7h-3.4v2.6h3.6v1.7z"/><path d="M385.2 203.3h-2.1v-8.2h-2.7v-1.8h7.5v1.8h-2.7v8.2z"/><path d="M399.1 203.3h-2.4l-1.3-5.2c0-.2-.1-.6-.3-1.2s-.2-1-.2-1.2c0 .2-.1.6-.2 1.2-.1.5-.2.9-.3 1.2l-1.3 5.2h-2.4l-2.5-9.9h2.1l1.3 5.4c.2 1 .4 1.9.5 2.6 0-.3.1-.7.2-1.2s.2-1 .3-1.3l1.4-5.6h2l1.4 5.6c.1.2.1.6.2 1.1.1.5.2 1 .2 1.3 0-.4.1-.8.2-1.3s.2-1 .3-1.3l1.3-5.4h2.1l-2.6 10z"/><path d="M411.9 198.3c0 1.6-.4 2.9-1.2 3.8-.8.9-2 1.3-3.5 1.3s-2.7-.4-3.5-1.3c-.8-.9-1.2-2.2-1.2-3.8 0-1.7.4-2.9 1.2-3.8.8-.9 2-1.3 3.5-1.3s2.7.4 3.5 1.3c.8.9 1.2 2.2 1.2 3.8zm-7.3 0c0 1.1.2 1.9.6 2.5.4.6 1.1.8 1.9.8 1.7 0 2.5-1.1 2.5-3.4 0-2.2-.8-3.4-2.5-3.4-.8 0-1.5.3-1.9.8-.4.8-.6 1.6-.6 2.7z"/><path d="M416.1 199.5v3.8H414v-9.9h2.9c1.4 0 2.4.2 3 .7.6.5 1 1.2 1 2.2 0 .6-.2 1.1-.5 1.6s-.8.8-1.4 1.1c1.5 2.2 2.5 3.7 2.9 4.3h-2.3l-2.4-3.8h-1.1zm0-1.7h.7c.7 0 1.2-.1 1.5-.3s.5-.6.5-1c0-.5-.2-.8-.5-1-.3-.2-.8-.3-1.5-.3h-.6v2.6z"/><path d="M431.1 203.3h-2.4l-2.6-4.2-.9.6v3.6h-2.1v-9.9h2.1v4.6l.8-1.2 2.7-3.4h2.3l-3.5 4.4 3.6 5.5z"/></g></g><path stroke="#5892CD" stroke-width="5.015" stroke-miterlimit="10" d="M366.4 300.6c-23.3 41.7-77.6 64.9-142.7 67.3-81.8 3-152.4-33.2-168-89.6" fill="none"/><path fill="#5892CD" d="M52.8 260.8l14.5 22.7-11.1-3.9-8.9 7.6z"/><path stroke="#B3B2B3" stroke-width="5.015" stroke-miterlimit="10" d="M334.2 304.8c-23.4 25.7-64.2 37.6-111.9 39.3-77.1 2.8-142.7-30.9-146.5-87.8" fill="none"/><path fill="#B3B2B3" d="M344.6 290.5l-23.1 13.9 11.7 1.4 4.7 10.8z"/><path stroke="#5892CD" stroke-width="5.015" stroke-miterlimit="10" d="M366.4 92.1c-23.3-41.7-77.6-63.9-142.7-66.3-81.8-3-152.4 32.3-168 88.6" fill="none"/><path fill="#5892CD" d="M52.8 131.8l-5.5-26.3 9 7.6 11-3.9z"/><path stroke="#B3B2B3" stroke-width="5.015" stroke-miterlimit="10" d="M334.2 87.8C310.9 62.1 270 50.3 222.3 48.5c-77.1-2.8-142.7 30.9-146.5 87.8" fill="none"/><path fill="#B3B2B3" d="M344.6 102.2l-6.7-26.1-4.7 10.8-11.7 1.4z"/></svg>