<svg xmlns="http://www.w3.org/2000/svg" viewBox="0 0 412 356" enable-background="new 0 0 412 356"><circle fill="#5592D7" cx="66.3" cy="218.7" r="42.9"/><path fill="#3A70A0" d="M66.3 265.2c-25.6 0-46.5-20.9-46.5-46.5s20.9-46.5 46.5-46.5 46.5 20.9 46.5 46.5c0 25.7-20.8 46.5-46.5 46.5zm0-85.8C44.6 179.4 27 197 27 218.7c0 21.7 17.6 39.3 39.3 39.3s39.3-17.6 39.3-39.3c0-21.6-17.6-39.3-39.3-39.3z"/><g fill="#fff"><path d="M40.2 238.3v-9.7h2l2.5 4.2c.6 1.1 1.2 2.2 1.7 3.3-.1-1.3-.2-2.6-.2-4v-3.4h1.6v9.7H46l-2.5-4.3c-.6-1.1-1.3-2.3-1.7-3.4.1 1.3.1 2.5.1 4.1v3.5h-1.7zM51.2 235.3c0 1.3 1 1.8 2.2 1.8.8 0 1.4-.1 1.9-.3l.3 1.2c-.6.2-1.4.4-2.5.4-2.3 0-3.6-1.4-3.6-3.6 0-1.9 1.2-3.8 3.4-3.8 2.3 0 3 1.9 3 3.4 0 .3 0 .6-.1.8h-4.6zm3.1-1.2c0-.7-.3-1.7-1.5-1.7-1.1 0-1.6 1-1.6 1.7h3.1zM59.4 229.3v2h1.7v1.3h-1.7v3.1c0 .9.2 1.3.9 1.3.3 0 .5 0 .7-.1v1.4c-.3.1-.7.2-1.3.2-.6 0-1.2-.2-1.5-.6-.4-.4-.5-1-.5-2v-3.3h-1v-1.3h1v-1.6l1.7-.4zM63.6 231.3l.7 3.2c.2.8.3 1.5.4 2.3.1-.8.4-1.5.6-2.3l.9-3.2h1.4l.9 3.1.6 2.4c.1-.8.3-1.5.5-2.4l.8-3.1h1.7l-2.2 7h-1.6l-.8-2.9c-.2-.7-.4-1.4-.5-2.3-.1.9-.3 1.6-.5 2.3l-.9 2.9h-1.7l-2.1-7h1.8zM79.8 234.8c0 2.6-1.8 3.7-3.6 3.7-2 0-3.5-1.4-3.5-3.6 0-2.3 1.5-3.7 3.6-3.7 2.1-.1 3.5 1.4 3.5 3.6zm-5.3 0c0 1.4.7 2.4 1.7 2.4s1.7-1 1.7-2.4c0-1.1-.5-2.4-1.7-2.4-1.1 0-1.7 1.3-1.7 2.4zM81.3 233.6c0-1 0-1.6-.1-2.3h1.5l.1 1.3h.1c.3-1 1.2-1.5 1.9-1.5h.4v1.7c-.1 0-.3-.1-.5-.1-.9 0-1.4.5-1.6 1.3 0 .2-.1.3-.1.5v3.6h-1.8v-4.5zM88.2 234.4c.2-.3.4-.6.6-.8l1.7-2.3h2.1l-2.6 2.9 3 4.2h-2.2l-2-3.1-.6.7v2.4h-1.8v-10.2h1.8v6.2z"/></g><g fill="#fff"><path d="M66.2 223.6c-1.2 0-2.3-.5-3.2-1.3L3.8 163.5c-1.3-1.3-1.7-3.2-1-4.9.7-1.7 2.3-2.8 4.2-2.8l35.5-.1C45.4 115 63.3 77.1 92.9 48.8 123.7 19.3 164.1 3 206.6 3c28.7 0 57.1 7.5 81.9 21.8 19.7 11.3 37.2 27 50.7 45.4.9 1.2 1.1 2.9.6 4.3-.6 1.4-1.8 2.5-3.3 2.9-12 2.6-22.6 9.5-30 19.5-.9 1.3-2.3 2-3.6 2-1.3 0-2.7-.7-3.6-1.9-9.6-12.7-21.3-23-34.6-30.6-17.5-10.1-37.6-15.4-58-15.4-29.2 0-57.3 11-78.9 30.8-21.1 19.4-34.2 45.6-37.2 73.9l34.4.1c1.9 0 3.5 1 4.2 2.6.7 1.7.3 3.4-1 4.7l-58.8 59.2c-.9.8-2 1.3-3.2 1.3zM66.2 224.1c-1.3 0-2.6-.5-3.5-1.5L3.5 163.8c-1.4-1.4-1.9-3.6-1.1-5.5.8-1.9 2.6-3.1 4.6-3.1l35.1-.1c3-40.6 20.9-78.4 50.5-106.7C123.5 18.8 164 2.5 206.7 2.5c28.8 0 57.2 7.6 82.1 21.9 19.7 11.3 37.3 27.1 50.9 45.5 1 1.4 1.2 3.2.6 4.8-.6 1.6-2 2.8-3.6 3.2-11.8 2.5-22.4 9.4-29.7 19.3-1 1.4-2.5 2.2-4 2.2s-3-.8-4-2.1c-9.6-12.6-21.2-22.8-34.5-30.5-17.4-10-37.4-15.3-57.8-15.3-29.1 0-57 10.9-78.5 30.7-20.8 19.2-33.9 45.1-36.9 73l33.8.1c2.1 0 3.9 1.1 4.6 2.9.8 1.9.4 3.8-1.1 5.3l-58.8 59.2c-1 .8-2.3 1.4-3.6 1.4zM206.6 3.5c-42.4 0-82.7 16.2-113.4 45.6C63.8 77.4 45.9 115.2 43 155.7v.5l-36 .1c-1.6 0-3.1 1-3.7 2.5-.6 1.5-.3 3.2.9 4.4L63.4 222c.8.8 1.8 1.2 2.8 1.2 1.1 0 2.1-.4 2.8-1.2l58.8-59.2c1.2-1.2 1.5-2.7.9-4.2-.6-1.4-2-2.3-3.7-2.3l-35-.1.1-.5c2.9-28.4 16.2-54.8 37.3-74.2 21.7-20 49.9-31 79.2-31 20.6 0 40.7 5.3 58.3 15.4 13.4 7.7 25.1 18.1 34.8 30.7.8 1.1 2 1.7 3.2 1.7 1.2 0 2.4-.7 3.2-1.8 7.5-10.1 18.2-17.1 30.3-19.7 1.3-.3 2.4-1.3 2.9-2.5.5-1.3.3-2.7-.5-3.8-13.5-18.3-31-34-50.6-45.2C263.5 11 235.3 3.5 206.6 3.5z"/></g><circle fill="#F7944B" cx="347.2" cy="126.6" r="42.9"/><path fill="#AF6A45" d="M347.2 173.1c-25.6 0-46.5-20.9-46.5-46.5s20.9-46.5 46.5-46.5 46.5 20.9 46.5 46.5-20.8 46.5-46.5 46.5zm0-85.8c-21.7 0-39.3 17.6-39.3 39.3s17.6 39.3 39.3 39.3c21.7 0 39.3-17.6 39.3-39.3s-17.6-39.3-39.3-39.3z"/><g fill="#fff"><path d="M326.2 106.3h5.6v1.5H328v2.7h3.6v1.5H328v4.1h-1.8v-9.8zM336.9 116.1l-.1-.8c-.4.5-1.2.9-2.1.9-1.4 0-2.2-1-2.2-2.1 0-1.8 1.6-2.7 4.2-2.7v-.1c0-.5-.2-1.2-1.4-1.2-.7 0-1.4.2-1.9.5l-.3-1.2c.5-.3 1.4-.6 2.5-.6 2.3 0 2.9 1.4 2.9 3v2.5c0 .6 0 1.3.1 1.7h-1.7zm-.3-3.5c-1.3 0-2.5.2-2.5 1.3 0 .7.4 1 1 1 .7 0 1.2-.5 1.4-1 0-.1.1-.3.1-.4v-.9zM340.2 111.3c0-1 0-1.6-.1-2.3h1.5l.1 1.3h.1c.3-1 1.2-1.5 1.9-1.5h.4v1.7c-.1 0-.3-.1-.5-.1-.9 0-1.4.5-1.6 1.3 0 .2-.1.3-.1.5v3.6h-1.8v-4.5zM345.4 111.1c0-.8 0-1.5-.1-2.1h1.5l.1 1c.3-.5 1-1.2 2.2-1.2.9 0 1.6.5 1.9 1.3.2-.4.5-.7.9-.9.4-.3.8-.4 1.4-.4 1.2 0 2.4.8 2.4 3v4.1H354V112c0-1.2-.4-1.9-1.3-1.9-.6 0-1.1.4-1.2.9 0 .2-.1.4-.1.6v4.2h-1.7V112c0-1-.4-1.7-1.2-1.7-.7 0-1.1.5-1.3 1-.1.2-.1.4-.1.6v4.2h-1.7v-5zM358.9 113c0 1.3 1 1.8 2.2 1.8.8 0 1.4-.1 1.9-.3l.3 1.2c-.6.2-1.4.4-2.5.4-2.3 0-3.6-1.4-3.6-3.6 0-1.9 1.2-3.8 3.4-3.8 2.3 0 3 1.9 3 3.4 0 .3 0 .6-.1.8h-4.6zm3.1-1.2c0-.7-.3-1.7-1.5-1.7-1.1 0-1.6 1-1.6 1.7h3.1zM365.1 111.3c0-1 0-1.6-.1-2.3h1.5l.1 1.3h.1c.3-1 1.2-1.5 1.9-1.5h.4v1.7c-.1 0-.3-.1-.5-.1-.9 0-1.4.5-1.6 1.3 0 .2-.1.3-.1.5v3.6H365v-4.5z"/></g><path fill="#fff" d="M246.5 353c-12 0-23.6-4.9-32-13.4-2.7.1-5.3.2-7.8.2-14.1 0-28.1-1.8-41.8-5.5-7.8 5.7-17 8.8-26.7 8.8-24.8 0-44.9-20.2-44.9-44.9 0-1.3.1-2.7.2-4.1-6.3-6.1-12.1-12.7-17.3-19.6-.6-.9-.8-2-.4-3s1.2-1.8 2.3-2c12.3-2.8 23.1-10 30.5-20.3.6-.8 1.5-1.3 2.5-1.3s2 .4 2.6 1.2c2.1 2.7 4.3 5.3 6.7 7.9 5.7-2.5 11.7-3.7 18-3.7 22.3 0 41.6 17 44.5 39 6.9 1.4 13.9 2.2 21 2.4 5.8-18.6 23.3-31.4 42.9-31.4 10.2 0 20.1 3.5 28.1 9.9 6-4.2 11.6-9 16.7-14.3-2.6-5.8-3.9-12-3.9-18.3 0-21.3 14.9-39.6 35.6-44 .5-2.8.8-5.5 1.1-8.3l-35.9-.1c-1.3 0-2.4-.8-2.9-2s-.2-2.5.7-3.4l59.2-58.8c.6-.6 1.4-.9 2.2-.9.8 0 1.6.3 2.2.9l58.8 59.1c.9.9 1.2 2.3.7 3.5-.5 1.2-1.6 2-2.9 2l-36.8-.1c-.5 7.6-1.6 15.2-3.2 22.7 7.1 8.2 11 18.6 11 29.5 0 24.8-20.2 44.9-44.9 44.9-1.3 0-2.5-.1-3.8-.2-2.1 2.4-4.4 4.8-6.7 7-9.4 9.4-19.9 17.6-31.2 24.4-4.3 20.9-22.7 36.2-44.4 36.2z"/><path fill="#FFB685" d="M335.6 72.8c-13.2-17.9-30-33-49.3-44.1-24.1-13.9-51.7-21.2-79.6-21.2-85.8 0-156 67.8-159.8 152.6l-39.9.2L66.2 219l58.8-59.2-39.3.2c3.9-63.3 56.6-113.7 120.9-113.7 21.2 0 42 5.5 60.3 16 14 8 26.2 18.8 36 31.6 7.9-10.5 19.4-18.2 32.7-21.1z"/><path fill="#F7944B" d="M206.6 7.5c28 0 55.5 7.3 79.6 21.2 19.3 11.1 36.2 26.2 49.3 44.1-13.3 2.9-24.9 10.6-32.7 21.2-9.8-12.8-22-23.6-36-31.6-18.2-10.5-39.1-16-60.3-16-64.3 0-117 50.3-120.9 113.7l39.3-.1-58.7 59L7 160.3l39.8-.1C50.7 75.3 120.9 7.5 206.6 7.5m0-2.7c-42.1 0-82 16.1-112.5 45.3-29.7 28.5-47.4 66.5-49.9 107.4l-37.2.1c-1.1 0-2.1.7-2.5 1.7-.4 1-.2 2.2.6 3L64.3 221c.5.5 1.2.8 1.9.8s1.4-.3 1.9-.8l58.8-59.2c.8-.8 1-1.8.6-2.8-.4-1-1.4-1.5-2.5-1.5H88.6c5.2-60.9 56.5-108.3 118-108.3 20.7 0 41.1 5.4 58.9 15.6 13.7 7.9 25.6 18.6 35.2 31.3.5.7 1.3 1.4 2.2 1.4.9 0 1.7-.8 2.2-1.5 7.6-10.3 18.6-17.6 31.1-20.3.9-.2 1.6-.9 2-1.8.3-.9.2-1.9-.4-2.6-13.4-18.2-30.7-33.7-50.2-44.9-24.5-14.1-52.5-21.6-81-21.6z"/><path d="M173.4 130c1.3-.2 3.2-.4 5.7-.4 2.7 0 4.7.6 6 1.7 1.2 1 2 2.6 2 4.5s-.6 3.5-1.8 4.6c-1.5 1.5-3.8 2.2-6.4 2.2-.7 0-1.3 0-1.8-.1v7.7h-3.7V130zm3.7 9.5c.5.1 1.1.2 1.8.2 2.8 0 4.5-1.4 4.5-3.7 0-2.3-1.6-3.5-4.1-3.5-1 0-1.8.1-2.1.2v6.8zM189.8 140.2c0-2 0-3.4-.1-4.7h3.2l.1 2.8h.1c.7-2.1 2.4-3.1 4-3.1.4 0 .6 0 .9.1v3.5c-.3-.1-.6-.1-1.1-.1-1.8 0-3 1.1-3.3 2.8-.1.3-.1.7-.1 1.1v7.6h-3.7v-10zM214.3 142.6c0 5.4-3.8 7.8-7.6 7.8-4.2 0-7.4-2.9-7.4-7.6 0-4.8 3.2-7.8 7.6-7.8 4.4.1 7.4 3.2 7.4 7.6zm-11.1.2c0 2.8 1.4 5 3.7 5 2.1 0 3.6-2.1 3.6-5 0-2.3-1-4.9-3.6-4.9-2.7-.1-3.7 2.5-3.7 4.9zM231.3 142.6c0 5.4-3.8 7.8-7.6 7.8-4.2 0-7.4-2.9-7.4-7.6 0-4.8 3.2-7.8 7.6-7.8 4.5.1 7.4 3.2 7.4 7.6zm-11.1.2c0 2.8 1.4 5 3.7 5 2.1 0 3.6-2.1 3.6-5 0-2.3-1-4.9-3.6-4.9-2.6-.1-3.7 2.5-3.7 4.9zM234.8 150.1v-11.9h-2v-2.8h2v-.6c0-1.9.5-3.8 1.8-5 1.1-1 2.6-1.4 3.8-1.4 1 0 1.8.2 2.4.4l-.3 2.9c-.4-.2-.9-.3-1.6-.3-1.8 0-2.5 1.5-2.5 3.4v.8h3.2v2.8h-3.2v11.9h-3.6zM209.3 173.4c0 5.4-3.8 7.8-7.6 7.8-4.2 0-7.4-2.9-7.4-7.6 0-4.8 3.2-7.8 7.6-7.8 4.4 0 7.4 3.1 7.4 7.6zm-11.1.1c0 2.8 1.4 5 3.7 5 2.1 0 3.6-2.1 3.6-5 0-2.3-1-4.9-3.6-4.9-2.7-.1-3.7 2.5-3.7 4.9zM212.7 180.9V169h-2v-2.8h2v-.6c0-1.9.5-3.8 1.8-5 1.1-1 2.6-1.4 3.8-1.4 1 0 1.8.2 2.4.4l-.3 2.9c-.4-.2-.9-.3-1.6-.3-1.8 0-2.5 1.5-2.5 3.4v.8h3.2v2.8h-3.2v11.9h-3.6zM149.2 187.9c1.4-.2 3.5-.4 5.6-.4 2.9 0 4.9.5 6.3 1.6 1.1.9 1.8 2.4 1.8 4.1 0 2.6-1.8 4.4-3.7 5.1v.1c1.5.5 2.3 2 2.8 3.9.6 2.5 1.2 4.9 1.6 5.7h-3.8c-.3-.6-.8-2.3-1.4-4.8-.6-2.7-1.5-3.5-3.7-3.6h-1.9v8.4h-3.7v-20.1zm3.7 9h2.2c2.5 0 4.1-1.3 4.1-3.4 0-2.2-1.6-3.3-4-3.3-1.2 0-1.9.1-2.3.2v6.5zM169 201.6c.1 2.7 2.2 3.8 4.5 3.8 1.7 0 3-.2 4.1-.7l.5 2.6c-1.3.5-3 .9-5.1.9-4.8 0-7.6-2.9-7.6-7.4 0-4.1 2.5-7.9 7.2-7.9 4.8 0 6.3 3.9 6.3 7.2 0 .7-.1 1.2-.1 1.6H169zm6.4-2.6c0-1.4-.6-3.6-3.1-3.6-2.3 0-3.3 2.1-3.4 3.6h6.5zM181.8 204.5c.8.5 2.4 1.1 3.8 1.1 1.6 0 2.4-.7 2.4-1.6 0-1-.6-1.5-2.4-2.1-2.9-1-4.1-2.6-4.1-4.3 0-2.6 2.1-4.6 5.6-4.6 1.6 0 3.1.4 3.9.9l-.7 2.6c-.6-.4-1.8-.8-3.1-.8s-2.1.6-2.1 1.5.7 1.4 2.6 2.1c2.7 1 3.9 2.3 3.9 4.5 0 2.7-2.1 4.6-6 4.6-1.8 0-3.4-.4-4.5-1l.7-2.9zM208.5 200.5c0 5.4-3.8 7.8-7.6 7.8-4.2 0-7.4-2.9-7.4-7.6 0-4.8 3.2-7.8 7.6-7.8 4.5 0 7.4 3.1 7.4 7.6zm-11 .1c0 2.8 1.4 5 3.7 5 2.1 0 3.6-2.1 3.6-5 0-2.3-1-4.9-3.6-4.9-2.7-.1-3.7 2.5-3.7 4.9zM224.8 203.5c0 1.8.1 3.2.1 4.4h-3.3l-.2-2.2h-.1c-.6 1.1-2.1 2.6-4.7 2.6-2.7 0-5.1-1.6-5.1-6.4v-8.6h3.7v8c0 2.4.8 4 2.8 4 1.5 0 2.4-1.1 2.8-2 .1-.3.2-.7.2-1.1v-8.9h3.7v10.2zM228.8 198c0-2 0-3.4-.1-4.7h3.2l.1 2.8h.1c.7-2.1 2.4-3.1 4-3.1.4 0 .6 0 .9.1v3.5c-.3-.1-.6-.1-1.1-.1-1.8 0-3 1.1-3.3 2.8-.1.3-.1.7-.1 1.1v7.6h-3.7v-10zM250.1 207.5c-.8.4-2.3.8-4.2.8-4.6 0-7.6-2.9-7.6-7.5 0-4.4 3-7.9 8.2-7.9 1.4 0 2.8.3 3.6.7l-.7 2.8c-.6-.3-1.5-.6-2.8-.6-2.8 0-4.5 2.1-4.5 4.8 0 3 2 4.7 4.5 4.7 1.3 0 2.2-.3 2.9-.6l.6 2.8zM255.2 201.6c.1 2.7 2.2 3.8 4.5 3.8 1.7 0 3-.2 4.1-.7l.5 2.6c-1.3.5-3 .9-5.1.9-4.8 0-7.6-2.9-7.6-7.4 0-4.1 2.5-7.9 7.2-7.9 4.8 0 6.3 3.9 6.3 7.2 0 .7-.1 1.2-.1 1.6h-9.8zm6.5-2.6c0-1.4-.6-3.6-3.1-3.6-2.3 0-3.3 2.1-3.4 3.6h6.5zM43.1 172.9c-.4.2-1.1.4-2 .4-2.1 0-3.7-1.3-3.7-3.8 0-2.3 1.6-3.9 3.9-3.9.9 0 1.5.2 1.8.3l-.2.8c-.4-.2-.9-.3-1.5-.3-1.8 0-2.9 1.1-2.9 3.1 0 1.8 1.1 3 2.9 3 .6 0 1.2-.1 1.6-.3l.1.7zM50.5 169.3c0 2.6-1.6 3.9-3.5 3.9-2 0-3.4-1.5-3.4-3.8 0-2.4 1.5-3.9 3.5-3.9 2.1 0 3.4 1.6 3.4 3.8zm-5.8.1c0 1.6.9 3 2.4 3s2.4-1.4 2.4-3.1c0-1.5-.8-3-2.4-3-1.6 0-2.4 1.5-2.4 3.1zM58.1 169.9c-.1-1-.1-2.3-.1-3.2-.3.9-.6 1.8-.9 2.8l-1.3 3.6h-.7l-1.2-3.6c-.4-1.1-.7-2-.9-2.9 0 .9-.1 2.2-.1 3.3l-.2 3.2h-.9l.5-7.5h1.2l1.3 3.6c.3.9.6 1.7.8 2.5.2-.8.5-1.6.8-2.5l1.3-3.6h1.2l.5 7.5h-.9l-.4-3.2zM60.7 165.8c.5-.1 1.1-.1 1.9-.1 1 0 1.7.2 2.1.6.4.4.7.9.7 1.6 0 .7-.2 1.2-.6 1.6-.5.5-1.3.8-2.3.8-.3 0-.6 0-.8-.1v3h-1v-7.4zm1 3.6c.2.1.5.1.8.1 1.2 0 1.9-.6 1.9-1.6s-.7-1.5-1.8-1.5c-.4 0-.7 0-.9.1v2.9zM67.6 165.7v4.4c0 1.7.7 2.4 1.7 2.4 1.1 0 1.8-.7 1.8-2.4v-4.4h1v4.4c0 2.3-1.2 3.2-2.8 3.2-1.5 0-2.7-.9-2.7-3.2v-4.4h1zM75.2 166.5h-2.3v-.8h5.5v.8h-2.3v6.7h-1v-6.7zM80.2 165.7v7.5h-1v-7.5h1zM81.9 173.1v-7.5H83l2.4 3.8c.6.9 1 1.7 1.3 2.4-.1-1-.1-1.9-.1-3.1v-3.1h.9v7.5h-1l-2.4-3.8c-.5-.8-1-1.7-1.4-2.5.1.9.1 1.8.1 3.1v3.2h-.9zM94.9 172.8c-.4.2-1.3.4-2.3.4-1.1 0-2.1-.3-2.8-1-.6-.6-1-1.6-1-2.8 0-2.2 1.5-3.9 4-3.9.9 0 1.5.2 1.9.3l-.2.8c-.4-.2-.9-.3-1.7-.3-1.8 0-3 1.1-3 3s1.1 3 2.9 3c.6 0 1.1-.1 1.3-.2V170h-1.5v-.8H95v3.6zM39.6 176.6c.5-.1 1.2-.2 1.9-.2 1 0 1.7.2 2.2.6.4.3.6.8.6 1.4 0 1-.6 1.6-1.4 1.9.6.2.9.7 1.1 1.5.2 1 .4 1.8.6 2.1h-1c-.1-.2-.3-.9-.5-1.8-.2-1-.6-1.4-1.5-1.5h-.9v3.2h-1v-7.2zm1 3.4h1c1 0 1.7-.6 1.7-1.4 0-1-.7-1.4-1.7-1.4-.5 0-.8 0-1 .1v2.7zM49.5 180.5h-2.9v2.7h3.2v.8h-4.2v-7.5h4v.8h-3.1v2.4h2.9v.8zM50.9 182.8c.4.3 1.1.5 1.7.5 1 0 1.6-.5 1.6-1.3 0-.7-.4-1.1-1.4-1.5-1.2-.4-2-1.1-2-2.1 0-1.2 1-2 2.4-2 .8 0 1.3.2 1.7.4l-.3.8c-.2-.1-.7-.4-1.4-.4-1 0-1.4.6-1.4 1.1 0 .7.5 1 1.5 1.4 1.3.5 1.9 1.1 1.9 2.2 0 1.2-.9 2.2-2.6 2.2-.7 0-1.5-.2-1.9-.5l.2-.8zM62.9 180.2c0 2.6-1.6 3.9-3.5 3.9-2 0-3.4-1.5-3.4-3.8 0-2.4 1.5-3.9 3.5-3.9 2.1 0 3.4 1.5 3.4 3.8zm-5.8.1c0 1.6.9 3 2.4 3s2.4-1.4 2.4-3.1c0-1.5-.8-3-2.4-3-1.6 0-2.4 1.4-2.4 3.1zM65.1 176.5v4.4c0 1.7.7 2.4 1.7 2.4 1.1 0 1.8-.7 1.8-2.4v-4.4h1v4.4c0 2.3-1.2 3.2-2.8 3.2-1.5 0-2.7-.9-2.7-3.2v-4.4h1zM71.3 176.6c.5-.1 1.2-.2 1.9-.2 1 0 1.7.2 2.2.6.4.3.6.8.6 1.4 0 1-.6 1.6-1.4 1.9.6.2.9.7 1.1 1.5.2 1 .4 1.8.6 2.1h-1c-.1-.2-.3-.9-.5-1.8-.2-1-.6-1.4-1.5-1.5h-.9v3.2h-1v-7.2zm1 3.4h1c1 0 1.7-.6 1.7-1.4 0-1-.7-1.4-1.7-1.4-.5 0-.8 0-1 .1v2.7zM82.6 183.7c-.4.2-1.1.4-2 .4-2.1 0-3.7-1.3-3.7-3.8 0-2.3 1.6-3.9 3.9-3.9.9 0 1.5.2 1.8.3l-.2.8c-.4-.2-.9-.3-1.5-.3-1.8 0-2.9 1.1-2.9 3.1 0 1.8 1.1 3 2.9 3 .6 0 1.2-.1 1.6-.3l.1.7zM87.6 180.5h-2.9v2.7H88v.8h-4.2v-7.5h4v.8h-3.1v2.4h2.9v.8zM89.1 182.8c.4.3 1.1.5 1.7.5 1 0 1.6-.5 1.6-1.3 0-.7-.4-1.1-1.4-1.5-1.2-.4-2-1.1-2-2.1 0-1.2 1-2 2.4-2 .8 0 1.3.2 1.7.4l-.3.8c-.2-.1-.7-.4-1.4-.4-1 0-1.4.6-1.4 1.1 0 .7.5 1 1.5 1.4 1.3.5 1.9 1.1 1.9 2.2 0 1.2-.9 2.2-2.6 2.2-.7 0-1.5-.2-1.9-.5l.2-.8zM76.7 128.7c.1.6.1 1.6-.2 2.9-.8 3-3.3 4.7-6.7 3.8-3.3-.9-5-3.7-4.1-7 .3-1.3.9-2.1 1.1-2.4l1 .6c-.4.5-.8 1.1-1 2-.7 2.5.5 4.6 3.3 5.3 2.6.7 4.7-.4 5.3-2.9.2-.8.3-1.7.2-2.3h1.1zM67.1 124.2c.1-.7.3-1.6.7-2.6.4-1.3 1.1-2.2 1.8-2.6.7-.4 1.6-.5 2.5-.2.9.3 1.6.8 2 1.5.5 1 .5 2.2.1 3.6-.1.4-.3.8-.5 1l4.2 1.4-.4 1.3-10.4-3.4zm5.5.3c.2-.3.3-.6.5-1.1.5-1.6.1-2.9-1.4-3.3-1.4-.5-2.4.3-2.9 1.8-.2.6-.3 1-.3 1.3l4.1 1.3zM70.4 114.5l6 2.5c2.3.9 3.6.3 4.2-1 .6-1.5 0-2.9-2.2-3.8l-6-2.5.5-1.3 5.9 2.4c3.1 1.3 3.7 3.4 2.8 5.6-.9 2.1-2.7 3.2-5.8 1.9l-6-2.5.6-1.3zM81.3 106.4c-.9-.4-1.2-1.5-.8-2.3.4-.8 1.4-1.2 2.3-.8.9.4 1.2 1.4.8 2.3-.5.9-1.5 1.2-2.3.8zM87.3 100.4c.7-.3 1.4-1 1.9-1.8.7-1.2.5-2.4-.4-2.9s-1.7-.3-2.9.7c-1.5 1.2-2.8 1.7-4.1.9-1.5-.9-1.8-2.7-.8-4.6.6-1 1.2-1.5 1.7-1.8l.8.9c-.4.2-1 .7-1.5 1.5-.8 1.3-.3 2.2.4 2.6.9.5 1.7.2 2.9-.8 1.6-1.2 2.8-1.6 4.2-.8 1.5.9 2.1 2.7.8 4.9-.5.9-1.4 1.7-2 2.1l-1-.9zM85.8 87.5l-1.9 2.8-1-.7 4.5-6.7 1 .7-1.9 2.8 8.1 5.4-.8 1.2-8-5.5zM98 77.9c3 2.3 3.2 5.3 1.5 7.6-1.8 2.2-4.8 2.5-7.5.5-2.8-2.1-3.2-5.2-1.5-7.5 1.9-2.5 4.9-2.6 7.5-.6zm-5.1 6.8c1.9 1.4 4.3 1.7 5.6-.1 1.4-1.8.5-4-1.5-5.6-1.7-1.3-4.2-1.8-5.7.1-1.3 1.9-.3 4.2 1.6 5.6zM95.2 73.2c.4-.6 1-1.5 1.6-2.2 1-1.1 1.9-1.7 2.8-1.8.7-.1 1.5.2 2.1.7 1.1 1 1.2 2.3.7 3.4.8-.4 1.7-.3 2.7.3 1.4.7 2.3 1.3 2.8 1.4l-1 1.1c-.4-.1-1.2-.5-2.4-1.2-1.3-.8-2.2-.7-3 .2l-.9 1 3.6 3.1-.9 1.1-8.1-7.1zm4.6 2.2l1-1.1c1-1.1 1-2.4.1-3.2-1.1-.9-2.2-.6-3.2.5-.5.5-.7.9-.8 1.1l2.9 2.7zM107.6 70.5l1.6 3.3-1 1-5.1-10.4 1.2-1.2 10.4 5.2-1.1 1.1-3.3-1.6-2.7 2.6zm1.8-3.3l-3-1.5c-.7-.3-1.3-.7-1.8-1 .3.6.7 1.2 1 1.8l1.5 3 2.3-2.3zM121.3 62c-.3.6-1 1.7-2.2 2.7-1.3 1.1-2.6 1.7-4 1.6-1.3-.1-2.7-.8-3.8-2.1-2.1-2.5-2-5.8.8-8.2 1-.8 1.9-1.3 2.4-1.4l.5 1.1c-.6.2-1.3.5-2.1 1.2-2 1.7-2.3 4.1-.5 6.2 1.8 2.1 4.2 2.3 6.1.6.7-.6 1.1-1.1 1.2-1.5l-2.1-2.5-1.7 1.5-.7-.9 2.7-2.4 3.4 4.1zM124.4 53.8l-3.4 2.6 2.4 3.2 3.8-2.9.7.9-4.9 3.7-6.6-8.7L121 49l.7.9-3.6 2.7 2.1 2.8 3.4-2.6.8 1zM128.9 51.8c-.5-.8-.3-1.8.5-2.4.8-.5 1.8-.3 2.4.5.5.8.3 1.8-.5 2.4-.9.5-1.9.3-2.4-.5zM132.8 41.5c.5-.4 1.3-1 2.1-1.5 1.2-.7 2.1-.9 3-.8.7.1 1.3.5 1.7 1.2.5.9.4 2.1-.4 3 1-.3 2.5-.1 3.3 1.3.5.8.5 1.6.3 2.4-.3 1-1.2 1.9-2.8 2.7-.9.5-1.5.8-2 1l-5.2-9.3zm3.4 3.3l1.1-.6c1.3-.7 1.7-1.8 1.2-2.8-.6-1.1-1.7-1.1-3-.4-.6.3-.9.5-1 .7l1.7 3.1zm2.6 4.5c.3-.1.6-.3 1.1-.5 1.3-.7 2.2-1.8 1.4-3.2-.7-1.3-2.2-1.2-3.5-.5l-1 .6 2 3.6zM145.4 43.1l.5 3.6-1.3.6-1.3-11.5 1.5-.7 8.1 8.3-1.4.6-2.5-2.6-3.6 1.7zm2.8-2.5l-2.3-2.4c-.5-.5-1-1.1-1.4-1.6.1.7.3 1.3.4 2l.4 3.3 2.9-1.3zM153.8 43l-4-10.2 1.4-.6 5.3 3.9c1.2.9 2.2 1.7 3.1 2.6-.7-1.3-1.2-2.5-1.8-4.1l-1.7-4.3 1.2-.5 4 10.2-1.3.5-5.3-3.9c-1.2-.9-2.3-1.8-3.2-2.7.6 1.3 1.1 2.5 1.7 4.2l1.7 4.4-1.1.5zM160 29.1c.8-.4 1.7-.8 2.8-1.1 1.9-.6 3.5-.6 4.6 0 1.2.6 2.1 1.6 2.6 3.3.5 1.7.4 3.3-.3 4.5-.7 1.3-2.1 2.3-4.2 2.9-1 .3-1.8.5-2.5.6l-3-10.2zm4.2 8.8c.4 0 .9-.2 1.4-.3 2.9-.9 4-3 3.1-5.8-.7-2.5-2.6-3.6-5.5-2.8-.7.2-1.2.4-1.5.6l2.5 8.3zM174.6 36.1l-5-10.1 1.5-.3 2.4 5.2c.6 1.3 1.2 2.5 1.6 3.5-.1-1.1 0-2.4.1-3.9l.3-5.7 1.4-.3 2.5 5.2c.6 1.2 1.1 2.4 1.5 3.5 0-1.2 0-2.5.1-3.9l.3-5.7 1.4-.3-.7 11.3-1.4.3-2.5-5.3c-.6-1.3-1.1-2.3-1.4-3.3 0 1.1 0 2.2-.1 3.7l-.3 5.9-1.7.2zM185.7 22.9l1.6 10.8-1.4.2-1.6-10.8 1.4-.2zM188.3 22.6c.8-.2 1.9-.4 3-.5 2-.2 3.5.1 4.6.9 1.1.8 1.7 2 1.9 3.8.2 1.8-.2 3.3-1.2 4.4-.9 1.1-2.6 1.8-4.7 2-1 .1-1.9.1-2.6.1l-1-10.7zm2.3 9.5c.4 0 .9 0 1.4-.1 3-.3 4.5-2.1 4.2-5.1-.2-2.6-1.8-4.1-4.8-3.8-.7.1-1.3.2-1.6.3l.8 8.7zM200.9 22.7l-3.3.1v-1.2l8.1-.3v1.2l-3.3.1.3 9.8h-1.4l-.4-9.7zM208.5 21.4l-.1 4.6 5.3.2.1-4.6h1.4l-.3 11h-1.4l.2-5.1-5.3-.2-.2 5.1h-1.4l.3-11h1.4zM219.9 28.7c.1-1 .9-1.6 1.9-1.5.9.1 1.6.9 1.5 1.9-.1 1-.9 1.6-1.9 1.5-.9-.1-1.6-.9-1.5-1.9zM237.7 30.1c-.7 3.7-3.3 5.2-6.1 4.7s-4.4-3.1-3.8-6.4c.6-3.4 3.2-5.3 6.1-4.7 2.9.6 4.4 3.2 3.8 6.4zm-8.4-1.4c-.4 2.3.4 4.6 2.6 5 2.2.4 3.8-1.4 4.3-3.8.4-2.1-.3-4.6-2.6-5-2.3-.5-3.9 1.4-4.3 3.8zM237.8 35.9l2.8-10.6 1.5.4 2 6.3c.5 1.5.8 2.7 1 4 .3-1.4.6-2.7 1-4.4l1.2-4.4 1.3.3-2.8 10.6-1.4-.4-1.9-6.3c-.4-1.4-.8-2.8-1-4.1h-.1c-.3 1.4-.6 2.6-1.1 4.4l-1.2 4.5-1.3-.3zM251.1 28.3l1.3.5-3.1 9.3 4.4 1.5-.4 1.1-5.8-2 3.6-10.4zM259.8 31.4l-3.9 10.2-1.3-.5 3.9-10.2 1.3.5zM257.8 42.3l4.5-10 1.4.6 1 6.5c.2 1.5.3 2.8.3 4.1.5-1.4 1-2.6 1.7-4.2l1.9-4.2 1.2.5-4.5 10-1.3-.6-.9-6.5c-.2-1.4-.4-2.9-.4-4.2h-.1c-.5 1.3-1 2.5-1.7 4.2l-1.9 4.3-1.2-.5zM274.4 44.6l-3.8-2-1.8 3.5 4.2 2.2-.6 1.1-5.5-2.9 5.1-9.7 5.2 2.8-.6 1.1-4-2.1-1.6 3.1 3.8 2-.4.9zM282.9 44.3l-2.8-1.8.6-1 6.9 4.3-.6 1-2.8-1.8-5.2 8.3-1.2-.8 5.1-8.2zM289.8 47.4l-6.2 9-1.2-.8 6.2-9 1.2.8zM295.5 59.3c.9-1.3 1.9-2.8 2.8-3.8-1.1.8-2.3 1.6-3.6 2.4l-4.8 3-.8-.7 1.8-5.2c.5-1.5 1.1-2.9 1.6-4.1-.9 1.1-2.1 2.5-3.1 3.7l-3.1 3.5-1.1-.8 7.3-8.2 1.4 1.1-1.8 5.3c-.5 1.3-.9 2.5-1.4 3.6.9-.7 1.9-1.4 3.2-2.2l4.8-3 1.4 1.1-6.2 9.1-1.1-.8 2.7-4zM302.7 65.2l-3.2-2.9-2.6 2.9 3.5 3.2-.8.9-4.6-4.1 7.3-8.1 4.4 4-.8.9-3.3-3-2.3 2.6 3.2 2.9-.8.7z"/><path fill="#CBE3F7" d="M366.4 185l39.8.1-58.8-59.1-59.2 58.8 39.3.1c-.3 4.8-.9 9.5-1.8 14.2-19.9 3.2-35.2 20.4-35.2 41.3 0 6.8 1.6 13.3 4.5 18.9-6.2 6.6-13.1 12.6-20.7 17.7-7.4-6.6-17.2-10.7-27.9-10.7-19.5 0-35.9 13.4-40.5 31.5-9 0-17.8-1.1-26.3-3-1.7-21.5-19.7-38.4-41.6-38.4-6.7 0-13.1 1.6-18.7 4.4-3-3.1-5.8-6.3-8.4-9.8-7.7 10.7-19.1 18.5-32.4 21.5 5.4 7.3 11.5 14 18.1 20.3-.2 1.7-.3 3.5-.3 5.3 0 23.1 18.7 41.8 41.8 41.8 9.8 0 18.8-3.4 26-9.1 13.8 3.8 28.1 5.8 42.5 5.8 3.1 0 6.1-.1 9.1-.3 7.6 8.3 18.6 13.5 30.8 13.5 20.9 0 38.2-15.3 41.3-35.3 11.5-6.8 22.2-15 31.8-24.7 2.6-2.6 5.2-5.3 7.6-8.1 1.7.2 3.4.3 5.1.3 23.1 0 41.8-18.7 41.8-41.8 0-11.1-4.3-21.1-11.3-28.6 1.9-8.6 3.2-17.5 3.6-26.6z"/><path fill="#5592D7" d="M246.5 351.2c-11.8 0-23.2-4.9-31.3-13.5-2.9.2-5.8.2-8.6.2-14.2 0-28.4-1.9-42.2-5.6-7.6 5.9-16.7 8.9-26.3 8.9-23.8 0-43.1-19.4-43.1-43.1 0-1.6.1-3.2.3-4.8-6.5-6.2-12.4-12.9-17.7-19.9-.3-.4-.3-.8-.2-1.3.2-.4.5-.8 1-.9 12.7-2.9 23.9-10.4 31.6-21 .2-.3.6-.6 1.1-.6.4 0 .8.2 1.1.5 2.4 3.1 4.9 6.1 7.7 8.9 5.8-2.7 12-4.1 18.4-4.1 22 0 40.7 16.9 42.9 38.7 7.8 1.7 15.9 2.6 24 2.7 5.2-18.6 22.1-31.5 41.5-31.5 10.3 0 20.2 3.7 28 10.3 6.8-4.7 13.2-10.2 19-16.2-2.8-5.9-4.3-12.2-4.3-18.7 0-21 14.8-38.7 35.4-42.4.7-3.9 1.2-7.8 1.5-11.7l-37.8-.1c-.5 0-1-.3-1.2-.8-.2-.5-.1-1.1.3-1.5l59.2-58.8c.5-.5 1.4-.5 1.9 0l58.8 59.1c.4.4.5 1 .3 1.5s-.7.8-1.2.8l-38.5-.1c-.5 8.4-1.7 16.8-3.5 25 7.2 8 11.2 18.2 11.2 29 0 23.8-19.4 43.1-43.1 43.1-1.5 0-3-.1-4.5-.3-2.3 2.6-4.7 5.2-7.2 7.6-9.5 9.5-20.1 17.7-31.5 24.5-4 21.1-21.8 36.1-43 36.1zM215.7 335c.4 0 .7.2 1 .4 7.6 8.3 18.5 13.1 29.8 13.1 20.1 0 36.9-14.4 39.9-34.1.1-.4.3-.8.7-1 11.4-6.8 22.1-15 31.6-24.5 2.6-2.6 5.1-5.3 7.5-8 .3-.3.7-.5 1.2-.5 1.7.2 3.3.3 4.9.3 22.3 0 40.4-18.1 40.4-40.4 0-10.3-3.9-20.1-10.9-27.6-.3-.3-.4-.8-.3-1.2 1.9-8.7 3.2-17.6 3.6-26.5 0-.7.7-1.3 1.4-1.3l36.5.1-55.5-55.9-55.9 55.5 36 .1c.4 0 .7.2 1 .4.3.3.4.6.4 1-.3 4.8-.9 9.6-1.8 14.3-.1.6-.6 1-1.1 1.1-19.7 3.1-34 19.9-34 39.9 0 6.4 1.5 12.6 4.4 18.3.3.5.2 1.1-.2 1.5-6.3 6.7-13.3 12.7-20.9 17.9-.5.4-1.2.3-1.7-.1-7.4-6.7-17-10.3-27-10.3-18.5 0-34.6 12.5-39.2 30.4-.2.6-.7 1-1.3 1-9 0-17.9-1.1-26.5-3-.6-.1-1-.6-1.1-1.2-1.7-20.9-19.4-37.2-40.3-37.2-6.3 0-12.4 1.4-18.1 4.3-.5.3-1.2.2-1.6-.3-2.6-2.7-5.1-5.6-7.4-8.5-7.6 9.9-18.1 16.9-30.1 20.1 5 6.5 10.6 12.7 16.7 18.4.3.3.5.7.4 1.2-.2 1.8-.3 3.5-.3 5.2 0 22.3 18.1 40.4 40.4 40.4 9.2 0 17.9-3 25.1-8.8.3-.3.8-.4 1.2-.2 13.8 3.8 28 5.7 42.2 5.7 2.7.2 5.8.1 8.9 0z"/><path d="M118.9 283.8c-.3.2-1 .3-1.9.3-2.1 0-3.6-1.3-3.6-3.7 0-2.3 1.5-3.8 3.8-3.8.9 0 1.5.2 1.7.3l-.2.8c-.4-.2-.9-.3-1.5-.3-1.7 0-2.8 1.1-2.8 3 0 1.8 1 2.9 2.8 2.9.6 0 1.2-.1 1.5-.3l.2.8zM124.7 281.4c0 1.9-1.3 2.8-2.6 2.8-1.4 0-2.5-1-2.5-2.7 0-1.8 1.1-2.8 2.6-2.8s2.5 1.1 2.5 2.7zm-4.2 0c0 1.1.7 2 1.6 2 .9 0 1.6-.9 1.6-2 0-.9-.4-2-1.6-2-1.1 0-1.6 1-1.6 2zM125.9 280.2v-1.4h.8l.1.9c.3-.5.9-1 1.7-1 .7 0 1.9.4 1.9 2.2v3.1h-1v-3c0-.8-.3-1.5-1.2-1.5-.6 0-1.1.4-1.3 1 0 .1-.1.3-.1.4v3.2h-1v-3.9zM131.8 283.1c.3.2.8.4 1.3.4.7 0 1-.3 1-.8s-.3-.7-1-1c-.9-.3-1.4-.9-1.4-1.5 0-.8.7-1.5 1.8-1.5.5 0 1 .2 1.3.3l-.2.7c-.2-.1-.6-.3-1.1-.3-.6 0-.9.3-.9.7 0 .4.3.6 1 .9.9.3 1.4.8 1.4 1.6 0 .9-.7 1.6-2 1.6-.6 0-1.1-.1-1.5-.4l.3-.7zM137.3 277.3v1.5h1.4v.7h-1.4v2.8c0 .7.2 1 .7 1 .2 0 .4 0 .6-.1v.7c-.2.1-.5.1-.8.1-.4 0-.8-.1-1-.4-.3-.3-.4-.7-.4-1.4v-2.9h-.8v-.7h.8v-1.3h.9zM142.7 284.1l-.1-.7c-.3.4-.9.8-1.6.8-1.1 0-1.6-.7-1.6-1.5 0-1.3 1.1-2 3.2-2v-.1c0-.4-.1-1.2-1.2-1.2-.5 0-1 .2-1.4.4l-.2-.6c.4-.3 1.1-.5 1.7-.5 1.6 0 2 1.1 2 2.1v2c0 .5 0 .9.1 1.3h-.9zm-.2-2.7c-1 0-2.2.2-2.2 1.2 0 .6.4.9.9.9.7 0 1.1-.4 1.3-.9 0-.1.1-.2.1-.3v-.9zM145 280.2v-1.4h.8l.1.9c.3-.5.9-1 1.7-1 .7 0 1.9.4 1.9 2.2v3.1h-1v-3c0-.8-.3-1.5-1.2-1.5-.6 0-1.1.4-1.3 1 0 .1-.1.3-.1.4v3.2h-1v-3.9zM152.1 277.3v1.5h1.4v.7h-1.4v2.8c0 .7.2 1 .7 1 .2 0 .4 0 .6-.1v.7c-.2.1-.5.1-.8.1-.4 0-.8-.1-1-.4-.3-.3-.4-.7-.4-1.4v-2.9h-.8v-.7h.8v-1.3h.9zM154.6 276.4h1v7.7h-1v-7.7zM157.5 278.8l1.1 3.1c.1.3.2.8.3 1.1.1-.3.2-.7.3-1.1l1-3.1h1l-1.4 3.7c-.7 1.8-1.1 2.7-1.8 3.3-.5.4-.9.6-1.2.6l-.2-.8c.2-.1.6-.2.8-.5.3-.2.6-.6.8-1.1 0-.1.1-.2.1-.2 0-.1 0-.1-.1-.3l-1.9-4.8h1.2zM116.4 293.2v-1.4h.8v.8c.3-.5.8-1 1.6-1 .7 0 1.3.4 1.5 1.1.2-.3.4-.5.6-.7.3-.2.7-.4 1.2-.4.7 0 1.7.5 1.7 2.3v3.1h-.8v-3c0-1-.4-1.6-1.1-1.6-.5 0-1 .4-1.1.9 0 .1-.1.3-.1.5v3.2h-.9v-3.1c0-.8-.4-1.4-1.1-1.4-.6 0-1 .5-1.2 1-.1.1-.1.3-.1.5v3.2h-.9v-4zM126 294.6c0 1.3.8 1.8 1.8 1.8.7 0 1.1-.1 1.5-.3l.2.7c-.3.2-.9.3-1.7.3-1.6 0-2.6-1.1-2.6-2.6s.9-2.8 2.5-2.8c1.7 0 2.2 1.5 2.2 2.5v.4H126zm2.8-.7c0-.6-.2-1.5-1.3-1.5-1 0-1.4.9-1.5 1.5h2.8zM133.8 297.1l-.1-.7c-.3.4-.9.8-1.6.8-1.1 0-1.6-.7-1.6-1.5 0-1.3 1.1-2 3.2-2v-.1c0-.4-.1-1.2-1.2-1.2-.5 0-1 .2-1.4.4l-.2-.6c.4-.3 1.1-.5 1.7-.5 1.6 0 2 1.1 2 2.1v2c0 .5 0 .9.1 1.3h-.9zm-.1-2.7c-1 0-2.2.2-2.2 1.2 0 .6.4.9.9.9.7 0 1.1-.4 1.3-.9 0-.1.1-.2.1-.3v-.9zM136 296.1c.3.2.8.4 1.3.4.7 0 1-.3 1-.8s-.3-.7-1-1c-.9-.3-1.4-.9-1.4-1.5 0-.8.7-1.5 1.8-1.5.5 0 1 .2 1.3.3l-.2.7c-.2-.1-.6-.3-1.1-.3-.6 0-.9.3-.9.7 0 .4.3.6 1 .9.9.3 1.4.8 1.4 1.6 0 .9-.7 1.6-2 1.6-.6 0-1.1-.1-1.5-.4l.3-.7zM144.8 295.6v1.4h-.8l-.1-.9c-.2.4-.8 1-1.7 1-.8 0-1.8-.5-1.8-2.3v-3.1h1v2.9c0 1 .3 1.7 1.2 1.7.6 0 1.1-.4 1.3-.9.1-.1.1-.3.1-.5v-3.2h1v3.9zM146.4 293.5v-1.6h.8v1c.2-.7.8-1.1 1.5-1.1h.3v.9h-.3c-.7 0-1.1.5-1.3 1.2V297.1h-.9v-3.6zM150.4 294.6c0 1.3.8 1.8 1.8 1.8.7 0 1.1-.1 1.5-.3l.2.7c-.3.2-.9.3-1.7.3-1.6 0-2.6-1.1-2.6-2.6s.9-2.8 2.5-2.8c1.7 0 2.2 1.5 2.2 2.5v.4h-3.9zm2.8-.7c0-.6-.2-1.5-1.3-1.5-1 0-1.4.9-1.5 1.5h2.8zM155.1 296.1c.3.2.8.4 1.3.4.7 0 1-.3 1-.8s-.3-.7-1-1c-.9-.3-1.4-.9-1.4-1.5 0-.8.7-1.5 1.8-1.5.5 0 1 .2 1.3.3l-.2.7c-.2-.1-.6-.3-1.1-.3-.6 0-.9.3-.9.7 0 .4.3.6 1 .9.9.3 1.4.8 1.4 1.6 0 .9-.7 1.6-2 1.6-.6 0-1.1-.1-1.5-.4l.3-.7zM122.2 310.1l-.7-.7c-.6.6-1.3.8-2.1.8-1.4 0-2.2-1-2.2-2s.6-1.7 1.4-2.1c-.4-.5-.6-1-.6-1.5 0-.9.6-1.8 1.9-1.8.9 0 1.6.6 1.6 1.5 0 .8-.4 1.4-1.6 2 .6.7 1.3 1.5 1.8 2 .3-.5.6-1.2.7-2.1h.9c-.2 1.1-.5 2.1-1.1 2.7.4.4.8.8 1.2 1.3h-1.2zm-1.2-1.3c-.4-.5-1.2-1.4-2.1-2.3-.4.2-.9.7-.9 1.5s.6 1.5 1.5 1.5c.6 0 1.2-.3 1.5-.7zm-2.2-4.4c0 .5.2.9.6 1.3.7-.4 1.2-.8 1.2-1.4 0-.4-.2-.9-.8-.9-.7-.1-1 .4-1 1zM126.8 304.8l1 2.9c.2.5.3.9.4 1.3.1-.4.3-.9.4-1.3l1-2.9h1l-2.1 5.2h-.9l-2-5.2h1.2zM132 307.6c0 1.3.8 1.8 1.8 1.8.7 0 1.1-.1 1.5-.3l.2.7c-.3.2-.9.3-1.7.3-1.6 0-2.6-1.1-2.6-2.6s.9-2.8 2.5-2.8c1.7 0 2.2 1.5 2.2 2.5v.4H132zm2.8-.7c0-.6-.2-1.5-1.3-1.5-1 0-1.4.9-1.5 1.5h2.8zM136.9 306.5v-1.6h.8v1c.2-.7.8-1.1 1.5-1.1h.3v.9h-.3c-.7 0-1.1.5-1.3 1.2V310.1h-.9v-3.6zM141.6 303.4c0 .3-.2.6-.6.6-.3 0-.6-.3-.6-.6s.2-.6.6-.6c.4 0 .6.2.6.6zm-1.1 6.7v-5.2h1v5.2h-1zM143.2 310.1v-4.5h-.7v-.7h.7v-.3c0-1.4.8-2.3 2.3-2.3.5 0 1.1.2 1.3.3l-.3.7c-.2-.2-.6-.3-1.1-.3-1 0-1.3.7-1.3 1.5v.3h3v5.2h-.9v-4.5h-2.1v4.5h-.9zM149.3 307.6c0 1.3.8 1.8 1.8 1.8.7 0 1.1-.1 1.5-.3l.2.7c-.3.2-.9.3-1.7.3-1.6 0-2.6-1.1-2.6-2.6s.9-2.8 2.5-2.8c1.7 0 2.2 1.5 2.2 2.5v.4h-3.9zm2.8-.7c0-.6-.2-1.5-1.3-1.5-1 0-1.4.9-1.5 1.5h2.8zM154 309.1c.3.2.8.4 1.3.4.7 0 1-.3 1-.8s-.3-.7-1-1c-.9-.3-1.4-.9-1.4-1.5 0-.8.7-1.5 1.8-1.5.5 0 1 .2 1.3.3l-.2.7c-.2-.1-.6-.3-1.1-.3-.6 0-.9.3-.9.7 0 .4.3.6 1 .9.9.3 1.4.8 1.4 1.6 0 .9-.7 1.6-2 1.6-.6 0-1.1-.1-1.5-.4l.3-.7zM118.6 319.5v-1.6h.8v1c.2-.7.8-1.1 1.5-1.1h.3v.9h-.3c-.7 0-1.1.5-1.3 1.2V323.1h-.9v-3.6zM122.6 320.6c0 1.3.8 1.8 1.8 1.8.7 0 1.1-.1 1.5-.3l.2.7c-.3.2-.9.3-1.7.3-1.6 0-2.6-1.1-2.6-2.6s.9-2.8 2.5-2.8c1.7 0 2.2 1.5 2.2 2.5v.4h-3.9zm2.8-.7c0-.6-.2-1.5-1.3-1.5-1 0-1.4.9-1.5 1.5h2.8zM127.4 322.1c.3.2.8.4 1.3.4.7 0 1-.3 1-.8s-.3-.7-1-1c-.9-.3-1.4-.9-1.4-1.5 0-.8.7-1.5 1.8-1.5.5 0 1 .2 1.3.3l-.2.7c-.2-.1-.6-.3-1.1-.3-.6 0-.9.3-.9.7 0 .4.3.6 1 .9.9.3 1.4.8 1.4 1.6 0 .9-.7 1.6-2 1.6-.6 0-1.1-.1-1.5-.4l.3-.7zM136.5 320.4c0 1.9-1.3 2.8-2.6 2.8-1.4 0-2.5-1-2.5-2.7 0-1.8 1.1-2.8 2.6-2.8s2.5 1.1 2.5 2.7zm-4.1.1c0 1.1.7 2 1.6 2 .9 0 1.6-.9 1.6-2 0-.9-.4-2-1.6-2-1.1-.1-1.6 1-1.6 2zM142.1 321.6v1.4h-.8l-.1-.9c-.2.4-.8 1-1.7 1-.8 0-1.8-.5-1.8-2.3v-3.1h1v2.9c0 1 .3 1.7 1.2 1.7.6 0 1.1-.4 1.3-.9.1-.1.1-.3.1-.5v-3.2h1v3.9zM143.7 319.5v-1.6h.8v1c.2-.7.8-1.1 1.5-1.1h.3v.9h-.3c-.7 0-1.1.5-1.3 1.2V323.1h-.9v-3.6zM150.9 322.9c-.2.1-.8.3-1.5.3-1.6 0-2.6-1.1-2.6-2.7s1.1-2.8 2.8-2.8c.6 0 1.1.1 1.3.3l-.2.7c-.2-.1-.6-.2-1.1-.2-1.2 0-1.9.9-1.9 2 0 1.2.8 2 1.8 2 .5 0 .9-.1 1.2-.3l.2.7zM152.5 320.6c0 1.3.8 1.8 1.8 1.8.7 0 1.1-.1 1.5-.3l.2.7c-.3.2-.9.3-1.7.3-1.6 0-2.6-1.1-2.6-2.6s.9-2.8 2.5-2.8c1.7 0 2.2 1.5 2.2 2.5v.4h-3.9zm2.8-.7c0-.6-.2-1.5-1.3-1.5-1 0-1.4.9-1.5 1.5h2.8zM226.7 285.9c.5-.1 1.2-.2 1.8-.2 1 0 1.7.2 2.1.6.4.3.6.8.6 1.4 0 1-.6 1.6-1.4 1.9.6.2.9.7 1.1 1.5.2 1 .4 1.7.6 2h-1c-.1-.2-.3-.8-.5-1.7-.2-1-.6-1.4-1.5-1.4h-.9v3.2h-.9v-7.3zm1 3.3h1c1 0 1.6-.6 1.6-1.4 0-.9-.7-1.4-1.7-1.4-.5 0-.8 0-.9.1v2.7zM233.1 290.6c0 1.3.8 1.8 1.8 1.8.7 0 1.1-.1 1.5-.3l.2.7c-.3.2-.9.3-1.7.3-1.6 0-2.6-1.1-2.6-2.6s.9-2.8 2.5-2.8c1.7 0 2.2 1.5 2.2 2.5v.4h-3.9zm2.8-.6c0-.6-.2-1.5-1.3-1.5-1 0-1.4.9-1.5 1.5h2.8zM237.9 292.1c.3.2.8.4 1.3.4.7 0 1-.3 1-.8s-.3-.7-1-1c-.9-.3-1.4-.9-1.4-1.5 0-.8.7-1.5 1.8-1.5.5 0 1 .2 1.3.3l-.2.7c-.2-.1-.6-.3-1.1-.3-.6 0-.9.3-.9.7 0 .4.3.6 1 .9.9.3 1.4.8 1.4 1.6 0 .9-.7 1.6-2 1.6-.6 0-1.1-.1-1.5-.4l.3-.7zM247 290.4c0 1.9-1.3 2.8-2.6 2.8-1.4 0-2.5-1-2.5-2.7 0-1.8 1.1-2.8 2.6-2.8s2.5 1.1 2.5 2.7zm-4.1.1c0 1.1.7 2 1.6 2 .9 0 1.6-.9 1.6-2 0-.9-.4-2-1.6-2s-1.6 1-1.6 2zM252.6 291.7v1.4h-.8l-.1-.9c-.2.4-.8 1-1.7 1-.8 0-1.8-.5-1.8-2.3v-3.1h1v2.9c0 1 .3 1.7 1.2 1.7.6 0 1.1-.4 1.3-.9.1-.1.1-.3.1-.5v-3.2h1v3.9zM254.2 289.5v-1.6h.8v1c.2-.7.8-1.1 1.5-1.1h.3v.9h-.3c-.7 0-1.1.5-1.3 1.2V293.1h-.9v-3.6zM261.4 292.9c-.2.1-.8.3-1.5.3-1.6 0-2.6-1.1-2.6-2.7s1.1-2.8 2.8-2.8c.6 0 1.1.1 1.3.3l-.2.7c-.2-.1-.6-.2-1.1-.2-1.2 0-1.9.9-1.9 2 0 1.2.8 2 1.8 2 .5 0 .9-.1 1.2-.3l.2.7zM263 290.6c0 1.3.8 1.8 1.8 1.8.7 0 1.1-.1 1.5-.3l.2.7c-.3.2-.9.3-1.7.3-1.6 0-2.6-1.1-2.6-2.6s.9-2.8 2.5-2.8c1.7 0 2.2 1.5 2.2 2.5v.4H263zm2.8-.6c0-.6-.2-1.5-1.3-1.5-1 0-1.4.9-1.5 1.5h2.8zM226.9 302.6v-1.7h.9v.9c.4-.6 1-1 1.9-1 1.3 0 2.2 1.1 2.2 2.7 0 1.9-1.1 2.8-2.4 2.8-.7 0-1.3-.3-1.6-.8v2.8h-.9v-5.7zm.9 1.4v.4c.2.7.7 1.1 1.4 1.1 1 0 1.6-.8 1.6-2 0-1.1-.6-2-1.6-2-.6 0-1.3.5-1.4 1.2 0 .1-.1.3-.1.4v.9zM233 302.5v-1.6h.8v1c.2-.7.8-1.1 1.5-1.1h.3v.9h-.3c-.7 0-1.1.5-1.3 1.2V306.1h-1v-3.6zM241.2 303.4c0 1.9-1.3 2.8-2.6 2.8-1.4 0-2.5-1-2.5-2.7 0-1.8 1.1-2.8 2.6-2.8s2.5 1.1 2.5 2.7zm-4.2.1c0 1.1.7 2 1.6 2 .9 0 1.6-.9 1.6-2 0-.9-.4-2-1.6-2-1.1-.1-1.6 1-1.6 2zM242.7 300.9l1 2.9c.2.5.3.9.4 1.3.1-.4.3-.9.4-1.3l1-2.9h1l-2.1 5.2h-.9l-2-5.2h1.2zM248.6 299.4c0 .3-.2.6-.6.6-.3 0-.6-.3-.6-.6s.2-.6.6-.6c.4 0 .6.2.6.6zm-1.1 6.7v-5.2h1v5.2h-1zM254.6 298.4V306.1h-.9v-.9c-.3.6-.9 1-1.8 1-1.3 0-2.2-1.1-2.2-2.7 0-1.7 1.1-2.8 2.4-2.8.8 0 1.3.4 1.6.8v-3.1h.9zm-.9 4.6v-.4c-.1-.6-.7-1.1-1.4-1.1-1 0-1.6.9-1.6 2s.5 1.9 1.5 1.9c.6 0 1.2-.4 1.4-1.1V303zM256.7 303.6c0 1.3.8 1.8 1.8 1.8.7 0 1.1-.1 1.5-.3l.2.7c-.3.2-.9.3-1.7.3-1.6 0-2.6-1.1-2.6-2.6s.9-2.8 2.5-2.8c1.7 0 2.2 1.5 2.2 2.5v.4h-3.9zm2.8-.6c0-.6-.2-1.5-1.3-1.5-1 0-1.4.9-1.5 1.5h2.8zM266.2 298.4V306.1h-.9v-.9c-.3.6-.9 1-1.8 1-1.3 0-2.2-1.1-2.2-2.7 0-1.7 1.1-2.8 2.4-2.8.8 0 1.3.4 1.6.8v-3.1h.9zm-1 4.6v-.4c-.1-.6-.7-1.1-1.4-1.1-1 0-1.6.9-1.6 2s.5 1.9 1.5 1.9c.6 0 1.2-.4 1.4-1.1V303zM218.7 315.3v-1.4h.8v.8c.3-.5.8-1 1.6-1 .7 0 1.3.4 1.5 1.1.2-.3.4-.5.6-.7.3-.2.7-.4 1.2-.4.7 0 1.7.5 1.7 2.3v3.1h-.9v-3c0-1-.4-1.6-1.1-1.6-.5 0-1 .4-1.1.9 0 .1-.1.3-.1.5v3.2h-.9V316c0-.8-.4-1.4-1.1-1.4-.6 0-1 .5-1.2 1-.1.1-.1.3-.1.5v3.2h-.9v-4zM232.1 317.7v1.4h-.8l-.1-.9c-.2.4-.8 1-1.7 1-.8 0-1.8-.5-1.8-2.3v-3.1h1v2.9c0 1 .3 1.7 1.2 1.7.6 0 1.1-.4 1.3-.9.1-.1.1-.3.1-.5v-3.2h1v3.9zM233.6 318.1c.3.2.8.4 1.3.4.7 0 1-.3 1-.8s-.3-.7-1-1c-.9-.3-1.4-.9-1.4-1.5 0-.8.7-1.5 1.8-1.5.5 0 1 .2 1.3.3l-.2.7c-.2-.1-.6-.3-1.1-.3-.6 0-.9.3-.9.7 0 .4.3.6 1 .9.9.3 1.4.8 1.4 1.6 0 .9-.7 1.6-2 1.6-.6 0-1.1-.1-1.5-.4l.3-.7zM239.1 312.4v1.5h1.4v.7h-1.4v2.8c0 .7.2 1 .7 1 .2 0 .4 0 .6-.1v.7c-.2.1-.5.1-.8.1-.4 0-.8-.1-1-.4-.3-.3-.4-.7-.4-1.4v-2.9h-.8v-.7h.8v-1.3h.9zM244.4 316.7c0 1.3.8 1.8 1.8 1.8.7 0 1.1-.1 1.5-.3l.2.7c-.3.2-.9.3-1.7.3-1.6 0-2.6-1.1-2.6-2.6s.9-2.8 2.5-2.8c1.7 0 2.2 1.5 2.2 2.5v.4h-3.9zm2.8-.7c0-.6-.2-1.5-1.3-1.5-1 0-1.4.9-1.5 1.5h2.8zM249.7 313.9l.7 1.1c.2.3.4.6.5.9.2-.3.3-.6.5-.9l.7-1.1h1l-1.8 2.5 1.8 2.7H252l-.8-1.2-.6-.9-.6.9-.8 1.2h-1.1l1.9-2.7-1.8-2.6h1.5zM257.9 318.9c-.2.1-.8.3-1.5.3-1.6 0-2.6-1.1-2.6-2.7s1.1-2.8 2.8-2.8c.6 0 1.1.1 1.3.3l-.2.7c-.2-.1-.6-.2-1.1-.2-1.2 0-1.9.9-1.9 2 0 1.2.8 2 1.8 2 .5 0 .9-.1 1.2-.3l.2.7zM259.5 316.7c0 1.3.8 1.8 1.8 1.8.7 0 1.1-.1 1.5-.3l.2.7c-.3.2-.9.3-1.7.3-1.6 0-2.6-1.1-2.6-2.6s.9-2.8 2.5-2.8c1.7 0 2.2 1.5 2.2 2.5v.4h-3.9zm2.7-.7c0-.6-.2-1.5-1.3-1.5-1 0-1.4.9-1.5 1.5h2.8zM264.9 316.7c0 1.3.8 1.8 1.8 1.8.7 0 1.1-.1 1.5-.3l.2.7c-.3.2-.9.3-1.7.3-1.6 0-2.6-1.1-2.6-2.6s.9-2.8 2.5-2.8c1.7 0 2.2 1.5 2.2 2.5v.4h-3.9zm2.8-.7c0-.6-.2-1.5-1.3-1.5-1 0-1.4.9-1.5 1.5h2.8zM274.3 311.4V319.1h-.9v-.9c-.3.6-.9 1-1.8 1-1.3 0-2.2-1.1-2.2-2.7 0-1.7 1.1-2.8 2.4-2.8.8 0 1.3.4 1.6.8v-3.1h.9zm-.9 4.6v-.4c-.1-.6-.7-1.1-1.4-1.1-1 0-1.6.9-1.6 2s.5 1.9 1.5 1.9c.6 0 1.2-.4 1.4-1.1V316zM238.2 330.7v1.4h-.8l-.1-.9c-.2.4-.8 1-1.7 1-.8 0-1.8-.5-1.8-2.3v-3.1h1v2.9c0 1 .3 1.7 1.2 1.7.6 0 1.1-.4 1.3-.9.1-.1.1-.3.1-.5v-3.2h1v3.9zM239.6 331.1c.3.2.8.4 1.3.4.7 0 1-.3 1-.8s-.3-.7-1-1c-.9-.3-1.4-.9-1.4-1.5 0-.8.7-1.5 1.8-1.5.5 0 1 .2 1.3.3l-.2.7c-.2-.1-.6-.3-1.1-.3-.6 0-.9.3-.9.7 0 .4.3.6 1 .9.9.3 1.4.8 1.4 1.6 0 .9-.7 1.6-2 1.6-.6 0-1.1-.1-1.5-.4l.3-.7zM247 332.1l-.1-.7c-.3.4-.9.8-1.6.8-1.1 0-1.6-.7-1.6-1.5 0-1.3 1.1-2 3.2-2v-.1c0-.4-.1-1.2-1.2-1.2-.5 0-1 .2-1.4.4l-.2-.6c.4-.3 1.1-.5 1.7-.5 1.6 0 2 1.1 2 2.1v2c0 .5 0 .9.1 1.3h-.9zm-.2-2.7c-1 0-2.2.2-2.2 1.2 0 .6.4.9.9.9.7 0 1.1-.4 1.3-.9 0-.1.1-.2.1-.3v-.9zM253.8 326.9v4.4c0 1.2-.2 1.9-.7 2.4-.5.5-1.2.6-1.9.6-.6 0-1.3-.2-1.7-.4l.2-.7c.3.2.9.4 1.5.4 1 0 1.7-.5 1.7-1.8v-.6c-.3.5-.9.9-1.7.9-1.3 0-2.2-1.1-2.2-2.6 0-1.8 1.2-2.8 2.4-2.8.9 0 1.4.5 1.6.9v-.8h.8zm-1 2c0-.2 0-.3-.1-.4-.2-.6-.6-1-1.3-1-.9 0-1.6.8-1.6 2 0 1 .5 1.9 1.5 1.9.6 0 1.1-.4 1.3-1 .1-.2.1-.3.1-.5v-1zM255.9 329.7c0 1.3.8 1.8 1.8 1.8.7 0 1.1-.1 1.5-.3l.2.7c-.3.2-.9.3-1.7.3-1.6 0-2.6-1.1-2.6-2.6s.9-2.8 2.5-2.8c1.7 0 2.2 1.5 2.2 2.5v.4h-3.9zm2.8-.7c0-.6-.2-1.5-1.3-1.5-1 0-1.4.9-1.5 1.5h2.8zM307.8 223.3c.4.3 1 .5 1.7.5 1 0 1.5-.5 1.5-1.2s-.4-1.1-1.4-1.5c-1.2-.4-1.9-1-1.9-2.1s.9-2 2.4-2c.7 0 1.3.2 1.6.4l-.3.8c-.2-.1-.7-.3-1.4-.3-1 0-1.4.6-1.4 1.1 0 .7.4 1 1.5 1.4 1.2.5 1.9 1.1 1.9 2.1 0 1.1-.8 2.1-2.6 2.1-.7 0-1.5-.2-1.9-.5l.3-.8zM314.4 217.7v1.5h1.4v.7h-1.4v2.8c0 .7.2 1 .7 1 .2 0 .4 0 .6-.1v.7c-.2.1-.5.1-.8.1-.4 0-.8-.1-1-.4-.3-.3-.4-.7-.4-1.4v-2.9h-.8v-.7h.8v-1.3h.9zM321.5 221.8c0 1.9-1.3 2.8-2.6 2.8-1.4 0-2.5-1-2.5-2.7 0-1.8 1.1-2.8 2.6-2.8s2.5 1.1 2.5 2.7zm-4.2 0c0 1.1.7 2 1.6 2 .9 0 1.6-.9 1.6-2 0-.9-.4-2-1.6-2s-1.6 1-1.6 2zM322.7 220.8v-1.6h.8v1c.2-.7.8-1.1 1.5-1.1h.3v.9h-.3c-.7 0-1.1.5-1.3 1.2V224.4h-.9v-3.6zM326.7 222c0 1.3.8 1.8 1.8 1.8.7 0 1.1-.1 1.5-.3l.2.7c-.3.2-.9.3-1.7.3-1.6 0-2.6-1.1-2.6-2.6s.9-2.8 2.5-2.8c1.7 0 2.2 1.5 2.2 2.5v.4h-3.9zm2.8-.7c0-.6-.2-1.5-1.3-1.5-1 0-1.4.9-1.5 1.5h2.8zM331.4 223.5c.3.2.8.4 1.3.4.7 0 1-.3 1-.8s-.3-.7-1-1c-.9-.3-1.4-.9-1.4-1.5 0-.8.7-1.5 1.8-1.5.5 0 1 .2 1.3.3l-.2.7c-.2-.1-.6-.3-1.1-.3-.6 0-.9.3-.9.7 0 .4.3.6 1 .9.9.3 1.4.8 1.4 1.6 0 .9-.7 1.6-2 1.6-.6 0-1.1-.1-1.5-.4l.3-.7zM342.7 216.8V224.5h-.9v-.9c-.3.6-.9 1-1.8 1-1.3 0-2.2-1.1-2.2-2.7 0-1.7 1.1-2.8 2.4-2.8.8 0 1.3.4 1.6.8v-3.1h.9zm-1 4.5v-.4c-.1-.6-.7-1.1-1.4-1.1-1 0-1.6.9-1.6 2s.5 1.9 1.5 1.9c.6 0 1.2-.4 1.4-1.1v-1.3zM347.2 224.4l-.1-.7c-.3.4-.9.8-1.6.8-1.1 0-1.6-.7-1.6-1.5 0-1.3 1.1-2 3.2-2 0-.4-.1-1.2-1.2-1.2-.5 0-1 .2-1.4.4l-.2-.6c.4-.3 1.1-.5 1.7-.5 1.6 0 2 1.1 2 2.1v2c0 .5 0 .9.1 1.3h-.9zm-.2-2.6c-1 0-2.2.2-2.2 1.2 0 .6.4.9.9.9.7 0 1.1-.4 1.3-.9 0-.1.1-.2.1-.3v-.9zM350.6 217.7v1.5h1.4v.7h-1.4v2.8c0 .7.2 1 .7 1 .2 0 .4 0 .6-.1v.7c-.2.1-.5.1-.8.1-.4 0-.8-.1-1-.4-.3-.3-.4-.7-.4-1.4v-2.9h-.8v-.7h.8v-1.3h.9zM356 224.4l-.1-.7c-.3.4-.9.8-1.6.8-1.1 0-1.6-.7-1.6-1.5 0-1.3 1.1-2 3.2-2 0-.4-.1-1.2-1.2-1.2-.5 0-1 .2-1.4.4l-.2-.6c.4-.3 1.1-.5 1.7-.5 1.6 0 2 1.1 2 2.1v2c0 .5 0 .9.1 1.3h-.9zm-.2-2.6c-1 0-2.2.2-2.2 1.2 0 .6.4.9.9.9.7 0 1.1-.4 1.3-.9 0-.1.1-.2.1-.3v-.9zM313.7 237.5l-.7-.7c-.6.6-1.3.8-2.1.8-1.4 0-2.2-1-2.2-2s.6-1.7 1.4-2.1c-.4-.5-.6-1-.6-1.5 0-.9.6-1.8 1.9-1.8.9 0 1.6.6 1.6 1.5 0 .8-.4 1.4-1.6 2 .6.7 1.3 1.5 1.8 2 .3-.5.6-1.2.7-2.1h.9c-.2 1.1-.5 2.1-1.1 2.7.4.4.8.8 1.2 1.3h-1.2zm-1.1-1.3c-.4-.5-1.2-1.4-2.1-2.3-.4.2-.9.7-.9 1.5s.6 1.5 1.5 1.5c.6 0 1.2-.3 1.5-.7zm-2.2-4.5c0 .5.2.9.6 1.3.7-.4 1.2-.8 1.2-1.4 0-.4-.2-.9-.8-.9-.7 0-1 .5-1 1zM318 233.9v-1.7h.9v.9c.4-.6 1-1 1.9-1 1.3 0 2.2 1.1 2.2 2.7 0 1.9-1.1 2.8-2.4 2.8-.7 0-1.3-.3-1.6-.8v2.8h-1v-5.7zm.9 1.4v.4c.2.7.7 1.1 1.4 1.1 1 0 1.6-.8 1.6-2 0-1.1-.6-2-1.6-2-.7 0-1.3.5-1.4 1.2 0 .1-.1.3-.1.4v.9zM324.2 233.8v-1.6h.8v1c.2-.7.8-1.1 1.5-1.1h.3v.9h-.3c-.7 0-1.1.5-1.3 1.2V237.4h-.9v-3.6zM332.3 234.8c0 1.9-1.3 2.8-2.6 2.8-1.4 0-2.5-1-2.5-2.7 0-1.8 1.1-2.8 2.6-2.8s2.5 1.1 2.5 2.7zm-4.1 0c0 1.1.7 2 1.6 2 .9 0 1.6-.9 1.6-2 0-.9-.4-2-1.6-2s-1.6 1-1.6 2zM333.8 232.2l1 2.9c.2.5.3.9.4 1.3.1-.4.3-.9.4-1.3l1-2.9h1l-2.1 5.2h-.9l-2-5.2h1.2zM339.7 230.7c0 .3-.2.6-.6.6-.3 0-.6-.3-.6-.6s.2-.6.6-.6c.4 0 .6.3.6.6zm-1 6.8v-5.2h1v5.2h-1zM345.8 229.8V237.5h-.9v-.9c-.3.6-.9 1-1.8 1-1.3 0-2.2-1.1-2.2-2.7 0-1.7 1.1-2.8 2.4-2.8.8 0 1.3.4 1.6.8v-3.1h.9zm-1 4.5v-.4c-.1-.6-.7-1.1-1.4-1.1-1 0-1.6.9-1.6 2s.5 1.9 1.5 1.9c.6 0 1.2-.4 1.4-1.1v-1.3zM347.9 235c0 1.3.8 1.8 1.8 1.8.7 0 1.1-.1 1.5-.3l.2.7c-.3.2-.9.3-1.7.3-1.6 0-2.6-1.1-2.6-2.6s.9-2.8 2.5-2.8c1.7 0 2.2 1.5 2.2 2.5v.4h-3.9zm2.8-.7c0-.6-.2-1.5-1.3-1.5-1 0-1.4.9-1.5 1.5h2.8zM352.6 236.5c.3.2.8.4 1.3.4.7 0 1-.3 1-.8s-.3-.7-1-1c-.9-.3-1.4-.9-1.4-1.5 0-.8.7-1.5 1.8-1.5.5 0 1 .2 1.3.3l-.2.7c-.2-.1-.6-.3-1.1-.3-.6 0-.9.3-.9.7 0 .4.3.6 1 .9.9.3 1.4.8 1.4 1.6 0 .9-.7 1.6-2 1.6-.6 0-1.1-.1-1.5-.4l.3-.7zM312.2 249.5c.3.2.8.4 1.3.4.7 0 1-.3 1-.8s-.3-.7-1-1c-.9-.3-1.4-.9-1.4-1.5 0-.8.7-1.5 1.8-1.5.5 0 1 .2 1.3.3l-.2.7c-.2-.1-.6-.3-1.1-.3-.6 0-.9.3-.9.7 0 .4.3.6 1 .9.9.3 1.4.8 1.4 1.6 0 .9-.7 1.6-2 1.6-.6 0-1.1-.1-1.5-.4l.3-.7zM319.5 250.5l-.1-.7c-.3.4-.9.8-1.6.8-1.1 0-1.6-.7-1.6-1.5 0-1.3 1.1-2 3.2-2v-.1c0-.4-.1-1.2-1.2-1.2-.5 0-1 .2-1.4.4l-.2-.6c.4-.3 1.1-.5 1.7-.5 1.6 0 2 1.1 2 2.1v2c0 .5 0 .9.1 1.3h-.9zm-.1-2.7c-1 0-2.2.2-2.2 1.2 0 .6.4.9.9.9.7 0 1.1-.4 1.3-.9 0-.1.1-.2.1-.3v-.9zM321.9 250.5V246h-.7v-.7h.7v-.3c0-.7.2-1.4.6-1.8.4-.3.8-.5 1.3-.5.3 0 .6.1.8.2l-.1.7c-.1-.1-.3-.1-.6-.1-.8 0-1 .7-1 1.5v.3h1.3v.7h-1.3v4.5h-1zM325.4 248c0 1.3.8 1.8 1.8 1.8.7 0 1.1-.1 1.5-.3l.2.7c-.3.2-.9.3-1.7.3-1.6 0-2.6-1.1-2.6-2.6s.9-2.8 2.5-2.8c1.7 0 2.2 1.5 2.2 2.5v.4h-3.9zm2.8-.7c0-.6-.2-1.5-1.3-1.5-1 0-1.4.9-1.5 1.5h2.8zM334 250.3c-.2.1-.8.3-1.5.3-1.6 0-2.6-1.1-2.6-2.7s1.1-2.8 2.8-2.8c.6 0 1.1.1 1.3.3l-.2.7c-.2-.1-.6-.2-1.1-.2-1.2 0-1.9.9-1.9 2 0 1.2.8 2 1.8 2 .5 0 .9-.1 1.2-.3l.2.7zM339.8 247.8c0 1.9-1.3 2.8-2.6 2.8-1.4 0-2.5-1-2.5-2.7 0-1.8 1.1-2.8 2.6-2.8s2.5 1.1 2.5 2.7zm-4.1 0c0 1.1.7 2 1.6 2 .9 0 1.6-.9 1.6-2 0-.9-.4-2-1.6-2-1.1 0-1.6 1-1.6 2zM342.1 243.7c0 .3-.2.6-.6.6-.3 0-.6-.3-.6-.6s.2-.6.6-.6c.4 0 .6.3.6.6zm-1.1 6.8v-5.2h1v5.2h-1zM343.6 246.6v-1.4h.8l.1.9c.3-.5.9-1 1.7-1 .7 0 1.9.4 1.9 2.2v3.1h-1v-3c0-.8-.3-1.5-1.2-1.5-.6 0-1.1.4-1.3 1 0 .1-.1.3-.1.4v3.2h-1v-3.9zM349.5 249.5c.3.2.8.4 1.3.4.7 0 1-.3 1-.8s-.3-.7-1-1c-.9-.3-1.4-.9-1.4-1.5 0-.8.7-1.5 1.8-1.5.5 0 1 .2 1.3.3l-.2.7c-.2-.1-.6-.3-1.1-.3-.6 0-.9.3-.9.7 0 .4.3.6 1 .9.9.3 1.4.8 1.4 1.6 0 .9-.7 1.6-2 1.6-.6 0-1.1-.1-1.5-.4l.3-.7zM312.6 263.5l-.1-.7c-.3.4-.9.8-1.6.8-1.1 0-1.6-.7-1.6-1.5 0-1.3 1.1-2 3.2-2v-.1c0-.4-.1-1.2-1.2-1.2-.5 0-1 .2-1.4.4l-.2-.6c.4-.3 1.1-.5 1.7-.5 1.6 0 2 1.1 2 2.1v2c0 .5 0 .9.1 1.3h-.9zm-.2-2.7c-1 0-2.2.2-2.2 1.2 0 .6.4.9.9.9.7 0 1.1-.4 1.3-.9 0-.1.1-.2.1-.3v-.9zM316 256.7v1.5h1.4v.7H316v2.8c0 .7.2 1 .7 1 .2 0 .4 0 .6-.1v.7c-.2.1-.5.1-.8.1-.4 0-.8-.1-1-.4-.3-.3-.4-.7-.4-1.4v-2.9h-.8v-.7h.8v-1l.9-.3zM320.7 259.9v-1.6h.8v1c.2-.7.8-1.1 1.5-1.1h.3v.9h-.3c-.7 0-1.1.5-1.3 1.2V263.5h-.9v-3.6zM327.1 263.5l-.1-.7c-.3.4-.9.8-1.6.8-1.1 0-1.6-.7-1.6-1.5 0-1.3 1.1-2 3.2-2v-.1c0-.4-.1-1.2-1.2-1.2-.5 0-1 .2-1.4.4l-.2-.6c.4-.3 1.1-.5 1.7-.5 1.6 0 2 1.1 2 2.1v2c0 .5 0 .9.1 1.3h-.9zm-.1-2.7c-1 0-2.2.2-2.2 1.2 0 .6.4.9.9.9.7 0 1.1-.4 1.3-.9 0-.1.1-.2.1-.3v-.9zM329.4 259.6v-1.4h.8l.1.9c.3-.5.9-1 1.7-1 .7 0 1.9.4 1.9 2.2v3.1h-1v-3c0-.8-.3-1.5-1.2-1.5-.6 0-1.1.4-1.3 1 0 .1-.1.3-.1.4v3.2h-1v-3.9zM340 255.8V263.5h-.9v-.9c-.3.6-.9 1-1.8 1-1.3 0-2.2-1.1-2.2-2.7 0-1.7 1.1-2.8 2.4-2.8.8 0 1.3.4 1.6.8v-3.1h.9zm-1 4.6v-.4c-.1-.6-.7-1.1-1.4-1.1-1 0-1.6.9-1.6 2s.5 1.9 1.5 1.9c.6 0 1.2-.4 1.4-1.1v-1.3zM346.3 260.8c0 1.9-1.3 2.8-2.6 2.8-1.4 0-2.5-1-2.5-2.7 0-1.8 1.1-2.8 2.6-2.8s2.5 1.1 2.5 2.7zm-4.2.1c0 1.1.7 2 1.6 2 .9 0 1.6-.9 1.6-2 0-.9-.4-2-1.6-2s-1.6 1-1.6 2zM347.5 259.6v-1.4h.8v.8c.3-.5.8-1 1.6-1 .7 0 1.3.4 1.5 1.1.2-.3.4-.5.6-.7.3-.2.7-.4 1.2-.4.7 0 1.7.5 1.7 2.3v3.1h-.9v-3c0-1-.4-1.6-1.1-1.6-.5 0-1 .4-1.1.9 0 .1-.1.3-.1.5v3.2h-.9v-3.1c0-.8-.4-1.4-1.1-1.4-.6 0-1 .5-1.2 1-.1.1-.1.3-.1.5v3.2h-.9v-4zM321.7 172c.4.3 1.1.5 1.7.5 1 0 1.6-.5 1.6-1.3 0-.7-.4-1.1-1.4-1.5-1.2-.4-2-1.1-2-2.1 0-1.2 1-2 2.4-2 .8 0 1.3.2 1.7.4l-.3.8c-.2-.1-.7-.4-1.4-.4-1 0-1.4.6-1.4 1.1 0 .7.5 1 1.5 1.4 1.3.5 1.9 1.1 1.9 2.2 0 1.2-.9 2.2-2.6 2.2-.7 0-1.5-.2-1.9-.5l.2-.8zM328.6 170.8l-.8 2.4h-1l2.5-7.5h1.2l2.6 7.5h-1l-.8-2.4h-2.7zm2.4-.8l-.7-2.2c-.2-.5-.3-.9-.4-1.4-.1.4-.2.9-.4 1.4l-.7 2.2h2.2zM334.1 165.7h4v.8H335v2.5h2.8v.8H335v3.4h-1v-7.5zM343.4 169.6h-2.9v2.7h3.2v.8h-4.2v-7.5h4v.8h-3.1v2.4h2.9v.8zM350.2 172.9c-.4.2-1.1.4-2 .4-2.1 0-3.7-1.3-3.7-3.8 0-2.3 1.6-3.9 3.9-3.9.9 0 1.5.2 1.8.3l-.2.8c-.4-.2-.9-.3-1.5-.3-1.8 0-2.9 1.1-2.9 3.1 0 1.8 1.1 3 2.9 3 .6 0 1.2-.1 1.6-.3l.1.7zM357.6 169.3c0 2.6-1.6 3.9-3.5 3.9-2 0-3.4-1.5-3.4-3.8 0-2.4 1.5-3.9 3.5-3.9 2.1 0 3.4 1.6 3.4 3.8zm-5.8.1c0 1.6.9 3 2.4 3s2.4-1.4 2.4-3.1c0-1.5-.8-3-2.4-3-1.6 0-2.4 1.5-2.4 3.1zM359.8 165.7v7.5h-1v-7.5h1zM361.5 173.1v-7.5h1.1l2.4 3.8c.6.9 1 1.7 1.3 2.4-.1-1-.1-1.9-.1-3.1v-3.1h.9v7.5h-1l-2.4-3.8c-.5-.8-1-1.7-1.4-2.5.1.9.1 1.8.1 3.1v3.2h-.9zM368.7 172c.4.3 1.1.5 1.7.5 1 0 1.6-.5 1.6-1.3 0-.7-.4-1.1-1.4-1.5-1.2-.4-2-1.1-2-2.1 0-1.2 1-2 2.4-2 .8 0 1.3.2 1.7.4l-.3.8c-.2-.1-.7-.4-1.4-.4-1 0-1.4.6-1.4 1.1 0 .7.5 1 1.5 1.4 1.3.5 1.9 1.1 1.9 2.2 0 1.2-.9 2.2-2.6 2.2-.7 0-1.5-.2-1.9-.5l.2-.8z"/></svg>