<svg xmlns="http://www.w3.org/2000/svg" xmlns:xlink="http://www.w3.org/1999/xlink" viewBox="0 0 398 333" enable-background="new 0 0 398 333"><path fill="#919191" d="M147.4 315.9h-136v-76.4c0-4.1 3.3-7.4 7.4-7.4H140c4.1 0 7.4 3.3 7.4 7.4v76.4z"/><path d="M146 316.2H12.8v-75.3c0-4.1 3.3-7.4 7.4-7.4h118.5c4.1 0 7.4 3.3 7.4 7.4v75.3z"/><path fill="#F7944B" d="M18.2 239h122.3v72H18.2z"/><defs><path id="a" d="M18.2 239h122.3v72H18.2z"/></defs><clipPath id="b"><use xlink:href="#a" overflow="visible"/></clipPath><g clip-path="url(#b)"><path fill="#513432" d="M103.7 296.2c-6.3-3.3-5.7-8.3-4.7-11.2 1-3.1 2.1-6.2 2.1-9.7v-9.1c0-12.4-9.7-22.4-21.7-22.4s-21.7 10.1-21.7 22.4v9.1c0 3.5 1.1 6.6 2.1 9.7.9 2.9 1.5 7.9-4.7 11.2-1 .5-1.6 1.7-1 2.6 2.4 3.9 9.5 12.7 25.3 12.7s22.9-8.8 25.3-12.7c.6-.9 0-2-1-2.6z"/><path fill="#5593D7" d="M96.9 318c0-11.6-7.8-21-17.5-21s-17.5 9.4-17.5 21c0 5.8 7.8 10.5 17.5 10.5s17.5-4.7 17.5-10.5z"/><path fill="#F7944B" d="M86.2 298.7c-2.1-1.1-4.4-1.6-6.8-1.6s-4.7.6-6.8 1.6c-1 2.9 0 12.4 6.8 12.4 6.8-.1 7.8-9.5 6.8-12.4z"/><path opacity=".1" d="M96.9 318c0-11.6-7.8-21-17.5-21v31.5c9.7 0 17.5-4.7 17.5-10.5z"/><path fill="#F7C1A1" d="M86.2 298.7c-2.1-1.1-4.4-1.6-6.8-1.6-2.4 0-4.7.6-6.8 1.6.7 3.1 3.5 5.4 6.8 5.4 3.3-.1 6.1-2.4 6.8-5.4zM75.9 285.9h7v13.6h-7z"/><path fill="#F5B090" d="M82.9 297.4v-11.5h-3.5V304c3.3 0 6.1-2.3 6.8-5.4-1.1-.5-2.2-.9-3.3-1.2z"/><ellipse fill="#F7C1A1" cx="96.9" cy="271.5" rx="2.8" ry="5.3"/><path fill="#F7C1A1" d="M79.4 248c-9.7 0-17.5 8.2-17.5 18.2v9.1c0 10.1 7.8 18.2 17.5 18.2s17.5-8.2 17.5-18.2v-9.1c0-10-7.8-18.2-17.5-18.2z"/><path fill="#F5B090" d="M79.4 248c7.7 0 14 8.2 14 18.2v9.1c0 10.1-6.3 18.2-14 18.2 9.7 0 17.5-8.2 17.5-18.2v-9.1c0-10-7.8-18.2-17.5-18.2z"/><path fill="#513432" d="M79.4 243.8c-12 0-21.7 10.1-21.7 22.4v9.1c0 3.5 1.1 6.6 2.1 9.7.4 1.3.8 3 .5 4.9h5.1c-1.4-3.9-.9-16.7 7.2-20.5 8.1-3.8 13.6-12.8 13.6-12.8 5 2.3 10.7 9.6 10.7 9.6h4.2c0-12.3-9.7-22.4-21.7-22.4z"/></g><path fill="#919191" d="M150.6 323.2H8.2l-6.3-3.6v-3.2h155v3.2z"/><path fill="#262626" d="M150.6 323.2H8.2l-6.3-2.6v-1.5h155v1.5z"/><path stroke="#F7944B" stroke-width="17" stroke-miterlimit="10" d="M77.1 213.1c0-40.1 25.8-74.2 61.7-86.7" fill="none"/><path fill="#F7944B" d="M136.9 149.1l32-27.8-40.1-13.8z"/><path d="M52.6 198.7l-.1 3-12.2 6.9v.1h4.2l7.8.3-.1 2.2-15-.6.1-3 12.2-6.9v-.1h-4l-7.8-.3.1-2.2 14.8.6zM54.1 190.6c-.3 1.7-1 3-2.2 3.8-1.2.8-2.7 1.1-4.4.8-1.8-.3-3.2-1-4.1-2.1-.9-1.1-1.2-2.4-.9-4 .3-1.5.9-2.6 1.9-3.3 1-.7 2.3-.9 3.9-.7l1.3.2-1.3 7.4c1.1.2 2 0 2.7-.5.7-.5 1.1-1.2 1.3-2.2.1-.7.2-1.3.1-1.9 0-.6-.1-1.2-.3-1.9l1.9.3c.2.6.3 1.2.3 1.9s0 1.4-.2 2.2zm-9.8-1.3c-.1.8 0 1.4.4 1.9s1 .9 2 1.2l.9-5.1c-.9-.1-1.7 0-2.2.3-.7.4-1 1-1.1 1.7zM54.7 179.4c.2-.6.2-1.2.2-1.8l1.8.5v1.1c0 .4-.1.9-.2 1.3-.6 2.2-2 3-4.4 2.4l-5.9-1.6-.4 1.5-1-.3-.4-1.8-2.1-1.4.4-1.4 2.4.7.8-3.1 1.8.5-.8 3.1 5.9 1.6c.6.2 1 .1 1.4-.1.2-.5.4-.8.5-1.2zM60.7 167.6l-5.5-.6c-.6 0-1.9-.2-4-.5v.1c1.6 1 2.7 1.8 3.3 2.3l4.3 3.3-1 2.5-11.7-1.2.9-2.3 5.7.7c1.4.2 2.6.4 3.6.7v-.1c-.4-.2-.9-.6-1.5-.9-.5-.4-1-.7-1.2-.9l-4.9-3.8 1-2.5 6.2.7c.3 0 .9.1 1.6.2.7.1 1.2.2 1.6.3v-.1c-.7-.4-1.7-1.1-3-2l-4.7-3.4.9-2.2 9.4 7.2-1 2.5zM63.7 149.4c1.6.9 2.6 2 3.1 3.4.4 1.3.2 2.7-.6 4.2-.5.9-1.2 1.6-2 2.1s-1.7.7-2.7.6c-1-.1-2-.4-3-1-1.6-.9-2.6-2-3.1-3.3s-.2-2.7.6-4.2c.8-1.4 1.9-2.3 3.3-2.6 1.4-.4 2.9-.1 4.4.8zm-4 7.2c2.3 1.3 3.9 1.1 4.8-.6.9-1.7.3-3.1-2-4.4-2.3-1.3-3.9-1.1-4.8.6-.5.9-.6 1.7-.2 2.4s1.1 1.3 2.2 2zM64 138.8c.3-.4.5-.7.8-.9l1.7 1.5c-.3.2-.5.5-.7.8-.6.8-.7 1.6-.6 2.5s.7 1.6 1.5 2.1l4.8 3.4-1.4 2-9.3-6.5 1.1-1.5 1.8.9.1-.1c-.3-.7-.5-1.4-.5-2.1 0-.8.3-1.5.7-2.1zM72.1 137.4l-.4-2.1-.5-5 1.8-2.1.7 6.6 8.1.5-1.8 2.2-6.1-.5v1.7l3 2.5-1.6 1.8L63 132.7l1.6-1.8 5.9 5.1 1.6 1.4zM91.3 116.9c1.6 1.9 2.2 3.8 2 5.7-.2 1.9-1.3 3.6-3.3 5.3l-3.2 2.7-9.6-11.6 3.6-3c1.8-1.5 3.7-2.2 5.5-2.1 1.8.2 3.5 1.2 5 3zm-2 1.7c-2.3-2.8-4.7-3.1-7.3-.9l-1.6 1.4 6.9 8.4 1.3-1.1c2.9-2.4 3.1-5 .7-7.8zM104.3 117.6l-1.3-1.1h-.1c-.1.9-.3 1.6-.6 2.1s-.9 1-1.6 1.5c-.9.6-1.8.8-2.7.6s-1.6-.7-2.2-1.7c-.6-1-.7-2-.3-2.9.4-1 1.4-2 2.8-2.9l1.6-1.1-.3-.5c-.4-.6-.8-1-1.3-1.1-.5-.1-1 0-1.6.4-.5.3-.9.7-1.3 1.1-.4.4-.7.9-1 1.3l-1.6-1c.3-.6.8-1.2 1.3-1.7s1.1-1 1.6-1.3c1.2-.8 2.3-1.1 3.3-1 1 .1 1.8.8 2.5 1.9l4.1 6.5-1.3.9zm-4 .5c.7-.5 1.2-1.1 1.4-1.7.2-.7 0-1.4-.4-2.2l-.5-.8-1.2.8c-.9.6-1.5 1.2-1.8 1.8-.3.6-.2 1.1.2 1.7.3.4.6.7 1 .8.4.1.8-.1 1.3-.4zM111.4 111.8c.5-.3 1-.6 1.4-1l.8 1.6c-.2.2-.4.5-.8.7s-.7.5-1.1.7c-2 1-3.6.5-4.7-1.7l-2.8-5.4-1.4.7-.5-.9 1.1-1.5-.4-2.5 1.3-.7 1.1 2.2 2.9-1.5.8 1.6-2.9 1.5 2.8 5.4c.3.5.6.8 1 .9.5.1.9.1 1.4-.1zM122.1 109l-1-1.3h-.1c-.3.8-.6 1.5-1 1.9-.4.4-1 .8-1.8 1.1-1 .4-2 .5-2.8.1-.8-.3-1.4-1-1.8-2-.4-1.1-.4-2.1.2-2.9.6-.9 1.7-1.7 3.3-2.4l1.8-.8-.2-.6c-.3-.7-.6-1.1-1.1-1.3-.4-.2-1-.2-1.7.1-.5.2-1 .5-1.5.9-.4.4-.8.7-1.2 1.1l-1.4-1.3c.5-.5 1-1 1.6-1.4.6-.4 1.2-.8 1.8-1 1.3-.5 2.5-.6 3.4-.3.9.3 1.6 1.1 2.1 2.3l2.8 7.1-1.4.7zm-4-.1c.8-.3 1.4-.8 1.7-1.5.3-.7.3-1.4 0-2.2l-.4-.9-1.3.6c-1 .5-1.7.9-2.1 1.4-.4.5-.4 1.1-.1 1.7.2.5.5.8.9.9.3.2.8.2 1.3 0zM237 318.3c.5 1 .5 1.9 0 2.8-.5.9-1.4 1.6-2.7 2.3-1.4.7-2.6 1-3.6 1l-.9-1.9c1.5 0 2.7-.3 3.8-.8 1.3-.6 1.8-1.4 1.4-2.2-.1-.3-.3-.4-.5-.5-.2-.1-.6-.2-1-.2s-1 0-1.7.1c-1.4.1-2.4 0-3-.2s-1.1-.7-1.5-1.5c-.4-.9-.4-1.7.1-2.5s1.3-1.5 2.5-2.1c1.2-.6 2.5-.9 3.8-.9l.1 2c-1.3.1-2.4.3-3.1.7-1.1.6-1.6 1.2-1.2 1.8.2.3.4.5.8.6.4.1 1.2.1 2.4 0 1-.1 1.8-.1 2.3 0 .5.1.9.3 1.3.5.2.1.5.5.7 1zM247.7 315.6l-1.3-1.1h-.1c-.1.9-.3 1.6-.6 2.1s-.9 1-1.6 1.5c-.9.6-1.8.8-2.7.6-.9-.2-1.6-.7-2.2-1.7-.6-1-.7-2-.3-2.9.4-1 1.4-1.9 2.8-2.9l1.6-1.1-.3-.5c-.4-.6-.8-1-1.3-1.1-.5-.1-1 0-1.6.4-.5.3-.9.7-1.3 1.1-.4.4-.7.9-1 1.3l-1.6-1c.3-.6.8-1.2 1.3-1.7s1.1-1 1.6-1.3c1.2-.8 2.3-1.1 3.3-.9s1.8.8 2.5 1.9l4.1 6.5-1.3.8zm-4 .6c.7-.5 1.2-1 1.4-1.7.2-.7 0-1.4-.4-2.2l-.5-.8-1.2.8c-.9.6-1.5 1.2-1.8 1.8-.3.6-.2 1.1.2 1.7.3.4.6.7 1 .8.4 0 .8-.1 1.3-.4zM251.1 301.1l-2.2 1.7 5.9 7.5-1.9 1.5-5.9-7.5-1.5 1.2-.7-.9 1-1.7-.5-.6c-.8-1.1-1.2-2-1.1-2.9s.7-1.7 1.7-2.5c.7-.5 1.4-.9 2.2-1.2l.6 1.8c-.6.2-1.1.5-1.5.8-.4.3-.6.7-.6 1.1 0 .4.2.9.6 1.4l.5.6 2.2-1.7 1.2 1.4zM262.9 303.5c-1.3 1.2-2.6 1.8-4.1 1.8s-2.8-.7-4-2c-1.3-1.3-2-2.7-2-4.1-.1-1.4.5-2.7 1.6-3.8 1.1-1 2.2-1.5 3.5-1.5 1.3.1 2.4.7 3.5 1.8l.9.9-5.4 5.2c.8.8 1.6 1.2 2.4 1.2.8 0 1.6-.3 2.3-1 .5-.5.9-.9 1.2-1.4.3-.5.6-1.1.9-1.7l1.4 1.4c-.2.6-.5 1.2-.9 1.7-.3.4-.7 1-1.3 1.5zm-7.2-6.8c-.6.5-.8 1.1-.8 1.8s.3 1.4.9 2.1l3.7-3.6c-.7-.7-1.3-1-2-1.1-.6 0-1.2.2-1.8.8zM271.5 294.1c-1.1 1.3-2.3 2-3.6 2.1-1.3.1-2.7-.5-4.2-1.7s-2.3-2.5-2.5-3.9c-.2-1.4.3-2.7 1.4-4.1.8-.9 1.6-1.6 2.6-2.1l1 1.8c-1 .5-1.6 1.1-2.1 1.6-1.2 1.5-.9 3.1 1.1 4.8 1 .8 1.9 1.2 2.7 1.3s1.5-.3 2.1-1c.7-.8 1.1-1.8 1.3-2.9l1.6 1.3c-.1.5-.2 1-.5 1.4-.1.3-.4.8-.9 1.4zM276.3 276.9c1.6 1 2.5 2.2 2.9 3.5.4 1.4.1 2.8-.8 4.2-.6.9-1.3 1.5-2.1 2-.8.4-1.8.6-2.7.5-1-.1-2-.5-3-1.1-1.5-1-2.5-2.2-2.9-3.5s-.1-2.7.9-4.2c.9-1.4 2-2.2 3.4-2.4 1.3-.3 2.8.1 4.3 1zm-4.5 7c2.2 1.4 3.8 1.3 4.9-.3 1-1.6.5-3.1-1.7-4.5s-3.8-1.3-4.8.3c-.5.9-.7 1.6-.3 2.4.2.7.8 1.4 1.9 2.1zM269.9 270.3c-.4-.2-.6-.5-.7-.8-.1-.3 0-.7.2-1.1.2-.4.4-.6.8-.7.3-.1.7-.1 1 .1.4.2.6.4.7.8.1.3.1.7-.1 1-.2.4-.5.6-.8.7-.4.2-.7.2-1.1 0zm13.9 4.3l-1.1 2.1-10.1-5.2 1.1-2.1 10.1 5.2zM289.5 261.5l-.9 2.2-6.5-2.6c-.8-.3-1.5-.4-2-.2s-.9.6-1.2 1.3c-.4.9-.4 1.8 0 2.4.4.7 1.2 1.3 2.6 1.8l5.3 2.1-.9 2.2-10.5-4.2.7-1.8 1.5.2v-.1c-.4-.5-.6-1.1-.6-1.8s.1-1.4.4-2.1c1-2.5 2.8-3.3 5.4-2.3l6.7 2.9z"/><path stroke="#5592D7" stroke-width="17" stroke-miterlimit="10" d="M260.9 212.8c0 40.1-25.8 74.2-61.7 86.7" fill="none"/><path fill="#5592D7" d="M201.1 276.8l-32 27.8 40.1 13.8z"/><radialGradient id="c" cx="289.188" cy="108.813" r="106.86" gradientUnits="userSpaceOnUse"><stop offset="0" stop-color="#fff"/><stop offset="0" stop-color="#fff"/><stop offset="0" stop-color="#fff"/><stop offset=".195" stop-color="#FCFDFE"/><stop offset=".349" stop-color="#F2F7FC"/><stop offset=".49" stop-color="#E1ECF8"/><stop offset=".622" stop-color="#CADDF2"/><stop offset=".749" stop-color="#ABC9EB"/><stop offset=".871" stop-color="#86B1E2"/><stop offset=".988" stop-color="#5A95D8"/><stop offset="1" stop-color="#5592D7"/></radialGradient><path opacity=".5" fill="url(#c)" d="M364.1 16.7c-1.5 1.5-2.1 3.5-1.9 5.5l-26.4 5.5c-.3-1-.8-2-1.6-2.7-2.6-2.6-6.9-2.6-9.5 0-.3.3-.5.6-.7.9l-25.3-14.4c1.1-2.5.6-5.5-1.4-7.5-2.6-2.6-6.9-2.6-9.5 0-1.2 1.2-1.8 2.8-1.9 4.3l-35.6 1.2c-.2-1.4-.8-2.8-1.9-3.9-2.6-2.6-6.9-2.6-9.5 0-2.6 2.6-2.6 6.9 0 9.5.9.9 1.9 1.4 3 1.7l-7 42.5c-1.6.1-3.2.7-4.4 1.9-1.4 1.4-2 3.2-1.9 5.1l-33 9.2c-.3-.8-.8-1.6-1.5-2.3-2.6-2.6-6.9-2.6-9.5 0-2.6 2.6-2.6 6.9 0 9.5 1.2 1.2 2.9 1.9 4.5 1.9l1.5 24.8c-1.4.2-2.7.8-3.7 1.9-2.6 2.6-2.6 6.9 0 9.5 2.6 2.6 6.9 2.6 9.5 0l.2-.2 16.8 12.6c-1.6 2.6-1.2 6 1 8.2.6.6 1.2 1 1.9 1.3l-9 25.9c-2.2-.5-4.6.1-6.3 1.8-2.6 2.6-2.6 6.9 0 9.5 2.6 2.6 6.9 2.6 9.5 0 1.1-1.1 1.7-2.4 1.9-3.8l37.9 1.6c.1 1.6.7 3.2 1.9 4.4 2.5 2.5 6.5 2.6 9.1.4l23.2 22.4c-2.1 2.6-1.9 6.5.5 8.9 2.6 2.6 6.9 2.6 9.5 0 2.1-2.1 2.5-5.1 1.3-7.6l35.2-20.8c.2.3.4.5.6.8 2.6 2.6 6.9 2.6 9.5 0 2.6-2.6 2.6-6.7.2-9.3l44.1-49.8c2.6 1.9 6.3 1.7 8.7-.7 2.6-2.6 2.6-6.9 0-9.5-1.5-1.5-3.6-2.1-5.6-1.9l-7.8-33.7c.9-.3 1.8-.8 2.6-1.6 2.6-2.6 2.6-6.9 0-9.5-1.4-1.4-3.4-2.1-5.2-1.9l-7.2-40.2c1.1-.3 2.1-.8 2.9-1.7 2.6-2.6 2.6-6.9 0-9.5-2.8-2.9-7.1-2.9-9.7-.2zm-20 97.9c-1.3-.9-3-1.3-4.5-1.1l-7.2-35c1-.3 2-.8 2.8-1.6 1-1 1.7-2.4 1.9-3.7l34.7 1.9c.1 1.6.7 3.2 1.9 4.4l-29.6 35.1zm40.2 11.4l-44.1 49.8c-.9-.6-1.8-1-2.8-1.2l3.1-47.8c1.6-.1 3.3-.7 4.5-2 1.1-1.1 1.7-2.5 1.9-3.9l35.6 1c.2 1.6.8 3 1.8 4.1zm-99.1 77.9L262 181.5c1.4-1.8 1.8-4 1.2-6.1l32.5-13.4c.3.6.7 1.1 1.1 1.6.7.7 1.6 1.3 2.6 1.6l-8.9 37.1c-1.9-.2-3.8.3-5.3 1.6zm-88.9-92.3l34.9-40c.5.3.9.6 1.4.8L226.3 95c-2.1-.4-4.3.3-5.9 1.9-1.8 1.8-2.4 4.5-1.6 6.8l-21.5 9.4c-.3-.7-.6-1.1-1-1.5zm91.8-97.8c.9.7 1.9 1.2 2.9 1.5l-3.4 32.6c-1.7 0-3.5.7-4.8 2-1.5 1.5-2.1 3.6-1.9 5.5L241.3 64c-.3-1-.8-1.9-1.6-2.7-.1-.1-.1-.1-.2-.1l48.6-47.4zm40.8 22.5l.7 29.2c-1.4.2-2.8.8-3.9 1.9-.5.5-.8 1-1.2 1.6l-30.3-12.5c.5-1.6.4-3.3-.4-4.8L324 33.6c.2.3.4.5.6.8 1.2 1.2 2.7 1.8 4.3 1.9zm-23.1 117.4c-1-.9-2.3-1.3-3.5-1.5l.1-30.3c1.5-.1 3-.8 4.1-1.9.9-.9 1.5-2.1 1.8-3.2l25.2 3.2c0 1.6.5 3.2 1.6 4.5l-29.3 29.2zm-47.7 17l3.2-30.5c1.7 0 3.5-.6 4.8-2 .2-.2.4-.4.5-.6l28.9 18.2c-.8 1.5-.9 3.3-.4 4.9l-32.5 13.4c-.3-.6-.7-1.1-1.1-1.6-.9-.9-2.1-1.5-3.4-1.8zm-33.6-37.6l38.9-31.4c.8.8 1.8 1.4 2.9 1.7l-4.4 23.5c-1.9-.2-3.9.5-5.3 1.9-1.3 1.3-1.9 2.9-2 4.6l-29.2 2.2c-.1-.9-.4-1.8-.9-2.5zm3.1-37.9l6.3-22.6c1.9.3 4-.2 5.6-1.6l23.4 21.8c-.9 1.2-1.4 2.6-1.4 4.1l-29.8 3.2c-.3-1.2-.9-2.4-1.8-3.4-.7-.7-1.5-1.2-2.3-1.5zm73.3 57c-1.5.1-3 .8-4.1 1.9-.2.2-.4.4-.5.6l-28.9-18.2c.8-1.6.9-3.4.4-5.1l28.2-12.8c.3.5.6 1 1 1.4 1.1 1.1 2.6 1.8 4.1 1.9l-.2 30.3zM273 101.7c.3-.3.6-.6.8-1l21.8 11.9c-.6 1.5-.7 3.2-.2 4.8l-28.2 12.8c-.3-.5-.6-1-1-1.4-.8-.8-1.8-1.4-2.9-1.7l4.4-23.5c1.9.1 3.8-.5 5.3-1.9zm24 8.7c-.3.3-.6.6-.8 1l-21.8-11.9c.6-1.4.7-3 .2-4.5l49.7-19.8c.3.6.7 1.2 1.2 1.7.2.2.3.3.5.4l-21.2 32c-2.4-1.4-5.7-1-7.8 1.1zM323.9 74l-49.7 19.8c-.3-.6-.7-1.2-1.2-1.7-.4-.4-.9-.7-1.4-1l13.9-30.2c2.4.8 5.1.3 6.9-1.6.5-.5.8-1 1.2-1.6l30.3 12.5c-.3 1.2-.3 2.5 0 3.8zm-39.6-13.6l-13.9 30.2c-2.2-.8-4.7-.3-6.6 1.3l-23.4-21.8c1.1-1.4 1.5-3.1 1.3-4.8l39.6-8.6c.3 1 .8 1.9 1.6 2.7.4.4.9.7 1.4 1zm51.2 55c-.9.9-1.5 2.1-1.8 3.2l-25.2-3.2c0-1.8-.6-3.6-2-5-.2-.2-.3-.3-.5-.4l21.2-32c1.2.6 2.5.9 3.8.7l7.2 35c-.9.4-1.9.9-2.7 1.7zm-105.6-9.2c1.3-1.3 2-3.1 2-4.8l29.8-3.2c.2.8.5 1.6.9 2.3l-39 31.5c-.8-.8-1.9-1.4-2.9-1.7l3.9-22.1c1.9.1 3.9-.5 5.3-2zm-6 35c1.1-1.2 1.6-2.7 1.7-4.3l29.2-2.2c.2 1.3.8 2.6 1.9 3.6 1 1 2.2 1.6 3.4 1.8l-3.2 30.5c-1.4 0-2.9.5-4.1 1.4l-28.9-30.8zm82.9 13.4l29.3-29.2c.9.7 2 1.2 3.1 1.4l-3.1 47.8c-1.6.1-3.3.7-4.5 2-.2.2-.3.4-.5.6L307.6 162c1.1-2.4.9-5.3-.8-7.4zm65-80.9l-34.7-1.9c-.1-1.6-.7-3.2-1.9-4.5-1.2-1.2-2.7-1.8-4.2-1.9l-.7-29.2c1.3-.2 2.6-.7 3.6-1.6L373 70.7c-.6.9-1.1 2-1.2 3zm-48.5-46.8c-.8 1.8-.8 3.8.1 5.6L293 50.6c-.2-.3-.4-.5-.6-.8-1-1-2.2-1.6-3.4-1.8l3.4-32.6c1.7 0 3.5-.7 4.8-2 .3-.3.5-.6.7-.9l25.4 14.4zm-75.1-11.8c1.2-1.2 1.8-2.8 1.9-4.3l35.6-1.2c.2 1.2.6 2.3 1.4 3.3l-48.6 47.5c-.8-.5-1.6-.8-2.5-.9l7-42.3c1.9 0 3.8-.7 5.2-2.1zm-19.7 52.6c.3 1.1.8 2.1 1.6 3l-34.9 40c-1.1-.8-2.3-1.2-3.6-1.2l-1.5-24.8c1.4-.2 2.7-.8 3.7-1.9 1.6-1.6 2.2-3.8 1.9-5.9l32.8-9.2zm-31.3 51.9c1-1.7 1.2-3.7.6-5.5l21.5-9.4c.3.5.6 1 1.1 1.5.8.8 1.9 1.4 2.9 1.7l-3.9 22.1c-1.9-.1-3.8.5-5.3 1.9l-.2.2-16.7-12.5zm20.1 23.7c1.9.5 4 0 5.6-1.2l28.8 30.8c-.9 1-1.4 2.2-1.6 3.5l-37.9-1.6c-.1-1.6-.7-3.2-1.9-4.4-.6-.6-1.2-1-1.9-1.3l8.9-25.8zM295 205c-.2-.3-.4-.5-.6-.8-.7-.7-1.6-1.3-2.6-1.6l8.9-37.1c2 .3 4.1-.3 5.7-1.9.2-.2.3-.4.5-.6l23.5 15.2c-.9 1.8-1 4-.1 5.9L295 205zm92.1-89.9c-.9.3-1.8.8-2.6 1.6-1.1 1.1-1.7 2.5-1.9 3.9l-35.6-1c-.1-1.5-.7-3-1.8-4.2l29.5-35.1c1.4.9 3 1.3 4.6 1.1l7.8 33.7zm-10.5-46.8c-1 .3-1.9.7-2.6 1.4l-39.2-36.1c1-1.4 1.5-3.1 1.3-4.7l26.4-5.5c.3 1 .8 2 1.6 2.7 1.4 1.4 3.4 2.1 5.3 1.9l7.2 40.3z"/><path d="M275.6 89.6c0 2-.7 3.6-2.2 4.8s-3.5 1.7-6.1 1.7c-2.6 0-4.7-.4-6.3-1.2v-3.5c1 .5 2.1.9 3.3 1.2s2.3.4 3.3.4c1.5 0 2.6-.3 3.3-.8s1.1-1.3 1.1-2.3c0-.9-.3-1.6-1-2.2-.6-.6-2-1.3-4-2.1-2.1-.8-3.6-1.8-4.4-2.9-.9-1.1-1.3-2.4-1.3-3.9 0-1.9.7-3.4 2-4.5 1.4-1.1 3.2-1.6 5.5-1.6 2.2 0 4.4.5 6.5 1.4l-1.2 3c-2-.9-3.8-1.3-5.4-1.3-1.2 0-2.1.3-2.8.8-.6.5-.9 1.2-.9 2.1 0 .6.1 1.1.4 1.5s.7.8 1.2 1.2c.6.4 1.6.9 3.1 1.5 1.7.7 2.9 1.3 3.7 2 .8.6 1.4 1.3 1.7 2 .3.8.5 1.7.5 2.7zM294.1 95.8l-2.3-6.3h-8.7l-2.2 6.3H277l8.5-22.9h4.1l8.5 22.9h-4zm-3.2-9.6l-2.1-6.2c-.2-.4-.4-1.1-.6-2-.3-.9-.5-1.6-.6-2-.3 1.3-.7 2.7-1.2 4.2l-2.1 6h6.6zM304.8 95.8h-3.7V73H314v3.2h-9.2v7.1h8.6v3.2h-8.6v9.3zM331.1 95.8h-12.9V73h12.9v3.2h-9.2v6.2h8.6v3.1h-8.6v7.2h9.2v3.1zM251.3 134.2h-4.6L235.5 116h-.1l.1 1c.1 1.9.2 3.7.2 5.3v11.9h-3.4v-22.8h4.5l11.2 18.1h.1c0-.2-.1-1.1-.1-2.6-.1-1.5-.1-2.7-.1-3.5v-12h3.4v22.8zM264.5 134.5c-2.7 0-4.8-.8-6.3-2.4-1.5-1.6-2.3-3.7-2.3-6.5s.7-5 2.1-6.7c1.4-1.6 3.3-2.4 5.8-2.4 2.3 0 4.1.7 5.4 2.1 1.3 1.4 2 3.3 2 5.7v2h-11.5c.1 1.7.5 3 1.4 3.9.9.9 2.1 1.4 3.6 1.4 1 0 2-.1 2.9-.3.9-.2 1.8-.5 2.8-1v3c-.9.4-1.8.7-2.7.9-1 .2-2 .3-3.2.3zm-.7-15.1c-1.2 0-2.1.4-2.8 1.1-.7.7-1.1 1.8-1.3 3.2h7.8c0-1.4-.4-2.5-1-3.2-.6-.7-1.5-1.1-2.7-1.1zM281.8 131.6c.9 0 1.8-.1 2.7-.4v2.8c-.4.2-.9.3-1.6.4-.6.1-1.3.2-2 .2-3.5 0-5.2-1.8-5.2-5.5v-9.3h-2.4v-1.6l2.5-1.3 1.3-3.7h2.3v3.8h4.9v2.8h-4.9v9.3c0 .9.2 1.5.7 2 .4.2 1 .5 1.7.5zM302.1 134.2l-2.2-8.1c-.3-.9-.8-2.8-1.5-6h-.1c-.6 2.8-1.1 4.8-1.4 6l-2.3 8h-4.1l-4.8-17.3h3.8l2.2 8.5c.5 2.1.9 3.9 1.1 5.4h.1c.1-.8.3-1.6.5-2.6s.4-1.7.6-2.2l2.6-9.1h4l2.5 9.1c.2.5.4 1.3.6 2.3.2 1.1.4 1.9.4 2.5h.1c.2-1.3.5-3.1 1.1-5.4l2.2-8.5h3.7l-4.9 17.3h-4.2zM329.4 125.5c0 2.8-.7 5-2.2 6.6-1.4 1.6-3.5 2.4-6 2.4-1.6 0-3-.4-4.3-1.1-1.2-.7-2.2-1.8-2.9-3.1-.7-1.4-1-2.9-1-4.8 0-2.8.7-5 2.2-6.6 1.4-1.6 3.5-2.4 6.1-2.4 2.5 0 4.5.8 5.9 2.4 1.5 1.7 2.2 3.9 2.2 6.6zm-12.6 0c0 4 1.5 6 4.4 6 2.9 0 4.4-2 4.4-6 0-3.9-1.5-5.9-4.4-5.9-1.5 0-2.7.5-3.4 1.5-.6 1.1-1 2.5-1 4.4zM342.4 116.6c.7 0 1.3.1 1.8.2l-.4 3.4c-.5-.1-1.1-.2-1.6-.2-1.5 0-2.7.5-3.6 1.4-.9 1-1.4 2.2-1.4 3.7v9h-3.7v-17.3h2.9l.5 3h.2c.6-1 1.3-1.8 2.2-2.5 1.1-.4 2-.7 3.1-.7zM351 125.1l2.1-2.6 5.2-5.6h4.2l-7 7.4 7.4 9.9h-4.3l-5.5-7.6-2 1.7v5.9h-3.6v-24.3h3.6v11.9l-.1 3.3z"/></svg>