<svg xmlns="http://www.w3.org/2000/svg" viewBox="0 0 1902.9 889.9" enable-background="new 0 0 1902.9 889.9"><path fill="#EAEAEA" d="M0 0h1902.9v889.9H0z"/><radialGradient id="a" cx="790.162" cy="4425.754" r="20.077" gradientTransform="matrix(6.407 0 0 .445 -4415.822 -1428.908)" gradientUnits="userSpaceOnUse"><stop offset="0" stop-color="#050505" stop-opacity=".5"/><stop offset=".276" stop-color="#515151" stop-opacity=".362"/><stop offset=".631" stop-color="#AEAEAE" stop-opacity=".184"/><stop offset=".881" stop-color="#E8E8E8" stop-opacity=".06"/><stop offset="1" stop-color="#fff" stop-opacity="0"/></radialGradient><path fill="url(#a)" d="M782.6 542.2c0 5.1-59.2 9.2-132.2 9.2s-132.2-4.1-132.2-9.2 59.2-9.2 132.2-9.2 132.2 4.2 132.2 9.2z"/><path fill="#5892CD" d="M828.4 475.6c0 7.7-2.7 13.6-8.1 17.7-5.4 4-13.4 6.1-24.1 6.1-5.5 0-10.3-.4-14.2-1.1-3.9-.7-7.5-1.8-11-3.3v-17c4.2 1.8 8.3 3.3 13.1 4.5 4.8 1.2 9.1 1.8 12.7 1.8 7.5 0 11.2-2.2 11.2-6.5 0-1.6-.5-2.9-1.5-3.9s-2.7-2.2-5.1-3.4c-2.4-1.3-5.7-2.8-9.7-4.5-5.8-2.4-10.1-4.7-12.8-6.7-2.7-2.1-4.7-4.4-5.9-7.1-1.2-2.7-1.9-6-1.9-9.9 0-6.7 2.6-11.9 7.8-15.5 5.2-3.7 12.6-5.5 22.1-5.5 9.1 0 17.9 2 26.5 5.9l-6.2 14.8c-3.8-1.6-7.3-2.9-10.6-4-3.3-1-6.6-1.6-10-1.6-6.1 0-9.1 1.6-9.1 4.9 0 1.8 1 3.4 2.9 4.8 2 1.3 6.2 3.3 12.8 6 5.9 2.4 10.2 4.6 12.9 6.7 2.7 2.1 4.8 4.4 6.1 7.1 1.5 2.8 2.1 6 2.1 9.7zM892.3 498.3l-4-10.5h-.5c-3.5 4.2-7 7.4-10.7 9.1-3.7 1.7-8.4 2.5-14.3 2.5-7.2 0-12.9-2.1-17.1-6.2-4.2-4.1-6.2-10-6.2-17.7 0-8 2.8-13.9 8.4-17.7 5.6-3.8 14.1-5.9 25.4-6.3l13.2-.4v-3.3c0-7.6-4-11.5-11.8-11.5-6 0-13.1 1.8-21.3 5.5l-6.8-13.9c8.7-4.5 18.3-6.8 28.8-6.8 10.1 0 17.9 2.2 23.3 6.6 5.4 4.4 8.1 11.1 8.1 20.1v50.5h-14.5zm-5.9-35.2l-8 .3c-6 .2-10.5 1.3-13.4 3.2-2.9 2-4.4 5-4.4 9 0 5.8 3.3 8.7 10 8.7 4.8 0 8.6-1.4 11.5-4.1 2.9-2.7 4.4-6.4 4.4-10.9v-6.2zM969.7 438.1h-18.2v60.1h-20.3v-60.1H920v-10l11.2-5.5v-5.5c0-8.6 2.1-14.9 6.3-18.8 4.2-4 11-5.9 20.3-5.9 7.1 0 13.4 1.1 18.9 3.2l-5.3 15.1c-4.1-1.3-8-2-11.5-2-2.9 0-5.2.9-6.5 2.6-1.3 1.7-2.1 3.9-2.1 6.6v4.8h18.2v15.4zM1015.5 499.4c-12.1 0-21.6-3.3-28.5-10-6.8-6.7-10.3-16.2-10.3-28.5 0-12.6 3.2-22.4 9.5-29.3 6.3-6.9 15-10.3 26.2-10.3 10.7 0 18.8 3 24.7 9.1 5.9 6.1 8.7 14.5 8.7 25.1v9.9h-48.3c.2 5.6 2 10.4 5.2 13.7 3.2 3.3 7.8 4.9 13.6 4.9 4.5 0 8.7-.5 12.7-1.4 4-.9 8.3-2.4 12.5-4.5V494c-3.5 1.8-7.3 3.1-11.4 4-3.9.9-8.7 1.4-14.6 1.4zm-2.9-63.6c-4.4 0-7.8 1.2-10.2 4-2.5 2.8-3.9 6.7-4.2 11.6h28.9c-.1-4.9-1.4-8.8-4-11.6-2.7-2.7-6.2-4-10.5-4z"/><path fill="#6EAADC" d="M1093.5 499.4c-23.5 0-35.2-12.9-35.2-38.6 0-12.8 3.2-22.6 9.6-29.4 6.4-6.8 15.5-10.1 27.4-10.1 8.7 0 16.5 1.7 23.5 5.1l-6.1 15.9c-3.2-1.3-6.2-2.4-9-3.2-2.8-.8-5.6-1.2-8.4-1.2-10.7 0-16 7.6-16 22.8 0 14.7 5.3 22.1 16 22.1 4 0 7.6-.5 11-1.6 3.4-1.1 6.6-2.7 10.1-5v17.6c-3.5 2.1-6.7 3.6-10.1 4.4-3.3.7-7.6 1.2-12.8 1.2zM1202.4 460.2c0 12.3-3.2 21.9-9.7 28.8-6.5 6.9-15.5 10.4-27 10.4-7.2 0-13.6-1.6-19.1-4.8-5.5-3.2-9.8-7.7-12.7-13.7-3-5.9-4.4-12.9-4.4-20.8 0-12.3 3.2-21.9 9.6-28.7 6.4-6.8 15.5-10.2 27.1-10.2 7.2 0 13.6 1.6 19.1 4.7 5.5 3.1 9.8 7.7 12.7 13.6 3 5.9 4.4 12.8 4.4 20.7zm-52.1 0c0 7.5 1.2 13.1 3.7 16.9 2.4 3.8 6.4 5.7 12 5.7 5.5 0 9.4-1.9 11.8-5.7 2.4-3.8 3.6-9.5 3.6-17s-1.2-13.1-3.6-16.8c-2.4-3.7-6.4-5.6-11.9-5.6s-9.4 1.9-11.9 5.6c-2.5 3.8-3.7 9.4-3.7 16.9zM1218.6 403.1c0-6.7 3.7-10 11.2-10 7.5 0 11.2 3.3 11.2 10 0 3.2-.9 5.7-2.8 7.5-1.9 1.8-4.7 2.7-8.4 2.7-7.5-.1-11.2-3.4-11.2-10.2zm21.7 95.2h-21v-75.5h21v75.5zM1331.2 498.3h-20.3V454c0-5.4-1.1-9.5-3-12.2-1.9-2.7-5.1-4.1-9.3-4.1-5.8 0-9.9 1.9-12.5 5.8-2.6 3.8-3.8 10.2-3.8 19.1v35.7h-21v-75.5h16l2.8 9.8h1.1c2.3-4.2 5.5-6.5 9.5-8.4 4-1.9 8.6-2.9 13.7-2.9 8.8 0 15.4 2.3 20 7.1 4.5 4.7 6.8 11.6 6.8 20.5v49.4z"/><g fill="#5892CD"><path d="M692 443.4v-15.6l-41.3-23.7-30.9 17.8 92.5 53.4v11.6l-61.5 35.4-61.5-35.4v-23.4l-17.5-10.2v43.8l78.6 45.6 78.7-45.6v-32.4zM712.3 416.2l-61.5-35.4-61.5 35.4 61.5-35.4z"/></g><path fill="#6EAADC" d="M650.8 360.4l-79 45.6v34.4l37 21.7v13.2l41.7 23.7 29.1-16.7-90.3-52.2v-13.9l61.5-35.4 61.5 35.4v23l17.5 10.1V406z"/></svg>