<svg xmlns="http://www.w3.org/2000/svg" viewBox="0 0 434 264" enable-background="new 0 0 434 264"><g fill="#5592D7"><path d="M196.3 46.7L6.5 84c-3 .6-5 3.5-4.4 6.5l28.3 144c.6 3 3.5 5 6.5 4.4l189.8-37.3c3-.6 5-3.5 4.4-6.5l-28.3-144c-.6-3-3.5-5-6.5-4.4zM21.2 86.8c1.8-.4 3.6.8 3.9 2.6.4 1.8-.8 3.6-2.6 3.9-1.8.4-3.6-.8-3.9-2.6-.4-1.8.8-3.5 2.6-3.9zm-10.3 2c1.8-.4 3.6.8 3.9 2.6.4 1.8-.8 3.6-2.6 3.9-1.8.4-3.6-.8-3.9-2.6-.4-1.8.8-3.5 2.6-3.9zm216 108.2L35 234.8 8.6 100.6l192-37.7L226.9 197zM32.8 91.3c-1.8.4-3.6-.8-3.9-2.6-.4-1.8.8-3.6 2.6-3.9 1.8-.4 3.6.8 3.9 2.6.4 1.8-.8 3.6-2.6 3.9z"/><g opacity=".85"><path d="M148.9 76.4L105.2 85l-43.6 8.6-49.1 9.6 3.9 19.7 49.1-9.7 43.6-8.6 43.6-8.5 49.1-9.7-3.9-19.6z"/><path opacity=".25" d="M159.26 100.44l43.664-8.58 7.288 37.09-43.664 8.58zM17.47 128.334l43.664-8.58 7.287 37.09-43.662 8.58z"/><path d="M110.2 110.1l-43.7 8.6 7.3 37.1 43.6-8.6 43.7-8.6-7.3-37.1zM175.96 185.484l43.662-8.58 4.068 20.704-43.663 8.58zM34.168 213.38l43.664-8.58 4.068 20.703-43.664 8.58z"/><path opacity=".75" d="M128 195l-43.7 8.5 4.1 20.8 43.6-8.6 43.7-8.6-4.1-20.7z"/><path d="M125.825 189.69l-43.663 8.58-7.288-37.09 43.663-8.578z"/><path opacity=".75" d="M167.6 143l43.6-8.6 7.3 37.1-43.6 8.6-43.6 8.5-7.3-37zM76.773 199.38l-43.663 8.58-7.288-37.09 43.664-8.58z"/></g></g><path stroke="#EBEBEB" stroke-width="3.998" stroke-linecap="round" stroke-miterlimit="10" d="M273 61.2c-2.4-7.7-2.7-11.9-3.2-21.9-1-19.9-.6-1.9-1-19.9-.3-11 19.9-15.2 22.6-15.4 3.1-.2 18.8-1.1 22.7 6.8 1.5 2.9 1.2 8.4 1.3 9.6.6 8.2.3 13.2 3.8 37.2" fill="none"/><path fill="#ccc" d="M400.9 37.2L193.5 52.8l12.9 10.6 9 8.6 185.5-14.8z"/><path fill="#EAEAEA" d="M431.6 54.8L215.4 72l-1.6 155.5 4 34.2 213.8-24.3-4.8-35.7z"/><g fill="#5892CD"><path d="M344.7 149.8v-8.4L322.5 131l-16.6 11.3 49.6 23.4v6.2l-32.9 22.4-33-15.5v-12.5l-9.4-4.5v23.5l42.2 20 42.1-28.8v-17.4zM355.5 134l-32.9-15.5-33 22.4 33-22.4z"/></g><path fill="#6EAADC" d="M322.6 107.6l-42.4 28.9v18.4l19.9 9.5v7.1l22.3 10.4 15.6-10.6-48.4-22.9v-7.5l33-22.4 32.9 15.5v12.4l9.4 4.4v-23.2z"/><path fill="#E2E2E2" d="M184.7 232.9l33.1 28.8-4-34.2L215.4 72l-9-8.6-12.9-10.6.8 161.7z"/><path fill="#BCBCBC" d="M431.6 54.8l-30.7 2.4v-20l10.9 10.2z"/><path fill="#EFEFEF" d="M431.6 237.4l-213.8 24.3-4-34.2 213-25.8z"/><path fill="#DBDBDB" d="M184.7 232.9l22.7-7.7-1-161.8-12.9-10.6.8 161.7z"/><path fill="#D3D3D3" d="M217.8 261.7l-10.4-36.5-1-161.8 9 8.6-1.6 155.5z"/><path fill="#C6C6C6" d="M431.6 54.8l-19.8 1.6v-9z"/><circle fill="#F4F4F4" stroke="#fff" stroke-width=".8" stroke-miterlimit="10" cx="298.4" cy="79" r="2.4"/><circle fill="#F4F4F4" stroke="#fff" stroke-width=".8" stroke-miterlimit="10" cx="344.8" cy="75.5" r="2.4"/><path stroke="#EFEFEF" stroke-width="3.998" stroke-linecap="round" stroke-miterlimit="10" d="M298.4 79c2.3-23.1.6-36-1.6-43.5-.4-1.4-1.4-4.5-.2-7.9C300 18.2 317.3 17.2 320 17c3.1-.2 18.8-1.1 22.7 6.8 1.5 2.9.8 6 .5 7.2-1.6 7.5-2.1 20.4 1.4 44.4" fill="none"/><circle opacity=".5" stroke="#fff" stroke-width=".8" stroke-miterlimit="10" cx="273" cy="61.2" r="2.4" fill="none"/><circle opacity=".5" stroke="#fff" stroke-width=".8" stroke-miterlimit="10" cx="319.4" cy="57.7" r="2.4" fill="none"/></svg>