<svg xmlns="http://www.w3.org/2000/svg" viewBox="0 0 318 230" enable-background="new 0 0 318 230"><path d="M288.6 149.9h-232v-134c0-2.8 2.3-5.2 5.2-5.2h221.6c2.8 0 5.2 2.3 5.2 5.2v134z"/><path fill="#5592D7" d="M66 20h213.4v120.6H66z"/><path fill="#C9C9CC" d="M283.5 170.5H61.8c-2.8 0-5.2-2.3-5.2-5.2v-15.5h232v15.5c0 2.9-2.3 5.2-5.1 5.2zM193.8 194.2h-42.3l2.1-23.7h38.1zM137.1 194.2h71.1v6.2h-71.1z"/><circle cx="172.7" cy="160.2" r="5.2"/><path fill="#B2B2B2" d="M192.8 183.9l-1.1-13.4h-38.1l-1 9.3z"/><circle fill="#EDEDED" cx="172.7" cy="80.3" r="44.3"/><path fill="#5592D7" d="M172.7 80.3l-.3-41c-3.1 0-6.2.4-9.4 1.2-22 5.3-35.5 27.5-30.2 49.4s27.5 35.5 49.4 30.2c22-5.3 35.5-27.5 30.2-49.4-.8-3.1-1.9-6.1-3.2-8.8l-36.5 18.4z"/><path fill="#513432" d="M124.1 130.5c-15.3-8.1-13.9-20.4-11.6-27.4 2.4-7.5 5.2-15.2 5.2-23.6V57.2c0-30.2-23.8-54.7-53-54.7s-53 24.5-53 54.7v22.2c0 8.4 2.8 16.1 5.2 23.6 2.3 7.1 3.8 19.4-11.6 27.4-2.5 1.3-3.8 4-2.3 6.4 5.8 9.6 23.2 31.1 61.7 31.1s55.9-21.5 61.7-31.1c1.6-2.3.2-5-2.3-6.3z"/><path fill="#5593D7" d="M107.5 183.6c0-28.3-19.1-51.3-42.7-51.3s-42.7 23-42.7 51.3c0 14.2 19.1 25.6 42.7 25.6s42.7-11.4 42.7-25.6z"/><path fill="#F7944B" d="M81.4 136.4c-5.1-2.6-10.7-4-16.6-4s-11.5 1.4-16.6 4c-2.5 7.1 0 30.2 16.6 30.2s19.1-23.1 16.6-30.2z"/><path opacity=".1" d="M107.5 183.6c0-28.3-19.1-51.3-42.7-51.3v76.9c23.6.1 42.7-11.4 42.7-25.6z"/><path fill="#F7C1A1" d="M81.4 136.4c-5.1-2.6-10.7-4-16.6-4-5.9 0-11.5 1.4-16.6 4 1.8 7.5 8.5 13.1 16.6 13.1 8.1 0 14.8-5.6 16.6-13.1zM56.3 105.3h17.1v33.1H56.3z"/><path fill="#F5B090" d="M73.3 133.4v-28.1h-8.5v44.1c8.1 0 14.8-5.6 16.6-13.1-2.6-1.2-5.3-2.2-8.1-2.9z"/><ellipse fill="#F7C1A1" cx="107.5" cy="70" rx="6.8" ry="12.8"/><path fill="#F7C1A1" d="M64.8 12.8c-23.6 0-42.7 19.9-42.7 44.4v22.2c0 24.5 19.1 44.4 42.7 44.4s42.7-19.9 42.7-44.4V57.2c0-24.6-19.1-44.4-42.7-44.4z"/><path fill="#F5B090" d="M64.8 12.8C83.7 12.8 99 32.6 99 57.2v22.2c0 24.5-15.3 44.4-34.2 44.4 23.6 0 42.7-19.9 42.7-44.4V57.2c0-24.6-19.1-44.4-42.7-44.4z"/><path fill="#513432" d="M64.8 2.5c-29.2 0-53 24.5-53 54.7v22.2c0 8.4 2.8 16.1 5.2 23.6 1 3.2 1.9 7.4 1.1 11.9h12.5c-3.4-9.4-2.1-40.8 17.6-50 19.7-9.2 33.2-31.2 33.2-31.2 12.3 5.6 26.1 23.5 26.1 23.5h10.3c0-30.2-23.8-54.7-53-54.7z"/><path fill="#424242" d="M313.7 206.3h-52.8c-1 0-1.8-.8-1.8-1.8v-74c0-1 .8-1.8 1.8-1.8h52.8c1 0 1.8.8 1.8 1.8v74c.1 1-.8 1.8-1.8 1.8z"/><path fill="#262626" d="M310.6 202.9H264c-.9 0-1.7-.7-1.7-1.7v-67.6c0-.9.7-1.7 1.7-1.7h46.6c.9 0 1.7.7 1.7 1.7v67.6c0 .9-.8 1.7-1.7 1.7z"/><circle fill="#E2E2E2" cx="287.3" cy="157.7" r="22.1"/><circle fill="#898989" cx="287.3" cy="157.7" r="6.3"/><path fill="#FFB600" d="M277 199.7l21.4-31.2c.2-.4.2-.8-.1-1.1-.3-.3-.8-.3-1.1-.1l-29.8 23.2c-.3.2-.4.6-.3.9v.1c1.2 4.3 4.6 7.5 9 8.4h.1c.3.2.6.1.8-.2zm-1-1.3c-3.5-.8-6.2-3.4-7.3-6.8l6.3-5.2c2.9.4 5.2 2.6 5.8 5.4l-4.8 6.6z"/><circle fill="#898989" cx="281.2" cy="185.5" r="2.8"/><path fill="#898989" d="M282.6 191.9c-4.3 0-7.7-3.4-7.7-7.7v-1.9c0-1-.8-1.8-1.8-1.8h-6.2c-1 0-1.8.8-1.8 1.8v12.5c0 2.9 2.4 5.3 5.3 5.3h15.7c1 0 1.8-.8 1.8-1.8v-4.7c0-1-.8-1.8-1.8-1.8h-3.5z"/><path fill="#FFB583" d="M155.3 181.4h72.8v35.9h-72.8z"/><path fill="#F7944B" d="M199.6 177.4h-48.7v44.1h81.7v-43.9h-33zm18.4 4c.5 5.4 4.8 9.7 10.2 10.2v15.5c-5.4.5-9.7 4.8-10.2 10.2h-52.4c-.5-5.4-4.8-9.7-10.2-10.2v-15.5c5.4-.5 9.7-4.8 10.2-10.2H218z"/><circle fill="#F7944B" cx="191.8" cy="199.4" r="12.2"/><circle fill="#FFB583" cx="191.8" cy="199.4" r="8"/><path fill="#FFB583" d="M144.3 171.4h72.8v35.9h-72.8z"/><path fill="#F7944B" d="M188.6 167.4h-48.7v44.1h81.7v-43.9h-33zm18.4 4c.5 5.4 4.8 9.7 10.2 10.2v15.5c-5.4.5-9.7 4.8-10.2 10.2h-52.4c-.5-5.4-4.8-9.7-10.2-10.2v-15.5c5.4-.5 9.7-4.8 10.2-10.2H207z"/><circle fill="#F7944B" cx="180.8" cy="189.4" r="12.2"/><circle fill="#FFB583" cx="180.8" cy="189.4" r="8"/><path fill="#FFE999" d="M133.9 222.4h25v5h-25zM136.4 216.4h25v5h-25zM136.4 210.4h25v5h-25zM133.9 204.4h25v5h-25zM132.6 198.4h25v5h-25zM133.9 192.4h25v5h-25zM133.9 186.4h25v5h-25zM118.7 227.4c-6.9 0-12.5-5.6-12.5-12.5s5.6-12.5 12.5-12.5 12.5 5.6 12.5 12.5-5.6 12.5-12.5 12.5z"/><path opacity=".8" fill="#F9CB64" d="M118.7 223.6c-4.8 0-8.8-3.9-8.8-8.8 0-4.8 3.9-8.8 8.8-8.8 4.8 0 8.8 3.9 8.8 8.8s-3.9 8.8-8.8 8.8z"/></svg>