<svg xmlns="http://www.w3.org/2000/svg" viewBox="-440 232 76 95" enable-background="new -440 232 76 95"><path fill="#fff" d="M-381 245v-11h-57v77h12v-66h3zM-423 248h57v77h-57z"/><path fill="#025487" d="M-414.4 261h39.8v-3h-39.8v3M-414.4 270h39.8v-3h-39.8v3M-414.4 279h39.8v-3h-39.8v3M-414.4 288h39.8v-3h-39.8v3M-414.4 297h39.8v-3h-39.8v3M-414.4 306h39.8v-3h-39.8v3M-414.4 315h39.8v-3h-39.8v3"/><g fill="#025487"><path d="M-426 245h35.8v-1H-430v3h4zM-430 253h4v3h-4zM-430 262h4v3h-4zM-430 271h4v3h-4zM-430 280h4v3h-4zM-430 289h4v3h-4zM-430 298h4v3h-4z"/></g></svg>